<?xml version="1.0" standalone="no"?>
<!DOCTYPE svg PUBLIC "-//W3C//DTD SVG 1.1//EN" "http://www.w3.org/Graphics/SVG/1.1/DTD/svg11.dtd" >
<svg xmlns="http://www.w3.org/2000/svg" xmlns:xlink="http://www.w3.org/1999/xlink" version="1.1">
<metadata>
Created by Christoph Koeberlin (http://christoph.koe.berlin)
Copyright (c) 2019 Swiss Typefaces Sarl. All rights reserved.
</metadata>
<defs>
<font id="Font" horiz-adv-x="248" >
  <font-face 
    font-family="Font"
    font-weight="400"
    font-stretch="normal"
    units-per-em="1000"
    panose-1="2 11 5 4 0 0 0 0 0 0"
    ascent="800"
    descent="-200"
    x-height="481"
    cap-height="787"
    bbox="-243 -274 1087 820"
    underline-thickness="41"
    underline-position="-158"
    unicode-range="U+0020-2022"
  />
<missing-glyph horiz-adv-x="700" 
d="M100 758h500v-758h-500v758zM119 728v-698l220 349zM581 30v698l-221 -349zM133 19h434l-217 343zM350 395l217 344h-434z" />
    <glyph glyph-name="f_f.liga" unicode="ff" horiz-adv-x="678" 
d="M198 481h219v65q0 61 12 106q-8 5 -15.5 14t-12.5 25q-11 34 -30 52t-50 18q-61 0 -92 -53t-31 -179v-48zM622 781q-30 0 -51.5 -12.5t-35 -40.5t-20 -72t-6.5 -107v-68h165v-26h-165v-367q0 -41 18 -54t59 -13h25v-21h-276v21h25q34 0 45.5 11.5t11.5 43.5v379h-219
v-367q0 -41 18 -54t59 -13h25v-21h-276v21h25q34 0 45.5 11.5t11.5 43.5v379h-79v26h79v45q0 68 16.5 116.5t45 79t68 44.5t85.5 14q55 0 91 -15t54 -34q28 36 68 52.5t91 16.5q40 0 69 -8.5t47.5 -20.5t27 -26t8.5 -25q0 -19 -10.5 -27.5t-27.5 -8.5q-14 0 -27 9.5
t-21 33.5q-9 29 -26 41.5t-43 12.5z" />
    <glyph glyph-name="f_i.liga" unicode="fi" horiz-adv-x="610" 
d="M198 455v-367q0 -41 18 -54t59 -13h25v-21h-276v21h25q34 0 45.5 11.5t11.5 43.5v379h-79v26h79v65q0 68 17 116.5t46.5 79t69.5 44.5t86 14q29 0 61 -7t59 -20t44.5 -33t17.5 -45q0 -20 -12.5 -34t-30.5 -14q-23 0 -34.5 10t-17.5 25t-10.5 32t-13 32t-25.5 25t-48 10
q-61 0 -89 -53t-28 -179v-68h388v-21h-25q-34 0 -45.5 -11.5t-11.5 -43.5v-329q0 -32 11.5 -43.5t45.5 -11.5h25v-21h-256v21h25q34 0 45.5 11.5t11.5 43.5v329q0 29 -9.5 39.5t-35.5 10.5h-169z" />
    <glyph glyph-name="f_f_i.liga" unicode="ffi" horiz-adv-x="921" 
d="M198 481h219v65q0 58 14 105q-20 9 -30 40q-11 34 -30 52t-50 18q-61 0 -92 -53t-31 -179v-48zM897 460h-25q-34 0 -45.5 -11.5t-11.5 -43.5v-329q0 -32 11.5 -43.5t45.5 -11.5h25v-21h-256v21h25q34 0 45.5 11.5t11.5 43.5v329q0 29 -9.5 39.5t-35.5 10.5h-169v-367
q0 -41 18 -54t59 -13h25v-21h-276v21h25q34 0 45.5 11.5t11.5 43.5v379h-219v-367q0 -41 18 -54t59 -13h25v-21h-276v21h25q34 0 45.5 11.5t11.5 43.5v379h-79v26h79v45q0 68 16.5 116.5t45 79t68 44.5t85.5 14q58 0 94.5 -16.5t54.5 -36.5q30 38 72.5 55.5t93.5 17.5
q29 0 61 -7t59 -20t44.5 -33t17.5 -45q0 -20 -12.5 -34t-30.5 -14q-23 0 -34.5 10t-17.5 25t-10.5 32t-13 32t-25.5 25t-48 10q-59 0 -88 -53t-29 -179v-68h388v-21z" />
    <glyph glyph-name="f_l.liga" unicode="fl" horiz-adv-x="609" 
d="M198 481h145v-26h-145v-367q0 -41 18 -54t59 -13h25v-21h-276v21h25q34 0 45.5 11.5t11.5 43.5v379h-79v26h79v64q0 69 14.5 117t41.5 79t65 45t84 14q25 0 53 -3.5t50 -9.5h178v-21h-25q-34 0 -45.5 -11.5t-11.5 -43.5v-635q0 -32 11.5 -43.5t45.5 -11.5h25v-21h-256v21
h25q34 0 45.5 11.5t11.5 43.5v605q-24 22 -33.5 40.5t-17 31.5t-18.5 20.5t-38 7.5q-30 0 -51.5 -12.5t-35 -40.5t-20 -72.5t-6.5 -107.5v-67z" />
    <glyph glyph-name="f_f_l.liga" unicode="ffl" horiz-adv-x="919" 
d="M198 481h218v64q0 61 12 106q-19 10 -27 38q-11 34 -30 52.5t-50 18.5q-61 0 -92 -53t-31 -179v-47zM902 787v-21h-25q-34 0 -45.5 -11.5t-11.5 -43.5v-635q0 -32 11.5 -43.5t45.5 -11.5h25v-21h-256v21h25q34 0 45.5 11.5t11.5 43.5v605q-24 22 -33.5 40.5t-17 31.5
t-18.5 20.5t-38 7.5q-30 0 -51.5 -12.5t-35 -40.5t-20 -72.5t-6.5 -107.5v-67h145v-26h-145v-367q0 -41 18 -54t59 -13h25v-21h-276v21h25q34 0 45.5 11.5t11.5 43.5v379h-218v-367q0 -41 18 -54t59 -13h25v-21h-276v21h25q34 0 45.5 11.5t11.5 43.5v379h-79v26h79v44
q0 68 16.5 116.5t45 79t68 44.5t85.5 14q54 0 89.5 -14.5t54.5 -33.5q27 35 66.5 52t89.5 17q25 0 53 -3.5t50 -9.5h178z" />
    <glyph glyph-name=".notdef" horiz-adv-x="700" 
d="M100 758h500v-758h-500v758zM119 728v-698l220 349zM581 30v698l-221 -349zM133 19h434l-217 343zM350 395l217 344h-434z" />
    <glyph glyph-name="glyph1" horiz-adv-x="0" 
 />
    <glyph glyph-name="glyph2" 
 />
    <glyph glyph-name="space" unicode=" " 
 />
    <glyph glyph-name="comma" unicode="," horiz-adv-x="239" 
d="M54 51q0 26 17 45.5t49 19.5t48 -20.5t16 -52.5q0 -33 -16 -69t-40 -69t-53 -59.5t-56 -41.5l-5 7q17 14 35 35.5t32.5 45.5t24 49t9.5 45q-26 2 -43.5 20.5t-17.5 44.5z" />
    <glyph glyph-name="hyphen" unicode="-" horiz-adv-x="424" 
d="M65 277h294v-43h-294v43z" />
    <glyph glyph-name="period" unicode="." horiz-adv-x="236" 
d="M53 51q0 27 19 46t46 19t46 -19t19 -46t-19 -46t-46 -19t-46 19t-19 46z" />
    <glyph glyph-name="slash" unicode="/" horiz-adv-x="432" 
d="M31 -33l325 853h46l-325 -853h-46z" />
    <glyph glyph-name="zero" unicode="0" horiz-adv-x="678" 
d="M518 360q0 98 -15.5 166t-41 110t-57.5 60.5t-65 18.5t-65 -18.5t-57.5 -60.5t-41 -110t-15.5 -166t15.5 -165t41 -108t57.5 -59t65 -18t65 18t57.5 59t41 108t15.5 165zM624 359q0 -90 -22 -159.5t-60 -117t-90.5 -72t-112.5 -24.5q-65 0 -117.5 25t-90 72.5
t-57.5 117.5t-20 160t22 160.5t60 118.5t90.5 73.5t114.5 25.5q69 0 121.5 -25.5t88.5 -74.5t54.5 -119.5t18.5 -160.5z" />
    <glyph glyph-name="A" unicode="A" horiz-adv-x="794" 
d="M391 812h13l297 -734q11 -28 30 -42.5t48 -14.5h24v-21h-284v21h24q14 0 25.5 2.5t19 8t9 14.5t-3.5 23l-80 203h-299l-48 -119q-16 -41 -22.5 -66.5t-2.5 -40t19 -20t42 -5.5h22v-21h-239v21h13q21 0 37 5t29.5 18.5t26.5 36.5t28 59zM241 339h245l-121 308z" />
    <glyph glyph-name="A" unicode="&#x104;" horiz-adv-x="794" 
d="M391 812h13l297 -734q11 -28 30 -42.5t48 -14.5h24v-21h-284v21h24q14 0 25.5 2.5t19 8t9 14.5t-3.5 23l-80 203h-299l-48 -119q-16 -41 -22.5 -66.5t-2.5 -40t19 -20t42 -5.5h22v-21h-239v21h13q21 0 37 5t29.5 18.5t26.5 36.5t28 59zM241 339h245l-121 308z" />
    <glyph glyph-name="A" unicode="&#x102;" horiz-adv-x="794" 
d="M391 812h13l297 -734q11 -28 30 -42.5t48 -14.5h24v-21h-284v21h24q14 0 25.5 2.5t19 8t9 14.5t-3.5 23l-80 203h-299l-48 -119q-16 -41 -22.5 -66.5t-2.5 -40t19 -20t42 -5.5h22v-21h-239v21h13q21 0 37 5t29.5 18.5t26.5 36.5t28 59zM241 339h245l-121 308z" />
    <glyph glyph-name="A" unicode="&#x100;" horiz-adv-x="794" 
d="M391 812h13l297 -734q11 -28 30 -42.5t48 -14.5h24v-21h-284v21h24q14 0 25.5 2.5t19 8t9 14.5t-3.5 23l-80 203h-299l-48 -119q-16 -41 -22.5 -66.5t-2.5 -40t19 -20t42 -5.5h22v-21h-239v21h13q21 0 37 5t29.5 18.5t26.5 36.5t28 59zM241 339h245l-121 308z" />
    <glyph glyph-name="A" unicode="&#xc6;" horiz-adv-x="794" 
d="M391 812h13l297 -734q11 -28 30 -42.5t48 -14.5h24v-21h-284v21h24q14 0 25.5 2.5t19 8t9 14.5t-3.5 23l-80 203h-299l-48 -119q-16 -41 -22.5 -66.5t-2.5 -40t19 -20t42 -5.5h22v-21h-239v21h13q21 0 37 5t29.5 18.5t26.5 36.5t28 59zM241 339h245l-121 308z" />
    <glyph glyph-name="A" unicode="&#xc5;" horiz-adv-x="794" 
d="M391 812h13l297 -734q11 -28 30 -42.5t48 -14.5h24v-21h-284v21h24q14 0 25.5 2.5t19 8t9 14.5t-3.5 23l-80 203h-299l-48 -119q-16 -41 -22.5 -66.5t-2.5 -40t19 -20t42 -5.5h22v-21h-239v21h13q21 0 37 5t29.5 18.5t26.5 36.5t28 59zM241 339h245l-121 308z" />
    <glyph glyph-name="A" unicode="&#xc4;" horiz-adv-x="794" 
d="M391 812h13l297 -734q11 -28 30 -42.5t48 -14.5h24v-21h-284v21h24q14 0 25.5 2.5t19 8t9 14.5t-3.5 23l-80 203h-299l-48 -119q-16 -41 -22.5 -66.5t-2.5 -40t19 -20t42 -5.5h22v-21h-239v21h13q21 0 37 5t29.5 18.5t26.5 36.5t28 59zM241 339h245l-121 308z" />
    <glyph glyph-name="A" unicode="&#xc3;" horiz-adv-x="794" 
d="M391 812h13l297 -734q11 -28 30 -42.5t48 -14.5h24v-21h-284v21h24q14 0 25.5 2.5t19 8t9 14.5t-3.5 23l-80 203h-299l-48 -119q-16 -41 -22.5 -66.5t-2.5 -40t19 -20t42 -5.5h22v-21h-239v21h13q21 0 37 5t29.5 18.5t26.5 36.5t28 59zM241 339h245l-121 308z" />
    <glyph glyph-name="A" unicode="&#xc2;" horiz-adv-x="794" 
d="M391 812h13l297 -734q11 -28 30 -42.5t48 -14.5h24v-21h-284v21h24q14 0 25.5 2.5t19 8t9 14.5t-3.5 23l-80 203h-299l-48 -119q-16 -41 -22.5 -66.5t-2.5 -40t19 -20t42 -5.5h22v-21h-239v21h13q21 0 37 5t29.5 18.5t26.5 36.5t28 59zM241 339h245l-121 308z" />
    <glyph glyph-name="A" unicode="&#xc1;" horiz-adv-x="794" 
d="M391 812h13l297 -734q11 -28 30 -42.5t48 -14.5h24v-21h-284v21h24q14 0 25.5 2.5t19 8t9 14.5t-3.5 23l-80 203h-299l-48 -119q-16 -41 -22.5 -66.5t-2.5 -40t19 -20t42 -5.5h22v-21h-239v21h13q21 0 37 5t29.5 18.5t26.5 36.5t28 59zM241 339h245l-121 308z" />
    <glyph glyph-name="A" unicode="&#xc0;" horiz-adv-x="794" 
d="M391 812h13l297 -734q11 -28 30 -42.5t48 -14.5h24v-21h-284v21h24q14 0 25.5 2.5t19 8t9 14.5t-3.5 23l-80 203h-299l-48 -119q-16 -41 -22.5 -66.5t-2.5 -40t19 -20t42 -5.5h22v-21h-239v21h13q21 0 37 5t29.5 18.5t26.5 36.5t28 59zM241 339h245l-121 308z" />
    <glyph glyph-name="B" unicode="B" horiz-adv-x="693" 
d="M239 426h23q64 0 107.5 13t69 35.5t36.5 53t11 64.5q0 89 -49 127t-151 38h-47v-331zM310 787q61 0 114 -9t92 -30.5t61 -57.5t22 -91q0 -36 -14.5 -66.5t-40.5 -54.5t-61 -39.5t-77 -21.5q54 -4 98.5 -18t76.5 -39.5t50 -62t18 -84.5q0 -64 -28 -105.5t-70 -65.5
t-91.5 -33t-92.5 -9h-331v21h36q34 0 48.5 11.5t14.5 43.5v635q0 32 -14.5 43.5t-48.5 11.5h-36v21h274zM339 30q97 0 147 49t50 134q0 43 -12 77t-42 57.5t-80.5 36t-126.5 12.5h-36v-332q0 -23 13.5 -28.5t56.5 -5.5h30z" />
    <glyph glyph-name="C" unicode="C" horiz-adv-x="829" 
d="M783 76q-33 -25 -70 -42t-76 -27.5t-78.5 -15.5t-75.5 -5q-97 0 -177.5 30t-138 84t-89.5 129t-32 166t32 166.5t89.5 129.5t138 84t177.5 30q83 0 155.5 -20t137.5 -57v-148h-15q-18 54 -48 91t-67.5 60.5t-80 33.5t-84.5 10q-59 0 -115.5 -22t-100.5 -68t-71 -118
t-27 -172t26.5 -171.5t70 -117.5t100 -68t115.5 -22q42 0 85 8t81 30t70 62t53 105h15v-145z" />
    <glyph glyph-name="C" unicode="&#x10c;" horiz-adv-x="829" 
d="M783 76q-33 -25 -70 -42t-76 -27.5t-78.5 -15.5t-75.5 -5q-97 0 -177.5 30t-138 84t-89.5 129t-32 166t32 166.5t89.5 129.5t138 84t177.5 30q83 0 155.5 -20t137.5 -57v-148h-15q-18 54 -48 91t-67.5 60.5t-80 33.5t-84.5 10q-59 0 -115.5 -22t-100.5 -68t-71 -118
t-27 -172t26.5 -171.5t70 -117.5t100 -68t115.5 -22q42 0 85 8t81 30t70 62t53 105h15v-145z" />
    <glyph glyph-name="C" unicode="&#x10a;" horiz-adv-x="829" 
d="M783 76q-33 -25 -70 -42t-76 -27.5t-78.5 -15.5t-75.5 -5q-97 0 -177.5 30t-138 84t-89.5 129t-32 166t32 166.5t89.5 129.5t138 84t177.5 30q83 0 155.5 -20t137.5 -57v-148h-15q-18 54 -48 91t-67.5 60.5t-80 33.5t-84.5 10q-59 0 -115.5 -22t-100.5 -68t-71 -118
t-27 -172t26.5 -171.5t70 -117.5t100 -68t115.5 -22q42 0 85 8t81 30t70 62t53 105h15v-145z" />
    <glyph glyph-name="C" unicode="&#x108;" horiz-adv-x="829" 
d="M783 76q-33 -25 -70 -42t-76 -27.5t-78.5 -15.5t-75.5 -5q-97 0 -177.5 30t-138 84t-89.5 129t-32 166t32 166.5t89.5 129.5t138 84t177.5 30q83 0 155.5 -20t137.5 -57v-148h-15q-18 54 -48 91t-67.5 60.5t-80 33.5t-84.5 10q-59 0 -115.5 -22t-100.5 -68t-71 -118
t-27 -172t26.5 -171.5t70 -117.5t100 -68t115.5 -22q42 0 85 8t81 30t70 62t53 105h15v-145z" />
    <glyph glyph-name="C" unicode="&#x106;" horiz-adv-x="829" 
d="M783 76q-33 -25 -70 -42t-76 -27.5t-78.5 -15.5t-75.5 -5q-97 0 -177.5 30t-138 84t-89.5 129t-32 166t32 166.5t89.5 129.5t138 84t177.5 30q83 0 155.5 -20t137.5 -57v-148h-15q-18 54 -48 91t-67.5 60.5t-80 33.5t-84.5 10q-59 0 -115.5 -22t-100.5 -68t-71 -118
t-27 -172t26.5 -171.5t70 -117.5t100 -68t115.5 -22q42 0 85 8t81 30t70 62t53 105h15v-145z" />
    <glyph glyph-name="C" unicode="&#xc7;" horiz-adv-x="829" 
d="M783 76q-33 -25 -70 -42t-76 -27.5t-78.5 -15.5t-75.5 -5q-97 0 -177.5 30t-138 84t-89.5 129t-32 166t32 166.5t89.5 129.5t138 84t177.5 30q83 0 155.5 -20t137.5 -57v-148h-15q-18 54 -48 91t-67.5 60.5t-80 33.5t-84.5 10q-59 0 -115.5 -22t-100.5 -68t-71 -118
t-27 -172t26.5 -171.5t70 -117.5t100 -68t115.5 -22q42 0 85 8t81 30t70 62t53 105h15v-145z" />
    <glyph glyph-name="D" unicode="D" horiz-adv-x="872" 
d="M238 88q0 -18 5 -29t18 -17t34.5 -8t54.5 -2h13q67 0 129 19t110 61t76.5 109.5t28.5 165.5q0 110 -35.5 181t-92 112.5t-127.5 58t-141 16.5h-73v-667zM72 21q34 0 48.5 11.5t14.5 43.5v635q0 32 -14.5 43.5t-48.5 11.5h-36v21h305q118 0 208.5 -27.5t152 -79t93 -125.5
t31.5 -168q0 -86 -29.5 -157t-85 -122t-135.5 -79.5t-181 -28.5h-359v21h36z" />
    <glyph glyph-name="D" unicode="&#x110;" horiz-adv-x="872" 
d="M238 88q0 -18 5 -29t18 -17t34.5 -8t54.5 -2h13q67 0 129 19t110 61t76.5 109.5t28.5 165.5q0 110 -35.5 181t-92 112.5t-127.5 58t-141 16.5h-73v-667zM72 21q34 0 48.5 11.5t14.5 43.5v635q0 32 -14.5 43.5t-48.5 11.5h-36v21h305q118 0 208.5 -27.5t152 -79t93 -125.5
t31.5 -168q0 -86 -29.5 -157t-85 -122t-135.5 -79.5t-181 -28.5h-359v21h36z" />
    <glyph glyph-name="D" unicode="&#x10e;" horiz-adv-x="872" 
d="M238 88q0 -18 5 -29t18 -17t34.5 -8t54.5 -2h13q67 0 129 19t110 61t76.5 109.5t28.5 165.5q0 110 -35.5 181t-92 112.5t-127.5 58t-141 16.5h-73v-667zM72 21q34 0 48.5 11.5t14.5 43.5v635q0 32 -14.5 43.5t-48.5 11.5h-36v21h305q118 0 208.5 -27.5t152 -79t93 -125.5
t31.5 -168q0 -86 -29.5 -157t-85 -122t-135.5 -79.5t-181 -28.5h-359v21h36z" />
    <glyph glyph-name="D" unicode="&#xd0;" horiz-adv-x="872" 
d="M238 88q0 -18 5 -29t18 -17t34.5 -8t54.5 -2h13q67 0 129 19t110 61t76.5 109.5t28.5 165.5q0 110 -35.5 181t-92 112.5t-127.5 58t-141 16.5h-73v-667zM72 21q34 0 48.5 11.5t14.5 43.5v635q0 32 -14.5 43.5t-48.5 11.5h-36v21h305q118 0 208.5 -27.5t152 -79t93 -125.5
t31.5 -168q0 -86 -29.5 -157t-85 -122t-135.5 -79.5t-181 -28.5h-359v21h36z" />
    <glyph glyph-name="E" unicode="E" horiz-adv-x="683" 
d="M72 21q34 0 48.5 11.5t14.5 43.5v635q0 32 -14.5 43.5t-48.5 11.5h-35v21h572v-170h-13q-11 70 -53.5 102.5t-137.5 32.5h-166v-311h102q29 0 53.5 2.5t43.5 13t31.5 30.5t18.5 56h13v-239h-13q-6 36 -19 56.5t-31.5 30.5t-43 12.5t-53.5 2.5h-102v-318q0 -33 17.5 -43
t46.5 -10h154q80 0 122 39t53 112h13v-186h-608v21h35z" />
    <glyph glyph-name="E" unicode="&#x11a;" horiz-adv-x="683" 
d="M72 21q34 0 48.5 11.5t14.5 43.5v635q0 32 -14.5 43.5t-48.5 11.5h-35v21h572v-170h-13q-11 70 -53.5 102.5t-137.5 32.5h-166v-311h102q29 0 53.5 2.5t43.5 13t31.5 30.5t18.5 56h13v-239h-13q-6 36 -19 56.5t-31.5 30.5t-43 12.5t-53.5 2.5h-102v-318q0 -33 17.5 -43
t46.5 -10h154q80 0 122 39t53 112h13v-186h-608v21h35z" />
    <glyph glyph-name="E" unicode="&#x118;" horiz-adv-x="683" 
d="M72 21q34 0 48.5 11.5t14.5 43.5v635q0 32 -14.5 43.5t-48.5 11.5h-35v21h572v-170h-13q-11 70 -53.5 102.5t-137.5 32.5h-166v-311h102q29 0 53.5 2.5t43.5 13t31.5 30.5t18.5 56h13v-239h-13q-6 36 -19 56.5t-31.5 30.5t-43 12.5t-53.5 2.5h-102v-318q0 -33 17.5 -43
t46.5 -10h154q80 0 122 39t53 112h13v-186h-608v21h35z" />
    <glyph glyph-name="E" unicode="&#x116;" horiz-adv-x="683" 
d="M72 21q34 0 48.5 11.5t14.5 43.5v635q0 32 -14.5 43.5t-48.5 11.5h-35v21h572v-170h-13q-11 70 -53.5 102.5t-137.5 32.5h-166v-311h102q29 0 53.5 2.5t43.5 13t31.5 30.5t18.5 56h13v-239h-13q-6 36 -19 56.5t-31.5 30.5t-43 12.5t-53.5 2.5h-102v-318q0 -33 17.5 -43
t46.5 -10h154q80 0 122 39t53 112h13v-186h-608v21h35z" />
    <glyph glyph-name="E" unicode="&#x114;" horiz-adv-x="683" 
d="M72 21q34 0 48.5 11.5t14.5 43.5v635q0 32 -14.5 43.5t-48.5 11.5h-35v21h572v-170h-13q-11 70 -53.5 102.5t-137.5 32.5h-166v-311h102q29 0 53.5 2.5t43.5 13t31.5 30.5t18.5 56h13v-239h-13q-6 36 -19 56.5t-31.5 30.5t-43 12.5t-53.5 2.5h-102v-318q0 -33 17.5 -43
t46.5 -10h154q80 0 122 39t53 112h13v-186h-608v21h35z" />
    <glyph glyph-name="E" unicode="&#x112;" horiz-adv-x="683" 
d="M72 21q34 0 48.5 11.5t14.5 43.5v635q0 32 -14.5 43.5t-48.5 11.5h-35v21h572v-170h-13q-11 70 -53.5 102.5t-137.5 32.5h-166v-311h102q29 0 53.5 2.5t43.5 13t31.5 30.5t18.5 56h13v-239h-13q-6 36 -19 56.5t-31.5 30.5t-43 12.5t-53.5 2.5h-102v-318q0 -33 17.5 -43
t46.5 -10h154q80 0 122 39t53 112h13v-186h-608v21h35z" />
    <glyph glyph-name="E" unicode="&#xcb;" horiz-adv-x="683" 
d="M72 21q34 0 48.5 11.5t14.5 43.5v635q0 32 -14.5 43.5t-48.5 11.5h-35v21h572v-170h-13q-11 70 -53.5 102.5t-137.5 32.5h-166v-311h102q29 0 53.5 2.5t43.5 13t31.5 30.5t18.5 56h13v-239h-13q-6 36 -19 56.5t-31.5 30.5t-43 12.5t-53.5 2.5h-102v-318q0 -33 17.5 -43
t46.5 -10h154q80 0 122 39t53 112h13v-186h-608v21h35z" />
    <glyph glyph-name="E" unicode="&#xca;" horiz-adv-x="683" 
d="M72 21q34 0 48.5 11.5t14.5 43.5v635q0 32 -14.5 43.5t-48.5 11.5h-35v21h572v-170h-13q-11 70 -53.5 102.5t-137.5 32.5h-166v-311h102q29 0 53.5 2.5t43.5 13t31.5 30.5t18.5 56h13v-239h-13q-6 36 -19 56.5t-31.5 30.5t-43 12.5t-53.5 2.5h-102v-318q0 -33 17.5 -43
t46.5 -10h154q80 0 122 39t53 112h13v-186h-608v21h35z" />
    <glyph glyph-name="E" unicode="&#xc9;" horiz-adv-x="683" 
d="M72 21q34 0 48.5 11.5t14.5 43.5v635q0 32 -14.5 43.5t-48.5 11.5h-35v21h572v-170h-13q-11 70 -53.5 102.5t-137.5 32.5h-166v-311h102q29 0 53.5 2.5t43.5 13t31.5 30.5t18.5 56h13v-239h-13q-6 36 -19 56.5t-31.5 30.5t-43 12.5t-53.5 2.5h-102v-318q0 -33 17.5 -43
t46.5 -10h154q80 0 122 39t53 112h13v-186h-608v21h35z" />
    <glyph glyph-name="E" unicode="&#xc8;" horiz-adv-x="683" 
d="M72 21q34 0 48.5 11.5t14.5 43.5v635q0 32 -14.5 43.5t-48.5 11.5h-35v21h572v-170h-13q-11 70 -53.5 102.5t-137.5 32.5h-166v-311h102q29 0 53.5 2.5t43.5 13t31.5 30.5t18.5 56h13v-239h-13q-6 36 -19 56.5t-31.5 30.5t-43 12.5t-53.5 2.5h-102v-318q0 -33 17.5 -43
t46.5 -10h154q80 0 122 39t53 112h13v-186h-608v21h35z" />
    <glyph glyph-name="F" unicode="F" horiz-adv-x="651" 
d="M72 21q34 0 48.5 11.5t14.5 43.5v635q0 32 -14.5 43.5t-48.5 11.5h-35v21h592v-170h-13q-11 70 -53.5 102.5t-137.5 32.5h-186v-330h122q27 0 50 2.5t40.5 13t29 30.5t17.5 56h13v-239h-13q-6 36 -18 56.5t-29 30.5t-40 12.5t-50 2.5h-122v-303q0 -38 18.5 -50.5
t55.5 -12.5h46v-21h-322v21h35z" />
    <glyph glyph-name="G" unicode="G" horiz-adv-x="892" 
d="M698 271q0 17 -11.5 25.5t-28.5 8.5h-59v21h280v-21h-37q-17 0 -28.5 -8.5t-11.5 -25.5v-155q-15 -29 -44.5 -53t-70.5 -41t-91.5 -26.5t-107.5 -9.5q-111 0 -194 34t-138.5 91t-83 131t-27.5 153q0 91 32 166.5t89.5 129.5t138 84t177.5 30q83 0 155.5 -20t137.5 -57
v-148h-11q-21 54 -51.5 91t-68 60.5t-79.5 33.5t-85 10q-59 0 -115.5 -22t-100.5 -68t-71 -118t-27 -172q0 -97 26 -168t71 -118t104.5 -70t126.5 -23q66 0 120 22t84 68v165z" />
    <glyph glyph-name="G" unicode="&#x122;" horiz-adv-x="892" 
d="M698 271q0 17 -11.5 25.5t-28.5 8.5h-59v21h280v-21h-37q-17 0 -28.5 -8.5t-11.5 -25.5v-155q-15 -29 -44.5 -53t-70.5 -41t-91.5 -26.5t-107.5 -9.5q-111 0 -194 34t-138.5 91t-83 131t-27.5 153q0 91 32 166.5t89.5 129.5t138 84t177.5 30q83 0 155.5 -20t137.5 -57
v-148h-11q-21 54 -51.5 91t-68 60.5t-79.5 33.5t-85 10q-59 0 -115.5 -22t-100.5 -68t-71 -118t-27 -172q0 -97 26 -168t71 -118t104.5 -70t126.5 -23q66 0 120 22t84 68v165z" />
    <glyph glyph-name="G" unicode="&#x120;" horiz-adv-x="892" 
d="M698 271q0 17 -11.5 25.5t-28.5 8.5h-59v21h280v-21h-37q-17 0 -28.5 -8.5t-11.5 -25.5v-155q-15 -29 -44.5 -53t-70.5 -41t-91.5 -26.5t-107.5 -9.5q-111 0 -194 34t-138.5 91t-83 131t-27.5 153q0 91 32 166.5t89.5 129.5t138 84t177.5 30q83 0 155.5 -20t137.5 -57
v-148h-11q-21 54 -51.5 91t-68 60.5t-79.5 33.5t-85 10q-59 0 -115.5 -22t-100.5 -68t-71 -118t-27 -172q0 -97 26 -168t71 -118t104.5 -70t126.5 -23q66 0 120 22t84 68v165z" />
    <glyph glyph-name="G" unicode="&#x11e;" horiz-adv-x="892" 
d="M698 271q0 17 -11.5 25.5t-28.5 8.5h-59v21h280v-21h-37q-17 0 -28.5 -8.5t-11.5 -25.5v-155q-15 -29 -44.5 -53t-70.5 -41t-91.5 -26.5t-107.5 -9.5q-111 0 -194 34t-138.5 91t-83 131t-27.5 153q0 91 32 166.5t89.5 129.5t138 84t177.5 30q83 0 155.5 -20t137.5 -57
v-148h-11q-21 54 -51.5 91t-68 60.5t-79.5 33.5t-85 10q-59 0 -115.5 -22t-100.5 -68t-71 -118t-27 -172q0 -97 26 -168t71 -118t104.5 -70t126.5 -23q66 0 120 22t84 68v165z" />
    <glyph glyph-name="G" unicode="&#x11c;" horiz-adv-x="892" 
d="M698 271q0 17 -11.5 25.5t-28.5 8.5h-59v21h280v-21h-37q-17 0 -28.5 -8.5t-11.5 -25.5v-155q-15 -29 -44.5 -53t-70.5 -41t-91.5 -26.5t-107.5 -9.5q-111 0 -194 34t-138.5 91t-83 131t-27.5 153q0 91 32 166.5t89.5 129.5t138 84t177.5 30q83 0 155.5 -20t137.5 -57
v-148h-11q-21 54 -51.5 91t-68 60.5t-79.5 33.5t-85 10q-59 0 -115.5 -22t-100.5 -68t-71 -118t-27 -172q0 -97 26 -168t71 -118t104.5 -70t126.5 -23q66 0 120 22t84 68v165z" />
    <glyph glyph-name="H" unicode="H" horiz-adv-x="888" 
d="M852 0h-302v21h36q34 0 48.5 11.5t14.5 43.5v311h-410v-311q0 -32 14.5 -43.5t48.5 -11.5h36v-21h-302v21h36q34 0 48.5 11.5t14.5 43.5v635q0 32 -14.5 43.5t-48.5 11.5h-36v21h302v-21h-36q-34 0 -48.5 -11.5t-14.5 -43.5v-289h410v289q0 32 -14.5 43.5t-48.5 11.5h-36
v21h302v-21h-36q-34 0 -48.5 -11.5t-14.5 -43.5v-635q0 -32 14.5 -43.5t48.5 -11.5h36v-21z" />
    <glyph glyph-name="H" unicode="&#x126;" horiz-adv-x="888" 
d="M852 0h-302v21h36q34 0 48.5 11.5t14.5 43.5v311h-410v-311q0 -32 14.5 -43.5t48.5 -11.5h36v-21h-302v21h36q34 0 48.5 11.5t14.5 43.5v635q0 32 -14.5 43.5t-48.5 11.5h-36v21h302v-21h-36q-34 0 -48.5 -11.5t-14.5 -43.5v-289h410v289q0 32 -14.5 43.5t-48.5 11.5h-36
v21h302v-21h-36q-34 0 -48.5 -11.5t-14.5 -43.5v-635q0 -32 14.5 -43.5t48.5 -11.5h36v-21z" />
    <glyph glyph-name="H" unicode="&#x124;" horiz-adv-x="888" 
d="M852 0h-302v21h36q34 0 48.5 11.5t14.5 43.5v311h-410v-311q0 -32 14.5 -43.5t48.5 -11.5h36v-21h-302v21h36q34 0 48.5 11.5t14.5 43.5v635q0 32 -14.5 43.5t-48.5 11.5h-36v21h302v-21h-36q-34 0 -48.5 -11.5t-14.5 -43.5v-289h410v289q0 32 -14.5 43.5t-48.5 11.5h-36
v21h302v-21h-36q-34 0 -48.5 -11.5t-14.5 -43.5v-635q0 -32 14.5 -43.5t48.5 -11.5h36v-21z" />
    <glyph glyph-name="I" unicode="I" horiz-adv-x="374" 
d="M337 0h-300v21h35q34 0 48.5 11.5t14.5 43.5v635q0 32 -14.5 43.5t-48.5 11.5h-35v21h300v-21h-35q-34 0 -48.5 -11.5t-14.5 -43.5v-635q0 -32 14.5 -43.5t48.5 -11.5h35v-21z" />
    <glyph glyph-name="I" unicode="&#x1eca;" horiz-adv-x="374" 
d="M337 0h-300v21h35q34 0 48.5 11.5t14.5 43.5v635q0 32 -14.5 43.5t-48.5 11.5h-35v21h300v-21h-35q-34 0 -48.5 -11.5t-14.5 -43.5v-635q0 -32 14.5 -43.5t48.5 -11.5h35v-21z" />
    <glyph glyph-name="I" unicode="&#x130;" horiz-adv-x="374" 
d="M337 0h-300v21h35q34 0 48.5 11.5t14.5 43.5v635q0 32 -14.5 43.5t-48.5 11.5h-35v21h300v-21h-35q-34 0 -48.5 -11.5t-14.5 -43.5v-635q0 -32 14.5 -43.5t48.5 -11.5h35v-21z" />
    <glyph glyph-name="I" unicode="&#x12e;" horiz-adv-x="374" 
d="M337 0h-300v21h35q34 0 48.5 11.5t14.5 43.5v635q0 32 -14.5 43.5t-48.5 11.5h-35v21h300v-21h-35q-34 0 -48.5 -11.5t-14.5 -43.5v-635q0 -32 14.5 -43.5t48.5 -11.5h35v-21z" />
    <glyph glyph-name="I" unicode="&#x12c;" horiz-adv-x="374" 
d="M337 0h-300v21h35q34 0 48.5 11.5t14.5 43.5v635q0 32 -14.5 43.5t-48.5 11.5h-35v21h300v-21h-35q-34 0 -48.5 -11.5t-14.5 -43.5v-635q0 -32 14.5 -43.5t48.5 -11.5h35v-21z" />
    <glyph glyph-name="I" unicode="&#x12a;" horiz-adv-x="374" 
d="M337 0h-300v21h35q34 0 48.5 11.5t14.5 43.5v635q0 32 -14.5 43.5t-48.5 11.5h-35v21h300v-21h-35q-34 0 -48.5 -11.5t-14.5 -43.5v-635q0 -32 14.5 -43.5t48.5 -11.5h35v-21z" />
    <glyph glyph-name="I" unicode="&#x128;" horiz-adv-x="374" 
d="M337 0h-300v21h35q34 0 48.5 11.5t14.5 43.5v635q0 32 -14.5 43.5t-48.5 11.5h-35v21h300v-21h-35q-34 0 -48.5 -11.5t-14.5 -43.5v-635q0 -32 14.5 -43.5t48.5 -11.5h35v-21z" />
    <glyph glyph-name="I" unicode="&#xcf;" horiz-adv-x="374" 
d="M337 0h-300v21h35q34 0 48.5 11.5t14.5 43.5v635q0 32 -14.5 43.5t-48.5 11.5h-35v21h300v-21h-35q-34 0 -48.5 -11.5t-14.5 -43.5v-635q0 -32 14.5 -43.5t48.5 -11.5h35v-21z" />
    <glyph glyph-name="I" unicode="&#xce;" horiz-adv-x="374" 
d="M337 0h-300v21h35q34 0 48.5 11.5t14.5 43.5v635q0 32 -14.5 43.5t-48.5 11.5h-35v21h300v-21h-35q-34 0 -48.5 -11.5t-14.5 -43.5v-635q0 -32 14.5 -43.5t48.5 -11.5h35v-21z" />
    <glyph glyph-name="I" unicode="&#xcd;" horiz-adv-x="374" 
d="M337 0h-300v21h35q34 0 48.5 11.5t14.5 43.5v635q0 32 -14.5 43.5t-48.5 11.5h-35v21h300v-21h-35q-34 0 -48.5 -11.5t-14.5 -43.5v-635q0 -32 14.5 -43.5t48.5 -11.5h35v-21z" />
    <glyph glyph-name="I" unicode="&#xcc;" horiz-adv-x="374" 
d="M337 0h-300v21h35q34 0 48.5 11.5t14.5 43.5v635q0 32 -14.5 43.5t-48.5 11.5h-35v21h300v-21h-35q-34 0 -48.5 -11.5t-14.5 -43.5v-635q0 -32 14.5 -43.5t48.5 -11.5h35v-21z" />
    <glyph glyph-name="J" unicode="J" horiz-adv-x="473" 
d="M248 711q0 32 -17.5 43.5t-55.5 11.5h-35v21h310v-21h-35q-34 0 -48.5 -11.5t-14.5 -43.5v-413q0 -57 -5 -113t-24 -100t-56 -71.5t-101 -27.5q-39 0 -68.5 9.5t-48.5 23.5t-28.5 30t-9.5 29q0 20 12.5 31t30.5 11q19 0 30.5 -10.5t19.5 -36.5q11 -34 25 -49t39 -15
q26 0 42 16t24.5 50.5t11 89.5t2.5 133v413z" />
    <glyph glyph-name="J" unicode="&#x134;" horiz-adv-x="473" 
d="M248 711q0 32 -17.5 43.5t-55.5 11.5h-35v21h310v-21h-35q-34 0 -48.5 -11.5t-14.5 -43.5v-413q0 -57 -5 -113t-24 -100t-56 -71.5t-101 -27.5q-39 0 -68.5 9.5t-48.5 23.5t-28.5 30t-9.5 29q0 20 12.5 31t30.5 11q19 0 30.5 -10.5t19.5 -36.5q11 -34 25 -49t39 -15
q26 0 42 16t24.5 50.5t11 89.5t2.5 133v413z" />
    <glyph glyph-name="K" unicode="K" horiz-adv-x="760" 
d="M338 0h-301v21h35q34 0 48.5 11.5t14.5 43.5v635q0 32 -14.5 43.5t-48.5 11.5h-35v21h301v-21h-36q-34 0 -48.5 -11.5t-14.5 -43.5v-306l235 234q69 69 72 98t-75 29v21h262v-21q-32 0 -57.5 -8.5t-51 -25.5t-52.5 -42.5t-61 -59.5l-184 -185l341 -392q17 -19 45.5 -25.5
t58.5 -6.5v-21h-303v21q46 0 63 5t-4 29l-289 335v-314q0 -32 14.5 -43.5t48.5 -11.5h36v-21z" />
    <glyph glyph-name="K" unicode="&#x136;" horiz-adv-x="760" 
d="M338 0h-301v21h35q34 0 48.5 11.5t14.5 43.5v635q0 32 -14.5 43.5t-48.5 11.5h-35v21h301v-21h-36q-34 0 -48.5 -11.5t-14.5 -43.5v-306l235 234q69 69 72 98t-75 29v21h262v-21q-32 0 -57.5 -8.5t-51 -25.5t-52.5 -42.5t-61 -59.5l-184 -185l341 -392q17 -19 45.5 -25.5
t58.5 -6.5v-21h-303v21q46 0 63 5t-4 29l-289 335v-314q0 -32 14.5 -43.5t48.5 -11.5h36v-21z" />
    <glyph glyph-name="L" unicode="L" horiz-adv-x="656" 
d="M302 766q-34 0 -48.5 -11.5t-14.5 -43.5v-618q0 -37 18.5 -47.5t50.5 -10.5h128q48 0 81.5 11.5t55.5 32.5t34 51t18 66h10v-196h-598v21h35q34 0 48.5 11.5t14.5 43.5v635q0 32 -14.5 43.5t-48.5 11.5h-35v21h310v-21h-45z" />
    <glyph glyph-name="L" unicode="&#x141;" horiz-adv-x="656" 
d="M302 766q-34 0 -48.5 -11.5t-14.5 -43.5v-618q0 -37 18.5 -47.5t50.5 -10.5h128q48 0 81.5 11.5t55.5 32.5t34 51t18 66h10v-196h-598v21h35q34 0 48.5 11.5t14.5 43.5v635q0 32 -14.5 43.5t-48.5 11.5h-35v21h310v-21h-45z" />
    <glyph glyph-name="L" unicode="&#x13f;" horiz-adv-x="656" 
d="M302 766q-34 0 -48.5 -11.5t-14.5 -43.5v-618q0 -37 18.5 -47.5t50.5 -10.5h128q48 0 81.5 11.5t55.5 32.5t34 51t18 66h10v-196h-598v21h35q34 0 48.5 11.5t14.5 43.5v635q0 32 -14.5 43.5t-48.5 11.5h-35v21h310v-21h-45z" />
    <glyph glyph-name="L" unicode="&#x13d;" horiz-adv-x="656" 
d="M302 766q-34 0 -48.5 -11.5t-14.5 -43.5v-618q0 -37 18.5 -47.5t50.5 -10.5h128q48 0 81.5 11.5t55.5 32.5t34 51t18 66h10v-196h-598v21h35q34 0 48.5 11.5t14.5 43.5v635q0 32 -14.5 43.5t-48.5 11.5h-35v21h310v-21h-45z" />
    <glyph glyph-name="L" unicode="&#x13b;" horiz-adv-x="656" 
d="M302 766q-34 0 -48.5 -11.5t-14.5 -43.5v-618q0 -37 18.5 -47.5t50.5 -10.5h128q48 0 81.5 11.5t55.5 32.5t34 51t18 66h10v-196h-598v21h35q34 0 48.5 11.5t14.5 43.5v635q0 32 -14.5 43.5t-48.5 11.5h-35v21h310v-21h-45z" />
    <glyph glyph-name="L" unicode="&#x139;" horiz-adv-x="656" 
d="M302 766q-34 0 -48.5 -11.5t-14.5 -43.5v-618q0 -37 18.5 -47.5t50.5 -10.5h128q48 0 81.5 11.5t55.5 32.5t34 51t18 66h10v-196h-598v21h35q34 0 48.5 11.5t14.5 43.5v635q0 32 -14.5 43.5t-48.5 11.5h-35v21h310v-21h-45z" />
    <glyph glyph-name="M" unicode="M" horiz-adv-x="1004" 
d="M879 76q2 -32 15.5 -43.5t47.5 -11.5h36v-21h-303v21h36q34 0 49.5 11.5t13.5 43.5l-22 622l-271 -698h-11l-277 664l-22 -541q-2 -55 11.5 -78.5t58.5 -23.5h38v-21h-259v21h36q38 0 55 23t19 80l24 563q2 45 -23.5 62t-72.5 17v21h204l248 -609l232 609h210v-21
q-46 0 -72 -17.5t-24 -61.5z" />
    <glyph glyph-name="N" unicode="N" horiz-adv-x="879" 
d="M748 -14h-9l-557 661v-526q0 -53 13.5 -76.5t58.5 -23.5h38v-21h-261v21h30q43 0 61 23t18 77v556q0 24 -9.5 41t-25 27.5t-35 15.5t-38.5 5v21h167l507 -603v482q0 53 -13.5 76.5t-58.5 23.5h-38v21h261v-21h-30q-43 0 -61 -23t-18 -77v-680z" />
    <glyph glyph-name="N" unicode="&#x14a;" horiz-adv-x="879" 
d="M748 -14h-9l-557 661v-526q0 -53 13.5 -76.5t58.5 -23.5h38v-21h-261v21h30q43 0 61 23t18 77v556q0 24 -9.5 41t-25 27.5t-35 15.5t-38.5 5v21h167l507 -603v482q0 53 -13.5 76.5t-58.5 23.5h-38v21h261v-21h-30q-43 0 -61 -23t-18 -77v-680z" />
    <glyph glyph-name="N" unicode="&#x147;" horiz-adv-x="879" 
d="M748 -14h-9l-557 661v-526q0 -53 13.5 -76.5t58.5 -23.5h38v-21h-261v21h30q43 0 61 23t18 77v556q0 24 -9.5 41t-25 27.5t-35 15.5t-38.5 5v21h167l507 -603v482q0 53 -13.5 76.5t-58.5 23.5h-38v21h261v-21h-30q-43 0 -61 -23t-18 -77v-680z" />
    <glyph glyph-name="N" unicode="&#x145;" horiz-adv-x="879" 
d="M748 -14h-9l-557 661v-526q0 -53 13.5 -76.5t58.5 -23.5h38v-21h-261v21h30q43 0 61 23t18 77v556q0 24 -9.5 41t-25 27.5t-35 15.5t-38.5 5v21h167l507 -603v482q0 53 -13.5 76.5t-58.5 23.5h-38v21h261v-21h-30q-43 0 -61 -23t-18 -77v-680z" />
    <glyph glyph-name="N" unicode="&#x143;" horiz-adv-x="879" 
d="M748 -14h-9l-557 661v-526q0 -53 13.5 -76.5t58.5 -23.5h38v-21h-261v21h30q43 0 61 23t18 77v556q0 24 -9.5 41t-25 27.5t-35 15.5t-38.5 5v21h167l507 -603v482q0 53 -13.5 76.5t-58.5 23.5h-38v21h261v-21h-30q-43 0 -61 -23t-18 -77v-680z" />
    <glyph glyph-name="N" unicode="&#xd1;" horiz-adv-x="879" 
d="M748 -14h-9l-557 661v-526q0 -53 13.5 -76.5t58.5 -23.5h38v-21h-261v21h30q43 0 61 23t18 77v556q0 24 -9.5 41t-25 27.5t-35 15.5t-38.5 5v21h167l507 -603v482q0 53 -13.5 76.5t-58.5 23.5h-38v21h261v-21h-30q-43 0 -61 -23t-18 -77v-680z" />
    <glyph glyph-name="O" unicode="O" horiz-adv-x="928" 
d="M761 395q0 102 -25 174t-66.5 117.5t-95 67t-110.5 21.5t-110.5 -21.5t-95 -67t-66.5 -117.5t-25 -174t25 -173.5t66.5 -117.5t95 -67t110.5 -21t110.5 21t95 67t66.5 117.5t25 173.5zM882 395q0 -94 -32.5 -169.5t-89 -129t-133 -82t-163.5 -28.5t-163.5 28.5t-133 82
t-89 129t-32.5 169.5t32.5 170t89 129t133 82t163.5 29t163.5 -29t133 -82t89 -129t32.5 -170z" />
    <glyph glyph-name="O" unicode="&#x1ecc;" horiz-adv-x="928" 
d="M761 395q0 102 -25 174t-66.5 117.5t-95 67t-110.5 21.5t-110.5 -21.5t-95 -67t-66.5 -117.5t-25 -174t25 -173.5t66.5 -117.5t95 -67t110.5 -21t110.5 21t95 67t66.5 117.5t25 173.5zM882 395q0 -94 -32.5 -169.5t-89 -129t-133 -82t-163.5 -28.5t-163.5 28.5t-133 82
t-89 129t-32.5 169.5t32.5 170t89 129t133 82t163.5 29t163.5 -29t133 -82t89 -129t32.5 -170z" />
    <glyph glyph-name="O" unicode="&#x152;" horiz-adv-x="928" 
d="M761 395q0 102 -25 174t-66.5 117.5t-95 67t-110.5 21.5t-110.5 -21.5t-95 -67t-66.5 -117.5t-25 -174t25 -173.5t66.5 -117.5t95 -67t110.5 -21t110.5 21t95 67t66.5 117.5t25 173.5zM882 395q0 -94 -32.5 -169.5t-89 -129t-133 -82t-163.5 -28.5t-163.5 28.5t-133 82
t-89 129t-32.5 169.5t32.5 170t89 129t133 82t163.5 29t163.5 -29t133 -82t89 -129t32.5 -170z" />
    <glyph glyph-name="O" unicode="&#x150;" horiz-adv-x="928" 
d="M761 395q0 102 -25 174t-66.5 117.5t-95 67t-110.5 21.5t-110.5 -21.5t-95 -67t-66.5 -117.5t-25 -174t25 -173.5t66.5 -117.5t95 -67t110.5 -21t110.5 21t95 67t66.5 117.5t25 173.5zM882 395q0 -94 -32.5 -169.5t-89 -129t-133 -82t-163.5 -28.5t-163.5 28.5t-133 82
t-89 129t-32.5 169.5t32.5 170t89 129t133 82t163.5 29t163.5 -29t133 -82t89 -129t32.5 -170z" />
    <glyph glyph-name="O" unicode="&#x14e;" horiz-adv-x="928" 
d="M761 395q0 102 -25 174t-66.5 117.5t-95 67t-110.5 21.5t-110.5 -21.5t-95 -67t-66.5 -117.5t-25 -174t25 -173.5t66.5 -117.5t95 -67t110.5 -21t110.5 21t95 67t66.5 117.5t25 173.5zM882 395q0 -94 -32.5 -169.5t-89 -129t-133 -82t-163.5 -28.5t-163.5 28.5t-133 82
t-89 129t-32.5 169.5t32.5 170t89 129t133 82t163.5 29t163.5 -29t133 -82t89 -129t32.5 -170z" />
    <glyph glyph-name="O" unicode="&#x14c;" horiz-adv-x="928" 
d="M761 395q0 102 -25 174t-66.5 117.5t-95 67t-110.5 21.5t-110.5 -21.5t-95 -67t-66.5 -117.5t-25 -174t25 -173.5t66.5 -117.5t95 -67t110.5 -21t110.5 21t95 67t66.5 117.5t25 173.5zM882 395q0 -94 -32.5 -169.5t-89 -129t-133 -82t-163.5 -28.5t-163.5 28.5t-133 82
t-89 129t-32.5 169.5t32.5 170t89 129t133 82t163.5 29t163.5 -29t133 -82t89 -129t32.5 -170z" />
    <glyph glyph-name="O" unicode="&#xd8;" horiz-adv-x="928" 
d="M761 395q0 102 -25 174t-66.5 117.5t-95 67t-110.5 21.5t-110.5 -21.5t-95 -67t-66.5 -117.5t-25 -174t25 -173.5t66.5 -117.5t95 -67t110.5 -21t110.5 21t95 67t66.5 117.5t25 173.5zM882 395q0 -94 -32.5 -169.5t-89 -129t-133 -82t-163.5 -28.5t-163.5 28.5t-133 82
t-89 129t-32.5 169.5t32.5 170t89 129t133 82t163.5 29t163.5 -29t133 -82t89 -129t32.5 -170z" />
    <glyph glyph-name="O" unicode="&#xd6;" horiz-adv-x="928" 
d="M761 395q0 102 -25 174t-66.5 117.5t-95 67t-110.5 21.5t-110.5 -21.5t-95 -67t-66.5 -117.5t-25 -174t25 -173.5t66.5 -117.5t95 -67t110.5 -21t110.5 21t95 67t66.5 117.5t25 173.5zM882 395q0 -94 -32.5 -169.5t-89 -129t-133 -82t-163.5 -28.5t-163.5 28.5t-133 82
t-89 129t-32.5 169.5t32.5 170t89 129t133 82t163.5 29t163.5 -29t133 -82t89 -129t32.5 -170z" />
    <glyph glyph-name="O" unicode="&#xd5;" horiz-adv-x="928" 
d="M761 395q0 102 -25 174t-66.5 117.5t-95 67t-110.5 21.5t-110.5 -21.5t-95 -67t-66.5 -117.5t-25 -174t25 -173.5t66.5 -117.5t95 -67t110.5 -21t110.5 21t95 67t66.5 117.5t25 173.5zM882 395q0 -94 -32.5 -169.5t-89 -129t-133 -82t-163.5 -28.5t-163.5 28.5t-133 82
t-89 129t-32.5 169.5t32.5 170t89 129t133 82t163.5 29t163.5 -29t133 -82t89 -129t32.5 -170z" />
    <glyph glyph-name="O" unicode="&#xd4;" horiz-adv-x="928" 
d="M761 395q0 102 -25 174t-66.5 117.5t-95 67t-110.5 21.5t-110.5 -21.5t-95 -67t-66.5 -117.5t-25 -174t25 -173.5t66.5 -117.5t95 -67t110.5 -21t110.5 21t95 67t66.5 117.5t25 173.5zM882 395q0 -94 -32.5 -169.5t-89 -129t-133 -82t-163.5 -28.5t-163.5 28.5t-133 82
t-89 129t-32.5 169.5t32.5 170t89 129t133 82t163.5 29t163.5 -29t133 -82t89 -129t32.5 -170z" />
    <glyph glyph-name="O" unicode="&#xd3;" horiz-adv-x="928" 
d="M761 395q0 102 -25 174t-66.5 117.5t-95 67t-110.5 21.5t-110.5 -21.5t-95 -67t-66.5 -117.5t-25 -174t25 -173.5t66.5 -117.5t95 -67t110.5 -21t110.5 21t95 67t66.5 117.5t25 173.5zM882 395q0 -94 -32.5 -169.5t-89 -129t-133 -82t-163.5 -28.5t-163.5 28.5t-133 82
t-89 129t-32.5 169.5t32.5 170t89 129t133 82t163.5 29t163.5 -29t133 -82t89 -129t32.5 -170z" />
    <glyph glyph-name="O" unicode="&#xd2;" horiz-adv-x="928" 
d="M761 395q0 102 -25 174t-66.5 117.5t-95 67t-110.5 21.5t-110.5 -21.5t-95 -67t-66.5 -117.5t-25 -174t25 -173.5t66.5 -117.5t95 -67t110.5 -21t110.5 21t95 67t66.5 117.5t25 173.5zM882 395q0 -94 -32.5 -169.5t-89 -129t-133 -82t-163.5 -28.5t-163.5 28.5t-133 82
t-89 129t-32.5 169.5t32.5 170t89 129t133 82t163.5 29t163.5 -29t133 -82t89 -129t32.5 -170z" />
    <glyph glyph-name="P" unicode="P" horiz-adv-x="667" 
d="M239 386q49 -12 91 -12q41 0 77 11.5t63 36t42.5 62t15.5 89.5q0 89 -49.5 137t-153.5 48q-21 0 -40 -0.5t-46 -2.5v-369zM37 787h294q65 0 121.5 -11t98 -36t65.5 -66t24 -101q0 -54 -17.5 -97.5t-50.5 -74t-80 -46.5t-105 -16q-38 0 -75 7.5t-73 25.5v-288
q0 -38 18.5 -50.5t55.5 -12.5h46v-21h-322v21h35q34 0 48.5 11.5t14.5 43.5v635q0 32 -14.5 43.5t-48.5 11.5h-35v21z" />
    <glyph glyph-name="P" unicode="&#xde;" horiz-adv-x="667" 
d="M239 386q49 -12 91 -12q41 0 77 11.5t63 36t42.5 62t15.5 89.5q0 89 -49.5 137t-153.5 48q-21 0 -40 -0.5t-46 -2.5v-369zM37 787h294q65 0 121.5 -11t98 -36t65.5 -66t24 -101q0 -54 -17.5 -97.5t-50.5 -74t-80 -46.5t-105 -16q-38 0 -75 7.5t-73 25.5v-288
q0 -38 18.5 -50.5t55.5 -12.5h46v-21h-322v21h35q34 0 48.5 11.5t14.5 43.5v635q0 32 -14.5 43.5t-48.5 11.5h-35v21z" />
    <glyph glyph-name="Q" unicode="Q" horiz-adv-x="928" 
d="M504 -12q-10 -1 -20 -1.5t-20 -0.5q-87 0 -163.5 28.5t-133 82t-89 129t-32.5 169.5t32.5 170t89 129t133 82t163.5 29t163.5 -29t133 -82t89 -129t32.5 -170q0 -67 -16.5 -124.5t-47 -104.5t-72.5 -82.5t-93 -58.5l149 -201l-5 -5zM761 395q0 102 -25 174t-66.5 117.5
t-95 67t-110.5 21.5t-110.5 -21.5t-95 -67t-66.5 -117.5t-25 -174t25 -173.5t66.5 -117.5t95 -67t110.5 -21t110.5 21t95 67t66.5 117.5t25 173.5z" />
    <glyph glyph-name="R" unicode="R" horiz-adv-x="764" 
d="M239 402h26q51 0 95 7t76 26.5t50 55.5t18 93q0 99 -61 139.5t-174 33.5l-30 -2v-353zM239 83q0 -38 16 -50t58 -12h35v-21h-311v21h35q34 0 48.5 11.5t14.5 43.5v635q0 32 -14.5 43.5t-48.5 11.5h-35v21h251q64 0 123.5 -6t105 -26.5t72.5 -59.5t27 -104
q0 -79 -55.5 -134.5t-167.5 -70.5q88 -13 139 -55.5t74 -118.5l7 -23q14 -47 27.5 -81t33 -55t48.5 -30.5t73 -7.5l2 -17q-24 -7 -46.5 -9.5t-42.5 -2.5q-86 0 -134 50t-74 142l-7 25q-14 51 -36 83.5t-51 51.5t-65.5 26.5t-79.5 7.5h-22v-289z" />
    <glyph glyph-name="R" unicode="&#x158;" horiz-adv-x="764" 
d="M239 402h26q51 0 95 7t76 26.5t50 55.5t18 93q0 99 -61 139.5t-174 33.5l-30 -2v-353zM239 83q0 -38 16 -50t58 -12h35v-21h-311v21h35q34 0 48.5 11.5t14.5 43.5v635q0 32 -14.5 43.5t-48.5 11.5h-35v21h251q64 0 123.5 -6t105 -26.5t72.5 -59.5t27 -104
q0 -79 -55.5 -134.5t-167.5 -70.5q88 -13 139 -55.5t74 -118.5l7 -23q14 -47 27.5 -81t33 -55t48.5 -30.5t73 -7.5l2 -17q-24 -7 -46.5 -9.5t-42.5 -2.5q-86 0 -134 50t-74 142l-7 25q-14 51 -36 83.5t-51 51.5t-65.5 26.5t-79.5 7.5h-22v-289z" />
    <glyph glyph-name="R" unicode="&#x156;" horiz-adv-x="764" 
d="M239 402h26q51 0 95 7t76 26.5t50 55.5t18 93q0 99 -61 139.5t-174 33.5l-30 -2v-353zM239 83q0 -38 16 -50t58 -12h35v-21h-311v21h35q34 0 48.5 11.5t14.5 43.5v635q0 32 -14.5 43.5t-48.5 11.5h-35v21h251q64 0 123.5 -6t105 -26.5t72.5 -59.5t27 -104
q0 -79 -55.5 -134.5t-167.5 -70.5q88 -13 139 -55.5t74 -118.5l7 -23q14 -47 27.5 -81t33 -55t48.5 -30.5t73 -7.5l2 -17q-24 -7 -46.5 -9.5t-42.5 -2.5q-86 0 -134 50t-74 142l-7 25q-14 51 -36 83.5t-51 51.5t-65.5 26.5t-79.5 7.5h-22v-289z" />
    <glyph glyph-name="R" unicode="&#x154;" horiz-adv-x="764" 
d="M239 402h26q51 0 95 7t76 26.5t50 55.5t18 93q0 99 -61 139.5t-174 33.5l-30 -2v-353zM239 83q0 -38 16 -50t58 -12h35v-21h-311v21h35q34 0 48.5 11.5t14.5 43.5v635q0 32 -14.5 43.5t-48.5 11.5h-35v21h251q64 0 123.5 -6t105 -26.5t72.5 -59.5t27 -104
q0 -79 -55.5 -134.5t-167.5 -70.5q88 -13 139 -55.5t74 -118.5l7 -23q14 -47 27.5 -81t33 -55t48.5 -30.5t73 -7.5l2 -17q-24 -7 -46.5 -9.5t-42.5 -2.5q-86 0 -134 50t-74 142l-7 25q-14 51 -36 83.5t-51 51.5t-65.5 26.5t-79.5 7.5h-22v-289z" />
    <glyph glyph-name="S" unicode="S" horiz-adv-x="612" 
d="M296 18q47 0 82 12.5t58.5 34.5t35 52t11.5 64q0 58 -36.5 103t-126.5 78l-87 32q-89 32 -127.5 83.5t-38.5 117.5q0 51 19.5 90.5t53.5 66t81 40t101 13.5q68 0 113.5 -14.5t85.5 -38.5v-128h-15q-21 79 -66 115t-114 36q-37 0 -68 -10.5t-53.5 -29.5t-35.5 -44t-13 -53
q0 -26 5.5 -48.5t20 -42t38.5 -36t60 -30.5l68 -26q35 -14 74.5 -30t72.5 -41.5t55 -63t22 -94.5q0 -54 -18 -98t-52.5 -75.5t-83.5 -49t-111 -17.5q-155 0 -253 68v153h15q34 -105 90.5 -147t136.5 -42z" />
    <glyph glyph-name="S" unicode="&#x218;" horiz-adv-x="612" 
d="M296 18q47 0 82 12.5t58.5 34.5t35 52t11.5 64q0 58 -36.5 103t-126.5 78l-87 32q-89 32 -127.5 83.5t-38.5 117.5q0 51 19.5 90.5t53.5 66t81 40t101 13.5q68 0 113.5 -14.5t85.5 -38.5v-128h-15q-21 79 -66 115t-114 36q-37 0 -68 -10.5t-53.5 -29.5t-35.5 -44t-13 -53
q0 -26 5.5 -48.5t20 -42t38.5 -36t60 -30.5l68 -26q35 -14 74.5 -30t72.5 -41.5t55 -63t22 -94.5q0 -54 -18 -98t-52.5 -75.5t-83.5 -49t-111 -17.5q-155 0 -253 68v153h15q34 -105 90.5 -147t136.5 -42z" />
    <glyph glyph-name="S" unicode="&#x160;" horiz-adv-x="612" 
d="M296 18q47 0 82 12.5t58.5 34.5t35 52t11.5 64q0 58 -36.5 103t-126.5 78l-87 32q-89 32 -127.5 83.5t-38.5 117.5q0 51 19.5 90.5t53.5 66t81 40t101 13.5q68 0 113.5 -14.5t85.5 -38.5v-128h-15q-21 79 -66 115t-114 36q-37 0 -68 -10.5t-53.5 -29.5t-35.5 -44t-13 -53
q0 -26 5.5 -48.5t20 -42t38.5 -36t60 -30.5l68 -26q35 -14 74.5 -30t72.5 -41.5t55 -63t22 -94.5q0 -54 -18 -98t-52.5 -75.5t-83.5 -49t-111 -17.5q-155 0 -253 68v153h15q34 -105 90.5 -147t136.5 -42z" />
    <glyph glyph-name="S" unicode="&#x15e;" horiz-adv-x="612" 
d="M296 18q47 0 82 12.5t58.5 34.5t35 52t11.5 64q0 58 -36.5 103t-126.5 78l-87 32q-89 32 -127.5 83.5t-38.5 117.5q0 51 19.5 90.5t53.5 66t81 40t101 13.5q68 0 113.5 -14.5t85.5 -38.5v-128h-15q-21 79 -66 115t-114 36q-37 0 -68 -10.5t-53.5 -29.5t-35.5 -44t-13 -53
q0 -26 5.5 -48.5t20 -42t38.5 -36t60 -30.5l68 -26q35 -14 74.5 -30t72.5 -41.5t55 -63t22 -94.5q0 -54 -18 -98t-52.5 -75.5t-83.5 -49t-111 -17.5q-155 0 -253 68v153h15q34 -105 90.5 -147t136.5 -42z" />
    <glyph glyph-name="S" unicode="&#x15c;" horiz-adv-x="612" 
d="M296 18q47 0 82 12.5t58.5 34.5t35 52t11.5 64q0 58 -36.5 103t-126.5 78l-87 32q-89 32 -127.5 83.5t-38.5 117.5q0 51 19.5 90.5t53.5 66t81 40t101 13.5q68 0 113.5 -14.5t85.5 -38.5v-128h-15q-21 79 -66 115t-114 36q-37 0 -68 -10.5t-53.5 -29.5t-35.5 -44t-13 -53
q0 -26 5.5 -48.5t20 -42t38.5 -36t60 -30.5l68 -26q35 -14 74.5 -30t72.5 -41.5t55 -63t22 -94.5q0 -54 -18 -98t-52.5 -75.5t-83.5 -49t-111 -17.5q-155 0 -253 68v153h15q34 -105 90.5 -147t136.5 -42z" />
    <glyph glyph-name="S" unicode="&#x15a;" horiz-adv-x="612" 
d="M296 18q47 0 82 12.5t58.5 34.5t35 52t11.5 64q0 58 -36.5 103t-126.5 78l-87 32q-89 32 -127.5 83.5t-38.5 117.5q0 51 19.5 90.5t53.5 66t81 40t101 13.5q68 0 113.5 -14.5t85.5 -38.5v-128h-15q-21 79 -66 115t-114 36q-37 0 -68 -10.5t-53.5 -29.5t-35.5 -44t-13 -53
q0 -26 5.5 -48.5t20 -42t38.5 -36t60 -30.5l68 -26q35 -14 74.5 -30t72.5 -41.5t55 -63t22 -94.5q0 -54 -18 -98t-52.5 -75.5t-83.5 -49t-111 -17.5q-155 0 -253 68v153h15q34 -105 90.5 -147t136.5 -42z" />
    <glyph glyph-name="T" unicode="T" horiz-adv-x="752" 
d="M428 85q0 -39 15.5 -51.5t56.5 -12.5h46v-21h-340v21h41q44 0 60.5 12.5t16.5 51.5v667h-120q-40 0 -68 -9.5t-47.5 -30.5t-30.5 -55t-17 -84h-15v214h700v-214h-15q-5 49 -16 83.5t-30.5 55.5t-48 30.5t-68.5 9.5h-120v-667z" />
    <glyph glyph-name="T" unicode="&#x21a;" horiz-adv-x="752" 
d="M428 85q0 -39 15.5 -51.5t56.5 -12.5h46v-21h-340v21h41q44 0 60.5 12.5t16.5 51.5v667h-120q-40 0 -68 -9.5t-47.5 -30.5t-30.5 -55t-17 -84h-15v214h700v-214h-15q-5 49 -16 83.5t-30.5 55.5t-48 30.5t-68.5 9.5h-120v-667z" />
    <glyph glyph-name="T" unicode="&#x166;" horiz-adv-x="752" 
d="M428 85q0 -39 15.5 -51.5t56.5 -12.5h46v-21h-340v21h41q44 0 60.5 12.5t16.5 51.5v667h-120q-40 0 -68 -9.5t-47.5 -30.5t-30.5 -55t-17 -84h-15v214h700v-214h-15q-5 49 -16 83.5t-30.5 55.5t-48 30.5t-68.5 9.5h-120v-667z" />
    <glyph glyph-name="T" unicode="&#x164;" horiz-adv-x="752" 
d="M428 85q0 -39 15.5 -51.5t56.5 -12.5h46v-21h-340v21h41q44 0 60.5 12.5t16.5 51.5v667h-120q-40 0 -68 -9.5t-47.5 -30.5t-30.5 -55t-17 -84h-15v214h700v-214h-15q-5 49 -16 83.5t-30.5 55.5t-48 30.5t-68.5 9.5h-120v-667z" />
    <glyph glyph-name="T" unicode="&#x162;" horiz-adv-x="752" 
d="M428 85q0 -39 15.5 -51.5t56.5 -12.5h46v-21h-340v21h41q44 0 60.5 12.5t16.5 51.5v667h-120q-40 0 -68 -9.5t-47.5 -30.5t-30.5 -55t-17 -84h-15v214h700v-214h-15q-5 49 -16 83.5t-30.5 55.5t-48 30.5t-68.5 9.5h-120v-667z" />
    <glyph glyph-name="U" unicode="U" horiz-adv-x="851" 
d="M733 315q0 -76 -21 -137t-61 -103.5t-96.5 -65.5t-127.5 -23t-128 22t-97 63t-61.5 101t-21.5 137v402q0 32 -14.5 43.5t-48.5 11.5h-35v21h300v-21h-35q-34 0 -48.5 -11.5t-14.5 -43.5v-410q0 -59 16.5 -107t46 -82.5t71 -53t92.5 -18.5q58 0 103.5 20t76 56.5
t46.5 87.5t16 113v349q0 53 -13.5 76.5t-58.5 23.5h-38v21h262v-21h-31q-43 0 -61 -23t-18 -77v-351z" />
    <glyph glyph-name="U" unicode="&#x1ee4;" horiz-adv-x="851" 
d="M733 315q0 -76 -21 -137t-61 -103.5t-96.5 -65.5t-127.5 -23t-128 22t-97 63t-61.5 101t-21.5 137v402q0 32 -14.5 43.5t-48.5 11.5h-35v21h300v-21h-35q-34 0 -48.5 -11.5t-14.5 -43.5v-410q0 -59 16.5 -107t46 -82.5t71 -53t92.5 -18.5q58 0 103.5 20t76 56.5
t46.5 87.5t16 113v349q0 53 -13.5 76.5t-58.5 23.5h-38v21h262v-21h-31q-43 0 -61 -23t-18 -77v-351z" />
    <glyph glyph-name="U" unicode="&#x172;" horiz-adv-x="851" 
d="M733 315q0 -76 -21 -137t-61 -103.5t-96.5 -65.5t-127.5 -23t-128 22t-97 63t-61.5 101t-21.5 137v402q0 32 -14.5 43.5t-48.5 11.5h-35v21h300v-21h-35q-34 0 -48.5 -11.5t-14.5 -43.5v-410q0 -59 16.5 -107t46 -82.5t71 -53t92.5 -18.5q58 0 103.5 20t76 56.5
t46.5 87.5t16 113v349q0 53 -13.5 76.5t-58.5 23.5h-38v21h262v-21h-31q-43 0 -61 -23t-18 -77v-351z" />
    <glyph glyph-name="U" unicode="&#x170;" horiz-adv-x="851" 
d="M733 315q0 -76 -21 -137t-61 -103.5t-96.5 -65.5t-127.5 -23t-128 22t-97 63t-61.5 101t-21.5 137v402q0 32 -14.5 43.5t-48.5 11.5h-35v21h300v-21h-35q-34 0 -48.5 -11.5t-14.5 -43.5v-410q0 -59 16.5 -107t46 -82.5t71 -53t92.5 -18.5q58 0 103.5 20t76 56.5
t46.5 87.5t16 113v349q0 53 -13.5 76.5t-58.5 23.5h-38v21h262v-21h-31q-43 0 -61 -23t-18 -77v-351z" />
    <glyph glyph-name="U" unicode="&#x16e;" horiz-adv-x="851" 
d="M733 315q0 -76 -21 -137t-61 -103.5t-96.5 -65.5t-127.5 -23t-128 22t-97 63t-61.5 101t-21.5 137v402q0 32 -14.5 43.5t-48.5 11.5h-35v21h300v-21h-35q-34 0 -48.5 -11.5t-14.5 -43.5v-410q0 -59 16.5 -107t46 -82.5t71 -53t92.5 -18.5q58 0 103.5 20t76 56.5
t46.5 87.5t16 113v349q0 53 -13.5 76.5t-58.5 23.5h-38v21h262v-21h-31q-43 0 -61 -23t-18 -77v-351z" />
    <glyph glyph-name="U" unicode="&#x16c;" horiz-adv-x="851" 
d="M733 315q0 -76 -21 -137t-61 -103.5t-96.5 -65.5t-127.5 -23t-128 22t-97 63t-61.5 101t-21.5 137v402q0 32 -14.5 43.5t-48.5 11.5h-35v21h300v-21h-35q-34 0 -48.5 -11.5t-14.5 -43.5v-410q0 -59 16.5 -107t46 -82.5t71 -53t92.5 -18.5q58 0 103.5 20t76 56.5
t46.5 87.5t16 113v349q0 53 -13.5 76.5t-58.5 23.5h-38v21h262v-21h-31q-43 0 -61 -23t-18 -77v-351z" />
    <glyph glyph-name="U" unicode="&#x16a;" horiz-adv-x="851" 
d="M733 315q0 -76 -21 -137t-61 -103.5t-96.5 -65.5t-127.5 -23t-128 22t-97 63t-61.5 101t-21.5 137v402q0 32 -14.5 43.5t-48.5 11.5h-35v21h300v-21h-35q-34 0 -48.5 -11.5t-14.5 -43.5v-410q0 -59 16.5 -107t46 -82.5t71 -53t92.5 -18.5q58 0 103.5 20t76 56.5
t46.5 87.5t16 113v349q0 53 -13.5 76.5t-58.5 23.5h-38v21h262v-21h-31q-43 0 -61 -23t-18 -77v-351z" />
    <glyph glyph-name="U" unicode="&#x168;" horiz-adv-x="851" 
d="M733 315q0 -76 -21 -137t-61 -103.5t-96.5 -65.5t-127.5 -23t-128 22t-97 63t-61.5 101t-21.5 137v402q0 32 -14.5 43.5t-48.5 11.5h-35v21h300v-21h-35q-34 0 -48.5 -11.5t-14.5 -43.5v-410q0 -59 16.5 -107t46 -82.5t71 -53t92.5 -18.5q58 0 103.5 20t76 56.5
t46.5 87.5t16 113v349q0 53 -13.5 76.5t-58.5 23.5h-38v21h262v-21h-31q-43 0 -61 -23t-18 -77v-351z" />
    <glyph glyph-name="U" unicode="&#xdc;" horiz-adv-x="851" 
d="M733 315q0 -76 -21 -137t-61 -103.5t-96.5 -65.5t-127.5 -23t-128 22t-97 63t-61.5 101t-21.5 137v402q0 32 -14.5 43.5t-48.5 11.5h-35v21h300v-21h-35q-34 0 -48.5 -11.5t-14.5 -43.5v-410q0 -59 16.5 -107t46 -82.5t71 -53t92.5 -18.5q58 0 103.5 20t76 56.5
t46.5 87.5t16 113v349q0 53 -13.5 76.5t-58.5 23.5h-38v21h262v-21h-31q-43 0 -61 -23t-18 -77v-351z" />
    <glyph glyph-name="U" unicode="&#xdb;" horiz-adv-x="851" 
d="M733 315q0 -76 -21 -137t-61 -103.5t-96.5 -65.5t-127.5 -23t-128 22t-97 63t-61.5 101t-21.5 137v402q0 32 -14.5 43.5t-48.5 11.5h-35v21h300v-21h-35q-34 0 -48.5 -11.5t-14.5 -43.5v-410q0 -59 16.5 -107t46 -82.5t71 -53t92.5 -18.5q58 0 103.5 20t76 56.5
t46.5 87.5t16 113v349q0 53 -13.5 76.5t-58.5 23.5h-38v21h262v-21h-31q-43 0 -61 -23t-18 -77v-351z" />
    <glyph glyph-name="U" unicode="&#xda;" horiz-adv-x="851" 
d="M733 315q0 -76 -21 -137t-61 -103.5t-96.5 -65.5t-127.5 -23t-128 22t-97 63t-61.5 101t-21.5 137v402q0 32 -14.5 43.5t-48.5 11.5h-35v21h300v-21h-35q-34 0 -48.5 -11.5t-14.5 -43.5v-410q0 -59 16.5 -107t46 -82.5t71 -53t92.5 -18.5q58 0 103.5 20t76 56.5
t46.5 87.5t16 113v349q0 53 -13.5 76.5t-58.5 23.5h-38v21h262v-21h-31q-43 0 -61 -23t-18 -77v-351z" />
    <glyph glyph-name="U" unicode="&#xd9;" horiz-adv-x="851" 
d="M733 315q0 -76 -21 -137t-61 -103.5t-96.5 -65.5t-127.5 -23t-128 22t-97 63t-61.5 101t-21.5 137v402q0 32 -14.5 43.5t-48.5 11.5h-35v21h300v-21h-35q-34 0 -48.5 -11.5t-14.5 -43.5v-410q0 -59 16.5 -107t46 -82.5t71 -53t92.5 -18.5q58 0 103.5 20t76 56.5
t46.5 87.5t16 113v349q0 53 -13.5 76.5t-58.5 23.5h-38v21h262v-21h-31q-43 0 -61 -23t-18 -77v-351z" />
    <glyph glyph-name="V" unicode="V" horiz-adv-x="780" 
d="M396 -23h-13l-291 732q-11 28 -30 42.5t-48 14.5h-24v21h284v-21h-24q-14 0 -25.5 -2.5t-19 -8t-9 -15t3.5 -22.5l221 -573l194 489q16 40 22.5 66t2.5 40.5t-19 20t-42 5.5h-22v21h239v-21h-13q-21 0 -37 -5t-30 -18.5t-27 -36.5t-27 -59z" />
    <glyph glyph-name="W" unicode="W" horiz-adv-x="1074" 
d="M906 634q13 42 19 68t3 40t-17 19t-41 5h-22v21h239v-21h-13q-21 0 -38 -5t-32 -18t-27.5 -36t-23.5 -60l-202 -670h-13l-200 530l-199 -530h-13l-234 732q-18 57 -78 57h-24v21h284v-21h-24q-29 0 -43.5 -10.5t-6.5 -37.5l169 -543l196 517h13l191 -517z" />
    <glyph glyph-name="W" unicode="&#x1e84;" horiz-adv-x="1074" 
d="M906 634q13 42 19 68t3 40t-17 19t-41 5h-22v21h239v-21h-13q-21 0 -38 -5t-32 -18t-27.5 -36t-23.5 -60l-202 -670h-13l-200 530l-199 -530h-13l-234 732q-18 57 -78 57h-24v21h284v-21h-24q-29 0 -43.5 -10.5t-6.5 -37.5l169 -543l196 517h13l191 -517z" />
    <glyph glyph-name="W" unicode="&#x1e82;" horiz-adv-x="1074" 
d="M906 634q13 42 19 68t3 40t-17 19t-41 5h-22v21h239v-21h-13q-21 0 -38 -5t-32 -18t-27.5 -36t-23.5 -60l-202 -670h-13l-200 530l-199 -530h-13l-234 732q-18 57 -78 57h-24v21h284v-21h-24q-29 0 -43.5 -10.5t-6.5 -37.5l169 -543l196 517h13l191 -517z" />
    <glyph glyph-name="W" unicode="&#x1e80;" horiz-adv-x="1074" 
d="M906 634q13 42 19 68t3 40t-17 19t-41 5h-22v21h239v-21h-13q-21 0 -38 -5t-32 -18t-27.5 -36t-23.5 -60l-202 -670h-13l-200 530l-199 -530h-13l-234 732q-18 57 -78 57h-24v21h284v-21h-24q-29 0 -43.5 -10.5t-6.5 -37.5l169 -543l196 517h13l191 -517z" />
    <glyph glyph-name="W" unicode="&#x174;" horiz-adv-x="1074" 
d="M906 634q13 42 19 68t3 40t-17 19t-41 5h-22v21h239v-21h-13q-21 0 -38 -5t-32 -18t-27.5 -36t-23.5 -60l-202 -670h-13l-200 530l-199 -530h-13l-234 732q-18 57 -78 57h-24v21h284v-21h-24q-29 0 -43.5 -10.5t-6.5 -37.5l169 -543l196 517h13l191 -517z" />
    <glyph glyph-name="X" unicode="X" horiz-adv-x="804" 
d="M381 357l-182 -232q-29 -36 -34.5 -57t4 -31.5t31.5 -13t49 -2.5v-21h-261v21q25 0 45 5t38.5 17t38.5 33t46 54l202 259l-226 318q-9 13 -17 23.5t-19 18.5t-27 12.5t-40 4.5v21h279v-21h-16q-38 0 -50.5 -12.5t3.5 -34.5l177 -249l146 187q25 32 33.5 53t3.5 33.5
t-22 17.5t-43 5v21h235v-21q-25 0 -43.5 -5t-36.5 -17.5t-37 -34.5t-46 -56l-168 -214l257 -359q18 -25 42.5 -42t72.5 -17v-21h-302v21h26q42 0 51.5 13.5t-4.5 33.5z" />
    <glyph glyph-name="Y" unicode="Y" horiz-adv-x="709" 
d="M408 85q0 -39 15.5 -51.5t56.5 -12.5h46v-21h-340v21h41q44 0 60.5 12.5t16.5 51.5v287l-199 335q-16 26 -32.5 42.5t-46.5 16.5h-24v21h289v-21h-26q-30 0 -48.5 -12t-3.5 -37l178 -298l159 273q23 41 8 57.5t-57 16.5h-28v21h238v-21h-26q-17 0 -28.5 -3.5t-22 -12.5
t-20.5 -23.5t-23 -36.5l-183 -311v-294z" />
    <glyph glyph-name="Y" unicode="&#x1ef2;" horiz-adv-x="709" 
d="M408 85q0 -39 15.5 -51.5t56.5 -12.5h46v-21h-340v21h41q44 0 60.5 12.5t16.5 51.5v287l-199 335q-16 26 -32.5 42.5t-46.5 16.5h-24v21h289v-21h-26q-30 0 -48.5 -12t-3.5 -37l178 -298l159 273q23 41 8 57.5t-57 16.5h-28v21h238v-21h-26q-17 0 -28.5 -3.5t-22 -12.5
t-20.5 -23.5t-23 -36.5l-183 -311v-294z" />
    <glyph glyph-name="Y" unicode="&#x232;" horiz-adv-x="709" 
d="M408 85q0 -39 15.5 -51.5t56.5 -12.5h46v-21h-340v21h41q44 0 60.5 12.5t16.5 51.5v287l-199 335q-16 26 -32.5 42.5t-46.5 16.5h-24v21h289v-21h-26q-30 0 -48.5 -12t-3.5 -37l178 -298l159 273q23 41 8 57.5t-57 16.5h-28v21h238v-21h-26q-17 0 -28.5 -3.5t-22 -12.5
t-20.5 -23.5t-23 -36.5l-183 -311v-294z" />
    <glyph glyph-name="Y" unicode="&#x178;" horiz-adv-x="709" 
d="M408 85q0 -39 15.5 -51.5t56.5 -12.5h46v-21h-340v21h41q44 0 60.5 12.5t16.5 51.5v287l-199 335q-16 26 -32.5 42.5t-46.5 16.5h-24v21h289v-21h-26q-30 0 -48.5 -12t-3.5 -37l178 -298l159 273q23 41 8 57.5t-57 16.5h-28v21h238v-21h-26q-17 0 -28.5 -3.5t-22 -12.5
t-20.5 -23.5t-23 -36.5l-183 -311v-294z" />
    <glyph glyph-name="Y" unicode="&#x176;" horiz-adv-x="709" 
d="M408 85q0 -39 15.5 -51.5t56.5 -12.5h46v-21h-340v21h41q44 0 60.5 12.5t16.5 51.5v287l-199 335q-16 26 -32.5 42.5t-46.5 16.5h-24v21h289v-21h-26q-30 0 -48.5 -12t-3.5 -37l178 -298l159 273q23 41 8 57.5t-57 16.5h-28v21h238v-21h-26q-17 0 -28.5 -3.5t-22 -12.5
t-20.5 -23.5t-23 -36.5l-183 -311v-294z" />
    <glyph glyph-name="Y" unicode="&#xdd;" horiz-adv-x="709" 
d="M408 85q0 -39 15.5 -51.5t56.5 -12.5h46v-21h-340v21h41q44 0 60.5 12.5t16.5 51.5v287l-199 335q-16 26 -32.5 42.5t-46.5 16.5h-24v21h289v-21h-26q-30 0 -48.5 -12t-3.5 -37l178 -298l159 273q23 41 8 57.5t-57 16.5h-28v21h238v-21h-26q-17 0 -28.5 -3.5t-22 -12.5
t-20.5 -23.5t-23 -36.5l-183 -311v-294z" />
    <glyph glyph-name="Z" unicode="Z" horiz-adv-x="681" 
d="M2 0l509 752h-216q-57 0 -95.5 -7t-63 -24.5t-36.5 -47t-16 -74.5h-12v188h578l-509 -752h298q39 0 72.5 6.5t58.5 24t41 48t20 78.5h11v-192h-640z" />
    <glyph glyph-name="Z" unicode="&#x17d;" horiz-adv-x="681" 
d="M2 0l509 752h-216q-57 0 -95.5 -7t-63 -24.5t-36.5 -47t-16 -74.5h-12v188h578l-509 -752h298q39 0 72.5 6.5t58.5 24t41 48t20 78.5h11v-192h-640z" />
    <glyph glyph-name="Z" unicode="&#x17b;" horiz-adv-x="681" 
d="M2 0l509 752h-216q-57 0 -95.5 -7t-63 -24.5t-36.5 -47t-16 -74.5h-12v188h578l-509 -752h298q39 0 72.5 6.5t58.5 24t41 48t20 78.5h11v-192h-640z" />
    <glyph glyph-name="Z" unicode="&#x179;" horiz-adv-x="681" 
d="M2 0l509 752h-216q-57 0 -95.5 -7t-63 -24.5t-36.5 -47t-16 -74.5h-12v188h578l-509 -752h298q39 0 72.5 6.5t58.5 24t41 48t20 78.5h11v-192h-640z" />
    <glyph glyph-name="a" unicode="a" horiz-adv-x="497" 
d="M401 91q0 -20 7 -34t27 -14q16 0 27.5 7t19.5 25l8 -2q-8 -45 -34.5 -64.5t-64.5 -19.5q-36 0 -59.5 21t-23.5 58q-29 -44 -70 -63t-77 -19q-34 0 -59 9.5t-42 25.5t-25.5 37t-8.5 43q0 40 21.5 68.5t59.5 46.5t90 27t112 9v147q0 45 -24.5 64.5t-61.5 19.5
q-30 0 -53.5 -14.5t-23.5 -52.5q0 -4 0.5 -8.5t0.5 -9.5q0 -27 -13 -38.5t-28 -11.5q-19 0 -30.5 11t-11.5 34q0 27 16 47.5t40 35t52.5 21.5t54.5 7q86 0 130 -36.5t44 -118.5v-258zM123 115q0 -35 21.5 -59t57.5 -24q27 0 55 11t52 39v159q-39 -2 -72.5 -11.5t-59 -25.5
t-40 -38.5t-14.5 -50.5z" />
    <glyph glyph-name="a" unicode="&#x105;" horiz-adv-x="497" 
d="M401 91q0 -20 7 -34t27 -14q16 0 27.5 7t19.5 25l8 -2q-8 -45 -34.5 -64.5t-64.5 -19.5q-36 0 -59.5 21t-23.5 58q-29 -44 -70 -63t-77 -19q-34 0 -59 9.5t-42 25.5t-25.5 37t-8.5 43q0 40 21.5 68.5t59.5 46.5t90 27t112 9v147q0 45 -24.5 64.5t-61.5 19.5
q-30 0 -53.5 -14.5t-23.5 -52.5q0 -4 0.5 -8.5t0.5 -9.5q0 -27 -13 -38.5t-28 -11.5q-19 0 -30.5 11t-11.5 34q0 27 16 47.5t40 35t52.5 21.5t54.5 7q86 0 130 -36.5t44 -118.5v-258zM123 115q0 -35 21.5 -59t57.5 -24q27 0 55 11t52 39v159q-39 -2 -72.5 -11.5t-59 -25.5
t-40 -38.5t-14.5 -50.5z" />
    <glyph glyph-name="a" unicode="&#x103;" horiz-adv-x="497" 
d="M401 91q0 -20 7 -34t27 -14q16 0 27.5 7t19.5 25l8 -2q-8 -45 -34.5 -64.5t-64.5 -19.5q-36 0 -59.5 21t-23.5 58q-29 -44 -70 -63t-77 -19q-34 0 -59 9.5t-42 25.5t-25.5 37t-8.5 43q0 40 21.5 68.5t59.5 46.5t90 27t112 9v147q0 45 -24.5 64.5t-61.5 19.5
q-30 0 -53.5 -14.5t-23.5 -52.5q0 -4 0.5 -8.5t0.5 -9.5q0 -27 -13 -38.5t-28 -11.5q-19 0 -30.5 11t-11.5 34q0 27 16 47.5t40 35t52.5 21.5t54.5 7q86 0 130 -36.5t44 -118.5v-258zM123 115q0 -35 21.5 -59t57.5 -24q27 0 55 11t52 39v159q-39 -2 -72.5 -11.5t-59 -25.5
t-40 -38.5t-14.5 -50.5z" />
    <glyph glyph-name="a" unicode="&#x101;" horiz-adv-x="497" 
d="M401 91q0 -20 7 -34t27 -14q16 0 27.5 7t19.5 25l8 -2q-8 -45 -34.5 -64.5t-64.5 -19.5q-36 0 -59.5 21t-23.5 58q-29 -44 -70 -63t-77 -19q-34 0 -59 9.5t-42 25.5t-25.5 37t-8.5 43q0 40 21.5 68.5t59.5 46.5t90 27t112 9v147q0 45 -24.5 64.5t-61.5 19.5
q-30 0 -53.5 -14.5t-23.5 -52.5q0 -4 0.5 -8.5t0.5 -9.5q0 -27 -13 -38.5t-28 -11.5q-19 0 -30.5 11t-11.5 34q0 27 16 47.5t40 35t52.5 21.5t54.5 7q86 0 130 -36.5t44 -118.5v-258zM123 115q0 -35 21.5 -59t57.5 -24q27 0 55 11t52 39v159q-39 -2 -72.5 -11.5t-59 -25.5
t-40 -38.5t-14.5 -50.5z" />
    <glyph glyph-name="a" unicode="&#xe6;" horiz-adv-x="497" 
d="M401 91q0 -20 7 -34t27 -14q16 0 27.5 7t19.5 25l8 -2q-8 -45 -34.5 -64.5t-64.5 -19.5q-36 0 -59.5 21t-23.5 58q-29 -44 -70 -63t-77 -19q-34 0 -59 9.5t-42 25.5t-25.5 37t-8.5 43q0 40 21.5 68.5t59.5 46.5t90 27t112 9v147q0 45 -24.5 64.5t-61.5 19.5
q-30 0 -53.5 -14.5t-23.5 -52.5q0 -4 0.5 -8.5t0.5 -9.5q0 -27 -13 -38.5t-28 -11.5q-19 0 -30.5 11t-11.5 34q0 27 16 47.5t40 35t52.5 21.5t54.5 7q86 0 130 -36.5t44 -118.5v-258zM123 115q0 -35 21.5 -59t57.5 -24q27 0 55 11t52 39v159q-39 -2 -72.5 -11.5t-59 -25.5
t-40 -38.5t-14.5 -50.5z" />
    <glyph glyph-name="a" unicode="&#xe5;" horiz-adv-x="497" 
d="M401 91q0 -20 7 -34t27 -14q16 0 27.5 7t19.5 25l8 -2q-8 -45 -34.5 -64.5t-64.5 -19.5q-36 0 -59.5 21t-23.5 58q-29 -44 -70 -63t-77 -19q-34 0 -59 9.5t-42 25.5t-25.5 37t-8.5 43q0 40 21.5 68.5t59.5 46.5t90 27t112 9v147q0 45 -24.5 64.5t-61.5 19.5
q-30 0 -53.5 -14.5t-23.5 -52.5q0 -4 0.5 -8.5t0.5 -9.5q0 -27 -13 -38.5t-28 -11.5q-19 0 -30.5 11t-11.5 34q0 27 16 47.5t40 35t52.5 21.5t54.5 7q86 0 130 -36.5t44 -118.5v-258zM123 115q0 -35 21.5 -59t57.5 -24q27 0 55 11t52 39v159q-39 -2 -72.5 -11.5t-59 -25.5
t-40 -38.5t-14.5 -50.5z" />
    <glyph glyph-name="a" unicode="&#xe4;" horiz-adv-x="497" 
d="M401 91q0 -20 7 -34t27 -14q16 0 27.5 7t19.5 25l8 -2q-8 -45 -34.5 -64.5t-64.5 -19.5q-36 0 -59.5 21t-23.5 58q-29 -44 -70 -63t-77 -19q-34 0 -59 9.5t-42 25.5t-25.5 37t-8.5 43q0 40 21.5 68.5t59.5 46.5t90 27t112 9v147q0 45 -24.5 64.5t-61.5 19.5
q-30 0 -53.5 -14.5t-23.5 -52.5q0 -4 0.5 -8.5t0.5 -9.5q0 -27 -13 -38.5t-28 -11.5q-19 0 -30.5 11t-11.5 34q0 27 16 47.5t40 35t52.5 21.5t54.5 7q86 0 130 -36.5t44 -118.5v-258zM123 115q0 -35 21.5 -59t57.5 -24q27 0 55 11t52 39v159q-39 -2 -72.5 -11.5t-59 -25.5
t-40 -38.5t-14.5 -50.5z" />
    <glyph glyph-name="a" unicode="&#xe3;" horiz-adv-x="497" 
d="M401 91q0 -20 7 -34t27 -14q16 0 27.5 7t19.5 25l8 -2q-8 -45 -34.5 -64.5t-64.5 -19.5q-36 0 -59.5 21t-23.5 58q-29 -44 -70 -63t-77 -19q-34 0 -59 9.5t-42 25.5t-25.5 37t-8.5 43q0 40 21.5 68.5t59.5 46.5t90 27t112 9v147q0 45 -24.5 64.5t-61.5 19.5
q-30 0 -53.5 -14.5t-23.5 -52.5q0 -4 0.5 -8.5t0.5 -9.5q0 -27 -13 -38.5t-28 -11.5q-19 0 -30.5 11t-11.5 34q0 27 16 47.5t40 35t52.5 21.5t54.5 7q86 0 130 -36.5t44 -118.5v-258zM123 115q0 -35 21.5 -59t57.5 -24q27 0 55 11t52 39v159q-39 -2 -72.5 -11.5t-59 -25.5
t-40 -38.5t-14.5 -50.5z" />
    <glyph glyph-name="a" unicode="&#xe2;" horiz-adv-x="497" 
d="M401 91q0 -20 7 -34t27 -14q16 0 27.5 7t19.5 25l8 -2q-8 -45 -34.5 -64.5t-64.5 -19.5q-36 0 -59.5 21t-23.5 58q-29 -44 -70 -63t-77 -19q-34 0 -59 9.5t-42 25.5t-25.5 37t-8.5 43q0 40 21.5 68.5t59.5 46.5t90 27t112 9v147q0 45 -24.5 64.5t-61.5 19.5
q-30 0 -53.5 -14.5t-23.5 -52.5q0 -4 0.5 -8.5t0.5 -9.5q0 -27 -13 -38.5t-28 -11.5q-19 0 -30.5 11t-11.5 34q0 27 16 47.5t40 35t52.5 21.5t54.5 7q86 0 130 -36.5t44 -118.5v-258zM123 115q0 -35 21.5 -59t57.5 -24q27 0 55 11t52 39v159q-39 -2 -72.5 -11.5t-59 -25.5
t-40 -38.5t-14.5 -50.5z" />
    <glyph glyph-name="a" unicode="&#xe1;" horiz-adv-x="497" 
d="M401 91q0 -20 7 -34t27 -14q16 0 27.5 7t19.5 25l8 -2q-8 -45 -34.5 -64.5t-64.5 -19.5q-36 0 -59.5 21t-23.5 58q-29 -44 -70 -63t-77 -19q-34 0 -59 9.5t-42 25.5t-25.5 37t-8.5 43q0 40 21.5 68.5t59.5 46.5t90 27t112 9v147q0 45 -24.5 64.5t-61.5 19.5
q-30 0 -53.5 -14.5t-23.5 -52.5q0 -4 0.5 -8.5t0.5 -9.5q0 -27 -13 -38.5t-28 -11.5q-19 0 -30.5 11t-11.5 34q0 27 16 47.5t40 35t52.5 21.5t54.5 7q86 0 130 -36.5t44 -118.5v-258zM123 115q0 -35 21.5 -59t57.5 -24q27 0 55 11t52 39v159q-39 -2 -72.5 -11.5t-59 -25.5
t-40 -38.5t-14.5 -50.5z" />
    <glyph glyph-name="a" unicode="&#xe0;" horiz-adv-x="497" 
d="M401 91q0 -20 7 -34t27 -14q16 0 27.5 7t19.5 25l8 -2q-8 -45 -34.5 -64.5t-64.5 -19.5q-36 0 -59.5 21t-23.5 58q-29 -44 -70 -63t-77 -19q-34 0 -59 9.5t-42 25.5t-25.5 37t-8.5 43q0 40 21.5 68.5t59.5 46.5t90 27t112 9v147q0 45 -24.5 64.5t-61.5 19.5
q-30 0 -53.5 -14.5t-23.5 -52.5q0 -4 0.5 -8.5t0.5 -9.5q0 -27 -13 -38.5t-28 -11.5q-19 0 -30.5 11t-11.5 34q0 27 16 47.5t40 35t52.5 21.5t54.5 7q86 0 130 -36.5t44 -118.5v-258zM123 115q0 -35 21.5 -59t57.5 -24q27 0 55 11t52 39v159q-39 -2 -72.5 -11.5t-59 -25.5
t-40 -38.5t-14.5 -50.5z" />
    <glyph glyph-name="b" unicode="b" horiz-adv-x="627" 
d="M191 446q58 58 142 58q56 0 103 -19t81.5 -53.5t54 -81.5t19.5 -103t-20 -103.5t-55 -82.5t-82.5 -55t-103.5 -20q-88 0 -139 55v-41h-174v21h25q34 0 45.5 11.5t11.5 43.5v635q0 32 -11.5 43.5t-45.5 11.5h-25v21h256v-21h-25q-34 0 -45.5 -11.5t-11.5 -43.5v-265z
M296 471q-36 0 -59 -8t-46 -28v-383q24 -19 46.5 -26t54.5 -7q44 0 80 16.5t62 46.5t40.5 72t14.5 93q0 49 -14 90.5t-39.5 71t-61 46t-78.5 16.5z" />
    <glyph glyph-name="c" unicode="c" horiz-adv-x="503" 
d="M440 387q-16 0 -25 7t-16 17.5t-13.5 22.5t-16.5 22q-11 11 -27.5 17.5t-43.5 6.5q-44 0 -74.5 -21t-49 -54t-27 -72.5t-8.5 -76.5q0 -45 11 -88t33.5 -76t57.5 -53t84 -20q36 0 75.5 17t71.5 58l11 -9q-38 -56 -87.5 -77.5t-100.5 -21.5q-59 0 -106.5 18.5t-81.5 53
t-52 83.5t-18 109q0 55 21 102t57 80.5t84.5 52.5t103.5 19q24 0 53.5 -5t55.5 -15.5t44 -26.5t18 -37q0 -14 -9.5 -23.5t-24.5 -9.5z" />
    <glyph glyph-name="c" unicode="&#x10d;" horiz-adv-x="503" 
d="M440 387q-16 0 -25 7t-16 17.5t-13.5 22.5t-16.5 22q-11 11 -27.5 17.5t-43.5 6.5q-44 0 -74.5 -21t-49 -54t-27 -72.5t-8.5 -76.5q0 -45 11 -88t33.5 -76t57.5 -53t84 -20q36 0 75.5 17t71.5 58l11 -9q-38 -56 -87.5 -77.5t-100.5 -21.5q-59 0 -106.5 18.5t-81.5 53
t-52 83.5t-18 109q0 55 21 102t57 80.5t84.5 52.5t103.5 19q24 0 53.5 -5t55.5 -15.5t44 -26.5t18 -37q0 -14 -9.5 -23.5t-24.5 -9.5z" />
    <glyph glyph-name="c" unicode="&#x10b;" horiz-adv-x="503" 
d="M440 387q-16 0 -25 7t-16 17.5t-13.5 22.5t-16.5 22q-11 11 -27.5 17.5t-43.5 6.5q-44 0 -74.5 -21t-49 -54t-27 -72.5t-8.5 -76.5q0 -45 11 -88t33.5 -76t57.5 -53t84 -20q36 0 75.5 17t71.5 58l11 -9q-38 -56 -87.5 -77.5t-100.5 -21.5q-59 0 -106.5 18.5t-81.5 53
t-52 83.5t-18 109q0 55 21 102t57 80.5t84.5 52.5t103.5 19q24 0 53.5 -5t55.5 -15.5t44 -26.5t18 -37q0 -14 -9.5 -23.5t-24.5 -9.5z" />
    <glyph glyph-name="c" unicode="&#x109;" horiz-adv-x="503" 
d="M440 387q-16 0 -25 7t-16 17.5t-13.5 22.5t-16.5 22q-11 11 -27.5 17.5t-43.5 6.5q-44 0 -74.5 -21t-49 -54t-27 -72.5t-8.5 -76.5q0 -45 11 -88t33.5 -76t57.5 -53t84 -20q36 0 75.5 17t71.5 58l11 -9q-38 -56 -87.5 -77.5t-100.5 -21.5q-59 0 -106.5 18.5t-81.5 53
t-52 83.5t-18 109q0 55 21 102t57 80.5t84.5 52.5t103.5 19q24 0 53.5 -5t55.5 -15.5t44 -26.5t18 -37q0 -14 -9.5 -23.5t-24.5 -9.5z" />
    <glyph glyph-name="c" unicode="&#x107;" horiz-adv-x="503" 
d="M440 387q-16 0 -25 7t-16 17.5t-13.5 22.5t-16.5 22q-11 11 -27.5 17.5t-43.5 6.5q-44 0 -74.5 -21t-49 -54t-27 -72.5t-8.5 -76.5q0 -45 11 -88t33.5 -76t57.5 -53t84 -20q36 0 75.5 17t71.5 58l11 -9q-38 -56 -87.5 -77.5t-100.5 -21.5q-59 0 -106.5 18.5t-81.5 53
t-52 83.5t-18 109q0 55 21 102t57 80.5t84.5 52.5t103.5 19q24 0 53.5 -5t55.5 -15.5t44 -26.5t18 -37q0 -14 -9.5 -23.5t-24.5 -9.5z" />
    <glyph glyph-name="c" unicode="&#xe7;" horiz-adv-x="503" 
d="M440 387q-16 0 -25 7t-16 17.5t-13.5 22.5t-16.5 22q-11 11 -27.5 17.5t-43.5 6.5q-44 0 -74.5 -21t-49 -54t-27 -72.5t-8.5 -76.5q0 -45 11 -88t33.5 -76t57.5 -53t84 -20q36 0 75.5 17t71.5 58l11 -9q-38 -56 -87.5 -77.5t-100.5 -21.5q-59 0 -106.5 18.5t-81.5 53
t-52 83.5t-18 109q0 55 21 102t57 80.5t84.5 52.5t103.5 19q24 0 53.5 -5t55.5 -15.5t44 -26.5t18 -37q0 -14 -9.5 -23.5t-24.5 -9.5z" />
    <glyph glyph-name="d" unicode="d" horiz-adv-x="624" 
d="M436 0v43q-60 -57 -147 -57q-55 0 -101 19.5t-79.5 54t-52.5 82t-19 104.5q0 56 19.5 103t53.5 81.5t81 54t102 19.5q85 0 143 -61v268q0 32 -11.5 43.5t-45.5 11.5h-35v21h266v-21h-25q-34 0 -45.5 -11.5t-11.5 -43.5v-635q0 -32 12 -43.5t46 -11.5h25v-21h-175zM327 19
q34 0 59.5 7.5t49.5 24.5v381q-22 17 -50 27t-59 10q-43 0 -77.5 -16t-59 -45t-38 -70t-13.5 -92q0 -52 13 -94t37.5 -71.5t59.5 -45.5t78 -16z" />
    <glyph glyph-name="d" unicode="&#x111;" horiz-adv-x="624" 
d="M436 0v43q-60 -57 -147 -57q-55 0 -101 19.5t-79.5 54t-52.5 82t-19 104.5q0 56 19.5 103t53.5 81.5t81 54t102 19.5q85 0 143 -61v268q0 32 -11.5 43.5t-45.5 11.5h-35v21h266v-21h-25q-34 0 -45.5 -11.5t-11.5 -43.5v-635q0 -32 12 -43.5t46 -11.5h25v-21h-175zM327 19
q34 0 59.5 7.5t49.5 24.5v381q-22 17 -50 27t-59 10q-43 0 -77.5 -16t-59 -45t-38 -70t-13.5 -92q0 -52 13 -94t37.5 -71.5t59.5 -45.5t78 -16z" />
    <glyph glyph-name="d" unicode="&#x10f;" horiz-adv-x="624" 
d="M436 0v43q-60 -57 -147 -57q-55 0 -101 19.5t-79.5 54t-52.5 82t-19 104.5q0 56 19.5 103t53.5 81.5t81 54t102 19.5q85 0 143 -61v268q0 32 -11.5 43.5t-45.5 11.5h-35v21h266v-21h-25q-34 0 -45.5 -11.5t-11.5 -43.5v-635q0 -32 12 -43.5t46 -11.5h25v-21h-175zM327 19
q34 0 59.5 7.5t49.5 24.5v381q-22 17 -50 27t-59 10q-43 0 -77.5 -16t-59 -45t-38 -70t-13.5 -92q0 -52 13 -94t37.5 -71.5t59.5 -45.5t78 -16z" />
    <glyph glyph-name="d" unicode="&#xf0;" horiz-adv-x="624" 
d="M436 0v43q-60 -57 -147 -57q-55 0 -101 19.5t-79.5 54t-52.5 82t-19 104.5q0 56 19.5 103t53.5 81.5t81 54t102 19.5q85 0 143 -61v268q0 32 -11.5 43.5t-45.5 11.5h-35v21h266v-21h-25q-34 0 -45.5 -11.5t-11.5 -43.5v-635q0 -32 12 -43.5t46 -11.5h25v-21h-175zM327 19
q34 0 59.5 7.5t49.5 24.5v381q-22 17 -50 27t-59 10q-43 0 -77.5 -16t-59 -45t-38 -70t-13.5 -92q0 -52 13 -94t37.5 -71.5t59.5 -45.5t78 -16z" />
    <glyph glyph-name="e" unicode="e" horiz-adv-x="526" 
d="M142 311q-3 -32 -3 -55q0 -46 11 -88.5t33.5 -75.5t57.5 -52.5t84 -19.5q35 0 78 17.5t76 57.5l11 -9q-21 -29 -44.5 -48.5t-48.5 -31t-51 -16t-51 -4.5q-59 0 -106.5 18.5t-81.5 52.5t-52 83t-18 109q0 56 19 103t52.5 80.5t80 52.5t101.5 19q44 0 81.5 -15.5t65 -42
t43 -61.5t15.5 -74h-353zM292 483q-35 0 -60.5 -13t-42.5 -34t-27.5 -47.5t-15.5 -52.5h257q-2 66 -31 106.5t-80 40.5z" />
    <glyph glyph-name="e" unicode="&#x11b;" horiz-adv-x="526" 
d="M142 311q-3 -32 -3 -55q0 -46 11 -88.5t33.5 -75.5t57.5 -52.5t84 -19.5q35 0 78 17.5t76 57.5l11 -9q-21 -29 -44.5 -48.5t-48.5 -31t-51 -16t-51 -4.5q-59 0 -106.5 18.5t-81.5 52.5t-52 83t-18 109q0 56 19 103t52.5 80.5t80 52.5t101.5 19q44 0 81.5 -15.5t65 -42
t43 -61.5t15.5 -74h-353zM292 483q-35 0 -60.5 -13t-42.5 -34t-27.5 -47.5t-15.5 -52.5h257q-2 66 -31 106.5t-80 40.5z" />
    <glyph glyph-name="e" unicode="&#x119;" horiz-adv-x="526" 
d="M142 311q-3 -32 -3 -55q0 -46 11 -88.5t33.5 -75.5t57.5 -52.5t84 -19.5q35 0 78 17.5t76 57.5l11 -9q-21 -29 -44.5 -48.5t-48.5 -31t-51 -16t-51 -4.5q-59 0 -106.5 18.5t-81.5 52.5t-52 83t-18 109q0 56 19 103t52.5 80.5t80 52.5t101.5 19q44 0 81.5 -15.5t65 -42
t43 -61.5t15.5 -74h-353zM292 483q-35 0 -60.5 -13t-42.5 -34t-27.5 -47.5t-15.5 -52.5h257q-2 66 -31 106.5t-80 40.5z" />
    <glyph glyph-name="e" unicode="&#x117;" horiz-adv-x="526" 
d="M142 311q-3 -32 -3 -55q0 -46 11 -88.5t33.5 -75.5t57.5 -52.5t84 -19.5q35 0 78 17.5t76 57.5l11 -9q-21 -29 -44.5 -48.5t-48.5 -31t-51 -16t-51 -4.5q-59 0 -106.5 18.5t-81.5 52.5t-52 83t-18 109q0 56 19 103t52.5 80.5t80 52.5t101.5 19q44 0 81.5 -15.5t65 -42
t43 -61.5t15.5 -74h-353zM292 483q-35 0 -60.5 -13t-42.5 -34t-27.5 -47.5t-15.5 -52.5h257q-2 66 -31 106.5t-80 40.5z" />
    <glyph glyph-name="e" unicode="&#x115;" horiz-adv-x="526" 
d="M142 311q-3 -32 -3 -55q0 -46 11 -88.5t33.5 -75.5t57.5 -52.5t84 -19.5q35 0 78 17.5t76 57.5l11 -9q-21 -29 -44.5 -48.5t-48.5 -31t-51 -16t-51 -4.5q-59 0 -106.5 18.5t-81.5 52.5t-52 83t-18 109q0 56 19 103t52.5 80.5t80 52.5t101.5 19q44 0 81.5 -15.5t65 -42
t43 -61.5t15.5 -74h-353zM292 483q-35 0 -60.5 -13t-42.5 -34t-27.5 -47.5t-15.5 -52.5h257q-2 66 -31 106.5t-80 40.5z" />
    <glyph glyph-name="e" unicode="&#x113;" horiz-adv-x="526" 
d="M142 311q-3 -32 -3 -55q0 -46 11 -88.5t33.5 -75.5t57.5 -52.5t84 -19.5q35 0 78 17.5t76 57.5l11 -9q-21 -29 -44.5 -48.5t-48.5 -31t-51 -16t-51 -4.5q-59 0 -106.5 18.5t-81.5 52.5t-52 83t-18 109q0 56 19 103t52.5 80.5t80 52.5t101.5 19q44 0 81.5 -15.5t65 -42
t43 -61.5t15.5 -74h-353zM292 483q-35 0 -60.5 -13t-42.5 -34t-27.5 -47.5t-15.5 -52.5h257q-2 66 -31 106.5t-80 40.5z" />
    <glyph glyph-name="e" unicode="&#xeb;" horiz-adv-x="526" 
d="M142 311q-3 -32 -3 -55q0 -46 11 -88.5t33.5 -75.5t57.5 -52.5t84 -19.5q35 0 78 17.5t76 57.5l11 -9q-21 -29 -44.5 -48.5t-48.5 -31t-51 -16t-51 -4.5q-59 0 -106.5 18.5t-81.5 52.5t-52 83t-18 109q0 56 19 103t52.5 80.5t80 52.5t101.5 19q44 0 81.5 -15.5t65 -42
t43 -61.5t15.5 -74h-353zM292 483q-35 0 -60.5 -13t-42.5 -34t-27.5 -47.5t-15.5 -52.5h257q-2 66 -31 106.5t-80 40.5z" />
    <glyph glyph-name="e" unicode="&#xea;" horiz-adv-x="526" 
d="M142 311q-3 -32 -3 -55q0 -46 11 -88.5t33.5 -75.5t57.5 -52.5t84 -19.5q35 0 78 17.5t76 57.5l11 -9q-21 -29 -44.5 -48.5t-48.5 -31t-51 -16t-51 -4.5q-59 0 -106.5 18.5t-81.5 52.5t-52 83t-18 109q0 56 19 103t52.5 80.5t80 52.5t101.5 19q44 0 81.5 -15.5t65 -42
t43 -61.5t15.5 -74h-353zM292 483q-35 0 -60.5 -13t-42.5 -34t-27.5 -47.5t-15.5 -52.5h257q-2 66 -31 106.5t-80 40.5z" />
    <glyph glyph-name="e" unicode="&#xe9;" horiz-adv-x="526" 
d="M142 311q-3 -32 -3 -55q0 -46 11 -88.5t33.5 -75.5t57.5 -52.5t84 -19.5q35 0 78 17.5t76 57.5l11 -9q-21 -29 -44.5 -48.5t-48.5 -31t-51 -16t-51 -4.5q-59 0 -106.5 18.5t-81.5 52.5t-52 83t-18 109q0 56 19 103t52.5 80.5t80 52.5t101.5 19q44 0 81.5 -15.5t65 -42
t43 -61.5t15.5 -74h-353zM292 483q-35 0 -60.5 -13t-42.5 -34t-27.5 -47.5t-15.5 -52.5h257q-2 66 -31 106.5t-80 40.5z" />
    <glyph glyph-name="e" unicode="&#xe8;" horiz-adv-x="526" 
d="M142 311q-3 -32 -3 -55q0 -46 11 -88.5t33.5 -75.5t57.5 -52.5t84 -19.5q35 0 78 17.5t76 57.5l11 -9q-21 -29 -44.5 -48.5t-48.5 -31t-51 -16t-51 -4.5q-59 0 -106.5 18.5t-81.5 52.5t-52 83t-18 109q0 56 19 103t52.5 80.5t80 52.5t101.5 19q44 0 81.5 -15.5t65 -42
t43 -61.5t15.5 -74h-353zM292 483q-35 0 -60.5 -13t-42.5 -34t-27.5 -47.5t-15.5 -52.5h257q-2 66 -31 106.5t-80 40.5z" />
    <glyph glyph-name="f" unicode="f" horiz-adv-x="367" 
d="M27 481h79v65q0 68 15 116.5t42.5 79t66 44.5t84.5 14q40 0 69 -8.5t47.5 -20.5t27 -26t8.5 -25q0 -19 -10.5 -27.5t-27.5 -8.5q-14 0 -27 9.5t-21 33.5q-9 29 -26 41.5t-43 12.5q-30 0 -51.5 -12.5t-35 -40.5t-20 -72t-6.5 -107v-68h165v-26h-165v-367q0 -41 18 -54
t59 -13h25v-21h-276v21h25q34 0 45.5 11.5t11.5 43.5v379h-79v26z" />
    <glyph glyph-name="g" unicode="g" horiz-adv-x="535" 
d="M249 503q27 0 54 -6t46 -16h189v-49l-151 24q30 -21 48.5 -53t18.5 -72q0 -36 -16.5 -67t-44 -54.5t-65 -37t-79.5 -13.5q-21 0 -40 3q-42 -5 -64.5 -22t-22.5 -37q0 -41 71 -41h103q46 0 86 -6.5t70 -23t47.5 -44.5t17.5 -71q0 -45 -19.5 -79t-54.5 -57.5t-83 -35
t-105 -11.5q-115 0 -174.5 36.5t-59.5 96.5q0 45 39.5 74.5t103.5 36.5q-59 7 -82.5 34.5t-23.5 56.5q0 38 30 63.5t95 35.5q-30 9 -55.5 24.5t-43.5 37t-28.5 47t-10.5 54.5q0 36 16.5 67t44 54.5t64.5 37t79 13.5zM94 -133q0 -29 13 -50t34.5 -34.5t50.5 -19.5t61 -6
q36 0 70 5.5t60.5 20t43 38.5t16.5 61q0 43 -35.5 68.5t-119.5 25.5h-105q-43 -17 -66 -43t-23 -66zM364 331q0 23 -7 49.5t-21.5 49.5t-36 38.5t-50.5 15.5q-28 0 -49 -15.5t-35.5 -38.5t-21.5 -49.5t-7 -49.5q0 -22 7 -48.5t21.5 -50t35.5 -39t49 -15.5t49.5 15t36 37.5
t22 49.5t7.5 51z" />
    <glyph glyph-name="g" unicode="&#x123;" horiz-adv-x="535" 
d="M249 503q27 0 54 -6t46 -16h189v-49l-151 24q30 -21 48.5 -53t18.5 -72q0 -36 -16.5 -67t-44 -54.5t-65 -37t-79.5 -13.5q-21 0 -40 3q-42 -5 -64.5 -22t-22.5 -37q0 -41 71 -41h103q46 0 86 -6.5t70 -23t47.5 -44.5t17.5 -71q0 -45 -19.5 -79t-54.5 -57.5t-83 -35
t-105 -11.5q-115 0 -174.5 36.5t-59.5 96.5q0 45 39.5 74.5t103.5 36.5q-59 7 -82.5 34.5t-23.5 56.5q0 38 30 63.5t95 35.5q-30 9 -55.5 24.5t-43.5 37t-28.5 47t-10.5 54.5q0 36 16.5 67t44 54.5t64.5 37t79 13.5zM94 -133q0 -29 13 -50t34.5 -34.5t50.5 -19.5t61 -6
q36 0 70 5.5t60.5 20t43 38.5t16.5 61q0 43 -35.5 68.5t-119.5 25.5h-105q-43 -17 -66 -43t-23 -66zM364 331q0 23 -7 49.5t-21.5 49.5t-36 38.5t-50.5 15.5q-28 0 -49 -15.5t-35.5 -38.5t-21.5 -49.5t-7 -49.5q0 -22 7 -48.5t21.5 -50t35.5 -39t49 -15.5t49.5 15t36 37.5
t22 49.5t7.5 51z" />
    <glyph glyph-name="g" unicode="&#x121;" horiz-adv-x="535" 
d="M249 503q27 0 54 -6t46 -16h189v-49l-151 24q30 -21 48.5 -53t18.5 -72q0 -36 -16.5 -67t-44 -54.5t-65 -37t-79.5 -13.5q-21 0 -40 3q-42 -5 -64.5 -22t-22.5 -37q0 -41 71 -41h103q46 0 86 -6.5t70 -23t47.5 -44.5t17.5 -71q0 -45 -19.5 -79t-54.5 -57.5t-83 -35
t-105 -11.5q-115 0 -174.5 36.5t-59.5 96.5q0 45 39.5 74.5t103.5 36.5q-59 7 -82.5 34.5t-23.5 56.5q0 38 30 63.5t95 35.5q-30 9 -55.5 24.5t-43.5 37t-28.5 47t-10.5 54.5q0 36 16.5 67t44 54.5t64.5 37t79 13.5zM94 -133q0 -29 13 -50t34.5 -34.5t50.5 -19.5t61 -6
q36 0 70 5.5t60.5 20t43 38.5t16.5 61q0 43 -35.5 68.5t-119.5 25.5h-105q-43 -17 -66 -43t-23 -66zM364 331q0 23 -7 49.5t-21.5 49.5t-36 38.5t-50.5 15.5q-28 0 -49 -15.5t-35.5 -38.5t-21.5 -49.5t-7 -49.5q0 -22 7 -48.5t21.5 -50t35.5 -39t49 -15.5t49.5 15t36 37.5
t22 49.5t7.5 51z" />
    <glyph glyph-name="g" unicode="&#x11f;" horiz-adv-x="535" 
d="M249 503q27 0 54 -6t46 -16h189v-49l-151 24q30 -21 48.5 -53t18.5 -72q0 -36 -16.5 -67t-44 -54.5t-65 -37t-79.5 -13.5q-21 0 -40 3q-42 -5 -64.5 -22t-22.5 -37q0 -41 71 -41h103q46 0 86 -6.5t70 -23t47.5 -44.5t17.5 -71q0 -45 -19.5 -79t-54.5 -57.5t-83 -35
t-105 -11.5q-115 0 -174.5 36.5t-59.5 96.5q0 45 39.5 74.5t103.5 36.5q-59 7 -82.5 34.5t-23.5 56.5q0 38 30 63.5t95 35.5q-30 9 -55.5 24.5t-43.5 37t-28.5 47t-10.5 54.5q0 36 16.5 67t44 54.5t64.5 37t79 13.5zM94 -133q0 -29 13 -50t34.5 -34.5t50.5 -19.5t61 -6
q36 0 70 5.5t60.5 20t43 38.5t16.5 61q0 43 -35.5 68.5t-119.5 25.5h-105q-43 -17 -66 -43t-23 -66zM364 331q0 23 -7 49.5t-21.5 49.5t-36 38.5t-50.5 15.5q-28 0 -49 -15.5t-35.5 -38.5t-21.5 -49.5t-7 -49.5q0 -22 7 -48.5t21.5 -50t35.5 -39t49 -15.5t49.5 15t36 37.5
t22 49.5t7.5 51z" />
    <glyph glyph-name="g" unicode="&#x11d;" horiz-adv-x="535" 
d="M249 503q27 0 54 -6t46 -16h189v-49l-151 24q30 -21 48.5 -53t18.5 -72q0 -36 -16.5 -67t-44 -54.5t-65 -37t-79.5 -13.5q-21 0 -40 3q-42 -5 -64.5 -22t-22.5 -37q0 -41 71 -41h103q46 0 86 -6.5t70 -23t47.5 -44.5t17.5 -71q0 -45 -19.5 -79t-54.5 -57.5t-83 -35
t-105 -11.5q-115 0 -174.5 36.5t-59.5 96.5q0 45 39.5 74.5t103.5 36.5q-59 7 -82.5 34.5t-23.5 56.5q0 38 30 63.5t95 35.5q-30 9 -55.5 24.5t-43.5 37t-28.5 47t-10.5 54.5q0 36 16.5 67t44 54.5t64.5 37t79 13.5zM94 -133q0 -29 13 -50t34.5 -34.5t50.5 -19.5t61 -6
q36 0 70 5.5t60.5 20t43 38.5t16.5 61q0 43 -35.5 68.5t-119.5 25.5h-105q-43 -17 -66 -43t-23 -66zM364 331q0 23 -7 49.5t-21.5 49.5t-36 38.5t-50.5 15.5q-28 0 -49 -15.5t-35.5 -38.5t-21.5 -49.5t-7 -49.5q0 -22 7 -48.5t21.5 -50t35.5 -39t49 -15.5t49.5 15t36 37.5
t22 49.5t7.5 51z" />
    <glyph glyph-name="h" unicode="h" horiz-adv-x="626" 
d="M531 76q0 -32 11.5 -43.5t45.5 -11.5h25v-21h-256v21h25q34 0 45.5 11.5t11.5 43.5v241q0 69 -32 104t-87 35q-48 0 -85 -30.5t-44 -84.5v-265q0 -32 11.5 -43.5t45.5 -11.5h25v-21h-256v21h25q34 0 45.5 11.5t11.5 43.5v635q0 32 -11.5 43.5t-45.5 11.5h-25v21h256v-21
h-25q-34 0 -45.5 -11.5t-11.5 -43.5v-333q20 61 67.5 93.5t102.5 32.5q81 0 125.5 -48.5t44.5 -138.5v-241z" />
    <glyph glyph-name="h" unicode="&#x127;" horiz-adv-x="626" 
d="M531 76q0 -32 11.5 -43.5t45.5 -11.5h25v-21h-256v21h25q34 0 45.5 11.5t11.5 43.5v241q0 69 -32 104t-87 35q-48 0 -85 -30.5t-44 -84.5v-265q0 -32 11.5 -43.5t45.5 -11.5h25v-21h-256v21h25q34 0 45.5 11.5t11.5 43.5v635q0 32 -11.5 43.5t-45.5 11.5h-25v21h256v-21
h-25q-34 0 -45.5 -11.5t-11.5 -43.5v-333q20 61 67.5 93.5t102.5 32.5q81 0 125.5 -48.5t44.5 -138.5v-241z" />
    <glyph glyph-name="h" unicode="&#x125;" horiz-adv-x="626" 
d="M531 76q0 -32 11.5 -43.5t45.5 -11.5h25v-21h-256v21h25q34 0 45.5 11.5t11.5 43.5v241q0 69 -32 104t-87 35q-48 0 -85 -30.5t-44 -84.5v-265q0 -32 11.5 -43.5t45.5 -11.5h25v-21h-256v21h25q34 0 45.5 11.5t11.5 43.5v635q0 32 -11.5 43.5t-45.5 11.5h-25v21h256v-21
h-25q-34 0 -45.5 -11.5t-11.5 -43.5v-333q20 61 67.5 93.5t102.5 32.5q81 0 125.5 -48.5t44.5 -138.5v-241z" />
    <glyph glyph-name="i" unicode="i" horiz-adv-x="304" 
d="M90 702q0 27 18.5 46t45.5 19t45.5 -19t18.5 -46t-18.5 -45.5t-45.5 -18.5t-45.5 18.5t-18.5 45.5zM106 405q0 32 -11.5 43.5t-45.5 11.5h-25v21h256v-21h-25q-34 0 -45.5 -11.5t-11.5 -43.5v-329q0 -32 11.5 -43.5t45.5 -11.5h25v-21h-256v21h25q34 0 45.5 11.5
t11.5 43.5v329z" />
    <glyph glyph-name="i" unicode="&#x1ecb;" horiz-adv-x="304" 
d="M90 702q0 27 18.5 46t45.5 19t45.5 -19t18.5 -46t-18.5 -45.5t-45.5 -18.5t-45.5 18.5t-18.5 45.5zM106 405q0 32 -11.5 43.5t-45.5 11.5h-25v21h256v-21h-25q-34 0 -45.5 -11.5t-11.5 -43.5v-329q0 -32 11.5 -43.5t45.5 -11.5h25v-21h-256v21h25q34 0 45.5 11.5
t11.5 43.5v329z" />
    <glyph glyph-name="i" unicode="&#x131;" horiz-adv-x="304" 
d="M90 702q0 27 18.5 46t45.5 19t45.5 -19t18.5 -46t-18.5 -45.5t-45.5 -18.5t-45.5 18.5t-18.5 45.5zM106 405q0 32 -11.5 43.5t-45.5 11.5h-25v21h256v-21h-25q-34 0 -45.5 -11.5t-11.5 -43.5v-329q0 -32 11.5 -43.5t45.5 -11.5h25v-21h-256v21h25q34 0 45.5 11.5
t11.5 43.5v329z" />
    <glyph glyph-name="i" unicode="&#x12f;" horiz-adv-x="304" 
d="M90 702q0 27 18.5 46t45.5 19t45.5 -19t18.5 -46t-18.5 -45.5t-45.5 -18.5t-45.5 18.5t-18.5 45.5zM106 405q0 32 -11.5 43.5t-45.5 11.5h-25v21h256v-21h-25q-34 0 -45.5 -11.5t-11.5 -43.5v-329q0 -32 11.5 -43.5t45.5 -11.5h25v-21h-256v21h25q34 0 45.5 11.5
t11.5 43.5v329z" />
    <glyph glyph-name="i" unicode="&#x12d;" horiz-adv-x="304" 
d="M90 702q0 27 18.5 46t45.5 19t45.5 -19t18.5 -46t-18.5 -45.5t-45.5 -18.5t-45.5 18.5t-18.5 45.5zM106 405q0 32 -11.5 43.5t-45.5 11.5h-25v21h256v-21h-25q-34 0 -45.5 -11.5t-11.5 -43.5v-329q0 -32 11.5 -43.5t45.5 -11.5h25v-21h-256v21h25q34 0 45.5 11.5
t11.5 43.5v329z" />
    <glyph glyph-name="i" unicode="&#x12b;" horiz-adv-x="304" 
d="M90 702q0 27 18.5 46t45.5 19t45.5 -19t18.5 -46t-18.5 -45.5t-45.5 -18.5t-45.5 18.5t-18.5 45.5zM106 405q0 32 -11.5 43.5t-45.5 11.5h-25v21h256v-21h-25q-34 0 -45.5 -11.5t-11.5 -43.5v-329q0 -32 11.5 -43.5t45.5 -11.5h25v-21h-256v21h25q34 0 45.5 11.5
t11.5 43.5v329z" />
    <glyph glyph-name="i" unicode="&#x129;" horiz-adv-x="304" 
d="M90 702q0 27 18.5 46t45.5 19t45.5 -19t18.5 -46t-18.5 -45.5t-45.5 -18.5t-45.5 18.5t-18.5 45.5zM106 405q0 32 -11.5 43.5t-45.5 11.5h-25v21h256v-21h-25q-34 0 -45.5 -11.5t-11.5 -43.5v-329q0 -32 11.5 -43.5t45.5 -11.5h25v-21h-256v21h25q34 0 45.5 11.5
t11.5 43.5v329z" />
    <glyph glyph-name="i" unicode="&#xef;" horiz-adv-x="304" 
d="M90 702q0 27 18.5 46t45.5 19t45.5 -19t18.5 -46t-18.5 -45.5t-45.5 -18.5t-45.5 18.5t-18.5 45.5zM106 405q0 32 -11.5 43.5t-45.5 11.5h-25v21h256v-21h-25q-34 0 -45.5 -11.5t-11.5 -43.5v-329q0 -32 11.5 -43.5t45.5 -11.5h25v-21h-256v21h25q34 0 45.5 11.5
t11.5 43.5v329z" />
    <glyph glyph-name="i" unicode="&#xee;" horiz-adv-x="304" 
d="M90 702q0 27 18.5 46t45.5 19t45.5 -19t18.5 -46t-18.5 -45.5t-45.5 -18.5t-45.5 18.5t-18.5 45.5zM106 405q0 32 -11.5 43.5t-45.5 11.5h-25v21h256v-21h-25q-34 0 -45.5 -11.5t-11.5 -43.5v-329q0 -32 11.5 -43.5t45.5 -11.5h25v-21h-256v21h25q34 0 45.5 11.5
t11.5 43.5v329z" />
    <glyph glyph-name="i" unicode="&#xed;" horiz-adv-x="304" 
d="M90 702q0 27 18.5 46t45.5 19t45.5 -19t18.5 -46t-18.5 -45.5t-45.5 -18.5t-45.5 18.5t-18.5 45.5zM106 405q0 32 -11.5 43.5t-45.5 11.5h-25v21h256v-21h-25q-34 0 -45.5 -11.5t-11.5 -43.5v-329q0 -32 11.5 -43.5t45.5 -11.5h25v-21h-256v21h25q34 0 45.5 11.5
t11.5 43.5v329z" />
    <glyph glyph-name="i" unicode="&#xec;" horiz-adv-x="304" 
d="M90 702q0 27 18.5 46t45.5 19t45.5 -19t18.5 -46t-18.5 -45.5t-45.5 -18.5t-45.5 18.5t-18.5 45.5zM106 405q0 32 -11.5 43.5t-45.5 11.5h-25v21h256v-21h-25q-34 0 -45.5 -11.5t-11.5 -43.5v-329q0 -32 11.5 -43.5t45.5 -11.5h25v-21h-256v21h25q34 0 45.5 11.5
t11.5 43.5v329z" />
    <glyph glyph-name="j" unicode="j" horiz-adv-x="288" 
d="M190 85q0 -47 -5 -95.5t-23 -96t-52 -90.5t-91 -77l-7 10q30 32 47.5 75t26 90.5t10.5 95t2 88.5v320q0 32 -11.5 43.5t-45.5 11.5h-25v21h256v-21h-25q-34 0 -45.5 -11.5t-11.5 -43.5v-320zM82 702q0 27 18.5 46t45.5 19t45.5 -19t18.5 -46t-18.5 -45.5t-45.5 -18.5
t-45.5 18.5t-18.5 45.5z" />
    <glyph glyph-name="j" unicode="&#x237;" horiz-adv-x="288" 
d="M190 85q0 -47 -5 -95.5t-23 -96t-52 -90.5t-91 -77l-7 10q30 32 47.5 75t26 90.5t10.5 95t2 88.5v320q0 32 -11.5 43.5t-45.5 11.5h-25v21h256v-21h-25q-34 0 -45.5 -11.5t-11.5 -43.5v-320zM82 702q0 27 18.5 46t45.5 19t45.5 -19t18.5 -46t-18.5 -45.5t-45.5 -18.5
t-45.5 18.5t-18.5 45.5z" />
    <glyph glyph-name="j" unicode="&#x135;" horiz-adv-x="288" 
d="M190 85q0 -47 -5 -95.5t-23 -96t-52 -90.5t-91 -77l-7 10q30 32 47.5 75t26 90.5t10.5 95t2 88.5v320q0 32 -11.5 43.5t-45.5 11.5h-25v21h256v-21h-25q-34 0 -45.5 -11.5t-11.5 -43.5v-320zM82 702q0 27 18.5 46t45.5 19t45.5 -19t18.5 -46t-18.5 -45.5t-45.5 -18.5
t-45.5 18.5t-18.5 45.5z" />
    <glyph glyph-name="k" unicode="k" horiz-adv-x="582" 
d="M339 0v21h29q17 0 26.5 2t-1.5 14l-200 220l185 156q6 6 10.5 14t3 15.5t-11.5 12.5t-31 5h-22v21h213v-21q-38 0 -64.5 -8.5t-57.5 -33.5l-145 -123l205 -223q15 -16 27 -26t24 -15.5t26.5 -7.5t34.5 -2v-21h-251zM17 0v21h25q34 0 45.5 11.5t11.5 43.5v635
q0 32 -11.5 43.5t-45.5 11.5h-25v21h256v-21h-25q-34 0 -45.5 -11.5t-11.5 -43.5v-635q0 -32 11.5 -43.5t45.5 -11.5h25v-21h-256z" />
    <glyph glyph-name="k" unicode="&#x137;" horiz-adv-x="582" 
d="M339 0v21h29q17 0 26.5 2t-1.5 14l-200 220l185 156q6 6 10.5 14t3 15.5t-11.5 12.5t-31 5h-22v21h213v-21q-38 0 -64.5 -8.5t-57.5 -33.5l-145 -123l205 -223q15 -16 27 -26t24 -15.5t26.5 -7.5t34.5 -2v-21h-251zM17 0v21h25q34 0 45.5 11.5t11.5 43.5v635
q0 32 -11.5 43.5t-45.5 11.5h-25v21h256v-21h-25q-34 0 -45.5 -11.5t-11.5 -43.5v-635q0 -32 11.5 -43.5t45.5 -11.5h25v-21h-256z" />
    <glyph glyph-name="l" unicode="l" horiz-adv-x="290" 
d="M248 766q-34 0 -45.5 -11.5t-11.5 -43.5v-635q0 -32 11.5 -43.5t45.5 -11.5h25v-21h-256v21h25q34 0 45.5 11.5t11.5 43.5v405h-82v21h22q34 0 47 13t13 45v151q0 32 -11.5 43.5t-45.5 11.5h-25v21h256v-21h-25z" />
    <glyph glyph-name="l" unicode="&#x142;" horiz-adv-x="290" 
d="M248 766q-34 0 -45.5 -11.5t-11.5 -43.5v-635q0 -32 11.5 -43.5t45.5 -11.5h25v-21h-256v21h25q34 0 45.5 11.5t11.5 43.5v405h-82v21h22q34 0 47 13t13 45v151q0 32 -11.5 43.5t-45.5 11.5h-25v21h256v-21h-25z" />
    <glyph glyph-name="l" unicode="&#x140;" horiz-adv-x="290" 
d="M248 766q-34 0 -45.5 -11.5t-11.5 -43.5v-635q0 -32 11.5 -43.5t45.5 -11.5h25v-21h-256v21h25q34 0 45.5 11.5t11.5 43.5v405h-82v21h22q34 0 47 13t13 45v151q0 32 -11.5 43.5t-45.5 11.5h-25v21h256v-21h-25z" />
    <glyph glyph-name="l" unicode="&#x13e;" horiz-adv-x="290" 
d="M248 766q-34 0 -45.5 -11.5t-11.5 -43.5v-635q0 -32 11.5 -43.5t45.5 -11.5h25v-21h-256v21h25q34 0 45.5 11.5t11.5 43.5v405h-82v21h22q34 0 47 13t13 45v151q0 32 -11.5 43.5t-45.5 11.5h-25v21h256v-21h-25z" />
    <glyph glyph-name="l" unicode="&#x13c;" horiz-adv-x="290" 
d="M248 766q-34 0 -45.5 -11.5t-11.5 -43.5v-635q0 -32 11.5 -43.5t45.5 -11.5h25v-21h-256v21h25q34 0 45.5 11.5t11.5 43.5v405h-82v21h22q34 0 47 13t13 45v151q0 32 -11.5 43.5t-45.5 11.5h-25v21h256v-21h-25z" />
    <glyph glyph-name="l" unicode="&#x13a;" horiz-adv-x="290" 
d="M248 766q-34 0 -45.5 -11.5t-11.5 -43.5v-635q0 -32 11.5 -43.5t45.5 -11.5h25v-21h-256v21h25q34 0 45.5 11.5t11.5 43.5v405h-82v21h22q34 0 47 13t13 45v151q0 32 -11.5 43.5t-45.5 11.5h-25v21h256v-21h-25z" />
    <glyph glyph-name="m" unicode="m" horiz-adv-x="965" 
d="M534 76q0 -32 11.5 -43.5t45.5 -11.5h25v-21h-256v21h25q34 0 45.5 11.5t11.5 43.5v241q0 69 -32 104t-87 35q-46 0 -82 -30.5t-43 -84.5v-265q0 -32 11.5 -43.5t45.5 -11.5h25v-21h-256v21h25q34 0 45.5 11.5t11.5 43.5v329q0 32 -11.5 43.5t-45.5 11.5h-25v21h174v-103
q20 61 66 93.5t100 32.5q69 0 112 -36t54 -103q17 67 65 103t105 36q81 0 125.5 -48.5t44.5 -138.5v-241q0 -32 11.5 -43.5t45.5 -11.5h25v-21h-256v21h25q34 0 45.5 11.5t11.5 43.5v241q0 69 -32 104t-87 35q-24 0 -45.5 -8t-38.5 -24t-28 -38.5t-14 -50.5q1 -5 1 -9v-250z
" />
    <glyph glyph-name="n" unicode="n" horiz-adv-x="633" 
d="M538 76q0 -32 11.5 -43.5t45.5 -11.5h25v-21h-256v21h25q34 0 45.5 11.5t11.5 43.5v241q0 69 -32 104t-87 35q-48 0 -85 -30.5t-44 -84.5v-265q0 -32 11.5 -43.5t45.5 -11.5h25v-21h-256v21h25q34 0 45.5 11.5t11.5 43.5v329q0 32 -11.5 43.5t-45.5 11.5h-25v21h174v-103
q20 61 67.5 93.5t102.5 32.5q81 0 125.5 -48.5t44.5 -138.5v-241z" />
    <glyph glyph-name="n" unicode="&#x14b;" horiz-adv-x="633" 
d="M538 76q0 -32 11.5 -43.5t45.5 -11.5h25v-21h-256v21h25q34 0 45.5 11.5t11.5 43.5v241q0 69 -32 104t-87 35q-48 0 -85 -30.5t-44 -84.5v-265q0 -32 11.5 -43.5t45.5 -11.5h25v-21h-256v21h25q34 0 45.5 11.5t11.5 43.5v329q0 32 -11.5 43.5t-45.5 11.5h-25v21h174v-103
q20 61 67.5 93.5t102.5 32.5q81 0 125.5 -48.5t44.5 -138.5v-241z" />
    <glyph glyph-name="n" unicode="&#x148;" horiz-adv-x="633" 
d="M538 76q0 -32 11.5 -43.5t45.5 -11.5h25v-21h-256v21h25q34 0 45.5 11.5t11.5 43.5v241q0 69 -32 104t-87 35q-48 0 -85 -30.5t-44 -84.5v-265q0 -32 11.5 -43.5t45.5 -11.5h25v-21h-256v21h25q34 0 45.5 11.5t11.5 43.5v329q0 32 -11.5 43.5t-45.5 11.5h-25v21h174v-103
q20 61 67.5 93.5t102.5 32.5q81 0 125.5 -48.5t44.5 -138.5v-241z" />
    <glyph glyph-name="n" unicode="&#x146;" horiz-adv-x="633" 
d="M538 76q0 -32 11.5 -43.5t45.5 -11.5h25v-21h-256v21h25q34 0 45.5 11.5t11.5 43.5v241q0 69 -32 104t-87 35q-48 0 -85 -30.5t-44 -84.5v-265q0 -32 11.5 -43.5t45.5 -11.5h25v-21h-256v21h25q34 0 45.5 11.5t11.5 43.5v329q0 32 -11.5 43.5t-45.5 11.5h-25v21h174v-103
q20 61 67.5 93.5t102.5 32.5q81 0 125.5 -48.5t44.5 -138.5v-241z" />
    <glyph glyph-name="n" unicode="&#x144;" horiz-adv-x="633" 
d="M538 76q0 -32 11.5 -43.5t45.5 -11.5h25v-21h-256v21h25q34 0 45.5 11.5t11.5 43.5v241q0 69 -32 104t-87 35q-48 0 -85 -30.5t-44 -84.5v-265q0 -32 11.5 -43.5t45.5 -11.5h25v-21h-256v21h25q34 0 45.5 11.5t11.5 43.5v329q0 32 -11.5 43.5t-45.5 11.5h-25v21h174v-103
q20 61 67.5 93.5t102.5 32.5q81 0 125.5 -48.5t44.5 -138.5v-241z" />
    <glyph glyph-name="n" unicode="&#xf1;" horiz-adv-x="633" 
d="M538 76q0 -32 11.5 -43.5t45.5 -11.5h25v-21h-256v21h25q34 0 45.5 11.5t11.5 43.5v241q0 69 -32 104t-87 35q-48 0 -85 -30.5t-44 -84.5v-265q0 -32 11.5 -43.5t45.5 -11.5h25v-21h-256v21h25q34 0 45.5 11.5t11.5 43.5v329q0 32 -11.5 43.5t-45.5 11.5h-25v21h174v-103
q20 61 67.5 93.5t102.5 32.5q81 0 125.5 -48.5t44.5 -138.5v-241z" />
    <glyph glyph-name="o" unicode="o" horiz-adv-x="596" 
d="M36 245q0 55 21 102.5t56.5 82.5t83 54.5t101.5 19.5t101.5 -19.5t83 -54.5t56.5 -82.5t21 -102.5q0 -56 -21 -103t-56.5 -82t-83 -54.5t-101.5 -19.5t-101.5 19.5t-83 54t-56.5 82t-21 103.5zM298 7q47 0 78 24t49 59.5t25.5 77t7.5 77.5t-7.5 78t-25.5 77.5t-49 59
t-78 23.5t-77.5 -23t-49 -58.5t-26 -77.5t-7.5 -79q0 -36 7.5 -78t25.5 -77.5t49 -59t78 -23.5z" />
    <glyph glyph-name="o" unicode="&#x1ecd;" horiz-adv-x="596" 
d="M36 245q0 55 21 102.5t56.5 82.5t83 54.5t101.5 19.5t101.5 -19.5t83 -54.5t56.5 -82.5t21 -102.5q0 -56 -21 -103t-56.5 -82t-83 -54.5t-101.5 -19.5t-101.5 19.5t-83 54t-56.5 82t-21 103.5zM298 7q47 0 78 24t49 59.5t25.5 77t7.5 77.5t-7.5 78t-25.5 77.5t-49 59
t-78 23.5t-77.5 -23t-49 -58.5t-26 -77.5t-7.5 -79q0 -36 7.5 -78t25.5 -77.5t49 -59t78 -23.5z" />
    <glyph glyph-name="o" unicode="&#x153;" horiz-adv-x="596" 
d="M36 245q0 55 21 102.5t56.5 82.5t83 54.5t101.5 19.5t101.5 -19.5t83 -54.5t56.5 -82.5t21 -102.5q0 -56 -21 -103t-56.5 -82t-83 -54.5t-101.5 -19.5t-101.5 19.5t-83 54t-56.5 82t-21 103.5zM298 7q47 0 78 24t49 59.5t25.5 77t7.5 77.5t-7.5 78t-25.5 77.5t-49 59
t-78 23.5t-77.5 -23t-49 -58.5t-26 -77.5t-7.5 -79q0 -36 7.5 -78t25.5 -77.5t49 -59t78 -23.5z" />
    <glyph glyph-name="o" unicode="&#x151;" horiz-adv-x="596" 
d="M36 245q0 55 21 102.5t56.5 82.5t83 54.5t101.5 19.5t101.5 -19.5t83 -54.5t56.5 -82.5t21 -102.5q0 -56 -21 -103t-56.5 -82t-83 -54.5t-101.5 -19.5t-101.5 19.5t-83 54t-56.5 82t-21 103.5zM298 7q47 0 78 24t49 59.5t25.5 77t7.5 77.5t-7.5 78t-25.5 77.5t-49 59
t-78 23.5t-77.5 -23t-49 -58.5t-26 -77.5t-7.5 -79q0 -36 7.5 -78t25.5 -77.5t49 -59t78 -23.5z" />
    <glyph glyph-name="o" unicode="&#x14f;" horiz-adv-x="596" 
d="M36 245q0 55 21 102.5t56.5 82.5t83 54.5t101.5 19.5t101.5 -19.5t83 -54.5t56.5 -82.5t21 -102.5q0 -56 -21 -103t-56.5 -82t-83 -54.5t-101.5 -19.5t-101.5 19.5t-83 54t-56.5 82t-21 103.5zM298 7q47 0 78 24t49 59.5t25.5 77t7.5 77.5t-7.5 78t-25.5 77.5t-49 59
t-78 23.5t-77.5 -23t-49 -58.5t-26 -77.5t-7.5 -79q0 -36 7.5 -78t25.5 -77.5t49 -59t78 -23.5z" />
    <glyph glyph-name="o" unicode="&#x14d;" horiz-adv-x="596" 
d="M36 245q0 55 21 102.5t56.5 82.5t83 54.5t101.5 19.5t101.5 -19.5t83 -54.5t56.5 -82.5t21 -102.5q0 -56 -21 -103t-56.5 -82t-83 -54.5t-101.5 -19.5t-101.5 19.5t-83 54t-56.5 82t-21 103.5zM298 7q47 0 78 24t49 59.5t25.5 77t7.5 77.5t-7.5 78t-25.5 77.5t-49 59
t-78 23.5t-77.5 -23t-49 -58.5t-26 -77.5t-7.5 -79q0 -36 7.5 -78t25.5 -77.5t49 -59t78 -23.5z" />
    <glyph glyph-name="o" unicode="&#xf8;" horiz-adv-x="596" 
d="M36 245q0 55 21 102.5t56.5 82.5t83 54.5t101.5 19.5t101.5 -19.5t83 -54.5t56.5 -82.5t21 -102.5q0 -56 -21 -103t-56.5 -82t-83 -54.5t-101.5 -19.5t-101.5 19.5t-83 54t-56.5 82t-21 103.5zM298 7q47 0 78 24t49 59.5t25.5 77t7.5 77.5t-7.5 78t-25.5 77.5t-49 59
t-78 23.5t-77.5 -23t-49 -58.5t-26 -77.5t-7.5 -79q0 -36 7.5 -78t25.5 -77.5t49 -59t78 -23.5z" />
    <glyph glyph-name="o" unicode="&#xf6;" horiz-adv-x="596" 
d="M36 245q0 55 21 102.5t56.5 82.5t83 54.5t101.5 19.5t101.5 -19.5t83 -54.5t56.5 -82.5t21 -102.5q0 -56 -21 -103t-56.5 -82t-83 -54.5t-101.5 -19.5t-101.5 19.5t-83 54t-56.5 82t-21 103.5zM298 7q47 0 78 24t49 59.5t25.5 77t7.5 77.5t-7.5 78t-25.5 77.5t-49 59
t-78 23.5t-77.5 -23t-49 -58.5t-26 -77.5t-7.5 -79q0 -36 7.5 -78t25.5 -77.5t49 -59t78 -23.5z" />
    <glyph glyph-name="o" unicode="&#xf5;" horiz-adv-x="596" 
d="M36 245q0 55 21 102.5t56.5 82.5t83 54.5t101.5 19.5t101.5 -19.5t83 -54.5t56.5 -82.5t21 -102.5q0 -56 -21 -103t-56.5 -82t-83 -54.5t-101.5 -19.5t-101.5 19.5t-83 54t-56.5 82t-21 103.5zM298 7q47 0 78 24t49 59.5t25.5 77t7.5 77.5t-7.5 78t-25.5 77.5t-49 59
t-78 23.5t-77.5 -23t-49 -58.5t-26 -77.5t-7.5 -79q0 -36 7.5 -78t25.5 -77.5t49 -59t78 -23.5z" />
    <glyph glyph-name="o" unicode="&#xf4;" horiz-adv-x="596" 
d="M36 245q0 55 21 102.5t56.5 82.5t83 54.5t101.5 19.5t101.5 -19.5t83 -54.5t56.5 -82.5t21 -102.5q0 -56 -21 -103t-56.5 -82t-83 -54.5t-101.5 -19.5t-101.5 19.5t-83 54t-56.5 82t-21 103.5zM298 7q47 0 78 24t49 59.5t25.5 77t7.5 77.5t-7.5 78t-25.5 77.5t-49 59
t-78 23.5t-77.5 -23t-49 -58.5t-26 -77.5t-7.5 -79q0 -36 7.5 -78t25.5 -77.5t49 -59t78 -23.5z" />
    <glyph glyph-name="o" unicode="&#xf3;" horiz-adv-x="596" 
d="M36 245q0 55 21 102.5t56.5 82.5t83 54.5t101.5 19.5t101.5 -19.5t83 -54.5t56.5 -82.5t21 -102.5q0 -56 -21 -103t-56.5 -82t-83 -54.5t-101.5 -19.5t-101.5 19.5t-83 54t-56.5 82t-21 103.5zM298 7q47 0 78 24t49 59.5t25.5 77t7.5 77.5t-7.5 78t-25.5 77.5t-49 59
t-78 23.5t-77.5 -23t-49 -58.5t-26 -77.5t-7.5 -79q0 -36 7.5 -78t25.5 -77.5t49 -59t78 -23.5z" />
    <glyph glyph-name="o" unicode="&#xf2;" horiz-adv-x="596" 
d="M36 245q0 55 21 102.5t56.5 82.5t83 54.5t101.5 19.5t101.5 -19.5t83 -54.5t56.5 -82.5t21 -102.5q0 -56 -21 -103t-56.5 -82t-83 -54.5t-101.5 -19.5t-101.5 19.5t-83 54t-56.5 82t-21 103.5zM298 7q47 0 78 24t49 59.5t25.5 77t7.5 77.5t-7.5 78t-25.5 77.5t-49 59
t-78 23.5t-77.5 -23t-49 -58.5t-26 -77.5t-7.5 -79q0 -36 7.5 -78t25.5 -77.5t49 -59t78 -23.5z" />
    <glyph glyph-name="p" unicode="p" horiz-adv-x="626" 
d="M190 -177q0 -39 16.5 -51.5t60.5 -12.5h25v-21h-276v21h25q34 0 45.5 11.5t11.5 43.5v591q0 32 -11.5 43.5t-45.5 11.5h-25v21h174v-35q58 58 142 58q56 0 103 -19t81.5 -53.5t54 -81.5t19.5 -103t-20 -103.5t-55 -82.5t-82.5 -55t-103.5 -20q-88 0 -139 55v-218z
M295 471q-36 0 -59 -8t-46 -28v-383q24 -19 46.5 -26t54.5 -7q44 0 80 16.5t62 46.5t40.5 72t14.5 93q0 49 -14 90.5t-39.5 71t-61 46t-78.5 16.5z" />
    <glyph glyph-name="p" unicode="&#xfe;" horiz-adv-x="626" 
d="M190 -177q0 -39 16.5 -51.5t60.5 -12.5h25v-21h-276v21h25q34 0 45.5 11.5t11.5 43.5v591q0 32 -11.5 43.5t-45.5 11.5h-25v21h174v-35q58 58 142 58q56 0 103 -19t81.5 -53.5t54 -81.5t19.5 -103t-20 -103.5t-55 -82.5t-82.5 -55t-103.5 -20q-88 0 -139 55v-218z
M295 471q-36 0 -59 -8t-46 -28v-383q24 -19 46.5 -26t54.5 -7q44 0 80 16.5t62 46.5t40.5 72t14.5 93q0 49 -14 90.5t-39.5 71t-61 46t-78.5 16.5z" />
    <glyph glyph-name="q" unicode="q" horiz-adv-x="623" 
d="M610 460h-25q-34 0 -45.5 -11.5t-11.5 -43.5v-591q0 -32 11.5 -43.5t45.5 -11.5h25v-21h-276v21h25q44 0 60.5 12.5t16.5 51.5v220q-60 -57 -147 -57q-55 0 -101 19.5t-79.5 54t-52.5 82t-19 104.5q0 56 19.5 103t53.5 81.5t81 54t102 19.5q85 0 143 -61v38h174v-21z
M327 19q34 0 59.5 7.5t49.5 24.5v381q-22 17 -50 27t-59 10q-43 0 -77.5 -16t-59 -45t-38 -70t-13.5 -92q0 -52 13 -94t37.5 -71.5t59.5 -45.5t78 -16z" />
    <glyph glyph-name="r" unicode="r" horiz-adv-x="441" 
d="M198 357q17 68 56 107t95 39q46 0 67 -17.5t21 -37.5q0 -14 -9 -26t-26 -12q-15 0 -23.5 6.5t-16 15t-18.5 15t-31 6.5t-39.5 -10.5t-35 -28t-26.5 -41t-14 -49.5v-239q0 -39 13 -51.5t54 -12.5h35v-21h-276v21h25q34 0 45.5 11.5t11.5 43.5v329q0 32 -11.5 43.5
t-45.5 11.5h-25v21h174v-124z" />
    <glyph glyph-name="r" unicode="&#x159;" horiz-adv-x="441" 
d="M198 357q17 68 56 107t95 39q46 0 67 -17.5t21 -37.5q0 -14 -9 -26t-26 -12q-15 0 -23.5 6.5t-16 15t-18.5 15t-31 6.5t-39.5 -10.5t-35 -28t-26.5 -41t-14 -49.5v-239q0 -39 13 -51.5t54 -12.5h35v-21h-276v21h25q34 0 45.5 11.5t11.5 43.5v329q0 32 -11.5 43.5
t-45.5 11.5h-25v21h174v-124z" />
    <glyph glyph-name="r" unicode="&#x157;" horiz-adv-x="441" 
d="M198 357q17 68 56 107t95 39q46 0 67 -17.5t21 -37.5q0 -14 -9 -26t-26 -12q-15 0 -23.5 6.5t-16 15t-18.5 15t-31 6.5t-39.5 -10.5t-35 -28t-26.5 -41t-14 -49.5v-239q0 -39 13 -51.5t54 -12.5h35v-21h-276v21h25q34 0 45.5 11.5t11.5 43.5v329q0 32 -11.5 43.5
t-45.5 11.5h-25v21h174v-124z" />
    <glyph glyph-name="r" unicode="&#x155;" horiz-adv-x="441" 
d="M198 357q17 68 56 107t95 39q46 0 67 -17.5t21 -37.5q0 -14 -9 -26t-26 -12q-15 0 -23.5 6.5t-16 15t-18.5 15t-31 6.5t-39.5 -10.5t-35 -28t-26.5 -41t-14 -49.5v-239q0 -39 13 -51.5t54 -12.5h35v-21h-276v21h25q34 0 45.5 11.5t11.5 43.5v329q0 32 -11.5 43.5
t-45.5 11.5h-25v21h174v-124z" />
    <glyph glyph-name="s" unicode="s" horiz-adv-x="439" 
d="M69 103q13 0 21.5 -5.5t15 -13.5t11.5 -17t11 -17q16 -22 35.5 -31t48.5 -9q47 0 78.5 22.5t31.5 69.5q0 45 -28 69.5t-69 35.5l-49 13q-37 10 -61.5 24.5t-38.5 32.5t-20 40t-6 47q0 33 13 58.5t36.5 43.5t54.5 27.5t67 9.5q41 0 71.5 -8.5t50 -20.5t29 -26t9.5 -25
q0 -15 -10 -23.5t-23 -8.5q-11 0 -19 4t-13.5 11t-10.5 15l-10 16q-15 23 -32 32.5t-46 9.5q-18 0 -35 -5t-30.5 -15t-22 -25t-8.5 -35q0 -39 24 -61.5t73 -36.5l42 -12q32 -9 58.5 -21t45 -30t28.5 -42.5t10 -57.5q0 -38 -16 -66t-42 -47.5t-59.5 -29t-68.5 -9.5
q-44 0 -78 8t-57 20t-35 27t-12 29q0 17 11.5 25t23.5 8z" />
    <glyph glyph-name="s" unicode="&#x219;" horiz-adv-x="439" 
d="M69 103q13 0 21.5 -5.5t15 -13.5t11.5 -17t11 -17q16 -22 35.5 -31t48.5 -9q47 0 78.5 22.5t31.5 69.5q0 45 -28 69.5t-69 35.5l-49 13q-37 10 -61.5 24.5t-38.5 32.5t-20 40t-6 47q0 33 13 58.5t36.5 43.5t54.5 27.5t67 9.5q41 0 71.5 -8.5t50 -20.5t29 -26t9.5 -25
q0 -15 -10 -23.5t-23 -8.5q-11 0 -19 4t-13.5 11t-10.5 15l-10 16q-15 23 -32 32.5t-46 9.5q-18 0 -35 -5t-30.5 -15t-22 -25t-8.5 -35q0 -39 24 -61.5t73 -36.5l42 -12q32 -9 58.5 -21t45 -30t28.5 -42.5t10 -57.5q0 -38 -16 -66t-42 -47.5t-59.5 -29t-68.5 -9.5
q-44 0 -78 8t-57 20t-35 27t-12 29q0 17 11.5 25t23.5 8z" />
    <glyph glyph-name="s" unicode="&#x161;" horiz-adv-x="439" 
d="M69 103q13 0 21.5 -5.5t15 -13.5t11.5 -17t11 -17q16 -22 35.5 -31t48.5 -9q47 0 78.5 22.5t31.5 69.5q0 45 -28 69.5t-69 35.5l-49 13q-37 10 -61.5 24.5t-38.5 32.5t-20 40t-6 47q0 33 13 58.5t36.5 43.5t54.5 27.5t67 9.5q41 0 71.5 -8.5t50 -20.5t29 -26t9.5 -25
q0 -15 -10 -23.5t-23 -8.5q-11 0 -19 4t-13.5 11t-10.5 15l-10 16q-15 23 -32 32.5t-46 9.5q-18 0 -35 -5t-30.5 -15t-22 -25t-8.5 -35q0 -39 24 -61.5t73 -36.5l42 -12q32 -9 58.5 -21t45 -30t28.5 -42.5t10 -57.5q0 -38 -16 -66t-42 -47.5t-59.5 -29t-68.5 -9.5
q-44 0 -78 8t-57 20t-35 27t-12 29q0 17 11.5 25t23.5 8z" />
    <glyph glyph-name="s" unicode="&#x15f;" horiz-adv-x="439" 
d="M69 103q13 0 21.5 -5.5t15 -13.5t11.5 -17t11 -17q16 -22 35.5 -31t48.5 -9q47 0 78.5 22.5t31.5 69.5q0 45 -28 69.5t-69 35.5l-49 13q-37 10 -61.5 24.5t-38.5 32.5t-20 40t-6 47q0 33 13 58.5t36.5 43.5t54.5 27.5t67 9.5q41 0 71.5 -8.5t50 -20.5t29 -26t9.5 -25
q0 -15 -10 -23.5t-23 -8.5q-11 0 -19 4t-13.5 11t-10.5 15l-10 16q-15 23 -32 32.5t-46 9.5q-18 0 -35 -5t-30.5 -15t-22 -25t-8.5 -35q0 -39 24 -61.5t73 -36.5l42 -12q32 -9 58.5 -21t45 -30t28.5 -42.5t10 -57.5q0 -38 -16 -66t-42 -47.5t-59.5 -29t-68.5 -9.5
q-44 0 -78 8t-57 20t-35 27t-12 29q0 17 11.5 25t23.5 8z" />
    <glyph glyph-name="s" unicode="&#x15d;" horiz-adv-x="439" 
d="M69 103q13 0 21.5 -5.5t15 -13.5t11.5 -17t11 -17q16 -22 35.5 -31t48.5 -9q47 0 78.5 22.5t31.5 69.5q0 45 -28 69.5t-69 35.5l-49 13q-37 10 -61.5 24.5t-38.5 32.5t-20 40t-6 47q0 33 13 58.5t36.5 43.5t54.5 27.5t67 9.5q41 0 71.5 -8.5t50 -20.5t29 -26t9.5 -25
q0 -15 -10 -23.5t-23 -8.5q-11 0 -19 4t-13.5 11t-10.5 15l-10 16q-15 23 -32 32.5t-46 9.5q-18 0 -35 -5t-30.5 -15t-22 -25t-8.5 -35q0 -39 24 -61.5t73 -36.5l42 -12q32 -9 58.5 -21t45 -30t28.5 -42.5t10 -57.5q0 -38 -16 -66t-42 -47.5t-59.5 -29t-68.5 -9.5
q-44 0 -78 8t-57 20t-35 27t-12 29q0 17 11.5 25t23.5 8z" />
    <glyph glyph-name="s" unicode="&#x15b;" horiz-adv-x="439" 
d="M69 103q13 0 21.5 -5.5t15 -13.5t11.5 -17t11 -17q16 -22 35.5 -31t48.5 -9q47 0 78.5 22.5t31.5 69.5q0 45 -28 69.5t-69 35.5l-49 13q-37 10 -61.5 24.5t-38.5 32.5t-20 40t-6 47q0 33 13 58.5t36.5 43.5t54.5 27.5t67 9.5q41 0 71.5 -8.5t50 -20.5t29 -26t9.5 -25
q0 -15 -10 -23.5t-23 -8.5q-11 0 -19 4t-13.5 11t-10.5 15l-10 16q-15 23 -32 32.5t-46 9.5q-18 0 -35 -5t-30.5 -15t-22 -25t-8.5 -35q0 -39 24 -61.5t73 -36.5l42 -12q32 -9 58.5 -21t45 -30t28.5 -42.5t10 -57.5q0 -38 -16 -66t-42 -47.5t-59.5 -29t-68.5 -9.5
q-44 0 -78 8t-57 20t-35 27t-12 29q0 17 11.5 25t23.5 8z" />
    <glyph glyph-name="s" unicode="&#xdf;" horiz-adv-x="439" 
d="M69 103q13 0 21.5 -5.5t15 -13.5t11.5 -17t11 -17q16 -22 35.5 -31t48.5 -9q47 0 78.5 22.5t31.5 69.5q0 45 -28 69.5t-69 35.5l-49 13q-37 10 -61.5 24.5t-38.5 32.5t-20 40t-6 47q0 33 13 58.5t36.5 43.5t54.5 27.5t67 9.5q41 0 71.5 -8.5t50 -20.5t29 -26t9.5 -25
q0 -15 -10 -23.5t-23 -8.5q-11 0 -19 4t-13.5 11t-10.5 15l-10 16q-15 23 -32 32.5t-46 9.5q-18 0 -35 -5t-30.5 -15t-22 -25t-8.5 -35q0 -39 24 -61.5t73 -36.5l42 -12q32 -9 58.5 -21t45 -30t28.5 -42.5t10 -57.5q0 -38 -16 -66t-42 -47.5t-59.5 -29t-68.5 -9.5
q-44 0 -78 8t-57 20t-35 27t-12 29q0 17 11.5 25t23.5 8z" />
    <glyph glyph-name="t" unicode="t" horiz-adv-x="344" 
d="M91 481l76 152h15v-152h156v-26h-156v-346q0 -47 19.5 -64t52.5 -17q22 0 45 5.5t39 16.5l8 -12q-41 -33 -75 -42.5t-70 -9.5q-49 0 -79.5 25.5t-30.5 82.5v361h-69v26h69z" />
    <glyph glyph-name="t" unicode="&#x21b;" horiz-adv-x="344" 
d="M91 481l76 152h15v-152h156v-26h-156v-346q0 -47 19.5 -64t52.5 -17q22 0 45 5.5t39 16.5l8 -12q-41 -33 -75 -42.5t-70 -9.5q-49 0 -79.5 25.5t-30.5 82.5v361h-69v26h69z" />
    <glyph glyph-name="t" unicode="&#x167;" horiz-adv-x="344" 
d="M91 481l76 152h15v-152h156v-26h-156v-346q0 -47 19.5 -64t52.5 -17q22 0 45 5.5t39 16.5l8 -12q-41 -33 -75 -42.5t-70 -9.5q-49 0 -79.5 25.5t-30.5 82.5v361h-69v26h69z" />
    <glyph glyph-name="t" unicode="&#x165;" horiz-adv-x="344" 
d="M91 481l76 152h15v-152h156v-26h-156v-346q0 -47 19.5 -64t52.5 -17q22 0 45 5.5t39 16.5l8 -12q-41 -33 -75 -42.5t-70 -9.5q-49 0 -79.5 25.5t-30.5 82.5v361h-69v26h69z" />
    <glyph glyph-name="t" unicode="&#x163;" horiz-adv-x="344" 
d="M91 481l76 152h15v-152h156v-26h-156v-346q0 -47 19.5 -64t52.5 -17q22 0 45 5.5t39 16.5l8 -12q-41 -33 -75 -42.5t-70 -9.5q-49 0 -79.5 25.5t-30.5 82.5v361h-69v26h69z" />
    <glyph glyph-name="u" unicode="u" horiz-adv-x="619" 
d="M520 76q0 -32 11.5 -43.5t45.5 -11.5h25v-21h-174v107q-23 -57 -66.5 -90t-98.5 -33q-37 0 -68 12t-53 34.5t-34.5 54.5t-12.5 73v247q0 32 -11.5 43.5t-45.5 11.5h-25v21h174v-324q0 -56 29.5 -90.5t86.5 -34.5q41 0 76 29t49 74v270q0 32 -11.5 43.5t-45.5 11.5h-25v21
h174v-405z" />
    <glyph glyph-name="u" unicode="&#x1ee5;" horiz-adv-x="619" 
d="M520 76q0 -32 11.5 -43.5t45.5 -11.5h25v-21h-174v107q-23 -57 -66.5 -90t-98.5 -33q-37 0 -68 12t-53 34.5t-34.5 54.5t-12.5 73v247q0 32 -11.5 43.5t-45.5 11.5h-25v21h174v-324q0 -56 29.5 -90.5t86.5 -34.5q41 0 76 29t49 74v270q0 32 -11.5 43.5t-45.5 11.5h-25v21
h174v-405z" />
    <glyph glyph-name="u" unicode="&#x173;" horiz-adv-x="619" 
d="M520 76q0 -32 11.5 -43.5t45.5 -11.5h25v-21h-174v107q-23 -57 -66.5 -90t-98.5 -33q-37 0 -68 12t-53 34.5t-34.5 54.5t-12.5 73v247q0 32 -11.5 43.5t-45.5 11.5h-25v21h174v-324q0 -56 29.5 -90.5t86.5 -34.5q41 0 76 29t49 74v270q0 32 -11.5 43.5t-45.5 11.5h-25v21
h174v-405z" />
    <glyph glyph-name="u" unicode="&#x171;" horiz-adv-x="619" 
d="M520 76q0 -32 11.5 -43.5t45.5 -11.5h25v-21h-174v107q-23 -57 -66.5 -90t-98.5 -33q-37 0 -68 12t-53 34.5t-34.5 54.5t-12.5 73v247q0 32 -11.5 43.5t-45.5 11.5h-25v21h174v-324q0 -56 29.5 -90.5t86.5 -34.5q41 0 76 29t49 74v270q0 32 -11.5 43.5t-45.5 11.5h-25v21
h174v-405z" />
    <glyph glyph-name="u" unicode="&#x16f;" horiz-adv-x="619" 
d="M520 76q0 -32 11.5 -43.5t45.5 -11.5h25v-21h-174v107q-23 -57 -66.5 -90t-98.5 -33q-37 0 -68 12t-53 34.5t-34.5 54.5t-12.5 73v247q0 32 -11.5 43.5t-45.5 11.5h-25v21h174v-324q0 -56 29.5 -90.5t86.5 -34.5q41 0 76 29t49 74v270q0 32 -11.5 43.5t-45.5 11.5h-25v21
h174v-405z" />
    <glyph glyph-name="u" unicode="&#x16d;" horiz-adv-x="619" 
d="M520 76q0 -32 11.5 -43.5t45.5 -11.5h25v-21h-174v107q-23 -57 -66.5 -90t-98.5 -33q-37 0 -68 12t-53 34.5t-34.5 54.5t-12.5 73v247q0 32 -11.5 43.5t-45.5 11.5h-25v21h174v-324q0 -56 29.5 -90.5t86.5 -34.5q41 0 76 29t49 74v270q0 32 -11.5 43.5t-45.5 11.5h-25v21
h174v-405z" />
    <glyph glyph-name="u" unicode="&#x16b;" horiz-adv-x="619" 
d="M520 76q0 -32 11.5 -43.5t45.5 -11.5h25v-21h-174v107q-23 -57 -66.5 -90t-98.5 -33q-37 0 -68 12t-53 34.5t-34.5 54.5t-12.5 73v247q0 32 -11.5 43.5t-45.5 11.5h-25v21h174v-324q0 -56 29.5 -90.5t86.5 -34.5q41 0 76 29t49 74v270q0 32 -11.5 43.5t-45.5 11.5h-25v21
h174v-405z" />
    <glyph glyph-name="u" unicode="&#x169;" horiz-adv-x="619" 
d="M520 76q0 -32 11.5 -43.5t45.5 -11.5h25v-21h-174v107q-23 -57 -66.5 -90t-98.5 -33q-37 0 -68 12t-53 34.5t-34.5 54.5t-12.5 73v247q0 32 -11.5 43.5t-45.5 11.5h-25v21h174v-324q0 -56 29.5 -90.5t86.5 -34.5q41 0 76 29t49 74v270q0 32 -11.5 43.5t-45.5 11.5h-25v21
h174v-405z" />
    <glyph glyph-name="u" unicode="&#xfc;" horiz-adv-x="619" 
d="M520 76q0 -32 11.5 -43.5t45.5 -11.5h25v-21h-174v107q-23 -57 -66.5 -90t-98.5 -33q-37 0 -68 12t-53 34.5t-34.5 54.5t-12.5 73v247q0 32 -11.5 43.5t-45.5 11.5h-25v21h174v-324q0 -56 29.5 -90.5t86.5 -34.5q41 0 76 29t49 74v270q0 32 -11.5 43.5t-45.5 11.5h-25v21
h174v-405z" />
    <glyph glyph-name="u" unicode="&#xfb;" horiz-adv-x="619" 
d="M520 76q0 -32 11.5 -43.5t45.5 -11.5h25v-21h-174v107q-23 -57 -66.5 -90t-98.5 -33q-37 0 -68 12t-53 34.5t-34.5 54.5t-12.5 73v247q0 32 -11.5 43.5t-45.5 11.5h-25v21h174v-324q0 -56 29.5 -90.5t86.5 -34.5q41 0 76 29t49 74v270q0 32 -11.5 43.5t-45.5 11.5h-25v21
h174v-405z" />
    <glyph glyph-name="u" unicode="&#xfa;" horiz-adv-x="619" 
d="M520 76q0 -32 11.5 -43.5t45.5 -11.5h25v-21h-174v107q-23 -57 -66.5 -90t-98.5 -33q-37 0 -68 12t-53 34.5t-34.5 54.5t-12.5 73v247q0 32 -11.5 43.5t-45.5 11.5h-25v21h174v-324q0 -56 29.5 -90.5t86.5 -34.5q41 0 76 29t49 74v270q0 32 -11.5 43.5t-45.5 11.5h-25v21
h174v-405z" />
    <glyph glyph-name="u" unicode="&#xf9;" horiz-adv-x="619" 
d="M520 76q0 -32 11.5 -43.5t45.5 -11.5h25v-21h-174v107q-23 -57 -66.5 -90t-98.5 -33q-37 0 -68 12t-53 34.5t-34.5 54.5t-12.5 73v247q0 32 -11.5 43.5t-45.5 11.5h-25v21h174v-324q0 -56 29.5 -90.5t86.5 -34.5q41 0 76 29t49 74v270q0 32 -11.5 43.5t-45.5 11.5h-25v21
h174v-405z" />
    <glyph glyph-name="v" unicode="v" horiz-adv-x="565" 
d="M425 367q16 38 9.5 65.5t-39.5 27.5h-18v21h190v-21q-43 0 -66.5 -23t-36.5 -54l-171 -403h-25l-177 428q-6 14 -12 24t-15 16t-22.5 9t-34.5 3v21h236v-21q-38 0 -50 -7t-5 -27l122 -333z" />
    <glyph glyph-name="w" unicode="w" horiz-adv-x="846" 
d="M707 367q15 38 8 65.5t-40 27.5h-18v21h190v-21q-43 0 -65.5 -23t-35.5 -54l-162 -403h-25l-139 355l-141 -355h-25l-167 428q-6 14 -12 24t-15 16t-22.5 9t-34.5 3v21h235v-21q-38 0 -51.5 -8t-6.5 -28l116 -331l109 281l-13 34q-6 14 -12 24t-15 16t-22.5 9t-34.5 3v21
h235v-21h-7q-29 0 -43.5 -7t-7.5 -27l116 -333z" />
    <glyph glyph-name="w" unicode="&#x1e85;" horiz-adv-x="846" 
d="M707 367q15 38 8 65.5t-40 27.5h-18v21h190v-21q-43 0 -65.5 -23t-35.5 -54l-162 -403h-25l-139 355l-141 -355h-25l-167 428q-6 14 -12 24t-15 16t-22.5 9t-34.5 3v21h235v-21q-38 0 -51.5 -8t-6.5 -28l116 -331l109 281l-13 34q-6 14 -12 24t-15 16t-22.5 9t-34.5 3v21
h235v-21h-7q-29 0 -43.5 -7t-7.5 -27l116 -333z" />
    <glyph glyph-name="w" unicode="&#x1e83;" horiz-adv-x="846" 
d="M707 367q15 38 8 65.5t-40 27.5h-18v21h190v-21q-43 0 -65.5 -23t-35.5 -54l-162 -403h-25l-139 355l-141 -355h-25l-167 428q-6 14 -12 24t-15 16t-22.5 9t-34.5 3v21h235v-21q-38 0 -51.5 -8t-6.5 -28l116 -331l109 281l-13 34q-6 14 -12 24t-15 16t-22.5 9t-34.5 3v21
h235v-21h-7q-29 0 -43.5 -7t-7.5 -27l116 -333z" />
    <glyph glyph-name="w" unicode="&#x1e81;" horiz-adv-x="846" 
d="M707 367q15 38 8 65.5t-40 27.5h-18v21h190v-21q-43 0 -65.5 -23t-35.5 -54l-162 -403h-25l-139 355l-141 -355h-25l-167 428q-6 14 -12 24t-15 16t-22.5 9t-34.5 3v21h235v-21q-38 0 -51.5 -8t-6.5 -28l116 -331l109 281l-13 34q-6 14 -12 24t-15 16t-22.5 9t-34.5 3v21
h235v-21h-7q-29 0 -43.5 -7t-7.5 -27l116 -333z" />
    <glyph glyph-name="w" unicode="&#x175;" horiz-adv-x="846" 
d="M707 367q15 38 8 65.5t-40 27.5h-18v21h190v-21q-43 0 -65.5 -23t-35.5 -54l-162 -403h-25l-139 355l-141 -355h-25l-167 428q-6 14 -12 24t-15 16t-22.5 9t-34.5 3v21h235v-21q-38 0 -51.5 -8t-6.5 -28l116 -331l109 281l-13 34q-6 14 -12 24t-15 16t-22.5 9t-34.5 3v21
h235v-21h-7q-29 0 -43.5 -7t-7.5 -27l116 -333z" />
    <glyph glyph-name="x" unicode="x" horiz-adv-x="561" 
d="M260 204l-109 -130q-9 -11 -12.5 -20.5t2 -17t20.5 -11.5t43 -4v-21h-201v21q36 0 59 10t50 42l130 155l-130 180q-9 12 -17 21.5t-18.5 16.5t-24.5 10.5t-35 3.5v21h247v-21q-38 0 -52.5 -8.5t-2.5 -25.5l92 -128l92 109q20 23 6.5 38t-59.5 15v21h201v-21
q-43 0 -65.5 -13t-43.5 -39l-113 -134l146 -200q10 -13 18 -23t18.5 -16.5t24.5 -10t35 -3.5v-21h-247v21q38 0 52.5 8.5t2.5 25.5z" />
    <glyph glyph-name="y" unicode="y" horiz-adv-x="566" 
d="M377 481h190v-21q-44 0 -67 -23t-36 -54l-225 -534q-18 -42 -35.5 -66t-34.5 -36t-33.5 -15t-31.5 -3q-16 0 -32.5 4t-30 11t-22 17.5t-8.5 23.5q0 15 10 26t27 11q10 0 16 -3t12 -9t10.5 -14.5t9.5 -15.5t11.5 -12t16.5 -5t20 3t20.5 13t22 29.5t25.5 52.5l53 127
l-174 420q-6 14 -12 24t-15 16t-22.5 9t-34.5 3v21h236v-21q-38 0 -50.5 -7t-4.5 -27l122 -334l115 275q7 18 10 34.5t0 29.5t-12.5 21t-27.5 8h-18v21z" />
    <glyph glyph-name="y" unicode="&#x1ef3;" horiz-adv-x="566" 
d="M377 481h190v-21q-44 0 -67 -23t-36 -54l-225 -534q-18 -42 -35.5 -66t-34.5 -36t-33.5 -15t-31.5 -3q-16 0 -32.5 4t-30 11t-22 17.5t-8.5 23.5q0 15 10 26t27 11q10 0 16 -3t12 -9t10.5 -14.5t9.5 -15.5t11.5 -12t16.5 -5t20 3t20.5 13t22 29.5t25.5 52.5l53 127
l-174 420q-6 14 -12 24t-15 16t-22.5 9t-34.5 3v21h236v-21q-38 0 -50.5 -7t-4.5 -27l122 -334l115 275q7 18 10 34.5t0 29.5t-12.5 21t-27.5 8h-18v21z" />
    <glyph glyph-name="y" unicode="&#x233;" horiz-adv-x="566" 
d="M377 481h190v-21q-44 0 -67 -23t-36 -54l-225 -534q-18 -42 -35.5 -66t-34.5 -36t-33.5 -15t-31.5 -3q-16 0 -32.5 4t-30 11t-22 17.5t-8.5 23.5q0 15 10 26t27 11q10 0 16 -3t12 -9t10.5 -14.5t9.5 -15.5t11.5 -12t16.5 -5t20 3t20.5 13t22 29.5t25.5 52.5l53 127
l-174 420q-6 14 -12 24t-15 16t-22.5 9t-34.5 3v21h236v-21q-38 0 -50.5 -7t-4.5 -27l122 -334l115 275q7 18 10 34.5t0 29.5t-12.5 21t-27.5 8h-18v21z" />
    <glyph glyph-name="y" unicode="&#x177;" horiz-adv-x="566" 
d="M377 481h190v-21q-44 0 -67 -23t-36 -54l-225 -534q-18 -42 -35.5 -66t-34.5 -36t-33.5 -15t-31.5 -3q-16 0 -32.5 4t-30 11t-22 17.5t-8.5 23.5q0 15 10 26t27 11q10 0 16 -3t12 -9t10.5 -14.5t9.5 -15.5t11.5 -12t16.5 -5t20 3t20.5 13t22 29.5t25.5 52.5l53 127
l-174 420q-6 14 -12 24t-15 16t-22.5 9t-34.5 3v21h236v-21q-38 0 -50.5 -7t-4.5 -27l122 -334l115 275q7 18 10 34.5t0 29.5t-12.5 21t-27.5 8h-18v21z" />
    <glyph glyph-name="y" unicode="&#xff;" horiz-adv-x="566" 
d="M377 481h190v-21q-44 0 -67 -23t-36 -54l-225 -534q-18 -42 -35.5 -66t-34.5 -36t-33.5 -15t-31.5 -3q-16 0 -32.5 4t-30 11t-22 17.5t-8.5 23.5q0 15 10 26t27 11q10 0 16 -3t12 -9t10.5 -14.5t9.5 -15.5t11.5 -12t16.5 -5t20 3t20.5 13t22 29.5t25.5 52.5l53 127
l-174 420q-6 14 -12 24t-15 16t-22.5 9t-34.5 3v21h236v-21q-38 0 -50.5 -7t-4.5 -27l122 -334l115 275q7 18 10 34.5t0 29.5t-12.5 21t-27.5 8h-18v21z" />
    <glyph glyph-name="y" unicode="&#xfd;" horiz-adv-x="566" 
d="M377 481h190v-21q-44 0 -67 -23t-36 -54l-225 -534q-18 -42 -35.5 -66t-34.5 -36t-33.5 -15t-31.5 -3q-16 0 -32.5 4t-30 11t-22 17.5t-8.5 23.5q0 15 10 26t27 11q10 0 16 -3t12 -9t10.5 -14.5t9.5 -15.5t11.5 -12t16.5 -5t20 3t20.5 13t22 29.5t25.5 52.5l53 127
l-174 420q-6 14 -12 24t-15 16t-22.5 9t-34.5 3v21h236v-21q-38 0 -50.5 -7t-4.5 -27l122 -334l115 275q7 18 10 34.5t0 29.5t-12.5 21t-27.5 8h-18v21z" />
    <glyph glyph-name="z" unicode="z" horiz-adv-x="481" 
d="M450 481l-319 -462h92q62 0 100 7.5t60 24t32 43t16 65.5h12v-159h-428l317 459h-88q-45 0 -74.5 -4.5t-48.5 -17.5t-29.5 -36.5t-17.5 -60.5h-13v141h389z" />
    <glyph glyph-name="z" unicode="&#x17e;" horiz-adv-x="481" 
d="M450 481l-319 -462h92q62 0 100 7.5t60 24t32 43t16 65.5h12v-159h-428l317 459h-88q-45 0 -74.5 -4.5t-48.5 -17.5t-29.5 -36.5t-17.5 -60.5h-13v141h389z" />
    <glyph glyph-name="z" unicode="&#x17c;" horiz-adv-x="481" 
d="M450 481l-319 -462h92q62 0 100 7.5t60 24t32 43t16 65.5h12v-159h-428l317 459h-88q-45 0 -74.5 -4.5t-48.5 -17.5t-29.5 -36.5t-17.5 -60.5h-13v141h389z" />
    <glyph glyph-name="z" unicode="&#x17a;" horiz-adv-x="481" 
d="M450 481l-319 -462h92q62 0 100 7.5t60 24t32 43t16 65.5h12v-159h-428l317 459h-88q-45 0 -74.5 -4.5t-48.5 -17.5t-29.5 -36.5t-17.5 -60.5h-13v141h389z" />
    <glyph glyph-name="uni00A0" unicode="&#xa0;" 
 />
    <glyph glyph-name="uni00AD" unicode="&#xad;" horiz-adv-x="424" 
d="M65 277h294v-43h-294v43z" />
    <glyph glyph-name="paragraph" unicode="&#xb6;" horiz-adv-x="557" 
d="M418 742v-859h-46v859h-78v-859h-46v507q-44 0 -83.5 14t-69 39.5t-47 62t-17.5 82.5q0 34 11 69.5t39.5 64.5t76.5 47t122 18h223v-45h-85z" />
    <glyph glyph-name="periodcentered" unicode="&#xb7;" horiz-adv-x="256" 
d="M63 257q0 27 19 46t46 19t46 -19t19 -46t-19 -46t-46 -19t-46 19t-19 46z" />
    <glyph glyph-name="quoteright" unicode="&#x2019;" horiz-adv-x="227" 
d="M63 735q0 27 17.5 46t46.5 19q35 0 50.5 -22.5t15.5 -51.5q0 -30 -12.5 -57.5t-32.5 -50t-45 -40t-49 -27.5l-4 8q12 7 25 19.5t24 27.5t18 32t7 32q-26 2 -43.5 20.5t-17.5 44.5z" />
    <glyph glyph-name="bullet" unicode="&#x2022;" horiz-adv-x="468" 
d="M71 259q0 33 12.5 62t34.5 51t51 34.5t62 12.5q35 0 65.5 -12.5t53 -34.5t35 -51t12.5 -62q0 -35 -12.5 -65.5t-35 -53t-53 -35t-65.5 -12.5q-33 0 -62 12.5t-51 35t-34.5 53t-12.5 65.5z" />
    <glyph glyph-name="glyph67" horiz-adv-x="125" 
 />
    <glyph glyph-name="glyph68" horiz-adv-x="678" 
d="M198 481h219v65q0 61 12 106q-8 5 -15.5 14t-12.5 25q-11 34 -30 52t-50 18q-61 0 -92 -53t-31 -179v-48zM622 781q-30 0 -51.5 -12.5t-35 -40.5t-20 -72t-6.5 -107v-68h165v-26h-165v-367q0 -41 18 -54t59 -13h25v-21h-276v21h25q34 0 45.5 11.5t11.5 43.5v379h-219
v-367q0 -41 18 -54t59 -13h25v-21h-276v21h25q34 0 45.5 11.5t11.5 43.5v379h-79v26h79v45q0 68 16.5 116.5t45 79t68 44.5t85.5 14q55 0 91 -15t54 -34q28 36 68 52.5t91 16.5q40 0 69 -8.5t47.5 -20.5t27 -26t8.5 -25q0 -19 -10.5 -27.5t-27.5 -8.5q-14 0 -27 9.5
t-21 33.5q-9 29 -26 41.5t-43 12.5z" />
    <glyph glyph-name="glyph70" horiz-adv-x="610" 
d="M198 455v-367q0 -41 18 -54t59 -13h25v-21h-276v21h25q34 0 45.5 11.5t11.5 43.5v379h-79v26h79v65q0 68 17 116.5t46.5 79t69.5 44.5t86 14q29 0 61 -7t59 -20t44.5 -33t17.5 -45q0 -20 -12.5 -34t-30.5 -14q-23 0 -34.5 10t-17.5 25t-10.5 32t-13 32t-25.5 25t-48 10
q-61 0 -89 -53t-28 -179v-68h388v-21h-25q-34 0 -45.5 -11.5t-11.5 -43.5v-329q0 -32 11.5 -43.5t45.5 -11.5h25v-21h-256v21h25q34 0 45.5 11.5t11.5 43.5v329q0 29 -9.5 39.5t-35.5 10.5h-169z" />
    <glyph glyph-name="glyph72" horiz-adv-x="921" 
d="M198 481h219v65q0 58 14 105q-20 9 -30 40q-11 34 -30 52t-50 18q-61 0 -92 -53t-31 -179v-48zM897 460h-25q-34 0 -45.5 -11.5t-11.5 -43.5v-329q0 -32 11.5 -43.5t45.5 -11.5h25v-21h-256v21h25q34 0 45.5 11.5t11.5 43.5v329q0 29 -9.5 39.5t-35.5 10.5h-169v-367
q0 -41 18 -54t59 -13h25v-21h-276v21h25q34 0 45.5 11.5t11.5 43.5v379h-219v-367q0 -41 18 -54t59 -13h25v-21h-276v21h25q34 0 45.5 11.5t11.5 43.5v379h-79v26h79v45q0 68 16.5 116.5t45 79t68 44.5t85.5 14q58 0 94.5 -16.5t54.5 -36.5q30 38 72.5 55.5t93.5 17.5
q29 0 61 -7t59 -20t44.5 -33t17.5 -45q0 -20 -12.5 -34t-30.5 -14q-23 0 -34.5 10t-17.5 25t-10.5 32t-13 32t-25.5 25t-48 10q-59 0 -88 -53t-29 -179v-68h388v-21z" />
    <glyph glyph-name="glyph74" horiz-adv-x="609" 
d="M198 481h145v-26h-145v-367q0 -41 18 -54t59 -13h25v-21h-276v21h25q34 0 45.5 11.5t11.5 43.5v379h-79v26h79v64q0 69 14.5 117t41.5 79t65 45t84 14q25 0 53 -3.5t50 -9.5h178v-21h-25q-34 0 -45.5 -11.5t-11.5 -43.5v-635q0 -32 11.5 -43.5t45.5 -11.5h25v-21h-256v21
h25q34 0 45.5 11.5t11.5 43.5v605q-24 22 -33.5 40.5t-17 31.5t-18.5 20.5t-38 7.5q-30 0 -51.5 -12.5t-35 -40.5t-20 -72.5t-6.5 -107.5v-67z" />
    <glyph glyph-name="glyph76" horiz-adv-x="919" 
d="M198 481h218v64q0 61 12 106q-19 10 -27 38q-11 34 -30 52.5t-50 18.5q-61 0 -92 -53t-31 -179v-47zM902 787v-21h-25q-34 0 -45.5 -11.5t-11.5 -43.5v-635q0 -32 11.5 -43.5t45.5 -11.5h25v-21h-256v21h25q34 0 45.5 11.5t11.5 43.5v605q-24 22 -33.5 40.5t-17 31.5
t-18.5 20.5t-38 7.5q-30 0 -51.5 -12.5t-35 -40.5t-20 -72.5t-6.5 -107.5v-67h145v-26h-145v-367q0 -41 18 -54t59 -13h25v-21h-276v21h25q34 0 45.5 11.5t11.5 43.5v379h-218v-367q0 -41 18 -54t59 -13h25v-21h-276v21h25q34 0 45.5 11.5t11.5 43.5v379h-79v26h79v44
q0 68 16.5 116.5t45 79t68 44.5t85.5 14q54 0 89.5 -14.5t54.5 -33.5q27 35 66.5 52t89.5 17q25 0 53 -3.5t50 -9.5h178z" />
    <glyph glyph-name="glyph78" horiz-adv-x="190" 
d="M-188 0h-55l624 787h55z" />
    <glyph glyph-name="zero.numr" horiz-adv-x="404" 
d="M281 576q0 55 -7 93t-18 61.5t-25 34t-29 10.5q-14 0 -28.5 -10.5t-25.5 -34t-18 -61.5t-7 -93t7 -92.5t18 -61t25.5 -33.5t28.5 -10q15 0 29 10t25 33.5t18 61t7 92.5zM370 575q0 -52 -13 -92.5t-35.5 -68t-53 -41.5t-66.5 -14q-77 0 -122.5 56t-45.5 161q0 52 13 93
t35.5 69.5t53.5 43t67 14.5q81 0 124 -57.5t43 -163.5z" />
    <glyph glyph-name="zero.dnom" horiz-adv-x="404" 
d="M281 210q0 55 -7 93t-18 61.5t-25 34t-29 10.5q-14 0 -28.5 -10.5t-25.5 -34t-18 -61.5t-7 -93t7 -92.5t18 -61t25.5 -33.5t28.5 -10q15 0 29 10t25 33.5t18 61t7 92.5zM370 209q0 -52 -13 -92.5t-35.5 -68t-53 -41.5t-66.5 -14q-77 0 -122.5 56t-45.5 161q0 52 13 93
t35.5 69.5t53.5 43t67 14.5q81 0 124 -57.5t43 -163.5z" />
    </font>
</defs>
</svg>
