<?xml version="1.0" standalone="no"?>
<!DOCTYPE svg PUBLIC "-//W3C//DTD SVG 1.1//EN" "http://www.w3.org/Graphics/SVG/1.1/DTD/svg11.dtd" >
<svg xmlns="http://www.w3.org/2000/svg" xmlns:xlink="http://www.w3.org/1999/xlink" version="1.1">
<metadata>
Created by Christoph Koeberlin (http://christoph.koe.berlin)
Copyright (c) 2020 Swiss Typefaces Sarl. All rights reserved.
</metadata>
<defs>
<font id="Font" horiz-adv-x="763" >
  <font-face 
    font-family="Font"
    font-weight="900"
    font-stretch="normal"
    units-per-em="1000"
    panose-1="2 4 10 4 0 0 0 0 0 0"
    ascent="800"
    descent="-200"
    x-height="484"
    cap-height="787"
    bbox="-234 -274 1129 820"
    underline-thickness="50"
    underline-position="-163"
    unicode-range="U+0020-2022"
  />
<missing-glyph horiz-adv-x="700" 
d="M100 758h500v-758h-500v758zM119 728v-698l220 349zM581 30v698l-221 -349zM133 19h434l-217 343zM350 395l217 344h-434z" />
    <glyph glyph-name="f_f.liga" unicode="ff" horiz-adv-x="820" 
d="M306 484h160v83q-41 4 -62 29.5t-24 66.5q-2 16 -2.5 32t-3 28.5t-9 20t-19.5 7.5t-21 -13t-12 -40.5t-5.5 -71t-1.5 -105.5v-37zM466 0v448h-160v-345q0 -18 2.5 -32.5t11.5 -24.5t26 -15.5t46 -5.5h9v-25h-386v25h2q27 0 42 5.5t22.5 15.5t9.5 24.5t2 32.5v345h-79v36
h79v34q0 68 19 116.5t52.5 79t79.5 44.5t100 14q52 0 99 -13t76 -36q34 41 84.5 59t113.5 18q42 0 78.5 -8t64.5 -23.5t44 -37.5t16 -49q0 -12 -4.5 -27t-14 -28.5t-24.5 -22.5t-36 -9q-47 0 -70.5 26.5t-27.5 69.5q-2 16 -1 32t0.5 28.5t-5.5 20t-18 7.5t-21 -13t-12 -40.5
t-5.5 -71t-1.5 -105.5v-65h136v-36h-136v-345q0 -18 2.5 -32.5t11.5 -24.5t26 -15.5t46 -5.5h32v-25h-331z" />
    <glyph glyph-name="f_i.liga" unicode="fi" 
d="M306 448v-345q0 -18 2.5 -32.5t11.5 -24.5t26 -15.5t46 -5.5h9v-25h-386v25h2q27 0 42 5.5t22.5 15.5t9.5 24.5t2 32.5v345h-79v36h79v62q0 68 25 116.5t66 79t93.5 44.5t106.5 14q37 0 84 -4.5t89 -18t70.5 -38.5t28.5 -66q0 -35 -22 -61t-70 -26q-40 0 -59.5 14.5
t-28 35.5t-11 46.5t-8.5 46.5t-20 35.5t-45 14.5q-19 0 -35 -12.5t-27 -40t-17.5 -71t-6.5 -106.5v-65h444v-25h-2q-27 0 -42 -5.5t-22.5 -15.5t-9.5 -24.5t-2 -32.5v-278q0 -18 2 -32.5t9.5 -24.5t22.5 -15.5t42 -5.5h2v-25h-291v380q0 15 -2 27.5t-9.5 21.5t-23 14
t-43.5 5h-75z" />
    <glyph glyph-name="f_f_i.liga" unicode="ffi" horiz-adv-x="1136" 
d="M466 546v10.5t1 10.5q-42 4 -63 29.5t-24 66.5q-2 16 -2.5 32t-3 28.5t-9 20t-19.5 7.5t-21 -13t-12 -40.5t-5.5 -71t-1.5 -105.5v-37h160v62zM1045 103q0 -18 2 -32.5t9.5 -24.5t22.5 -15.5t42 -5.5h2v-25h-291v380q0 15 -2 27.5t-9.5 21.5t-23 14t-43.5 5h-75v-345
q0 -18 2.5 -32.5t11.5 -24.5t26 -15.5t46 -5.5h17v-25h-316v448h-160v-345q0 -18 2.5 -32.5t11.5 -24.5t26 -15.5t46 -5.5h9v-25h-386v25h2q27 0 42 5.5t22.5 15.5t9.5 24.5t2 32.5v345h-79v36h79v34q0 68 19 116.5t52.5 79t79.5 44.5t100 14q57 0 106 -15t78 -42
q42 45 102.5 65t126.5 20q37 0 84 -4.5t89 -18t70.5 -38.5t28.5 -66q0 -35 -22 -61t-70 -26q-40 0 -59.5 14.5t-28 35.5t-11 46.5t-8.5 46.5t-20 35.5t-45 14.5q-19 0 -35 -12.5t-27 -40t-17.5 -71t-6.5 -106.5v-65h444v-25h-2q-27 0 -42 -5.5t-22.5 -15.5t-9.5 -24.5
t-2 -32.5v-278z" />
    <glyph glyph-name="f_l.liga" unicode="fl" 
d="M756 762h-2q-27 0 -42 -5.5t-22.5 -15.5t-9.5 -24.5t-2 -32.5v-581q0 -18 2 -32.5t9.5 -24.5t22.5 -15.5t42 -5.5h2v-25h-291v620q-25 9 -39 24.5t-21.5 33t-11 35.5t-7 32.5t-9.5 24t-19 9.5q-19 0 -29.5 -12.5t-15.5 -40t-6 -71t-1 -105.5v-66h106v-36h-106v-345
q0 -18 2.5 -32.5t11.5 -24.5t26 -15.5t46 -5.5h17v-25h-394v25h2q27 0 42 5.5t22.5 15.5t9.5 24.5t2 32.5v345h-79v36h79v63q0 68 19 116t53 78.5t81.5 44.5t104.5 14q29 0 62 -3t65 -10h278v-25z" />
    <glyph glyph-name="f_f_l.liga" unicode="ffl" horiz-adv-x="1136" 
d="M1129 787v-25h-2q-27 0 -42 -5.5t-22.5 -15.5t-9.5 -24.5t-2 -32.5v-581q0 -18 2 -32.5t9.5 -24.5t22.5 -15.5t42 -5.5h2v-25h-291v620q-25 9 -39 24.5t-21.5 33t-11 35.5t-7 32.5t-9.5 24t-19 9.5q-19 0 -29.5 -12.5t-15.5 -40t-6 -71t-1 -105.5v-66h106v-36h-106v-345
q0 -18 2.5 -32.5t11.5 -24.5t26 -15.5t46 -5.5h17v-25h-316v448h-160v-345q0 -18 2.5 -32.5t11.5 -24.5t26 -15.5t46 -5.5h9v-25h-386v25h2q27 0 42 5.5t22.5 15.5t9.5 24.5t2 32.5v345h-79v36h79v35q0 68 19 116.5t52.5 79t79.5 44.5t100 14q53 0 99.5 -13t76.5 -37
q34 41 86 59t118 18q29 0 62 -3t65 -10h278zM466 568q-41 4 -62 29.5t-24 66.5q-2 16 -2.5 32t-3 28.5t-9 20t-19.5 7.5t-21 -13t-12 -40.5t-5.5 -71t-1.5 -105.5v-38h160v84z" />
    <glyph glyph-name=".notdef" horiz-adv-x="700" 
d="M100 758h500v-758h-500v758zM119 728v-698l220 349zM581 30v698l-221 -349zM133 19h434l-217 343zM350 395l217 344h-434z" />
    <glyph glyph-name="glyph1" horiz-adv-x="0" 
 />
    <glyph glyph-name="glyph2" horiz-adv-x="214" 
 />
    <glyph glyph-name="space" unicode=" " horiz-adv-x="214" 
 />
    <glyph glyph-name="comma" unicode="," horiz-adv-x="291" 
d="M36 93q0 22 8.5 41.5t23.5 34.5t35 23.5t43 8.5q25 0 44.5 -9.5t33 -25.5t21 -37.5t7.5 -45.5q0 -36 -15.5 -77.5t-43.5 -80t-68.5 -69.5t-89.5 -47l-3 7q17 10 34.5 31t31.5 45.5t23 49t9 43.5q-42 5 -68 36t-26 72z" />
    <glyph glyph-name="hyphen" unicode="-" horiz-adv-x="366" 
d="M36 279h294v-47h-294v47z" />
    <glyph glyph-name="period" unicode="." horiz-adv-x="286" 
d="M35 93q0 22 8.5 41.5t23.5 34.5t34.5 23.5t41.5 8.5t41.5 -8.5t34.5 -23.5t23.5 -34.5t8.5 -41.5t-8.5 -41.5t-23.5 -34.5t-34.5 -23.5t-41.5 -8.5t-41.5 8.5t-34.5 23.5t-23.5 34.5t-8.5 41.5z" />
    <glyph glyph-name="slash" unicode="/" horiz-adv-x="422" 
d="M22 -33l326 853h53l-326 -853h-53z" />
    <glyph glyph-name="zero" unicode="0" horiz-adv-x="775" 
d="M506 360q0 177 -29.5 263t-89.5 86t-89.5 -86t-29.5 -263q0 -344 119 -344t119 344zM732 359q0 -90 -26.5 -159.5t-73 -117t-109.5 -72t-136 -24.5q-78 0 -142 25t-109 72.5t-69.5 117.5t-24.5 160t26.5 160.5t73 118.5t110 73.5t137.5 25.5q83 0 147 -25.5t107.5 -74.5
t66 -119.5t22.5 -160.5z" />
    <glyph glyph-name="A" unicode="A" horiz-adv-x="813" 
d="M351 787h111l243 -690q14 -41 41 -56.5t69 -15.5h1v-25h-428v25h2q22 0 40 2.5t28 11.5t11.5 25.5t-7.5 45.5l-44 134h-219l-17 -50q-32 -91 -20 -130t72 -39h2v-25h-239v25h2q42 0 77 37t68 131zM225 319h169l-82 251z" />
    <glyph glyph-name="A" unicode="&#x104;" horiz-adv-x="813" 
d="M351 787h111l243 -690q14 -41 41 -56.5t69 -15.5h1v-25h-428v25h2q22 0 40 2.5t28 11.5t11.5 25.5t-7.5 45.5l-44 134h-219l-17 -50q-32 -91 -20 -130t72 -39h2v-25h-239v25h2q42 0 77 37t68 131zM225 319h169l-82 251z" />
    <glyph glyph-name="A" unicode="&#x102;" horiz-adv-x="813" 
d="M351 787h111l243 -690q14 -41 41 -56.5t69 -15.5h1v-25h-428v25h2q22 0 40 2.5t28 11.5t11.5 25.5t-7.5 45.5l-44 134h-219l-17 -50q-32 -91 -20 -130t72 -39h2v-25h-239v25h2q42 0 77 37t68 131zM225 319h169l-82 251z" />
    <glyph glyph-name="A" unicode="&#x100;" horiz-adv-x="813" 
d="M351 787h111l243 -690q14 -41 41 -56.5t69 -15.5h1v-25h-428v25h2q22 0 40 2.5t28 11.5t11.5 25.5t-7.5 45.5l-44 134h-219l-17 -50q-32 -91 -20 -130t72 -39h2v-25h-239v25h2q42 0 77 37t68 131zM225 319h169l-82 251z" />
    <glyph glyph-name="A" unicode="&#xc6;" horiz-adv-x="813" 
d="M351 787h111l243 -690q14 -41 41 -56.5t69 -15.5h1v-25h-428v25h2q22 0 40 2.5t28 11.5t11.5 25.5t-7.5 45.5l-44 134h-219l-17 -50q-32 -91 -20 -130t72 -39h2v-25h-239v25h2q42 0 77 37t68 131zM225 319h169l-82 251z" />
    <glyph glyph-name="A" unicode="&#xc5;" horiz-adv-x="813" 
d="M351 787h111l243 -690q14 -41 41 -56.5t69 -15.5h1v-25h-428v25h2q22 0 40 2.5t28 11.5t11.5 25.5t-7.5 45.5l-44 134h-219l-17 -50q-32 -91 -20 -130t72 -39h2v-25h-239v25h2q42 0 77 37t68 131zM225 319h169l-82 251z" />
    <glyph glyph-name="A" unicode="&#xc4;" horiz-adv-x="813" 
d="M351 787h111l243 -690q14 -41 41 -56.5t69 -15.5h1v-25h-428v25h2q22 0 40 2.5t28 11.5t11.5 25.5t-7.5 45.5l-44 134h-219l-17 -50q-32 -91 -20 -130t72 -39h2v-25h-239v25h2q42 0 77 37t68 131zM225 319h169l-82 251z" />
    <glyph glyph-name="A" unicode="&#xc3;" horiz-adv-x="813" 
d="M351 787h111l243 -690q14 -41 41 -56.5t69 -15.5h1v-25h-428v25h2q22 0 40 2.5t28 11.5t11.5 25.5t-7.5 45.5l-44 134h-219l-17 -50q-32 -91 -20 -130t72 -39h2v-25h-239v25h2q42 0 77 37t68 131zM225 319h169l-82 251z" />
    <glyph glyph-name="A" unicode="&#xc2;" horiz-adv-x="813" 
d="M351 787h111l243 -690q14 -41 41 -56.5t69 -15.5h1v-25h-428v25h2q22 0 40 2.5t28 11.5t11.5 25.5t-7.5 45.5l-44 134h-219l-17 -50q-32 -91 -20 -130t72 -39h2v-25h-239v25h2q42 0 77 37t68 131zM225 319h169l-82 251z" />
    <glyph glyph-name="A" unicode="&#xc1;" horiz-adv-x="813" 
d="M351 787h111l243 -690q14 -41 41 -56.5t69 -15.5h1v-25h-428v25h2q22 0 40 2.5t28 11.5t11.5 25.5t-7.5 45.5l-44 134h-219l-17 -50q-32 -91 -20 -130t72 -39h2v-25h-239v25h2q42 0 77 37t68 131zM225 319h169l-82 251z" />
    <glyph glyph-name="A" unicode="&#xc0;" horiz-adv-x="813" 
d="M351 787h111l243 -690q14 -41 41 -56.5t69 -15.5h1v-25h-428v25h2q22 0 40 2.5t28 11.5t11.5 25.5t-7.5 45.5l-44 134h-219l-17 -50q-32 -91 -20 -130t72 -39h2v-25h-239v25h2q42 0 77 37t68 131zM225 319h169l-82 251z" />
    <glyph glyph-name="B" unicode="B" horiz-adv-x="777" 
d="M336 432h2q36 0 63 14t45 36.5t27 50.5t9 57q0 33 -9 62.5t-26.5 52t-44.5 35.5t-63 13h-3v-321zM379 787q97 0 160.5 -15.5t100.5 -40t51.5 -56t14.5 -64.5q0 -80 -67 -130.5t-185 -64.5q67 0 121.5 -13t93 -38.5t59 -63.5t20.5 -89q0 -60 -27 -100.5t-72 -65.5
t-105 -35.5t-126 -10.5h-396v25h4q24 0 40.5 3.5t26.5 12t14.5 23.5t4.5 38v583q0 23 -4.5 38t-14.5 23.5t-26.5 12t-40.5 3.5h-4v25h357zM383 34q28 0 52.5 13.5t43 36.5t29 55t10.5 69q0 36 -11.5 69t-34.5 58.5t-56.5 40.5t-76.5 15h-3v-309q0 -29 10 -38.5t34 -9.5h3z
" />
    <glyph glyph-name="C" unicode="C" horiz-adv-x="812" 
d="M761 41q-42 -18 -78 -29t-69 -17t-63 -7.5t-59 -1.5q-116 0 -201.5 31t-142.5 85.5t-85 129.5t-28 163t28 163t85 129.5t142 85.5t199 31q60 0 125.5 -10.5t145.5 -39.5v-244h-16q-42 133 -108 197t-149 64q-49 0 -88.5 -24t-67.5 -71.5t-43.5 -119t-15.5 -166.5
t15.5 -164.5t44.5 -115t70.5 -67.5t93.5 -22q41 0 79 20t71 56t58.5 87t40.5 114h16v-257z" />
    <glyph glyph-name="C" unicode="&#x10c;" horiz-adv-x="812" 
d="M761 41q-42 -18 -78 -29t-69 -17t-63 -7.5t-59 -1.5q-116 0 -201.5 31t-142.5 85.5t-85 129.5t-28 163t28 163t85 129.5t142 85.5t199 31q60 0 125.5 -10.5t145.5 -39.5v-244h-16q-42 133 -108 197t-149 64q-49 0 -88.5 -24t-67.5 -71.5t-43.5 -119t-15.5 -166.5
t15.5 -164.5t44.5 -115t70.5 -67.5t93.5 -22q41 0 79 20t71 56t58.5 87t40.5 114h16v-257z" />
    <glyph glyph-name="C" unicode="&#x10a;" horiz-adv-x="812" 
d="M761 41q-42 -18 -78 -29t-69 -17t-63 -7.5t-59 -1.5q-116 0 -201.5 31t-142.5 85.5t-85 129.5t-28 163t28 163t85 129.5t142 85.5t199 31q60 0 125.5 -10.5t145.5 -39.5v-244h-16q-42 133 -108 197t-149 64q-49 0 -88.5 -24t-67.5 -71.5t-43.5 -119t-15.5 -166.5
t15.5 -164.5t44.5 -115t70.5 -67.5t93.5 -22q41 0 79 20t71 56t58.5 87t40.5 114h16v-257z" />
    <glyph glyph-name="C" unicode="&#x108;" horiz-adv-x="812" 
d="M761 41q-42 -18 -78 -29t-69 -17t-63 -7.5t-59 -1.5q-116 0 -201.5 31t-142.5 85.5t-85 129.5t-28 163t28 163t85 129.5t142 85.5t199 31q60 0 125.5 -10.5t145.5 -39.5v-244h-16q-42 133 -108 197t-149 64q-49 0 -88.5 -24t-67.5 -71.5t-43.5 -119t-15.5 -166.5
t15.5 -164.5t44.5 -115t70.5 -67.5t93.5 -22q41 0 79 20t71 56t58.5 87t40.5 114h16v-257z" />
    <glyph glyph-name="C" unicode="&#x106;" horiz-adv-x="812" 
d="M761 41q-42 -18 -78 -29t-69 -17t-63 -7.5t-59 -1.5q-116 0 -201.5 31t-142.5 85.5t-85 129.5t-28 163t28 163t85 129.5t142 85.5t199 31q60 0 125.5 -10.5t145.5 -39.5v-244h-16q-42 133 -108 197t-149 64q-49 0 -88.5 -24t-67.5 -71.5t-43.5 -119t-15.5 -166.5
t15.5 -164.5t44.5 -115t70.5 -67.5t93.5 -22q41 0 79 20t71 56t58.5 87t40.5 114h16v-257z" />
    <glyph glyph-name="C" unicode="&#xc7;" horiz-adv-x="812" 
d="M761 41q-42 -18 -78 -29t-69 -17t-63 -7.5t-59 -1.5q-116 0 -201.5 31t-142.5 85.5t-85 129.5t-28 163t28 163t85 129.5t142 85.5t199 31q60 0 125.5 -10.5t145.5 -39.5v-244h-16q-42 133 -108 197t-149 64q-49 0 -88.5 -24t-67.5 -71.5t-43.5 -119t-15.5 -166.5
t15.5 -164.5t44.5 -115t70.5 -67.5t93.5 -22q41 0 79 20t71 56t58.5 87t40.5 114h16v-257z" />
    <glyph glyph-name="D" unicode="D" horiz-adv-x="871" 
d="M336 116q0 -47 16.5 -64.5t60.5 -17.5h5q90 0 135.5 92t45.5 275q0 173 -67.5 262t-192.5 89h-3v-636zM26 25q24 0 40.5 3.5t26.5 12t14.5 23.5t4.5 38v583q0 23 -4.5 38t-14.5 23.5t-26.5 12t-40.5 3.5h-4v25h325q119 0 210 -26.5t153 -76.5t94 -122t32 -163
q0 -89 -30 -162t-86 -126t-135.5 -82t-178.5 -29h-384v25h4z" />
    <glyph glyph-name="D" unicode="&#x110;" horiz-adv-x="871" 
d="M336 116q0 -47 16.5 -64.5t60.5 -17.5h5q90 0 135.5 92t45.5 275q0 173 -67.5 262t-192.5 89h-3v-636zM26 25q24 0 40.5 3.5t26.5 12t14.5 23.5t4.5 38v583q0 23 -4.5 38t-14.5 23.5t-26.5 12t-40.5 3.5h-4v25h325q119 0 210 -26.5t153 -76.5t94 -122t32 -163
q0 -89 -30 -162t-86 -126t-135.5 -82t-178.5 -29h-384v25h4z" />
    <glyph glyph-name="D" unicode="&#x10e;" horiz-adv-x="871" 
d="M336 116q0 -47 16.5 -64.5t60.5 -17.5h5q90 0 135.5 92t45.5 275q0 173 -67.5 262t-192.5 89h-3v-636zM26 25q24 0 40.5 3.5t26.5 12t14.5 23.5t4.5 38v583q0 23 -4.5 38t-14.5 23.5t-26.5 12t-40.5 3.5h-4v25h325q119 0 210 -26.5t153 -76.5t94 -122t32 -163
q0 -89 -30 -162t-86 -126t-135.5 -82t-178.5 -29h-384v25h4z" />
    <glyph glyph-name="D" unicode="&#xd0;" horiz-adv-x="871" 
d="M336 116q0 -47 16.5 -64.5t60.5 -17.5h5q90 0 135.5 92t45.5 275q0 173 -67.5 262t-192.5 89h-3v-636zM26 25q24 0 40.5 3.5t26.5 12t14.5 23.5t4.5 38v583q0 23 -4.5 38t-14.5 23.5t-26.5 12t-40.5 3.5h-4v25h325q119 0 210 -26.5t153 -76.5t94 -122t32 -163
q0 -89 -30 -162t-86 -126t-135.5 -82t-178.5 -29h-384v25h4z" />
    <glyph glyph-name="E" unicode="E" horiz-adv-x="736" 
d="M26 25q24 0 40.5 3.5t26.5 12t14.5 23.5t4.5 38v583q0 23 -4.5 38t-14.5 23.5t-26.5 12t-40.5 3.5h-4v25h649v-270h-15q-6 36 -25 76.5t-52 75t-80 57.5t-109 23h-54v-316h10q78 0 121 43t55 118h15v-360h-15q-12 75 -55 118t-121 43h-10v-299q0 -34 13 -48t56 -14h13
q63 0 108.5 23.5t77 59.5t48.5 78.5t23 80.5h15v-276h-668v25h4z" />
    <glyph glyph-name="E" unicode="&#x11a;" horiz-adv-x="736" 
d="M26 25q24 0 40.5 3.5t26.5 12t14.5 23.5t4.5 38v583q0 23 -4.5 38t-14.5 23.5t-26.5 12t-40.5 3.5h-4v25h649v-270h-15q-6 36 -25 76.5t-52 75t-80 57.5t-109 23h-54v-316h10q78 0 121 43t55 118h15v-360h-15q-12 75 -55 118t-121 43h-10v-299q0 -34 13 -48t56 -14h13
q63 0 108.5 23.5t77 59.5t48.5 78.5t23 80.5h15v-276h-668v25h4z" />
    <glyph glyph-name="E" unicode="&#x118;" horiz-adv-x="736" 
d="M26 25q24 0 40.5 3.5t26.5 12t14.5 23.5t4.5 38v583q0 23 -4.5 38t-14.5 23.5t-26.5 12t-40.5 3.5h-4v25h649v-270h-15q-6 36 -25 76.5t-52 75t-80 57.5t-109 23h-54v-316h10q78 0 121 43t55 118h15v-360h-15q-12 75 -55 118t-121 43h-10v-299q0 -34 13 -48t56 -14h13
q63 0 108.5 23.5t77 59.5t48.5 78.5t23 80.5h15v-276h-668v25h4z" />
    <glyph glyph-name="E" unicode="&#x116;" horiz-adv-x="736" 
d="M26 25q24 0 40.5 3.5t26.5 12t14.5 23.5t4.5 38v583q0 23 -4.5 38t-14.5 23.5t-26.5 12t-40.5 3.5h-4v25h649v-270h-15q-6 36 -25 76.5t-52 75t-80 57.5t-109 23h-54v-316h10q78 0 121 43t55 118h15v-360h-15q-12 75 -55 118t-121 43h-10v-299q0 -34 13 -48t56 -14h13
q63 0 108.5 23.5t77 59.5t48.5 78.5t23 80.5h15v-276h-668v25h4z" />
    <glyph glyph-name="E" unicode="&#x114;" horiz-adv-x="736" 
d="M26 25q24 0 40.5 3.5t26.5 12t14.5 23.5t4.5 38v583q0 23 -4.5 38t-14.5 23.5t-26.5 12t-40.5 3.5h-4v25h649v-270h-15q-6 36 -25 76.5t-52 75t-80 57.5t-109 23h-54v-316h10q78 0 121 43t55 118h15v-360h-15q-12 75 -55 118t-121 43h-10v-299q0 -34 13 -48t56 -14h13
q63 0 108.5 23.5t77 59.5t48.5 78.5t23 80.5h15v-276h-668v25h4z" />
    <glyph glyph-name="E" unicode="&#x112;" horiz-adv-x="736" 
d="M26 25q24 0 40.5 3.5t26.5 12t14.5 23.5t4.5 38v583q0 23 -4.5 38t-14.5 23.5t-26.5 12t-40.5 3.5h-4v25h649v-270h-15q-6 36 -25 76.5t-52 75t-80 57.5t-109 23h-54v-316h10q78 0 121 43t55 118h15v-360h-15q-12 75 -55 118t-121 43h-10v-299q0 -34 13 -48t56 -14h13
q63 0 108.5 23.5t77 59.5t48.5 78.5t23 80.5h15v-276h-668v25h4z" />
    <glyph glyph-name="E" unicode="&#xcb;" horiz-adv-x="736" 
d="M26 25q24 0 40.5 3.5t26.5 12t14.5 23.5t4.5 38v583q0 23 -4.5 38t-14.5 23.5t-26.5 12t-40.5 3.5h-4v25h649v-270h-15q-6 36 -25 76.5t-52 75t-80 57.5t-109 23h-54v-316h10q78 0 121 43t55 118h15v-360h-15q-12 75 -55 118t-121 43h-10v-299q0 -34 13 -48t56 -14h13
q63 0 108.5 23.5t77 59.5t48.5 78.5t23 80.5h15v-276h-668v25h4z" />
    <glyph glyph-name="E" unicode="&#xca;" horiz-adv-x="736" 
d="M26 25q24 0 40.5 3.5t26.5 12t14.5 23.5t4.5 38v583q0 23 -4.5 38t-14.5 23.5t-26.5 12t-40.5 3.5h-4v25h649v-270h-15q-6 36 -25 76.5t-52 75t-80 57.5t-109 23h-54v-316h10q78 0 121 43t55 118h15v-360h-15q-12 75 -55 118t-121 43h-10v-299q0 -34 13 -48t56 -14h13
q63 0 108.5 23.5t77 59.5t48.5 78.5t23 80.5h15v-276h-668v25h4z" />
    <glyph glyph-name="E" unicode="&#xc9;" horiz-adv-x="736" 
d="M26 25q24 0 40.5 3.5t26.5 12t14.5 23.5t4.5 38v583q0 23 -4.5 38t-14.5 23.5t-26.5 12t-40.5 3.5h-4v25h649v-270h-15q-6 36 -25 76.5t-52 75t-80 57.5t-109 23h-54v-316h10q78 0 121 43t55 118h15v-360h-15q-12 75 -55 118t-121 43h-10v-299q0 -34 13 -48t56 -14h13
q63 0 108.5 23.5t77 59.5t48.5 78.5t23 80.5h15v-276h-668v25h4z" />
    <glyph glyph-name="E" unicode="&#xc8;" horiz-adv-x="736" 
d="M26 25q24 0 40.5 3.5t26.5 12t14.5 23.5t4.5 38v583q0 23 -4.5 38t-14.5 23.5t-26.5 12t-40.5 3.5h-4v25h649v-270h-15q-6 36 -25 76.5t-52 75t-80 57.5t-109 23h-54v-316h10q78 0 121 43t55 118h15v-360h-15q-12 75 -55 118t-121 43h-10v-299q0 -34 13 -48t56 -14h13
q63 0 108.5 23.5t77 59.5t48.5 78.5t23 80.5h15v-276h-668v25h4z" />
    <glyph glyph-name="F" unicode="F" horiz-adv-x="708" 
d="M26 25q24 0 40.5 3.5t26.5 12t14.5 23.5t4.5 38v583q0 23 -4.5 38t-14.5 23.5t-26.5 12t-40.5 3.5h-4v25h669v-264h-15q-6 36 -25 76t-52 73t-80.5 55t-110.5 22h-72v-325h20q78 0 121 43t55 118h15v-360h-15q-12 75 -55 118t-121 43h-20v-284q0 -23 4.5 -38t15 -23.5
t28.5 -12t44 -3.5h28v-25h-434v25h4z" />
    <glyph glyph-name="G" unicode="G" horiz-adv-x="871" 
d="M590 231q0 49 -18.5 67.5t-72.5 18.5h-11v25h379v-25h-5q-20 0 -31.5 -4.5t-17.5 -14.5t-7.5 -26.5t-1.5 -40.5v-135q-49 -46 -132 -78t-207 -32q-118 0 -200 35.5t-133.5 93.5t-74.5 131.5t-23 148.5q0 88 28 163t85 129.5t142 85.5t199 31q60 0 125.5 -10.5
t145.5 -39.5v-244h-16q-42 133 -108 197t-149 64q-49 0 -88.5 -24t-67.5 -71.5t-43.5 -119t-15.5 -166.5q0 -82 14.5 -150t41.5 -116.5t66.5 -75.5t89.5 -27q23 0 48.5 7t58.5 30v173z" />
    <glyph glyph-name="G" unicode="&#x122;" horiz-adv-x="871" 
d="M590 231q0 49 -18.5 67.5t-72.5 18.5h-11v25h379v-25h-5q-20 0 -31.5 -4.5t-17.5 -14.5t-7.5 -26.5t-1.5 -40.5v-135q-49 -46 -132 -78t-207 -32q-118 0 -200 35.5t-133.5 93.5t-74.5 131.5t-23 148.5q0 88 28 163t85 129.5t142 85.5t199 31q60 0 125.5 -10.5
t145.5 -39.5v-244h-16q-42 133 -108 197t-149 64q-49 0 -88.5 -24t-67.5 -71.5t-43.5 -119t-15.5 -166.5q0 -82 14.5 -150t41.5 -116.5t66.5 -75.5t89.5 -27q23 0 48.5 7t58.5 30v173z" />
    <glyph glyph-name="G" unicode="&#x120;" horiz-adv-x="871" 
d="M590 231q0 49 -18.5 67.5t-72.5 18.5h-11v25h379v-25h-5q-20 0 -31.5 -4.5t-17.5 -14.5t-7.5 -26.5t-1.5 -40.5v-135q-49 -46 -132 -78t-207 -32q-118 0 -200 35.5t-133.5 93.5t-74.5 131.5t-23 148.5q0 88 28 163t85 129.5t142 85.5t199 31q60 0 125.5 -10.5
t145.5 -39.5v-244h-16q-42 133 -108 197t-149 64q-49 0 -88.5 -24t-67.5 -71.5t-43.5 -119t-15.5 -166.5q0 -82 14.5 -150t41.5 -116.5t66.5 -75.5t89.5 -27q23 0 48.5 7t58.5 30v173z" />
    <glyph glyph-name="G" unicode="&#x11e;" horiz-adv-x="871" 
d="M590 231q0 49 -18.5 67.5t-72.5 18.5h-11v25h379v-25h-5q-20 0 -31.5 -4.5t-17.5 -14.5t-7.5 -26.5t-1.5 -40.5v-135q-49 -46 -132 -78t-207 -32q-118 0 -200 35.5t-133.5 93.5t-74.5 131.5t-23 148.5q0 88 28 163t85 129.5t142 85.5t199 31q60 0 125.5 -10.5
t145.5 -39.5v-244h-16q-42 133 -108 197t-149 64q-49 0 -88.5 -24t-67.5 -71.5t-43.5 -119t-15.5 -166.5q0 -82 14.5 -150t41.5 -116.5t66.5 -75.5t89.5 -27q23 0 48.5 7t58.5 30v173z" />
    <glyph glyph-name="G" unicode="&#x11c;" horiz-adv-x="871" 
d="M590 231q0 49 -18.5 67.5t-72.5 18.5h-11v25h379v-25h-5q-20 0 -31.5 -4.5t-17.5 -14.5t-7.5 -26.5t-1.5 -40.5v-135q-49 -46 -132 -78t-207 -32q-118 0 -200 35.5t-133.5 93.5t-74.5 131.5t-23 148.5q0 88 28 163t85 129.5t142 85.5t199 31q60 0 125.5 -10.5
t145.5 -39.5v-244h-16q-42 133 -108 197t-149 64q-49 0 -88.5 -24t-67.5 -71.5t-43.5 -119t-15.5 -166.5q0 -82 14.5 -150t41.5 -116.5t66.5 -75.5t89.5 -27q23 0 48.5 7t58.5 30v173z" />
    <glyph glyph-name="H" unicode="H" horiz-adv-x="908" 
d="M886 0h-404v25h4q24 0 40.5 3.5t26.5 12t14.5 23.5t4.5 38v283h-236v-283q0 -23 4.5 -38t14.5 -23.5t26.5 -12t40.5 -3.5h4v-25h-404v25h4q24 0 40.5 3.5t26.5 12t14.5 23.5t4.5 38v583q0 23 -4.5 38t-14.5 23.5t-26.5 12t-40.5 3.5h-4v25h404v-25h-4q-24 0 -40.5 -3.5
t-26.5 -12t-14.5 -23.5t-4.5 -38v-261h236v261q0 23 -4.5 38t-14.5 23.5t-26.5 12t-40.5 3.5h-4v25h404v-25h-4q-24 0 -40.5 -3.5t-26.5 -12t-14.5 -23.5t-4.5 -38v-583q0 -23 4.5 -38t14.5 -23.5t26.5 -12t40.5 -3.5h4v-25z" />
    <glyph glyph-name="H" unicode="&#x126;" horiz-adv-x="908" 
d="M886 0h-404v25h4q24 0 40.5 3.5t26.5 12t14.5 23.5t4.5 38v283h-236v-283q0 -23 4.5 -38t14.5 -23.5t26.5 -12t40.5 -3.5h4v-25h-404v25h4q24 0 40.5 3.5t26.5 12t14.5 23.5t4.5 38v583q0 23 -4.5 38t-14.5 23.5t-26.5 12t-40.5 3.5h-4v25h404v-25h-4q-24 0 -40.5 -3.5
t-26.5 -12t-14.5 -23.5t-4.5 -38v-261h236v261q0 23 -4.5 38t-14.5 23.5t-26.5 12t-40.5 3.5h-4v25h404v-25h-4q-24 0 -40.5 -3.5t-26.5 -12t-14.5 -23.5t-4.5 -38v-583q0 -23 4.5 -38t14.5 -23.5t26.5 -12t40.5 -3.5h4v-25z" />
    <glyph glyph-name="H" unicode="&#x124;" horiz-adv-x="908" 
d="M886 0h-404v25h4q24 0 40.5 3.5t26.5 12t14.5 23.5t4.5 38v283h-236v-283q0 -23 4.5 -38t14.5 -23.5t26.5 -12t40.5 -3.5h4v-25h-404v25h4q24 0 40.5 3.5t26.5 12t14.5 23.5t4.5 38v583q0 23 -4.5 38t-14.5 23.5t-26.5 12t-40.5 3.5h-4v25h404v-25h-4q-24 0 -40.5 -3.5
t-26.5 -12t-14.5 -23.5t-4.5 -38v-261h236v261q0 23 -4.5 38t-14.5 23.5t-26.5 12t-40.5 3.5h-4v25h404v-25h-4q-24 0 -40.5 -3.5t-26.5 -12t-14.5 -23.5t-4.5 -38v-583q0 -23 4.5 -38t14.5 -23.5t26.5 -12t40.5 -3.5h4v-25z" />
    <glyph glyph-name="I" unicode="I" horiz-adv-x="448" 
d="M426 0h-404v25h4q24 0 40.5 3.5t26.5 12t14.5 23.5t4.5 38v583q0 23 -4.5 38t-14.5 23.5t-26.5 12t-40.5 3.5h-4v25h404v-25h-4q-24 0 -40.5 -3.5t-26.5 -12t-14.5 -23.5t-4.5 -38v-583q0 -23 4.5 -38t14.5 -23.5t26.5 -12t40.5 -3.5h4v-25z" />
    <glyph glyph-name="I" unicode="&#x1eca;" horiz-adv-x="448" 
d="M426 0h-404v25h4q24 0 40.5 3.5t26.5 12t14.5 23.5t4.5 38v583q0 23 -4.5 38t-14.5 23.5t-26.5 12t-40.5 3.5h-4v25h404v-25h-4q-24 0 -40.5 -3.5t-26.5 -12t-14.5 -23.5t-4.5 -38v-583q0 -23 4.5 -38t14.5 -23.5t26.5 -12t40.5 -3.5h4v-25z" />
    <glyph glyph-name="I" unicode="&#x130;" horiz-adv-x="448" 
d="M426 0h-404v25h4q24 0 40.5 3.5t26.5 12t14.5 23.5t4.5 38v583q0 23 -4.5 38t-14.5 23.5t-26.5 12t-40.5 3.5h-4v25h404v-25h-4q-24 0 -40.5 -3.5t-26.5 -12t-14.5 -23.5t-4.5 -38v-583q0 -23 4.5 -38t14.5 -23.5t26.5 -12t40.5 -3.5h4v-25z" />
    <glyph glyph-name="I" unicode="&#x12e;" horiz-adv-x="448" 
d="M426 0h-404v25h4q24 0 40.5 3.5t26.5 12t14.5 23.5t4.5 38v583q0 23 -4.5 38t-14.5 23.5t-26.5 12t-40.5 3.5h-4v25h404v-25h-4q-24 0 -40.5 -3.5t-26.5 -12t-14.5 -23.5t-4.5 -38v-583q0 -23 4.5 -38t14.5 -23.5t26.5 -12t40.5 -3.5h4v-25z" />
    <glyph glyph-name="I" unicode="&#x12c;" horiz-adv-x="448" 
d="M426 0h-404v25h4q24 0 40.5 3.5t26.5 12t14.5 23.5t4.5 38v583q0 23 -4.5 38t-14.5 23.5t-26.5 12t-40.5 3.5h-4v25h404v-25h-4q-24 0 -40.5 -3.5t-26.5 -12t-14.5 -23.5t-4.5 -38v-583q0 -23 4.5 -38t14.5 -23.5t26.5 -12t40.5 -3.5h4v-25z" />
    <glyph glyph-name="I" unicode="&#x12a;" horiz-adv-x="448" 
d="M426 0h-404v25h4q24 0 40.5 3.5t26.5 12t14.5 23.5t4.5 38v583q0 23 -4.5 38t-14.5 23.5t-26.5 12t-40.5 3.5h-4v25h404v-25h-4q-24 0 -40.5 -3.5t-26.5 -12t-14.5 -23.5t-4.5 -38v-583q0 -23 4.5 -38t14.5 -23.5t26.5 -12t40.5 -3.5h4v-25z" />
    <glyph glyph-name="I" unicode="&#x128;" horiz-adv-x="448" 
d="M426 0h-404v25h4q24 0 40.5 3.5t26.5 12t14.5 23.5t4.5 38v583q0 23 -4.5 38t-14.5 23.5t-26.5 12t-40.5 3.5h-4v25h404v-25h-4q-24 0 -40.5 -3.5t-26.5 -12t-14.5 -23.5t-4.5 -38v-583q0 -23 4.5 -38t14.5 -23.5t26.5 -12t40.5 -3.5h4v-25z" />
    <glyph glyph-name="I" unicode="&#xcf;" horiz-adv-x="448" 
d="M426 0h-404v25h4q24 0 40.5 3.5t26.5 12t14.5 23.5t4.5 38v583q0 23 -4.5 38t-14.5 23.5t-26.5 12t-40.5 3.5h-4v25h404v-25h-4q-24 0 -40.5 -3.5t-26.5 -12t-14.5 -23.5t-4.5 -38v-583q0 -23 4.5 -38t14.5 -23.5t26.5 -12t40.5 -3.5h4v-25z" />
    <glyph glyph-name="I" unicode="&#xce;" horiz-adv-x="448" 
d="M426 0h-404v25h4q24 0 40.5 3.5t26.5 12t14.5 23.5t4.5 38v583q0 23 -4.5 38t-14.5 23.5t-26.5 12t-40.5 3.5h-4v25h404v-25h-4q-24 0 -40.5 -3.5t-26.5 -12t-14.5 -23.5t-4.5 -38v-583q0 -23 4.5 -38t14.5 -23.5t26.5 -12t40.5 -3.5h4v-25z" />
    <glyph glyph-name="I" unicode="&#xcd;" horiz-adv-x="448" 
d="M426 0h-404v25h4q24 0 40.5 3.5t26.5 12t14.5 23.5t4.5 38v583q0 23 -4.5 38t-14.5 23.5t-26.5 12t-40.5 3.5h-4v25h404v-25h-4q-24 0 -40.5 -3.5t-26.5 -12t-14.5 -23.5t-4.5 -38v-583q0 -23 4.5 -38t14.5 -23.5t26.5 -12t40.5 -3.5h4v-25z" />
    <glyph glyph-name="I" unicode="&#xcc;" horiz-adv-x="448" 
d="M426 0h-404v25h4q24 0 40.5 3.5t26.5 12t14.5 23.5t4.5 38v583q0 23 -4.5 38t-14.5 23.5t-26.5 12t-40.5 3.5h-4v25h404v-25h-4q-24 0 -40.5 -3.5t-26.5 -12t-14.5 -23.5t-4.5 -38v-583q0 -23 4.5 -38t14.5 -23.5t26.5 -12t40.5 -3.5h4v-25z" />
    <glyph glyph-name="J" unicode="J" horiz-adv-x="578" 
d="M258 685q0 23 -4.5 38t-14.5 23.5t-26.5 12t-40.5 3.5h-4v25h404v-25h-4q-24 0 -40.5 -3.5t-26.5 -12t-14.5 -23.5t-4.5 -38v-386q0 -57 -11 -113t-41 -100.5t-83 -72t-138 -27.5q-44 0 -82 8.5t-66 25t-44.5 40.5t-16.5 55q0 16 5 32.5t16 29t27 20.5t39 8t41 -9t30 -24
t19 -34.5t9 -40.5q1 -16 0.5 -31.5t0 -28t5 -20t15.5 -7.5q26 0 38.5 73.5t12.5 215.5v386v0z" />
    <glyph glyph-name="J" unicode="&#x134;" horiz-adv-x="578" 
d="M258 685q0 23 -4.5 38t-14.5 23.5t-26.5 12t-40.5 3.5h-4v25h404v-25h-4q-24 0 -40.5 -3.5t-26.5 -12t-14.5 -23.5t-4.5 -38v-386q0 -57 -11 -113t-41 -100.5t-83 -72t-138 -27.5q-44 0 -82 8.5t-66 25t-44.5 40.5t-16.5 55q0 16 5 32.5t16 29t27 20.5t39 8t41 -9t30 -24
t19 -34.5t9 -40.5q1 -16 0.5 -31.5t0 -28t5 -20t15.5 -7.5q26 0 38.5 73.5t12.5 215.5v386v0z" />
    <glyph glyph-name="K" unicode="K" horiz-adv-x="853" 
d="M426 0h-404v25h4q24 0 40.5 3.5t26.5 12t14.5 23.5t4.5 38v583q0 23 -4.5 38t-14.5 23.5t-26.5 12t-40.5 3.5h-4v25h404v-25h-4q-24 0 -40.5 -3.5t-26.5 -12t-14.5 -23.5t-4.5 -38v-304l199 240q34 40 46.5 67.5t9 43.5t-22.5 23t-48 7v25h308v-25q-22 0 -49 -4.5
t-58.5 -19.5t-66.5 -43t-73 -76l-77 -97l253 -419q46 -78 120 -78v-25h-328l-213 361v-259q0 -23 4.5 -38t14.5 -23.5t26.5 -12t40.5 -3.5h4v-25z" />
    <glyph glyph-name="K" unicode="&#x136;" horiz-adv-x="853" 
d="M426 0h-404v25h4q24 0 40.5 3.5t26.5 12t14.5 23.5t4.5 38v583q0 23 -4.5 38t-14.5 23.5t-26.5 12t-40.5 3.5h-4v25h404v-25h-4q-24 0 -40.5 -3.5t-26.5 -12t-14.5 -23.5t-4.5 -38v-304l199 240q34 40 46.5 67.5t9 43.5t-22.5 23t-48 7v25h308v-25q-22 0 -49 -4.5
t-58.5 -19.5t-66.5 -43t-73 -76l-77 -97l253 -419q46 -78 120 -78v-25h-328l-213 361v-259q0 -23 4.5 -38t14.5 -23.5t26.5 -12t40.5 -3.5h4v-25z" />
    <glyph glyph-name="L" unicode="L" horiz-adv-x="704" 
d="M422 762q-24 0 -40.5 -3.5t-26.5 -12t-14.5 -23.5t-4.5 -38v-589q0 -17 2 -29t9 -19.5t20.5 -10.5t36.5 -3h5q74 0 121 30t75.5 73.5t42 92t19.5 86.5h15v-316h-660v25h4q24 0 40.5 3.5t26.5 12t14.5 23.5t4.5 38v583q0 23 -4.5 38t-14.5 23.5t-26.5 12t-40.5 3.5h-4v25
h414v-25h-14z" />
    <glyph glyph-name="L" unicode="&#x141;" horiz-adv-x="704" 
d="M422 762q-24 0 -40.5 -3.5t-26.5 -12t-14.5 -23.5t-4.5 -38v-589q0 -17 2 -29t9 -19.5t20.5 -10.5t36.5 -3h5q74 0 121 30t75.5 73.5t42 92t19.5 86.5h15v-316h-660v25h4q24 0 40.5 3.5t26.5 12t14.5 23.5t4.5 38v583q0 23 -4.5 38t-14.5 23.5t-26.5 12t-40.5 3.5h-4v25
h414v-25h-14z" />
    <glyph glyph-name="L" unicode="&#x13f;" horiz-adv-x="704" 
d="M422 762q-24 0 -40.5 -3.5t-26.5 -12t-14.5 -23.5t-4.5 -38v-589q0 -17 2 -29t9 -19.5t20.5 -10.5t36.5 -3h5q74 0 121 30t75.5 73.5t42 92t19.5 86.5h15v-316h-660v25h4q24 0 40.5 3.5t26.5 12t14.5 23.5t4.5 38v583q0 23 -4.5 38t-14.5 23.5t-26.5 12t-40.5 3.5h-4v25
h414v-25h-14z" />
    <glyph glyph-name="L" unicode="&#x13d;" horiz-adv-x="704" 
d="M422 762q-24 0 -40.5 -3.5t-26.5 -12t-14.5 -23.5t-4.5 -38v-589q0 -17 2 -29t9 -19.5t20.5 -10.5t36.5 -3h5q74 0 121 30t75.5 73.5t42 92t19.5 86.5h15v-316h-660v25h4q24 0 40.5 3.5t26.5 12t14.5 23.5t4.5 38v583q0 23 -4.5 38t-14.5 23.5t-26.5 12t-40.5 3.5h-4v25
h414v-25h-14z" />
    <glyph glyph-name="L" unicode="&#x13b;" horiz-adv-x="704" 
d="M422 762q-24 0 -40.5 -3.5t-26.5 -12t-14.5 -23.5t-4.5 -38v-589q0 -17 2 -29t9 -19.5t20.5 -10.5t36.5 -3h5q74 0 121 30t75.5 73.5t42 92t19.5 86.5h15v-316h-660v25h4q24 0 40.5 3.5t26.5 12t14.5 23.5t4.5 38v583q0 23 -4.5 38t-14.5 23.5t-26.5 12t-40.5 3.5h-4v25
h414v-25h-14z" />
    <glyph glyph-name="L" unicode="&#x139;" horiz-adv-x="704" 
d="M422 762q-24 0 -40.5 -3.5t-26.5 -12t-14.5 -23.5t-4.5 -38v-589q0 -17 2 -29t9 -19.5t20.5 -10.5t36.5 -3h5q74 0 121 30t75.5 73.5t42 92t19.5 86.5h15v-316h-660v25h4q24 0 40.5 3.5t26.5 12t14.5 23.5t4.5 38v583q0 23 -4.5 38t-14.5 23.5t-26.5 12t-40.5 3.5h-4v25
h414v-25h-14z" />
    <glyph glyph-name="M" unicode="M" horiz-adv-x="1060" 
d="M961 90q1 -32 18 -48.5t70 -16.5h3v-25h-404v25h5q52 0 69.5 14.5t15.5 40.5l-32 554l-238 -644h-13l-275 629l-13 -413q-2 -55 7.5 -90t26.5 -55.5t41 -28t52 -7.5h2v-25h-308v25h3q28 0 51.5 8t41 28.5t28.5 55.5t13 89l20 465q2 48 -24 69.5t-79 21.5v25h311l196 -464
l171 464h303v-25q-51 0 -74.5 -21t-21.5 -60l34 -591v0z" />
    <glyph glyph-name="N" unicode="N" horiz-adv-x="864" 
d="M747 0h-108l-467 606v-387q0 -100 28.5 -147t99.5 -47h9v-25h-310v25h4q71 0 99.5 47t28.5 147v440q-21 35 -47.5 64t-64.5 39v25h298l389 -505v286q0 100 -28.5 147t-99.5 47h-9v25h310v-25h-4q-71 0 -99.5 -47t-28.5 -147v-568z" />
    <glyph glyph-name="N" unicode="&#x14a;" horiz-adv-x="864" 
d="M747 0h-108l-467 606v-387q0 -100 28.5 -147t99.5 -47h9v-25h-310v25h4q71 0 99.5 47t28.5 147v440q-21 35 -47.5 64t-64.5 39v25h298l389 -505v286q0 100 -28.5 147t-99.5 47h-9v25h310v-25h-4q-71 0 -99.5 -47t-28.5 -147v-568z" />
    <glyph glyph-name="N" unicode="&#x147;" horiz-adv-x="864" 
d="M747 0h-108l-467 606v-387q0 -100 28.5 -147t99.5 -47h9v-25h-310v25h4q71 0 99.5 47t28.5 147v440q-21 35 -47.5 64t-64.5 39v25h298l389 -505v286q0 100 -28.5 147t-99.5 47h-9v25h310v-25h-4q-71 0 -99.5 -47t-28.5 -147v-568z" />
    <glyph glyph-name="N" unicode="&#x145;" horiz-adv-x="864" 
d="M747 0h-108l-467 606v-387q0 -100 28.5 -147t99.5 -47h9v-25h-310v25h4q71 0 99.5 47t28.5 147v440q-21 35 -47.5 64t-64.5 39v25h298l389 -505v286q0 100 -28.5 147t-99.5 47h-9v25h310v-25h-4q-71 0 -99.5 -47t-28.5 -147v-568z" />
    <glyph glyph-name="N" unicode="&#x143;" horiz-adv-x="864" 
d="M747 0h-108l-467 606v-387q0 -100 28.5 -147t99.5 -47h9v-25h-310v25h4q71 0 99.5 47t28.5 147v440q-21 35 -47.5 64t-64.5 39v25h298l389 -505v286q0 100 -28.5 147t-99.5 47h-9v25h310v-25h-4q-71 0 -99.5 -47t-28.5 -147v-568z" />
    <glyph glyph-name="N" unicode="&#xd1;" horiz-adv-x="864" 
d="M747 0h-108l-467 606v-387q0 -100 28.5 -147t99.5 -47h9v-25h-310v25h4q71 0 99.5 47t28.5 147v440q-21 35 -47.5 64t-64.5 39v25h298l389 -505v286q0 100 -28.5 147t-99.5 47h-9v25h310v-25h-4q-71 0 -99.5 -47t-28.5 -147v-568z" />
    <glyph glyph-name="O" unicode="O" horiz-adv-x="900" 
d="M622 395q0 107 -10.5 180t-31.5 117.5t-53.5 64t-76.5 19.5t-76.5 -19.5t-53.5 -64t-31.5 -117.5t-10.5 -180t10.5 -179.5t31.5 -117t53.5 -64t76.5 -19.5t76.5 19.5t53.5 64t31.5 117t10.5 179.5zM864 395q0 -98 -28.5 -174t-82 -128t-130.5 -79.5t-173 -27.5t-173 27.5
t-130.5 79.5t-82 128t-28.5 174q0 97 28.5 173.5t82 129t130.5 80t173 27.5t173 -27.5t130.5 -80t82 -129t28.5 -173.5z" />
    <glyph glyph-name="O" unicode="&#x1ecc;" horiz-adv-x="900" 
d="M622 395q0 107 -10.5 180t-31.5 117.5t-53.5 64t-76.5 19.5t-76.5 -19.5t-53.5 -64t-31.5 -117.5t-10.5 -180t10.5 -179.5t31.5 -117t53.5 -64t76.5 -19.5t76.5 19.5t53.5 64t31.5 117t10.5 179.5zM864 395q0 -98 -28.5 -174t-82 -128t-130.5 -79.5t-173 -27.5t-173 27.5
t-130.5 79.5t-82 128t-28.5 174q0 97 28.5 173.5t82 129t130.5 80t173 27.5t173 -27.5t130.5 -80t82 -129t28.5 -173.5z" />
    <glyph glyph-name="O" unicode="&#x152;" horiz-adv-x="900" 
d="M622 395q0 107 -10.5 180t-31.5 117.5t-53.5 64t-76.5 19.5t-76.5 -19.5t-53.5 -64t-31.5 -117.5t-10.5 -180t10.5 -179.5t31.5 -117t53.5 -64t76.5 -19.5t76.5 19.5t53.5 64t31.5 117t10.5 179.5zM864 395q0 -98 -28.5 -174t-82 -128t-130.5 -79.5t-173 -27.5t-173 27.5
t-130.5 79.5t-82 128t-28.5 174q0 97 28.5 173.5t82 129t130.5 80t173 27.5t173 -27.5t130.5 -80t82 -129t28.5 -173.5z" />
    <glyph glyph-name="O" unicode="&#x150;" horiz-adv-x="900" 
d="M622 395q0 107 -10.5 180t-31.5 117.5t-53.5 64t-76.5 19.5t-76.5 -19.5t-53.5 -64t-31.5 -117.5t-10.5 -180t10.5 -179.5t31.5 -117t53.5 -64t76.5 -19.5t76.5 19.5t53.5 64t31.5 117t10.5 179.5zM864 395q0 -98 -28.5 -174t-82 -128t-130.5 -79.5t-173 -27.5t-173 27.5
t-130.5 79.5t-82 128t-28.5 174q0 97 28.5 173.5t82 129t130.5 80t173 27.5t173 -27.5t130.5 -80t82 -129t28.5 -173.5z" />
    <glyph glyph-name="O" unicode="&#x14e;" horiz-adv-x="900" 
d="M622 395q0 107 -10.5 180t-31.5 117.5t-53.5 64t-76.5 19.5t-76.5 -19.5t-53.5 -64t-31.5 -117.5t-10.5 -180t10.5 -179.5t31.5 -117t53.5 -64t76.5 -19.5t76.5 19.5t53.5 64t31.5 117t10.5 179.5zM864 395q0 -98 -28.5 -174t-82 -128t-130.5 -79.5t-173 -27.5t-173 27.5
t-130.5 79.5t-82 128t-28.5 174q0 97 28.5 173.5t82 129t130.5 80t173 27.5t173 -27.5t130.5 -80t82 -129t28.5 -173.5z" />
    <glyph glyph-name="O" unicode="&#x14c;" horiz-adv-x="900" 
d="M622 395q0 107 -10.5 180t-31.5 117.5t-53.5 64t-76.5 19.5t-76.5 -19.5t-53.5 -64t-31.5 -117.5t-10.5 -180t10.5 -179.5t31.5 -117t53.5 -64t76.5 -19.5t76.5 19.5t53.5 64t31.5 117t10.5 179.5zM864 395q0 -98 -28.5 -174t-82 -128t-130.5 -79.5t-173 -27.5t-173 27.5
t-130.5 79.5t-82 128t-28.5 174q0 97 28.5 173.5t82 129t130.5 80t173 27.5t173 -27.5t130.5 -80t82 -129t28.5 -173.5z" />
    <glyph glyph-name="O" unicode="&#xd8;" horiz-adv-x="900" 
d="M622 395q0 107 -10.5 180t-31.5 117.5t-53.5 64t-76.5 19.5t-76.5 -19.5t-53.5 -64t-31.5 -117.5t-10.5 -180t10.5 -179.5t31.5 -117t53.5 -64t76.5 -19.5t76.5 19.5t53.5 64t31.5 117t10.5 179.5zM864 395q0 -98 -28.5 -174t-82 -128t-130.5 -79.5t-173 -27.5t-173 27.5
t-130.5 79.5t-82 128t-28.5 174q0 97 28.5 173.5t82 129t130.5 80t173 27.5t173 -27.5t130.5 -80t82 -129t28.5 -173.5z" />
    <glyph glyph-name="O" unicode="&#xd6;" horiz-adv-x="900" 
d="M622 395q0 107 -10.5 180t-31.5 117.5t-53.5 64t-76.5 19.5t-76.5 -19.5t-53.5 -64t-31.5 -117.5t-10.5 -180t10.5 -179.5t31.5 -117t53.5 -64t76.5 -19.5t76.5 19.5t53.5 64t31.5 117t10.5 179.5zM864 395q0 -98 -28.5 -174t-82 -128t-130.5 -79.5t-173 -27.5t-173 27.5
t-130.5 79.5t-82 128t-28.5 174q0 97 28.5 173.5t82 129t130.5 80t173 27.5t173 -27.5t130.5 -80t82 -129t28.5 -173.5z" />
    <glyph glyph-name="O" unicode="&#xd5;" horiz-adv-x="900" 
d="M622 395q0 107 -10.5 180t-31.5 117.5t-53.5 64t-76.5 19.5t-76.5 -19.5t-53.5 -64t-31.5 -117.5t-10.5 -180t10.5 -179.5t31.5 -117t53.5 -64t76.5 -19.5t76.5 19.5t53.5 64t31.5 117t10.5 179.5zM864 395q0 -98 -28.5 -174t-82 -128t-130.5 -79.5t-173 -27.5t-173 27.5
t-130.5 79.5t-82 128t-28.5 174q0 97 28.5 173.5t82 129t130.5 80t173 27.5t173 -27.5t130.5 -80t82 -129t28.5 -173.5z" />
    <glyph glyph-name="O" unicode="&#xd4;" horiz-adv-x="900" 
d="M622 395q0 107 -10.5 180t-31.5 117.5t-53.5 64t-76.5 19.5t-76.5 -19.5t-53.5 -64t-31.5 -117.5t-10.5 -180t10.5 -179.5t31.5 -117t53.5 -64t76.5 -19.5t76.5 19.5t53.5 64t31.5 117t10.5 179.5zM864 395q0 -98 -28.5 -174t-82 -128t-130.5 -79.5t-173 -27.5t-173 27.5
t-130.5 79.5t-82 128t-28.5 174q0 97 28.5 173.5t82 129t130.5 80t173 27.5t173 -27.5t130.5 -80t82 -129t28.5 -173.5z" />
    <glyph glyph-name="O" unicode="&#xd3;" horiz-adv-x="900" 
d="M622 395q0 107 -10.5 180t-31.5 117.5t-53.5 64t-76.5 19.5t-76.5 -19.5t-53.5 -64t-31.5 -117.5t-10.5 -180t10.5 -179.5t31.5 -117t53.5 -64t76.5 -19.5t76.5 19.5t53.5 64t31.5 117t10.5 179.5zM864 395q0 -98 -28.5 -174t-82 -128t-130.5 -79.5t-173 -27.5t-173 27.5
t-130.5 79.5t-82 128t-28.5 174q0 97 28.5 173.5t82 129t130.5 80t173 27.5t173 -27.5t130.5 -80t82 -129t28.5 -173.5z" />
    <glyph glyph-name="O" unicode="&#xd2;" horiz-adv-x="900" 
d="M622 395q0 107 -10.5 180t-31.5 117.5t-53.5 64t-76.5 19.5t-76.5 -19.5t-53.5 -64t-31.5 -117.5t-10.5 -180t10.5 -179.5t31.5 -117t53.5 -64t76.5 -19.5t76.5 19.5t53.5 64t31.5 117t10.5 179.5zM864 395q0 -98 -28.5 -174t-82 -128t-130.5 -79.5t-173 -27.5t-173 27.5
t-130.5 79.5t-82 128t-28.5 174q0 97 28.5 173.5t82 129t130.5 80t173 27.5t173 -27.5t130.5 -80t82 -129t28.5 -173.5z" />
    <glyph glyph-name="P" unicode="P" horiz-adv-x="735" 
d="M336 382q7 -4 16 -6.5t21 -2.5q48 0 82 46.5t34 134.5q0 55 -11 92.5t-31 61t-47.5 34t-60.5 10.5h-3v-370zM22 787h314q76 0 145.5 -9t123 -33.5t85 -68.5t31.5 -113q0 -62 -23 -106t-61.5 -71.5t-88 -40.5t-102.5 -13q-42 0 -67.5 6t-42.5 12v-248q0 -23 4.5 -38
t14.5 -23.5t26.5 -12t40.5 -3.5h14v-25h-414v25h4q24 0 40.5 3.5t26.5 12t14.5 23.5t4.5 38v583q0 23 -4.5 38t-14.5 23.5t-26.5 12t-40.5 3.5h-4v25z" />
    <glyph glyph-name="P" unicode="&#xde;" horiz-adv-x="735" 
d="M336 382q7 -4 16 -6.5t21 -2.5q48 0 82 46.5t34 134.5q0 55 -11 92.5t-31 61t-47.5 34t-60.5 10.5h-3v-370zM22 787h314q76 0 145.5 -9t123 -33.5t85 -68.5t31.5 -113q0 -62 -23 -106t-61.5 -71.5t-88 -40.5t-102.5 -13q-42 0 -67.5 6t-42.5 12v-248q0 -23 4.5 -38
t14.5 -23.5t26.5 -12t40.5 -3.5h14v-25h-414v25h4q24 0 40.5 3.5t26.5 12t14.5 23.5t4.5 38v583q0 23 -4.5 38t-14.5 23.5t-26.5 12t-40.5 3.5h-4v25z" />
    <glyph glyph-name="Q" unicode="Q" horiz-adv-x="900" 
d="M437 -13q-93 2 -167.5 30t-126.5 80t-79.5 127t-27.5 171q0 97 28.5 173.5t82 129t130.5 80t173 27.5t173 -27.5t130.5 -80t82 -129t28.5 -173.5q0 -120 -42.5 -206.5t-120.5 -137.5l124 -230l-8 -9zM622 395q0 107 -10.5 180t-31.5 117.5t-53.5 64t-76.5 19.5
t-76.5 -19.5t-53.5 -64t-31.5 -117.5t-10.5 -180t10.5 -179.5t31.5 -117t53.5 -64t76.5 -19.5t76.5 19.5t53.5 64t31.5 117t10.5 179.5z" />
    <glyph glyph-name="R" unicode="R" horiz-adv-x="839" 
d="M336 406h2q30 0 58 7.5t49 28t33.5 55t12.5 88.5q0 91 -41 129t-110 38h-4v-346zM336 102q0 -23 4.5 -38t14.5 -23.5t26.5 -12t40.5 -3.5h4v-25h-404v25h4q24 0 40.5 3.5t26.5 12t14.5 23.5t4.5 38v583q0 23 -4.5 38t-14.5 23.5t-26.5 12t-40.5 3.5h-4v25h323
q77 0 145.5 -6t120 -26.5t81.5 -59t30 -102.5q0 -90 -77 -143.5t-212 -63.5q50 -1 96.5 -11.5t83.5 -30t62 -48.5t32 -67l7 -37q10 -51 21.5 -82t29.5 -49t44.5 -25.5t64.5 -10.5l1 -22q-25 -6 -45 -9t-37 -5t-33.5 -2.5t-33.5 -0.5q-114 0 -175 52t-72 146l-7 59
q-3 25 -15.5 47.5t-30.5 39t-41 26t-47 9.5h-2v-263z" />
    <glyph glyph-name="R" unicode="&#x158;" horiz-adv-x="839" 
d="M336 406h2q30 0 58 7.5t49 28t33.5 55t12.5 88.5q0 91 -41 129t-110 38h-4v-346zM336 102q0 -23 4.5 -38t14.5 -23.5t26.5 -12t40.5 -3.5h4v-25h-404v25h4q24 0 40.5 3.5t26.5 12t14.5 23.5t4.5 38v583q0 23 -4.5 38t-14.5 23.5t-26.5 12t-40.5 3.5h-4v25h323
q77 0 145.5 -6t120 -26.5t81.5 -59t30 -102.5q0 -90 -77 -143.5t-212 -63.5q50 -1 96.5 -11.5t83.5 -30t62 -48.5t32 -67l7 -37q10 -51 21.5 -82t29.5 -49t44.5 -25.5t64.5 -10.5l1 -22q-25 -6 -45 -9t-37 -5t-33.5 -2.5t-33.5 -0.5q-114 0 -175 52t-72 146l-7 59
q-3 25 -15.5 47.5t-30.5 39t-41 26t-47 9.5h-2v-263z" />
    <glyph glyph-name="R" unicode="&#x156;" horiz-adv-x="839" 
d="M336 406h2q30 0 58 7.5t49 28t33.5 55t12.5 88.5q0 91 -41 129t-110 38h-4v-346zM336 102q0 -23 4.5 -38t14.5 -23.5t26.5 -12t40.5 -3.5h4v-25h-404v25h4q24 0 40.5 3.5t26.5 12t14.5 23.5t4.5 38v583q0 23 -4.5 38t-14.5 23.5t-26.5 12t-40.5 3.5h-4v25h323
q77 0 145.5 -6t120 -26.5t81.5 -59t30 -102.5q0 -90 -77 -143.5t-212 -63.5q50 -1 96.5 -11.5t83.5 -30t62 -48.5t32 -67l7 -37q10 -51 21.5 -82t29.5 -49t44.5 -25.5t64.5 -10.5l1 -22q-25 -6 -45 -9t-37 -5t-33.5 -2.5t-33.5 -0.5q-114 0 -175 52t-72 146l-7 59
q-3 25 -15.5 47.5t-30.5 39t-41 26t-47 9.5h-2v-263z" />
    <glyph glyph-name="R" unicode="&#x154;" horiz-adv-x="839" 
d="M336 406h2q30 0 58 7.5t49 28t33.5 55t12.5 88.5q0 91 -41 129t-110 38h-4v-346zM336 102q0 -23 4.5 -38t14.5 -23.5t26.5 -12t40.5 -3.5h4v-25h-404v25h4q24 0 40.5 3.5t26.5 12t14.5 23.5t4.5 38v583q0 23 -4.5 38t-14.5 23.5t-26.5 12t-40.5 3.5h-4v25h323
q77 0 145.5 -6t120 -26.5t81.5 -59t30 -102.5q0 -90 -77 -143.5t-212 -63.5q50 -1 96.5 -11.5t83.5 -30t62 -48.5t32 -67l7 -37q10 -51 21.5 -82t29.5 -49t44.5 -25.5t64.5 -10.5l1 -22q-25 -6 -45 -9t-37 -5t-33.5 -2.5t-33.5 -0.5q-114 0 -175 52t-72 146l-7 59
q-3 25 -15.5 47.5t-30.5 39t-41 26t-47 9.5h-2v-263z" />
    <glyph glyph-name="S" unicode="S" horiz-adv-x="680" 
d="M304 20q33 0 58 11.5t42.5 30.5t26 43.5t8.5 50.5q0 52 -28.5 82.5t-88.5 50.5l-75 26q-62 21 -99.5 50.5t-58.5 62t-28 67t-7 66.5q0 61 22.5 107t62.5 76t94.5 45t118.5 15q69 0 126 -13.5t114 -42.5v-243h-16q-14 73 -39 124t-54.5 82.5t-60.5 45.5t-57 14
q-59 0 -93.5 -35.5t-34.5 -89.5q0 -51 27 -87t77 -55l91 -34q43 -16 81.5 -35.5t67.5 -46t46 -62.5t17 -85q0 -65 -26.5 -112.5t-71.5 -79.5t-105 -47.5t-128 -15.5q-66 0 -130 14t-128 46v256h15q19 -90 48 -145t61 -85.5t64.5 -41t60.5 -10.5z" />
    <glyph glyph-name="S" unicode="&#x218;" horiz-adv-x="680" 
d="M304 20q33 0 58 11.5t42.5 30.5t26 43.5t8.5 50.5q0 52 -28.5 82.5t-88.5 50.5l-75 26q-62 21 -99.5 50.5t-58.5 62t-28 67t-7 66.5q0 61 22.5 107t62.5 76t94.5 45t118.5 15q69 0 126 -13.5t114 -42.5v-243h-16q-14 73 -39 124t-54.5 82.5t-60.5 45.5t-57 14
q-59 0 -93.5 -35.5t-34.5 -89.5q0 -51 27 -87t77 -55l91 -34q43 -16 81.5 -35.5t67.5 -46t46 -62.5t17 -85q0 -65 -26.5 -112.5t-71.5 -79.5t-105 -47.5t-128 -15.5q-66 0 -130 14t-128 46v256h15q19 -90 48 -145t61 -85.5t64.5 -41t60.5 -10.5z" />
    <glyph glyph-name="S" unicode="&#x160;" horiz-adv-x="680" 
d="M304 20q33 0 58 11.5t42.5 30.5t26 43.5t8.5 50.5q0 52 -28.5 82.5t-88.5 50.5l-75 26q-62 21 -99.5 50.5t-58.5 62t-28 67t-7 66.5q0 61 22.5 107t62.5 76t94.5 45t118.5 15q69 0 126 -13.5t114 -42.5v-243h-16q-14 73 -39 124t-54.5 82.5t-60.5 45.5t-57 14
q-59 0 -93.5 -35.5t-34.5 -89.5q0 -51 27 -87t77 -55l91 -34q43 -16 81.5 -35.5t67.5 -46t46 -62.5t17 -85q0 -65 -26.5 -112.5t-71.5 -79.5t-105 -47.5t-128 -15.5q-66 0 -130 14t-128 46v256h15q19 -90 48 -145t61 -85.5t64.5 -41t60.5 -10.5z" />
    <glyph glyph-name="S" unicode="&#x15e;" horiz-adv-x="680" 
d="M304 20q33 0 58 11.5t42.5 30.5t26 43.5t8.5 50.5q0 52 -28.5 82.5t-88.5 50.5l-75 26q-62 21 -99.5 50.5t-58.5 62t-28 67t-7 66.5q0 61 22.5 107t62.5 76t94.5 45t118.5 15q69 0 126 -13.5t114 -42.5v-243h-16q-14 73 -39 124t-54.5 82.5t-60.5 45.5t-57 14
q-59 0 -93.5 -35.5t-34.5 -89.5q0 -51 27 -87t77 -55l91 -34q43 -16 81.5 -35.5t67.5 -46t46 -62.5t17 -85q0 -65 -26.5 -112.5t-71.5 -79.5t-105 -47.5t-128 -15.5q-66 0 -130 14t-128 46v256h15q19 -90 48 -145t61 -85.5t64.5 -41t60.5 -10.5z" />
    <glyph glyph-name="S" unicode="&#x15c;" horiz-adv-x="680" 
d="M304 20q33 0 58 11.5t42.5 30.5t26 43.5t8.5 50.5q0 52 -28.5 82.5t-88.5 50.5l-75 26q-62 21 -99.5 50.5t-58.5 62t-28 67t-7 66.5q0 61 22.5 107t62.5 76t94.5 45t118.5 15q69 0 126 -13.5t114 -42.5v-243h-16q-14 73 -39 124t-54.5 82.5t-60.5 45.5t-57 14
q-59 0 -93.5 -35.5t-34.5 -89.5q0 -51 27 -87t77 -55l91 -34q43 -16 81.5 -35.5t67.5 -46t46 -62.5t17 -85q0 -65 -26.5 -112.5t-71.5 -79.5t-105 -47.5t-128 -15.5q-66 0 -130 14t-128 46v256h15q19 -90 48 -145t61 -85.5t64.5 -41t60.5 -10.5z" />
    <glyph glyph-name="S" unicode="&#x15a;" horiz-adv-x="680" 
d="M304 20q33 0 58 11.5t42.5 30.5t26 43.5t8.5 50.5q0 52 -28.5 82.5t-88.5 50.5l-75 26q-62 21 -99.5 50.5t-58.5 62t-28 67t-7 66.5q0 61 22.5 107t62.5 76t94.5 45t118.5 15q69 0 126 -13.5t114 -42.5v-243h-16q-14 73 -39 124t-54.5 82.5t-60.5 45.5t-57 14
q-59 0 -93.5 -35.5t-34.5 -89.5q0 -51 27 -87t77 -55l91 -34q43 -16 81.5 -35.5t67.5 -46t46 -62.5t17 -85q0 -65 -26.5 -112.5t-71.5 -79.5t-105 -47.5t-128 -15.5q-66 0 -130 14t-128 46v256h15q19 -90 48 -145t61 -85.5t64.5 -41t60.5 -10.5z" />
    <glyph glyph-name="T" unicode="T" horiz-adv-x="784" 
d="M504 112q0 -23 4.5 -39.5t18 -27t39 -15.5t66.5 -5h2v-25h-484v25h2q41 0 66.5 5t39 15.5t18 27t4.5 39.5v637h-13q-53 0 -93.5 -20.5t-69 -53.5t-46 -73t-24.5 -79h-15v264h746v-264h-15q-8 39 -25 79t-45.5 73t-69 53.5t-93.5 20.5h-13v-637v0z" />
    <glyph glyph-name="T" unicode="&#x21a;" horiz-adv-x="784" 
d="M504 112q0 -23 4.5 -39.5t18 -27t39 -15.5t66.5 -5h2v-25h-484v25h2q41 0 66.5 5t39 15.5t18 27t4.5 39.5v637h-13q-53 0 -93.5 -20.5t-69 -53.5t-46 -73t-24.5 -79h-15v264h746v-264h-15q-8 39 -25 79t-45.5 73t-69 53.5t-93.5 20.5h-13v-637v0z" />
    <glyph glyph-name="T" unicode="&#x166;" horiz-adv-x="784" 
d="M504 112q0 -23 4.5 -39.5t18 -27t39 -15.5t66.5 -5h2v-25h-484v25h2q41 0 66.5 5t39 15.5t18 27t4.5 39.5v637h-13q-53 0 -93.5 -20.5t-69 -53.5t-46 -73t-24.5 -79h-15v264h746v-264h-15q-8 39 -25 79t-45.5 73t-69 53.5t-93.5 20.5h-13v-637v0z" />
    <glyph glyph-name="T" unicode="&#x164;" horiz-adv-x="784" 
d="M504 112q0 -23 4.5 -39.5t18 -27t39 -15.5t66.5 -5h2v-25h-484v25h2q41 0 66.5 5t39 15.5t18 27t4.5 39.5v637h-13q-53 0 -93.5 -20.5t-69 -53.5t-46 -73t-24.5 -79h-15v264h746v-264h-15q-8 39 -25 79t-45.5 73t-69 53.5t-93.5 20.5h-13v-637v0z" />
    <glyph glyph-name="T" unicode="&#x162;" horiz-adv-x="784" 
d="M504 112q0 -23 4.5 -39.5t18 -27t39 -15.5t66.5 -5h2v-25h-484v25h2q41 0 66.5 5t39 15.5t18 27t4.5 39.5v637h-13q-53 0 -93.5 -20.5t-69 -53.5t-46 -73t-24.5 -79h-15v264h746v-264h-15q-8 39 -25 79t-45.5 73t-69 53.5t-93.5 20.5h-13v-637v0z" />
    <glyph glyph-name="U" unicode="U" horiz-adv-x="874" 
d="M740 318q0 -170 -73.5 -251t-227.5 -81q-162 0 -249 83.5t-87 238.5v377q0 23 -4.5 38t-14.5 23.5t-26.5 12t-40.5 3.5h-4v25h404v-25h-4q-24 0 -40.5 -3.5t-26.5 -12t-14.5 -23.5t-4.5 -38v-387q0 -124 47 -182.5t133 -58.5q93 0 142.5 65.5t49.5 195.5v250
q0 100 -28.5 147t-99.5 47h-4v25h305v-25h-4q-71 0 -99.5 -47t-28.5 -147v-250z" />
    <glyph glyph-name="U" unicode="&#x1ee4;" horiz-adv-x="874" 
d="M740 318q0 -170 -73.5 -251t-227.5 -81q-162 0 -249 83.5t-87 238.5v377q0 23 -4.5 38t-14.5 23.5t-26.5 12t-40.5 3.5h-4v25h404v-25h-4q-24 0 -40.5 -3.5t-26.5 -12t-14.5 -23.5t-4.5 -38v-387q0 -124 47 -182.5t133 -58.5q93 0 142.5 65.5t49.5 195.5v250
q0 100 -28.5 147t-99.5 47h-4v25h305v-25h-4q-71 0 -99.5 -47t-28.5 -147v-250z" />
    <glyph glyph-name="U" unicode="&#x172;" horiz-adv-x="874" 
d="M740 318q0 -170 -73.5 -251t-227.5 -81q-162 0 -249 83.5t-87 238.5v377q0 23 -4.5 38t-14.5 23.5t-26.5 12t-40.5 3.5h-4v25h404v-25h-4q-24 0 -40.5 -3.5t-26.5 -12t-14.5 -23.5t-4.5 -38v-387q0 -124 47 -182.5t133 -58.5q93 0 142.5 65.5t49.5 195.5v250
q0 100 -28.5 147t-99.5 47h-4v25h305v-25h-4q-71 0 -99.5 -47t-28.5 -147v-250z" />
    <glyph glyph-name="U" unicode="&#x170;" horiz-adv-x="874" 
d="M740 318q0 -170 -73.5 -251t-227.5 -81q-162 0 -249 83.5t-87 238.5v377q0 23 -4.5 38t-14.5 23.5t-26.5 12t-40.5 3.5h-4v25h404v-25h-4q-24 0 -40.5 -3.5t-26.5 -12t-14.5 -23.5t-4.5 -38v-387q0 -124 47 -182.5t133 -58.5q93 0 142.5 65.5t49.5 195.5v250
q0 100 -28.5 147t-99.5 47h-4v25h305v-25h-4q-71 0 -99.5 -47t-28.5 -147v-250z" />
    <glyph glyph-name="U" unicode="&#x16e;" horiz-adv-x="874" 
d="M740 318q0 -170 -73.5 -251t-227.5 -81q-162 0 -249 83.5t-87 238.5v377q0 23 -4.5 38t-14.5 23.5t-26.5 12t-40.5 3.5h-4v25h404v-25h-4q-24 0 -40.5 -3.5t-26.5 -12t-14.5 -23.5t-4.5 -38v-387q0 -124 47 -182.5t133 -58.5q93 0 142.5 65.5t49.5 195.5v250
q0 100 -28.5 147t-99.5 47h-4v25h305v-25h-4q-71 0 -99.5 -47t-28.5 -147v-250z" />
    <glyph glyph-name="U" unicode="&#x16c;" horiz-adv-x="874" 
d="M740 318q0 -170 -73.5 -251t-227.5 -81q-162 0 -249 83.5t-87 238.5v377q0 23 -4.5 38t-14.5 23.5t-26.5 12t-40.5 3.5h-4v25h404v-25h-4q-24 0 -40.5 -3.5t-26.5 -12t-14.5 -23.5t-4.5 -38v-387q0 -124 47 -182.5t133 -58.5q93 0 142.5 65.5t49.5 195.5v250
q0 100 -28.5 147t-99.5 47h-4v25h305v-25h-4q-71 0 -99.5 -47t-28.5 -147v-250z" />
    <glyph glyph-name="U" unicode="&#x16a;" horiz-adv-x="874" 
d="M740 318q0 -170 -73.5 -251t-227.5 -81q-162 0 -249 83.5t-87 238.5v377q0 23 -4.5 38t-14.5 23.5t-26.5 12t-40.5 3.5h-4v25h404v-25h-4q-24 0 -40.5 -3.5t-26.5 -12t-14.5 -23.5t-4.5 -38v-387q0 -124 47 -182.5t133 -58.5q93 0 142.5 65.5t49.5 195.5v250
q0 100 -28.5 147t-99.5 47h-4v25h305v-25h-4q-71 0 -99.5 -47t-28.5 -147v-250z" />
    <glyph glyph-name="U" unicode="&#x168;" horiz-adv-x="874" 
d="M740 318q0 -170 -73.5 -251t-227.5 -81q-162 0 -249 83.5t-87 238.5v377q0 23 -4.5 38t-14.5 23.5t-26.5 12t-40.5 3.5h-4v25h404v-25h-4q-24 0 -40.5 -3.5t-26.5 -12t-14.5 -23.5t-4.5 -38v-387q0 -124 47 -182.5t133 -58.5q93 0 142.5 65.5t49.5 195.5v250
q0 100 -28.5 147t-99.5 47h-4v25h305v-25h-4q-71 0 -99.5 -47t-28.5 -147v-250z" />
    <glyph glyph-name="U" unicode="&#xdc;" horiz-adv-x="874" 
d="M740 318q0 -170 -73.5 -251t-227.5 -81q-162 0 -249 83.5t-87 238.5v377q0 23 -4.5 38t-14.5 23.5t-26.5 12t-40.5 3.5h-4v25h404v-25h-4q-24 0 -40.5 -3.5t-26.5 -12t-14.5 -23.5t-4.5 -38v-387q0 -124 47 -182.5t133 -58.5q93 0 142.5 65.5t49.5 195.5v250
q0 100 -28.5 147t-99.5 47h-4v25h305v-25h-4q-71 0 -99.5 -47t-28.5 -147v-250z" />
    <glyph glyph-name="U" unicode="&#xdb;" horiz-adv-x="874" 
d="M740 318q0 -170 -73.5 -251t-227.5 -81q-162 0 -249 83.5t-87 238.5v377q0 23 -4.5 38t-14.5 23.5t-26.5 12t-40.5 3.5h-4v25h404v-25h-4q-24 0 -40.5 -3.5t-26.5 -12t-14.5 -23.5t-4.5 -38v-387q0 -124 47 -182.5t133 -58.5q93 0 142.5 65.5t49.5 195.5v250
q0 100 -28.5 147t-99.5 47h-4v25h305v-25h-4q-71 0 -99.5 -47t-28.5 -147v-250z" />
    <glyph glyph-name="U" unicode="&#xda;" horiz-adv-x="874" 
d="M740 318q0 -170 -73.5 -251t-227.5 -81q-162 0 -249 83.5t-87 238.5v377q0 23 -4.5 38t-14.5 23.5t-26.5 12t-40.5 3.5h-4v25h404v-25h-4q-24 0 -40.5 -3.5t-26.5 -12t-14.5 -23.5t-4.5 -38v-387q0 -124 47 -182.5t133 -58.5q93 0 142.5 65.5t49.5 195.5v250
q0 100 -28.5 147t-99.5 47h-4v25h305v-25h-4q-71 0 -99.5 -47t-28.5 -147v-250z" />
    <glyph glyph-name="U" unicode="&#xd9;" horiz-adv-x="874" 
d="M740 318q0 -170 -73.5 -251t-227.5 -81q-162 0 -249 83.5t-87 238.5v377q0 23 -4.5 38t-14.5 23.5t-26.5 12t-40.5 3.5h-4v25h404v-25h-4q-24 0 -40.5 -3.5t-26.5 -12t-14.5 -23.5t-4.5 -38v-387q0 -124 47 -182.5t133 -58.5q93 0 142.5 65.5t49.5 195.5v250
q0 100 -28.5 147t-99.5 47h-4v25h305v-25h-4q-71 0 -99.5 -47t-28.5 -147v-250z" />
    <glyph glyph-name="V" unicode="V" horiz-adv-x="804" 
d="M457 0h-111l-239 690q-14 41 -41 56.5t-69 15.5h-1v25h428v-25h-2q-23 0 -40 -2.5t-27.5 -11.5t-12 -26t7.5 -45l145 -458l127 374q31 91 19.5 130t-71.5 39h-2v25h240v-25h-2q-41 0 -77 -37t-68 -131z" />
    <glyph glyph-name="W" unicode="W" horiz-adv-x="1104" 
d="M937 559q13 44 19.5 81.5t3.5 64.5t-17.5 42t-44.5 15h-3v25h215v-25l-7 -1q-41 -6 -72 -59t-57 -144l-157 -558h-101l-162 481l-164 -481h-101l-206 689q-12 41 -34 57t-46 16h-6v25h391v-25h-4q-21 0 -36 -2.5t-23 -11.5t-8.5 -26t7.5 -46l112 -422l159 458h101
l158 -445l83 292v0z" />
    <glyph glyph-name="W" unicode="&#x1e84;" horiz-adv-x="1104" 
d="M937 559q13 44 19.5 81.5t3.5 64.5t-17.5 42t-44.5 15h-3v25h215v-25l-7 -1q-41 -6 -72 -59t-57 -144l-157 -558h-101l-162 481l-164 -481h-101l-206 689q-12 41 -34 57t-46 16h-6v25h391v-25h-4q-21 0 -36 -2.5t-23 -11.5t-8.5 -26t7.5 -46l112 -422l159 458h101
l158 -445l83 292v0z" />
    <glyph glyph-name="W" unicode="&#x1e82;" horiz-adv-x="1104" 
d="M937 559q13 44 19.5 81.5t3.5 64.5t-17.5 42t-44.5 15h-3v25h215v-25l-7 -1q-41 -6 -72 -59t-57 -144l-157 -558h-101l-162 481l-164 -481h-101l-206 689q-12 41 -34 57t-46 16h-6v25h391v-25h-4q-21 0 -36 -2.5t-23 -11.5t-8.5 -26t7.5 -46l112 -422l159 458h101
l158 -445l83 292v0z" />
    <glyph glyph-name="W" unicode="&#x1e80;" horiz-adv-x="1104" 
d="M937 559q13 44 19.5 81.5t3.5 64.5t-17.5 42t-44.5 15h-3v25h215v-25l-7 -1q-41 -6 -72 -59t-57 -144l-157 -558h-101l-162 481l-164 -481h-101l-206 689q-12 41 -34 57t-46 16h-6v25h391v-25h-4q-21 0 -36 -2.5t-23 -11.5t-8.5 -26t7.5 -46l112 -422l159 458h101
l158 -445l83 292v0z" />
    <glyph glyph-name="W" unicode="&#x174;" horiz-adv-x="1104" 
d="M937 559q13 44 19.5 81.5t3.5 64.5t-17.5 42t-44.5 15h-3v25h215v-25l-7 -1q-41 -6 -72 -59t-57 -144l-157 -558h-101l-162 481l-164 -481h-101l-206 689q-12 41 -34 57t-46 16h-6v25h391v-25h-4q-21 0 -36 -2.5t-23 -11.5t-8.5 -26t7.5 -46l112 -422l159 458h101
l158 -445l83 292v0z" />
    <glyph glyph-name="X" unicode="X" horiz-adv-x="827" 
d="M352 314l-116 -150q-33 -43 -43.5 -70t-5.5 -42.5t22 -21t39 -5.5v-25h-268v25q21 0 43 4.5t47.5 20t56.5 45.5t71 81l133 173l-212 358q-15 26 -41.5 40.5t-66.5 14.5v25h421v-25h-3q-17 0 -31 -3.5t-21.5 -12t-7 -22.5t12.5 -35l92 -155l69 89q33 43 43.5 70t5.5 42.5
t-22 21t-39 5.5v25h268v-25q-21 0 -43 -4.5t-47.5 -20t-56.5 -45.5t-71 -81l-87 -112l254 -426q15 -26 41 -37t64 -11v-25h-422v25h3q18 0 33 2.5t23.5 8.5t9.5 16t-8 26z" />
    <glyph glyph-name="Y" unicode="Y" horiz-adv-x="826" 
d="M526 102q0 -23 4.5 -38t14.5 -23.5t26.5 -12t40.5 -3.5h4v-25h-404v25h4q24 0 40.5 3.5t26.5 12t14.5 23.5t4.5 38v213l-185 391q-13 26 -40.5 41t-65.5 15h-2v25h421v-25h-1q-18 0 -31.5 -3t-21 -11t-7.5 -22t10 -37l131 -311l101 235q24 56 29.5 86t-3.5 44t-30 16.5
t-50 2.5h-3v25h265v-25h-4q-18 0 -37.5 -3t-40 -17.5t-42.5 -45t-45 -85.5l-124 -293v-216v0z" />
    <glyph glyph-name="Y" unicode="&#x1ef2;" horiz-adv-x="826" 
d="M526 102q0 -23 4.5 -38t14.5 -23.5t26.5 -12t40.5 -3.5h4v-25h-404v25h4q24 0 40.5 3.5t26.5 12t14.5 23.5t4.5 38v213l-185 391q-13 26 -40.5 41t-65.5 15h-2v25h421v-25h-1q-18 0 -31.5 -3t-21 -11t-7.5 -22t10 -37l131 -311l101 235q24 56 29.5 86t-3.5 44t-30 16.5
t-50 2.5h-3v25h265v-25h-4q-18 0 -37.5 -3t-40 -17.5t-42.5 -45t-45 -85.5l-124 -293v-216v0z" />
    <glyph glyph-name="Y" unicode="&#x232;" horiz-adv-x="826" 
d="M526 102q0 -23 4.5 -38t14.5 -23.5t26.5 -12t40.5 -3.5h4v-25h-404v25h4q24 0 40.5 3.5t26.5 12t14.5 23.5t4.5 38v213l-185 391q-13 26 -40.5 41t-65.5 15h-2v25h421v-25h-1q-18 0 -31.5 -3t-21 -11t-7.5 -22t10 -37l131 -311l101 235q24 56 29.5 86t-3.5 44t-30 16.5
t-50 2.5h-3v25h265v-25h-4q-18 0 -37.5 -3t-40 -17.5t-42.5 -45t-45 -85.5l-124 -293v-216v0z" />
    <glyph glyph-name="Y" unicode="&#x178;" horiz-adv-x="826" 
d="M526 102q0 -23 4.5 -38t14.5 -23.5t26.5 -12t40.5 -3.5h4v-25h-404v25h4q24 0 40.5 3.5t26.5 12t14.5 23.5t4.5 38v213l-185 391q-13 26 -40.5 41t-65.5 15h-2v25h421v-25h-1q-18 0 -31.5 -3t-21 -11t-7.5 -22t10 -37l131 -311l101 235q24 56 29.5 86t-3.5 44t-30 16.5
t-50 2.5h-3v25h265v-25h-4q-18 0 -37.5 -3t-40 -17.5t-42.5 -45t-45 -85.5l-124 -293v-216v0z" />
    <glyph glyph-name="Y" unicode="&#x176;" horiz-adv-x="826" 
d="M526 102q0 -23 4.5 -38t14.5 -23.5t26.5 -12t40.5 -3.5h4v-25h-404v25h4q24 0 40.5 3.5t26.5 12t14.5 23.5t4.5 38v213l-185 391q-13 26 -40.5 41t-65.5 15h-2v25h421v-25h-1q-18 0 -31.5 -3t-21 -11t-7.5 -22t10 -37l131 -311l101 235q24 56 29.5 86t-3.5 44t-30 16.5
t-50 2.5h-3v25h265v-25h-4q-18 0 -37.5 -3t-40 -17.5t-42.5 -45t-45 -85.5l-124 -293v-216v0z" />
    <glyph glyph-name="Y" unicode="&#xdd;" horiz-adv-x="826" 
d="M526 102q0 -23 4.5 -38t14.5 -23.5t26.5 -12t40.5 -3.5h4v-25h-404v25h4q24 0 40.5 3.5t26.5 12t14.5 23.5t4.5 38v213l-185 391q-13 26 -40.5 41t-65.5 15h-2v25h421v-25h-1q-18 0 -31.5 -3t-21 -11t-7.5 -22t10 -37l131 -311l101 235q24 56 29.5 86t-3.5 44t-30 16.5
t-50 2.5h-3v25h265v-25h-4q-18 0 -37.5 -3t-40 -17.5t-42.5 -45t-45 -85.5l-124 -293v-216v0z" />
    <glyph glyph-name="Z" unicode="Z" horiz-adv-x="698" 
d="M-5 0l428 746h-104q-72 0 -116.5 -21.5t-70.5 -53.5t-37 -70.5t-15 -71.5h-15v258h609l-423 -746h166q60 0 102.5 20t69.5 51.5t40.5 71t17.5 78.5h15v-262h-667z" />
    <glyph glyph-name="Z" unicode="&#x17d;" horiz-adv-x="698" 
d="M-5 0l428 746h-104q-72 0 -116.5 -21.5t-70.5 -53.5t-37 -70.5t-15 -71.5h-15v258h609l-423 -746h166q60 0 102.5 20t69.5 51.5t40.5 71t17.5 78.5h15v-262h-667z" />
    <glyph glyph-name="Z" unicode="&#x17b;" horiz-adv-x="698" 
d="M-5 0l428 746h-104q-72 0 -116.5 -21.5t-70.5 -53.5t-37 -70.5t-15 -71.5h-15v258h609l-423 -746h166q60 0 102.5 20t69.5 51.5t40.5 71t17.5 78.5h15v-262h-667z" />
    <glyph glyph-name="Z" unicode="&#x179;" horiz-adv-x="698" 
d="M-5 0l428 746h-104q-72 0 -116.5 -21.5t-70.5 -53.5t-37 -70.5t-15 -71.5h-15v258h609l-423 -746h166q60 0 102.5 20t69.5 51.5t40.5 71t17.5 78.5h15v-262h-667z" />
    <glyph glyph-name="a" unicode="a" horiz-adv-x="574" 
d="M489 120q-1 -37 12 -51.5t31 -14.5q14 0 26 6t23 16l8 -7q-20 -42 -63.5 -62.5t-93.5 -20.5q-49 0 -86 17t-52 57q-24 -38 -59.5 -56t-78.5 -18q-62 0 -100 35.5t-38 95.5q0 30 14.5 56.5t47 47t83.5 33t125 14.5v129q0 48 -7 69.5t-24 21.5q-14 0 -20.5 -8.5t-8.5 -22.5
q-1 -8 -1 -17v-19q0 -18 -2.5 -36.5t-12.5 -34t-27.5 -25t-47.5 -9.5q-20 0 -34.5 7.5t-23.5 18.5t-13.5 25t-4.5 27q0 30 18.5 51t48.5 35t68.5 20.5t79.5 6.5q48 0 88 -7.5t68.5 -25t43.5 -45.5t15 -70zM209 140q0 -41 12.5 -60t32.5 -19t34 11v181q-25 -8 -40.5 -20.5
t-24 -27.5t-11.5 -32t-3 -33z" />
    <glyph glyph-name="a" unicode="&#x105;" horiz-adv-x="574" 
d="M489 120q-1 -37 12 -51.5t31 -14.5q14 0 26 6t23 16l8 -7q-20 -42 -63.5 -62.5t-93.5 -20.5q-49 0 -86 17t-52 57q-24 -38 -59.5 -56t-78.5 -18q-62 0 -100 35.5t-38 95.5q0 30 14.5 56.5t47 47t83.5 33t125 14.5v129q0 48 -7 69.5t-24 21.5q-14 0 -20.5 -8.5t-8.5 -22.5
q-1 -8 -1 -17v-19q0 -18 -2.5 -36.5t-12.5 -34t-27.5 -25t-47.5 -9.5q-20 0 -34.5 7.5t-23.5 18.5t-13.5 25t-4.5 27q0 30 18.5 51t48.5 35t68.5 20.5t79.5 6.5q48 0 88 -7.5t68.5 -25t43.5 -45.5t15 -70zM209 140q0 -41 12.5 -60t32.5 -19t34 11v181q-25 -8 -40.5 -20.5
t-24 -27.5t-11.5 -32t-3 -33z" />
    <glyph glyph-name="a" unicode="&#x103;" horiz-adv-x="574" 
d="M489 120q-1 -37 12 -51.5t31 -14.5q14 0 26 6t23 16l8 -7q-20 -42 -63.5 -62.5t-93.5 -20.5q-49 0 -86 17t-52 57q-24 -38 -59.5 -56t-78.5 -18q-62 0 -100 35.5t-38 95.5q0 30 14.5 56.5t47 47t83.5 33t125 14.5v129q0 48 -7 69.5t-24 21.5q-14 0 -20.5 -8.5t-8.5 -22.5
q-1 -8 -1 -17v-19q0 -18 -2.5 -36.5t-12.5 -34t-27.5 -25t-47.5 -9.5q-20 0 -34.5 7.5t-23.5 18.5t-13.5 25t-4.5 27q0 30 18.5 51t48.5 35t68.5 20.5t79.5 6.5q48 0 88 -7.5t68.5 -25t43.5 -45.5t15 -70zM209 140q0 -41 12.5 -60t32.5 -19t34 11v181q-25 -8 -40.5 -20.5
t-24 -27.5t-11.5 -32t-3 -33z" />
    <glyph glyph-name="a" unicode="&#x101;" horiz-adv-x="574" 
d="M489 120q-1 -37 12 -51.5t31 -14.5q14 0 26 6t23 16l8 -7q-20 -42 -63.5 -62.5t-93.5 -20.5q-49 0 -86 17t-52 57q-24 -38 -59.5 -56t-78.5 -18q-62 0 -100 35.5t-38 95.5q0 30 14.5 56.5t47 47t83.5 33t125 14.5v129q0 48 -7 69.5t-24 21.5q-14 0 -20.5 -8.5t-8.5 -22.5
q-1 -8 -1 -17v-19q0 -18 -2.5 -36.5t-12.5 -34t-27.5 -25t-47.5 -9.5q-20 0 -34.5 7.5t-23.5 18.5t-13.5 25t-4.5 27q0 30 18.5 51t48.5 35t68.5 20.5t79.5 6.5q48 0 88 -7.5t68.5 -25t43.5 -45.5t15 -70zM209 140q0 -41 12.5 -60t32.5 -19t34 11v181q-25 -8 -40.5 -20.5
t-24 -27.5t-11.5 -32t-3 -33z" />
    <glyph glyph-name="a" unicode="&#xe6;" horiz-adv-x="574" 
d="M489 120q-1 -37 12 -51.5t31 -14.5q14 0 26 6t23 16l8 -7q-20 -42 -63.5 -62.5t-93.5 -20.5q-49 0 -86 17t-52 57q-24 -38 -59.5 -56t-78.5 -18q-62 0 -100 35.5t-38 95.5q0 30 14.5 56.5t47 47t83.5 33t125 14.5v129q0 48 -7 69.5t-24 21.5q-14 0 -20.5 -8.5t-8.5 -22.5
q-1 -8 -1 -17v-19q0 -18 -2.5 -36.5t-12.5 -34t-27.5 -25t-47.5 -9.5q-20 0 -34.5 7.5t-23.5 18.5t-13.5 25t-4.5 27q0 30 18.5 51t48.5 35t68.5 20.5t79.5 6.5q48 0 88 -7.5t68.5 -25t43.5 -45.5t15 -70zM209 140q0 -41 12.5 -60t32.5 -19t34 11v181q-25 -8 -40.5 -20.5
t-24 -27.5t-11.5 -32t-3 -33z" />
    <glyph glyph-name="a" unicode="&#xe5;" horiz-adv-x="574" 
d="M489 120q-1 -37 12 -51.5t31 -14.5q14 0 26 6t23 16l8 -7q-20 -42 -63.5 -62.5t-93.5 -20.5q-49 0 -86 17t-52 57q-24 -38 -59.5 -56t-78.5 -18q-62 0 -100 35.5t-38 95.5q0 30 14.5 56.5t47 47t83.5 33t125 14.5v129q0 48 -7 69.5t-24 21.5q-14 0 -20.5 -8.5t-8.5 -22.5
q-1 -8 -1 -17v-19q0 -18 -2.5 -36.5t-12.5 -34t-27.5 -25t-47.5 -9.5q-20 0 -34.5 7.5t-23.5 18.5t-13.5 25t-4.5 27q0 30 18.5 51t48.5 35t68.5 20.5t79.5 6.5q48 0 88 -7.5t68.5 -25t43.5 -45.5t15 -70zM209 140q0 -41 12.5 -60t32.5 -19t34 11v181q-25 -8 -40.5 -20.5
t-24 -27.5t-11.5 -32t-3 -33z" />
    <glyph glyph-name="a" unicode="&#xe4;" horiz-adv-x="574" 
d="M489 120q-1 -37 12 -51.5t31 -14.5q14 0 26 6t23 16l8 -7q-20 -42 -63.5 -62.5t-93.5 -20.5q-49 0 -86 17t-52 57q-24 -38 -59.5 -56t-78.5 -18q-62 0 -100 35.5t-38 95.5q0 30 14.5 56.5t47 47t83.5 33t125 14.5v129q0 48 -7 69.5t-24 21.5q-14 0 -20.5 -8.5t-8.5 -22.5
q-1 -8 -1 -17v-19q0 -18 -2.5 -36.5t-12.5 -34t-27.5 -25t-47.5 -9.5q-20 0 -34.5 7.5t-23.5 18.5t-13.5 25t-4.5 27q0 30 18.5 51t48.5 35t68.5 20.5t79.5 6.5q48 0 88 -7.5t68.5 -25t43.5 -45.5t15 -70zM209 140q0 -41 12.5 -60t32.5 -19t34 11v181q-25 -8 -40.5 -20.5
t-24 -27.5t-11.5 -32t-3 -33z" />
    <glyph glyph-name="a" unicode="&#xe3;" horiz-adv-x="574" 
d="M489 120q-1 -37 12 -51.5t31 -14.5q14 0 26 6t23 16l8 -7q-20 -42 -63.5 -62.5t-93.5 -20.5q-49 0 -86 17t-52 57q-24 -38 -59.5 -56t-78.5 -18q-62 0 -100 35.5t-38 95.5q0 30 14.5 56.5t47 47t83.5 33t125 14.5v129q0 48 -7 69.5t-24 21.5q-14 0 -20.5 -8.5t-8.5 -22.5
q-1 -8 -1 -17v-19q0 -18 -2.5 -36.5t-12.5 -34t-27.5 -25t-47.5 -9.5q-20 0 -34.5 7.5t-23.5 18.5t-13.5 25t-4.5 27q0 30 18.5 51t48.5 35t68.5 20.5t79.5 6.5q48 0 88 -7.5t68.5 -25t43.5 -45.5t15 -70zM209 140q0 -41 12.5 -60t32.5 -19t34 11v181q-25 -8 -40.5 -20.5
t-24 -27.5t-11.5 -32t-3 -33z" />
    <glyph glyph-name="a" unicode="&#xe2;" horiz-adv-x="574" 
d="M489 120q-1 -37 12 -51.5t31 -14.5q14 0 26 6t23 16l8 -7q-20 -42 -63.5 -62.5t-93.5 -20.5q-49 0 -86 17t-52 57q-24 -38 -59.5 -56t-78.5 -18q-62 0 -100 35.5t-38 95.5q0 30 14.5 56.5t47 47t83.5 33t125 14.5v129q0 48 -7 69.5t-24 21.5q-14 0 -20.5 -8.5t-8.5 -22.5
q-1 -8 -1 -17v-19q0 -18 -2.5 -36.5t-12.5 -34t-27.5 -25t-47.5 -9.5q-20 0 -34.5 7.5t-23.5 18.5t-13.5 25t-4.5 27q0 30 18.5 51t48.5 35t68.5 20.5t79.5 6.5q48 0 88 -7.5t68.5 -25t43.5 -45.5t15 -70zM209 140q0 -41 12.5 -60t32.5 -19t34 11v181q-25 -8 -40.5 -20.5
t-24 -27.5t-11.5 -32t-3 -33z" />
    <glyph glyph-name="a" unicode="&#xe1;" horiz-adv-x="574" 
d="M489 120q-1 -37 12 -51.5t31 -14.5q14 0 26 6t23 16l8 -7q-20 -42 -63.5 -62.5t-93.5 -20.5q-49 0 -86 17t-52 57q-24 -38 -59.5 -56t-78.5 -18q-62 0 -100 35.5t-38 95.5q0 30 14.5 56.5t47 47t83.5 33t125 14.5v129q0 48 -7 69.5t-24 21.5q-14 0 -20.5 -8.5t-8.5 -22.5
q-1 -8 -1 -17v-19q0 -18 -2.5 -36.5t-12.5 -34t-27.5 -25t-47.5 -9.5q-20 0 -34.5 7.5t-23.5 18.5t-13.5 25t-4.5 27q0 30 18.5 51t48.5 35t68.5 20.5t79.5 6.5q48 0 88 -7.5t68.5 -25t43.5 -45.5t15 -70zM209 140q0 -41 12.5 -60t32.5 -19t34 11v181q-25 -8 -40.5 -20.5
t-24 -27.5t-11.5 -32t-3 -33z" />
    <glyph glyph-name="a" unicode="&#xe0;" horiz-adv-x="574" 
d="M489 120q-1 -37 12 -51.5t31 -14.5q14 0 26 6t23 16l8 -7q-20 -42 -63.5 -62.5t-93.5 -20.5q-49 0 -86 17t-52 57q-24 -38 -59.5 -56t-78.5 -18q-62 0 -100 35.5t-38 95.5q0 30 14.5 56.5t47 47t83.5 33t125 14.5v129q0 48 -7 69.5t-24 21.5q-14 0 -20.5 -8.5t-8.5 -22.5
q-1 -8 -1 -17v-19q0 -18 -2.5 -36.5t-12.5 -34t-27.5 -25t-47.5 -9.5q-20 0 -34.5 7.5t-23.5 18.5t-13.5 25t-4.5 27q0 30 18.5 51t48.5 35t68.5 20.5t79.5 6.5q48 0 88 -7.5t68.5 -25t43.5 -45.5t15 -70zM209 140q0 -41 12.5 -60t32.5 -19t34 11v181q-25 -8 -40.5 -20.5
t-24 -27.5t-11.5 -32t-3 -33z" />
    <glyph glyph-name="b" unicode="b" horiz-adv-x="683" 
d="M298 430q53 80 144 80q48 0 87 -19t67.5 -54t44 -83.5t15.5 -106.5q0 -57 -15.5 -105t-43.5 -82.5t-66 -54t-84 -19.5q-45 0 -84 20t-65 58v-64h-291v25h2q27 0 42 5.5t22.5 15.5t9.5 24.5t2 32.5v581q0 18 -2 32.5t-9.5 24.5t-22.5 15.5t-42 5.5h-2v25h369v-25h-2
q-27 0 -42 -5.5t-22.5 -15.5t-9.5 -24.5t-2 -32.5v-254zM344 429q-29 0 -46 -11v-344q19 -9 46 -9q20 0 37 13.5t29 38t19 58t7 72.5q0 82 -25 132t-67 50z" />
    <glyph glyph-name="c" unicode="c" horiz-adv-x="524" 
d="M429 312q-25 0 -43 8t-29.5 20.5t-17.5 29t-7 33.5q-2 15 -1.5 29.5t-1 26t-7 18t-18.5 6.5q-11 0 -21.5 -13t-19 -36t-13.5 -56t-5 -73q0 -51 7 -95t23 -75.5t41 -49.5t60 -18q38 0 68 21t55 58l11 -6q-29 -74 -80.5 -114t-138.5 -40q-65 0 -114.5 20t-83 55t-50.5 83
t-17 104q0 57 18 104.5t53.5 82t88 53.5t121.5 19q40 0 76 -8t63 -23.5t43 -37.5t16 -49q0 -12 -4.5 -25.5t-13.5 -25t-23.5 -19t-34.5 -7.5z" />
    <glyph glyph-name="c" unicode="&#x10d;" horiz-adv-x="524" 
d="M429 312q-25 0 -43 8t-29.5 20.5t-17.5 29t-7 33.5q-2 15 -1.5 29.5t-1 26t-7 18t-18.5 6.5q-11 0 -21.5 -13t-19 -36t-13.5 -56t-5 -73q0 -51 7 -95t23 -75.5t41 -49.5t60 -18q38 0 68 21t55 58l11 -6q-29 -74 -80.5 -114t-138.5 -40q-65 0 -114.5 20t-83 55t-50.5 83
t-17 104q0 57 18 104.5t53.5 82t88 53.5t121.5 19q40 0 76 -8t63 -23.5t43 -37.5t16 -49q0 -12 -4.5 -25.5t-13.5 -25t-23.5 -19t-34.5 -7.5z" />
    <glyph glyph-name="c" unicode="&#x10b;" horiz-adv-x="524" 
d="M429 312q-25 0 -43 8t-29.5 20.5t-17.5 29t-7 33.5q-2 15 -1.5 29.5t-1 26t-7 18t-18.5 6.5q-11 0 -21.5 -13t-19 -36t-13.5 -56t-5 -73q0 -51 7 -95t23 -75.5t41 -49.5t60 -18q38 0 68 21t55 58l11 -6q-29 -74 -80.5 -114t-138.5 -40q-65 0 -114.5 20t-83 55t-50.5 83
t-17 104q0 57 18 104.5t53.5 82t88 53.5t121.5 19q40 0 76 -8t63 -23.5t43 -37.5t16 -49q0 -12 -4.5 -25.5t-13.5 -25t-23.5 -19t-34.5 -7.5z" />
    <glyph glyph-name="c" unicode="&#x109;" horiz-adv-x="524" 
d="M429 312q-25 0 -43 8t-29.5 20.5t-17.5 29t-7 33.5q-2 15 -1.5 29.5t-1 26t-7 18t-18.5 6.5q-11 0 -21.5 -13t-19 -36t-13.5 -56t-5 -73q0 -51 7 -95t23 -75.5t41 -49.5t60 -18q38 0 68 21t55 58l11 -6q-29 -74 -80.5 -114t-138.5 -40q-65 0 -114.5 20t-83 55t-50.5 83
t-17 104q0 57 18 104.5t53.5 82t88 53.5t121.5 19q40 0 76 -8t63 -23.5t43 -37.5t16 -49q0 -12 -4.5 -25.5t-13.5 -25t-23.5 -19t-34.5 -7.5z" />
    <glyph glyph-name="c" unicode="&#x107;" horiz-adv-x="524" 
d="M429 312q-25 0 -43 8t-29.5 20.5t-17.5 29t-7 33.5q-2 15 -1.5 29.5t-1 26t-7 18t-18.5 6.5q-11 0 -21.5 -13t-19 -36t-13.5 -56t-5 -73q0 -51 7 -95t23 -75.5t41 -49.5t60 -18q38 0 68 21t55 58l11 -6q-29 -74 -80.5 -114t-138.5 -40q-65 0 -114.5 20t-83 55t-50.5 83
t-17 104q0 57 18 104.5t53.5 82t88 53.5t121.5 19q40 0 76 -8t63 -23.5t43 -37.5t16 -49q0 -12 -4.5 -25.5t-13.5 -25t-23.5 -19t-34.5 -7.5z" />
    <glyph glyph-name="c" unicode="&#xe7;" horiz-adv-x="524" 
d="M429 312q-25 0 -43 8t-29.5 20.5t-17.5 29t-7 33.5q-2 15 -1.5 29.5t-1 26t-7 18t-18.5 6.5q-11 0 -21.5 -13t-19 -36t-13.5 -56t-5 -73q0 -51 7 -95t23 -75.5t41 -49.5t60 -18q38 0 68 21t55 58l11 -6q-29 -74 -80.5 -114t-138.5 -40q-65 0 -114.5 20t-83 55t-50.5 83
t-17 104q0 57 18 104.5t53.5 82t88 53.5t121.5 19q40 0 76 -8t63 -23.5t43 -37.5t16 -49q0 -12 -4.5 -25.5t-13.5 -25t-23.5 -19t-34.5 -7.5z" />
    <glyph glyph-name="d" unicode="d" horiz-adv-x="680" 
d="M385 0v63q-28 -38 -66.5 -57.5t-82.5 -19.5q-46 0 -84.5 19.5t-66 54t-43 82.5t-15.5 105q0 58 16 106t45 83t69 54.5t88 19.5q44 0 77.5 -19t62.5 -61v254q0 18 -2 32.5t-9.5 24.5t-22.5 15.5t-42 5.5h-12v25h379v-25h-2q-27 0 -42 -5.5t-22.5 -15.5t-9.5 -24.5
t-2 -32.5v-581q0 -18 2 -32.5t9.5 -24.5t22.5 -15.5t42 -5.5h2v-25h-291zM339 65q26 0 46 10v343q-21 11 -46 11q-44 0 -68 -50t-24 -132q0 -39 6.5 -72.5t18.5 -58t29 -38t38 -13.5z" />
    <glyph glyph-name="d" unicode="&#x111;" horiz-adv-x="680" 
d="M385 0v63q-28 -38 -66.5 -57.5t-82.5 -19.5q-46 0 -84.5 19.5t-66 54t-43 82.5t-15.5 105q0 58 16 106t45 83t69 54.5t88 19.5q44 0 77.5 -19t62.5 -61v254q0 18 -2 32.5t-9.5 24.5t-22.5 15.5t-42 5.5h-12v25h379v-25h-2q-27 0 -42 -5.5t-22.5 -15.5t-9.5 -24.5
t-2 -32.5v-581q0 -18 2 -32.5t9.5 -24.5t22.5 -15.5t42 -5.5h2v-25h-291zM339 65q26 0 46 10v343q-21 11 -46 11q-44 0 -68 -50t-24 -132q0 -39 6.5 -72.5t18.5 -58t29 -38t38 -13.5z" />
    <glyph glyph-name="d" unicode="&#x10f;" horiz-adv-x="680" 
d="M385 0v63q-28 -38 -66.5 -57.5t-82.5 -19.5q-46 0 -84.5 19.5t-66 54t-43 82.5t-15.5 105q0 58 16 106t45 83t69 54.5t88 19.5q44 0 77.5 -19t62.5 -61v254q0 18 -2 32.5t-9.5 24.5t-22.5 15.5t-42 5.5h-12v25h379v-25h-2q-27 0 -42 -5.5t-22.5 -15.5t-9.5 -24.5
t-2 -32.5v-581q0 -18 2 -32.5t9.5 -24.5t22.5 -15.5t42 -5.5h2v-25h-291zM339 65q26 0 46 10v343q-21 11 -46 11q-44 0 -68 -50t-24 -132q0 -39 6.5 -72.5t18.5 -58t29 -38t38 -13.5z" />
    <glyph glyph-name="d" unicode="&#xf0;" horiz-adv-x="680" 
d="M385 0v63q-28 -38 -66.5 -57.5t-82.5 -19.5q-46 0 -84.5 19.5t-66 54t-43 82.5t-15.5 105q0 58 16 106t45 83t69 54.5t88 19.5q44 0 77.5 -19t62.5 -61v254q0 18 -2 32.5t-9.5 24.5t-22.5 15.5t-42 5.5h-12v25h379v-25h-2q-27 0 -42 -5.5t-22.5 -15.5t-9.5 -24.5
t-2 -32.5v-581q0 -18 2 -32.5t9.5 -24.5t22.5 -15.5t42 -5.5h2v-25h-291zM339 65q26 0 46 10v343q-21 11 -46 11q-44 0 -68 -50t-24 -132q0 -39 6.5 -72.5t18.5 -58t29 -38t38 -13.5z" />
    <glyph glyph-name="e" unicode="e" horiz-adv-x="548" 
d="M245 296v-14q0 -59 11.5 -99.5t31 -66t44.5 -37t52 -11.5q39 0 71 21t61 59l11 -6q-30 -73 -84 -114.5t-141 -41.5q-67 0 -118.5 20t-86.5 55t-53 84t-18 107q0 55 18.5 102t53.5 81t85.5 53t113.5 19q52 0 93 -16.5t70 -45.5t46 -67.5t22 -81.5h-283zM298 484
q-20 0 -34.5 -38t-17.5 -119h89q0 30 -1 58.5t-4.5 50t-11 35t-20.5 13.5z" />
    <glyph glyph-name="e" unicode="&#x11b;" horiz-adv-x="548" 
d="M245 296v-14q0 -59 11.5 -99.5t31 -66t44.5 -37t52 -11.5q39 0 71 21t61 59l11 -6q-30 -73 -84 -114.5t-141 -41.5q-67 0 -118.5 20t-86.5 55t-53 84t-18 107q0 55 18.5 102t53.5 81t85.5 53t113.5 19q52 0 93 -16.5t70 -45.5t46 -67.5t22 -81.5h-283zM298 484
q-20 0 -34.5 -38t-17.5 -119h89q0 30 -1 58.5t-4.5 50t-11 35t-20.5 13.5z" />
    <glyph glyph-name="e" unicode="&#x119;" horiz-adv-x="548" 
d="M245 296v-14q0 -59 11.5 -99.5t31 -66t44.5 -37t52 -11.5q39 0 71 21t61 59l11 -6q-30 -73 -84 -114.5t-141 -41.5q-67 0 -118.5 20t-86.5 55t-53 84t-18 107q0 55 18.5 102t53.5 81t85.5 53t113.5 19q52 0 93 -16.5t70 -45.5t46 -67.5t22 -81.5h-283zM298 484
q-20 0 -34.5 -38t-17.5 -119h89q0 30 -1 58.5t-4.5 50t-11 35t-20.5 13.5z" />
    <glyph glyph-name="e" unicode="&#x117;" horiz-adv-x="548" 
d="M245 296v-14q0 -59 11.5 -99.5t31 -66t44.5 -37t52 -11.5q39 0 71 21t61 59l11 -6q-30 -73 -84 -114.5t-141 -41.5q-67 0 -118.5 20t-86.5 55t-53 84t-18 107q0 55 18.5 102t53.5 81t85.5 53t113.5 19q52 0 93 -16.5t70 -45.5t46 -67.5t22 -81.5h-283zM298 484
q-20 0 -34.5 -38t-17.5 -119h89q0 30 -1 58.5t-4.5 50t-11 35t-20.5 13.5z" />
    <glyph glyph-name="e" unicode="&#x115;" horiz-adv-x="548" 
d="M245 296v-14q0 -59 11.5 -99.5t31 -66t44.5 -37t52 -11.5q39 0 71 21t61 59l11 -6q-30 -73 -84 -114.5t-141 -41.5q-67 0 -118.5 20t-86.5 55t-53 84t-18 107q0 55 18.5 102t53.5 81t85.5 53t113.5 19q52 0 93 -16.5t70 -45.5t46 -67.5t22 -81.5h-283zM298 484
q-20 0 -34.5 -38t-17.5 -119h89q0 30 -1 58.5t-4.5 50t-11 35t-20.5 13.5z" />
    <glyph glyph-name="e" unicode="&#x113;" horiz-adv-x="548" 
d="M245 296v-14q0 -59 11.5 -99.5t31 -66t44.5 -37t52 -11.5q39 0 71 21t61 59l11 -6q-30 -73 -84 -114.5t-141 -41.5q-67 0 -118.5 20t-86.5 55t-53 84t-18 107q0 55 18.5 102t53.5 81t85.5 53t113.5 19q52 0 93 -16.5t70 -45.5t46 -67.5t22 -81.5h-283zM298 484
q-20 0 -34.5 -38t-17.5 -119h89q0 30 -1 58.5t-4.5 50t-11 35t-20.5 13.5z" />
    <glyph glyph-name="e" unicode="&#xeb;" horiz-adv-x="548" 
d="M245 296v-14q0 -59 11.5 -99.5t31 -66t44.5 -37t52 -11.5q39 0 71 21t61 59l11 -6q-30 -73 -84 -114.5t-141 -41.5q-67 0 -118.5 20t-86.5 55t-53 84t-18 107q0 55 18.5 102t53.5 81t85.5 53t113.5 19q52 0 93 -16.5t70 -45.5t46 -67.5t22 -81.5h-283zM298 484
q-20 0 -34.5 -38t-17.5 -119h89q0 30 -1 58.5t-4.5 50t-11 35t-20.5 13.5z" />
    <glyph glyph-name="e" unicode="&#xea;" horiz-adv-x="548" 
d="M245 296v-14q0 -59 11.5 -99.5t31 -66t44.5 -37t52 -11.5q39 0 71 21t61 59l11 -6q-30 -73 -84 -114.5t-141 -41.5q-67 0 -118.5 20t-86.5 55t-53 84t-18 107q0 55 18.5 102t53.5 81t85.5 53t113.5 19q52 0 93 -16.5t70 -45.5t46 -67.5t22 -81.5h-283zM298 484
q-20 0 -34.5 -38t-17.5 -119h89q0 30 -1 58.5t-4.5 50t-11 35t-20.5 13.5z" />
    <glyph glyph-name="e" unicode="&#xe9;" horiz-adv-x="548" 
d="M245 296v-14q0 -59 11.5 -99.5t31 -66t44.5 -37t52 -11.5q39 0 71 21t61 59l11 -6q-30 -73 -84 -114.5t-141 -41.5q-67 0 -118.5 20t-86.5 55t-53 84t-18 107q0 55 18.5 102t53.5 81t85.5 53t113.5 19q52 0 93 -16.5t70 -45.5t46 -67.5t22 -81.5h-283zM298 484
q-20 0 -34.5 -38t-17.5 -119h89q0 30 -1 58.5t-4.5 50t-11 35t-20.5 13.5z" />
    <glyph glyph-name="e" unicode="&#xe8;" horiz-adv-x="548" 
d="M245 296v-14q0 -59 11.5 -99.5t31 -66t44.5 -37t52 -11.5q39 0 71 21t61 59l11 -6q-30 -73 -84 -114.5t-141 -41.5q-67 0 -118.5 20t-86.5 55t-53 84t-18 107q0 55 18.5 102t53.5 81t85.5 53t113.5 19q52 0 93 -16.5t70 -45.5t46 -67.5t22 -81.5h-283zM298 484
q-20 0 -34.5 -38t-17.5 -119h89q0 30 -1 58.5t-4.5 50t-11 35t-20.5 13.5z" />
    <glyph glyph-name="f" unicode="f" horiz-adv-x="447" 
d="M14 484h79v62q0 68 19 116.5t52.5 79t79.5 44.5t100 14q42 0 78.5 -8t64.5 -23.5t44 -37.5t16 -49q0 -12 -4.5 -27t-14 -28.5t-24.5 -22.5t-36 -9q-47 0 -70.5 26.5t-27.5 69.5q-2 16 -1 32t0.5 28.5t-5.5 20t-18 7.5t-21 -13t-12 -40.5t-5.5 -71t-1.5 -105.5v-65h136
v-36h-136v-345q0 -18 2.5 -32.5t11.5 -24.5t26 -15.5t46 -5.5h32v-25h-409v25h2q27 0 42 5.5t22.5 15.5t9.5 24.5t2 32.5v345h-79v36z" />
    <glyph glyph-name="g" unicode="g" horiz-adv-x="600" 
d="M281 503q35 0 65.5 -5t57.5 -14h205v-55l-146 24q63 -48 63 -122q0 -79 -59.5 -125.5t-185.5 -46.5h-19.5t-19.5 2q-17 -11 -24 -19.5t-7 -19.5q0 -14 17.5 -24t66.5 -10h44q54 0 99.5 -8.5t79.5 -26.5t53 -46t19 -67q0 -50 -26 -88t-69 -64.5t-99 -40t-117 -13.5
q-67 0 -118.5 11t-86.5 29t-53 41t-18 46q0 15 11 27t35.5 22t64.5 16.5t99 11.5q-50 1 -83.5 11t-54 24.5t-29.5 32.5t-9 37q0 43 43.5 73.5t140.5 47.5q-38 7 -71 21.5t-58.5 36t-40 49t-14.5 60.5q0 79 59.5 125.5t184.5 46.5zM164 -153q0 -17 6 -33.5t20 -30t38.5 -22
t60.5 -8.5q29 0 54 6t44 19t29.5 32t10.5 46q0 44 -38 63t-95 19h-60q-30 -11 -50 -33.5t-20 -57.5zM336 331q0 23 -2 49.5t-8 49.5t-16.5 38.5t-28.5 15.5q-17 0 -27.5 -15.5t-16 -38.5t-7.5 -49.5t-2 -49.5q0 -22 2 -48.5t7.5 -50t16 -39t27.5 -15.5t28 15t17 37.5t8 49.5
t2 51z" />
    <glyph glyph-name="g" unicode="&#x123;" horiz-adv-x="600" 
d="M281 503q35 0 65.5 -5t57.5 -14h205v-55l-146 24q63 -48 63 -122q0 -79 -59.5 -125.5t-185.5 -46.5h-19.5t-19.5 2q-17 -11 -24 -19.5t-7 -19.5q0 -14 17.5 -24t66.5 -10h44q54 0 99.5 -8.5t79.5 -26.5t53 -46t19 -67q0 -50 -26 -88t-69 -64.5t-99 -40t-117 -13.5
q-67 0 -118.5 11t-86.5 29t-53 41t-18 46q0 15 11 27t35.5 22t64.5 16.5t99 11.5q-50 1 -83.5 11t-54 24.5t-29.5 32.5t-9 37q0 43 43.5 73.5t140.5 47.5q-38 7 -71 21.5t-58.5 36t-40 49t-14.5 60.5q0 79 59.5 125.5t184.5 46.5zM164 -153q0 -17 6 -33.5t20 -30t38.5 -22
t60.5 -8.5q29 0 54 6t44 19t29.5 32t10.5 46q0 44 -38 63t-95 19h-60q-30 -11 -50 -33.5t-20 -57.5zM336 331q0 23 -2 49.5t-8 49.5t-16.5 38.5t-28.5 15.5q-17 0 -27.5 -15.5t-16 -38.5t-7.5 -49.5t-2 -49.5q0 -22 2 -48.5t7.5 -50t16 -39t27.5 -15.5t28 15t17 37.5t8 49.5
t2 51z" />
    <glyph glyph-name="g" unicode="&#x121;" horiz-adv-x="600" 
d="M281 503q35 0 65.5 -5t57.5 -14h205v-55l-146 24q63 -48 63 -122q0 -79 -59.5 -125.5t-185.5 -46.5h-19.5t-19.5 2q-17 -11 -24 -19.5t-7 -19.5q0 -14 17.5 -24t66.5 -10h44q54 0 99.5 -8.5t79.5 -26.5t53 -46t19 -67q0 -50 -26 -88t-69 -64.5t-99 -40t-117 -13.5
q-67 0 -118.5 11t-86.5 29t-53 41t-18 46q0 15 11 27t35.5 22t64.5 16.5t99 11.5q-50 1 -83.5 11t-54 24.5t-29.5 32.5t-9 37q0 43 43.5 73.5t140.5 47.5q-38 7 -71 21.5t-58.5 36t-40 49t-14.5 60.5q0 79 59.5 125.5t184.5 46.5zM164 -153q0 -17 6 -33.5t20 -30t38.5 -22
t60.5 -8.5q29 0 54 6t44 19t29.5 32t10.5 46q0 44 -38 63t-95 19h-60q-30 -11 -50 -33.5t-20 -57.5zM336 331q0 23 -2 49.5t-8 49.5t-16.5 38.5t-28.5 15.5q-17 0 -27.5 -15.5t-16 -38.5t-7.5 -49.5t-2 -49.5q0 -22 2 -48.5t7.5 -50t16 -39t27.5 -15.5t28 15t17 37.5t8 49.5
t2 51z" />
    <glyph glyph-name="g" unicode="&#x11f;" horiz-adv-x="600" 
d="M281 503q35 0 65.5 -5t57.5 -14h205v-55l-146 24q63 -48 63 -122q0 -79 -59.5 -125.5t-185.5 -46.5h-19.5t-19.5 2q-17 -11 -24 -19.5t-7 -19.5q0 -14 17.5 -24t66.5 -10h44q54 0 99.5 -8.5t79.5 -26.5t53 -46t19 -67q0 -50 -26 -88t-69 -64.5t-99 -40t-117 -13.5
q-67 0 -118.5 11t-86.5 29t-53 41t-18 46q0 15 11 27t35.5 22t64.5 16.5t99 11.5q-50 1 -83.5 11t-54 24.5t-29.5 32.5t-9 37q0 43 43.5 73.5t140.5 47.5q-38 7 -71 21.5t-58.5 36t-40 49t-14.5 60.5q0 79 59.5 125.5t184.5 46.5zM164 -153q0 -17 6 -33.5t20 -30t38.5 -22
t60.5 -8.5q29 0 54 6t44 19t29.5 32t10.5 46q0 44 -38 63t-95 19h-60q-30 -11 -50 -33.5t-20 -57.5zM336 331q0 23 -2 49.5t-8 49.5t-16.5 38.5t-28.5 15.5q-17 0 -27.5 -15.5t-16 -38.5t-7.5 -49.5t-2 -49.5q0 -22 2 -48.5t7.5 -50t16 -39t27.5 -15.5t28 15t17 37.5t8 49.5
t2 51z" />
    <glyph glyph-name="g" unicode="&#x11d;" horiz-adv-x="600" 
d="M281 503q35 0 65.5 -5t57.5 -14h205v-55l-146 24q63 -48 63 -122q0 -79 -59.5 -125.5t-185.5 -46.5h-19.5t-19.5 2q-17 -11 -24 -19.5t-7 -19.5q0 -14 17.5 -24t66.5 -10h44q54 0 99.5 -8.5t79.5 -26.5t53 -46t19 -67q0 -50 -26 -88t-69 -64.5t-99 -40t-117 -13.5
q-67 0 -118.5 11t-86.5 29t-53 41t-18 46q0 15 11 27t35.5 22t64.5 16.5t99 11.5q-50 1 -83.5 11t-54 24.5t-29.5 32.5t-9 37q0 43 43.5 73.5t140.5 47.5q-38 7 -71 21.5t-58.5 36t-40 49t-14.5 60.5q0 79 59.5 125.5t184.5 46.5zM164 -153q0 -17 6 -33.5t20 -30t38.5 -22
t60.5 -8.5q29 0 54 6t44 19t29.5 32t10.5 46q0 44 -38 63t-95 19h-60q-30 -11 -50 -33.5t-20 -57.5zM336 331q0 23 -2 49.5t-8 49.5t-16.5 38.5t-28.5 15.5q-17 0 -27.5 -15.5t-16 -38.5t-7.5 -49.5t-2 -49.5q0 -22 2 -48.5t7.5 -50t16 -39t27.5 -15.5t28 15t17 37.5t8 49.5
t2 51z" />
    <glyph glyph-name="h" unicode="h" horiz-adv-x="693" 
d="M614 103q0 -18 2 -32.5t9.5 -24.5t22.5 -15.5t42 -5.5h2v-25h-291v346q0 39 -10 56.5t-36 17.5q-18 0 -35 -17.5t-22 -53.5v-246q0 -18 2 -32.5t8.5 -24.5t20 -15.5t36.5 -5.5h2v-25h-360v25h2q27 0 42 5.5t22.5 15.5t9.5 24.5t2 32.5v581q0 18 -2 32.5t-9.5 24.5
t-22.5 15.5t-42 5.5h-2v25h369v-25h-2q-27 0 -42 -5.5t-22.5 -15.5t-9.5 -24.5t-2 -32.5v-304q14 62 57 94.5t102 32.5q28 0 56 -9t50.5 -28.5t36.5 -49.5t14 -72v-245v0z" />
    <glyph glyph-name="h" unicode="&#x127;" horiz-adv-x="693" 
d="M614 103q0 -18 2 -32.5t9.5 -24.5t22.5 -15.5t42 -5.5h2v-25h-291v346q0 39 -10 56.5t-36 17.5q-18 0 -35 -17.5t-22 -53.5v-246q0 -18 2 -32.5t8.5 -24.5t20 -15.5t36.5 -5.5h2v-25h-360v25h2q27 0 42 5.5t22.5 15.5t9.5 24.5t2 32.5v581q0 18 -2 32.5t-9.5 24.5
t-22.5 15.5t-42 5.5h-2v25h369v-25h-2q-27 0 -42 -5.5t-22.5 -15.5t-9.5 -24.5t-2 -32.5v-304q14 62 57 94.5t102 32.5q28 0 56 -9t50.5 -28.5t36.5 -49.5t14 -72v-245v0z" />
    <glyph glyph-name="h" unicode="&#x125;" horiz-adv-x="693" 
d="M614 103q0 -18 2 -32.5t9.5 -24.5t22.5 -15.5t42 -5.5h2v-25h-291v346q0 39 -10 56.5t-36 17.5q-18 0 -35 -17.5t-22 -53.5v-246q0 -18 2 -32.5t8.5 -24.5t20 -15.5t36.5 -5.5h2v-25h-360v25h2q27 0 42 5.5t22.5 15.5t9.5 24.5t2 32.5v581q0 18 -2 32.5t-9.5 24.5
t-22.5 15.5t-42 5.5h-2v25h369v-25h-2q-27 0 -42 -5.5t-22.5 -15.5t-9.5 -24.5t-2 -32.5v-304q14 62 57 94.5t102 32.5q28 0 56 -9t50.5 -28.5t36.5 -49.5t14 -72v-245v0z" />
    <glyph glyph-name="i" unicode="i" horiz-adv-x="395" 
d="M77 691q0 25 9.5 47.5t26 39.5t38.5 26.5t48 9.5q25 0 47.5 -9.5t39 -26.5t26 -39.5t9.5 -47.5q0 -26 -9.5 -48t-26 -38.5t-39 -26t-47.5 -9.5q-26 0 -48 9.5t-38.5 26t-26 38.5t-9.5 48zM91 381q0 18 -2 32.5t-9.5 24.5t-22.5 15.5t-42 5.5h-2v25h369v-25h-2
q-27 0 -42 -5.5t-22.5 -15.5t-9.5 -24.5t-2 -32.5v-278q0 -18 2 -32.5t9.5 -24.5t22.5 -15.5t42 -5.5h2v-25h-369v25h2q27 0 42 5.5t22.5 15.5t9.5 24.5t2 32.5v278z" />
    <glyph glyph-name="i" unicode="&#x1ecb;" horiz-adv-x="395" 
d="M77 691q0 25 9.5 47.5t26 39.5t38.5 26.5t48 9.5q25 0 47.5 -9.5t39 -26.5t26 -39.5t9.5 -47.5q0 -26 -9.5 -48t-26 -38.5t-39 -26t-47.5 -9.5q-26 0 -48 9.5t-38.5 26t-26 38.5t-9.5 48zM91 381q0 18 -2 32.5t-9.5 24.5t-22.5 15.5t-42 5.5h-2v25h369v-25h-2
q-27 0 -42 -5.5t-22.5 -15.5t-9.5 -24.5t-2 -32.5v-278q0 -18 2 -32.5t9.5 -24.5t22.5 -15.5t42 -5.5h2v-25h-369v25h2q27 0 42 5.5t22.5 15.5t9.5 24.5t2 32.5v278z" />
    <glyph glyph-name="i" unicode="&#x131;" horiz-adv-x="395" 
d="M77 691q0 25 9.5 47.5t26 39.5t38.5 26.5t48 9.5q25 0 47.5 -9.5t39 -26.5t26 -39.5t9.5 -47.5q0 -26 -9.5 -48t-26 -38.5t-39 -26t-47.5 -9.5q-26 0 -48 9.5t-38.5 26t-26 38.5t-9.5 48zM91 381q0 18 -2 32.5t-9.5 24.5t-22.5 15.5t-42 5.5h-2v25h369v-25h-2
q-27 0 -42 -5.5t-22.5 -15.5t-9.5 -24.5t-2 -32.5v-278q0 -18 2 -32.5t9.5 -24.5t22.5 -15.5t42 -5.5h2v-25h-369v25h2q27 0 42 5.5t22.5 15.5t9.5 24.5t2 32.5v278z" />
    <glyph glyph-name="i" unicode="&#x12f;" horiz-adv-x="395" 
d="M77 691q0 25 9.5 47.5t26 39.5t38.5 26.5t48 9.5q25 0 47.5 -9.5t39 -26.5t26 -39.5t9.5 -47.5q0 -26 -9.5 -48t-26 -38.5t-39 -26t-47.5 -9.5q-26 0 -48 9.5t-38.5 26t-26 38.5t-9.5 48zM91 381q0 18 -2 32.5t-9.5 24.5t-22.5 15.5t-42 5.5h-2v25h369v-25h-2
q-27 0 -42 -5.5t-22.5 -15.5t-9.5 -24.5t-2 -32.5v-278q0 -18 2 -32.5t9.5 -24.5t22.5 -15.5t42 -5.5h2v-25h-369v25h2q27 0 42 5.5t22.5 15.5t9.5 24.5t2 32.5v278z" />
    <glyph glyph-name="i" unicode="&#x12d;" horiz-adv-x="395" 
d="M77 691q0 25 9.5 47.5t26 39.5t38.5 26.5t48 9.5q25 0 47.5 -9.5t39 -26.5t26 -39.5t9.5 -47.5q0 -26 -9.5 -48t-26 -38.5t-39 -26t-47.5 -9.5q-26 0 -48 9.5t-38.5 26t-26 38.5t-9.5 48zM91 381q0 18 -2 32.5t-9.5 24.5t-22.5 15.5t-42 5.5h-2v25h369v-25h-2
q-27 0 -42 -5.5t-22.5 -15.5t-9.5 -24.5t-2 -32.5v-278q0 -18 2 -32.5t9.5 -24.5t22.5 -15.5t42 -5.5h2v-25h-369v25h2q27 0 42 5.5t22.5 15.5t9.5 24.5t2 32.5v278z" />
    <glyph glyph-name="i" unicode="&#x12b;" horiz-adv-x="395" 
d="M77 691q0 25 9.5 47.5t26 39.5t38.5 26.5t48 9.5q25 0 47.5 -9.5t39 -26.5t26 -39.5t9.5 -47.5q0 -26 -9.5 -48t-26 -38.5t-39 -26t-47.5 -9.5q-26 0 -48 9.5t-38.5 26t-26 38.5t-9.5 48zM91 381q0 18 -2 32.5t-9.5 24.5t-22.5 15.5t-42 5.5h-2v25h369v-25h-2
q-27 0 -42 -5.5t-22.5 -15.5t-9.5 -24.5t-2 -32.5v-278q0 -18 2 -32.5t9.5 -24.5t22.5 -15.5t42 -5.5h2v-25h-369v25h2q27 0 42 5.5t22.5 15.5t9.5 24.5t2 32.5v278z" />
    <glyph glyph-name="i" unicode="&#x129;" horiz-adv-x="395" 
d="M77 691q0 25 9.5 47.5t26 39.5t38.5 26.5t48 9.5q25 0 47.5 -9.5t39 -26.5t26 -39.5t9.5 -47.5q0 -26 -9.5 -48t-26 -38.5t-39 -26t-47.5 -9.5q-26 0 -48 9.5t-38.5 26t-26 38.5t-9.5 48zM91 381q0 18 -2 32.5t-9.5 24.5t-22.5 15.5t-42 5.5h-2v25h369v-25h-2
q-27 0 -42 -5.5t-22.5 -15.5t-9.5 -24.5t-2 -32.5v-278q0 -18 2 -32.5t9.5 -24.5t22.5 -15.5t42 -5.5h2v-25h-369v25h2q27 0 42 5.5t22.5 15.5t9.5 24.5t2 32.5v278z" />
    <glyph glyph-name="i" unicode="&#xef;" horiz-adv-x="395" 
d="M77 691q0 25 9.5 47.5t26 39.5t38.5 26.5t48 9.5q25 0 47.5 -9.5t39 -26.5t26 -39.5t9.5 -47.5q0 -26 -9.5 -48t-26 -38.5t-39 -26t-47.5 -9.5q-26 0 -48 9.5t-38.5 26t-26 38.5t-9.5 48zM91 381q0 18 -2 32.5t-9.5 24.5t-22.5 15.5t-42 5.5h-2v25h369v-25h-2
q-27 0 -42 -5.5t-22.5 -15.5t-9.5 -24.5t-2 -32.5v-278q0 -18 2 -32.5t9.5 -24.5t22.5 -15.5t42 -5.5h2v-25h-369v25h2q27 0 42 5.5t22.5 15.5t9.5 24.5t2 32.5v278z" />
    <glyph glyph-name="i" unicode="&#xee;" horiz-adv-x="395" 
d="M77 691q0 25 9.5 47.5t26 39.5t38.5 26.5t48 9.5q25 0 47.5 -9.5t39 -26.5t26 -39.5t9.5 -47.5q0 -26 -9.5 -48t-26 -38.5t-39 -26t-47.5 -9.5q-26 0 -48 9.5t-38.5 26t-26 38.5t-9.5 48zM91 381q0 18 -2 32.5t-9.5 24.5t-22.5 15.5t-42 5.5h-2v25h369v-25h-2
q-27 0 -42 -5.5t-22.5 -15.5t-9.5 -24.5t-2 -32.5v-278q0 -18 2 -32.5t9.5 -24.5t22.5 -15.5t42 -5.5h2v-25h-369v25h2q27 0 42 5.5t22.5 15.5t9.5 24.5t2 32.5v278z" />
    <glyph glyph-name="i" unicode="&#xed;" horiz-adv-x="395" 
d="M77 691q0 25 9.5 47.5t26 39.5t38.5 26.5t48 9.5q25 0 47.5 -9.5t39 -26.5t26 -39.5t9.5 -47.5q0 -26 -9.5 -48t-26 -38.5t-39 -26t-47.5 -9.5q-26 0 -48 9.5t-38.5 26t-26 38.5t-9.5 48zM91 381q0 18 -2 32.5t-9.5 24.5t-22.5 15.5t-42 5.5h-2v25h369v-25h-2
q-27 0 -42 -5.5t-22.5 -15.5t-9.5 -24.5t-2 -32.5v-278q0 -18 2 -32.5t9.5 -24.5t22.5 -15.5t42 -5.5h2v-25h-369v25h2q27 0 42 5.5t22.5 15.5t9.5 24.5t2 32.5v278z" />
    <glyph glyph-name="i" unicode="&#xec;" horiz-adv-x="395" 
d="M77 691q0 25 9.5 47.5t26 39.5t38.5 26.5t48 9.5q25 0 47.5 -9.5t39 -26.5t26 -39.5t9.5 -47.5q0 -26 -9.5 -48t-26 -38.5t-39 -26t-47.5 -9.5q-26 0 -48 9.5t-38.5 26t-26 38.5t-9.5 48zM91 381q0 18 -2 32.5t-9.5 24.5t-22.5 15.5t-42 5.5h-2v25h369v-25h-2
q-27 0 -42 -5.5t-22.5 -15.5t-9.5 -24.5t-2 -32.5v-278q0 -18 2 -32.5t9.5 -24.5t22.5 -15.5t42 -5.5h2v-25h-369v25h2q27 0 42 5.5t22.5 15.5t9.5 24.5t2 32.5v278z" />
    <glyph glyph-name="j" unicode="j" horiz-adv-x="381" 
d="M297 91q0 -43 -11 -88t-41.5 -91.5t-86 -93t-143.5 -92.5l-7 9q27 28 42 71t22.5 91.5t9.5 99t2 94.5v290q0 18 -2 32.5t-9.5 24.5t-22.5 15.5t-42 5.5h-2v25h369v-25h-2q-27 0 -42 -5.5t-22.5 -15.5t-9.5 -24.5t-2 -32.5v-290zM70 691q0 25 9.5 47.5t26 39.5t38.5 26.5
t48 9.5q25 0 47.5 -9.5t39 -26.5t26 -39.5t9.5 -47.5q0 -26 -9.5 -48t-26 -38.5t-39 -26t-47.5 -9.5q-26 0 -48 9.5t-38.5 26t-26 38.5t-9.5 48z" />
    <glyph glyph-name="j" unicode="&#x237;" horiz-adv-x="381" 
d="M297 91q0 -43 -11 -88t-41.5 -91.5t-86 -93t-143.5 -92.5l-7 9q27 28 42 71t22.5 91.5t9.5 99t2 94.5v290q0 18 -2 32.5t-9.5 24.5t-22.5 15.5t-42 5.5h-2v25h369v-25h-2q-27 0 -42 -5.5t-22.5 -15.5t-9.5 -24.5t-2 -32.5v-290zM70 691q0 25 9.5 47.5t26 39.5t38.5 26.5
t48 9.5q25 0 47.5 -9.5t39 -26.5t26 -39.5t9.5 -47.5q0 -26 -9.5 -48t-26 -38.5t-39 -26t-47.5 -9.5q-26 0 -48 9.5t-38.5 26t-26 38.5t-9.5 48z" />
    <glyph glyph-name="j" unicode="&#x135;" horiz-adv-x="381" 
d="M297 91q0 -43 -11 -88t-41.5 -91.5t-86 -93t-143.5 -92.5l-7 9q27 28 42 71t22.5 91.5t9.5 99t2 94.5v290q0 18 -2 32.5t-9.5 24.5t-22.5 15.5t-42 5.5h-2v25h369v-25h-2q-27 0 -42 -5.5t-22.5 -15.5t-9.5 -24.5t-2 -32.5v-290zM70 691q0 25 9.5 47.5t26 39.5t38.5 26.5
t48 9.5q25 0 47.5 -9.5t39 -26.5t26 -39.5t9.5 -47.5q0 -26 -9.5 -48t-26 -38.5t-39 -26t-47.5 -9.5q-26 0 -48 9.5t-38.5 26t-26 38.5t-9.5 48z" />
    <glyph glyph-name="k" unicode="k" horiz-adv-x="719" 
d="M7 0v25h2q27 0 42 5.5t22.5 15.5t9.5 24.5t2 32.5v581q0 18 -2 32.5t-9.5 24.5t-22.5 15.5t-42 5.5h-2v25h369v-25h-2q-27 0 -42 -5.5t-22.5 -15.5t-9.5 -24.5t-2 -32.5v-429l165 132q22 18 27.5 31.5t-2.5 22.5t-27.5 13.5t-46.5 4.5h-2v25h273v-25q-30 0 -53 -3.5
t-44 -12t-43 -24t-51 -39.5l-22 -18l135 -249q13 -23 25.5 -40t27.5 -27.5t34 -15.5t45 -5v-25h-306l-135 252v-149q0 -25 2.5 -40t9.5 -23.5t20 -11.5t34 -3h2v-25h-359z" />
    <glyph glyph-name="k" unicode="&#x137;" horiz-adv-x="719" 
d="M7 0v25h2q27 0 42 5.5t22.5 15.5t9.5 24.5t2 32.5v581q0 18 -2 32.5t-9.5 24.5t-22.5 15.5t-42 5.5h-2v25h369v-25h-2q-27 0 -42 -5.5t-22.5 -15.5t-9.5 -24.5t-2 -32.5v-429l165 132q22 18 27.5 31.5t-2.5 22.5t-27.5 13.5t-46.5 4.5h-2v25h273v-25q-30 0 -53 -3.5
t-44 -12t-43 -24t-51 -39.5l-22 -18l135 -249q13 -23 25.5 -40t27.5 -27.5t34 -15.5t45 -5v-25h-306l-135 252v-149q0 -25 2.5 -40t9.5 -23.5t20 -11.5t34 -3h2v-25h-359z" />
    <glyph glyph-name="l" unicode="l" horiz-adv-x="384" 
d="M375 762q-27 0 -42 -5.5t-22.5 -15.5t-9.5 -24.5t-2 -32.5v-581q0 -18 2 -32.5t9.5 -24.5t22.5 -15.5t42 -5.5h2v-25h-369v25h2q27 0 42 5.5t22.5 15.5t9.5 24.5t2 32.5v381h-78v25h2q27 0 42 5.5t22.5 15.5t9.5 24.5t2 32.5v97q0 18 -2 32.5t-9.5 24.5t-22.5 15.5
t-42 5.5h-2v25h369v-25h-2z" />
    <glyph glyph-name="l" unicode="&#x142;" horiz-adv-x="384" 
d="M375 762q-27 0 -42 -5.5t-22.5 -15.5t-9.5 -24.5t-2 -32.5v-581q0 -18 2 -32.5t9.5 -24.5t22.5 -15.5t42 -5.5h2v-25h-369v25h2q27 0 42 5.5t22.5 15.5t9.5 24.5t2 32.5v381h-78v25h2q27 0 42 5.5t22.5 15.5t9.5 24.5t2 32.5v97q0 18 -2 32.5t-9.5 24.5t-22.5 15.5
t-42 5.5h-2v25h369v-25h-2z" />
    <glyph glyph-name="l" unicode="&#x140;" horiz-adv-x="384" 
d="M375 762q-27 0 -42 -5.5t-22.5 -15.5t-9.5 -24.5t-2 -32.5v-581q0 -18 2 -32.5t9.5 -24.5t22.5 -15.5t42 -5.5h2v-25h-369v25h2q27 0 42 5.5t22.5 15.5t9.5 24.5t2 32.5v381h-78v25h2q27 0 42 5.5t22.5 15.5t9.5 24.5t2 32.5v97q0 18 -2 32.5t-9.5 24.5t-22.5 15.5
t-42 5.5h-2v25h369v-25h-2z" />
    <glyph glyph-name="l" unicode="&#x13e;" horiz-adv-x="384" 
d="M375 762q-27 0 -42 -5.5t-22.5 -15.5t-9.5 -24.5t-2 -32.5v-581q0 -18 2 -32.5t9.5 -24.5t22.5 -15.5t42 -5.5h2v-25h-369v25h2q27 0 42 5.5t22.5 15.5t9.5 24.5t2 32.5v381h-78v25h2q27 0 42 5.5t22.5 15.5t9.5 24.5t2 32.5v97q0 18 -2 32.5t-9.5 24.5t-22.5 15.5
t-42 5.5h-2v25h369v-25h-2z" />
    <glyph glyph-name="l" unicode="&#x13c;" horiz-adv-x="384" 
d="M375 762q-27 0 -42 -5.5t-22.5 -15.5t-9.5 -24.5t-2 -32.5v-581q0 -18 2 -32.5t9.5 -24.5t22.5 -15.5t42 -5.5h2v-25h-369v25h2q27 0 42 5.5t22.5 15.5t9.5 24.5t2 32.5v381h-78v25h2q27 0 42 5.5t22.5 15.5t9.5 24.5t2 32.5v97q0 18 -2 32.5t-9.5 24.5t-22.5 15.5
t-42 5.5h-2v25h369v-25h-2z" />
    <glyph glyph-name="l" unicode="&#x13a;" horiz-adv-x="384" 
d="M375 762q-27 0 -42 -5.5t-22.5 -15.5t-9.5 -24.5t-2 -32.5v-581q0 -18 2 -32.5t9.5 -24.5t22.5 -15.5t42 -5.5h2v-25h-369v25h2q27 0 42 5.5t22.5 15.5t9.5 24.5t2 32.5v381h-78v25h2q27 0 42 5.5t22.5 15.5t9.5 24.5t2 32.5v97q0 18 -2 32.5t-9.5 24.5t-22.5 15.5
t-42 5.5h-2v25h369v-25h-2z" />
    <glyph glyph-name="m" unicode="m" horiz-adv-x="1014" 
d="M620 103q0 -18 2 -32.5t9.5 -24.5t22.5 -15.5t42 -5.5h2v-25h-291v343q0 39 -10 56.5t-36 17.5q-18 0 -35 -17.5t-22 -53.5v-243q0 -18 2 -32.5t8.5 -24.5t20 -15.5t36.5 -5.5h2v-25h-360v25h2q27 0 42 5.5t22.5 15.5t9.5 24.5t2 32.5v278q0 18 -2 32.5t-9.5 24.5
t-22.5 15.5t-42 5.5h-2v25h291v-104q14 62 57 94.5t102 32.5q25 0 51 -7.5t47.5 -23.5t36.5 -41t20 -59q14 63 57 97t103 34q28 0 56 -9t50.5 -28.5t36.5 -49.5t14 -72v-245q0 -18 2 -32.5t9.5 -24.5t22.5 -15.5t42 -5.5h2v-25h-291v343q0 39 -10 56.5t-36 17.5
q-17 0 -33.5 -15.5t-22.5 -47.5v-6v-245v0z" />
    <glyph glyph-name="n" unicode="n" horiz-adv-x="699" 
d="M620 103q0 -18 2 -32.5t9.5 -24.5t22.5 -15.5t42 -5.5h2v-25h-291v343q0 39 -10 56.5t-36 17.5q-18 0 -35 -17.5t-22 -53.5v-243q0 -18 2 -32.5t8.5 -24.5t20 -15.5t36.5 -5.5h2v-25h-360v25h2q27 0 42 5.5t22.5 15.5t9.5 24.5t2 32.5v278q0 18 -2 32.5t-9.5 24.5
t-22.5 15.5t-42 5.5h-2v25h291v-104q14 62 57 94.5t102 32.5q28 0 56 -9t50.5 -28.5t36.5 -49.5t14 -72v-245v0z" />
    <glyph glyph-name="n" unicode="&#x14b;" horiz-adv-x="699" 
d="M620 103q0 -18 2 -32.5t9.5 -24.5t22.5 -15.5t42 -5.5h2v-25h-291v343q0 39 -10 56.5t-36 17.5q-18 0 -35 -17.5t-22 -53.5v-243q0 -18 2 -32.5t8.5 -24.5t20 -15.5t36.5 -5.5h2v-25h-360v25h2q27 0 42 5.5t22.5 15.5t9.5 24.5t2 32.5v278q0 18 -2 32.5t-9.5 24.5
t-22.5 15.5t-42 5.5h-2v25h291v-104q14 62 57 94.5t102 32.5q28 0 56 -9t50.5 -28.5t36.5 -49.5t14 -72v-245v0z" />
    <glyph glyph-name="n" unicode="&#x148;" horiz-adv-x="699" 
d="M620 103q0 -18 2 -32.5t9.5 -24.5t22.5 -15.5t42 -5.5h2v-25h-291v343q0 39 -10 56.5t-36 17.5q-18 0 -35 -17.5t-22 -53.5v-243q0 -18 2 -32.5t8.5 -24.5t20 -15.5t36.5 -5.5h2v-25h-360v25h2q27 0 42 5.5t22.5 15.5t9.5 24.5t2 32.5v278q0 18 -2 32.5t-9.5 24.5
t-22.5 15.5t-42 5.5h-2v25h291v-104q14 62 57 94.5t102 32.5q28 0 56 -9t50.5 -28.5t36.5 -49.5t14 -72v-245v0z" />
    <glyph glyph-name="n" unicode="&#x146;" horiz-adv-x="699" 
d="M620 103q0 -18 2 -32.5t9.5 -24.5t22.5 -15.5t42 -5.5h2v-25h-291v343q0 39 -10 56.5t-36 17.5q-18 0 -35 -17.5t-22 -53.5v-243q0 -18 2 -32.5t8.5 -24.5t20 -15.5t36.5 -5.5h2v-25h-360v25h2q27 0 42 5.5t22.5 15.5t9.5 24.5t2 32.5v278q0 18 -2 32.5t-9.5 24.5
t-22.5 15.5t-42 5.5h-2v25h291v-104q14 62 57 94.5t102 32.5q28 0 56 -9t50.5 -28.5t36.5 -49.5t14 -72v-245v0z" />
    <glyph glyph-name="n" unicode="&#x144;" horiz-adv-x="699" 
d="M620 103q0 -18 2 -32.5t9.5 -24.5t22.5 -15.5t42 -5.5h2v-25h-291v343q0 39 -10 56.5t-36 17.5q-18 0 -35 -17.5t-22 -53.5v-243q0 -18 2 -32.5t8.5 -24.5t20 -15.5t36.5 -5.5h2v-25h-360v25h2q27 0 42 5.5t22.5 15.5t9.5 24.5t2 32.5v278q0 18 -2 32.5t-9.5 24.5
t-22.5 15.5t-42 5.5h-2v25h291v-104q14 62 57 94.5t102 32.5q28 0 56 -9t50.5 -28.5t36.5 -49.5t14 -72v-245v0z" />
    <glyph glyph-name="n" unicode="&#xf1;" horiz-adv-x="699" 
d="M620 103q0 -18 2 -32.5t9.5 -24.5t22.5 -15.5t42 -5.5h2v-25h-291v343q0 39 -10 56.5t-36 17.5q-18 0 -35 -17.5t-22 -53.5v-243q0 -18 2 -32.5t8.5 -24.5t20 -15.5t36.5 -5.5h2v-25h-360v25h2q27 0 42 5.5t22.5 15.5t9.5 24.5t2 32.5v278q0 18 -2 32.5t-9.5 24.5
t-22.5 15.5t-42 5.5h-2v25h291v-104q14 62 57 94.5t102 32.5q28 0 56 -9t50.5 -28.5t36.5 -49.5t14 -72v-245v0z" />
    <glyph glyph-name="o" unicode="o" horiz-adv-x="626" 
d="M26 245q0 59 18.5 107t55 81.5t90 52t123.5 18.5t123.5 -18.5t90 -52t55 -81.5t18.5 -107t-18.5 -107t-55 -82t-90 -52t-123.5 -18t-123.5 18t-90 52t-55 81.5t-18.5 107.5zM313 9q22 0 35.5 20.5t21 54.5t9.5 76.5t2 87.5q0 44 -2 86t-9.5 74.5t-21 52.5t-35.5 20
q-23 0 -36 -20t-20.5 -53t-9.5 -75t-2 -86q0 -45 2.5 -87.5t9.5 -76t20.5 -54t35.5 -20.5z" />
    <glyph glyph-name="o" unicode="&#x1ecd;" horiz-adv-x="626" 
d="M26 245q0 59 18.5 107t55 81.5t90 52t123.5 18.5t123.5 -18.5t90 -52t55 -81.5t18.5 -107t-18.5 -107t-55 -82t-90 -52t-123.5 -18t-123.5 18t-90 52t-55 81.5t-18.5 107.5zM313 9q22 0 35.5 20.5t21 54.5t9.5 76.5t2 87.5q0 44 -2 86t-9.5 74.5t-21 52.5t-35.5 20
q-23 0 -36 -20t-20.5 -53t-9.5 -75t-2 -86q0 -45 2.5 -87.5t9.5 -76t20.5 -54t35.5 -20.5z" />
    <glyph glyph-name="o" unicode="&#x153;" horiz-adv-x="626" 
d="M26 245q0 59 18.5 107t55 81.5t90 52t123.5 18.5t123.5 -18.5t90 -52t55 -81.5t18.5 -107t-18.5 -107t-55 -82t-90 -52t-123.5 -18t-123.5 18t-90 52t-55 81.5t-18.5 107.5zM313 9q22 0 35.5 20.5t21 54.5t9.5 76.5t2 87.5q0 44 -2 86t-9.5 74.5t-21 52.5t-35.5 20
q-23 0 -36 -20t-20.5 -53t-9.5 -75t-2 -86q0 -45 2.5 -87.5t9.5 -76t20.5 -54t35.5 -20.5z" />
    <glyph glyph-name="o" unicode="&#x151;" horiz-adv-x="626" 
d="M26 245q0 59 18.5 107t55 81.5t90 52t123.5 18.5t123.5 -18.5t90 -52t55 -81.5t18.5 -107t-18.5 -107t-55 -82t-90 -52t-123.5 -18t-123.5 18t-90 52t-55 81.5t-18.5 107.5zM313 9q22 0 35.5 20.5t21 54.5t9.5 76.5t2 87.5q0 44 -2 86t-9.5 74.5t-21 52.5t-35.5 20
q-23 0 -36 -20t-20.5 -53t-9.5 -75t-2 -86q0 -45 2.5 -87.5t9.5 -76t20.5 -54t35.5 -20.5z" />
    <glyph glyph-name="o" unicode="&#x14f;" horiz-adv-x="626" 
d="M26 245q0 59 18.5 107t55 81.5t90 52t123.5 18.5t123.5 -18.5t90 -52t55 -81.5t18.5 -107t-18.5 -107t-55 -82t-90 -52t-123.5 -18t-123.5 18t-90 52t-55 81.5t-18.5 107.5zM313 9q22 0 35.5 20.5t21 54.5t9.5 76.5t2 87.5q0 44 -2 86t-9.5 74.5t-21 52.5t-35.5 20
q-23 0 -36 -20t-20.5 -53t-9.5 -75t-2 -86q0 -45 2.5 -87.5t9.5 -76t20.5 -54t35.5 -20.5z" />
    <glyph glyph-name="o" unicode="&#x14d;" horiz-adv-x="626" 
d="M26 245q0 59 18.5 107t55 81.5t90 52t123.5 18.5t123.5 -18.5t90 -52t55 -81.5t18.5 -107t-18.5 -107t-55 -82t-90 -52t-123.5 -18t-123.5 18t-90 52t-55 81.5t-18.5 107.5zM313 9q22 0 35.5 20.5t21 54.5t9.5 76.5t2 87.5q0 44 -2 86t-9.5 74.5t-21 52.5t-35.5 20
q-23 0 -36 -20t-20.5 -53t-9.5 -75t-2 -86q0 -45 2.5 -87.5t9.5 -76t20.5 -54t35.5 -20.5z" />
    <glyph glyph-name="o" unicode="&#xf8;" horiz-adv-x="626" 
d="M26 245q0 59 18.5 107t55 81.5t90 52t123.5 18.5t123.5 -18.5t90 -52t55 -81.5t18.5 -107t-18.5 -107t-55 -82t-90 -52t-123.5 -18t-123.5 18t-90 52t-55 81.5t-18.5 107.5zM313 9q22 0 35.5 20.5t21 54.5t9.5 76.5t2 87.5q0 44 -2 86t-9.5 74.5t-21 52.5t-35.5 20
q-23 0 -36 -20t-20.5 -53t-9.5 -75t-2 -86q0 -45 2.5 -87.5t9.5 -76t20.5 -54t35.5 -20.5z" />
    <glyph glyph-name="o" unicode="&#xf6;" horiz-adv-x="626" 
d="M26 245q0 59 18.5 107t55 81.5t90 52t123.5 18.5t123.5 -18.5t90 -52t55 -81.5t18.5 -107t-18.5 -107t-55 -82t-90 -52t-123.5 -18t-123.5 18t-90 52t-55 81.5t-18.5 107.5zM313 9q22 0 35.5 20.5t21 54.5t9.5 76.5t2 87.5q0 44 -2 86t-9.5 74.5t-21 52.5t-35.5 20
q-23 0 -36 -20t-20.5 -53t-9.5 -75t-2 -86q0 -45 2.5 -87.5t9.5 -76t20.5 -54t35.5 -20.5z" />
    <glyph glyph-name="o" unicode="&#xf5;" horiz-adv-x="626" 
d="M26 245q0 59 18.5 107t55 81.5t90 52t123.5 18.5t123.5 -18.5t90 -52t55 -81.5t18.5 -107t-18.5 -107t-55 -82t-90 -52t-123.5 -18t-123.5 18t-90 52t-55 81.5t-18.5 107.5zM313 9q22 0 35.5 20.5t21 54.5t9.5 76.5t2 87.5q0 44 -2 86t-9.5 74.5t-21 52.5t-35.5 20
q-23 0 -36 -20t-20.5 -53t-9.5 -75t-2 -86q0 -45 2.5 -87.5t9.5 -76t20.5 -54t35.5 -20.5z" />
    <glyph glyph-name="o" unicode="&#xf4;" horiz-adv-x="626" 
d="M26 245q0 59 18.5 107t55 81.5t90 52t123.5 18.5t123.5 -18.5t90 -52t55 -81.5t18.5 -107t-18.5 -107t-55 -82t-90 -52t-123.5 -18t-123.5 18t-90 52t-55 81.5t-18.5 107.5zM313 9q22 0 35.5 20.5t21 54.5t9.5 76.5t2 87.5q0 44 -2 86t-9.5 74.5t-21 52.5t-35.5 20
q-23 0 -36 -20t-20.5 -53t-9.5 -75t-2 -86q0 -45 2.5 -87.5t9.5 -76t20.5 -54t35.5 -20.5z" />
    <glyph glyph-name="o" unicode="&#xf3;" horiz-adv-x="626" 
d="M26 245q0 59 18.5 107t55 81.5t90 52t123.5 18.5t123.5 -18.5t90 -52t55 -81.5t18.5 -107t-18.5 -107t-55 -82t-90 -52t-123.5 -18t-123.5 18t-90 52t-55 81.5t-18.5 107.5zM313 9q22 0 35.5 20.5t21 54.5t9.5 76.5t2 87.5q0 44 -2 86t-9.5 74.5t-21 52.5t-35.5 20
q-23 0 -36 -20t-20.5 -53t-9.5 -75t-2 -86q0 -45 2.5 -87.5t9.5 -76t20.5 -54t35.5 -20.5z" />
    <glyph glyph-name="o" unicode="&#xf2;" horiz-adv-x="626" 
d="M26 245q0 59 18.5 107t55 81.5t90 52t123.5 18.5t123.5 -18.5t90 -52t55 -81.5t18.5 -107t-18.5 -107t-55 -82t-90 -52t-123.5 -18t-123.5 18t-90 52t-55 81.5t-18.5 107.5zM313 9q22 0 35.5 20.5t21 54.5t9.5 76.5t2 87.5q0 44 -2 86t-9.5 74.5t-21 52.5t-35.5 20
q-23 0 -36 -20t-20.5 -53t-9.5 -75t-2 -86q0 -45 2.5 -87.5t9.5 -76t20.5 -54t35.5 -20.5z" />
    <glyph glyph-name="p" unicode="p" horiz-adv-x="680" 
d="M295 -159q0 -18 2 -32.5t9.5 -24.5t22.5 -15.5t42 -5.5h12v-25h-379v25h2q27 0 42 5.5t22.5 15.5t9.5 24.5t2 32.5v540q0 18 -2 32.5t-9.5 24.5t-22.5 15.5t-42 5.5h-2v25h291v-54q53 80 144 80q48 0 87 -19t67.5 -54t44 -83.5t15.5 -106.5q0 -57 -15.5 -105t-43.5 -82.5
t-66 -54t-84 -19.5q-45 0 -84 20t-65 58v-223zM341 429q-29 0 -46 -11v-344q19 -9 46 -9q20 0 37 13.5t29 38t19 58t7 72.5q0 82 -25 132t-67 50z" />
    <glyph glyph-name="p" unicode="&#xfe;" horiz-adv-x="680" 
d="M295 -159q0 -18 2 -32.5t9.5 -24.5t22.5 -15.5t42 -5.5h12v-25h-379v25h2q27 0 42 5.5t22.5 15.5t9.5 24.5t2 32.5v540q0 18 -2 32.5t-9.5 24.5t-22.5 15.5t-42 5.5h-2v25h291v-54q53 80 144 80q48 0 87 -19t67.5 -54t44 -83.5t15.5 -106.5q0 -57 -15.5 -105t-43.5 -82.5
t-66 -54t-84 -19.5q-45 0 -84 20t-65 58v-223zM341 429q-29 0 -46 -11v-344q19 -9 46 -9q20 0 37 13.5t29 38t19 58t7 72.5q0 82 -25 132t-67 50z" />
    <glyph glyph-name="q" unicode="q" horiz-adv-x="679" 
d="M676 459h-2q-27 0 -42 -5.5t-22.5 -15.5t-9.5 -24.5t-2 -32.5v-540q0 -18 2 -32.5t9.5 -24.5t22.5 -15.5t42 -5.5h2v-25h-379v25h12q27 0 42 5.5t22.5 15.5t9.5 24.5t2 32.5v222q-28 -38 -66.5 -57.5t-82.5 -19.5q-46 0 -84.5 19.5t-66 54t-43 82.5t-15.5 105
q0 58 16 106t45 83t69 54.5t88 19.5q44 0 77.5 -19t62.5 -61v54h291v-25zM339 65q26 0 46 10v343q-12 5 -22.5 8t-23.5 3q-44 0 -68 -50t-24 -132q0 -39 6.5 -72.5t18.5 -58t29 -38t38 -13.5z" />
    <glyph glyph-name="r" unicode="r" horiz-adv-x="548" 
d="M304 369q20 62 59 99t87 37q52 0 74 -28.5t22 -70.5q0 -33 -20 -60t-61 -27q-29 0 -44.5 12t-25 26.5t-18 26.5t-21.5 12q-15 0 -28.5 -12.5t-23.5 -35.5v-245q0 -18 2.5 -32.5t10.5 -24.5t22 -15.5t37 -5.5h17v-25h-380v25h2q27 0 42 5.5t22.5 15.5t9.5 24.5t2 32.5v278
q0 18 -2 32.5t-9.5 24.5t-22.5 15.5t-42 5.5h-2v25h291v-115z" />
    <glyph glyph-name="r" unicode="&#x159;" horiz-adv-x="548" 
d="M304 369q20 62 59 99t87 37q52 0 74 -28.5t22 -70.5q0 -33 -20 -60t-61 -27q-29 0 -44.5 12t-25 26.5t-18 26.5t-21.5 12q-15 0 -28.5 -12.5t-23.5 -35.5v-245q0 -18 2.5 -32.5t10.5 -24.5t22 -15.5t37 -5.5h17v-25h-380v25h2q27 0 42 5.5t22.5 15.5t9.5 24.5t2 32.5v278
q0 18 -2 32.5t-9.5 24.5t-22.5 15.5t-42 5.5h-2v25h291v-115z" />
    <glyph glyph-name="r" unicode="&#x157;" horiz-adv-x="548" 
d="M304 369q20 62 59 99t87 37q52 0 74 -28.5t22 -70.5q0 -33 -20 -60t-61 -27q-29 0 -44.5 12t-25 26.5t-18 26.5t-21.5 12q-15 0 -28.5 -12.5t-23.5 -35.5v-245q0 -18 2.5 -32.5t10.5 -24.5t22 -15.5t37 -5.5h17v-25h-380v25h2q27 0 42 5.5t22.5 15.5t9.5 24.5t2 32.5v278
q0 18 -2 32.5t-9.5 24.5t-22.5 15.5t-42 5.5h-2v25h291v-115z" />
    <glyph glyph-name="r" unicode="&#x155;" horiz-adv-x="548" 
d="M304 369q20 62 59 99t87 37q52 0 74 -28.5t22 -70.5q0 -33 -20 -60t-61 -27q-29 0 -44.5 12t-25 26.5t-18 26.5t-21.5 12q-15 0 -28.5 -12.5t-23.5 -35.5v-245q0 -18 2.5 -32.5t10.5 -24.5t22 -15.5t37 -5.5h17v-25h-380v25h2q27 0 42 5.5t22.5 15.5t9.5 24.5t2 32.5v278
q0 18 -2 32.5t-9.5 24.5t-22.5 15.5t-42 5.5h-2v25h291v-115z" />
    <glyph glyph-name="s" unicode="s" horiz-adv-x="513" 
d="M94 163q26 0 42 -11.5t26.5 -28t17 -36.5t14.5 -36q8 -14 17 -23.5t27 -9.5q29 0 44.5 20t15.5 47t-16.5 48.5t-59.5 35.5l-34 11q-140 45 -140 169q0 36 17 65.5t47.5 50t72 31.5t91.5 11q27 0 62 -4.5t66 -16t52.5 -30.5t21.5 -48q0 -23 -16 -42.5t-48 -19.5
q-30 0 -46.5 13t-26 31.5t-15.5 38.5t-16 34q-5 8 -12 13t-18 5q-26 0 -40.5 -18.5t-14.5 -41.5q0 -38 19.5 -57t52.5 -30l35 -12q45 -15 73.5 -35.5t45 -43t22.5 -45t6 -41.5q0 -79 -62 -125t-177 -46q-46 0 -85.5 6t-68.5 19t-45.5 33t-16.5 49t18 49.5t52 20.5z" />
    <glyph glyph-name="s" unicode="&#x219;" horiz-adv-x="513" 
d="M94 163q26 0 42 -11.5t26.5 -28t17 -36.5t14.5 -36q8 -14 17 -23.5t27 -9.5q29 0 44.5 20t15.5 47t-16.5 48.5t-59.5 35.5l-34 11q-140 45 -140 169q0 36 17 65.5t47.5 50t72 31.5t91.5 11q27 0 62 -4.5t66 -16t52.5 -30.5t21.5 -48q0 -23 -16 -42.5t-48 -19.5
q-30 0 -46.5 13t-26 31.5t-15.5 38.5t-16 34q-5 8 -12 13t-18 5q-26 0 -40.5 -18.5t-14.5 -41.5q0 -38 19.5 -57t52.5 -30l35 -12q45 -15 73.5 -35.5t45 -43t22.5 -45t6 -41.5q0 -79 -62 -125t-177 -46q-46 0 -85.5 6t-68.5 19t-45.5 33t-16.5 49t18 49.5t52 20.5z" />
    <glyph glyph-name="s" unicode="&#x161;" horiz-adv-x="513" 
d="M94 163q26 0 42 -11.5t26.5 -28t17 -36.5t14.5 -36q8 -14 17 -23.5t27 -9.5q29 0 44.5 20t15.5 47t-16.5 48.5t-59.5 35.5l-34 11q-140 45 -140 169q0 36 17 65.5t47.5 50t72 31.5t91.5 11q27 0 62 -4.5t66 -16t52.5 -30.5t21.5 -48q0 -23 -16 -42.5t-48 -19.5
q-30 0 -46.5 13t-26 31.5t-15.5 38.5t-16 34q-5 8 -12 13t-18 5q-26 0 -40.5 -18.5t-14.5 -41.5q0 -38 19.5 -57t52.5 -30l35 -12q45 -15 73.5 -35.5t45 -43t22.5 -45t6 -41.5q0 -79 -62 -125t-177 -46q-46 0 -85.5 6t-68.5 19t-45.5 33t-16.5 49t18 49.5t52 20.5z" />
    <glyph glyph-name="s" unicode="&#x15f;" horiz-adv-x="513" 
d="M94 163q26 0 42 -11.5t26.5 -28t17 -36.5t14.5 -36q8 -14 17 -23.5t27 -9.5q29 0 44.5 20t15.5 47t-16.5 48.5t-59.5 35.5l-34 11q-140 45 -140 169q0 36 17 65.5t47.5 50t72 31.5t91.5 11q27 0 62 -4.5t66 -16t52.5 -30.5t21.5 -48q0 -23 -16 -42.5t-48 -19.5
q-30 0 -46.5 13t-26 31.5t-15.5 38.5t-16 34q-5 8 -12 13t-18 5q-26 0 -40.5 -18.5t-14.5 -41.5q0 -38 19.5 -57t52.5 -30l35 -12q45 -15 73.5 -35.5t45 -43t22.5 -45t6 -41.5q0 -79 -62 -125t-177 -46q-46 0 -85.5 6t-68.5 19t-45.5 33t-16.5 49t18 49.5t52 20.5z" />
    <glyph glyph-name="s" unicode="&#x15d;" horiz-adv-x="513" 
d="M94 163q26 0 42 -11.5t26.5 -28t17 -36.5t14.5 -36q8 -14 17 -23.5t27 -9.5q29 0 44.5 20t15.5 47t-16.5 48.5t-59.5 35.5l-34 11q-140 45 -140 169q0 36 17 65.5t47.5 50t72 31.5t91.5 11q27 0 62 -4.5t66 -16t52.5 -30.5t21.5 -48q0 -23 -16 -42.5t-48 -19.5
q-30 0 -46.5 13t-26 31.5t-15.5 38.5t-16 34q-5 8 -12 13t-18 5q-26 0 -40.5 -18.5t-14.5 -41.5q0 -38 19.5 -57t52.5 -30l35 -12q45 -15 73.5 -35.5t45 -43t22.5 -45t6 -41.5q0 -79 -62 -125t-177 -46q-46 0 -85.5 6t-68.5 19t-45.5 33t-16.5 49t18 49.5t52 20.5z" />
    <glyph glyph-name="s" unicode="&#x15b;" horiz-adv-x="513" 
d="M94 163q26 0 42 -11.5t26.5 -28t17 -36.5t14.5 -36q8 -14 17 -23.5t27 -9.5q29 0 44.5 20t15.5 47t-16.5 48.5t-59.5 35.5l-34 11q-140 45 -140 169q0 36 17 65.5t47.5 50t72 31.5t91.5 11q27 0 62 -4.5t66 -16t52.5 -30.5t21.5 -48q0 -23 -16 -42.5t-48 -19.5
q-30 0 -46.5 13t-26 31.5t-15.5 38.5t-16 34q-5 8 -12 13t-18 5q-26 0 -40.5 -18.5t-14.5 -41.5q0 -38 19.5 -57t52.5 -30l35 -12q45 -15 73.5 -35.5t45 -43t22.5 -45t6 -41.5q0 -79 -62 -125t-177 -46q-46 0 -85.5 6t-68.5 19t-45.5 33t-16.5 49t18 49.5t52 20.5z" />
    <glyph glyph-name="s" unicode="&#xdf;" horiz-adv-x="513" 
d="M94 163q26 0 42 -11.5t26.5 -28t17 -36.5t14.5 -36q8 -14 17 -23.5t27 -9.5q29 0 44.5 20t15.5 47t-16.5 48.5t-59.5 35.5l-34 11q-140 45 -140 169q0 36 17 65.5t47.5 50t72 31.5t91.5 11q27 0 62 -4.5t66 -16t52.5 -30.5t21.5 -48q0 -23 -16 -42.5t-48 -19.5
q-30 0 -46.5 13t-26 31.5t-15.5 38.5t-16 34q-5 8 -12 13t-18 5q-26 0 -40.5 -18.5t-14.5 -41.5q0 -38 19.5 -57t52.5 -30l35 -12q45 -15 73.5 -35.5t45 -43t22.5 -45t6 -41.5q0 -79 -62 -125t-177 -46q-46 0 -85.5 6t-68.5 19t-45.5 33t-16.5 49t18 49.5t52 20.5z" />
    <glyph glyph-name="t" unicode="t" horiz-adv-x="433" 
d="M86 484l186 189h18v-189h149v-36h-149v-326q0 -45 17.5 -61.5t43.5 -16.5q20 0 41 8t41 20l8 -13q-47 -44 -95 -58.5t-97 -14.5q-38 0 -69 8t-53.5 26t-35 46.5t-12.5 69.5v312h-69v36h76z" />
    <glyph glyph-name="t" unicode="&#x21b;" horiz-adv-x="433" 
d="M86 484l186 189h18v-189h149v-36h-149v-326q0 -45 17.5 -61.5t43.5 -16.5q20 0 41 8t41 20l8 -13q-47 -44 -95 -58.5t-97 -14.5q-38 0 -69 8t-53.5 26t-35 46.5t-12.5 69.5v312h-69v36h76z" />
    <glyph glyph-name="t" unicode="&#x167;" horiz-adv-x="433" 
d="M86 484l186 189h18v-189h149v-36h-149v-326q0 -45 17.5 -61.5t43.5 -16.5q20 0 41 8t41 20l8 -13q-47 -44 -95 -58.5t-97 -14.5q-38 0 -69 8t-53.5 26t-35 46.5t-12.5 69.5v312h-69v36h76z" />
    <glyph glyph-name="t" unicode="&#x165;" horiz-adv-x="433" 
d="M86 484l186 189h18v-189h149v-36h-149v-326q0 -45 17.5 -61.5t43.5 -16.5q20 0 41 8t41 20l8 -13q-47 -44 -95 -58.5t-97 -14.5q-38 0 -69 8t-53.5 26t-35 46.5t-12.5 69.5v312h-69v36h76z" />
    <glyph glyph-name="t" unicode="&#x163;" horiz-adv-x="433" 
d="M86 484l186 189h18v-189h149v-36h-149v-326q0 -45 17.5 -61.5t43.5 -16.5q20 0 41 8t41 20l8 -13q-47 -44 -95 -58.5t-97 -14.5q-38 0 -69 8t-53.5 26t-35 46.5t-12.5 69.5v312h-69v36h76z" />
    <glyph glyph-name="u" unicode="u" horiz-adv-x="687" 
d="M602 103q0 -18 2 -32.5t9.5 -24.5t22.5 -15.5t42 -5.5h2v-25h-288v113q-16 -60 -57 -93.5t-101 -33.5q-28 0 -55.5 9t-49.5 28.5t-36 49.5t-14 72v236q0 18 -2 32.5t-9.5 24.5t-22.5 15.5t-42 5.5h-2v25h288v-334q0 -39 10 -56.5t36 -17.5q20 0 36 18.5t21 48.5v238
q0 18 -1.5 32.5t-8.5 24.5t-20 15.5t-37 5.5h-2v25h279v-381v0z" />
    <glyph glyph-name="u" unicode="&#x1ee5;" horiz-adv-x="687" 
d="M602 103q0 -18 2 -32.5t9.5 -24.5t22.5 -15.5t42 -5.5h2v-25h-288v113q-16 -60 -57 -93.5t-101 -33.5q-28 0 -55.5 9t-49.5 28.5t-36 49.5t-14 72v236q0 18 -2 32.5t-9.5 24.5t-22.5 15.5t-42 5.5h-2v25h288v-334q0 -39 10 -56.5t36 -17.5q20 0 36 18.5t21 48.5v238
q0 18 -1.5 32.5t-8.5 24.5t-20 15.5t-37 5.5h-2v25h279v-381v0z" />
    <glyph glyph-name="u" unicode="&#x173;" horiz-adv-x="687" 
d="M602 103q0 -18 2 -32.5t9.5 -24.5t22.5 -15.5t42 -5.5h2v-25h-288v113q-16 -60 -57 -93.5t-101 -33.5q-28 0 -55.5 9t-49.5 28.5t-36 49.5t-14 72v236q0 18 -2 32.5t-9.5 24.5t-22.5 15.5t-42 5.5h-2v25h288v-334q0 -39 10 -56.5t36 -17.5q20 0 36 18.5t21 48.5v238
q0 18 -1.5 32.5t-8.5 24.5t-20 15.5t-37 5.5h-2v25h279v-381v0z" />
    <glyph glyph-name="u" unicode="&#x171;" horiz-adv-x="687" 
d="M602 103q0 -18 2 -32.5t9.5 -24.5t22.5 -15.5t42 -5.5h2v-25h-288v113q-16 -60 -57 -93.5t-101 -33.5q-28 0 -55.5 9t-49.5 28.5t-36 49.5t-14 72v236q0 18 -2 32.5t-9.5 24.5t-22.5 15.5t-42 5.5h-2v25h288v-334q0 -39 10 -56.5t36 -17.5q20 0 36 18.5t21 48.5v238
q0 18 -1.5 32.5t-8.5 24.5t-20 15.5t-37 5.5h-2v25h279v-381v0z" />
    <glyph glyph-name="u" unicode="&#x16f;" horiz-adv-x="687" 
d="M602 103q0 -18 2 -32.5t9.5 -24.5t22.5 -15.5t42 -5.5h2v-25h-288v113q-16 -60 -57 -93.5t-101 -33.5q-28 0 -55.5 9t-49.5 28.5t-36 49.5t-14 72v236q0 18 -2 32.5t-9.5 24.5t-22.5 15.5t-42 5.5h-2v25h288v-334q0 -39 10 -56.5t36 -17.5q20 0 36 18.5t21 48.5v238
q0 18 -1.5 32.5t-8.5 24.5t-20 15.5t-37 5.5h-2v25h279v-381v0z" />
    <glyph glyph-name="u" unicode="&#x16d;" horiz-adv-x="687" 
d="M602 103q0 -18 2 -32.5t9.5 -24.5t22.5 -15.5t42 -5.5h2v-25h-288v113q-16 -60 -57 -93.5t-101 -33.5q-28 0 -55.5 9t-49.5 28.5t-36 49.5t-14 72v236q0 18 -2 32.5t-9.5 24.5t-22.5 15.5t-42 5.5h-2v25h288v-334q0 -39 10 -56.5t36 -17.5q20 0 36 18.5t21 48.5v238
q0 18 -1.5 32.5t-8.5 24.5t-20 15.5t-37 5.5h-2v25h279v-381v0z" />
    <glyph glyph-name="u" unicode="&#x16b;" horiz-adv-x="687" 
d="M602 103q0 -18 2 -32.5t9.5 -24.5t22.5 -15.5t42 -5.5h2v-25h-288v113q-16 -60 -57 -93.5t-101 -33.5q-28 0 -55.5 9t-49.5 28.5t-36 49.5t-14 72v236q0 18 -2 32.5t-9.5 24.5t-22.5 15.5t-42 5.5h-2v25h288v-334q0 -39 10 -56.5t36 -17.5q20 0 36 18.5t21 48.5v238
q0 18 -1.5 32.5t-8.5 24.5t-20 15.5t-37 5.5h-2v25h279v-381v0z" />
    <glyph glyph-name="u" unicode="&#x169;" horiz-adv-x="687" 
d="M602 103q0 -18 2 -32.5t9.5 -24.5t22.5 -15.5t42 -5.5h2v-25h-288v113q-16 -60 -57 -93.5t-101 -33.5q-28 0 -55.5 9t-49.5 28.5t-36 49.5t-14 72v236q0 18 -2 32.5t-9.5 24.5t-22.5 15.5t-42 5.5h-2v25h288v-334q0 -39 10 -56.5t36 -17.5q20 0 36 18.5t21 48.5v238
q0 18 -1.5 32.5t-8.5 24.5t-20 15.5t-37 5.5h-2v25h279v-381v0z" />
    <glyph glyph-name="u" unicode="&#xfc;" horiz-adv-x="687" 
d="M602 103q0 -18 2 -32.5t9.5 -24.5t22.5 -15.5t42 -5.5h2v-25h-288v113q-16 -60 -57 -93.5t-101 -33.5q-28 0 -55.5 9t-49.5 28.5t-36 49.5t-14 72v236q0 18 -2 32.5t-9.5 24.5t-22.5 15.5t-42 5.5h-2v25h288v-334q0 -39 10 -56.5t36 -17.5q20 0 36 18.5t21 48.5v238
q0 18 -1.5 32.5t-8.5 24.5t-20 15.5t-37 5.5h-2v25h279v-381v0z" />
    <glyph glyph-name="u" unicode="&#xfb;" horiz-adv-x="687" 
d="M602 103q0 -18 2 -32.5t9.5 -24.5t22.5 -15.5t42 -5.5h2v-25h-288v113q-16 -60 -57 -93.5t-101 -33.5q-28 0 -55.5 9t-49.5 28.5t-36 49.5t-14 72v236q0 18 -2 32.5t-9.5 24.5t-22.5 15.5t-42 5.5h-2v25h288v-334q0 -39 10 -56.5t36 -17.5q20 0 36 18.5t21 48.5v238
q0 18 -1.5 32.5t-8.5 24.5t-20 15.5t-37 5.5h-2v25h279v-381v0z" />
    <glyph glyph-name="u" unicode="&#xfa;" horiz-adv-x="687" 
d="M602 103q0 -18 2 -32.5t9.5 -24.5t22.5 -15.5t42 -5.5h2v-25h-288v113q-16 -60 -57 -93.5t-101 -33.5q-28 0 -55.5 9t-49.5 28.5t-36 49.5t-14 72v236q0 18 -2 32.5t-9.5 24.5t-22.5 15.5t-42 5.5h-2v25h288v-334q0 -39 10 -56.5t36 -17.5q20 0 36 18.5t21 48.5v238
q0 18 -1.5 32.5t-8.5 24.5t-20 15.5t-37 5.5h-2v25h279v-381v0z" />
    <glyph glyph-name="u" unicode="&#xf9;" horiz-adv-x="687" 
d="M602 103q0 -18 2 -32.5t9.5 -24.5t22.5 -15.5t42 -5.5h2v-25h-288v113q-16 -60 -57 -93.5t-101 -33.5q-28 0 -55.5 9t-49.5 28.5t-36 49.5t-14 72v236q0 18 -2 32.5t-9.5 24.5t-22.5 15.5t-42 5.5h-2v25h288v-334q0 -39 10 -56.5t36 -17.5q20 0 36 18.5t21 48.5v238
q0 18 -1.5 32.5t-8.5 24.5t-20 15.5t-37 5.5h-2v25h279v-381v0z" />
    <glyph glyph-name="v" unicode="v" horiz-adv-x="545" 
d="M399 323q19 50 24 77.5t0.5 40.5t-17 15.5t-30.5 2.5h-2v25h169v-25q-18 0 -31 -3t-25 -16t-24.5 -39t-30.5 -72l-129 -335h-62l-174 410q-12 28 -23.5 41.5t-34.5 13.5v25h313v-25q-38 0 -50 -7t-2 -31l85 -216z" />
    <glyph glyph-name="w" unicode="w" horiz-adv-x="874" 
d="M731 304q18 50 26 80.5t6.5 47t-12.5 22t-32 5.5h-13v25h169v-25q-21 0 -35 -7t-25.5 -25t-24 -48.5t-30.5 -76.5l-120 -308h-62l-145 372l-146 -372h-62l-161 409q-11 29 -23 42.5t-35 13.5v25h313v-25q-38 0 -47 -12t-1 -37l71 -210l75 203q-15 29 -33 42.5t-44 13.5
v25h332v-25h-6q-35 0 -43 -11.5t0 -35.5l71 -214z" />
    <glyph glyph-name="w" unicode="&#x1e85;" horiz-adv-x="874" 
d="M731 304q18 50 26 80.5t6.5 47t-12.5 22t-32 5.5h-13v25h169v-25q-21 0 -35 -7t-25.5 -25t-24 -48.5t-30.5 -76.5l-120 -308h-62l-145 372l-146 -372h-62l-161 409q-11 29 -23 42.5t-35 13.5v25h313v-25q-38 0 -47 -12t-1 -37l71 -210l75 203q-15 29 -33 42.5t-44 13.5
v25h332v-25h-6q-35 0 -43 -11.5t0 -35.5l71 -214z" />
    <glyph glyph-name="w" unicode="&#x1e83;" horiz-adv-x="874" 
d="M731 304q18 50 26 80.5t6.5 47t-12.5 22t-32 5.5h-13v25h169v-25q-21 0 -35 -7t-25.5 -25t-24 -48.5t-30.5 -76.5l-120 -308h-62l-145 372l-146 -372h-62l-161 409q-11 29 -23 42.5t-35 13.5v25h313v-25q-38 0 -47 -12t-1 -37l71 -210l75 203q-15 29 -33 42.5t-44 13.5
v25h332v-25h-6q-35 0 -43 -11.5t0 -35.5l71 -214z" />
    <glyph glyph-name="w" unicode="&#x1e81;" horiz-adv-x="874" 
d="M731 304q18 50 26 80.5t6.5 47t-12.5 22t-32 5.5h-13v25h169v-25q-21 0 -35 -7t-25.5 -25t-24 -48.5t-30.5 -76.5l-120 -308h-62l-145 372l-146 -372h-62l-161 409q-11 29 -23 42.5t-35 13.5v25h313v-25q-38 0 -47 -12t-1 -37l71 -210l75 203q-15 29 -33 42.5t-44 13.5
v25h332v-25h-6q-35 0 -43 -11.5t0 -35.5l71 -214z" />
    <glyph glyph-name="w" unicode="&#x175;" horiz-adv-x="874" 
d="M731 304q18 50 26 80.5t6.5 47t-12.5 22t-32 5.5h-13v25h169v-25q-21 0 -35 -7t-25.5 -25t-24 -48.5t-30.5 -76.5l-120 -308h-62l-145 372l-146 -372h-62l-161 409q-11 29 -23 42.5t-35 13.5v25h313v-25q-38 0 -47 -12t-1 -37l71 -210l75 203q-15 29 -33 42.5t-44 13.5
v25h332v-25h-6q-35 0 -43 -11.5t0 -35.5l71 -214z" />
    <glyph glyph-name="x" unicode="x" horiz-adv-x="621" 
d="M251 172l-28 -30q-23 -25 -38 -46.5t-17 -37t10 -24.5t42 -9v-25h-231v25q24 0 46 6t45.5 20.5t51 39.5t63.5 64l40 43l-128 206q-16 25 -38.5 40t-57.5 15v25h342v-25q-19 0 -28.5 -2.5t-12 -7.5t0 -11.5t8.5 -15.5l49 -79l10 10q23 25 38.5 44.5t18.5 33t-8 21t-40 7.5
v25h215v-25q-50 0 -93.5 -28t-102.5 -91l-22 -23l150 -239q9 -14 17.5 -24t19.5 -16.5t25.5 -9.5t35.5 -3v-25h-359v25q38 0 49.5 6.5t0.5 23.5z" />
    <glyph glyph-name="y" unicode="y" horiz-adv-x="594" 
d="M395 484h202v-25q-24 0 -40.5 -6t-32 -23.5t-32 -50t-40.5 -85.5l-182 -411q-21 -48 -42.5 -78.5t-42.5 -47t-42 -22.5t-41 -6q-23 0 -45.5 6t-40.5 19.5t-29.5 34.5t-11.5 51q0 45 25.5 69.5t65.5 24.5q44 0 63 -26t19 -59q0 -14 -1.5 -26t-2 -22t2 -15.5t11.5 -5.5
q14 0 37.5 31t57.5 110l28 66l-193 418q-6 14 -12.5 24t-16 17t-23.5 10t-35 3v25h342v-25q-38 0 -48 -12t0 -36l83 -202l42 95q22 49 30.5 79.5t4.5 47.5t-18.5 22.5t-39.5 5.5h-2v25z" />
    <glyph glyph-name="y" unicode="&#x1ef3;" horiz-adv-x="594" 
d="M395 484h202v-25q-24 0 -40.5 -6t-32 -23.5t-32 -50t-40.5 -85.5l-182 -411q-21 -48 -42.5 -78.5t-42.5 -47t-42 -22.5t-41 -6q-23 0 -45.5 6t-40.5 19.5t-29.5 34.5t-11.5 51q0 45 25.5 69.5t65.5 24.5q44 0 63 -26t19 -59q0 -14 -1.5 -26t-2 -22t2 -15.5t11.5 -5.5
q14 0 37.5 31t57.5 110l28 66l-193 418q-6 14 -12.5 24t-16 17t-23.5 10t-35 3v25h342v-25q-38 0 -48 -12t0 -36l83 -202l42 95q22 49 30.5 79.5t4.5 47.5t-18.5 22.5t-39.5 5.5h-2v25z" />
    <glyph glyph-name="y" unicode="&#x233;" horiz-adv-x="594" 
d="M395 484h202v-25q-24 0 -40.5 -6t-32 -23.5t-32 -50t-40.5 -85.5l-182 -411q-21 -48 -42.5 -78.5t-42.5 -47t-42 -22.5t-41 -6q-23 0 -45.5 6t-40.5 19.5t-29.5 34.5t-11.5 51q0 45 25.5 69.5t65.5 24.5q44 0 63 -26t19 -59q0 -14 -1.5 -26t-2 -22t2 -15.5t11.5 -5.5
q14 0 37.5 31t57.5 110l28 66l-193 418q-6 14 -12.5 24t-16 17t-23.5 10t-35 3v25h342v-25q-38 0 -48 -12t0 -36l83 -202l42 95q22 49 30.5 79.5t4.5 47.5t-18.5 22.5t-39.5 5.5h-2v25z" />
    <glyph glyph-name="y" unicode="&#x177;" horiz-adv-x="594" 
d="M395 484h202v-25q-24 0 -40.5 -6t-32 -23.5t-32 -50t-40.5 -85.5l-182 -411q-21 -48 -42.5 -78.5t-42.5 -47t-42 -22.5t-41 -6q-23 0 -45.5 6t-40.5 19.5t-29.5 34.5t-11.5 51q0 45 25.5 69.5t65.5 24.5q44 0 63 -26t19 -59q0 -14 -1.5 -26t-2 -22t2 -15.5t11.5 -5.5
q14 0 37.5 31t57.5 110l28 66l-193 418q-6 14 -12.5 24t-16 17t-23.5 10t-35 3v25h342v-25q-38 0 -48 -12t0 -36l83 -202l42 95q22 49 30.5 79.5t4.5 47.5t-18.5 22.5t-39.5 5.5h-2v25z" />
    <glyph glyph-name="y" unicode="&#xff;" horiz-adv-x="594" 
d="M395 484h202v-25q-24 0 -40.5 -6t-32 -23.5t-32 -50t-40.5 -85.5l-182 -411q-21 -48 -42.5 -78.5t-42.5 -47t-42 -22.5t-41 -6q-23 0 -45.5 6t-40.5 19.5t-29.5 34.5t-11.5 51q0 45 25.5 69.5t65.5 24.5q44 0 63 -26t19 -59q0 -14 -1.5 -26t-2 -22t2 -15.5t11.5 -5.5
q14 0 37.5 31t57.5 110l28 66l-193 418q-6 14 -12.5 24t-16 17t-23.5 10t-35 3v25h342v-25q-38 0 -48 -12t0 -36l83 -202l42 95q22 49 30.5 79.5t4.5 47.5t-18.5 22.5t-39.5 5.5h-2v25z" />
    <glyph glyph-name="y" unicode="&#xfd;" horiz-adv-x="594" 
d="M395 484h202v-25q-24 0 -40.5 -6t-32 -23.5t-32 -50t-40.5 -85.5l-182 -411q-21 -48 -42.5 -78.5t-42.5 -47t-42 -22.5t-41 -6q-23 0 -45.5 6t-40.5 19.5t-29.5 34.5t-11.5 51q0 45 25.5 69.5t65.5 24.5q44 0 63 -26t19 -59q0 -14 -1.5 -26t-2 -22t2 -15.5t11.5 -5.5
q14 0 37.5 31t57.5 110l28 66l-193 418q-6 14 -12.5 24t-16 17t-23.5 10t-35 3v25h342v-25q-38 0 -48 -12t0 -36l83 -202l42 95q22 49 30.5 79.5t4.5 47.5t-18.5 22.5t-39.5 5.5h-2v25z" />
    <glyph glyph-name="z" unicode="z" horiz-adv-x="545" 
d="M524 484l-279 -460h32q54 0 92.5 16.5t64 45t39.5 65.5t20 78h14v-229h-497l286 462h-29q-44 0 -76.5 -16t-55.5 -42.5t-37.5 -60.5t-20.5 -70h-12v211h459z" />
    <glyph glyph-name="z" unicode="&#x17e;" horiz-adv-x="545" 
d="M524 484l-279 -460h32q54 0 92.5 16.5t64 45t39.5 65.5t20 78h14v-229h-497l286 462h-29q-44 0 -76.5 -16t-55.5 -42.5t-37.5 -60.5t-20.5 -70h-12v211h459z" />
    <glyph glyph-name="z" unicode="&#x17c;" horiz-adv-x="545" 
d="M524 484l-279 -460h32q54 0 92.5 16.5t64 45t39.5 65.5t20 78h14v-229h-497l286 462h-29q-44 0 -76.5 -16t-55.5 -42.5t-37.5 -60.5t-20.5 -70h-12v211h459z" />
    <glyph glyph-name="z" unicode="&#x17a;" horiz-adv-x="545" 
d="M524 484l-279 -460h32q54 0 92.5 16.5t64 45t39.5 65.5t20 78h14v-229h-497l286 462h-29q-44 0 -76.5 -16t-55.5 -42.5t-37.5 -60.5t-20.5 -70h-12v211h459z" />
    <glyph glyph-name="uni00A0" unicode="&#xa0;" horiz-adv-x="214" 
 />
    <glyph glyph-name="uni00AD" unicode="&#xad;" horiz-adv-x="366" 
d="M36 279h294v-47h-294v47z" />
    <glyph glyph-name="paragraph" unicode="&#xb6;" horiz-adv-x="539" 
d="M414 742v-859h-47v859h-77v-859h-47v507q-44 0 -83.5 14t-69 39.5t-47 62t-17.5 82.5q0 34 11 69.5t39.5 64.5t76.5 47t122 18h223v-45h-84z" />
    <glyph glyph-name="periodcentered" unicode="&#xb7;" horiz-adv-x="294" 
d="M39 257q0 22 8.5 41.5t23.5 34.5t34.5 23.5t41.5 8.5t41.5 -8.5t34.5 -23.5t23.5 -34.5t8.5 -41.5t-8.5 -41.5t-23.5 -34.5t-34.5 -23.5t-41.5 -8.5t-41.5 8.5t-34.5 23.5t-23.5 34.5t-8.5 41.5z" />
    <glyph glyph-name="quoteright" unicode="&#x2019;" horiz-adv-x="275" 
d="M37 692q0 22 8.5 41.5t23.5 34.5t35 23.5t43 8.5q24 0 44 -9.5t33.5 -25.5t21 -38t7.5 -46q0 -32 -12.5 -66.5t-37 -67.5t-61 -61t-84.5 -46l-3 7q17 12 31 29t24 36t15.5 38t5.5 34q-42 5 -68 36t-26 72z" />
    <glyph glyph-name="bullet" unicode="&#x2022;" horiz-adv-x="466" 
d="M70 259q0 33 12.5 62t34.5 51t51 34.5t62 12.5q35 0 65.5 -12.5t53 -34.5t35 -51t12.5 -62q0 -35 -12.5 -65.5t-35 -53t-53 -35t-65.5 -12.5q-33 0 -62 12.5t-51 35t-34.5 53t-12.5 65.5z" />
    <glyph glyph-name="glyph67" horiz-adv-x="125" 
 />
    <glyph glyph-name="glyph68" horiz-adv-x="820" 
d="M306 484h160v83q-41 4 -62 29.5t-24 66.5q-2 16 -2.5 32t-3 28.5t-9 20t-19.5 7.5t-21 -13t-12 -40.5t-5.5 -71t-1.5 -105.5v-37zM466 0v448h-160v-345q0 -18 2.5 -32.5t11.5 -24.5t26 -15.5t46 -5.5h9v-25h-386v25h2q27 0 42 5.5t22.5 15.5t9.5 24.5t2 32.5v345h-79v36
h79v34q0 68 19 116.5t52.5 79t79.5 44.5t100 14q52 0 99 -13t76 -36q34 41 84.5 59t113.5 18q42 0 78.5 -8t64.5 -23.5t44 -37.5t16 -49q0 -12 -4.5 -27t-14 -28.5t-24.5 -22.5t-36 -9q-47 0 -70.5 26.5t-27.5 69.5q-2 16 -1 32t0.5 28.5t-5.5 20t-18 7.5t-21 -13t-12 -40.5
t-5.5 -71t-1.5 -105.5v-65h136v-36h-136v-345q0 -18 2.5 -32.5t11.5 -24.5t26 -15.5t46 -5.5h32v-25h-331z" />
    <glyph glyph-name="glyph70" 
d="M306 448v-345q0 -18 2.5 -32.5t11.5 -24.5t26 -15.5t46 -5.5h9v-25h-386v25h2q27 0 42 5.5t22.5 15.5t9.5 24.5t2 32.5v345h-79v36h79v62q0 68 25 116.5t66 79t93.5 44.5t106.5 14q37 0 84 -4.5t89 -18t70.5 -38.5t28.5 -66q0 -35 -22 -61t-70 -26q-40 0 -59.5 14.5
t-28 35.5t-11 46.5t-8.5 46.5t-20 35.5t-45 14.5q-19 0 -35 -12.5t-27 -40t-17.5 -71t-6.5 -106.5v-65h444v-25h-2q-27 0 -42 -5.5t-22.5 -15.5t-9.5 -24.5t-2 -32.5v-278q0 -18 2 -32.5t9.5 -24.5t22.5 -15.5t42 -5.5h2v-25h-291v380q0 15 -2 27.5t-9.5 21.5t-23 14
t-43.5 5h-75z" />
    <glyph glyph-name="glyph72" horiz-adv-x="1136" 
d="M466 546v10.5t1 10.5q-42 4 -63 29.5t-24 66.5q-2 16 -2.5 32t-3 28.5t-9 20t-19.5 7.5t-21 -13t-12 -40.5t-5.5 -71t-1.5 -105.5v-37h160v62zM1045 103q0 -18 2 -32.5t9.5 -24.5t22.5 -15.5t42 -5.5h2v-25h-291v380q0 15 -2 27.5t-9.5 21.5t-23 14t-43.5 5h-75v-345
q0 -18 2.5 -32.5t11.5 -24.5t26 -15.5t46 -5.5h17v-25h-316v448h-160v-345q0 -18 2.5 -32.5t11.5 -24.5t26 -15.5t46 -5.5h9v-25h-386v25h2q27 0 42 5.5t22.5 15.5t9.5 24.5t2 32.5v345h-79v36h79v34q0 68 19 116.5t52.5 79t79.5 44.5t100 14q57 0 106 -15t78 -42
q42 45 102.5 65t126.5 20q37 0 84 -4.5t89 -18t70.5 -38.5t28.5 -66q0 -35 -22 -61t-70 -26q-40 0 -59.5 14.5t-28 35.5t-11 46.5t-8.5 46.5t-20 35.5t-45 14.5q-19 0 -35 -12.5t-27 -40t-17.5 -71t-6.5 -106.5v-65h444v-25h-2q-27 0 -42 -5.5t-22.5 -15.5t-9.5 -24.5
t-2 -32.5v-278z" />
    <glyph glyph-name="glyph74" 
d="M756 762h-2q-27 0 -42 -5.5t-22.5 -15.5t-9.5 -24.5t-2 -32.5v-581q0 -18 2 -32.5t9.5 -24.5t22.5 -15.5t42 -5.5h2v-25h-291v620q-25 9 -39 24.5t-21.5 33t-11 35.5t-7 32.5t-9.5 24t-19 9.5q-19 0 -29.5 -12.5t-15.5 -40t-6 -71t-1 -105.5v-66h106v-36h-106v-345
q0 -18 2.5 -32.5t11.5 -24.5t26 -15.5t46 -5.5h17v-25h-394v25h2q27 0 42 5.5t22.5 15.5t9.5 24.5t2 32.5v345h-79v36h79v63q0 68 19 116t53 78.5t81.5 44.5t104.5 14q29 0 62 -3t65 -10h278v-25z" />
    <glyph glyph-name="glyph76" horiz-adv-x="1136" 
d="M1129 787v-25h-2q-27 0 -42 -5.5t-22.5 -15.5t-9.5 -24.5t-2 -32.5v-581q0 -18 2 -32.5t9.5 -24.5t22.5 -15.5t42 -5.5h2v-25h-291v620q-25 9 -39 24.5t-21.5 33t-11 35.5t-7 32.5t-9.5 24t-19 9.5q-19 0 -29.5 -12.5t-15.5 -40t-6 -71t-1 -105.5v-66h106v-36h-106v-345
q0 -18 2.5 -32.5t11.5 -24.5t26 -15.5t46 -5.5h17v-25h-316v448h-160v-345q0 -18 2.5 -32.5t11.5 -24.5t26 -15.5t46 -5.5h9v-25h-386v25h2q27 0 42 5.5t22.5 15.5t9.5 24.5t2 32.5v345h-79v36h79v35q0 68 19 116.5t52.5 79t79.5 44.5t100 14q53 0 99.5 -13t76.5 -37
q34 41 86 59t118 18q29 0 62 -3t65 -10h278zM466 568q-41 4 -62 29.5t-24 66.5q-2 16 -2.5 32t-3 28.5t-9 20t-19.5 7.5t-21 -13t-12 -40.5t-5.5 -71t-1.5 -105.5v-38h160v84z" />
    <glyph glyph-name="glyph78" horiz-adv-x="210" 
d="M-161 0h-73l606 787h73z" />
    <glyph glyph-name="zero.numr" horiz-adv-x="435" 
d="M273 575q0 105 -14 150t-42 45q-27 0 -41 -45t-14 -150q0 -102 14 -146.5t41 -44.5q28 0 42 44.5t14 146.5zM411 575q0 -53 -15 -93t-41 -68t-61.5 -42t-76.5 -14q-88 0 -140.5 56t-52.5 162q0 52 15 93t41 69t61.5 43t77.5 15q94 0 143 -58t49 -163z" />
    <glyph glyph-name="zero.dnom" horiz-adv-x="435" 
d="M273 209q0 105 -14 150t-42 45q-27 0 -41 -45t-14 -150q0 -102 14 -146.5t41 -44.5q28 0 42 44.5t14 146.5zM411 209q0 -53 -15 -93t-41 -68t-61.5 -42t-76.5 -14q-88 0 -140.5 56t-52.5 162q0 52 15 93t41 69t61.5 43t77.5 15q94 0 143 -58t49 -163z" />
    </font>
</defs>
</svg>
