<?xml version="1.0" standalone="no"?>
<!DOCTYPE svg PUBLIC "-//W3C//DTD SVG 1.1//EN" "http://www.w3.org/Graphics/SVG/1.1/DTD/svg11.dtd" >
<svg xmlns="http://www.w3.org/2000/svg" xmlns:xlink="http://www.w3.org/1999/xlink" version="1.1">
<metadata>
Created by Christoph Koeberlin (http://christoph.koe.berlin)
Copyright (c) 2019 Swiss Typefaces Sarl. All rights reserved.
</metadata>
<defs>
<font id="Font" horiz-adv-x="456" >
  <font-face 
    font-family="Font"
    font-weight="250"
    font-stretch="normal"
    units-per-em="1000"
    panose-1="2 11 2 4 0 0 0 0 0 0"
    ascent="800"
    descent="-200"
    x-height="481"
    cap-height="787"
    bbox="-249 -274 868 820"
    underline-thickness="9"
    underline-position="-142"
    unicode-range="U+0020-2022"
  />
<missing-glyph horiz-adv-x="697" 
d="M100 0v758h497v-758h-497zM117 748l232 -360l231 360h-463zM112 739v-720l231 360zM354 379l231 -360v720zM117 10h463l-231 360z" />
    <glyph glyph-name="f_f.liga" unicode="ff" horiz-adv-x="522" 
d="M346 473h-233v-473h-12v473h-79v8h79v24q0 81 19 165t119 84q16 0 29.5 -3t23.5 -7q13 -5 21 -12t8 -13q0 -3 -2 -5t-5 -2q-5 0 -9 5.5t-11 11.5t-20 12.5t-38 6.5q-91 0 -109.5 -84.5t-14.5 -165.5l1 -17h233v44q0 87 20.5 176.5t130.5 89.5q16 0 30.5 -3t25.5 -7
q13 -5 21 -12t8 -13q0 -3 -2 -5t-5 -2q-5 0 -9 5.5t-11 11.5t-21 12.5t-40 6.5q-101 0 -120 -90.5t-17 -176.5l1 -37h165v-8h-165v-473h-12v473z" />
    <glyph glyph-name="f_i.liga" unicode="fi" 
d="M112 544l1 -63h165v-8h-165v-473h-12v473h-79v8h79v69q0 86 24 163.5t114 77.5q31 0 52 -12t21 -18q0 -3 -2 -5t-5 -2q-5 0 -9 5.5t-11 11.5q-6 4 -17 9t-31 5q-83 0 -104.5 -78t-20.5 -163zM338 707q0 8 6 14t14 6t14 -6t6 -14t-6 -14t-14 -6t-14 6t-6 14zM352 481h12
v-481h-12v481z" />
    <glyph glyph-name="f_f_i.liga" unicode="ffi" horiz-adv-x="701" 
d="M346 481v69q0 86 24 163.5t114 77.5q31 0 52 -12t21 -18q0 -3 -2 -5t-5 -2q-5 0 -9 5.5t-11 11.5q-6 4 -17 9t-31 5q-83 0 -104.5 -78t-20.5 -163l1 -63h165v-8h-165v-473h-12v473h-233v-473h-12v473h-79v8h79v24q0 81 19 165t119 84q16 0 29.5 -3t23.5 -7q13 -5 21 -12
t8 -13q0 -3 -2 -5t-5 -2q-5 0 -9 5.5t-11 11.5t-20 12.5t-38 6.5q-91 0 -109.5 -84.5t-14.5 -165.5l1 -17h233zM583 707q0 8 6 14t14 6t14 -6t6 -14t-6 -14t-14 -6t-14 6t-6 14zM597 481h12v-481h-12v481z" />
    <glyph glyph-name="f_l.liga" unicode="fl" 
d="M112 544l1 -63h165v-8h-165v-473h-12v473h-79v8h79v69q0 86 24 163.5t114 77.5q31 0 52 -12t21 -18q0 -3 -2 -5t-5 -2q-5 0 -9 5.5t-11 11.5q-6 4 -17 9t-31 5q-83 0 -104.5 -78t-20.5 -163zM352 787h12v-787h-12v787z" />
    <glyph glyph-name="f_f_l.liga" unicode="ffl" horiz-adv-x="701" 
d="M346 481v69q0 86 24 163.5t114 77.5q31 0 52 -12t21 -18q0 -3 -2 -5t-5 -2q-5 0 -9 5.5t-11 11.5q-6 4 -17 9t-31 5q-83 0 -104.5 -78t-20.5 -163l1 -63h165v-8h-165v-473h-12v473h-233v-473h-12v473h-79v8h79v24q0 81 19 165t119 84q16 0 29.5 -3t23.5 -7q13 -5 21 -12
t8 -13q0 -3 -2 -5t-5 -2q-5 0 -9 5.5t-11 11.5t-20 12.5t-38 6.5q-91 0 -109.5 -84.5t-14.5 -165.5l1 -17h233zM597 787h12v-787h-12v787z" />
    <glyph glyph-name=".notdef" horiz-adv-x="697" 
d="M100 0v758h497v-758h-497zM117 748l232 -360l231 360h-463zM112 739v-720l231 360zM354 379l231 -360v720zM117 10h463l-231 360z" />
    <glyph glyph-name="glyph1" horiz-adv-x="0" 
 />
    <glyph glyph-name="glyph2" horiz-adv-x="270" 
 />
    <glyph glyph-name="space" unicode=" " horiz-adv-x="270" 
 />
    <glyph glyph-name="comma" unicode="," horiz-adv-x="139" 
d="M74 24h17l-88 -223h-6z" />
    <glyph glyph-name="hyphen" unicode="-" horiz-adv-x="438" 
d="M72 249v14h294v-14h-294z" />
    <glyph glyph-name="period" unicode="." horiz-adv-x="164" 
d="M62 9q0 8 6 14t14 6t14 -6t6 -14t-6 -14t-14 -6t-14 6t-6 14z" />
    <glyph glyph-name="slash" unicode="/" horiz-adv-x="420" 
d="M369 820h13l-331 -853h-13z" />
    <glyph glyph-name="zero" unicode="0" horiz-adv-x="650" 
d="M64 365q0 177 69.5 275.5t191.5 98.5t191.5 -98.5t69.5 -275.5t-69.5 -276t-191.5 -99t-191.5 99t-69.5 276zM78 365q0 -196 71.5 -282.5t175.5 -86.5t175.5 86.5t71.5 282.5t-71.5 282t-175.5 86t-175.5 -86t-71.5 -282z" />
    <glyph glyph-name="A" unicode="A" horiz-adv-x="658" 
d="M635 0h-14l-105 279h-375l-104 -279h-13l301 798h8zM328 777l-184 -489h368z" />
    <glyph glyph-name="A" unicode="&#x104;" horiz-adv-x="658" 
d="M635 0h-14l-105 279h-375l-104 -279h-13l301 798h8zM328 777l-184 -489h368z" />
    <glyph glyph-name="A" unicode="&#x102;" horiz-adv-x="658" 
d="M635 0h-14l-105 279h-375l-104 -279h-13l301 798h8zM328 777l-184 -489h368z" />
    <glyph glyph-name="A" unicode="&#x100;" horiz-adv-x="658" 
d="M635 0h-14l-105 279h-375l-104 -279h-13l301 798h8zM328 777l-184 -489h368z" />
    <glyph glyph-name="A" unicode="&#xc6;" horiz-adv-x="658" 
d="M635 0h-14l-105 279h-375l-104 -279h-13l301 798h8zM328 777l-184 -489h368z" />
    <glyph glyph-name="A" unicode="&#xc5;" horiz-adv-x="658" 
d="M635 0h-14l-105 279h-375l-104 -279h-13l301 798h8zM328 777l-184 -489h368z" />
    <glyph glyph-name="A" unicode="&#xc4;" horiz-adv-x="658" 
d="M635 0h-14l-105 279h-375l-104 -279h-13l301 798h8zM328 777l-184 -489h368z" />
    <glyph glyph-name="A" unicode="&#xc3;" horiz-adv-x="658" 
d="M635 0h-14l-105 279h-375l-104 -279h-13l301 798h8zM328 777l-184 -489h368z" />
    <glyph glyph-name="A" unicode="&#xc2;" horiz-adv-x="658" 
d="M635 0h-14l-105 279h-375l-104 -279h-13l301 798h8zM328 777l-184 -489h368z" />
    <glyph glyph-name="A" unicode="&#xc1;" horiz-adv-x="658" 
d="M635 0h-14l-105 279h-375l-104 -279h-13l301 798h8zM328 777l-184 -489h368z" />
    <glyph glyph-name="A" unicode="&#xc0;" horiz-adv-x="658" 
d="M635 0h-14l-105 279h-375l-104 -279h-13l301 798h8zM328 777l-184 -489h368z" />
    <glyph glyph-name="B" unicode="B" horiz-adv-x="658" 
d="M112 0v787h142q72 0 117 -5.5t78 -18.5q53 -20 81.5 -59.5t28.5 -100.5q0 -84 -63.5 -134t-144.5 -54q99 -1 177 -51t78 -157q0 -73 -36 -116.5t-92 -64.5q-37 -14 -86.5 -20t-121.5 -6h-158zM125 778v-359h188q92 0 161.5 47t69.5 137q0 60 -26.5 96t-71.5 54
q-34 14 -81.5 19.5t-116.5 5.5h-123zM125 410v-401h151q72 0 120 7t82 21q52 22 82.5 63.5t30.5 106.5q0 99 -74 151t-202 52h-190z" />
    <glyph glyph-name="C" unicode="C" horiz-adv-x="786" 
d="M454 792q67 0 141.5 -15.5t136.5 -66.5l8 -61h-5q-4 15 -8.5 29t-14.5 25q-33 40 -104.5 60.5t-152.5 20.5q-149 0 -266 -95t-117 -298t120 -298t267 -95q102 0 165.5 22t96.5 64q9 12 14 25.5t9 28.5h5l-8 -60q-59 -55 -133 -71.5t-147 -16.5q-177 0 -290.5 108.5
t-113.5 292.5t110 292.5t287 108.5z" />
    <glyph glyph-name="C" unicode="&#x10c;" horiz-adv-x="786" 
d="M454 792q67 0 141.5 -15.5t136.5 -66.5l8 -61h-5q-4 15 -8.5 29t-14.5 25q-33 40 -104.5 60.5t-152.5 20.5q-149 0 -266 -95t-117 -298t120 -298t267 -95q102 0 165.5 22t96.5 64q9 12 14 25.5t9 28.5h5l-8 -60q-59 -55 -133 -71.5t-147 -16.5q-177 0 -290.5 108.5
t-113.5 292.5t110 292.5t287 108.5z" />
    <glyph glyph-name="C" unicode="&#x10a;" horiz-adv-x="786" 
d="M454 792q67 0 141.5 -15.5t136.5 -66.5l8 -61h-5q-4 15 -8.5 29t-14.5 25q-33 40 -104.5 60.5t-152.5 20.5q-149 0 -266 -95t-117 -298t120 -298t267 -95q102 0 165.5 22t96.5 64q9 12 14 25.5t9 28.5h5l-8 -60q-59 -55 -133 -71.5t-147 -16.5q-177 0 -290.5 108.5
t-113.5 292.5t110 292.5t287 108.5z" />
    <glyph glyph-name="C" unicode="&#x108;" horiz-adv-x="786" 
d="M454 792q67 0 141.5 -15.5t136.5 -66.5l8 -61h-5q-4 15 -8.5 29t-14.5 25q-33 40 -104.5 60.5t-152.5 20.5q-149 0 -266 -95t-117 -298t120 -298t267 -95q102 0 165.5 22t96.5 64q9 12 14 25.5t9 28.5h5l-8 -60q-59 -55 -133 -71.5t-147 -16.5q-177 0 -290.5 108.5
t-113.5 292.5t110 292.5t287 108.5z" />
    <glyph glyph-name="C" unicode="&#x106;" horiz-adv-x="786" 
d="M454 792q67 0 141.5 -15.5t136.5 -66.5l8 -61h-5q-4 15 -8.5 29t-14.5 25q-33 40 -104.5 60.5t-152.5 20.5q-149 0 -266 -95t-117 -298t120 -298t267 -95q102 0 165.5 22t96.5 64q9 12 14 25.5t9 28.5h5l-8 -60q-59 -55 -133 -71.5t-147 -16.5q-177 0 -290.5 108.5
t-113.5 292.5t110 292.5t287 108.5z" />
    <glyph glyph-name="C" unicode="&#xc7;" horiz-adv-x="786" 
d="M454 792q67 0 141.5 -15.5t136.5 -66.5l8 -61h-5q-4 15 -8.5 29t-14.5 25q-33 40 -104.5 60.5t-152.5 20.5q-149 0 -266 -95t-117 -298t120 -298t267 -95q102 0 165.5 22t96.5 64q9 12 14 25.5t9 28.5h5l-8 -60q-59 -55 -133 -71.5t-147 -16.5q-177 0 -290.5 108.5
t-113.5 292.5t110 292.5t287 108.5z" />
    <glyph glyph-name="D" unicode="D" horiz-adv-x="798" 
d="M112 787h101q101 0 171 -10.5t123 -29.5q119 -44 176.5 -134t57.5 -220q0 -137 -65 -230t-198 -133q-49 -15 -113.5 -22.5t-166.5 -7.5h-86v787zM125 9h71q93 0 158 7t117 23q114 34 184.5 118.5t70.5 235.5q0 134 -55 215t-147 121q-60 26 -139 37.5t-190 11.5h-70v-769
z" />
    <glyph glyph-name="D" unicode="&#x110;" horiz-adv-x="798" 
d="M112 787h101q101 0 171 -10.5t123 -29.5q119 -44 176.5 -134t57.5 -220q0 -137 -65 -230t-198 -133q-49 -15 -113.5 -22.5t-166.5 -7.5h-86v787zM125 9h71q93 0 158 7t117 23q114 34 184.5 118.5t70.5 235.5q0 134 -55 215t-147 121q-60 26 -139 37.5t-190 11.5h-70v-769
z" />
    <glyph glyph-name="D" unicode="&#x10e;" horiz-adv-x="798" 
d="M112 787h101q101 0 171 -10.5t123 -29.5q119 -44 176.5 -134t57.5 -220q0 -137 -65 -230t-198 -133q-49 -15 -113.5 -22.5t-166.5 -7.5h-86v787zM125 9h71q93 0 158 7t117 23q114 34 184.5 118.5t70.5 235.5q0 134 -55 215t-147 121q-60 26 -139 37.5t-190 11.5h-70v-769
z" />
    <glyph glyph-name="D" unicode="&#xd0;" horiz-adv-x="798" 
d="M112 787h101q101 0 171 -10.5t123 -29.5q119 -44 176.5 -134t57.5 -220q0 -137 -65 -230t-198 -133q-49 -15 -113.5 -22.5t-166.5 -7.5h-86v787zM125 9h71q93 0 158 7t117 23q114 34 184.5 118.5t70.5 235.5q0 134 -55 215t-147 121q-60 26 -139 37.5t-190 11.5h-70v-769
z" />
    <glyph glyph-name="E" unicode="E" horiz-adv-x="593" 
d="M112 0v787h422v-9h-409v-355h376v-9h-376v-405h440v-9h-453z" />
    <glyph glyph-name="E" unicode="&#x11a;" horiz-adv-x="593" 
d="M112 0v787h422v-9h-409v-355h376v-9h-376v-405h440v-9h-453z" />
    <glyph glyph-name="E" unicode="&#x118;" horiz-adv-x="593" 
d="M112 0v787h422v-9h-409v-355h376v-9h-376v-405h440v-9h-453z" />
    <glyph glyph-name="E" unicode="&#x116;" horiz-adv-x="593" 
d="M112 0v787h422v-9h-409v-355h376v-9h-376v-405h440v-9h-453z" />
    <glyph glyph-name="E" unicode="&#x114;" horiz-adv-x="593" 
d="M112 0v787h422v-9h-409v-355h376v-9h-376v-405h440v-9h-453z" />
    <glyph glyph-name="E" unicode="&#x112;" horiz-adv-x="593" 
d="M112 0v787h422v-9h-409v-355h376v-9h-376v-405h440v-9h-453z" />
    <glyph glyph-name="E" unicode="&#xcb;" horiz-adv-x="593" 
d="M112 0v787h422v-9h-409v-355h376v-9h-376v-405h440v-9h-453z" />
    <glyph glyph-name="E" unicode="&#xca;" horiz-adv-x="593" 
d="M112 0v787h422v-9h-409v-355h376v-9h-376v-405h440v-9h-453z" />
    <glyph glyph-name="E" unicode="&#xc9;" horiz-adv-x="593" 
d="M112 0v787h422v-9h-409v-355h376v-9h-376v-405h440v-9h-453z" />
    <glyph glyph-name="E" unicode="&#xc8;" horiz-adv-x="593" 
d="M112 0v787h422v-9h-409v-355h376v-9h-376v-405h440v-9h-453z" />
    <glyph glyph-name="F" unicode="F" horiz-adv-x="557" 
d="M112 787h433v-9h-420v-355h349v-9h-349v-414h-13v787z" />
    <glyph glyph-name="G" unicode="G" horiz-adv-x="812" 
d="M732 88v241h13v-244q-40 -45 -110 -70t-174 -25q-177 0 -290.5 108.5t-113.5 292.5t110 292.5t287 108.5q67 0 141.5 -15.5t136.5 -66.5l8 -61h-5q-4 15 -8.5 29t-14.5 25q-33 40 -104.5 60.5t-152.5 20.5q-149 0 -266 -95t-117 -298t120 -298t267 -95q96 0 167.5 23.5
t105.5 66.5z" />
    <glyph glyph-name="G" unicode="&#x122;" horiz-adv-x="812" 
d="M732 88v241h13v-244q-40 -45 -110 -70t-174 -25q-177 0 -290.5 108.5t-113.5 292.5t110 292.5t287 108.5q67 0 141.5 -15.5t136.5 -66.5l8 -61h-5q-4 15 -8.5 29t-14.5 25q-33 40 -104.5 60.5t-152.5 20.5q-149 0 -266 -95t-117 -298t120 -298t267 -95q96 0 167.5 23.5
t105.5 66.5z" />
    <glyph glyph-name="G" unicode="&#x120;" horiz-adv-x="812" 
d="M732 88v241h13v-244q-40 -45 -110 -70t-174 -25q-177 0 -290.5 108.5t-113.5 292.5t110 292.5t287 108.5q67 0 141.5 -15.5t136.5 -66.5l8 -61h-5q-4 15 -8.5 29t-14.5 25q-33 40 -104.5 60.5t-152.5 20.5q-149 0 -266 -95t-117 -298t120 -298t267 -95q96 0 167.5 23.5
t105.5 66.5z" />
    <glyph glyph-name="G" unicode="&#x11e;" horiz-adv-x="812" 
d="M732 88v241h13v-244q-40 -45 -110 -70t-174 -25q-177 0 -290.5 108.5t-113.5 292.5t110 292.5t287 108.5q67 0 141.5 -15.5t136.5 -66.5l8 -61h-5q-4 15 -8.5 29t-14.5 25q-33 40 -104.5 60.5t-152.5 20.5q-149 0 -266 -95t-117 -298t120 -298t267 -95q96 0 167.5 23.5
t105.5 66.5z" />
    <glyph glyph-name="G" unicode="&#x11c;" horiz-adv-x="812" 
d="M732 88v241h13v-244q-40 -45 -110 -70t-174 -25q-177 0 -290.5 108.5t-113.5 292.5t110 292.5t287 108.5q67 0 141.5 -15.5t136.5 -66.5l8 -61h-5q-4 15 -8.5 29t-14.5 25q-33 40 -104.5 60.5t-152.5 20.5q-149 0 -266 -95t-117 -298t120 -298t267 -95q96 0 167.5 23.5
t105.5 66.5z" />
    <glyph glyph-name="H" unicode="H" horiz-adv-x="798" 
d="M673 787h13v-787h-13v414h-548v-414h-13v787h13v-364h548v364z" />
    <glyph glyph-name="H" unicode="&#x126;" horiz-adv-x="798" 
d="M673 787h13v-787h-13v414h-548v-414h-13v787h13v-364h548v364z" />
    <glyph glyph-name="H" unicode="&#x124;" horiz-adv-x="798" 
d="M673 787h13v-787h-13v414h-548v-414h-13v787h13v-364h548v364z" />
    <glyph glyph-name="I" unicode="I" horiz-adv-x="237" 
d="M112 787h13v-787h-13v787z" />
    <glyph glyph-name="I" unicode="&#x1eca;" horiz-adv-x="237" 
d="M112 787h13v-787h-13v787z" />
    <glyph glyph-name="I" unicode="&#x130;" horiz-adv-x="237" 
d="M112 787h13v-787h-13v787z" />
    <glyph glyph-name="I" unicode="&#x12e;" horiz-adv-x="237" 
d="M112 787h13v-787h-13v787z" />
    <glyph glyph-name="I" unicode="&#x12c;" horiz-adv-x="237" 
d="M112 787h13v-787h-13v787z" />
    <glyph glyph-name="I" unicode="&#x12a;" horiz-adv-x="237" 
d="M112 787h13v-787h-13v787z" />
    <glyph glyph-name="I" unicode="&#x128;" horiz-adv-x="237" 
d="M112 787h13v-787h-13v787z" />
    <glyph glyph-name="I" unicode="&#xcf;" horiz-adv-x="237" 
d="M112 787h13v-787h-13v787z" />
    <glyph glyph-name="I" unicode="&#xce;" horiz-adv-x="237" 
d="M112 787h13v-787h-13v787z" />
    <glyph glyph-name="I" unicode="&#xcd;" horiz-adv-x="237" 
d="M112 787h13v-787h-13v787z" />
    <glyph glyph-name="I" unicode="&#xcc;" horiz-adv-x="237" 
d="M112 787h13v-787h-13v787z" />
    <glyph glyph-name="J" unicode="J" horiz-adv-x="254" 
d="M136 787h13v-670q0 -81 -35.5 -131t-121.5 -89l-2 4q78 37 112 86.5t34 122.5v677z" />
    <glyph glyph-name="J" unicode="&#x134;" horiz-adv-x="254" 
d="M136 787h13v-670q0 -81 -35.5 -131t-121.5 -89l-2 4q78 37 112 86.5t34 122.5v677z" />
    <glyph glyph-name="K" unicode="K" horiz-adv-x="617" 
d="M125 787v-787h-13v787h13zM605 0l-478 394l454 393h15l-453 -391l482 -396h-20z" />
    <glyph glyph-name="K" unicode="&#x136;" horiz-adv-x="617" 
d="M125 787v-787h-13v787h13zM605 0l-478 394l454 393h15l-453 -391l482 -396h-20z" />
    <glyph glyph-name="L" unicode="L" horiz-adv-x="581" 
d="M112 0v787h13v-778h451v-9h-464z" />
    <glyph glyph-name="L" unicode="&#x141;" horiz-adv-x="581" 
d="M112 0v787h13v-778h451v-9h-464z" />
    <glyph glyph-name="L" unicode="&#x13f;" horiz-adv-x="581" 
d="M112 0v787h13v-778h451v-9h-464z" />
    <glyph glyph-name="L" unicode="&#x13d;" horiz-adv-x="581" 
d="M112 0v787h13v-778h451v-9h-464z" />
    <glyph glyph-name="L" unicode="&#x13b;" horiz-adv-x="581" 
d="M112 0v787h13v-778h451v-9h-464z" />
    <glyph glyph-name="L" unicode="&#x139;" horiz-adv-x="581" 
d="M112 0v787h13v-778h451v-9h-464z" />
    <glyph glyph-name="M" unicode="M" horiz-adv-x="930" 
d="M826 0l-45 773l-317 -674l-318 675l-45 -774h-12l48 801h11l317 -675l317 675h11l47 -801h-14z" />
    <glyph glyph-name="N" unicode="N" horiz-adv-x="796" 
d="M673 787h11v-812l-561 789v-764h-11v787h11l550 -774v774z" />
    <glyph glyph-name="N" unicode="&#x14a;" horiz-adv-x="796" 
d="M673 787h11v-812l-561 789v-764h-11v787h11l550 -774v774z" />
    <glyph glyph-name="N" unicode="&#x147;" horiz-adv-x="796" 
d="M673 787h11v-812l-561 789v-764h-11v787h11l550 -774v774z" />
    <glyph glyph-name="N" unicode="&#x145;" horiz-adv-x="796" 
d="M673 787h11v-812l-561 789v-764h-11v787h11l550 -774v774z" />
    <glyph glyph-name="N" unicode="&#x143;" horiz-adv-x="796" 
d="M673 787h11v-812l-561 789v-764h-11v787h11l550 -774v774z" />
    <glyph glyph-name="N" unicode="&#xd1;" horiz-adv-x="796" 
d="M673 787h11v-812l-561 789v-764h-11v787h11l550 -774v774z" />
    <glyph glyph-name="O" unicode="O" horiz-adv-x="900" 
d="M56 391q0 185 115 293t278 108q165 0 280 -108t115 -293t-115 -293t-280 -108q-163 0 -278 108t-115 293zM71 391q0 -203 121.5 -298t256.5 -95q137 0 258.5 95t121.5 298t-121.5 298t-258.5 95q-135 0 -256.5 -95t-121.5 -298z" />
    <glyph glyph-name="O" unicode="&#x1ecc;" horiz-adv-x="900" 
d="M56 391q0 185 115 293t278 108q165 0 280 -108t115 -293t-115 -293t-280 -108q-163 0 -278 108t-115 293zM71 391q0 -203 121.5 -298t256.5 -95q137 0 258.5 95t121.5 298t-121.5 298t-258.5 95q-135 0 -256.5 -95t-121.5 -298z" />
    <glyph glyph-name="O" unicode="&#x152;" horiz-adv-x="900" 
d="M56 391q0 185 115 293t278 108q165 0 280 -108t115 -293t-115 -293t-280 -108q-163 0 -278 108t-115 293zM71 391q0 -203 121.5 -298t256.5 -95q137 0 258.5 95t121.5 298t-121.5 298t-258.5 95q-135 0 -256.5 -95t-121.5 -298z" />
    <glyph glyph-name="O" unicode="&#x150;" horiz-adv-x="900" 
d="M56 391q0 185 115 293t278 108q165 0 280 -108t115 -293t-115 -293t-280 -108q-163 0 -278 108t-115 293zM71 391q0 -203 121.5 -298t256.5 -95q137 0 258.5 95t121.5 298t-121.5 298t-258.5 95q-135 0 -256.5 -95t-121.5 -298z" />
    <glyph glyph-name="O" unicode="&#x14e;" horiz-adv-x="900" 
d="M56 391q0 185 115 293t278 108q165 0 280 -108t115 -293t-115 -293t-280 -108q-163 0 -278 108t-115 293zM71 391q0 -203 121.5 -298t256.5 -95q137 0 258.5 95t121.5 298t-121.5 298t-258.5 95q-135 0 -256.5 -95t-121.5 -298z" />
    <glyph glyph-name="O" unicode="&#x14c;" horiz-adv-x="900" 
d="M56 391q0 185 115 293t278 108q165 0 280 -108t115 -293t-115 -293t-280 -108q-163 0 -278 108t-115 293zM71 391q0 -203 121.5 -298t256.5 -95q137 0 258.5 95t121.5 298t-121.5 298t-258.5 95q-135 0 -256.5 -95t-121.5 -298z" />
    <glyph glyph-name="O" unicode="&#xd8;" horiz-adv-x="900" 
d="M56 391q0 185 115 293t278 108q165 0 280 -108t115 -293t-115 -293t-280 -108q-163 0 -278 108t-115 293zM71 391q0 -203 121.5 -298t256.5 -95q137 0 258.5 95t121.5 298t-121.5 298t-258.5 95q-135 0 -256.5 -95t-121.5 -298z" />
    <glyph glyph-name="O" unicode="&#xd6;" horiz-adv-x="900" 
d="M56 391q0 185 115 293t278 108q165 0 280 -108t115 -293t-115 -293t-280 -108q-163 0 -278 108t-115 293zM71 391q0 -203 121.5 -298t256.5 -95q137 0 258.5 95t121.5 298t-121.5 298t-258.5 95q-135 0 -256.5 -95t-121.5 -298z" />
    <glyph glyph-name="O" unicode="&#xd5;" horiz-adv-x="900" 
d="M56 391q0 185 115 293t278 108q165 0 280 -108t115 -293t-115 -293t-280 -108q-163 0 -278 108t-115 293zM71 391q0 -203 121.5 -298t256.5 -95q137 0 258.5 95t121.5 298t-121.5 298t-258.5 95q-135 0 -256.5 -95t-121.5 -298z" />
    <glyph glyph-name="O" unicode="&#xd4;" horiz-adv-x="900" 
d="M56 391q0 185 115 293t278 108q165 0 280 -108t115 -293t-115 -293t-280 -108q-163 0 -278 108t-115 293zM71 391q0 -203 121.5 -298t256.5 -95q137 0 258.5 95t121.5 298t-121.5 298t-258.5 95q-135 0 -256.5 -95t-121.5 -298z" />
    <glyph glyph-name="O" unicode="&#xd3;" horiz-adv-x="900" 
d="M56 391q0 185 115 293t278 108q165 0 280 -108t115 -293t-115 -293t-280 -108q-163 0 -278 108t-115 293zM71 391q0 -203 121.5 -298t256.5 -95q137 0 258.5 95t121.5 298t-121.5 298t-258.5 95q-135 0 -256.5 -95t-121.5 -298z" />
    <glyph glyph-name="O" unicode="&#xd2;" horiz-adv-x="900" 
d="M56 391q0 185 115 293t278 108q165 0 280 -108t115 -293t-115 -293t-280 -108q-163 0 -278 108t-115 293zM71 391q0 -203 121.5 -298t256.5 -95q137 0 258.5 95t121.5 298t-121.5 298t-258.5 95q-135 0 -256.5 -95t-121.5 -298z" />
    <glyph glyph-name="P" unicode="P" horiz-adv-x="607" 
d="M247 321h-122v-321h-13v787h135q74 0 127 -10t92 -32q49 -27 79 -74t30 -117t-30 -117t-79 -74q-39 -22 -92 -32t-127 -10zM560 554q0 62 -25.5 108.5t-76.5 74.5q-36 20 -87.5 30.5t-132.5 10.5h-113v-448h113q81 0 132.5 10.5t87.5 30.5q51 28 76.5 74.5t25.5 108.5z
" />
    <glyph glyph-name="P" unicode="&#xde;" horiz-adv-x="607" 
d="M247 321h-122v-321h-13v787h135q74 0 127 -10t92 -32q49 -27 79 -74t30 -117t-30 -117t-79 -74q-39 -22 -92 -32t-127 -10zM560 554q0 62 -25.5 108.5t-76.5 74.5q-36 20 -87.5 30.5t-132.5 10.5h-113v-448h113q81 0 132.5 10.5t87.5 30.5q51 28 76.5 74.5t25.5 108.5z
" />
    <glyph glyph-name="Q" unicode="Q" horiz-adv-x="900" 
d="M56 391q0 185 115 293t278 108q165 0 280 -108t115 -293q0 -140 -67 -236.5t-174 -137.5l128 -161l-8 -7l-131 164q-33 -11 -69 -17t-74 -6q-163 0 -278 108t-115 293zM71 391q0 -203 121.5 -298t256.5 -95q34 0 69 6t68 17l-92 116l8 7l94 -119q96 37 164.5 127.5
t68.5 238.5q0 203 -121.5 298t-258.5 95q-135 0 -256.5 -95t-121.5 -298z" />
    <glyph glyph-name="R" unicode="R" horiz-adv-x="649" 
d="M250 383h-125v-383h-13v787h138q78 0 131 -7t95 -29q43 -22 69 -65t26 -101t-26 -102t-69 -64q-23 -11 -47 -18.5t-55 -11.5l266 -389h-15l-264 388q-22 -3 -49.5 -4t-61.5 -1zM125 392h108q81 0 126.5 5t79.5 18q56 20 86.5 62.5t30.5 107.5t-30.5 107.5t-86.5 62.5
q-34 13 -79.5 18t-126.5 5h-108v-386z" />
    <glyph glyph-name="R" unicode="&#x158;" horiz-adv-x="649" 
d="M250 383h-125v-383h-13v787h138q78 0 131 -7t95 -29q43 -22 69 -65t26 -101t-26 -102t-69 -64q-23 -11 -47 -18.5t-55 -11.5l266 -389h-15l-264 388q-22 -3 -49.5 -4t-61.5 -1zM125 392h108q81 0 126.5 5t79.5 18q56 20 86.5 62.5t30.5 107.5t-30.5 107.5t-86.5 62.5
q-34 13 -79.5 18t-126.5 5h-108v-386z" />
    <glyph glyph-name="R" unicode="&#x156;" horiz-adv-x="649" 
d="M250 383h-125v-383h-13v787h138q78 0 131 -7t95 -29q43 -22 69 -65t26 -101t-26 -102t-69 -64q-23 -11 -47 -18.5t-55 -11.5l266 -389h-15l-264 388q-22 -3 -49.5 -4t-61.5 -1zM125 392h108q81 0 126.5 5t79.5 18q56 20 86.5 62.5t30.5 107.5t-30.5 107.5t-86.5 62.5
q-34 13 -79.5 18t-126.5 5h-108v-386z" />
    <glyph glyph-name="R" unicode="&#x154;" horiz-adv-x="649" 
d="M250 383h-125v-383h-13v787h138q78 0 131 -7t95 -29q43 -22 69 -65t26 -101t-26 -102t-69 -64q-23 -11 -47 -18.5t-55 -11.5l266 -389h-15l-264 388q-22 -3 -49.5 -4t-61.5 -1zM125 392h108q81 0 126.5 5t79.5 18q56 20 86.5 62.5t30.5 107.5t-30.5 107.5t-86.5 62.5
q-34 13 -79.5 18t-126.5 5h-108v-386z" />
    <glyph glyph-name="S" unicode="S" horiz-adv-x="600" 
d="M290 -2q96 0 171 48t75 145q0 96 -64.5 141.5t-165.5 78.5l-43 14q-86 28 -140.5 72t-54.5 123q0 83 65 127.5t160 44.5q52 0 107.5 -12t105.5 -48l9 -64h-5q-3 15 -8 31t-15 27q-30 34 -91.5 46t-102.5 12q-86 0 -149 -40.5t-63 -122.5q0 -73 51.5 -115t135.5 -69
l53 -17q85 -28 156.5 -75.5t71.5 -145.5q0 -96 -69.5 -152.5t-189.5 -56.5q-59 0 -119.5 13t-109.5 51l-9 64h5q3 -15 8 -31t15 -27q33 -39 101 -50.5t109 -11.5z" />
    <glyph glyph-name="S" unicode="&#x218;" horiz-adv-x="600" 
d="M290 -2q96 0 171 48t75 145q0 96 -64.5 141.5t-165.5 78.5l-43 14q-86 28 -140.5 72t-54.5 123q0 83 65 127.5t160 44.5q52 0 107.5 -12t105.5 -48l9 -64h-5q-3 15 -8 31t-15 27q-30 34 -91.5 46t-102.5 12q-86 0 -149 -40.5t-63 -122.5q0 -73 51.5 -115t135.5 -69
l53 -17q85 -28 156.5 -75.5t71.5 -145.5q0 -96 -69.5 -152.5t-189.5 -56.5q-59 0 -119.5 13t-109.5 51l-9 64h5q3 -15 8 -31t15 -27q33 -39 101 -50.5t109 -11.5z" />
    <glyph glyph-name="S" unicode="&#x160;" horiz-adv-x="600" 
d="M290 -2q96 0 171 48t75 145q0 96 -64.5 141.5t-165.5 78.5l-43 14q-86 28 -140.5 72t-54.5 123q0 83 65 127.5t160 44.5q52 0 107.5 -12t105.5 -48l9 -64h-5q-3 15 -8 31t-15 27q-30 34 -91.5 46t-102.5 12q-86 0 -149 -40.5t-63 -122.5q0 -73 51.5 -115t135.5 -69
l53 -17q85 -28 156.5 -75.5t71.5 -145.5q0 -96 -69.5 -152.5t-189.5 -56.5q-59 0 -119.5 13t-109.5 51l-9 64h5q3 -15 8 -31t15 -27q33 -39 101 -50.5t109 -11.5z" />
    <glyph glyph-name="S" unicode="&#x15e;" horiz-adv-x="600" 
d="M290 -2q96 0 171 48t75 145q0 96 -64.5 141.5t-165.5 78.5l-43 14q-86 28 -140.5 72t-54.5 123q0 83 65 127.5t160 44.5q52 0 107.5 -12t105.5 -48l9 -64h-5q-3 15 -8 31t-15 27q-30 34 -91.5 46t-102.5 12q-86 0 -149 -40.5t-63 -122.5q0 -73 51.5 -115t135.5 -69
l53 -17q85 -28 156.5 -75.5t71.5 -145.5q0 -96 -69.5 -152.5t-189.5 -56.5q-59 0 -119.5 13t-109.5 51l-9 64h5q3 -15 8 -31t15 -27q33 -39 101 -50.5t109 -11.5z" />
    <glyph glyph-name="S" unicode="&#x15c;" horiz-adv-x="600" 
d="M290 -2q96 0 171 48t75 145q0 96 -64.5 141.5t-165.5 78.5l-43 14q-86 28 -140.5 72t-54.5 123q0 83 65 127.5t160 44.5q52 0 107.5 -12t105.5 -48l9 -64h-5q-3 15 -8 31t-15 27q-30 34 -91.5 46t-102.5 12q-86 0 -149 -40.5t-63 -122.5q0 -73 51.5 -115t135.5 -69
l53 -17q85 -28 156.5 -75.5t71.5 -145.5q0 -96 -69.5 -152.5t-189.5 -56.5q-59 0 -119.5 13t-109.5 51l-9 64h5q3 -15 8 -31t15 -27q33 -39 101 -50.5t109 -11.5z" />
    <glyph glyph-name="S" unicode="&#x15a;" horiz-adv-x="600" 
d="M290 -2q96 0 171 48t75 145q0 96 -64.5 141.5t-165.5 78.5l-43 14q-86 28 -140.5 72t-54.5 123q0 83 65 127.5t160 44.5q52 0 107.5 -12t105.5 -48l9 -64h-5q-3 15 -8 31t-15 27q-30 34 -91.5 46t-102.5 12q-86 0 -149 -40.5t-63 -122.5q0 -73 51.5 -115t135.5 -69
l53 -17q85 -28 156.5 -75.5t71.5 -145.5q0 -96 -69.5 -152.5t-189.5 -56.5q-59 0 -119.5 13t-109.5 51l-9 64h5q3 -15 8 -31t15 -27q33 -39 101 -50.5t109 -11.5z" />
    <glyph glyph-name="T" unicode="T" horiz-adv-x="651" 
d="M319 0v778h-315v9h643v-9h-315v-778h-13z" />
    <glyph glyph-name="T" unicode="&#x21a;" horiz-adv-x="651" 
d="M319 0v778h-315v9h643v-9h-315v-778h-13z" />
    <glyph glyph-name="T" unicode="&#x166;" horiz-adv-x="651" 
d="M319 0v778h-315v9h643v-9h-315v-778h-13z" />
    <glyph glyph-name="T" unicode="&#x164;" horiz-adv-x="651" 
d="M319 0v778h-315v9h643v-9h-315v-778h-13z" />
    <glyph glyph-name="T" unicode="&#x162;" horiz-adv-x="651" 
d="M319 0v778h-315v9h643v-9h-315v-778h-13z" />
    <glyph glyph-name="U" unicode="U" horiz-adv-x="807" 
d="M694 787h11v-480q0 -152 -77.5 -234.5t-223.5 -82.5q-138 0 -220 73.5t-82 235.5v488h14v-493q0 -131 69.5 -212.5t218.5 -81.5q152 0 221 87t69 220v480z" />
    <glyph glyph-name="U" unicode="&#x1ee4;" horiz-adv-x="807" 
d="M694 787h11v-480q0 -152 -77.5 -234.5t-223.5 -82.5q-138 0 -220 73.5t-82 235.5v488h14v-493q0 -131 69.5 -212.5t218.5 -81.5q152 0 221 87t69 220v480z" />
    <glyph glyph-name="U" unicode="&#x172;" horiz-adv-x="807" 
d="M694 787h11v-480q0 -152 -77.5 -234.5t-223.5 -82.5q-138 0 -220 73.5t-82 235.5v488h14v-493q0 -131 69.5 -212.5t218.5 -81.5q152 0 221 87t69 220v480z" />
    <glyph glyph-name="U" unicode="&#x170;" horiz-adv-x="807" 
d="M694 787h11v-480q0 -152 -77.5 -234.5t-223.5 -82.5q-138 0 -220 73.5t-82 235.5v488h14v-493q0 -131 69.5 -212.5t218.5 -81.5q152 0 221 87t69 220v480z" />
    <glyph glyph-name="U" unicode="&#x16e;" horiz-adv-x="807" 
d="M694 787h11v-480q0 -152 -77.5 -234.5t-223.5 -82.5q-138 0 -220 73.5t-82 235.5v488h14v-493q0 -131 69.5 -212.5t218.5 -81.5q152 0 221 87t69 220v480z" />
    <glyph glyph-name="U" unicode="&#x16c;" horiz-adv-x="807" 
d="M694 787h11v-480q0 -152 -77.5 -234.5t-223.5 -82.5q-138 0 -220 73.5t-82 235.5v488h14v-493q0 -131 69.5 -212.5t218.5 -81.5q152 0 221 87t69 220v480z" />
    <glyph glyph-name="U" unicode="&#x16a;" horiz-adv-x="807" 
d="M694 787h11v-480q0 -152 -77.5 -234.5t-223.5 -82.5q-138 0 -220 73.5t-82 235.5v488h14v-493q0 -131 69.5 -212.5t218.5 -81.5q152 0 221 87t69 220v480z" />
    <glyph glyph-name="U" unicode="&#x168;" horiz-adv-x="807" 
d="M694 787h11v-480q0 -152 -77.5 -234.5t-223.5 -82.5q-138 0 -220 73.5t-82 235.5v488h14v-493q0 -131 69.5 -212.5t218.5 -81.5q152 0 221 87t69 220v480z" />
    <glyph glyph-name="U" unicode="&#xdc;" horiz-adv-x="807" 
d="M694 787h11v-480q0 -152 -77.5 -234.5t-223.5 -82.5q-138 0 -220 73.5t-82 235.5v488h14v-493q0 -131 69.5 -212.5t218.5 -81.5q152 0 221 87t69 220v480z" />
    <glyph glyph-name="U" unicode="&#xdb;" horiz-adv-x="807" 
d="M694 787h11v-480q0 -152 -77.5 -234.5t-223.5 -82.5q-138 0 -220 73.5t-82 235.5v488h14v-493q0 -131 69.5 -212.5t218.5 -81.5q152 0 221 87t69 220v480z" />
    <glyph glyph-name="U" unicode="&#xda;" horiz-adv-x="807" 
d="M694 787h11v-480q0 -152 -77.5 -234.5t-223.5 -82.5q-138 0 -220 73.5t-82 235.5v488h14v-493q0 -131 69.5 -212.5t218.5 -81.5q152 0 221 87t69 220v480z" />
    <glyph glyph-name="U" unicode="&#xd9;" horiz-adv-x="807" 
d="M694 787h11v-480q0 -152 -77.5 -234.5t-223.5 -82.5q-138 0 -220 73.5t-82 235.5v488h14v-493q0 -131 69.5 -212.5t218.5 -81.5q152 0 221 87t69 220v480z" />
    <glyph glyph-name="V" unicode="V" horiz-adv-x="641" 
d="M27 787h14l279 -777l284 777h13l-298 -809z" />
    <glyph glyph-name="W" unicode="W" horiz-adv-x="906" 
d="M855 787h13l-199 -798h-9l-206 586l-209 -586h-9l-198 798h15l189 -773l211 590h4l208 -590z" />
    <glyph glyph-name="W" unicode="&#x1e84;" horiz-adv-x="906" 
d="M855 787h13l-199 -798h-9l-206 586l-209 -586h-9l-198 798h15l189 -773l211 590h4l208 -590z" />
    <glyph glyph-name="W" unicode="&#x1e82;" horiz-adv-x="906" 
d="M855 787h13l-199 -798h-9l-206 586l-209 -586h-9l-198 798h15l189 -773l211 590h4l208 -590z" />
    <glyph glyph-name="W" unicode="&#x1e80;" horiz-adv-x="906" 
d="M855 787h13l-199 -798h-9l-206 586l-209 -586h-9l-198 798h15l189 -773l211 590h4l208 -590z" />
    <glyph glyph-name="W" unicode="&#x174;" horiz-adv-x="906" 
d="M855 787h13l-199 -798h-9l-206 586l-209 -586h-9l-198 798h15l189 -773l211 590h4l208 -590z" />
    <glyph glyph-name="X" unicode="X" horiz-adv-x="626" 
d="M34 787h16l262 -356l253 356h15l-262 -364l313 -423h-16l-305 412l-293 -412h-15l302 420z" />
    <glyph glyph-name="Y" unicode="Y" horiz-adv-x="625" 
d="M586 787h13l-281 -495v-292h-13v293l-275 494h16l267 -483z" />
    <glyph glyph-name="Y" unicode="&#x1ef2;" horiz-adv-x="625" 
d="M586 787h13l-281 -495v-292h-13v293l-275 494h16l267 -483z" />
    <glyph glyph-name="Y" unicode="&#x232;" horiz-adv-x="625" 
d="M586 787h13l-281 -495v-292h-13v293l-275 494h16l267 -483z" />
    <glyph glyph-name="Y" unicode="&#x178;" horiz-adv-x="625" 
d="M586 787h13l-281 -495v-292h-13v293l-275 494h16l267 -483z" />
    <glyph glyph-name="Y" unicode="&#x176;" horiz-adv-x="625" 
d="M586 787h13l-281 -495v-292h-13v293l-275 494h16l267 -483z" />
    <glyph glyph-name="Y" unicode="&#xdd;" horiz-adv-x="625" 
d="M586 787h13l-281 -495v-292h-13v293l-275 494h16l267 -483z" />
    <glyph glyph-name="Z" unicode="Z" horiz-adv-x="591" 
d="M66 778v9h508v-4l-557 -774h564v-9h-583v4l557 774h-489z" />
    <glyph glyph-name="Z" unicode="&#x17d;" horiz-adv-x="591" 
d="M66 778v9h508v-4l-557 -774h564v-9h-583v4l557 774h-489z" />
    <glyph glyph-name="Z" unicode="&#x17b;" horiz-adv-x="591" 
d="M66 778v9h508v-4l-557 -774h564v-9h-583v4l557 774h-489z" />
    <glyph glyph-name="Z" unicode="&#x179;" horiz-adv-x="591" 
d="M66 778v9h508v-4l-557 -774h564v-9h-583v4l557 774h-489z" />
    <glyph glyph-name="a" unicode="a" horiz-adv-x="487" 
d="M378 295q1 57 -5.5 97t-35.5 65q-11 10 -36 22t-72 12q-51 0 -98 -31t-47 -85q0 -10 -2 -13.5t-6 -3.5q-3 0 -5 3t-2 10q0 47 45.5 86.5t115.5 39.5q48 0 79.5 -13t49.5 -34q20 -23 26.5 -58.5t5.5 -102.5l-3 -190q0 -33 1 -47.5t3 -23.5q3 -13 11 -20.5t23 -7.5
q8 0 19.5 3.5t21.5 13.5l1 -1q-8 -11 -20 -17t-24 -6q-18 0 -28.5 8t-14.5 24q-2 8 -3.5 22.5t-1.5 46.5v5l2 163q-131 1 -228.5 -29t-97.5 -119q0 -47 35.5 -81.5t106.5 -34.5q43 0 95.5 20.5t86.5 80.5q-28 -60 -81 -84.5t-102 -24.5q-81 0 -118 38.5t-37 84.5
q0 85 95 121.5t245 34.5v26z" />
    <glyph glyph-name="a" unicode="&#x105;" horiz-adv-x="487" 
d="M378 295q1 57 -5.5 97t-35.5 65q-11 10 -36 22t-72 12q-51 0 -98 -31t-47 -85q0 -10 -2 -13.5t-6 -3.5q-3 0 -5 3t-2 10q0 47 45.5 86.5t115.5 39.5q48 0 79.5 -13t49.5 -34q20 -23 26.5 -58.5t5.5 -102.5l-3 -190q0 -33 1 -47.5t3 -23.5q3 -13 11 -20.5t23 -7.5
q8 0 19.5 3.5t21.5 13.5l1 -1q-8 -11 -20 -17t-24 -6q-18 0 -28.5 8t-14.5 24q-2 8 -3.5 22.5t-1.5 46.5v5l2 163q-131 1 -228.5 -29t-97.5 -119q0 -47 35.5 -81.5t106.5 -34.5q43 0 95.5 20.5t86.5 80.5q-28 -60 -81 -84.5t-102 -24.5q-81 0 -118 38.5t-37 84.5
q0 85 95 121.5t245 34.5v26z" />
    <glyph glyph-name="a" unicode="&#x103;" horiz-adv-x="487" 
d="M378 295q1 57 -5.5 97t-35.5 65q-11 10 -36 22t-72 12q-51 0 -98 -31t-47 -85q0 -10 -2 -13.5t-6 -3.5q-3 0 -5 3t-2 10q0 47 45.5 86.5t115.5 39.5q48 0 79.5 -13t49.5 -34q20 -23 26.5 -58.5t5.5 -102.5l-3 -190q0 -33 1 -47.5t3 -23.5q3 -13 11 -20.5t23 -7.5
q8 0 19.5 3.5t21.5 13.5l1 -1q-8 -11 -20 -17t-24 -6q-18 0 -28.5 8t-14.5 24q-2 8 -3.5 22.5t-1.5 46.5v5l2 163q-131 1 -228.5 -29t-97.5 -119q0 -47 35.5 -81.5t106.5 -34.5q43 0 95.5 20.5t86.5 80.5q-28 -60 -81 -84.5t-102 -24.5q-81 0 -118 38.5t-37 84.5
q0 85 95 121.5t245 34.5v26z" />
    <glyph glyph-name="a" unicode="&#x101;" horiz-adv-x="487" 
d="M378 295q1 57 -5.5 97t-35.5 65q-11 10 -36 22t-72 12q-51 0 -98 -31t-47 -85q0 -10 -2 -13.5t-6 -3.5q-3 0 -5 3t-2 10q0 47 45.5 86.5t115.5 39.5q48 0 79.5 -13t49.5 -34q20 -23 26.5 -58.5t5.5 -102.5l-3 -190q0 -33 1 -47.5t3 -23.5q3 -13 11 -20.5t23 -7.5
q8 0 19.5 3.5t21.5 13.5l1 -1q-8 -11 -20 -17t-24 -6q-18 0 -28.5 8t-14.5 24q-2 8 -3.5 22.5t-1.5 46.5v5l2 163q-131 1 -228.5 -29t-97.5 -119q0 -47 35.5 -81.5t106.5 -34.5q43 0 95.5 20.5t86.5 80.5q-28 -60 -81 -84.5t-102 -24.5q-81 0 -118 38.5t-37 84.5
q0 85 95 121.5t245 34.5v26z" />
    <glyph glyph-name="a" unicode="&#xe6;" horiz-adv-x="487" 
d="M378 295q1 57 -5.5 97t-35.5 65q-11 10 -36 22t-72 12q-51 0 -98 -31t-47 -85q0 -10 -2 -13.5t-6 -3.5q-3 0 -5 3t-2 10q0 47 45.5 86.5t115.5 39.5q48 0 79.5 -13t49.5 -34q20 -23 26.5 -58.5t5.5 -102.5l-3 -190q0 -33 1 -47.5t3 -23.5q3 -13 11 -20.5t23 -7.5
q8 0 19.5 3.5t21.5 13.5l1 -1q-8 -11 -20 -17t-24 -6q-18 0 -28.5 8t-14.5 24q-2 8 -3.5 22.5t-1.5 46.5v5l2 163q-131 1 -228.5 -29t-97.5 -119q0 -47 35.5 -81.5t106.5 -34.5q43 0 95.5 20.5t86.5 80.5q-28 -60 -81 -84.5t-102 -24.5q-81 0 -118 38.5t-37 84.5
q0 85 95 121.5t245 34.5v26z" />
    <glyph glyph-name="a" unicode="&#xe5;" horiz-adv-x="487" 
d="M378 295q1 57 -5.5 97t-35.5 65q-11 10 -36 22t-72 12q-51 0 -98 -31t-47 -85q0 -10 -2 -13.5t-6 -3.5q-3 0 -5 3t-2 10q0 47 45.5 86.5t115.5 39.5q48 0 79.5 -13t49.5 -34q20 -23 26.5 -58.5t5.5 -102.5l-3 -190q0 -33 1 -47.5t3 -23.5q3 -13 11 -20.5t23 -7.5
q8 0 19.5 3.5t21.5 13.5l1 -1q-8 -11 -20 -17t-24 -6q-18 0 -28.5 8t-14.5 24q-2 8 -3.5 22.5t-1.5 46.5v5l2 163q-131 1 -228.5 -29t-97.5 -119q0 -47 35.5 -81.5t106.5 -34.5q43 0 95.5 20.5t86.5 80.5q-28 -60 -81 -84.5t-102 -24.5q-81 0 -118 38.5t-37 84.5
q0 85 95 121.5t245 34.5v26z" />
    <glyph glyph-name="a" unicode="&#xe4;" horiz-adv-x="487" 
d="M378 295q1 57 -5.5 97t-35.5 65q-11 10 -36 22t-72 12q-51 0 -98 -31t-47 -85q0 -10 -2 -13.5t-6 -3.5q-3 0 -5 3t-2 10q0 47 45.5 86.5t115.5 39.5q48 0 79.5 -13t49.5 -34q20 -23 26.5 -58.5t5.5 -102.5l-3 -190q0 -33 1 -47.5t3 -23.5q3 -13 11 -20.5t23 -7.5
q8 0 19.5 3.5t21.5 13.5l1 -1q-8 -11 -20 -17t-24 -6q-18 0 -28.5 8t-14.5 24q-2 8 -3.5 22.5t-1.5 46.5v5l2 163q-131 1 -228.5 -29t-97.5 -119q0 -47 35.5 -81.5t106.5 -34.5q43 0 95.5 20.5t86.5 80.5q-28 -60 -81 -84.5t-102 -24.5q-81 0 -118 38.5t-37 84.5
q0 85 95 121.5t245 34.5v26z" />
    <glyph glyph-name="a" unicode="&#xe3;" horiz-adv-x="487" 
d="M378 295q1 57 -5.5 97t-35.5 65q-11 10 -36 22t-72 12q-51 0 -98 -31t-47 -85q0 -10 -2 -13.5t-6 -3.5q-3 0 -5 3t-2 10q0 47 45.5 86.5t115.5 39.5q48 0 79.5 -13t49.5 -34q20 -23 26.5 -58.5t5.5 -102.5l-3 -190q0 -33 1 -47.5t3 -23.5q3 -13 11 -20.5t23 -7.5
q8 0 19.5 3.5t21.5 13.5l1 -1q-8 -11 -20 -17t-24 -6q-18 0 -28.5 8t-14.5 24q-2 8 -3.5 22.5t-1.5 46.5v5l2 163q-131 1 -228.5 -29t-97.5 -119q0 -47 35.5 -81.5t106.5 -34.5q43 0 95.5 20.5t86.5 80.5q-28 -60 -81 -84.5t-102 -24.5q-81 0 -118 38.5t-37 84.5
q0 85 95 121.5t245 34.5v26z" />
    <glyph glyph-name="a" unicode="&#xe2;" horiz-adv-x="487" 
d="M378 295q1 57 -5.5 97t-35.5 65q-11 10 -36 22t-72 12q-51 0 -98 -31t-47 -85q0 -10 -2 -13.5t-6 -3.5q-3 0 -5 3t-2 10q0 47 45.5 86.5t115.5 39.5q48 0 79.5 -13t49.5 -34q20 -23 26.5 -58.5t5.5 -102.5l-3 -190q0 -33 1 -47.5t3 -23.5q3 -13 11 -20.5t23 -7.5
q8 0 19.5 3.5t21.5 13.5l1 -1q-8 -11 -20 -17t-24 -6q-18 0 -28.5 8t-14.5 24q-2 8 -3.5 22.5t-1.5 46.5v5l2 163q-131 1 -228.5 -29t-97.5 -119q0 -47 35.5 -81.5t106.5 -34.5q43 0 95.5 20.5t86.5 80.5q-28 -60 -81 -84.5t-102 -24.5q-81 0 -118 38.5t-37 84.5
q0 85 95 121.5t245 34.5v26z" />
    <glyph glyph-name="a" unicode="&#xe1;" horiz-adv-x="487" 
d="M378 295q1 57 -5.5 97t-35.5 65q-11 10 -36 22t-72 12q-51 0 -98 -31t-47 -85q0 -10 -2 -13.5t-6 -3.5q-3 0 -5 3t-2 10q0 47 45.5 86.5t115.5 39.5q48 0 79.5 -13t49.5 -34q20 -23 26.5 -58.5t5.5 -102.5l-3 -190q0 -33 1 -47.5t3 -23.5q3 -13 11 -20.5t23 -7.5
q8 0 19.5 3.5t21.5 13.5l1 -1q-8 -11 -20 -17t-24 -6q-18 0 -28.5 8t-14.5 24q-2 8 -3.5 22.5t-1.5 46.5v5l2 163q-131 1 -228.5 -29t-97.5 -119q0 -47 35.5 -81.5t106.5 -34.5q43 0 95.5 20.5t86.5 80.5q-28 -60 -81 -84.5t-102 -24.5q-81 0 -118 38.5t-37 84.5
q0 85 95 121.5t245 34.5v26z" />
    <glyph glyph-name="a" unicode="&#xe0;" horiz-adv-x="487" 
d="M378 295q1 57 -5.5 97t-35.5 65q-11 10 -36 22t-72 12q-51 0 -98 -31t-47 -85q0 -10 -2 -13.5t-6 -3.5q-3 0 -5 3t-2 10q0 47 45.5 86.5t115.5 39.5q48 0 79.5 -13t49.5 -34q20 -23 26.5 -58.5t5.5 -102.5l-3 -190q0 -33 1 -47.5t3 -23.5q3 -13 11 -20.5t23 -7.5
q8 0 19.5 3.5t21.5 13.5l1 -1q-8 -11 -20 -17t-24 -6q-18 0 -28.5 8t-14.5 24q-2 8 -3.5 22.5t-1.5 46.5v5l2 163q-131 1 -228.5 -29t-97.5 -119q0 -47 35.5 -81.5t106.5 -34.5q43 0 95.5 20.5t86.5 80.5q-28 -60 -81 -84.5t-102 -24.5q-81 0 -118 38.5t-37 84.5
q0 85 95 121.5t245 34.5v26z" />
    <glyph glyph-name="b" unicode="b" horiz-adv-x="574" 
d="M92 787h12v-787h-12v787zM527 244q0 -109 -67 -181.5t-177 -72.5q-49 0 -101 22.5t-77 65.5q37 -49 90 -64.5t87 -15.5q106 0 168.5 72.5t62.5 173.5t-62 173t-169 72q-35 0 -87.5 -18t-89.5 -68q25 45 77 69.5t100 24.5q111 0 178 -72.5t67 -180.5z" />
    <glyph glyph-name="c" unicode="c" horiz-adv-x="503" 
d="M286 -2q60 0 110.5 24.5t78.5 67.5l2 -1q-33 -52 -86.5 -75.5t-104.5 -23.5q-104 0 -171.5 68.5t-67.5 186.5q0 116 70 183.5t170 67.5q35 0 65 -7.5t53 -17.5q25 -12 40.5 -26t15.5 -22q0 -3 -2 -4.5t-4 -1.5q-4 0 -6.5 3t-7.5 10q-21 28 -64.5 44t-88.5 16
q-94 0 -160.5 -66.5t-66.5 -178.5q0 -104 60.5 -175.5t164.5 -71.5z" />
    <glyph glyph-name="c" unicode="&#x10d;" horiz-adv-x="503" 
d="M286 -2q60 0 110.5 24.5t78.5 67.5l2 -1q-33 -52 -86.5 -75.5t-104.5 -23.5q-104 0 -171.5 68.5t-67.5 186.5q0 116 70 183.5t170 67.5q35 0 65 -7.5t53 -17.5q25 -12 40.5 -26t15.5 -22q0 -3 -2 -4.5t-4 -1.5q-4 0 -6.5 3t-7.5 10q-21 28 -64.5 44t-88.5 16
q-94 0 -160.5 -66.5t-66.5 -178.5q0 -104 60.5 -175.5t164.5 -71.5z" />
    <glyph glyph-name="c" unicode="&#x10b;" horiz-adv-x="503" 
d="M286 -2q60 0 110.5 24.5t78.5 67.5l2 -1q-33 -52 -86.5 -75.5t-104.5 -23.5q-104 0 -171.5 68.5t-67.5 186.5q0 116 70 183.5t170 67.5q35 0 65 -7.5t53 -17.5q25 -12 40.5 -26t15.5 -22q0 -3 -2 -4.5t-4 -1.5q-4 0 -6.5 3t-7.5 10q-21 28 -64.5 44t-88.5 16
q-94 0 -160.5 -66.5t-66.5 -178.5q0 -104 60.5 -175.5t164.5 -71.5z" />
    <glyph glyph-name="c" unicode="&#x109;" horiz-adv-x="503" 
d="M286 -2q60 0 110.5 24.5t78.5 67.5l2 -1q-33 -52 -86.5 -75.5t-104.5 -23.5q-104 0 -171.5 68.5t-67.5 186.5q0 116 70 183.5t170 67.5q35 0 65 -7.5t53 -17.5q25 -12 40.5 -26t15.5 -22q0 -3 -2 -4.5t-4 -1.5q-4 0 -6.5 3t-7.5 10q-21 28 -64.5 44t-88.5 16
q-94 0 -160.5 -66.5t-66.5 -178.5q0 -104 60.5 -175.5t164.5 -71.5z" />
    <glyph glyph-name="c" unicode="&#x107;" horiz-adv-x="503" 
d="M286 -2q60 0 110.5 24.5t78.5 67.5l2 -1q-33 -52 -86.5 -75.5t-104.5 -23.5q-104 0 -171.5 68.5t-67.5 186.5q0 116 70 183.5t170 67.5q35 0 65 -7.5t53 -17.5q25 -12 40.5 -26t15.5 -22q0 -3 -2 -4.5t-4 -1.5q-4 0 -6.5 3t-7.5 10q-21 28 -64.5 44t-88.5 16
q-94 0 -160.5 -66.5t-66.5 -178.5q0 -104 60.5 -175.5t164.5 -71.5z" />
    <glyph glyph-name="c" unicode="&#xe7;" horiz-adv-x="503" 
d="M286 -2q60 0 110.5 24.5t78.5 67.5l2 -1q-33 -52 -86.5 -75.5t-104.5 -23.5q-104 0 -171.5 68.5t-67.5 186.5q0 116 70 183.5t170 67.5q35 0 65 -7.5t53 -17.5q25 -12 40.5 -26t15.5 -22q0 -3 -2 -4.5t-4 -1.5q-4 0 -6.5 3t-7.5 10q-21 28 -64.5 44t-88.5 16
q-94 0 -160.5 -66.5t-66.5 -178.5q0 -104 60.5 -175.5t164.5 -71.5z" />
    <glyph glyph-name="d" unicode="d" horiz-adv-x="574" 
d="M470 787h12v-787h-12v787zM47 244q0 108 67.5 180.5t178.5 72.5q51 0 101 -24t75 -67q-37 49 -88 66t-88 17q-107 0 -169.5 -72t-62.5 -173t62.5 -173.5t168.5 -72.5q36 0 88 16t89 67q-25 -46 -76.5 -68.5t-101.5 -22.5q-110 0 -177 72.5t-67 181.5z" />
    <glyph glyph-name="d" unicode="&#x111;" horiz-adv-x="574" 
d="M470 787h12v-787h-12v787zM47 244q0 108 67.5 180.5t178.5 72.5q51 0 101 -24t75 -67q-37 49 -88 66t-88 17q-107 0 -169.5 -72t-62.5 -173t62.5 -173.5t168.5 -72.5q36 0 88 16t89 67q-25 -46 -76.5 -68.5t-101.5 -22.5q-110 0 -177 72.5t-67 181.5z" />
    <glyph glyph-name="d" unicode="&#x10f;" horiz-adv-x="574" 
d="M470 787h12v-787h-12v787zM47 244q0 108 67.5 180.5t178.5 72.5q51 0 101 -24t75 -67q-37 49 -88 66t-88 17q-107 0 -169.5 -72t-62.5 -173t62.5 -173.5t168.5 -72.5q36 0 88 16t89 67q-25 -46 -76.5 -68.5t-101.5 -22.5q-110 0 -177 72.5t-67 181.5z" />
    <glyph glyph-name="d" unicode="&#xf0;" horiz-adv-x="574" 
d="M470 787h12v-787h-12v787zM47 244q0 108 67.5 180.5t178.5 72.5q51 0 101 -24t75 -67q-37 49 -88 66t-88 17q-107 0 -169.5 -72t-62.5 -173t62.5 -173.5t168.5 -72.5q36 0 88 16t89 67q-25 -46 -76.5 -68.5t-101.5 -22.5q-110 0 -177 72.5t-67 181.5z" />
    <glyph glyph-name="e" unicode="e" horiz-adv-x="531" 
d="M488 295h-423q-2 -11 -3 -23t-1 -24q0 -104 60 -177t167 -73q59 0 110.5 24.5t81.5 67.5l2 -1q-34 -52 -88.5 -75.5t-107.5 -23.5q-104 0 -171.5 69.5t-67.5 188.5q0 113 69 180.5t164 67.5q91 0 149 -54.5t59 -146.5zM279 490q-78 0 -137.5 -51.5t-75.5 -136.5h408
q-1 84 -54.5 136t-140.5 52z" />
    <glyph glyph-name="e" unicode="&#x11b;" horiz-adv-x="531" 
d="M488 295h-423q-2 -11 -3 -23t-1 -24q0 -104 60 -177t167 -73q59 0 110.5 24.5t81.5 67.5l2 -1q-34 -52 -88.5 -75.5t-107.5 -23.5q-104 0 -171.5 69.5t-67.5 188.5q0 113 69 180.5t164 67.5q91 0 149 -54.5t59 -146.5zM279 490q-78 0 -137.5 -51.5t-75.5 -136.5h408
q-1 84 -54.5 136t-140.5 52z" />
    <glyph glyph-name="e" unicode="&#x119;" horiz-adv-x="531" 
d="M488 295h-423q-2 -11 -3 -23t-1 -24q0 -104 60 -177t167 -73q59 0 110.5 24.5t81.5 67.5l2 -1q-34 -52 -88.5 -75.5t-107.5 -23.5q-104 0 -171.5 69.5t-67.5 188.5q0 113 69 180.5t164 67.5q91 0 149 -54.5t59 -146.5zM279 490q-78 0 -137.5 -51.5t-75.5 -136.5h408
q-1 84 -54.5 136t-140.5 52z" />
    <glyph glyph-name="e" unicode="&#x117;" horiz-adv-x="531" 
d="M488 295h-423q-2 -11 -3 -23t-1 -24q0 -104 60 -177t167 -73q59 0 110.5 24.5t81.5 67.5l2 -1q-34 -52 -88.5 -75.5t-107.5 -23.5q-104 0 -171.5 69.5t-67.5 188.5q0 113 69 180.5t164 67.5q91 0 149 -54.5t59 -146.5zM279 490q-78 0 -137.5 -51.5t-75.5 -136.5h408
q-1 84 -54.5 136t-140.5 52z" />
    <glyph glyph-name="e" unicode="&#x115;" horiz-adv-x="531" 
d="M488 295h-423q-2 -11 -3 -23t-1 -24q0 -104 60 -177t167 -73q59 0 110.5 24.5t81.5 67.5l2 -1q-34 -52 -88.5 -75.5t-107.5 -23.5q-104 0 -171.5 69.5t-67.5 188.5q0 113 69 180.5t164 67.5q91 0 149 -54.5t59 -146.5zM279 490q-78 0 -137.5 -51.5t-75.5 -136.5h408
q-1 84 -54.5 136t-140.5 52z" />
    <glyph glyph-name="e" unicode="&#x113;" horiz-adv-x="531" 
d="M488 295h-423q-2 -11 -3 -23t-1 -24q0 -104 60 -177t167 -73q59 0 110.5 24.5t81.5 67.5l2 -1q-34 -52 -88.5 -75.5t-107.5 -23.5q-104 0 -171.5 69.5t-67.5 188.5q0 113 69 180.5t164 67.5q91 0 149 -54.5t59 -146.5zM279 490q-78 0 -137.5 -51.5t-75.5 -136.5h408
q-1 84 -54.5 136t-140.5 52z" />
    <glyph glyph-name="e" unicode="&#xeb;" horiz-adv-x="531" 
d="M488 295h-423q-2 -11 -3 -23t-1 -24q0 -104 60 -177t167 -73q59 0 110.5 24.5t81.5 67.5l2 -1q-34 -52 -88.5 -75.5t-107.5 -23.5q-104 0 -171.5 69.5t-67.5 188.5q0 113 69 180.5t164 67.5q91 0 149 -54.5t59 -146.5zM279 490q-78 0 -137.5 -51.5t-75.5 -136.5h408
q-1 84 -54.5 136t-140.5 52z" />
    <glyph glyph-name="e" unicode="&#xea;" horiz-adv-x="531" 
d="M488 295h-423q-2 -11 -3 -23t-1 -24q0 -104 60 -177t167 -73q59 0 110.5 24.5t81.5 67.5l2 -1q-34 -52 -88.5 -75.5t-107.5 -23.5q-104 0 -171.5 69.5t-67.5 188.5q0 113 69 180.5t164 67.5q91 0 149 -54.5t59 -146.5zM279 490q-78 0 -137.5 -51.5t-75.5 -136.5h408
q-1 84 -54.5 136t-140.5 52z" />
    <glyph glyph-name="e" unicode="&#xe9;" horiz-adv-x="531" 
d="M488 295h-423q-2 -11 -3 -23t-1 -24q0 -104 60 -177t167 -73q59 0 110.5 24.5t81.5 67.5l2 -1q-34 -52 -88.5 -75.5t-107.5 -23.5q-104 0 -171.5 69.5t-67.5 188.5q0 113 69 180.5t164 67.5q91 0 149 -54.5t59 -146.5zM279 490q-78 0 -137.5 -51.5t-75.5 -136.5h408
q-1 84 -54.5 136t-140.5 52z" />
    <glyph glyph-name="e" unicode="&#xe8;" horiz-adv-x="531" 
d="M488 295h-423q-2 -11 -3 -23t-1 -24q0 -104 60 -177t167 -73q59 0 110.5 24.5t81.5 67.5l2 -1q-34 -52 -88.5 -75.5t-107.5 -23.5q-104 0 -171.5 69.5t-67.5 188.5q0 113 69 180.5t164 67.5q91 0 149 -54.5t59 -146.5zM279 490q-78 0 -137.5 -51.5t-75.5 -136.5h408
q-1 84 -54.5 136t-140.5 52z" />
    <glyph glyph-name="f" unicode="f" horiz-adv-x="277" 
d="M112 518l1 -37h165v-8h-165v-473h-12v473h-79v8h79v44q0 87 20.5 176.5t130.5 89.5q16 0 30.5 -3t25.5 -7q13 -5 21 -12t8 -13q0 -3 -2 -5t-5 -2q-5 0 -9 5.5t-11 11.5t-21 12.5t-40 6.5q-101 0 -120 -90.5t-17 -176.5z" />
    <glyph glyph-name="g" unicode="g" horiz-adv-x="478" 
d="M56 328q0 77 54.5 122.5t126.5 45.5q20 0 39.5 -4t37.5 -11h171v-8h-154q38 -20 62.5 -57.5t24.5 -87.5q0 -77 -54.5 -122.5t-126.5 -45.5t-126.5 45.5t-54.5 122.5zM70 328q0 -75 49 -118.5t118 -43.5t118 43.5t49 118.5t-49 118.5t-118 43.5t-118 -43.5t-49 -118.5z
M177 3q-69 -11 -106.5 -44.5t-37.5 -84.5q0 -54 56.5 -94t155.5 -40q93 0 160 40.5t67 111.5q0 54 -43 82.5t-142 28.5h-75q-43 0 -80.5 4.5t-59.5 23.5q-10 9 -15.5 21t-5.5 29q0 37 39 58.5t100 25.5q-59 -7 -93.5 -28.5t-34.5 -54.5q0 -15 5.5 -26.5t15.5 -19.5
q15 -12 44 -17.5t83 -5.5h84q65 0 127.5 -22t62.5 -97q0 -85 -78 -122.5t-163 -37.5q-101 0 -162 41.5t-61 98.5q0 46 39.5 83.5t117.5 45.5z" />
    <glyph glyph-name="g" unicode="&#x123;" horiz-adv-x="478" 
d="M56 328q0 77 54.5 122.5t126.5 45.5q20 0 39.5 -4t37.5 -11h171v-8h-154q38 -20 62.5 -57.5t24.5 -87.5q0 -77 -54.5 -122.5t-126.5 -45.5t-126.5 45.5t-54.5 122.5zM70 328q0 -75 49 -118.5t118 -43.5t118 43.5t49 118.5t-49 118.5t-118 43.5t-118 -43.5t-49 -118.5z
M177 3q-69 -11 -106.5 -44.5t-37.5 -84.5q0 -54 56.5 -94t155.5 -40q93 0 160 40.5t67 111.5q0 54 -43 82.5t-142 28.5h-75q-43 0 -80.5 4.5t-59.5 23.5q-10 9 -15.5 21t-5.5 29q0 37 39 58.5t100 25.5q-59 -7 -93.5 -28.5t-34.5 -54.5q0 -15 5.5 -26.5t15.5 -19.5
q15 -12 44 -17.5t83 -5.5h84q65 0 127.5 -22t62.5 -97q0 -85 -78 -122.5t-163 -37.5q-101 0 -162 41.5t-61 98.5q0 46 39.5 83.5t117.5 45.5z" />
    <glyph glyph-name="g" unicode="&#x121;" horiz-adv-x="478" 
d="M56 328q0 77 54.5 122.5t126.5 45.5q20 0 39.5 -4t37.5 -11h171v-8h-154q38 -20 62.5 -57.5t24.5 -87.5q0 -77 -54.5 -122.5t-126.5 -45.5t-126.5 45.5t-54.5 122.5zM70 328q0 -75 49 -118.5t118 -43.5t118 43.5t49 118.5t-49 118.5t-118 43.5t-118 -43.5t-49 -118.5z
M177 3q-69 -11 -106.5 -44.5t-37.5 -84.5q0 -54 56.5 -94t155.5 -40q93 0 160 40.5t67 111.5q0 54 -43 82.5t-142 28.5h-75q-43 0 -80.5 4.5t-59.5 23.5q-10 9 -15.5 21t-5.5 29q0 37 39 58.5t100 25.5q-59 -7 -93.5 -28.5t-34.5 -54.5q0 -15 5.5 -26.5t15.5 -19.5
q15 -12 44 -17.5t83 -5.5h84q65 0 127.5 -22t62.5 -97q0 -85 -78 -122.5t-163 -37.5q-101 0 -162 41.5t-61 98.5q0 46 39.5 83.5t117.5 45.5z" />
    <glyph glyph-name="g" unicode="&#x11f;" horiz-adv-x="478" 
d="M56 328q0 77 54.5 122.5t126.5 45.5q20 0 39.5 -4t37.5 -11h171v-8h-154q38 -20 62.5 -57.5t24.5 -87.5q0 -77 -54.5 -122.5t-126.5 -45.5t-126.5 45.5t-54.5 122.5zM70 328q0 -75 49 -118.5t118 -43.5t118 43.5t49 118.5t-49 118.5t-118 43.5t-118 -43.5t-49 -118.5z
M177 3q-69 -11 -106.5 -44.5t-37.5 -84.5q0 -54 56.5 -94t155.5 -40q93 0 160 40.5t67 111.5q0 54 -43 82.5t-142 28.5h-75q-43 0 -80.5 4.5t-59.5 23.5q-10 9 -15.5 21t-5.5 29q0 37 39 58.5t100 25.5q-59 -7 -93.5 -28.5t-34.5 -54.5q0 -15 5.5 -26.5t15.5 -19.5
q15 -12 44 -17.5t83 -5.5h84q65 0 127.5 -22t62.5 -97q0 -85 -78 -122.5t-163 -37.5q-101 0 -162 41.5t-61 98.5q0 46 39.5 83.5t117.5 45.5z" />
    <glyph glyph-name="g" unicode="&#x11d;" horiz-adv-x="478" 
d="M56 328q0 77 54.5 122.5t126.5 45.5q20 0 39.5 -4t37.5 -11h171v-8h-154q38 -20 62.5 -57.5t24.5 -87.5q0 -77 -54.5 -122.5t-126.5 -45.5t-126.5 45.5t-54.5 122.5zM70 328q0 -75 49 -118.5t118 -43.5t118 43.5t49 118.5t-49 118.5t-118 43.5t-118 -43.5t-49 -118.5z
M177 3q-69 -11 -106.5 -44.5t-37.5 -84.5q0 -54 56.5 -94t155.5 -40q93 0 160 40.5t67 111.5q0 54 -43 82.5t-142 28.5h-75q-43 0 -80.5 4.5t-59.5 23.5q-10 9 -15.5 21t-5.5 29q0 37 39 58.5t100 25.5q-59 -7 -93.5 -28.5t-34.5 -54.5q0 -15 5.5 -26.5t15.5 -19.5
q15 -12 44 -17.5t83 -5.5h84q65 0 127.5 -22t62.5 -97q0 -85 -78 -122.5t-163 -37.5q-101 0 -162 41.5t-61 98.5q0 46 39.5 83.5t117.5 45.5z" />
    <glyph glyph-name="h" unicode="h" horiz-adv-x="550" 
d="M92 787h12v-787h-12v787zM467 257v-257h-12v227q0 74 -6 122t-28 80q-18 26 -49.5 42.5t-81.5 16.5q-75 0 -123.5 -44.5t-62.5 -113.5q15 90 70 128t120 38q46 0 78 -14t52 -37q25 -30 34 -75.5t9 -112.5z" />
    <glyph glyph-name="h" unicode="&#x127;" horiz-adv-x="550" 
d="M92 787h12v-787h-12v787zM467 257v-257h-12v227q0 74 -6 122t-28 80q-18 26 -49.5 42.5t-81.5 16.5q-75 0 -123.5 -44.5t-62.5 -113.5q15 90 70 128t120 38q46 0 78 -14t52 -37q25 -30 34 -75.5t9 -112.5z" />
    <glyph glyph-name="h" unicode="&#x125;" horiz-adv-x="550" 
d="M92 787h12v-787h-12v787zM467 257v-257h-12v227q0 74 -6 122t-28 80q-18 26 -49.5 42.5t-81.5 16.5q-75 0 -123.5 -44.5t-62.5 -113.5q15 90 70 128t120 38q46 0 78 -14t52 -37q25 -30 34 -75.5t9 -112.5z" />
    <glyph glyph-name="i" unicode="i" horiz-adv-x="196" 
d="M78 707q0 8 6 14t14 6t14 -6t6 -14t-6 -14t-14 -6t-14 6t-6 14zM92 481h12v-481h-12v481z" />
    <glyph glyph-name="i" unicode="&#x1ecb;" horiz-adv-x="196" 
d="M78 707q0 8 6 14t14 6t14 -6t6 -14t-6 -14t-14 -6t-14 6t-6 14zM92 481h12v-481h-12v481z" />
    <glyph glyph-name="i" unicode="&#x131;" horiz-adv-x="196" 
d="M78 707q0 8 6 14t14 6t14 -6t6 -14t-6 -14t-14 -6t-14 6t-6 14zM92 481h12v-481h-12v481z" />
    <glyph glyph-name="i" unicode="&#x12f;" horiz-adv-x="196" 
d="M78 707q0 8 6 14t14 6t14 -6t6 -14t-6 -14t-14 -6t-14 6t-6 14zM92 481h12v-481h-12v481z" />
    <glyph glyph-name="i" unicode="&#x12d;" horiz-adv-x="196" 
d="M78 707q0 8 6 14t14 6t14 -6t6 -14t-6 -14t-14 -6t-14 6t-6 14zM92 481h12v-481h-12v481z" />
    <glyph glyph-name="i" unicode="&#x12b;" horiz-adv-x="196" 
d="M78 707q0 8 6 14t14 6t14 -6t6 -14t-6 -14t-14 -6t-14 6t-6 14zM92 481h12v-481h-12v481z" />
    <glyph glyph-name="i" unicode="&#x129;" horiz-adv-x="196" 
d="M78 707q0 8 6 14t14 6t14 -6t6 -14t-6 -14t-14 -6t-14 6t-6 14zM92 481h12v-481h-12v481z" />
    <glyph glyph-name="i" unicode="&#xef;" horiz-adv-x="196" 
d="M78 707q0 8 6 14t14 6t14 -6t6 -14t-6 -14t-14 -6t-14 6t-6 14zM92 481h12v-481h-12v481z" />
    <glyph glyph-name="i" unicode="&#xee;" horiz-adv-x="196" 
d="M78 707q0 8 6 14t14 6t14 -6t6 -14t-6 -14t-14 -6t-14 6t-6 14zM92 481h12v-481h-12v481z" />
    <glyph glyph-name="i" unicode="&#xed;" horiz-adv-x="196" 
d="M78 707q0 8 6 14t14 6t14 -6t6 -14t-6 -14t-14 -6t-14 6t-6 14zM92 481h12v-481h-12v481z" />
    <glyph glyph-name="i" unicode="&#xec;" horiz-adv-x="196" 
d="M78 707q0 8 6 14t14 6t14 -6t6 -14t-6 -14t-14 -6t-14 6t-6 14zM92 481h12v-481h-12v481z" />
    <glyph glyph-name="j" unicode="j" horiz-adv-x="196" 
d="M78 707q0 8 6 14t14 6t14 -6t6 -14t-6 -14t-14 -6t-14 6t-6 14zM104 481v-403q0 -93 -16.5 -193.5t-79.5 -158.5l-2 3q60 63 73 165.5t13 183.5v403h12z" />
    <glyph glyph-name="j" unicode="&#x237;" horiz-adv-x="196" 
d="M78 707q0 8 6 14t14 6t14 -6t6 -14t-6 -14t-14 -6t-14 6t-6 14zM104 481v-403q0 -93 -16.5 -193.5t-79.5 -158.5l-2 3q60 63 73 165.5t13 183.5v403h12z" />
    <glyph glyph-name="j" unicode="&#x135;" horiz-adv-x="196" 
d="M78 707q0 8 6 14t14 6t14 -6t6 -14t-6 -14t-14 -6t-14 6t-6 14zM104 481v-403q0 -93 -16.5 -193.5t-79.5 -158.5l-2 3q60 63 73 165.5t13 183.5v403h12z" />
    <glyph glyph-name="k" unicode="k" horiz-adv-x="457" 
d="M92 787h12v-787h-12v787zM431 481l-299 -221l325 -260h-17l-324 258l299 223h16z" />
    <glyph glyph-name="k" unicode="&#x137;" horiz-adv-x="457" 
d="M92 787h12v-787h-12v787zM431 481l-299 -221l325 -260h-17l-324 258l299 223h16z" />
    <glyph glyph-name="l" unicode="l" horiz-adv-x="196" 
d="M92 787h12v-787h-12v787z" />
    <glyph glyph-name="l" unicode="&#x142;" horiz-adv-x="196" 
d="M92 787h12v-787h-12v787z" />
    <glyph glyph-name="l" unicode="&#x140;" horiz-adv-x="196" 
d="M92 787h12v-787h-12v787z" />
    <glyph glyph-name="l" unicode="&#x13e;" horiz-adv-x="196" 
d="M92 787h12v-787h-12v787z" />
    <glyph glyph-name="l" unicode="&#x13c;" horiz-adv-x="196" 
d="M92 787h12v-787h-12v787z" />
    <glyph glyph-name="l" unicode="&#x13a;" horiz-adv-x="196" 
d="M92 787h12v-787h-12v787z" />
    <glyph glyph-name="m" unicode="m" horiz-adv-x="905" 
d="M451 0v266q0 72 -11.5 113t-34.5 65q-20 22 -50 33t-68 11q-72 0 -120.5 -43.5t-62.5 -101.5q17 81 72.5 117t114.5 36q39 0 70 -11t53 -33q23 -24 36 -64t13 -106v-282h-12zM810 0v266q0 72 -11.5 113t-34.5 65q-20 22 -50 33t-68 11q-72 0 -120.5 -43.5t-62.5 -101.5
q17 81 72.5 117t114.5 36q39 0 70 -11t53 -33q23 -24 36 -64t13 -106v-282h-12zM92 481h12v-481h-12v481z" />
    <glyph glyph-name="n" unicode="n" horiz-adv-x="550" 
d="M467 257v-257h-12v227q0 74 -6 122t-28 80q-18 26 -49.5 42.5t-81.5 16.5q-75 0 -123.5 -44.5t-62.5 -113.5q15 90 70 128t120 38q46 0 78 -14t52 -37q25 -30 34 -75.5t9 -112.5zM92 481h12v-481h-12v481z" />
    <glyph glyph-name="n" unicode="&#x14b;" horiz-adv-x="550" 
d="M467 257v-257h-12v227q0 74 -6 122t-28 80q-18 26 -49.5 42.5t-81.5 16.5q-75 0 -123.5 -44.5t-62.5 -113.5q15 90 70 128t120 38q46 0 78 -14t52 -37q25 -30 34 -75.5t9 -112.5zM92 481h12v-481h-12v481z" />
    <glyph glyph-name="n" unicode="&#x148;" horiz-adv-x="550" 
d="M467 257v-257h-12v227q0 74 -6 122t-28 80q-18 26 -49.5 42.5t-81.5 16.5q-75 0 -123.5 -44.5t-62.5 -113.5q15 90 70 128t120 38q46 0 78 -14t52 -37q25 -30 34 -75.5t9 -112.5zM92 481h12v-481h-12v481z" />
    <glyph glyph-name="n" unicode="&#x146;" horiz-adv-x="550" 
d="M467 257v-257h-12v227q0 74 -6 122t-28 80q-18 26 -49.5 42.5t-81.5 16.5q-75 0 -123.5 -44.5t-62.5 -113.5q15 90 70 128t120 38q46 0 78 -14t52 -37q25 -30 34 -75.5t9 -112.5zM92 481h12v-481h-12v481z" />
    <glyph glyph-name="n" unicode="&#x144;" horiz-adv-x="550" 
d="M467 257v-257h-12v227q0 74 -6 122t-28 80q-18 26 -49.5 42.5t-81.5 16.5q-75 0 -123.5 -44.5t-62.5 -113.5q15 90 70 128t120 38q46 0 78 -14t52 -37q25 -30 34 -75.5t9 -112.5zM92 481h12v-481h-12v481z" />
    <glyph glyph-name="n" unicode="&#xf1;" horiz-adv-x="550" 
d="M467 257v-257h-12v227q0 74 -6 122t-28 80q-18 26 -49.5 42.5t-81.5 16.5q-75 0 -123.5 -44.5t-62.5 -113.5q15 90 70 128t120 38q46 0 78 -14t52 -37q25 -30 34 -75.5t9 -112.5zM92 481h12v-481h-12v481z" />
    <glyph glyph-name="o" unicode="o" horiz-adv-x="586" 
d="M46 243q0 122 79 187.5t168 65.5t168 -65.5t79 -187.5t-79 -187.5t-168 -65.5t-168 65.5t-79 187.5zM60 243q0 -124 76 -185.5t157 -61.5t157 61.5t76 185.5t-76.5 185.5t-156.5 61.5t-156.5 -61.5t-76.5 -185.5z" />
    <glyph glyph-name="o" unicode="&#x1ecd;" horiz-adv-x="586" 
d="M46 243q0 122 79 187.5t168 65.5t168 -65.5t79 -187.5t-79 -187.5t-168 -65.5t-168 65.5t-79 187.5zM60 243q0 -124 76 -185.5t157 -61.5t157 61.5t76 185.5t-76.5 185.5t-156.5 61.5t-156.5 -61.5t-76.5 -185.5z" />
    <glyph glyph-name="o" unicode="&#x153;" horiz-adv-x="586" 
d="M46 243q0 122 79 187.5t168 65.5t168 -65.5t79 -187.5t-79 -187.5t-168 -65.5t-168 65.5t-79 187.5zM60 243q0 -124 76 -185.5t157 -61.5t157 61.5t76 185.5t-76.5 185.5t-156.5 61.5t-156.5 -61.5t-76.5 -185.5z" />
    <glyph glyph-name="o" unicode="&#x151;" horiz-adv-x="586" 
d="M46 243q0 122 79 187.5t168 65.5t168 -65.5t79 -187.5t-79 -187.5t-168 -65.5t-168 65.5t-79 187.5zM60 243q0 -124 76 -185.5t157 -61.5t157 61.5t76 185.5t-76.5 185.5t-156.5 61.5t-156.5 -61.5t-76.5 -185.5z" />
    <glyph glyph-name="o" unicode="&#x14f;" horiz-adv-x="586" 
d="M46 243q0 122 79 187.5t168 65.5t168 -65.5t79 -187.5t-79 -187.5t-168 -65.5t-168 65.5t-79 187.5zM60 243q0 -124 76 -185.5t157 -61.5t157 61.5t76 185.5t-76.5 185.5t-156.5 61.5t-156.5 -61.5t-76.5 -185.5z" />
    <glyph glyph-name="o" unicode="&#x14d;" horiz-adv-x="586" 
d="M46 243q0 122 79 187.5t168 65.5t168 -65.5t79 -187.5t-79 -187.5t-168 -65.5t-168 65.5t-79 187.5zM60 243q0 -124 76 -185.5t157 -61.5t157 61.5t76 185.5t-76.5 185.5t-156.5 61.5t-156.5 -61.5t-76.5 -185.5z" />
    <glyph glyph-name="o" unicode="&#xf8;" horiz-adv-x="586" 
d="M46 243q0 122 79 187.5t168 65.5t168 -65.5t79 -187.5t-79 -187.5t-168 -65.5t-168 65.5t-79 187.5zM60 243q0 -124 76 -185.5t157 -61.5t157 61.5t76 185.5t-76.5 185.5t-156.5 61.5t-156.5 -61.5t-76.5 -185.5z" />
    <glyph glyph-name="o" unicode="&#xf6;" horiz-adv-x="586" 
d="M46 243q0 122 79 187.5t168 65.5t168 -65.5t79 -187.5t-79 -187.5t-168 -65.5t-168 65.5t-79 187.5zM60 243q0 -124 76 -185.5t157 -61.5t157 61.5t76 185.5t-76.5 185.5t-156.5 61.5t-156.5 -61.5t-76.5 -185.5z" />
    <glyph glyph-name="o" unicode="&#xf5;" horiz-adv-x="586" 
d="M46 243q0 122 79 187.5t168 65.5t168 -65.5t79 -187.5t-79 -187.5t-168 -65.5t-168 65.5t-79 187.5zM60 243q0 -124 76 -185.5t157 -61.5t157 61.5t76 185.5t-76.5 185.5t-156.5 61.5t-156.5 -61.5t-76.5 -185.5z" />
    <glyph glyph-name="o" unicode="&#xf4;" horiz-adv-x="586" 
d="M46 243q0 122 79 187.5t168 65.5t168 -65.5t79 -187.5t-79 -187.5t-168 -65.5t-168 65.5t-79 187.5zM60 243q0 -124 76 -185.5t157 -61.5t157 61.5t76 185.5t-76.5 185.5t-156.5 61.5t-156.5 -61.5t-76.5 -185.5z" />
    <glyph glyph-name="o" unicode="&#xf3;" horiz-adv-x="586" 
d="M46 243q0 122 79 187.5t168 65.5t168 -65.5t79 -187.5t-79 -187.5t-168 -65.5t-168 65.5t-79 187.5zM60 243q0 -124 76 -185.5t157 -61.5t157 61.5t76 185.5t-76.5 185.5t-156.5 61.5t-156.5 -61.5t-76.5 -185.5z" />
    <glyph glyph-name="o" unicode="&#xf2;" horiz-adv-x="586" 
d="M46 243q0 122 79 187.5t168 65.5t168 -65.5t79 -187.5t-79 -187.5t-168 -65.5t-168 65.5t-79 187.5zM60 243q0 -124 76 -185.5t157 -61.5t157 61.5t76 185.5t-76.5 185.5t-156.5 61.5t-156.5 -61.5t-76.5 -185.5z" />
    <glyph glyph-name="p" unicode="p" horiz-adv-x="574" 
d="M527 244q0 -109 -67 -181.5t-177 -72.5q-49 0 -101 22.5t-77 65.5q37 -49 90 -64.5t87 -15.5q106 0 168.5 72.5t62.5 173.5t-62 173t-169 72q-35 0 -87.5 -18t-89.5 -68q25 45 77 69.5t100 24.5q111 0 178 -72.5t67 -180.5zM104 -262h-12v743h12v-743z" />
    <glyph glyph-name="p" unicode="&#xfe;" horiz-adv-x="574" 
d="M527 244q0 -109 -67 -181.5t-177 -72.5q-49 0 -101 22.5t-77 65.5q37 -49 90 -64.5t87 -15.5q106 0 168.5 72.5t62.5 173.5t-62 173t-169 72q-35 0 -87.5 -18t-89.5 -68q25 45 77 69.5t100 24.5q111 0 178 -72.5t67 -180.5zM104 -262h-12v743h12v-743z" />
    <glyph glyph-name="q" unicode="q" horiz-adv-x="573" 
d="M47 244q0 108 67.5 180.5t178.5 72.5q51 0 101 -24t75 -67q-37 49 -88 66t-88 17q-107 0 -169.5 -72t-62.5 -173t62.5 -173.5t168.5 -72.5q36 0 88 16t89 67q-25 -46 -76.5 -68.5t-101.5 -22.5q-110 0 -177 72.5t-67 181.5zM470 -262v743h12v-743h-12z" />
    <glyph glyph-name="r" unicode="r" horiz-adv-x="320" 
d="M104 336q12 79 55.5 117t106.5 38q13 0 23.5 -1.5t19.5 -4.5v-14q-13 4 -25 6.5t-27 2.5q-63 0 -101 -39t-52 -105zM92 481h12v-481h-12v481z" />
    <glyph glyph-name="r" unicode="&#x159;" horiz-adv-x="320" 
d="M104 336q12 79 55.5 117t106.5 38q13 0 23.5 -1.5t19.5 -4.5v-14q-13 4 -25 6.5t-27 2.5q-63 0 -101 -39t-52 -105zM92 481h12v-481h-12v481z" />
    <glyph glyph-name="r" unicode="&#x157;" horiz-adv-x="320" 
d="M104 336q12 79 55.5 117t106.5 38q13 0 23.5 -1.5t19.5 -4.5v-14q-13 4 -25 6.5t-27 2.5q-63 0 -101 -39t-52 -105zM92 481h12v-481h-12v481z" />
    <glyph glyph-name="r" unicode="&#x155;" horiz-adv-x="320" 
d="M104 336q12 79 55.5 117t106.5 38q13 0 23.5 -1.5t19.5 -4.5v-14q-13 4 -25 6.5t-27 2.5q-63 0 -101 -39t-52 -105zM92 481h12v-481h-12v481z" />
    <glyph glyph-name="s" unicode="s" horiz-adv-x="438" 
d="M217 -4q67 0 116 29t49 90q0 54 -36.5 84t-114.5 49l-29 7q-59 14 -102.5 41.5t-43.5 83.5q0 48 41.5 82.5t118.5 34.5q71 0 114 -29.5t43 -48.5q0 -4 -2 -5.5t-3 -1.5q-6 0 -8.5 6t-10.5 19q-18 28 -58.5 41t-74.5 13q-72 0 -110 -32t-38 -77q0 -46 35 -72.5t110 -44.5
l17 -4q69 -16 117 -47.5t48 -96.5q0 -60 -48 -93.5t-129 -33.5q-75 0 -124.5 33t-49.5 55q0 4 2 5.5t4 1.5q6 0 8.5 -6.5t10.5 -19.5q18 -28 61.5 -45.5t86.5 -17.5z" />
    <glyph glyph-name="s" unicode="&#x219;" horiz-adv-x="438" 
d="M217 -4q67 0 116 29t49 90q0 54 -36.5 84t-114.5 49l-29 7q-59 14 -102.5 41.5t-43.5 83.5q0 48 41.5 82.5t118.5 34.5q71 0 114 -29.5t43 -48.5q0 -4 -2 -5.5t-3 -1.5q-6 0 -8.5 6t-10.5 19q-18 28 -58.5 41t-74.5 13q-72 0 -110 -32t-38 -77q0 -46 35 -72.5t110 -44.5
l17 -4q69 -16 117 -47.5t48 -96.5q0 -60 -48 -93.5t-129 -33.5q-75 0 -124.5 33t-49.5 55q0 4 2 5.5t4 1.5q6 0 8.5 -6.5t10.5 -19.5q18 -28 61.5 -45.5t86.5 -17.5z" />
    <glyph glyph-name="s" unicode="&#x161;" horiz-adv-x="438" 
d="M217 -4q67 0 116 29t49 90q0 54 -36.5 84t-114.5 49l-29 7q-59 14 -102.5 41.5t-43.5 83.5q0 48 41.5 82.5t118.5 34.5q71 0 114 -29.5t43 -48.5q0 -4 -2 -5.5t-3 -1.5q-6 0 -8.5 6t-10.5 19q-18 28 -58.5 41t-74.5 13q-72 0 -110 -32t-38 -77q0 -46 35 -72.5t110 -44.5
l17 -4q69 -16 117 -47.5t48 -96.5q0 -60 -48 -93.5t-129 -33.5q-75 0 -124.5 33t-49.5 55q0 4 2 5.5t4 1.5q6 0 8.5 -6.5t10.5 -19.5q18 -28 61.5 -45.5t86.5 -17.5z" />
    <glyph glyph-name="s" unicode="&#x15f;" horiz-adv-x="438" 
d="M217 -4q67 0 116 29t49 90q0 54 -36.5 84t-114.5 49l-29 7q-59 14 -102.5 41.5t-43.5 83.5q0 48 41.5 82.5t118.5 34.5q71 0 114 -29.5t43 -48.5q0 -4 -2 -5.5t-3 -1.5q-6 0 -8.5 6t-10.5 19q-18 28 -58.5 41t-74.5 13q-72 0 -110 -32t-38 -77q0 -46 35 -72.5t110 -44.5
l17 -4q69 -16 117 -47.5t48 -96.5q0 -60 -48 -93.5t-129 -33.5q-75 0 -124.5 33t-49.5 55q0 4 2 5.5t4 1.5q6 0 8.5 -6.5t10.5 -19.5q18 -28 61.5 -45.5t86.5 -17.5z" />
    <glyph glyph-name="s" unicode="&#x15d;" horiz-adv-x="438" 
d="M217 -4q67 0 116 29t49 90q0 54 -36.5 84t-114.5 49l-29 7q-59 14 -102.5 41.5t-43.5 83.5q0 48 41.5 82.5t118.5 34.5q71 0 114 -29.5t43 -48.5q0 -4 -2 -5.5t-3 -1.5q-6 0 -8.5 6t-10.5 19q-18 28 -58.5 41t-74.5 13q-72 0 -110 -32t-38 -77q0 -46 35 -72.5t110 -44.5
l17 -4q69 -16 117 -47.5t48 -96.5q0 -60 -48 -93.5t-129 -33.5q-75 0 -124.5 33t-49.5 55q0 4 2 5.5t4 1.5q6 0 8.5 -6.5t10.5 -19.5q18 -28 61.5 -45.5t86.5 -17.5z" />
    <glyph glyph-name="s" unicode="&#x15b;" horiz-adv-x="438" 
d="M217 -4q67 0 116 29t49 90q0 54 -36.5 84t-114.5 49l-29 7q-59 14 -102.5 41.5t-43.5 83.5q0 48 41.5 82.5t118.5 34.5q71 0 114 -29.5t43 -48.5q0 -4 -2 -5.5t-3 -1.5q-6 0 -8.5 6t-10.5 19q-18 28 -58.5 41t-74.5 13q-72 0 -110 -32t-38 -77q0 -46 35 -72.5t110 -44.5
l17 -4q69 -16 117 -47.5t48 -96.5q0 -60 -48 -93.5t-129 -33.5q-75 0 -124.5 33t-49.5 55q0 4 2 5.5t4 1.5q6 0 8.5 -6.5t10.5 -19.5q18 -28 61.5 -45.5t86.5 -17.5z" />
    <glyph glyph-name="s" unicode="&#xdf;" horiz-adv-x="438" 
d="M217 -4q67 0 116 29t49 90q0 54 -36.5 84t-114.5 49l-29 7q-59 14 -102.5 41.5t-43.5 83.5q0 48 41.5 82.5t118.5 34.5q71 0 114 -29.5t43 -48.5q0 -4 -2 -5.5t-3 -1.5q-6 0 -8.5 6t-10.5 19q-18 28 -58.5 41t-74.5 13q-72 0 -110 -32t-38 -77q0 -46 35 -72.5t110 -44.5
l17 -4q69 -16 117 -47.5t48 -96.5q0 -60 -48 -93.5t-129 -33.5q-75 0 -124.5 33t-49.5 55q0 4 2 5.5t4 1.5q6 0 8.5 -6.5t10.5 -19.5q18 -28 61.5 -45.5t86.5 -17.5z" />
    <glyph glyph-name="t" unicode="t" horiz-adv-x="277" 
d="M19 481h81v149h12v-149h155v-8h-155v-358q0 -35 3 -55.5t12 -33.5q8 -13 22 -20.5t36 -7.5q31 0 51 13t34 32l2 -1q-17 -26 -38.5 -39t-51.5 -13q-22 0 -38.5 8t-26.5 23q-9 13 -13 33.5t-4 56.5v362h-81v8z" />
    <glyph glyph-name="t" unicode="&#x21b;" horiz-adv-x="277" 
d="M19 481h81v149h12v-149h155v-8h-155v-358q0 -35 3 -55.5t12 -33.5q8 -13 22 -20.5t36 -7.5q31 0 51 13t34 32l2 -1q-17 -26 -38.5 -39t-51.5 -13q-22 0 -38.5 8t-26.5 23q-9 13 -13 33.5t-4 56.5v362h-81v8z" />
    <glyph glyph-name="t" unicode="&#x167;" horiz-adv-x="277" 
d="M19 481h81v149h12v-149h155v-8h-155v-358q0 -35 3 -55.5t12 -33.5q8 -13 22 -20.5t36 -7.5q31 0 51 13t34 32l2 -1q-17 -26 -38.5 -39t-51.5 -13q-22 0 -38.5 8t-26.5 23q-9 13 -13 33.5t-4 56.5v362h-81v8z" />
    <glyph glyph-name="t" unicode="&#x165;" horiz-adv-x="277" 
d="M19 481h81v149h12v-149h155v-8h-155v-358q0 -35 3 -55.5t12 -33.5q8 -13 22 -20.5t36 -7.5q31 0 51 13t34 32l2 -1q-17 -26 -38.5 -39t-51.5 -13q-22 0 -38.5 8t-26.5 23q-9 13 -13 33.5t-4 56.5v362h-81v8z" />
    <glyph glyph-name="t" unicode="&#x163;" horiz-adv-x="277" 
d="M19 481h81v149h12v-149h155v-8h-155v-358q0 -35 3 -55.5t12 -33.5q8 -13 22 -20.5t36 -7.5q31 0 51 13t34 32l2 -1q-17 -26 -38.5 -39t-51.5 -13q-22 0 -38.5 8t-26.5 23q-9 13 -13 33.5t-4 56.5v362h-81v8z" />
    <glyph glyph-name="u" unicode="u" horiz-adv-x="543" 
d="M83 201v280h12v-274q0 -51 6.5 -81.5t18.5 -52.5q20 -37 54.5 -56t79.5 -19q72 0 122 47.5t63 98.5q-16 -78 -73 -116t-116 -38q-45 0 -81.5 19.5t-58.5 57.5q-13 22 -20 53t-7 81zM451 481v-481h-12v481h12z" />
    <glyph glyph-name="u" unicode="&#x1ee5;" horiz-adv-x="543" 
d="M83 201v280h12v-274q0 -51 6.5 -81.5t18.5 -52.5q20 -37 54.5 -56t79.5 -19q72 0 122 47.5t63 98.5q-16 -78 -73 -116t-116 -38q-45 0 -81.5 19.5t-58.5 57.5q-13 22 -20 53t-7 81zM451 481v-481h-12v481h12z" />
    <glyph glyph-name="u" unicode="&#x173;" horiz-adv-x="543" 
d="M83 201v280h12v-274q0 -51 6.5 -81.5t18.5 -52.5q20 -37 54.5 -56t79.5 -19q72 0 122 47.5t63 98.5q-16 -78 -73 -116t-116 -38q-45 0 -81.5 19.5t-58.5 57.5q-13 22 -20 53t-7 81zM451 481v-481h-12v481h12z" />
    <glyph glyph-name="u" unicode="&#x171;" horiz-adv-x="543" 
d="M83 201v280h12v-274q0 -51 6.5 -81.5t18.5 -52.5q20 -37 54.5 -56t79.5 -19q72 0 122 47.5t63 98.5q-16 -78 -73 -116t-116 -38q-45 0 -81.5 19.5t-58.5 57.5q-13 22 -20 53t-7 81zM451 481v-481h-12v481h12z" />
    <glyph glyph-name="u" unicode="&#x16f;" horiz-adv-x="543" 
d="M83 201v280h12v-274q0 -51 6.5 -81.5t18.5 -52.5q20 -37 54.5 -56t79.5 -19q72 0 122 47.5t63 98.5q-16 -78 -73 -116t-116 -38q-45 0 -81.5 19.5t-58.5 57.5q-13 22 -20 53t-7 81zM451 481v-481h-12v481h12z" />
    <glyph glyph-name="u" unicode="&#x16d;" horiz-adv-x="543" 
d="M83 201v280h12v-274q0 -51 6.5 -81.5t18.5 -52.5q20 -37 54.5 -56t79.5 -19q72 0 122 47.5t63 98.5q-16 -78 -73 -116t-116 -38q-45 0 -81.5 19.5t-58.5 57.5q-13 22 -20 53t-7 81zM451 481v-481h-12v481h12z" />
    <glyph glyph-name="u" unicode="&#x16b;" horiz-adv-x="543" 
d="M83 201v280h12v-274q0 -51 6.5 -81.5t18.5 -52.5q20 -37 54.5 -56t79.5 -19q72 0 122 47.5t63 98.5q-16 -78 -73 -116t-116 -38q-45 0 -81.5 19.5t-58.5 57.5q-13 22 -20 53t-7 81zM451 481v-481h-12v481h12z" />
    <glyph glyph-name="u" unicode="&#x169;" horiz-adv-x="543" 
d="M83 201v280h12v-274q0 -51 6.5 -81.5t18.5 -52.5q20 -37 54.5 -56t79.5 -19q72 0 122 47.5t63 98.5q-16 -78 -73 -116t-116 -38q-45 0 -81.5 19.5t-58.5 57.5q-13 22 -20 53t-7 81zM451 481v-481h-12v481h12z" />
    <glyph glyph-name="u" unicode="&#xfc;" horiz-adv-x="543" 
d="M83 201v280h12v-274q0 -51 6.5 -81.5t18.5 -52.5q20 -37 54.5 -56t79.5 -19q72 0 122 47.5t63 98.5q-16 -78 -73 -116t-116 -38q-45 0 -81.5 19.5t-58.5 57.5q-13 22 -20 53t-7 81zM451 481v-481h-12v481h12z" />
    <glyph glyph-name="u" unicode="&#xfb;" horiz-adv-x="543" 
d="M83 201v280h12v-274q0 -51 6.5 -81.5t18.5 -52.5q20 -37 54.5 -56t79.5 -19q72 0 122 47.5t63 98.5q-16 -78 -73 -116t-116 -38q-45 0 -81.5 19.5t-58.5 57.5q-13 22 -20 53t-7 81zM451 481v-481h-12v481h12z" />
    <glyph glyph-name="u" unicode="&#xfa;" horiz-adv-x="543" 
d="M83 201v280h12v-274q0 -51 6.5 -81.5t18.5 -52.5q20 -37 54.5 -56t79.5 -19q72 0 122 47.5t63 98.5q-16 -78 -73 -116t-116 -38q-45 0 -81.5 19.5t-58.5 57.5q-13 22 -20 53t-7 81zM451 481v-481h-12v481h12z" />
    <glyph glyph-name="u" unicode="&#xf9;" horiz-adv-x="543" 
d="M83 201v280h12v-274q0 -51 6.5 -81.5t18.5 -52.5q20 -37 54.5 -56t79.5 -19q72 0 122 47.5t63 98.5q-16 -78 -73 -116t-116 -38q-45 0 -81.5 19.5t-58.5 57.5q-13 22 -20 53t-7 81zM451 481v-481h-12v481h12z" />
    <glyph glyph-name="v" unicode="v" horiz-adv-x="459" 
d="M428 481h11l-208 -491h-5l-204 491h14l194 -471z" />
    <glyph glyph-name="w" unicode="w" horiz-adv-x="735" 
d="M702 481h12l-187 -491h-5l-154 466l-157 -466h-5l-183 491h14l172 -469l158 469h5l154 -469z" />
    <glyph glyph-name="w" unicode="&#x1e85;" horiz-adv-x="735" 
d="M702 481h12l-187 -491h-5l-154 466l-157 -466h-5l-183 491h14l172 -469l158 469h5l154 -469z" />
    <glyph glyph-name="w" unicode="&#x1e83;" horiz-adv-x="735" 
d="M702 481h12l-187 -491h-5l-154 466l-157 -466h-5l-183 491h14l172 -469l158 469h5l154 -469z" />
    <glyph glyph-name="w" unicode="&#x1e81;" horiz-adv-x="735" 
d="M702 481h12l-187 -491h-5l-154 466l-157 -466h-5l-183 491h14l172 -469l158 469h5l154 -469z" />
    <glyph glyph-name="w" unicode="&#x175;" horiz-adv-x="735" 
d="M702 481h12l-187 -491h-5l-154 466l-157 -466h-5l-183 491h14l172 -469l158 469h5l154 -469z" />
    <glyph glyph-name="x" unicode="x" horiz-adv-x="443" 
d="M405 481h12l-189 -229l201 -252h-15l-193 243l-200 -243h-12l206 251l-182 230h15l174 -222z" />
    <glyph glyph-name="y" unicode="y" horiz-adv-x="473" 
d="M441 481h12l-321 -743h-12l111 257l-211 486h14l204 -472z" />
    <glyph glyph-name="y" unicode="&#x1ef3;" horiz-adv-x="473" 
d="M441 481h12l-321 -743h-12l111 257l-211 486h14l204 -472z" />
    <glyph glyph-name="y" unicode="&#x233;" horiz-adv-x="473" 
d="M441 481h12l-321 -743h-12l111 257l-211 486h14l204 -472z" />
    <glyph glyph-name="y" unicode="&#x177;" horiz-adv-x="473" 
d="M441 481h12l-321 -743h-12l111 257l-211 486h14l204 -472z" />
    <glyph glyph-name="y" unicode="&#xff;" horiz-adv-x="473" 
d="M441 481h12l-321 -743h-12l111 257l-211 486h14l204 -472z" />
    <glyph glyph-name="y" unicode="&#xfd;" horiz-adv-x="473" 
d="M441 481h12l-321 -743h-12l111 257l-211 486h14l204 -472z" />
    <glyph glyph-name="z" unicode="z" horiz-adv-x="402" 
d="M52 474v7h332l-355 -474h348v-7h-368l356 474h-313z" />
    <glyph glyph-name="z" unicode="&#x17e;" horiz-adv-x="402" 
d="M52 474v7h332l-355 -474h348v-7h-368l356 474h-313z" />
    <glyph glyph-name="z" unicode="&#x17c;" horiz-adv-x="402" 
d="M52 474v7h332l-355 -474h348v-7h-368l356 474h-313z" />
    <glyph glyph-name="z" unicode="&#x17a;" horiz-adv-x="402" 
d="M52 474v7h332l-355 -474h348v-7h-368l356 474h-313z" />
    <glyph glyph-name="uni00A0" unicode="&#xa0;" horiz-adv-x="270" 
 />
    <glyph glyph-name="uni00AD" unicode="&#xad;" horiz-adv-x="438" 
d="M72 249v14h294v-14h-294z" />
    <glyph glyph-name="paragraph" unicode="&#xb6;" horiz-adv-x="531" 
d="M410 787v-904h-12v895h-134v-895h-12v507q-87 0 -152 53.5t-65 144.5q0 69 51 134t198 65h126z" />
    <glyph glyph-name="periodcentered" unicode="&#xb7;" horiz-adv-x="184" 
d="M72 260q0 8 6 14t14 6t14 -6t6 -14t-6 -14t-14 -6t-14 6t-6 14z" />
    <glyph glyph-name="quoteright" unicode="&#x2019;" horiz-adv-x="166" 
d="M116 795h17l-73 -191h-6z" />
    <glyph glyph-name="bullet" unicode="&#x2022;" horiz-adv-x="416" 
d="M90 250q0 49 34.5 84t83.5 35t84 -35t35 -84t-35 -83.5t-84 -34.5t-83.5 34.5t-34.5 83.5z" />
    <glyph glyph-name="glyph67" horiz-adv-x="125" 
 />
    <glyph glyph-name="glyph68" horiz-adv-x="522" 
d="M346 473h-233v-473h-12v473h-79v8h79v24q0 81 19 165t119 84q16 0 29.5 -3t23.5 -7q13 -5 21 -12t8 -13q0 -3 -2 -5t-5 -2q-5 0 -9 5.5t-11 11.5t-20 12.5t-38 6.5q-91 0 -109.5 -84.5t-14.5 -165.5l1 -17h233v44q0 87 20.5 176.5t130.5 89.5q16 0 30.5 -3t25.5 -7
q13 -5 21 -12t8 -13q0 -3 -2 -5t-5 -2q-5 0 -9 5.5t-11 11.5t-21 12.5t-40 6.5q-101 0 -120 -90.5t-17 -176.5l1 -37h165v-8h-165v-473h-12v473z" />
    <glyph glyph-name="glyph70" 
d="M112 544l1 -63h165v-8h-165v-473h-12v473h-79v8h79v69q0 86 24 163.5t114 77.5q31 0 52 -12t21 -18q0 -3 -2 -5t-5 -2q-5 0 -9 5.5t-11 11.5q-6 4 -17 9t-31 5q-83 0 -104.5 -78t-20.5 -163zM338 707q0 8 6 14t14 6t14 -6t6 -14t-6 -14t-14 -6t-14 6t-6 14zM352 481h12
v-481h-12v481z" />
    <glyph glyph-name="glyph72" horiz-adv-x="701" 
d="M346 481v69q0 86 24 163.5t114 77.5q31 0 52 -12t21 -18q0 -3 -2 -5t-5 -2q-5 0 -9 5.5t-11 11.5q-6 4 -17 9t-31 5q-83 0 -104.5 -78t-20.5 -163l1 -63h165v-8h-165v-473h-12v473h-233v-473h-12v473h-79v8h79v24q0 81 19 165t119 84q16 0 29.5 -3t23.5 -7q13 -5 21 -12
t8 -13q0 -3 -2 -5t-5 -2q-5 0 -9 5.5t-11 11.5t-20 12.5t-38 6.5q-91 0 -109.5 -84.5t-14.5 -165.5l1 -17h233zM583 707q0 8 6 14t14 6t14 -6t6 -14t-6 -14t-14 -6t-14 6t-6 14zM597 481h12v-481h-12v481z" />
    <glyph glyph-name="glyph74" 
d="M112 544l1 -63h165v-8h-165v-473h-12v473h-79v8h79v69q0 86 24 163.5t114 77.5q31 0 52 -12t21 -18q0 -3 -2 -5t-5 -2q-5 0 -9 5.5t-11 11.5q-6 4 -17 9t-31 5q-83 0 -104.5 -78t-20.5 -163zM352 787h12v-787h-12v787z" />
    <glyph glyph-name="glyph76" horiz-adv-x="701" 
d="M346 481v69q0 86 24 163.5t114 77.5q31 0 52 -12t21 -18q0 -3 -2 -5t-5 -2q-5 0 -9 5.5t-11 11.5q-6 4 -17 9t-31 5q-83 0 -104.5 -78t-20.5 -163l1 -63h165v-8h-165v-473h-12v473h-233v-473h-12v473h-79v8h79v24q0 81 19 165t119 84q16 0 29.5 -3t23.5 -7q13 -5 21 -12
t8 -13q0 -3 -2 -5t-5 -2q-5 0 -9 5.5t-11 11.5t-20 12.5t-38 6.5q-91 0 -109.5 -84.5t-14.5 -165.5l1 -17h233zM597 787h12v-787h-12v787z" />
    <glyph glyph-name="glyph78" horiz-adv-x="180" 
d="M416 787h14l-665 -787h-14z" />
    <glyph glyph-name="zero.numr" horiz-adv-x="394" 
d="M351 578q0 -104 -39.5 -162t-113.5 -58q-75 0 -115 58t-40 162t40 161t115 57q74 0 113.5 -57t39.5 -161zM337 578q0 117 -39.5 164.5t-99.5 47.5t-100.5 -47.5t-40.5 -164.5q0 -116 40.5 -164.5t100.5 -48.5t99.5 48.5t39.5 164.5z" />
    <glyph glyph-name="zero.dnom" horiz-adv-x="394" 
d="M351 212q0 -104 -39.5 -162t-113.5 -58q-75 0 -115 58t-40 162t40 161t115 57q74 0 113.5 -57t39.5 -161zM337 212q0 117 -39.5 164.5t-99.5 47.5t-100.5 -47.5t-40.5 -164.5q0 -116 40.5 -164.5t100.5 -48.5t99.5 48.5t39.5 164.5z" />
    </font>
</defs>
</svg>
