<?xml version="1.0" standalone="no"?>
<!DOCTYPE svg PUBLIC "-//W3C//DTD SVG 1.1//EN" "http://www.w3.org/Graphics/SVG/1.1/DTD/svg11.dtd" >
<svg xmlns="http://www.w3.org/2000/svg" xmlns:xlink="http://www.w3.org/1999/xlink" version="1.1">
<metadata>
Created by Christoph Koeberlin (http://christoph.koe.berlin)
Copyright (c) 2019 Swiss Typefaces Sarl. All rights reserved.
</metadata>
<defs>
<font id="Font" horiz-adv-x="88" >
  <font-face 
    font-family="Font"
    font-weight="250"
    font-stretch="normal"
    units-per-em="1000"
    panose-1="2 11 2 8 0 0 0 0 0 0"
    ascent="800"
    descent="-200"
    x-height="500"
    cap-height="788"
    bbox="-28 -276 177 793"
    underline-thickness="4"
    underline-position="-138"
    unicode-range="U+0020-2022"
  />
<missing-glyph horiz-adv-x="217" 
d="M40 0v787h137v-787h-137zM52 777v-767h113v767h-113z" />
    <glyph glyph-name="f_f.liga" unicode="ff" horiz-adv-x="117" 
d="M117 497h-41v-497h-4v497h-40v-497h-4v497h-28v3h28v172q0 75 11 95.5t33 20.5h4v-3h-4q-17 0 -28.5 -16t-11.5 -88v-181h40v172q0 75 11 95.5t33 20.5h4v-3h-4q-17 0 -28.5 -16t-11.5 -88v-181h41v-3z" />
    <glyph glyph-name="f_i.liga" unicode="fi" horiz-adv-x="94" 
d="M78 500v-500h-4v497h-42v-497h-4v497h-28v3h28v172q0 75 11 95.5t33 20.5h4v-3h-4q-17 0 -28.5 -16t-11.5 -88v-181h46zM71 707q0 2 1.5 3.5t3.5 1.5t3.5 -1.5t1.5 -3.5t-1.5 -3.5t-3.5 -1.5t-3.5 1.5t-1.5 3.5z" />
    <glyph glyph-name="f_f_i.liga" unicode="ffi" horiz-adv-x="138" 
d="M72 500v172q0 75 11 95.5t33 20.5h4v-3h-4q-17 0 -28.5 -16t-11.5 -88v-181h46v-500h-4v497h-42v-497h-4v497h-40v-497h-4v497h-28v3h28v172q0 75 11 95.5t33 20.5h4v-3h-4q-17 0 -28.5 -16t-11.5 -88v-181h40zM115 707q0 2 1.5 3.5t3.5 1.5t3.5 -1.5t1.5 -3.5t-1.5 -3.5
t-3.5 -1.5t-3.5 1.5t-1.5 3.5z" />
    <glyph glyph-name="f_l.liga" unicode="fl" horiz-adv-x="94" 
d="M78 788v-788h-4v785h-2q-17 0 -28.5 -16t-11.5 -88v-181h31v-3h-31v-497h-4v497h-28v3h28v172q0 75 11 95.5t33 20.5h6z" />
    <glyph glyph-name="f_f_l.liga" unicode="ffl" horiz-adv-x="138" 
d="M122 788v-788h-4v785h-2q-17 0 -28.5 -16t-11.5 -88v-181h31v-3h-31v-497h-4v497h-40v-497h-4v497h-28v3h28v172q0 75 11 95.5t33 20.5h4v-3h-4q-17 0 -28.5 -16t-11.5 -88v-181h40v172q0 75 11 95.5t33 20.5h6z" />
    <glyph glyph-name=".notdef" horiz-adv-x="217" 
d="M40 0v787h137v-787h-137zM52 777v-767h113v767h-113z" />
    <glyph glyph-name="glyph1" horiz-adv-x="0" 
 />
    <glyph glyph-name="glyph2" horiz-adv-x="72" 
 />
    <glyph glyph-name="space" unicode=" " horiz-adv-x="72" 
 />
    <glyph glyph-name="comma" unicode="," horiz-adv-x="27" 
d="M-6 -98l-3 1q6 24 14.5 57t9.5 38q-2 0 -3.5 1.5t-1.5 3.5t1.5 3.5t3.5 1.5t3.5 -1.5t1.5 -3.5q0 -1 -5.5 -21t-20.5 -80z" />
    <glyph glyph-name="hyphen" unicode="-" horiz-adv-x="83" 
d="M78 268h-73v4h73v-4z" />
    <glyph glyph-name="period" unicode="." horiz-adv-x="14" 
d="M2 3q0 2 1.5 3.5t3.5 1.5t3.5 -1.5t1.5 -3.5t-1.5 -3.5t-3.5 -1.5t-3.5 1.5t-1.5 3.5z" />
    <glyph glyph-name="slash" unicode="/" horiz-adv-x="77" 
d="M71 788l-60 -788h-4l60 788h4z" />
    <glyph glyph-name="zero" unicode="0" horiz-adv-x="102" 
d="M19 156v476q0 97 6.5 128.5t25.5 31.5t25.5 -31.5t6.5 -128.5v-476q0 -97 -6.5 -128.5t-25.5 -31.5t-25.5 31.5t-6.5 128.5zM79 147v494q0 91 -6.5 119.5t-21.5 28.5t-21.5 -28.5t-6.5 -119.5v-494q0 -91 6.5 -119.5t21.5 -28.5t21.5 28.5t6.5 119.5z" />
    <glyph glyph-name="A" unicode="A" horiz-adv-x="85" 
d="M45 793l34 -793h-4l-6 138h-53l-6 -138h-4l35 793h4zM45 706l-2 73l-2 -73l-25 -565h53z" />
    <glyph glyph-name="A" unicode="&#x104;" horiz-adv-x="85" 
d="M45 793l34 -793h-4l-6 138h-53l-6 -138h-4l35 793h4zM45 706l-2 73l-2 -73l-25 -565h53z" />
    <glyph glyph-name="A" unicode="&#x102;" horiz-adv-x="85" 
d="M45 793l34 -793h-4l-6 138h-53l-6 -138h-4l35 793h4zM45 706l-2 73l-2 -73l-25 -565h53z" />
    <glyph glyph-name="A" unicode="&#x100;" horiz-adv-x="85" 
d="M45 793l34 -793h-4l-6 138h-53l-6 -138h-4l35 793h4zM45 706l-2 73l-2 -73l-25 -565h53z" />
    <glyph glyph-name="A" unicode="&#xc6;" horiz-adv-x="85" 
d="M45 793l34 -793h-4l-6 138h-53l-6 -138h-4l35 793h4zM45 706l-2 73l-2 -73l-25 -565h53z" />
    <glyph glyph-name="A" unicode="&#xc5;" horiz-adv-x="85" 
d="M45 793l34 -793h-4l-6 138h-53l-6 -138h-4l35 793h4zM45 706l-2 73l-2 -73l-25 -565h53z" />
    <glyph glyph-name="A" unicode="&#xc4;" horiz-adv-x="85" 
d="M45 793l34 -793h-4l-6 138h-53l-6 -138h-4l35 793h4zM45 706l-2 73l-2 -73l-25 -565h53z" />
    <glyph glyph-name="A" unicode="&#xc3;" horiz-adv-x="85" 
d="M45 793l34 -793h-4l-6 138h-53l-6 -138h-4l35 793h4zM45 706l-2 73l-2 -73l-25 -565h53z" />
    <glyph glyph-name="A" unicode="&#xc2;" horiz-adv-x="85" 
d="M45 793l34 -793h-4l-6 138h-53l-6 -138h-4l35 793h4zM45 706l-2 73l-2 -73l-25 -565h53z" />
    <glyph glyph-name="A" unicode="&#xc1;" horiz-adv-x="85" 
d="M45 793l34 -793h-4l-6 138h-53l-6 -138h-4l35 793h4zM45 706l-2 73l-2 -73l-25 -565h53z" />
    <glyph glyph-name="A" unicode="&#xc0;" horiz-adv-x="85" 
d="M45 793l34 -793h-4l-6 138h-53l-6 -138h-4l35 793h4zM45 706l-2 73l-2 -73l-25 -565h53z" />
    <glyph glyph-name="B" unicode="B" horiz-adv-x="93" 
d="M28 0h-9v788h9q31 0 40 -21.5t9 -112.5v-98q0 -76 -5.5 -102.5t-18.5 -29.5q13 -3 18.5 -30t5.5 -102v-158q0 -91 -9 -112.5t-40 -21.5zM23 425h18q17 0 24.5 19.5t7.5 111.5v98q0 92 -9 111.5t-39 19.5h-2v-360zM23 3h3q29 0 38 19.5t9 111.5v158q0 92 -7.5 111
t-22.5 19h-20v-419z" />
    <glyph glyph-name="C" unicode="C" horiz-adv-x="91" 
d="M17 156v476q0 97 6.5 128.5t25.5 31.5q18 0 25 -27.5t7 -116.5h-4q0 87 -6.5 114t-21.5 27t-21.5 -28.5t-6.5 -119.5v-494q0 -91 6.5 -119.5t21.5 -28.5t21.5 27t6.5 114h4q0 -88 -7 -116t-25 -28q-19 0 -25.5 31.5t-6.5 128.5z" />
    <glyph glyph-name="C" unicode="&#x10c;" horiz-adv-x="91" 
d="M17 156v476q0 97 6.5 128.5t25.5 31.5q18 0 25 -27.5t7 -116.5h-4q0 87 -6.5 114t-21.5 27t-21.5 -28.5t-6.5 -119.5v-494q0 -91 6.5 -119.5t21.5 -28.5t21.5 27t6.5 114h4q0 -88 -7 -116t-25 -28q-19 0 -25.5 31.5t-6.5 128.5z" />
    <glyph glyph-name="C" unicode="&#x10a;" horiz-adv-x="91" 
d="M17 156v476q0 97 6.5 128.5t25.5 31.5q18 0 25 -27.5t7 -116.5h-4q0 87 -6.5 114t-21.5 27t-21.5 -28.5t-6.5 -119.5v-494q0 -91 6.5 -119.5t21.5 -28.5t21.5 27t6.5 114h4q0 -88 -7 -116t-25 -28q-19 0 -25.5 31.5t-6.5 128.5z" />
    <glyph glyph-name="C" unicode="&#x108;" horiz-adv-x="91" 
d="M17 156v476q0 97 6.5 128.5t25.5 31.5q18 0 25 -27.5t7 -116.5h-4q0 87 -6.5 114t-21.5 27t-21.5 -28.5t-6.5 -119.5v-494q0 -91 6.5 -119.5t21.5 -28.5t21.5 27t6.5 114h4q0 -88 -7 -116t-25 -28q-19 0 -25.5 31.5t-6.5 128.5z" />
    <glyph glyph-name="C" unicode="&#x106;" horiz-adv-x="91" 
d="M17 156v476q0 97 6.5 128.5t25.5 31.5q18 0 25 -27.5t7 -116.5h-4q0 87 -6.5 114t-21.5 27t-21.5 -28.5t-6.5 -119.5v-494q0 -91 6.5 -119.5t21.5 -28.5t21.5 27t6.5 114h4q0 -88 -7 -116t-25 -28q-19 0 -25.5 31.5t-6.5 128.5z" />
    <glyph glyph-name="C" unicode="&#xc7;" horiz-adv-x="91" 
d="M17 156v476q0 97 6.5 128.5t25.5 31.5q18 0 25 -27.5t7 -116.5h-4q0 87 -6.5 114t-21.5 27t-21.5 -28.5t-6.5 -119.5v-494q0 -91 6.5 -119.5t21.5 -28.5t21.5 27t6.5 114h4q0 -88 -7 -116t-25 -28q-19 0 -25.5 31.5t-6.5 128.5z" />
    <glyph glyph-name="D" unicode="D" horiz-adv-x="94" 
d="M19 0v788h12q28 0 37 -30.5t9 -121.5v-484q0 -91 -9 -121.5t-37 -30.5h-12zM23 785v-782h7q26 0 34.5 28.5t8.5 120.5v484q0 92 -8.5 120.5t-34.5 28.5h-7z" />
    <glyph glyph-name="D" unicode="&#x110;" horiz-adv-x="94" 
d="M19 0v788h12q28 0 37 -30.5t9 -121.5v-484q0 -91 -9 -121.5t-37 -30.5h-12zM23 785v-782h7q26 0 34.5 28.5t8.5 120.5v484q0 92 -8.5 120.5t-34.5 28.5h-7z" />
    <glyph glyph-name="D" unicode="&#x10e;" horiz-adv-x="94" 
d="M19 0v788h12q28 0 37 -30.5t9 -121.5v-484q0 -91 -9 -121.5t-37 -30.5h-12zM23 785v-782h7q26 0 34.5 28.5t8.5 120.5v484q0 92 -8.5 120.5t-34.5 28.5h-7z" />
    <glyph glyph-name="D" unicode="&#xd0;" horiz-adv-x="94" 
d="M19 0v788h12q28 0 37 -30.5t9 -121.5v-484q0 -91 -9 -121.5t-37 -30.5h-12zM23 785v-782h7q26 0 34.5 28.5t8.5 120.5v484q0 92 -8.5 120.5t-34.5 28.5h-7z" />
    <glyph glyph-name="E" unicode="E" horiz-adv-x="74" 
d="M68 3v-3h-49v788h47v-3h-43v-360h39v-3h-39v-419h45z" />
    <glyph glyph-name="E" unicode="&#x11a;" horiz-adv-x="74" 
d="M68 3v-3h-49v788h47v-3h-43v-360h39v-3h-39v-419h45z" />
    <glyph glyph-name="E" unicode="&#x118;" horiz-adv-x="74" 
d="M68 3v-3h-49v788h47v-3h-43v-360h39v-3h-39v-419h45z" />
    <glyph glyph-name="E" unicode="&#x116;" horiz-adv-x="74" 
d="M68 3v-3h-49v788h47v-3h-43v-360h39v-3h-39v-419h45z" />
    <glyph glyph-name="E" unicode="&#x114;" horiz-adv-x="74" 
d="M68 3v-3h-49v788h47v-3h-43v-360h39v-3h-39v-419h45z" />
    <glyph glyph-name="E" unicode="&#x112;" horiz-adv-x="74" 
d="M68 3v-3h-49v788h47v-3h-43v-360h39v-3h-39v-419h45z" />
    <glyph glyph-name="E" unicode="&#xcb;" horiz-adv-x="74" 
d="M68 3v-3h-49v788h47v-3h-43v-360h39v-3h-39v-419h45z" />
    <glyph glyph-name="E" unicode="&#xca;" horiz-adv-x="74" 
d="M68 3v-3h-49v788h47v-3h-43v-360h39v-3h-39v-419h45z" />
    <glyph glyph-name="E" unicode="&#xc9;" horiz-adv-x="74" 
d="M68 3v-3h-49v788h47v-3h-43v-360h39v-3h-39v-419h45z" />
    <glyph glyph-name="E" unicode="&#xc8;" horiz-adv-x="74" 
d="M68 3v-3h-49v788h47v-3h-43v-360h39v-3h-39v-419h45z" />
    <glyph glyph-name="F" unicode="F" horiz-adv-x="69" 
d="M23 422v-422h-4v788h47v-3h-43v-360h39v-3h-39z" />
    <glyph glyph-name="G" unicode="G" horiz-adv-x="97" 
d="M17 156v476q0 97 6.5 128.5t25.5 31.5q18 0 25 -27.5t7 -116.5h-4q0 87 -6.5 114t-21.5 27t-21.5 -28.5t-6.5 -119.5v-497q0 -92 6.5 -118.5t25.5 -26.5q8 0 14 2.5t10 6.5v385h-29v3h33v-389q-6 -6 -13.5 -8.5t-14.5 -2.5q-23 0 -29.5 30.5t-6.5 129.5z" />
    <glyph glyph-name="G" unicode="&#x122;" horiz-adv-x="97" 
d="M17 156v476q0 97 6.5 128.5t25.5 31.5q18 0 25 -27.5t7 -116.5h-4q0 87 -6.5 114t-21.5 27t-21.5 -28.5t-6.5 -119.5v-497q0 -92 6.5 -118.5t25.5 -26.5q8 0 14 2.5t10 6.5v385h-29v3h33v-389q-6 -6 -13.5 -8.5t-14.5 -2.5q-23 0 -29.5 30.5t-6.5 129.5z" />
    <glyph glyph-name="G" unicode="&#x120;" horiz-adv-x="97" 
d="M17 156v476q0 97 6.5 128.5t25.5 31.5q18 0 25 -27.5t7 -116.5h-4q0 87 -6.5 114t-21.5 27t-21.5 -28.5t-6.5 -119.5v-497q0 -92 6.5 -118.5t25.5 -26.5q8 0 14 2.5t10 6.5v385h-29v3h33v-389q-6 -6 -13.5 -8.5t-14.5 -2.5q-23 0 -29.5 30.5t-6.5 129.5z" />
    <glyph glyph-name="G" unicode="&#x11e;" horiz-adv-x="97" 
d="M17 156v476q0 97 6.5 128.5t25.5 31.5q18 0 25 -27.5t7 -116.5h-4q0 87 -6.5 114t-21.5 27t-21.5 -28.5t-6.5 -119.5v-497q0 -92 6.5 -118.5t25.5 -26.5q8 0 14 2.5t10 6.5v385h-29v3h33v-389q-6 -6 -13.5 -8.5t-14.5 -2.5q-23 0 -29.5 30.5t-6.5 129.5z" />
    <glyph glyph-name="G" unicode="&#x11c;" horiz-adv-x="97" 
d="M17 156v476q0 97 6.5 128.5t25.5 31.5q18 0 25 -27.5t7 -116.5h-4q0 87 -6.5 114t-21.5 27t-21.5 -28.5t-6.5 -119.5v-497q0 -92 6.5 -118.5t25.5 -26.5q8 0 14 2.5t10 6.5v385h-29v3h33v-389q-6 -6 -13.5 -8.5t-14.5 -2.5q-23 0 -29.5 30.5t-6.5 129.5z" />
    <glyph glyph-name="H" unicode="H" horiz-adv-x="99" 
d="M80 788v-788h-4v422h-53v-422h-4v788h4v-363h53v363h4z" />
    <glyph glyph-name="H" unicode="&#x126;" horiz-adv-x="99" 
d="M80 788v-788h-4v422h-53v-422h-4v788h4v-363h53v363h4z" />
    <glyph glyph-name="H" unicode="&#x124;" horiz-adv-x="99" 
d="M80 788v-788h-4v422h-53v-422h-4v788h4v-363h53v363h4z" />
    <glyph glyph-name="I" unicode="I" horiz-adv-x="42" 
d="M23 788v-788h-4v788h4z" />
    <glyph glyph-name="I" unicode="&#x1eca;" horiz-adv-x="42" 
d="M23 788v-788h-4v788h4z" />
    <glyph glyph-name="I" unicode="&#x130;" horiz-adv-x="42" 
d="M23 788v-788h-4v788h4z" />
    <glyph glyph-name="I" unicode="&#x12e;" horiz-adv-x="42" 
d="M23 788v-788h-4v788h4z" />
    <glyph glyph-name="I" unicode="&#x12c;" horiz-adv-x="42" 
d="M23 788v-788h-4v788h4z" />
    <glyph glyph-name="I" unicode="&#x12a;" horiz-adv-x="42" 
d="M23 788v-788h-4v788h4z" />
    <glyph glyph-name="I" unicode="&#x128;" horiz-adv-x="42" 
d="M23 788v-788h-4v788h4z" />
    <glyph glyph-name="I" unicode="&#xcf;" horiz-adv-x="42" 
d="M23 788v-788h-4v788h4z" />
    <glyph glyph-name="I" unicode="&#xce;" horiz-adv-x="42" 
d="M23 788v-788h-4v788h4z" />
    <glyph glyph-name="I" unicode="&#xcd;" horiz-adv-x="42" 
d="M23 788v-788h-4v788h4z" />
    <glyph glyph-name="I" unicode="&#xcc;" horiz-adv-x="42" 
d="M23 788v-788h-4v788h4z" />
    <glyph glyph-name="J" unicode="J" 
d="M66 140v648h4v-648q0 -91 -6.5 -117.5t-25.5 -26.5t-25.5 26.5t-6.5 117.5h4q0 -92 6.5 -116.5t21.5 -24.5t21.5 24.5t6.5 116.5z" />
    <glyph glyph-name="J" unicode="&#x134;" 
d="M66 140v648h4v-648q0 -91 -6.5 -117.5t-25.5 -26.5t-25.5 26.5t-6.5 117.5h4q0 -92 6.5 -116.5t21.5 -24.5t21.5 24.5t6.5 116.5z" />
    <glyph glyph-name="K" unicode="K" horiz-adv-x="84" 
d="M23 788v-788h-4v788h4zM79 0l-54 394l50 394h4l-45 -355l-6 -39l7 -44l48 -350h-4z" />
    <glyph glyph-name="K" unicode="&#x136;" horiz-adv-x="84" 
d="M23 788v-788h-4v788h4zM79 0l-54 394l50 394h4l-45 -355l-6 -39l7 -44l48 -350h-4z" />
    <glyph glyph-name="L" unicode="L" horiz-adv-x="70" 
d="M68 3v-3h-49v788h4v-785h45z" />
    <glyph glyph-name="L" unicode="&#x141;" horiz-adv-x="70" 
d="M68 3v-3h-49v788h4v-785h45z" />
    <glyph glyph-name="L" unicode="&#x13f;" horiz-adv-x="70" 
d="M68 3v-3h-49v788h4v-785h45z" />
    <glyph glyph-name="L" unicode="&#x13d;" horiz-adv-x="70" 
d="M68 3v-3h-49v788h4v-785h45z" />
    <glyph glyph-name="L" unicode="&#x13b;" horiz-adv-x="70" 
d="M68 3v-3h-49v788h4v-785h45z" />
    <glyph glyph-name="L" unicode="&#x139;" horiz-adv-x="70" 
d="M68 3v-3h-49v788h4v-785h45z" />
    <glyph glyph-name="M" unicode="M" horiz-adv-x="156" 
d="M74 83l4 -74l4 74l51 705h4v-788h-4v715l1 56l-3 -61l-51 -712h-4l-51 712l-3 61l1 -56v-715h-4v788h4z" />
    <glyph glyph-name="N" unicode="N" horiz-adv-x="99" 
d="M23 788l51 -710l3 -64l-1 120v654h4v-790h-4l-51 712l-3 61l1 -96v-675h-4v788h4z" />
    <glyph glyph-name="N" unicode="&#x14a;" horiz-adv-x="99" 
d="M23 788l51 -710l3 -64l-1 120v654h4v-790h-4l-51 712l-3 61l1 -96v-675h-4v788h4z" />
    <glyph glyph-name="N" unicode="&#x147;" horiz-adv-x="99" 
d="M23 788l51 -710l3 -64l-1 120v654h4v-790h-4l-51 712l-3 61l1 -96v-675h-4v788h4z" />
    <glyph glyph-name="N" unicode="&#x145;" horiz-adv-x="99" 
d="M23 788l51 -710l3 -64l-1 120v654h4v-790h-4l-51 712l-3 61l1 -96v-675h-4v788h4z" />
    <glyph glyph-name="N" unicode="&#x143;" horiz-adv-x="99" 
d="M23 788l51 -710l3 -64l-1 120v654h4v-790h-4l-51 712l-3 61l1 -96v-675h-4v788h4z" />
    <glyph glyph-name="N" unicode="&#xd1;" horiz-adv-x="99" 
d="M23 788l51 -710l3 -64l-1 120v654h4v-790h-4l-51 712l-3 61l1 -96v-675h-4v788h4z" />
    <glyph glyph-name="O" unicode="O" horiz-adv-x="98" 
d="M81 632v-476q0 -97 -6.5 -128.5t-25.5 -31.5t-25.5 31.5t-6.5 128.5v476q0 97 6.5 128.5t25.5 31.5t25.5 -31.5t6.5 -128.5zM77 147v494q0 91 -6.5 119.5t-21.5 28.5t-21.5 -28.5t-6.5 -119.5v-494q0 -91 6.5 -119.5t21.5 -28.5t21.5 28.5t6.5 119.5z" />
    <glyph glyph-name="O" unicode="&#x1ecc;" horiz-adv-x="98" 
d="M81 632v-476q0 -97 -6.5 -128.5t-25.5 -31.5t-25.5 31.5t-6.5 128.5v476q0 97 6.5 128.5t25.5 31.5t25.5 -31.5t6.5 -128.5zM77 147v494q0 91 -6.5 119.5t-21.5 28.5t-21.5 -28.5t-6.5 -119.5v-494q0 -91 6.5 -119.5t21.5 -28.5t21.5 28.5t6.5 119.5z" />
    <glyph glyph-name="O" unicode="&#x152;" horiz-adv-x="98" 
d="M81 632v-476q0 -97 -6.5 -128.5t-25.5 -31.5t-25.5 31.5t-6.5 128.5v476q0 97 6.5 128.5t25.5 31.5t25.5 -31.5t6.5 -128.5zM77 147v494q0 91 -6.5 119.5t-21.5 28.5t-21.5 -28.5t-6.5 -119.5v-494q0 -91 6.5 -119.5t21.5 -28.5t21.5 28.5t6.5 119.5z" />
    <glyph glyph-name="O" unicode="&#x150;" horiz-adv-x="98" 
d="M81 632v-476q0 -97 -6.5 -128.5t-25.5 -31.5t-25.5 31.5t-6.5 128.5v476q0 97 6.5 128.5t25.5 31.5t25.5 -31.5t6.5 -128.5zM77 147v494q0 91 -6.5 119.5t-21.5 28.5t-21.5 -28.5t-6.5 -119.5v-494q0 -91 6.5 -119.5t21.5 -28.5t21.5 28.5t6.5 119.5z" />
    <glyph glyph-name="O" unicode="&#x14e;" horiz-adv-x="98" 
d="M81 632v-476q0 -97 -6.5 -128.5t-25.5 -31.5t-25.5 31.5t-6.5 128.5v476q0 97 6.5 128.5t25.5 31.5t25.5 -31.5t6.5 -128.5zM77 147v494q0 91 -6.5 119.5t-21.5 28.5t-21.5 -28.5t-6.5 -119.5v-494q0 -91 6.5 -119.5t21.5 -28.5t21.5 28.5t6.5 119.5z" />
    <glyph glyph-name="O" unicode="&#x14c;" horiz-adv-x="98" 
d="M81 632v-476q0 -97 -6.5 -128.5t-25.5 -31.5t-25.5 31.5t-6.5 128.5v476q0 97 6.5 128.5t25.5 31.5t25.5 -31.5t6.5 -128.5zM77 147v494q0 91 -6.5 119.5t-21.5 28.5t-21.5 -28.5t-6.5 -119.5v-494q0 -91 6.5 -119.5t21.5 -28.5t21.5 28.5t6.5 119.5z" />
    <glyph glyph-name="O" unicode="&#xd8;" horiz-adv-x="98" 
d="M81 632v-476q0 -97 -6.5 -128.5t-25.5 -31.5t-25.5 31.5t-6.5 128.5v476q0 97 6.5 128.5t25.5 31.5t25.5 -31.5t6.5 -128.5zM77 147v494q0 91 -6.5 119.5t-21.5 28.5t-21.5 -28.5t-6.5 -119.5v-494q0 -91 6.5 -119.5t21.5 -28.5t21.5 28.5t6.5 119.5z" />
    <glyph glyph-name="O" unicode="&#xd6;" horiz-adv-x="98" 
d="M81 632v-476q0 -97 -6.5 -128.5t-25.5 -31.5t-25.5 31.5t-6.5 128.5v476q0 97 6.5 128.5t25.5 31.5t25.5 -31.5t6.5 -128.5zM77 147v494q0 91 -6.5 119.5t-21.5 28.5t-21.5 -28.5t-6.5 -119.5v-494q0 -91 6.5 -119.5t21.5 -28.5t21.5 28.5t6.5 119.5z" />
    <glyph glyph-name="O" unicode="&#xd5;" horiz-adv-x="98" 
d="M81 632v-476q0 -97 -6.5 -128.5t-25.5 -31.5t-25.5 31.5t-6.5 128.5v476q0 97 6.5 128.5t25.5 31.5t25.5 -31.5t6.5 -128.5zM77 147v494q0 91 -6.5 119.5t-21.5 28.5t-21.5 -28.5t-6.5 -119.5v-494q0 -91 6.5 -119.5t21.5 -28.5t21.5 28.5t6.5 119.5z" />
    <glyph glyph-name="O" unicode="&#xd4;" horiz-adv-x="98" 
d="M81 632v-476q0 -97 -6.5 -128.5t-25.5 -31.5t-25.5 31.5t-6.5 128.5v476q0 97 6.5 128.5t25.5 31.5t25.5 -31.5t6.5 -128.5zM77 147v494q0 91 -6.5 119.5t-21.5 28.5t-21.5 -28.5t-6.5 -119.5v-494q0 -91 6.5 -119.5t21.5 -28.5t21.5 28.5t6.5 119.5z" />
    <glyph glyph-name="O" unicode="&#xd3;" horiz-adv-x="98" 
d="M81 632v-476q0 -97 -6.5 -128.5t-25.5 -31.5t-25.5 31.5t-6.5 128.5v476q0 97 6.5 128.5t25.5 31.5t25.5 -31.5t6.5 -128.5zM77 147v494q0 91 -6.5 119.5t-21.5 28.5t-21.5 -28.5t-6.5 -119.5v-494q0 -91 6.5 -119.5t21.5 -28.5t21.5 28.5t6.5 119.5z" />
    <glyph glyph-name="O" unicode="&#xd2;" horiz-adv-x="98" 
d="M81 632v-476q0 -97 -6.5 -128.5t-25.5 -31.5t-25.5 31.5t-6.5 128.5v476q0 97 6.5 128.5t25.5 31.5t25.5 -31.5t6.5 -128.5zM77 147v494q0 91 -6.5 119.5t-21.5 28.5t-21.5 -28.5t-6.5 -119.5v-494q0 -91 6.5 -119.5t21.5 -28.5t21.5 28.5t6.5 119.5z" />
    <glyph glyph-name="P" unicode="P" 
d="M28 390h-5v-390h-4v788h9q31 0 40 -21.5t9 -112.5v-130q0 -91 -9 -112.5t-40 -21.5zM23 785v-392h2q30 0 39 19.5t9 111.5v130q0 92 -9 111.5t-39 19.5h-2z" />
    <glyph glyph-name="P" unicode="&#xde;" 
d="M28 390h-5v-390h-4v788h9q31 0 40 -21.5t9 -112.5v-130q0 -91 -9 -112.5t-40 -21.5zM23 785v-392h2q30 0 39 19.5t9 111.5v130q0 92 -9 111.5t-39 19.5h-2z" />
    <glyph glyph-name="Q" unicode="Q" horiz-adv-x="98" 
d="M17 156v476q0 97 6.5 128.5t25.5 31.5t25.5 -31.5t6.5 -128.5v-476q0 -78 -4.5 -113t-15.5 -43l10 -29h-4l-9 27q-1 -1 -4 -1.5t-5 -0.5q-19 0 -25.5 31.5t-6.5 128.5zM77 147v494q0 91 -6.5 119.5t-21.5 28.5t-21.5 -28.5t-6.5 -119.5v-494q0 -91 6.5 -119.5t21.5 -28.5
q2 0 4.5 0.5t3.5 1.5l-9 28h4l8 -26q9 9 13 41t4 103z" />
    <glyph glyph-name="R" unicode="R" horiz-adv-x="94" 
d="M19 0v788h9q31 0 40 -21.5t9 -112.5v-110q0 -75 -7.5 -101.5t-26.5 -30.5q10 -2 17 -13.5t8 -33.5l15 -305q1 -28 2.5 -39.5t2.5 -20.5h-4l-2.5 20t-2.5 40l-15 304q-1 33 -13 39.5t-19 6.5h-9v-410h-4zM25 785h-2v-372h6q25 0 34.5 23t9.5 108v110q0 92 -9 111.5
t-39 19.5z" />
    <glyph glyph-name="R" unicode="&#x158;" horiz-adv-x="94" 
d="M19 0v788h9q31 0 40 -21.5t9 -112.5v-110q0 -75 -7.5 -101.5t-26.5 -30.5q10 -2 17 -13.5t8 -33.5l15 -305q1 -28 2.5 -39.5t2.5 -20.5h-4l-2.5 20t-2.5 40l-15 304q-1 33 -13 39.5t-19 6.5h-9v-410h-4zM25 785h-2v-372h6q25 0 34.5 23t9.5 108v110q0 92 -9 111.5
t-39 19.5z" />
    <glyph glyph-name="R" unicode="&#x156;" horiz-adv-x="94" 
d="M19 0v788h9q31 0 40 -21.5t9 -112.5v-110q0 -75 -7.5 -101.5t-26.5 -30.5q10 -2 17 -13.5t8 -33.5l15 -305q1 -28 2.5 -39.5t2.5 -20.5h-4l-2.5 20t-2.5 40l-15 304q-1 33 -13 39.5t-19 6.5h-9v-410h-4zM25 785h-2v-372h6q25 0 34.5 23t9.5 108v110q0 92 -9 111.5
t-39 19.5z" />
    <glyph glyph-name="R" unicode="&#x154;" horiz-adv-x="94" 
d="M19 0v788h9q31 0 40 -21.5t9 -112.5v-110q0 -75 -7.5 -101.5t-26.5 -30.5q10 -2 17 -13.5t8 -33.5l15 -305q1 -28 2.5 -39.5t2.5 -20.5h-4l-2.5 20t-2.5 40l-15 304q-1 33 -13 39.5t-19 6.5h-9v-410h-4zM25 785h-2v-372h6q25 0 34.5 23t9.5 108v110q0 92 -9 111.5
t-39 19.5z" />
    <glyph glyph-name="S" unicode="S" horiz-adv-x="81" 
d="M14 651q0 89 5 115t21 26t22 -26t6 -119h-4q0 93 -5.5 117.5t-18.5 24.5t-17.5 -24.5t-4.5 -113.5q0 -47 5 -106.5t12 -96.5l7 -35q10 -49 19 -126t9 -146q0 -93 -7.5 -119t-23.5 -26t-22 27t-6 118h4q0 -92 5.5 -117t18.5 -25t20 24.5t7 117.5q0 49 -7.5 129.5
t-20.5 142.5l-7 35q-7 37 -12 95.5t-5 107.5z" />
    <glyph glyph-name="S" unicode="&#x218;" horiz-adv-x="81" 
d="M14 651q0 89 5 115t21 26t22 -26t6 -119h-4q0 93 -5.5 117.5t-18.5 24.5t-17.5 -24.5t-4.5 -113.5q0 -47 5 -106.5t12 -96.5l7 -35q10 -49 19 -126t9 -146q0 -93 -7.5 -119t-23.5 -26t-22 27t-6 118h4q0 -92 5.5 -117t18.5 -25t20 24.5t7 117.5q0 49 -7.5 129.5
t-20.5 142.5l-7 35q-7 37 -12 95.5t-5 107.5z" />
    <glyph glyph-name="S" unicode="&#x160;" horiz-adv-x="81" 
d="M14 651q0 89 5 115t21 26t22 -26t6 -119h-4q0 93 -5.5 117.5t-18.5 24.5t-17.5 -24.5t-4.5 -113.5q0 -47 5 -106.5t12 -96.5l7 -35q10 -49 19 -126t9 -146q0 -93 -7.5 -119t-23.5 -26t-22 27t-6 118h4q0 -92 5.5 -117t18.5 -25t20 24.5t7 117.5q0 49 -7.5 129.5
t-20.5 142.5l-7 35q-7 37 -12 95.5t-5 107.5z" />
    <glyph glyph-name="S" unicode="&#x15e;" horiz-adv-x="81" 
d="M14 651q0 89 5 115t21 26t22 -26t6 -119h-4q0 93 -5.5 117.5t-18.5 24.5t-17.5 -24.5t-4.5 -113.5q0 -47 5 -106.5t12 -96.5l7 -35q10 -49 19 -126t9 -146q0 -93 -7.5 -119t-23.5 -26t-22 27t-6 118h4q0 -92 5.5 -117t18.5 -25t20 24.5t7 117.5q0 49 -7.5 129.5
t-20.5 142.5l-7 35q-7 37 -12 95.5t-5 107.5z" />
    <glyph glyph-name="S" unicode="&#x15c;" horiz-adv-x="81" 
d="M14 651q0 89 5 115t21 26t22 -26t6 -119h-4q0 93 -5.5 117.5t-18.5 24.5t-17.5 -24.5t-4.5 -113.5q0 -47 5 -106.5t12 -96.5l7 -35q10 -49 19 -126t9 -146q0 -93 -7.5 -119t-23.5 -26t-22 27t-6 118h4q0 -92 5.5 -117t18.5 -25t20 24.5t7 117.5q0 49 -7.5 129.5
t-20.5 142.5l-7 35q-7 37 -12 95.5t-5 107.5z" />
    <glyph glyph-name="S" unicode="&#x15a;" horiz-adv-x="81" 
d="M14 651q0 89 5 115t21 26t22 -26t6 -119h-4q0 93 -5.5 117.5t-18.5 24.5t-17.5 -24.5t-4.5 -113.5q0 -47 5 -106.5t12 -96.5l7 -35q10 -49 19 -126t9 -146q0 -93 -7.5 -119t-23.5 -26t-22 27t-6 118h4q0 -92 5.5 -117t18.5 -25t20 24.5t7 117.5q0 49 -7.5 129.5
t-20.5 142.5l-7 35q-7 37 -12 95.5t-5 107.5z" />
    <glyph glyph-name="T" unicode="T" horiz-adv-x="94" 
d="M45 0v785h-43v3h90v-3h-43v-785h-4z" />
    <glyph glyph-name="T" unicode="&#x21a;" horiz-adv-x="94" 
d="M45 0v785h-43v3h90v-3h-43v-785h-4z" />
    <glyph glyph-name="T" unicode="&#x166;" horiz-adv-x="94" 
d="M45 0v785h-43v3h90v-3h-43v-785h-4z" />
    <glyph glyph-name="T" unicode="&#x164;" horiz-adv-x="94" 
d="M45 0v785h-43v3h90v-3h-43v-785h-4z" />
    <glyph glyph-name="T" unicode="&#x162;" horiz-adv-x="94" 
d="M45 0v785h-43v3h90v-3h-43v-785h-4z" />
    <glyph glyph-name="U" unicode="U" horiz-adv-x="100" 
d="M78 140v648h4v-648q0 -91 -8 -117.5t-24 -26.5t-24 26.5t-8 117.5v648h4v-648q0 -92 7.5 -116.5t20.5 -24.5t20.5 24.5t7.5 116.5z" />
    <glyph glyph-name="U" unicode="&#x1ee4;" horiz-adv-x="100" 
d="M78 140v648h4v-648q0 -91 -8 -117.5t-24 -26.5t-24 26.5t-8 117.5v648h4v-648q0 -92 7.5 -116.5t20.5 -24.5t20.5 24.5t7.5 116.5z" />
    <glyph glyph-name="U" unicode="&#x172;" horiz-adv-x="100" 
d="M78 140v648h4v-648q0 -91 -8 -117.5t-24 -26.5t-24 26.5t-8 117.5v648h4v-648q0 -92 7.5 -116.5t20.5 -24.5t20.5 24.5t7.5 116.5z" />
    <glyph glyph-name="U" unicode="&#x170;" horiz-adv-x="100" 
d="M78 140v648h4v-648q0 -91 -8 -117.5t-24 -26.5t-24 26.5t-8 117.5v648h4v-648q0 -92 7.5 -116.5t20.5 -24.5t20.5 24.5t7.5 116.5z" />
    <glyph glyph-name="U" unicode="&#x16e;" horiz-adv-x="100" 
d="M78 140v648h4v-648q0 -91 -8 -117.5t-24 -26.5t-24 26.5t-8 117.5v648h4v-648q0 -92 7.5 -116.5t20.5 -24.5t20.5 24.5t7.5 116.5z" />
    <glyph glyph-name="U" unicode="&#x16c;" horiz-adv-x="100" 
d="M78 140v648h4v-648q0 -91 -8 -117.5t-24 -26.5t-24 26.5t-8 117.5v648h4v-648q0 -92 7.5 -116.5t20.5 -24.5t20.5 24.5t7.5 116.5z" />
    <glyph glyph-name="U" unicode="&#x16a;" horiz-adv-x="100" 
d="M78 140v648h4v-648q0 -91 -8 -117.5t-24 -26.5t-24 26.5t-8 117.5v648h4v-648q0 -92 7.5 -116.5t20.5 -24.5t20.5 24.5t7.5 116.5z" />
    <glyph glyph-name="U" unicode="&#x168;" horiz-adv-x="100" 
d="M78 140v648h4v-648q0 -91 -8 -117.5t-24 -26.5t-24 26.5t-8 117.5v648h4v-648q0 -92 7.5 -116.5t20.5 -24.5t20.5 24.5t7.5 116.5z" />
    <glyph glyph-name="U" unicode="&#xdc;" horiz-adv-x="100" 
d="M78 140v648h4v-648q0 -91 -8 -117.5t-24 -26.5t-24 26.5t-8 117.5v648h4v-648q0 -92 7.5 -116.5t20.5 -24.5t20.5 24.5t7.5 116.5z" />
    <glyph glyph-name="U" unicode="&#xdb;" horiz-adv-x="100" 
d="M78 140v648h4v-648q0 -91 -8 -117.5t-24 -26.5t-24 26.5t-8 117.5v648h4v-648q0 -92 7.5 -116.5t20.5 -24.5t20.5 24.5t7.5 116.5z" />
    <glyph glyph-name="U" unicode="&#xda;" horiz-adv-x="100" 
d="M78 140v648h4v-648q0 -91 -8 -117.5t-24 -26.5t-24 26.5t-8 117.5v648h4v-648q0 -92 7.5 -116.5t20.5 -24.5t20.5 24.5t7.5 116.5z" />
    <glyph glyph-name="U" unicode="&#xd9;" horiz-adv-x="100" 
d="M78 140v648h4v-648q0 -91 -8 -117.5t-24 -26.5t-24 26.5t-8 117.5v648h4v-648q0 -92 7.5 -116.5t20.5 -24.5t20.5 24.5t7.5 116.5z" />
    <glyph glyph-name="V" unicode="V" horiz-adv-x="85" 
d="M40 -4l-34 792h4l30 -705l2 -73l2 73l31 705h4l-35 -792h-4z" />
    <glyph glyph-name="W" unicode="W" horiz-adv-x="153" 
d="M44 83l31 705h4l30 -705l2 -73l2 73l31 705h4l-35 -792h-4l-31 725l-1 51l-1 -51l-32 -725h-4l-34 792h4l30 -705l2 -73z" />
    <glyph glyph-name="W" unicode="&#x1e84;" horiz-adv-x="153" 
d="M44 83l31 705h4l30 -705l2 -73l2 73l31 705h4l-35 -792h-4l-31 725l-1 51l-1 -51l-32 -725h-4l-34 792h4l30 -705l2 -73z" />
    <glyph glyph-name="W" unicode="&#x1e82;" horiz-adv-x="153" 
d="M44 83l31 705h4l30 -705l2 -73l2 73l31 705h4l-35 -792h-4l-31 725l-1 51l-1 -51l-32 -725h-4l-34 792h4l30 -705l2 -73z" />
    <glyph glyph-name="W" unicode="&#x1e80;" horiz-adv-x="153" 
d="M44 83l31 705h4l30 -705l2 -73l2 73l31 705h4l-35 -792h-4l-31 725l-1 51l-1 -51l-32 -725h-4l-34 792h4l30 -705l2 -73z" />
    <glyph glyph-name="W" unicode="&#x174;" horiz-adv-x="153" 
d="M44 83l31 705h4l30 -705l2 -73l2 73l31 705h4l-35 -792h-4l-31 725l-1 51l-1 -51l-32 -725h-4l-34 792h4l30 -705l2 -73z" />
    <glyph glyph-name="X" unicode="X" horiz-adv-x="99" 
d="M46 364l-39 -364h-4l44 407l-41 381h4l37 -343l2 -33l2 33l38 343h4l-42 -381l45 -407h-4l-40 364l-3 39z" />
    <glyph glyph-name="Y" unicode="Y" horiz-adv-x="90" 
d="M47 333v-333h-4v333l-41 455h4l31 -347l8 -99l8 99l32 347h4z" />
    <glyph glyph-name="Y" unicode="&#x1ef2;" horiz-adv-x="90" 
d="M47 333v-333h-4v333l-41 455h4l31 -347l8 -99l8 99l32 347h4z" />
    <glyph glyph-name="Y" unicode="&#x232;" horiz-adv-x="90" 
d="M47 333v-333h-4v333l-41 455h4l31 -347l8 -99l8 99l32 347h4z" />
    <glyph glyph-name="Y" unicode="&#x178;" horiz-adv-x="90" 
d="M47 333v-333h-4v333l-41 455h4l31 -347l8 -99l8 99l32 347h4z" />
    <glyph glyph-name="Y" unicode="&#x176;" horiz-adv-x="90" 
d="M47 333v-333h-4v333l-41 455h4l31 -347l8 -99l8 99l32 347h4z" />
    <glyph glyph-name="Y" unicode="&#xdd;" horiz-adv-x="90" 
d="M47 333v-333h-4v333l-41 455h4l31 -347l8 -99l8 99l32 347h4z" />
    <glyph glyph-name="Z" unicode="Z" horiz-adv-x="81" 
d="M3 0v3l71 782h-63v3h67v-3l-71 -782h67v-3h-71z" />
    <glyph glyph-name="Z" unicode="&#x17d;" horiz-adv-x="81" 
d="M3 0v3l71 782h-63v3h67v-3l-71 -782h67v-3h-71z" />
    <glyph glyph-name="Z" unicode="&#x17b;" horiz-adv-x="81" 
d="M3 0v3l71 782h-63v3h67v-3l-71 -782h67v-3h-71z" />
    <glyph glyph-name="Z" unicode="&#x179;" horiz-adv-x="81" 
d="M3 0v3l71 782h-63v3h67v-3l-71 -782h67v-3h-71z" />
    <glyph glyph-name="a" unicode="a" horiz-adv-x="84" 
d="M11 123v83q0 54 14 66t35 12h5v66q0 93 -3.5 122t-19.5 29q-14 0 -19 -24t-6 -92h-4q1 68 6.5 93.5t22.5 25.5q19 0 23 -31t4 -123v-266q0 -41 1 -57t2 -27h-4q-1 7 -1.5 20t-0.5 38q-2 -34 -9.5 -48t-17.5 -14q-17 0 -22.5 28t-5.5 99zM15 192v-84q0 -74 7 -91.5
t17 -17.5q17 0 21.5 39t4.5 96v147h-9q-29 0 -35 -24.5t-6 -64.5z" />
    <glyph glyph-name="a" unicode="&#x105;" horiz-adv-x="84" 
d="M11 123v83q0 54 14 66t35 12h5v66q0 93 -3.5 122t-19.5 29q-14 0 -19 -24t-6 -92h-4q1 68 6.5 93.5t22.5 25.5q19 0 23 -31t4 -123v-266q0 -41 1 -57t2 -27h-4q-1 7 -1.5 20t-0.5 38q-2 -34 -9.5 -48t-17.5 -14q-17 0 -22.5 28t-5.5 99zM15 192v-84q0 -74 7 -91.5
t17 -17.5q17 0 21.5 39t4.5 96v147h-9q-29 0 -35 -24.5t-6 -64.5z" />
    <glyph glyph-name="a" unicode="&#x103;" horiz-adv-x="84" 
d="M11 123v83q0 54 14 66t35 12h5v66q0 93 -3.5 122t-19.5 29q-14 0 -19 -24t-6 -92h-4q1 68 6.5 93.5t22.5 25.5q19 0 23 -31t4 -123v-266q0 -41 1 -57t2 -27h-4q-1 7 -1.5 20t-0.5 38q-2 -34 -9.5 -48t-17.5 -14q-17 0 -22.5 28t-5.5 99zM15 192v-84q0 -74 7 -91.5
t17 -17.5q17 0 21.5 39t4.5 96v147h-9q-29 0 -35 -24.5t-6 -64.5z" />
    <glyph glyph-name="a" unicode="&#x101;" horiz-adv-x="84" 
d="M11 123v83q0 54 14 66t35 12h5v66q0 93 -3.5 122t-19.5 29q-14 0 -19 -24t-6 -92h-4q1 68 6.5 93.5t22.5 25.5q19 0 23 -31t4 -123v-266q0 -41 1 -57t2 -27h-4q-1 7 -1.5 20t-0.5 38q-2 -34 -9.5 -48t-17.5 -14q-17 0 -22.5 28t-5.5 99zM15 192v-84q0 -74 7 -91.5
t17 -17.5q17 0 21.5 39t4.5 96v147h-9q-29 0 -35 -24.5t-6 -64.5z" />
    <glyph glyph-name="a" unicode="&#xe6;" horiz-adv-x="84" 
d="M11 123v83q0 54 14 66t35 12h5v66q0 93 -3.5 122t-19.5 29q-14 0 -19 -24t-6 -92h-4q1 68 6.5 93.5t22.5 25.5q19 0 23 -31t4 -123v-266q0 -41 1 -57t2 -27h-4q-1 7 -1.5 20t-0.5 38q-2 -34 -9.5 -48t-17.5 -14q-17 0 -22.5 28t-5.5 99zM15 192v-84q0 -74 7 -91.5
t17 -17.5q17 0 21.5 39t4.5 96v147h-9q-29 0 -35 -24.5t-6 -64.5z" />
    <glyph glyph-name="a" unicode="&#xe5;" horiz-adv-x="84" 
d="M11 123v83q0 54 14 66t35 12h5v66q0 93 -3.5 122t-19.5 29q-14 0 -19 -24t-6 -92h-4q1 68 6.5 93.5t22.5 25.5q19 0 23 -31t4 -123v-266q0 -41 1 -57t2 -27h-4q-1 7 -1.5 20t-0.5 38q-2 -34 -9.5 -48t-17.5 -14q-17 0 -22.5 28t-5.5 99zM15 192v-84q0 -74 7 -91.5
t17 -17.5q17 0 21.5 39t4.5 96v147h-9q-29 0 -35 -24.5t-6 -64.5z" />
    <glyph glyph-name="a" unicode="&#xe4;" horiz-adv-x="84" 
d="M11 123v83q0 54 14 66t35 12h5v66q0 93 -3.5 122t-19.5 29q-14 0 -19 -24t-6 -92h-4q1 68 6.5 93.5t22.5 25.5q19 0 23 -31t4 -123v-266q0 -41 1 -57t2 -27h-4q-1 7 -1.5 20t-0.5 38q-2 -34 -9.5 -48t-17.5 -14q-17 0 -22.5 28t-5.5 99zM15 192v-84q0 -74 7 -91.5
t17 -17.5q17 0 21.5 39t4.5 96v147h-9q-29 0 -35 -24.5t-6 -64.5z" />
    <glyph glyph-name="a" unicode="&#xe3;" horiz-adv-x="84" 
d="M11 123v83q0 54 14 66t35 12h5v66q0 93 -3.5 122t-19.5 29q-14 0 -19 -24t-6 -92h-4q1 68 6.5 93.5t22.5 25.5q19 0 23 -31t4 -123v-266q0 -41 1 -57t2 -27h-4q-1 7 -1.5 20t-0.5 38q-2 -34 -9.5 -48t-17.5 -14q-17 0 -22.5 28t-5.5 99zM15 192v-84q0 -74 7 -91.5
t17 -17.5q17 0 21.5 39t4.5 96v147h-9q-29 0 -35 -24.5t-6 -64.5z" />
    <glyph glyph-name="a" unicode="&#xe2;" horiz-adv-x="84" 
d="M11 123v83q0 54 14 66t35 12h5v66q0 93 -3.5 122t-19.5 29q-14 0 -19 -24t-6 -92h-4q1 68 6.5 93.5t22.5 25.5q19 0 23 -31t4 -123v-266q0 -41 1 -57t2 -27h-4q-1 7 -1.5 20t-0.5 38q-2 -34 -9.5 -48t-17.5 -14q-17 0 -22.5 28t-5.5 99zM15 192v-84q0 -74 7 -91.5
t17 -17.5q17 0 21.5 39t4.5 96v147h-9q-29 0 -35 -24.5t-6 -64.5z" />
    <glyph glyph-name="a" unicode="&#xe1;" horiz-adv-x="84" 
d="M11 123v83q0 54 14 66t35 12h5v66q0 93 -3.5 122t-19.5 29q-14 0 -19 -24t-6 -92h-4q1 68 6.5 93.5t22.5 25.5q19 0 23 -31t4 -123v-266q0 -41 1 -57t2 -27h-4q-1 7 -1.5 20t-0.5 38q-2 -34 -9.5 -48t-17.5 -14q-17 0 -22.5 28t-5.5 99zM15 192v-84q0 -74 7 -91.5
t17 -17.5q17 0 21.5 39t4.5 96v147h-9q-29 0 -35 -24.5t-6 -64.5z" />
    <glyph glyph-name="a" unicode="&#xe0;" horiz-adv-x="84" 
d="M11 123v83q0 54 14 66t35 12h5v66q0 93 -3.5 122t-19.5 29q-14 0 -19 -24t-6 -92h-4q1 68 6.5 93.5t22.5 25.5q19 0 23 -31t4 -123v-266q0 -41 1 -57t2 -27h-4q-1 7 -1.5 20t-0.5 38q-2 -34 -9.5 -48t-17.5 -14q-17 0 -22.5 28t-5.5 99zM15 192v-84q0 -74 7 -91.5
t17 -17.5q17 0 21.5 39t4.5 96v147h-9q-29 0 -35 -24.5t-6 -64.5z" />
    <glyph glyph-name="b" unicode="b" 
d="M46 504q17 0 22.5 -28t5.5 -99v-254q0 -71 -5.5 -99t-22.5 -28q-11 0 -18 15t-9 47q0 -21 0.5 -37.5t0.5 -20.5h-4v788h4v-288q0 -5 -0.5 -21t-0.5 -38q2 33 9 48t18 15zM20 366v-232q0 -57 4.5 -96t21.5 -39q10 0 17 17.5t7 91.5v284q0 74 -7 91.5t-17 17.5
q-17 0 -21.5 -39t-4.5 -96z" />
    <glyph glyph-name="c" unicode="c" horiz-adv-x="82" 
d="M14 155v190q0 92 5 125.5t24 33.5t24 -31.5t5 -116.5h-4q0 86 -5 115.5t-20 29.5q-16 0 -20.5 -31.5t-4.5 -124.5v-190q0 -93 4.5 -124.5t20.5 -31.5q15 0 20 29.5t5 115.5h4q0 -85 -5 -116.5t-24 -31.5t-24 33.5t-5 125.5z" />
    <glyph glyph-name="c" unicode="&#x10d;" horiz-adv-x="82" 
d="M14 155v190q0 92 5 125.5t24 33.5t24 -31.5t5 -116.5h-4q0 86 -5 115.5t-20 29.5q-16 0 -20.5 -31.5t-4.5 -124.5v-190q0 -93 4.5 -124.5t20.5 -31.5q15 0 20 29.5t5 115.5h4q0 -85 -5 -116.5t-24 -31.5t-24 33.5t-5 125.5z" />
    <glyph glyph-name="c" unicode="&#x10b;" horiz-adv-x="82" 
d="M14 155v190q0 92 5 125.5t24 33.5t24 -31.5t5 -116.5h-4q0 86 -5 115.5t-20 29.5q-16 0 -20.5 -31.5t-4.5 -124.5v-190q0 -93 4.5 -124.5t20.5 -31.5q15 0 20 29.5t5 115.5h4q0 -85 -5 -116.5t-24 -31.5t-24 33.5t-5 125.5z" />
    <glyph glyph-name="c" unicode="&#x109;" horiz-adv-x="82" 
d="M14 155v190q0 92 5 125.5t24 33.5t24 -31.5t5 -116.5h-4q0 86 -5 115.5t-20 29.5q-16 0 -20.5 -31.5t-4.5 -124.5v-190q0 -93 4.5 -124.5t20.5 -31.5q15 0 20 29.5t5 115.5h4q0 -85 -5 -116.5t-24 -31.5t-24 33.5t-5 125.5z" />
    <glyph glyph-name="c" unicode="&#x107;" horiz-adv-x="82" 
d="M14 155v190q0 92 5 125.5t24 33.5t24 -31.5t5 -116.5h-4q0 86 -5 115.5t-20 29.5q-16 0 -20.5 -31.5t-4.5 -124.5v-190q0 -93 4.5 -124.5t20.5 -31.5q15 0 20 29.5t5 115.5h4q0 -85 -5 -116.5t-24 -31.5t-24 33.5t-5 125.5z" />
    <glyph glyph-name="c" unicode="&#xe7;" horiz-adv-x="82" 
d="M14 155v190q0 92 5 125.5t24 33.5t24 -31.5t5 -116.5h-4q0 86 -5 115.5t-20 29.5q-16 0 -20.5 -31.5t-4.5 -124.5v-190q0 -93 4.5 -124.5t20.5 -31.5q15 0 20 29.5t5 115.5h4q0 -85 -5 -116.5t-24 -31.5t-24 33.5t-5 125.5z" />
    <glyph glyph-name="d" unicode="d" 
d="M72 0h-4q0 4 0.5 20.5t0.5 37.5q-2 -34 -9.5 -48t-17.5 -14q-17 0 -22.5 28t-5.5 99v254q0 71 5.5 99t22.5 28q10 0 17.5 -14t9.5 -49q0 22 -0.5 38t-0.5 21v288h4v-788zM18 392v-284q0 -74 7 -91.5t17 -17.5q17 0 21.5 39t4.5 96v232q0 57 -4.5 96t-21.5 39
q-10 0 -17 -17.5t-7 -91.5z" />
    <glyph glyph-name="d" unicode="&#x111;" 
d="M72 0h-4q0 4 0.5 20.5t0.5 37.5q-2 -34 -9.5 -48t-17.5 -14q-17 0 -22.5 28t-5.5 99v254q0 71 5.5 99t22.5 28q10 0 17.5 -14t9.5 -49q0 22 -0.5 38t-0.5 21v288h4v-788zM18 392v-284q0 -74 7 -91.5t17 -17.5q17 0 21.5 39t4.5 96v232q0 57 -4.5 96t-21.5 39
q-10 0 -17 -17.5t-7 -91.5z" />
    <glyph glyph-name="d" unicode="&#x10f;" 
d="M72 0h-4q0 4 0.5 20.5t0.5 37.5q-2 -34 -9.5 -48t-17.5 -14q-17 0 -22.5 28t-5.5 99v254q0 71 5.5 99t22.5 28q10 0 17.5 -14t9.5 -49q0 22 -0.5 38t-0.5 21v288h4v-788zM18 392v-284q0 -74 7 -91.5t17 -17.5q17 0 21.5 39t4.5 96v232q0 57 -4.5 96t-21.5 39
q-10 0 -17 -17.5t-7 -91.5z" />
    <glyph glyph-name="d" unicode="&#xf0;" 
d="M72 0h-4q0 4 0.5 20.5t0.5 37.5q-2 -34 -9.5 -48t-17.5 -14q-17 0 -22.5 28t-5.5 99v254q0 71 5.5 99t22.5 28q10 0 17.5 -14t9.5 -49q0 22 -0.5 38t-0.5 21v288h4v-788zM18 392v-284q0 -74 7 -91.5t17 -17.5q17 0 21.5 39t4.5 96v232q0 57 -4.5 96t-21.5 39
q-10 0 -17 -17.5t-7 -91.5z" />
    <glyph glyph-name="e" unicode="e" horiz-adv-x="84" 
d="M72 269h-54v-114q0 -93 4.5 -124.5t20.5 -31.5q15 0 20 30t5 116h4q0 -85 -5 -117t-24 -32t-24 33.5t-5 125.5v190q0 92 5 125.5t24 33.5t24 -33.5t5 -125.5v-76zM68 272v73q0 93 -4.5 124.5t-20.5 31.5t-20.5 -31.5t-4.5 -124.5v-73h50z" />
    <glyph glyph-name="e" unicode="&#x11b;" horiz-adv-x="84" 
d="M72 269h-54v-114q0 -93 4.5 -124.5t20.5 -31.5q15 0 20 30t5 116h4q0 -85 -5 -117t-24 -32t-24 33.5t-5 125.5v190q0 92 5 125.5t24 33.5t24 -33.5t5 -125.5v-76zM68 272v73q0 93 -4.5 124.5t-20.5 31.5t-20.5 -31.5t-4.5 -124.5v-73h50z" />
    <glyph glyph-name="e" unicode="&#x119;" horiz-adv-x="84" 
d="M72 269h-54v-114q0 -93 4.5 -124.5t20.5 -31.5q15 0 20 30t5 116h4q0 -85 -5 -117t-24 -32t-24 33.5t-5 125.5v190q0 92 5 125.5t24 33.5t24 -33.5t5 -125.5v-76zM68 272v73q0 93 -4.5 124.5t-20.5 31.5t-20.5 -31.5t-4.5 -124.5v-73h50z" />
    <glyph glyph-name="e" unicode="&#x117;" horiz-adv-x="84" 
d="M72 269h-54v-114q0 -93 4.5 -124.5t20.5 -31.5q15 0 20 30t5 116h4q0 -85 -5 -117t-24 -32t-24 33.5t-5 125.5v190q0 92 5 125.5t24 33.5t24 -33.5t5 -125.5v-76zM68 272v73q0 93 -4.5 124.5t-20.5 31.5t-20.5 -31.5t-4.5 -124.5v-73h50z" />
    <glyph glyph-name="e" unicode="&#x115;" horiz-adv-x="84" 
d="M72 269h-54v-114q0 -93 4.5 -124.5t20.5 -31.5q15 0 20 30t5 116h4q0 -85 -5 -117t-24 -32t-24 33.5t-5 125.5v190q0 92 5 125.5t24 33.5t24 -33.5t5 -125.5v-76zM68 272v73q0 93 -4.5 124.5t-20.5 31.5t-20.5 -31.5t-4.5 -124.5v-73h50z" />
    <glyph glyph-name="e" unicode="&#x113;" horiz-adv-x="84" 
d="M72 269h-54v-114q0 -93 4.5 -124.5t20.5 -31.5q15 0 20 30t5 116h4q0 -85 -5 -117t-24 -32t-24 33.5t-5 125.5v190q0 92 5 125.5t24 33.5t24 -33.5t5 -125.5v-76zM68 272v73q0 93 -4.5 124.5t-20.5 31.5t-20.5 -31.5t-4.5 -124.5v-73h50z" />
    <glyph glyph-name="e" unicode="&#xeb;" horiz-adv-x="84" 
d="M72 269h-54v-114q0 -93 4.5 -124.5t20.5 -31.5q15 0 20 30t5 116h4q0 -85 -5 -117t-24 -32t-24 33.5t-5 125.5v190q0 92 5 125.5t24 33.5t24 -33.5t5 -125.5v-76zM68 272v73q0 93 -4.5 124.5t-20.5 31.5t-20.5 -31.5t-4.5 -124.5v-73h50z" />
    <glyph glyph-name="e" unicode="&#xea;" horiz-adv-x="84" 
d="M72 269h-54v-114q0 -93 4.5 -124.5t20.5 -31.5q15 0 20 30t5 116h4q0 -85 -5 -117t-24 -32t-24 33.5t-5 125.5v190q0 92 5 125.5t24 33.5t24 -33.5t5 -125.5v-76zM68 272v73q0 93 -4.5 124.5t-20.5 31.5t-20.5 -31.5t-4.5 -124.5v-73h50z" />
    <glyph glyph-name="e" unicode="&#xe9;" horiz-adv-x="84" 
d="M72 269h-54v-114q0 -93 4.5 -124.5t20.5 -31.5q15 0 20 30t5 116h4q0 -85 -5 -117t-24 -32t-24 33.5t-5 125.5v190q0 92 5 125.5t24 33.5t24 -33.5t5 -125.5v-76zM68 272v73q0 93 -4.5 124.5t-20.5 31.5t-20.5 -31.5t-4.5 -124.5v-73h50z" />
    <glyph glyph-name="e" unicode="&#xe8;" horiz-adv-x="84" 
d="M72 269h-54v-114q0 -93 4.5 -124.5t20.5 -31.5q15 0 20 30t5 116h4q0 -85 -5 -117t-24 -32t-24 33.5t-5 125.5v190q0 92 5 125.5t24 33.5t24 -33.5t5 -125.5v-76zM68 272v73q0 93 -4.5 124.5t-20.5 31.5t-20.5 -31.5t-4.5 -124.5v-73h50z" />
    <glyph glyph-name="f" unicode="f" horiz-adv-x="73" 
d="M73 497h-41v-497h-4v497h-28v3h28v172q0 75 11 95.5t33 20.5h4v-3h-4q-17 0 -28.5 -16t-11.5 -88v-181h41v-3z" />
    <glyph glyph-name="g" unicode="g" 
d="M68 500h4v-628q0 -91 -5 -119.5t-24 -28.5t-24 28.5t-5 119.5h4q0 -92 5 -118.5t20 -26.5t20 26.5t5 118.5v128q0 4 0.5 20.5t0.5 37.5q-2 -34 -9.5 -48t-17.5 -14q-17 0 -22.5 28t-5.5 99v254q0 71 5.5 99t22.5 28q10 0 17.5 -14t9.5 -49q0 22 -0.5 38t-0.5 21zM18 392
v-284q0 -74 7 -91.5t17 -17.5q17 0 21.5 39t4.5 96v232q0 57 -4.5 96t-21.5 39q-10 0 -17 -17.5t-7 -91.5z" />
    <glyph glyph-name="g" unicode="&#x123;" 
d="M68 500h4v-628q0 -91 -5 -119.5t-24 -28.5t-24 28.5t-5 119.5h4q0 -92 5 -118.5t20 -26.5t20 26.5t5 118.5v128q0 4 0.5 20.5t0.5 37.5q-2 -34 -9.5 -48t-17.5 -14q-17 0 -22.5 28t-5.5 99v254q0 71 5.5 99t22.5 28q10 0 17.5 -14t9.5 -49q0 22 -0.5 38t-0.5 21zM18 392
v-284q0 -74 7 -91.5t17 -17.5q17 0 21.5 39t4.5 96v232q0 57 -4.5 96t-21.5 39q-10 0 -17 -17.5t-7 -91.5z" />
    <glyph glyph-name="g" unicode="&#x121;" 
d="M68 500h4v-628q0 -91 -5 -119.5t-24 -28.5t-24 28.5t-5 119.5h4q0 -92 5 -118.5t20 -26.5t20 26.5t5 118.5v128q0 4 0.5 20.5t0.5 37.5q-2 -34 -9.5 -48t-17.5 -14q-17 0 -22.5 28t-5.5 99v254q0 71 5.5 99t22.5 28q10 0 17.5 -14t9.5 -49q0 22 -0.5 38t-0.5 21zM18 392
v-284q0 -74 7 -91.5t17 -17.5q17 0 21.5 39t4.5 96v232q0 57 -4.5 96t-21.5 39q-10 0 -17 -17.5t-7 -91.5z" />
    <glyph glyph-name="g" unicode="&#x11f;" 
d="M68 500h4v-628q0 -91 -5 -119.5t-24 -28.5t-24 28.5t-5 119.5h4q0 -92 5 -118.5t20 -26.5t20 26.5t5 118.5v128q0 4 0.5 20.5t0.5 37.5q-2 -34 -9.5 -48t-17.5 -14q-17 0 -22.5 28t-5.5 99v254q0 71 5.5 99t22.5 28q10 0 17.5 -14t9.5 -49q0 22 -0.5 38t-0.5 21zM18 392
v-284q0 -74 7 -91.5t17 -17.5q17 0 21.5 39t4.5 96v232q0 57 -4.5 96t-21.5 39q-10 0 -17 -17.5t-7 -91.5z" />
    <glyph glyph-name="g" unicode="&#x11d;" 
d="M68 500h4v-628q0 -91 -5 -119.5t-24 -28.5t-24 28.5t-5 119.5h4q0 -92 5 -118.5t20 -26.5t20 26.5t5 118.5v128q0 4 0.5 20.5t0.5 37.5q-2 -34 -9.5 -48t-17.5 -14q-17 0 -22.5 28t-5.5 99v254q0 71 5.5 99t22.5 28q10 0 17.5 -14t9.5 -49q0 22 -0.5 38t-0.5 21zM18 392
v-284q0 -74 7 -91.5t17 -17.5q17 0 21.5 39t4.5 96v232q0 57 -4.5 96t-21.5 39q-10 0 -17 -17.5t-7 -91.5z" />
    <glyph glyph-name="h" unicode="h" horiz-adv-x="89" 
d="M70 0v397q0 72 -6.5 88t-16.5 16q-13 0 -18.5 -21.5t-7.5 -56.5q-1 -11 -1 -26v-31v-366h-4v788h4v-288l-1 -62v-14q1 44 8.5 62t20.5 18q14 0 20 -21.5t6 -94.5v-388h-4z" />
    <glyph glyph-name="h" unicode="&#x127;" horiz-adv-x="89" 
d="M70 0v397q0 72 -6.5 88t-16.5 16q-13 0 -18.5 -21.5t-7.5 -56.5q-1 -11 -1 -26v-31v-366h-4v788h4v-288l-1 -62v-14q1 44 8.5 62t20.5 18q14 0 20 -21.5t6 -94.5v-388h-4z" />
    <glyph glyph-name="h" unicode="&#x125;" horiz-adv-x="89" 
d="M70 0v397q0 72 -6.5 88t-16.5 16q-13 0 -18.5 -21.5t-7.5 -56.5q-1 -11 -1 -26v-31v-366h-4v788h4v-288l-1 -62v-14q1 44 8.5 62t20.5 18q14 0 20 -21.5t6 -94.5v-388h-4z" />
    <glyph glyph-name="i" unicode="i" horiz-adv-x="36" 
d="M20 500v-500h-4v500h4zM13 707q0 2 1.5 3.5t3.5 1.5t3.5 -1.5t1.5 -3.5t-1.5 -3.5t-3.5 -1.5t-3.5 1.5t-1.5 3.5z" />
    <glyph glyph-name="i" unicode="&#x1ecb;" horiz-adv-x="36" 
d="M20 500v-500h-4v500h4zM13 707q0 2 1.5 3.5t3.5 1.5t3.5 -1.5t1.5 -3.5t-1.5 -3.5t-3.5 -1.5t-3.5 1.5t-1.5 3.5z" />
    <glyph glyph-name="i" unicode="&#x131;" horiz-adv-x="36" 
d="M20 500v-500h-4v500h4zM13 707q0 2 1.5 3.5t3.5 1.5t3.5 -1.5t1.5 -3.5t-1.5 -3.5t-3.5 -1.5t-3.5 1.5t-1.5 3.5z" />
    <glyph glyph-name="i" unicode="&#x12f;" horiz-adv-x="36" 
d="M20 500v-500h-4v500h4zM13 707q0 2 1.5 3.5t3.5 1.5t3.5 -1.5t1.5 -3.5t-1.5 -3.5t-3.5 -1.5t-3.5 1.5t-1.5 3.5z" />
    <glyph glyph-name="i" unicode="&#x12d;" horiz-adv-x="36" 
d="M20 500v-500h-4v500h4zM13 707q0 2 1.5 3.5t3.5 1.5t3.5 -1.5t1.5 -3.5t-1.5 -3.5t-3.5 -1.5t-3.5 1.5t-1.5 3.5z" />
    <glyph glyph-name="i" unicode="&#x12b;" horiz-adv-x="36" 
d="M20 500v-500h-4v500h4zM13 707q0 2 1.5 3.5t3.5 1.5t3.5 -1.5t1.5 -3.5t-1.5 -3.5t-3.5 -1.5t-3.5 1.5t-1.5 3.5z" />
    <glyph glyph-name="i" unicode="&#x129;" horiz-adv-x="36" 
d="M20 500v-500h-4v500h4zM13 707q0 2 1.5 3.5t3.5 1.5t3.5 -1.5t1.5 -3.5t-1.5 -3.5t-3.5 -1.5t-3.5 1.5t-1.5 3.5z" />
    <glyph glyph-name="i" unicode="&#xef;" horiz-adv-x="36" 
d="M20 500v-500h-4v500h4zM13 707q0 2 1.5 3.5t3.5 1.5t3.5 -1.5t1.5 -3.5t-1.5 -3.5t-3.5 -1.5t-3.5 1.5t-1.5 3.5z" />
    <glyph glyph-name="i" unicode="&#xee;" horiz-adv-x="36" 
d="M20 500v-500h-4v500h4zM13 707q0 2 1.5 3.5t3.5 1.5t3.5 -1.5t1.5 -3.5t-1.5 -3.5t-3.5 -1.5t-3.5 1.5t-1.5 3.5z" />
    <glyph glyph-name="i" unicode="&#xed;" horiz-adv-x="36" 
d="M20 500v-500h-4v500h4zM13 707q0 2 1.5 3.5t3.5 1.5t3.5 -1.5t1.5 -3.5t-1.5 -3.5t-3.5 -1.5t-3.5 1.5t-1.5 3.5z" />
    <glyph glyph-name="i" unicode="&#xec;" horiz-adv-x="36" 
d="M20 500v-500h-4v500h4zM13 707q0 2 1.5 3.5t3.5 1.5t3.5 -1.5t1.5 -3.5t-1.5 -3.5t-3.5 -1.5t-3.5 1.5t-1.5 3.5z" />
    <glyph glyph-name="j" unicode="j" horiz-adv-x="36" 
d="M16 -165v665h4v-656q0 -75 -11 -95.5t-33 -20.5h-4v3h4q17 0 28.5 16t11.5 88zM13 707q0 2 1.5 3.5t3.5 1.5t3.5 -1.5t1.5 -3.5t-1.5 -3.5t-3.5 -1.5t-3.5 1.5t-1.5 3.5z" />
    <glyph glyph-name="j" unicode="&#x237;" horiz-adv-x="36" 
d="M16 -165v665h4v-656q0 -75 -11 -95.5t-33 -20.5h-4v3h4q17 0 28.5 16t11.5 88zM13 707q0 2 1.5 3.5t3.5 1.5t3.5 -1.5t1.5 -3.5t-1.5 -3.5t-3.5 -1.5t-3.5 1.5t-1.5 3.5z" />
    <glyph glyph-name="j" unicode="&#x135;" horiz-adv-x="36" 
d="M16 -165v665h4v-656q0 -75 -11 -95.5t-33 -20.5h-4v3h4q17 0 28.5 16t11.5 88zM13 707q0 2 1.5 3.5t3.5 1.5t3.5 -1.5t1.5 -3.5t-1.5 -3.5t-3.5 -1.5t-3.5 1.5t-1.5 3.5z" />
    <glyph glyph-name="k" unicode="k" horiz-adv-x="76" 
d="M20 788v-788h-4v788h4zM73 0l-52 244l45 256h4l-34 -192l-12 -64l14 -62l39 -182h-4z" />
    <glyph glyph-name="k" unicode="&#x137;" horiz-adv-x="76" 
d="M20 788v-788h-4v788h4zM73 0l-52 244l45 256h4l-34 -192l-12 -64l14 -62l39 -182h-4z" />
    <glyph glyph-name="l" unicode="l" horiz-adv-x="36" 
d="M20 788v-788h-4v788h4z" />
    <glyph glyph-name="l" unicode="&#x142;" horiz-adv-x="36" 
d="M20 788v-788h-4v788h4z" />
    <glyph glyph-name="l" unicode="&#x140;" horiz-adv-x="36" 
d="M20 788v-788h-4v788h4z" />
    <glyph glyph-name="l" unicode="&#x13e;" horiz-adv-x="36" 
d="M20 788v-788h-4v788h4z" />
    <glyph glyph-name="l" unicode="&#x13c;" horiz-adv-x="36" 
d="M20 788v-788h-4v788h4z" />
    <glyph glyph-name="l" unicode="&#x13a;" horiz-adv-x="36" 
d="M20 788v-788h-4v788h4z" />
    <glyph glyph-name="m" unicode="m" horiz-adv-x="143" 
d="M48 504q12 0 18 -14t7 -61q1 42 8.5 58.5t20.5 16.5q14 0 20 -21.5t6 -94.5v-388h-4v397q0 72 -6.5 88t-16.5 16q-13 0 -18.5 -21.5t-7.5 -56.5q-1 -11 -1 -26v-31v-366h-4v397q0 72 -6.5 88t-16.5 16q-13 0 -18.5 -21.5t-7.5 -56.5q-1 -11 -1 -26v-31v-366h-4v500h4
l-1 -62v-9q1 41 8.5 58t20.5 17z" />
    <glyph glyph-name="n" unicode="n" horiz-adv-x="89" 
d="M70 0v397q0 72 -6.5 88t-16.5 16q-13 0 -18.5 -21.5t-7.5 -56.5q-1 -11 -1 -26v-31v-366h-4v500h4l-1 -62v-14q1 44 8.5 62t20.5 18q14 0 20 -21.5t6 -94.5v-388h-4z" />
    <glyph glyph-name="n" unicode="&#x14b;" horiz-adv-x="89" 
d="M70 0v397q0 72 -6.5 88t-16.5 16q-13 0 -18.5 -21.5t-7.5 -56.5q-1 -11 -1 -26v-31v-366h-4v500h4l-1 -62v-14q1 44 8.5 62t20.5 18q14 0 20 -21.5t6 -94.5v-388h-4z" />
    <glyph glyph-name="n" unicode="&#x148;" horiz-adv-x="89" 
d="M70 0v397q0 72 -6.5 88t-16.5 16q-13 0 -18.5 -21.5t-7.5 -56.5q-1 -11 -1 -26v-31v-366h-4v500h4l-1 -62v-14q1 44 8.5 62t20.5 18q14 0 20 -21.5t6 -94.5v-388h-4z" />
    <glyph glyph-name="n" unicode="&#x146;" horiz-adv-x="89" 
d="M70 0v397q0 72 -6.5 88t-16.5 16q-13 0 -18.5 -21.5t-7.5 -56.5q-1 -11 -1 -26v-31v-366h-4v500h4l-1 -62v-14q1 44 8.5 62t20.5 18q14 0 20 -21.5t6 -94.5v-388h-4z" />
    <glyph glyph-name="n" unicode="&#x144;" horiz-adv-x="89" 
d="M70 0v397q0 72 -6.5 88t-16.5 16q-13 0 -18.5 -21.5t-7.5 -56.5q-1 -11 -1 -26v-31v-366h-4v500h4l-1 -62v-14q1 44 8.5 62t20.5 18q14 0 20 -21.5t6 -94.5v-388h-4z" />
    <glyph glyph-name="n" unicode="&#xf1;" horiz-adv-x="89" 
d="M70 0v397q0 72 -6.5 88t-16.5 16q-13 0 -18.5 -21.5t-7.5 -56.5q-1 -11 -1 -26v-31v-366h-4v500h4l-1 -62v-14q1 44 8.5 62t20.5 18q14 0 20 -21.5t6 -94.5v-388h-4z" />
    <glyph glyph-name="o" unicode="o" horiz-adv-x="86" 
d="M72 345v-190q0 -92 -5 -125.5t-24 -33.5t-24 33.5t-5 125.5v190q0 92 5 125.5t24 33.5t24 -33.5t5 -125.5zM68 155v190q0 93 -4.5 124.5t-20.5 31.5t-20.5 -31.5t-4.5 -124.5v-190q0 -93 4.5 -124.5t20.5 -31.5t20.5 31.5t4.5 124.5z" />
    <glyph glyph-name="o" unicode="&#x1ecd;" horiz-adv-x="86" 
d="M72 345v-190q0 -92 -5 -125.5t-24 -33.5t-24 33.5t-5 125.5v190q0 92 5 125.5t24 33.5t24 -33.5t5 -125.5zM68 155v190q0 93 -4.5 124.5t-20.5 31.5t-20.5 -31.5t-4.5 -124.5v-190q0 -93 4.5 -124.5t20.5 -31.5t20.5 31.5t4.5 124.5z" />
    <glyph glyph-name="o" unicode="&#x153;" horiz-adv-x="86" 
d="M72 345v-190q0 -92 -5 -125.5t-24 -33.5t-24 33.5t-5 125.5v190q0 92 5 125.5t24 33.5t24 -33.5t5 -125.5zM68 155v190q0 93 -4.5 124.5t-20.5 31.5t-20.5 -31.5t-4.5 -124.5v-190q0 -93 4.5 -124.5t20.5 -31.5t20.5 31.5t4.5 124.5z" />
    <glyph glyph-name="o" unicode="&#x151;" horiz-adv-x="86" 
d="M72 345v-190q0 -92 -5 -125.5t-24 -33.5t-24 33.5t-5 125.5v190q0 92 5 125.5t24 33.5t24 -33.5t5 -125.5zM68 155v190q0 93 -4.5 124.5t-20.5 31.5t-20.5 -31.5t-4.5 -124.5v-190q0 -93 4.5 -124.5t20.5 -31.5t20.5 31.5t4.5 124.5z" />
    <glyph glyph-name="o" unicode="&#x14f;" horiz-adv-x="86" 
d="M72 345v-190q0 -92 -5 -125.5t-24 -33.5t-24 33.5t-5 125.5v190q0 92 5 125.5t24 33.5t24 -33.5t5 -125.5zM68 155v190q0 93 -4.5 124.5t-20.5 31.5t-20.5 -31.5t-4.5 -124.5v-190q0 -93 4.5 -124.5t20.5 -31.5t20.5 31.5t4.5 124.5z" />
    <glyph glyph-name="o" unicode="&#x14d;" horiz-adv-x="86" 
d="M72 345v-190q0 -92 -5 -125.5t-24 -33.5t-24 33.5t-5 125.5v190q0 92 5 125.5t24 33.5t24 -33.5t5 -125.5zM68 155v190q0 93 -4.5 124.5t-20.5 31.5t-20.5 -31.5t-4.5 -124.5v-190q0 -93 4.5 -124.5t20.5 -31.5t20.5 31.5t4.5 124.5z" />
    <glyph glyph-name="o" unicode="&#xf8;" horiz-adv-x="86" 
d="M72 345v-190q0 -92 -5 -125.5t-24 -33.5t-24 33.5t-5 125.5v190q0 92 5 125.5t24 33.5t24 -33.5t5 -125.5zM68 155v190q0 93 -4.5 124.5t-20.5 31.5t-20.5 -31.5t-4.5 -124.5v-190q0 -93 4.5 -124.5t20.5 -31.5t20.5 31.5t4.5 124.5z" />
    <glyph glyph-name="o" unicode="&#xf6;" horiz-adv-x="86" 
d="M72 345v-190q0 -92 -5 -125.5t-24 -33.5t-24 33.5t-5 125.5v190q0 92 5 125.5t24 33.5t24 -33.5t5 -125.5zM68 155v190q0 93 -4.5 124.5t-20.5 31.5t-20.5 -31.5t-4.5 -124.5v-190q0 -93 4.5 -124.5t20.5 -31.5t20.5 31.5t4.5 124.5z" />
    <glyph glyph-name="o" unicode="&#xf5;" horiz-adv-x="86" 
d="M72 345v-190q0 -92 -5 -125.5t-24 -33.5t-24 33.5t-5 125.5v190q0 92 5 125.5t24 33.5t24 -33.5t5 -125.5zM68 155v190q0 93 -4.5 124.5t-20.5 31.5t-20.5 -31.5t-4.5 -124.5v-190q0 -93 4.5 -124.5t20.5 -31.5t20.5 31.5t4.5 124.5z" />
    <glyph glyph-name="o" unicode="&#xf4;" horiz-adv-x="86" 
d="M72 345v-190q0 -92 -5 -125.5t-24 -33.5t-24 33.5t-5 125.5v190q0 92 5 125.5t24 33.5t24 -33.5t5 -125.5zM68 155v190q0 93 -4.5 124.5t-20.5 31.5t-20.5 -31.5t-4.5 -124.5v-190q0 -93 4.5 -124.5t20.5 -31.5t20.5 31.5t4.5 124.5z" />
    <glyph glyph-name="o" unicode="&#xf3;" horiz-adv-x="86" 
d="M72 345v-190q0 -92 -5 -125.5t-24 -33.5t-24 33.5t-5 125.5v190q0 92 5 125.5t24 33.5t24 -33.5t5 -125.5zM68 155v190q0 93 -4.5 124.5t-20.5 31.5t-20.5 -31.5t-4.5 -124.5v-190q0 -93 4.5 -124.5t20.5 -31.5t20.5 31.5t4.5 124.5z" />
    <glyph glyph-name="o" unicode="&#xf2;" horiz-adv-x="86" 
d="M72 345v-190q0 -92 -5 -125.5t-24 -33.5t-24 33.5t-5 125.5v190q0 92 5 125.5t24 33.5t24 -33.5t5 -125.5zM68 155v190q0 93 -4.5 124.5t-20.5 31.5t-20.5 -31.5t-4.5 -124.5v-190q0 -93 4.5 -124.5t20.5 -31.5t20.5 31.5t4.5 124.5z" />
    <glyph glyph-name="p" unicode="p" 
d="M16 500h4q0 -5 -0.5 -21t-0.5 -38q2 33 9 48t18 15q17 0 22.5 -28t5.5 -99v-254q0 -71 -5.5 -99t-22.5 -28q-11 0 -18 15t-9 47q0 -21 0.5 -37.5t0.5 -20.5v-272h-4v772zM20 366v-232q0 -57 4.5 -96t21.5 -39q10 0 17 17.5t7 91.5v284q0 74 -7 91.5t-17 17.5
q-17 0 -21.5 -39t-4.5 -96z" />
    <glyph glyph-name="p" unicode="&#xfe;" 
d="M16 500h4q0 -5 -0.5 -21t-0.5 -38q2 33 9 48t18 15q17 0 22.5 -28t5.5 -99v-254q0 -71 -5.5 -99t-22.5 -28q-11 0 -18 15t-9 47q0 -21 0.5 -37.5t0.5 -20.5v-272h-4v772zM20 366v-232q0 -57 4.5 -96t21.5 -39q10 0 17 17.5t7 91.5v284q0 74 -7 91.5t-17 17.5
q-17 0 -21.5 -39t-4.5 -96z" />
    <glyph glyph-name="q" unicode="q" 
d="M68 -272v272q0 4 0.5 20.5t0.5 37.5q-2 -34 -9.5 -48t-17.5 -14q-17 0 -22.5 28t-5.5 99v254q0 71 5.5 99t22.5 28q10 0 17.5 -14t9.5 -49q0 22 -0.5 38t-0.5 21h4v-772h-4zM18 392v-284q0 -74 7 -91.5t17 -17.5q17 0 21.5 39t4.5 96v232q0 57 -4.5 96t-21.5 39
q-10 0 -17 -17.5t-7 -91.5z" />
    <glyph glyph-name="r" unicode="r" horiz-adv-x="63" 
d="M60 501v-3q-2 1 -4.5 1h-3.5q-22 0 -27 -36.5t-5 -98.5v-364h-4v500h4l-1 -72q1 39 9.5 56.5t24.5 17.5h3.5t3.5 -1z" />
    <glyph glyph-name="r" unicode="&#x159;" horiz-adv-x="63" 
d="M60 501v-3q-2 1 -4.5 1h-3.5q-22 0 -27 -36.5t-5 -98.5v-364h-4v500h4l-1 -72q1 39 9.5 56.5t24.5 17.5h3.5t3.5 -1z" />
    <glyph glyph-name="r" unicode="&#x157;" horiz-adv-x="63" 
d="M60 501v-3q-2 1 -4.5 1h-3.5q-22 0 -27 -36.5t-5 -98.5v-364h-4v500h4l-1 -72q1 39 9.5 56.5t24.5 17.5h3.5t3.5 -1z" />
    <glyph glyph-name="r" unicode="&#x155;" horiz-adv-x="63" 
d="M60 501v-3q-2 1 -4.5 1h-3.5q-22 0 -27 -36.5t-5 -98.5v-364h-4v500h4l-1 -72q1 39 9.5 56.5t24.5 17.5h3.5t3.5 -1z" />
    <glyph glyph-name="s" unicode="s" horiz-adv-x="80" 
d="M70 131q0 -83 -4.5 -109t-23.5 -26t-25 31.5t-6 116.5h4q0 -86 6 -115.5t21 -29.5q16 0 20 24t4 108q0 32 -7 63.5t-19 59.5l-11 26q-8 20 -12.5 42.5t-4.5 50.5q0 81 3.5 106t22.5 25t23 -31.5t4 -116.5h-4q0 86 -4 115.5t-19 29.5q-16 0 -19 -23.5t-3 -104.5
q0 -28 4.5 -50.5t12.5 -42.5l11 -26q8 -19 17 -51.5t9 -71.5z" />
    <glyph glyph-name="s" unicode="&#x219;" horiz-adv-x="80" 
d="M70 131q0 -83 -4.5 -109t-23.5 -26t-25 31.5t-6 116.5h4q0 -86 6 -115.5t21 -29.5q16 0 20 24t4 108q0 32 -7 63.5t-19 59.5l-11 26q-8 20 -12.5 42.5t-4.5 50.5q0 81 3.5 106t22.5 25t23 -31.5t4 -116.5h-4q0 86 -4 115.5t-19 29.5q-16 0 -19 -23.5t-3 -104.5
q0 -28 4.5 -50.5t12.5 -42.5l11 -26q8 -19 17 -51.5t9 -71.5z" />
    <glyph glyph-name="s" unicode="&#x161;" horiz-adv-x="80" 
d="M70 131q0 -83 -4.5 -109t-23.5 -26t-25 31.5t-6 116.5h4q0 -86 6 -115.5t21 -29.5q16 0 20 24t4 108q0 32 -7 63.5t-19 59.5l-11 26q-8 20 -12.5 42.5t-4.5 50.5q0 81 3.5 106t22.5 25t23 -31.5t4 -116.5h-4q0 86 -4 115.5t-19 29.5q-16 0 -19 -23.5t-3 -104.5
q0 -28 4.5 -50.5t12.5 -42.5l11 -26q8 -19 17 -51.5t9 -71.5z" />
    <glyph glyph-name="s" unicode="&#x15f;" horiz-adv-x="80" 
d="M70 131q0 -83 -4.5 -109t-23.5 -26t-25 31.5t-6 116.5h4q0 -86 6 -115.5t21 -29.5q16 0 20 24t4 108q0 32 -7 63.5t-19 59.5l-11 26q-8 20 -12.5 42.5t-4.5 50.5q0 81 3.5 106t22.5 25t23 -31.5t4 -116.5h-4q0 86 -4 115.5t-19 29.5q-16 0 -19 -23.5t-3 -104.5
q0 -28 4.5 -50.5t12.5 -42.5l11 -26q8 -19 17 -51.5t9 -71.5z" />
    <glyph glyph-name="s" unicode="&#x15d;" horiz-adv-x="80" 
d="M70 131q0 -83 -4.5 -109t-23.5 -26t-25 31.5t-6 116.5h4q0 -86 6 -115.5t21 -29.5q16 0 20 24t4 108q0 32 -7 63.5t-19 59.5l-11 26q-8 20 -12.5 42.5t-4.5 50.5q0 81 3.5 106t22.5 25t23 -31.5t4 -116.5h-4q0 86 -4 115.5t-19 29.5q-16 0 -19 -23.5t-3 -104.5
q0 -28 4.5 -50.5t12.5 -42.5l11 -26q8 -19 17 -51.5t9 -71.5z" />
    <glyph glyph-name="s" unicode="&#x15b;" horiz-adv-x="80" 
d="M70 131q0 -83 -4.5 -109t-23.5 -26t-25 31.5t-6 116.5h4q0 -86 6 -115.5t21 -29.5q16 0 20 24t4 108q0 32 -7 63.5t-19 59.5l-11 26q-8 20 -12.5 42.5t-4.5 50.5q0 81 3.5 106t22.5 25t23 -31.5t4 -116.5h-4q0 86 -4 115.5t-19 29.5q-16 0 -19 -23.5t-3 -104.5
q0 -28 4.5 -50.5t12.5 -42.5l11 -26q8 -19 17 -51.5t9 -71.5z" />
    <glyph glyph-name="s" unicode="&#xdf;" horiz-adv-x="80" 
d="M70 131q0 -83 -4.5 -109t-23.5 -26t-25 31.5t-6 116.5h4q0 -86 6 -115.5t21 -29.5q16 0 20 24t4 108q0 32 -7 63.5t-19 59.5l-11 26q-8 20 -12.5 42.5t-4.5 50.5q0 81 3.5 106t22.5 25t23 -31.5t4 -116.5h-4q0 86 -4 115.5t-19 29.5q-16 0 -19 -23.5t-3 -104.5
q0 -28 4.5 -50.5t12.5 -42.5l11 -26q8 -19 17 -51.5t9 -71.5z" />
    <glyph glyph-name="t" unicode="t" horiz-adv-x="76" 
d="M56 -4q-16 0 -22.5 18t-6.5 67v416h-28v3h28v167h4v-167h46v-3h-46v-425q0 -43 6 -58t19 -15q4 0 10.5 2.5t10.5 12.5l3 -2q-6 -11 -13 -13.5t-11 -2.5z" />
    <glyph glyph-name="t" unicode="&#x21b;" horiz-adv-x="76" 
d="M56 -4q-16 0 -22.5 18t-6.5 67v416h-28v3h28v167h4v-167h46v-3h-46v-425q0 -43 6 -58t19 -15q4 0 10.5 2.5t10.5 12.5l3 -2q-6 -11 -13 -13.5t-11 -2.5z" />
    <glyph glyph-name="t" unicode="&#x167;" horiz-adv-x="76" 
d="M56 -4q-16 0 -22.5 18t-6.5 67v416h-28v3h28v167h4v-167h46v-3h-46v-425q0 -43 6 -58t19 -15q4 0 10.5 2.5t10.5 12.5l3 -2q-6 -11 -13 -13.5t-11 -2.5z" />
    <glyph glyph-name="t" unicode="&#x165;" horiz-adv-x="76" 
d="M56 -4q-16 0 -22.5 18t-6.5 67v416h-28v3h28v167h4v-167h46v-3h-46v-425q0 -43 6 -58t19 -15q4 0 10.5 2.5t10.5 12.5l3 -2q-6 -11 -13 -13.5t-11 -2.5z" />
    <glyph glyph-name="t" unicode="&#x163;" horiz-adv-x="76" 
d="M56 -4q-16 0 -22.5 18t-6.5 67v416h-28v3h28v167h4v-167h46v-3h-46v-425q0 -43 6 -58t19 -15q4 0 10.5 2.5t10.5 12.5l3 -2q-6 -11 -13 -13.5t-11 -2.5z" />
    <glyph glyph-name="u" unicode="u" horiz-adv-x="89" 
d="M19 500v-397q0 -72 6.5 -88t16.5 -16q13 0 18.5 21.5t7.5 56.5q1 11 1 26v31v366h4v-500h-4l1 62v9q-1 -41 -8.5 -58t-20.5 -17q-14 0 -20 21.5t-6 94.5v388h4z" />
    <glyph glyph-name="u" unicode="&#x1ee5;" horiz-adv-x="89" 
d="M19 500v-397q0 -72 6.5 -88t16.5 -16q13 0 18.5 21.5t7.5 56.5q1 11 1 26v31v366h4v-500h-4l1 62v9q-1 -41 -8.5 -58t-20.5 -17q-14 0 -20 21.5t-6 94.5v388h4z" />
    <glyph glyph-name="u" unicode="&#x173;" horiz-adv-x="89" 
d="M19 500v-397q0 -72 6.5 -88t16.5 -16q13 0 18.5 21.5t7.5 56.5q1 11 1 26v31v366h4v-500h-4l1 62v9q-1 -41 -8.5 -58t-20.5 -17q-14 0 -20 21.5t-6 94.5v388h4z" />
    <glyph glyph-name="u" unicode="&#x171;" horiz-adv-x="89" 
d="M19 500v-397q0 -72 6.5 -88t16.5 -16q13 0 18.5 21.5t7.5 56.5q1 11 1 26v31v366h4v-500h-4l1 62v9q-1 -41 -8.5 -58t-20.5 -17q-14 0 -20 21.5t-6 94.5v388h4z" />
    <glyph glyph-name="u" unicode="&#x16f;" horiz-adv-x="89" 
d="M19 500v-397q0 -72 6.5 -88t16.5 -16q13 0 18.5 21.5t7.5 56.5q1 11 1 26v31v366h4v-500h-4l1 62v9q-1 -41 -8.5 -58t-20.5 -17q-14 0 -20 21.5t-6 94.5v388h4z" />
    <glyph glyph-name="u" unicode="&#x16d;" horiz-adv-x="89" 
d="M19 500v-397q0 -72 6.5 -88t16.5 -16q13 0 18.5 21.5t7.5 56.5q1 11 1 26v31v366h4v-500h-4l1 62v9q-1 -41 -8.5 -58t-20.5 -17q-14 0 -20 21.5t-6 94.5v388h4z" />
    <glyph glyph-name="u" unicode="&#x16b;" horiz-adv-x="89" 
d="M19 500v-397q0 -72 6.5 -88t16.5 -16q13 0 18.5 21.5t7.5 56.5q1 11 1 26v31v366h4v-500h-4l1 62v9q-1 -41 -8.5 -58t-20.5 -17q-14 0 -20 21.5t-6 94.5v388h4z" />
    <glyph glyph-name="u" unicode="&#x169;" horiz-adv-x="89" 
d="M19 500v-397q0 -72 6.5 -88t16.5 -16q13 0 18.5 21.5t7.5 56.5q1 11 1 26v31v366h4v-500h-4l1 62v9q-1 -41 -8.5 -58t-20.5 -17q-14 0 -20 21.5t-6 94.5v388h4z" />
    <glyph glyph-name="u" unicode="&#xfc;" horiz-adv-x="89" 
d="M19 500v-397q0 -72 6.5 -88t16.5 -16q13 0 18.5 21.5t7.5 56.5q1 11 1 26v31v366h4v-500h-4l1 62v9q-1 -41 -8.5 -58t-20.5 -17q-14 0 -20 21.5t-6 94.5v388h4z" />
    <glyph glyph-name="u" unicode="&#xfb;" horiz-adv-x="89" 
d="M19 500v-397q0 -72 6.5 -88t16.5 -16q13 0 18.5 21.5t7.5 56.5q1 11 1 26v31v366h4v-500h-4l1 62v9q-1 -41 -8.5 -58t-20.5 -17q-14 0 -20 21.5t-6 94.5v388h4z" />
    <glyph glyph-name="u" unicode="&#xfa;" horiz-adv-x="89" 
d="M19 500v-397q0 -72 6.5 -88t16.5 -16q13 0 18.5 21.5t7.5 56.5q1 11 1 26v31v366h4v-500h-4l1 62v9q-1 -41 -8.5 -58t-20.5 -17q-14 0 -20 21.5t-6 94.5v388h4z" />
    <glyph glyph-name="u" unicode="&#xf9;" horiz-adv-x="89" 
d="M19 500v-397q0 -72 6.5 -88t16.5 -16q13 0 18.5 21.5t7.5 56.5q1 11 1 26v31v366h4v-500h-4l1 62v9q-1 -41 -8.5 -58t-20.5 -17q-14 0 -20 21.5t-6 94.5v388h4z" />
    <glyph glyph-name="v" unicode="v" horiz-adv-x="76" 
d="M36 -4l-31 504h4l25 -414l4 -75l4 75l26 414h4l-32 -504h-4z" />
    <glyph glyph-name="w" unicode="w" horiz-adv-x="118" 
d="M36 44l22 320h4l20 -309l2 -44l2 50l23 439h4l-27 -504h-4l-21 330l-1 25l-1 -25l-23 -330h-4l-26 504h4l22 -437l2 -52z" />
    <glyph glyph-name="w" unicode="&#x1e85;" horiz-adv-x="118" 
d="M36 44l22 320h4l20 -309l2 -44l2 50l23 439h4l-27 -504h-4l-21 330l-1 25l-1 -25l-23 -330h-4l-26 504h4l22 -437l2 -52z" />
    <glyph glyph-name="w" unicode="&#x1e83;" horiz-adv-x="118" 
d="M36 44l22 320h4l20 -309l2 -44l2 50l23 439h4l-27 -504h-4l-21 330l-1 25l-1 -25l-23 -330h-4l-26 504h4l22 -437l2 -52z" />
    <glyph glyph-name="w" unicode="&#x1e81;" horiz-adv-x="118" 
d="M36 44l22 320h4l20 -309l2 -44l2 50l23 439h4l-27 -504h-4l-21 330l-1 25l-1 -25l-23 -330h-4l-26 504h4l22 -437l2 -52z" />
    <glyph glyph-name="w" unicode="&#x175;" horiz-adv-x="118" 
d="M36 44l22 320h4l20 -309l2 -44l2 50l23 439h4l-27 -504h-4l-21 330l-1 25l-1 -25l-23 -330h-4l-26 504h4l22 -437l2 -52z" />
    <glyph glyph-name="x" unicode="x" horiz-adv-x="76" 
d="M4 1l32 260l-32 239h4l23 -172l7 -59l6 53l23 178h4l-31 -239l31 -260h-4l-23 193l-6 59l-7 -65l-23 -187h-4z" />
    <glyph glyph-name="y" unicode="y" horiz-adv-x="76" 
d="M24 -198l12 194l-31 504h4l25 -414l4 -75l4 75l26 414h4l-32 -504l-13 -201q-3 -45 -13 -56t-32 -11h-1v3h4q17 0 26.5 11t12.5 60z" />
    <glyph glyph-name="y" unicode="&#x1ef3;" horiz-adv-x="76" 
d="M24 -198l12 194l-31 504h4l25 -414l4 -75l4 75l26 414h4l-32 -504l-13 -201q-3 -45 -13 -56t-32 -11h-1v3h4q17 0 26.5 11t12.5 60z" />
    <glyph glyph-name="y" unicode="&#x233;" horiz-adv-x="76" 
d="M24 -198l12 194l-31 504h4l25 -414l4 -75l4 75l26 414h4l-32 -504l-13 -201q-3 -45 -13 -56t-32 -11h-1v3h4q17 0 26.5 11t12.5 60z" />
    <glyph glyph-name="y" unicode="&#x177;" horiz-adv-x="76" 
d="M24 -198l12 194l-31 504h4l25 -414l4 -75l4 75l26 414h4l-32 -504l-13 -201q-3 -45 -13 -56t-32 -11h-1v3h4q17 0 26.5 11t12.5 60z" />
    <glyph glyph-name="y" unicode="&#xff;" horiz-adv-x="76" 
d="M24 -198l12 194l-31 504h4l25 -414l4 -75l4 75l26 414h4l-32 -504l-13 -201q-3 -45 -13 -56t-32 -11h-1v3h4q17 0 26.5 11t12.5 60z" />
    <glyph glyph-name="y" unicode="&#xfd;" horiz-adv-x="76" 
d="M24 -198l12 194l-31 504h4l25 -414l4 -75l4 75l26 414h4l-32 -504l-13 -201q-3 -45 -13 -56t-32 -11h-1v3h4q17 0 26.5 11t12.5 60z" />
    <glyph glyph-name="z" unicode="z" horiz-adv-x="73" 
d="M2 0v3l64 494h-56v3h60v-3l-64 -494h60v-3h-64z" />
    <glyph glyph-name="z" unicode="&#x17e;" horiz-adv-x="73" 
d="M2 0v3l64 494h-56v3h60v-3l-64 -494h60v-3h-64z" />
    <glyph glyph-name="z" unicode="&#x17c;" horiz-adv-x="73" 
d="M2 0v3l64 494h-56v3h60v-3l-64 -494h60v-3h-64z" />
    <glyph glyph-name="z" unicode="&#x17a;" horiz-adv-x="73" 
d="M2 0v3l64 494h-56v3h60v-3l-64 -494h60v-3h-64z" />
    <glyph glyph-name="uni00A0" unicode="&#xa0;" horiz-adv-x="72" 
 />
    <glyph glyph-name="uni00AD" unicode="&#xad;" horiz-adv-x="83" 
d="M78 268h-73v4h73v-4z" />
    <glyph glyph-name="paragraph" unicode="&#xb6;" horiz-adv-x="112" 
d="M91 785v-785h-4v785h-23v-785h-4v440q-21 0 -35 12t-14 66v192q0 54 14 66t35 12h47v-3h-16zM56 443h4v342h-4q-29 0 -35 -24.5t-6 -64.5v-164q0 -40 6 -64.5t35 -24.5z" />
    <glyph glyph-name="periodcentered" unicode="&#xb7;" horiz-adv-x="20" 
d="M5 273q0 2 1.5 3.5t3.5 1.5t3.5 -1.5t1.5 -3.5t-1.5 -3.5t-3.5 -1.5t-3.5 1.5t-1.5 3.5z" />
    <glyph glyph-name="glyph65" horiz-adv-x="36" 
d="M20 500v-500h-4v500h4z" />
    <glyph glyph-name="glyph66" horiz-adv-x="36" 
d="M16 -165v665h4v-656q0 -75 -11 -95.5t-33 -20.5h-4v3h4q17 0 28.5 16t11.5 88z" />
    <glyph glyph-name="quoteright" unicode="&#x2019;" horiz-adv-x="39" 
d="M9 685l-3 1q6 24 14.5 57t9.5 38q-2 0 -3.5 1.5t-1.5 3.5t1.5 3.5t3.5 1.5t3.5 -1.5t1.5 -3.5q0 -1 -5.5 -21t-20.5 -80z" />
    <glyph glyph-name="bullet" unicode="&#x2022;" horiz-adv-x="113" 
d="M31 246q0 10 7.5 18t17.5 8t18 -8t8 -18t-8 -17.5t-18 -7.5t-17.5 7.5t-7.5 17.5z" />
    <glyph glyph-name="glyph69" horiz-adv-x="14" 
 />
    <glyph glyph-name="glyph70" horiz-adv-x="117" 
d="M117 497h-41v-497h-4v497h-40v-497h-4v497h-28v3h28v172q0 75 11 95.5t33 20.5h4v-3h-4q-17 0 -28.5 -16t-11.5 -88v-181h40v172q0 75 11 95.5t33 20.5h4v-3h-4q-17 0 -28.5 -16t-11.5 -88v-181h41v-3z" />
    <glyph glyph-name="glyph72" horiz-adv-x="94" 
d="M78 500v-500h-4v497h-42v-497h-4v497h-28v3h28v172q0 75 11 95.5t33 20.5h4v-3h-4q-17 0 -28.5 -16t-11.5 -88v-181h46zM71 707q0 2 1.5 3.5t3.5 1.5t3.5 -1.5t1.5 -3.5t-1.5 -3.5t-3.5 -1.5t-3.5 1.5t-1.5 3.5z" />
    <glyph glyph-name="glyph74" horiz-adv-x="138" 
d="M72 500v172q0 75 11 95.5t33 20.5h4v-3h-4q-17 0 -28.5 -16t-11.5 -88v-181h46v-500h-4v497h-42v-497h-4v497h-40v-497h-4v497h-28v3h28v172q0 75 11 95.5t33 20.5h4v-3h-4q-17 0 -28.5 -16t-11.5 -88v-181h40zM115 707q0 2 1.5 3.5t3.5 1.5t3.5 -1.5t1.5 -3.5t-1.5 -3.5
t-3.5 -1.5t-3.5 1.5t-1.5 3.5z" />
    <glyph glyph-name="glyph76" horiz-adv-x="94" 
d="M78 788v-788h-4v785h-2q-17 0 -28.5 -16t-11.5 -88v-181h31v-3h-31v-497h-4v497h-28v3h28v172q0 75 11 95.5t33 20.5h6z" />
    <glyph glyph-name="glyph78" horiz-adv-x="138" 
d="M122 788v-788h-4v785h-2q-17 0 -28.5 -16t-11.5 -88v-181h31v-3h-31v-497h-4v497h-40v-497h-4v497h-28v3h28v172q0 75 11 95.5t33 20.5h4v-3h-4q-17 0 -28.5 -16t-11.5 -88v-181h40v172q0 75 11 95.5t33 20.5h6z" />
    <glyph glyph-name="glyph80" horiz-adv-x="44" 
d="M17 707q0 2 1.5 3.5t3.5 1.5t3.5 -1.5t1.5 -3.5t-1.5 -3.5t-3.5 -1.5t-3.5 1.5t-1.5 3.5z" />
    <glyph glyph-name="glyph81" horiz-adv-x="20" 
d="M42 788l-60 -788h-4l60 788h4z" />
    <glyph glyph-name="zero.numr" horiz-adv-x="70" 
d="M13 606v26q0 97 4 128.5t18 31.5t18 -31.5t4 -128.5v-26q0 -97 -4 -128.5t-18 -31.5t-18 31.5t-4 128.5zM53 597v44q0 91 -4 119.5t-14 28.5t-14 -28.5t-4 -119.5v-44q0 -91 4 -119.5t14 -28.5t14 28.5t4 119.5z" />
    <glyph glyph-name="zero.dnom" horiz-adv-x="70" 
d="M13 156v26q0 97 4 128.5t18 31.5t18 -31.5t4 -128.5v-26q0 -97 -4 -128.5t-18 -31.5t-18 31.5t-4 128.5zM53 147v44q0 91 -4 119.5t-14 28.5t-14 -28.5t-4 -119.5v-44q0 -91 4 -119.5t14 -28.5t14 28.5t4 119.5z" />
    </font>
</defs>
</svg>
