<?xml version="1.0" standalone="no"?>
<!DOCTYPE svg PUBLIC "-//W3C//DTD SVG 1.1//EN" "http://www.w3.org/Graphics/SVG/1.1/DTD/svg11.dtd" >
<svg xmlns="http://www.w3.org/2000/svg" xmlns:xlink="http://www.w3.org/1999/xlink" version="1.1">
<metadata>
Created by Christoph Koeberlin (http://christoph.koe.berlin)
Copyright (c) 2019 Swiss Typefaces Sarl. All rights reserved.
</metadata>
<defs>
<font id="Font" horiz-adv-x="616" >
  <font-face 
    font-family="Font"
    font-weight="700"
    font-stretch="normal"
    units-per-em="1000"
    panose-1="2 11 8 4 0 0 0 0 0 0"
    ascent="800"
    descent="-200"
    x-height="481"
    cap-height="787"
    bbox="-238 -274 1047 820"
    underline-thickness="46"
    underline-position="-161"
    unicode-range="U+0020-2022"
  />
<missing-glyph horiz-adv-x="700" 
d="M100 758h500v-758h-500v758zM119 728v-698l220 349zM581 30v698l-221 -349zM133 19h434l-217 343zM350 395l217 344h-434z" />
    <glyph glyph-name="f_f.liga" unicode="ff" horiz-adv-x="735" 
d="M749 481v-28h-156v-453h-153v453h-189v-453h-153v453h-86v28h86q1 76 21 132.5t51 93.5t69.5 55t75.5 18q39 0 67.5 -18t28.5 -51q0 -21 -14 -37t-41 -16q-21 0 -33 10t-21.5 22t-20 22t-29.5 10q-29 0 -40 -23.5t-9 -59.5t14.5 -78.5t32.5 -79.5h190q1 81 21 141
t51.5 99.5t69.5 59t76 19.5q41 0 70 -18t29 -52q0 -21 -14 -37t-42 -16q-22 0 -34 10t-22 22.5t-21 22.5t-30 10q-29 0 -40.5 -26t-10 -65t14.5 -84.5t34 -85.5h157z" />
    <glyph glyph-name="f_i.liga" unicode="fi" horiz-adv-x="689" 
d="M12 481h86q0 81 20 141t51.5 99.5t70 59t76.5 19.5q41 0 70 -18t29 -52q0 -21 -14 -37t-42 -16q-22 0 -34 10t-22 22.5t-21 22.5t-30 10q-29 0 -40.5 -25.5t-10 -64.5t14.5 -85t34 -86h157v-28h-156v-453h-153v453h-86v28zM471 481h153v-481h-153v481zM459 701
q0 37 26 63t63 26t63 -26t26 -63t-26 -63t-63 -26t-63 26t-26 63z" />
    <glyph glyph-name="f_f_i.liga" unicode="ffi" horiz-adv-x="1031" 
d="M749 481v-28h-156v-453h-153v453h-189v-453h-153v453h-86v28h86q1 76 21 132.5t51 93.5t69.5 55t75.5 18q39 0 67.5 -18t28.5 -51q0 -21 -14 -37t-41 -16q-21 0 -33 10t-21.5 22t-20 22t-29.5 10q-29 0 -40 -23.5t-9 -59.5t14.5 -78.5t32.5 -79.5h190q1 81 21 141
t51.5 99.5t69.5 59t76 19.5q41 0 70 -18t29 -52q0 -21 -14 -37t-42 -16q-22 0 -34 10t-22 22.5t-21 22.5t-30 10q-29 0 -40.5 -26t-10 -65t14.5 -84.5t34 -85.5h157zM813 481h153v-481h-153v481zM801 701q0 37 26 63t63 26t63 -26t26 -63t-26 -63t-63 -26t-63 26t-26 63z
" />
    <glyph glyph-name="f_l.liga" unicode="fl" horiz-adv-x="707" 
d="M12 481h86q0 81 20 141t51.5 99.5t70 59t76.5 19.5q41 0 70 -18t29 -52q0 -21 -14 -37t-42 -16q-22 0 -34 10t-22 22.5t-21 22.5t-30 10q-29 0 -40.5 -25.5t-10 -64.5t14.5 -85t34 -86h157v-28h-156v-453h-153v453h-86v28zM642 787v-787h-153v787h153z" />
    <glyph glyph-name="f_f_l.liga" unicode="ffl" horiz-adv-x="1032" 
d="M749 481v-28h-156v-453h-153v453h-189v-453h-153v453h-86v28h86q1 76 21 132.5t51 93.5t69.5 55t75.5 18q39 0 67.5 -18t28.5 -51q0 -21 -14 -37t-41 -16q-21 0 -33 10t-21.5 22t-20 22t-29.5 10q-29 0 -40 -23.5t-9 -59.5t14.5 -78.5t32.5 -79.5h190q1 81 21 141
t51.5 99.5t69.5 59t76 19.5q41 0 70 -18t29 -52q0 -21 -14 -37t-42 -16q-22 0 -34 10t-22 22.5t-21 22.5t-30 10q-29 0 -40.5 -26t-10 -65t14.5 -84.5t34 -85.5h157zM967 787v-787h-153v787h153z" />
    <glyph glyph-name=".notdef" horiz-adv-x="700" 
d="M100 758h500v-758h-500v758zM119 728v-698l220 349zM581 30v698l-221 -349zM133 19h434l-217 343zM350 395l217 344h-434z" />
    <glyph glyph-name="glyph1" horiz-adv-x="0" 
 />
    <glyph glyph-name="glyph2" horiz-adv-x="238" 
 />
    <glyph glyph-name="space" unicode=" " horiz-adv-x="238" 
 />
    <glyph glyph-name="comma" unicode="," horiz-adv-x="293" 
d="M246 159l-214 -355h-11l55 355h170z" />
    <glyph glyph-name="hyphen" unicode="-" horiz-adv-x="418" 
d="M62 279h294v-47h-294v47z" />
    <glyph glyph-name="period" unicode="." horiz-adv-x="280" 
d="M46 80q0 19 7.5 36.5t20 30t29.5 20t37 7.5q39 0 66.5 -27.5t27.5 -66.5q0 -20 -7.5 -37t-20 -29.5t-30 -20t-36.5 -7.5q-20 0 -37 7.5t-29.5 20t-20 29.5t-7.5 37z" />
    <glyph glyph-name="slash" unicode="/" horiz-adv-x="449" 
d="M26 -33l345 853h53l-345 -853h-53z" />
    <glyph glyph-name="zero" unicode="0" horiz-adv-x="732" 
d="M217 360q0 -97 13 -163.5t34.5 -107t48 -58t53.5 -17.5t53.5 17.5t48 58t34.5 107t13 163.5t-13 164t-34.5 108.5t-48 60t-53.5 18.5t-53.5 -18.5t-48 -60t-34.5 -108.5t-13 -164zM51 361q0 90 24 160.5t66.5 118.5t100.5 73.5t126 25.5q76 0 134 -25.5t98 -74.5
t60.5 -119.5t20.5 -160.5t-24 -159.5t-66.5 -117t-100 -72t-124.5 -24.5q-72 0 -130 25t-99 72.5t-63.5 117.5t-22.5 160z" />
    <glyph glyph-name="A" unicode="A" horiz-adv-x="686" 
d="M304 787h78l303 -787h-183l-99 270h-256l-102 -270h-44zM174 341h203l-99 273z" />
    <glyph glyph-name="A" unicode="&#x104;" horiz-adv-x="686" 
d="M304 787h78l303 -787h-183l-99 270h-256l-102 -270h-44zM174 341h203l-99 273z" />
    <glyph glyph-name="A" unicode="&#x102;" horiz-adv-x="686" 
d="M304 787h78l303 -787h-183l-99 270h-256l-102 -270h-44zM174 341h203l-99 273z" />
    <glyph glyph-name="A" unicode="&#x100;" horiz-adv-x="686" 
d="M304 787h78l303 -787h-183l-99 270h-256l-102 -270h-44zM174 341h203l-99 273z" />
    <glyph glyph-name="A" unicode="&#xc6;" horiz-adv-x="686" 
d="M304 787h78l303 -787h-183l-99 270h-256l-102 -270h-44zM174 341h203l-99 273z" />
    <glyph glyph-name="A" unicode="&#xc5;" horiz-adv-x="686" 
d="M304 787h78l303 -787h-183l-99 270h-256l-102 -270h-44zM174 341h203l-99 273z" />
    <glyph glyph-name="A" unicode="&#xc4;" horiz-adv-x="686" 
d="M304 787h78l303 -787h-183l-99 270h-256l-102 -270h-44zM174 341h203l-99 273z" />
    <glyph glyph-name="A" unicode="&#xc3;" horiz-adv-x="686" 
d="M304 787h78l303 -787h-183l-99 270h-256l-102 -270h-44zM174 341h203l-99 273z" />
    <glyph glyph-name="A" unicode="&#xc2;" horiz-adv-x="686" 
d="M304 787h78l303 -787h-183l-99 270h-256l-102 -270h-44zM174 341h203l-99 273z" />
    <glyph glyph-name="A" unicode="&#xc1;" horiz-adv-x="686" 
d="M304 787h78l303 -787h-183l-99 270h-256l-102 -270h-44zM174 341h203l-99 273z" />
    <glyph glyph-name="A" unicode="&#xc0;" horiz-adv-x="686" 
d="M304 787h78l303 -787h-183l-99 270h-256l-102 -270h-44zM174 341h203l-99 273z" />
    <glyph glyph-name="B" unicode="B" horiz-adv-x="726" 
d="M316 787q62 0 120.5 -9t103.5 -31.5t72.5 -60.5t27.5 -95q0 -35 -15 -64t-41.5 -50.5t-62.5 -35t-78 -19.5q48 -4 92 -17.5t78 -38.5t54.5 -62t20.5 -88q0 -63 -28.5 -104.5t-78.5 -66.5t-117 -35t-144 -10h-230v787h226zM328 37q47 0 82 9.5t58.5 30.5t35 55t11.5 84
t-11.5 84t-35 55t-58.5 30t-82 9h-74v-357h74zM254 750v-320h39q53 0 87.5 11.5t54.5 32.5t28 50.5t8 65.5t-8 65.5t-28 50.5t-54.5 32.5t-87.5 11.5h-39z" />
    <glyph glyph-name="C" unicode="C" horiz-adv-x="842" 
d="M793 65q-78 -42 -149 -60.5t-151 -18.5q-121 0 -206 34.5t-139 91.5t-79 130.5t-25 152.5q0 95 31 171t89.5 129t141.5 81.5t187 28.5q80 0 151.5 -15t141.5 -48v-189h-16q-17 48 -44 88.5t-62 69.5t-79 45t-96 16q-55 0 -103.5 -22.5t-85 -69t-58 -117.5t-21.5 -168
t21 -168t57 -117t85 -68.5t105 -22.5q107 0 180 60.5t107 178.5h17v-193z" />
    <glyph glyph-name="C" unicode="&#x10c;" horiz-adv-x="842" 
d="M793 65q-78 -42 -149 -60.5t-151 -18.5q-121 0 -206 34.5t-139 91.5t-79 130.5t-25 152.5q0 95 31 171t89.5 129t141.5 81.5t187 28.5q80 0 151.5 -15t141.5 -48v-189h-16q-17 48 -44 88.5t-62 69.5t-79 45t-96 16q-55 0 -103.5 -22.5t-85 -69t-58 -117.5t-21.5 -168
t21 -168t57 -117t85 -68.5t105 -22.5q107 0 180 60.5t107 178.5h17v-193z" />
    <glyph glyph-name="C" unicode="&#x10a;" horiz-adv-x="842" 
d="M793 65q-78 -42 -149 -60.5t-151 -18.5q-121 0 -206 34.5t-139 91.5t-79 130.5t-25 152.5q0 95 31 171t89.5 129t141.5 81.5t187 28.5q80 0 151.5 -15t141.5 -48v-189h-16q-17 48 -44 88.5t-62 69.5t-79 45t-96 16q-55 0 -103.5 -22.5t-85 -69t-58 -117.5t-21.5 -168
t21 -168t57 -117t85 -68.5t105 -22.5q107 0 180 60.5t107 178.5h17v-193z" />
    <glyph glyph-name="C" unicode="&#x108;" horiz-adv-x="842" 
d="M793 65q-78 -42 -149 -60.5t-151 -18.5q-121 0 -206 34.5t-139 91.5t-79 130.5t-25 152.5q0 95 31 171t89.5 129t141.5 81.5t187 28.5q80 0 151.5 -15t141.5 -48v-189h-16q-17 48 -44 88.5t-62 69.5t-79 45t-96 16q-55 0 -103.5 -22.5t-85 -69t-58 -117.5t-21.5 -168
t21 -168t57 -117t85 -68.5t105 -22.5q107 0 180 60.5t107 178.5h17v-193z" />
    <glyph glyph-name="C" unicode="&#x106;" horiz-adv-x="842" 
d="M793 65q-78 -42 -149 -60.5t-151 -18.5q-121 0 -206 34.5t-139 91.5t-79 130.5t-25 152.5q0 95 31 171t89.5 129t141.5 81.5t187 28.5q80 0 151.5 -15t141.5 -48v-189h-16q-17 48 -44 88.5t-62 69.5t-79 45t-96 16q-55 0 -103.5 -22.5t-85 -69t-58 -117.5t-21.5 -168
t21 -168t57 -117t85 -68.5t105 -22.5q107 0 180 60.5t107 178.5h17v-193z" />
    <glyph glyph-name="C" unicode="&#xc7;" horiz-adv-x="842" 
d="M793 65q-78 -42 -149 -60.5t-151 -18.5q-121 0 -206 34.5t-139 91.5t-79 130.5t-25 152.5q0 95 31 171t89.5 129t141.5 81.5t187 28.5q80 0 151.5 -15t141.5 -48v-189h-16q-17 48 -44 88.5t-62 69.5t-79 45t-96 16q-55 0 -103.5 -22.5t-85 -69t-58 -117.5t-21.5 -168
t21 -168t57 -117t85 -68.5t105 -22.5q107 0 180 60.5t107 178.5h17v-193z" />
    <glyph glyph-name="D" unicode="D" horiz-adv-x="855" 
d="M340 787q118 0 206.5 -27t147 -78t87.5 -124t29 -165t-29 -165t-87.5 -123.5t-147 -77.5t-206.5 -27h-250v787h250zM254 750v-713h82q60 0 114.5 13.5t96 52t66 108t24.5 182.5t-24.5 183t-66 108.5t-96 52t-114.5 13.5h-82z" />
    <glyph glyph-name="D" unicode="&#x110;" horiz-adv-x="855" 
d="M340 787q118 0 206.5 -27t147 -78t87.5 -124t29 -165t-29 -165t-87.5 -123.5t-147 -77.5t-206.5 -27h-250v787h250zM254 750v-713h82q60 0 114.5 13.5t96 52t66 108t24.5 182.5t-24.5 183t-66 108.5t-96 52t-114.5 13.5h-82z" />
    <glyph glyph-name="D" unicode="&#x10e;" horiz-adv-x="855" 
d="M340 787q118 0 206.5 -27t147 -78t87.5 -124t29 -165t-29 -165t-87.5 -123.5t-147 -77.5t-206.5 -27h-250v787h250zM254 750v-713h82q60 0 114.5 13.5t96 52t66 108t24.5 182.5t-24.5 183t-66 108.5t-96 52t-114.5 13.5h-82z" />
    <glyph glyph-name="D" unicode="&#xd0;" horiz-adv-x="855" 
d="M340 787q118 0 206.5 -27t147 -78t87.5 -124t29 -165t-29 -165t-87.5 -123.5t-147 -77.5t-206.5 -27h-250v787h250zM254 750v-713h82q60 0 114.5 13.5t96 52t66 108t24.5 182.5t-24.5 183t-66 108.5t-96 52t-114.5 13.5h-82z" />
    <glyph glyph-name="E" unicode="E" horiz-adv-x="657" 
d="M90 787h523v-37h-359v-327h314v-37h-314v-349h369v-37h-533v787z" />
    <glyph glyph-name="E" unicode="&#x11a;" horiz-adv-x="657" 
d="M90 787h523v-37h-359v-327h314v-37h-314v-349h369v-37h-533v787z" />
    <glyph glyph-name="E" unicode="&#x118;" horiz-adv-x="657" 
d="M90 787h523v-37h-359v-327h314v-37h-314v-349h369v-37h-533v787z" />
    <glyph glyph-name="E" unicode="&#x116;" horiz-adv-x="657" 
d="M90 787h523v-37h-359v-327h314v-37h-314v-349h369v-37h-533v787z" />
    <glyph glyph-name="E" unicode="&#x114;" horiz-adv-x="657" 
d="M90 787h523v-37h-359v-327h314v-37h-314v-349h369v-37h-533v787z" />
    <glyph glyph-name="E" unicode="&#x112;" horiz-adv-x="657" 
d="M90 787h523v-37h-359v-327h314v-37h-314v-349h369v-37h-533v787z" />
    <glyph glyph-name="E" unicode="&#xcb;" horiz-adv-x="657" 
d="M90 787h523v-37h-359v-327h314v-37h-314v-349h369v-37h-533v787z" />
    <glyph glyph-name="E" unicode="&#xca;" horiz-adv-x="657" 
d="M90 787h523v-37h-359v-327h314v-37h-314v-349h369v-37h-533v787z" />
    <glyph glyph-name="E" unicode="&#xc9;" horiz-adv-x="657" 
d="M90 787h523v-37h-359v-327h314v-37h-314v-349h369v-37h-533v787z" />
    <glyph glyph-name="E" unicode="&#xc8;" horiz-adv-x="657" 
d="M90 787h523v-37h-359v-327h314v-37h-314v-349h369v-37h-533v787z" />
    <glyph glyph-name="F" unicode="F" horiz-adv-x="636" 
d="M90 0v787h528v-37h-364v-327h324v-37h-324v-386h-164z" />
    <glyph glyph-name="G" unicode="G" horiz-adv-x="859" 
d="M44 395q0 95 30.5 171t88 129t141 81.5t189.5 28.5q77 0 149.5 -15.5t140.5 -47.5v-189h-16q-17 48 -44.5 88t-63 69.5t-78.5 45.5t-92 16q-57 0 -106 -22.5t-85 -69t-56.5 -117.5t-20.5 -168q0 -98 19 -168.5t53.5 -117t82.5 -68.5t107 -22q48 0 92 16t76 54v276h154
v-259q-39 -54 -120.5 -87t-205.5 -33q-121 0 -204 34t-134.5 91t-74 130.5t-22.5 153.5z" />
    <glyph glyph-name="G" unicode="&#x122;" horiz-adv-x="859" 
d="M44 395q0 95 30.5 171t88 129t141 81.5t189.5 28.5q77 0 149.5 -15.5t140.5 -47.5v-189h-16q-17 48 -44.5 88t-63 69.5t-78.5 45.5t-92 16q-57 0 -106 -22.5t-85 -69t-56.5 -117.5t-20.5 -168q0 -98 19 -168.5t53.5 -117t82.5 -68.5t107 -22q48 0 92 16t76 54v276h154
v-259q-39 -54 -120.5 -87t-205.5 -33q-121 0 -204 34t-134.5 91t-74 130.5t-22.5 153.5z" />
    <glyph glyph-name="G" unicode="&#x120;" horiz-adv-x="859" 
d="M44 395q0 95 30.5 171t88 129t141 81.5t189.5 28.5q77 0 149.5 -15.5t140.5 -47.5v-189h-16q-17 48 -44.5 88t-63 69.5t-78.5 45.5t-92 16q-57 0 -106 -22.5t-85 -69t-56.5 -117.5t-20.5 -168q0 -98 19 -168.5t53.5 -117t82.5 -68.5t107 -22q48 0 92 16t76 54v276h154
v-259q-39 -54 -120.5 -87t-205.5 -33q-121 0 -204 34t-134.5 91t-74 130.5t-22.5 153.5z" />
    <glyph glyph-name="G" unicode="&#x11e;" horiz-adv-x="859" 
d="M44 395q0 95 30.5 171t88 129t141 81.5t189.5 28.5q77 0 149.5 -15.5t140.5 -47.5v-189h-16q-17 48 -44.5 88t-63 69.5t-78.5 45.5t-92 16q-57 0 -106 -22.5t-85 -69t-56.5 -117.5t-20.5 -168q0 -98 19 -168.5t53.5 -117t82.5 -68.5t107 -22q48 0 92 16t76 54v276h154
v-259q-39 -54 -120.5 -87t-205.5 -33q-121 0 -204 34t-134.5 91t-74 130.5t-22.5 153.5z" />
    <glyph glyph-name="G" unicode="&#x11c;" horiz-adv-x="859" 
d="M44 395q0 95 30.5 171t88 129t141 81.5t189.5 28.5q77 0 149.5 -15.5t140.5 -47.5v-189h-16q-17 48 -44.5 88t-63 69.5t-78.5 45.5t-92 16q-57 0 -106 -22.5t-85 -69t-56.5 -117.5t-20.5 -168q0 -98 19 -168.5t53.5 -117t82.5 -68.5t107 -22q48 0 92 16t76 54v276h154
v-259q-39 -54 -120.5 -87t-205.5 -33q-121 0 -204 34t-134.5 91t-74 130.5t-22.5 153.5z" />
    <glyph glyph-name="H" unicode="H" horiz-adv-x="836" 
d="M582 386h-328v-386h-164v787h164v-364h328v364h164v-787h-164v386z" />
    <glyph glyph-name="H" unicode="&#x126;" horiz-adv-x="836" 
d="M582 386h-328v-386h-164v787h164v-364h328v364h164v-787h-164v386z" />
    <glyph glyph-name="H" unicode="&#x124;" horiz-adv-x="836" 
d="M582 386h-328v-386h-164v787h164v-364h328v364h164v-787h-164v386z" />
    <glyph glyph-name="I" unicode="I" horiz-adv-x="344" 
d="M254 787v-787h-164v787h164z" />
    <glyph glyph-name="I" unicode="&#x1eca;" horiz-adv-x="344" 
d="M254 787v-787h-164v787h164z" />
    <glyph glyph-name="I" unicode="&#x130;" horiz-adv-x="344" 
d="M254 787v-787h-164v787h164z" />
    <glyph glyph-name="I" unicode="&#x12e;" horiz-adv-x="344" 
d="M254 787v-787h-164v787h164z" />
    <glyph glyph-name="I" unicode="&#x12c;" horiz-adv-x="344" 
d="M254 787v-787h-164v787h164z" />
    <glyph glyph-name="I" unicode="&#x12a;" horiz-adv-x="344" 
d="M254 787v-787h-164v787h164z" />
    <glyph glyph-name="I" unicode="&#x128;" horiz-adv-x="344" 
d="M254 787v-787h-164v787h164z" />
    <glyph glyph-name="I" unicode="&#xcf;" horiz-adv-x="344" 
d="M254 787v-787h-164v787h164z" />
    <glyph glyph-name="I" unicode="&#xce;" horiz-adv-x="344" 
d="M254 787v-787h-164v787h164z" />
    <glyph glyph-name="I" unicode="&#xcd;" horiz-adv-x="344" 
d="M254 787v-787h-164v787h164z" />
    <glyph glyph-name="I" unicode="&#xcc;" horiz-adv-x="344" 
d="M254 787v-787h-164v787h164z" />
    <glyph glyph-name="J" unicode="J" horiz-adv-x="381" 
d="M299 787v-571q0 -59 -14.5 -107.5t-46.5 -90t-84.5 -77t-128.5 -68.5l-10 17q39 30 63 56.5t36.5 56.5t16.5 67.5t4 89.5v627h164z" />
    <glyph glyph-name="J" unicode="&#x134;" horiz-adv-x="381" 
d="M299 787v-571q0 -59 -14.5 -107.5t-46.5 -90t-84.5 -77t-128.5 -68.5l-10 17q39 30 63 56.5t36.5 56.5t16.5 67.5t4 89.5v627h164z" />
    <glyph glyph-name="K" unicode="K" horiz-adv-x="721" 
d="M254 787v-394l374 394h59l-303 -321l363 -466h-211l-282 374v-374h-164v787h164z" />
    <glyph glyph-name="K" unicode="&#x136;" horiz-adv-x="721" 
d="M254 787v-394l374 394h59l-303 -321l363 -466h-211l-282 374v-374h-164v787h164z" />
    <glyph glyph-name="L" unicode="L" horiz-adv-x="640" 
d="M254 787v-750h379v-37h-543v787h164z" />
    <glyph glyph-name="L" unicode="&#x141;" horiz-adv-x="640" 
d="M254 787v-750h379v-37h-543v787h164z" />
    <glyph glyph-name="L" unicode="&#x13f;" horiz-adv-x="640" 
d="M254 787v-750h379v-37h-543v787h164z" />
    <glyph glyph-name="L" unicode="&#x13d;" horiz-adv-x="640" 
d="M254 787v-750h379v-37h-543v787h164z" />
    <glyph glyph-name="L" unicode="&#x13b;" horiz-adv-x="640" 
d="M254 787v-750h379v-37h-543v787h164z" />
    <glyph glyph-name="L" unicode="&#x139;" horiz-adv-x="640" 
d="M254 787v-750h379v-37h-543v787h164z" />
    <glyph glyph-name="M" unicode="M" horiz-adv-x="942" 
d="M870 0h-164l-32 633l-202 -633h-98l-229 658l-32 -658h-41l38 787h152l218 -627l200 627h152z" />
    <glyph glyph-name="N" unicode="N" horiz-adv-x="801" 
d="M711 787v-787h-111l-468 657v-657h-42v787h142l437 -614v614h42z" />
    <glyph glyph-name="N" unicode="&#x14a;" horiz-adv-x="801" 
d="M711 787v-787h-111l-468 657v-657h-42v787h142l437 -614v614h42z" />
    <glyph glyph-name="N" unicode="&#x147;" horiz-adv-x="801" 
d="M711 787v-787h-111l-468 657v-657h-42v787h142l437 -614v614h42z" />
    <glyph glyph-name="N" unicode="&#x145;" horiz-adv-x="801" 
d="M711 787v-787h-111l-468 657v-657h-42v787h142l437 -614v614h42z" />
    <glyph glyph-name="N" unicode="&#x143;" horiz-adv-x="801" 
d="M711 787v-787h-111l-468 657v-657h-42v787h142l437 -614v614h42z" />
    <glyph glyph-name="N" unicode="&#xd1;" horiz-adv-x="801" 
d="M711 787v-787h-111l-468 657v-657h-42v787h142l437 -614v614h42z" />
    <glyph glyph-name="O" unicode="O" horiz-adv-x="934" 
d="M713 395q0 103 -19 175.5t-52 118t-78 66t-97 20.5q-51 0 -96 -20.5t-78.5 -66t-52.5 -118t-19 -175.5t19 -175t52.5 -117.5t78.5 -66t96 -20.5q52 0 97 20.5t78 66t52 117.5t19 175zM890 395q0 -95 -31 -170.5t-86.5 -128.5t-133.5 -81.5t-172 -28.5t-172 28.5
t-133.5 81.5t-86.5 128.5t-31 170.5t31 171t86.5 129t133.5 81.5t172 28.5t172 -28.5t133.5 -81.5t86.5 -129t31 -171z" />
    <glyph glyph-name="O" unicode="&#x1ecc;" horiz-adv-x="934" 
d="M713 395q0 103 -19 175.5t-52 118t-78 66t-97 20.5q-51 0 -96 -20.5t-78.5 -66t-52.5 -118t-19 -175.5t19 -175t52.5 -117.5t78.5 -66t96 -20.5q52 0 97 20.5t78 66t52 117.5t19 175zM890 395q0 -95 -31 -170.5t-86.5 -128.5t-133.5 -81.5t-172 -28.5t-172 28.5
t-133.5 81.5t-86.5 128.5t-31 170.5t31 171t86.5 129t133.5 81.5t172 28.5t172 -28.5t133.5 -81.5t86.5 -129t31 -171z" />
    <glyph glyph-name="O" unicode="&#x152;" horiz-adv-x="934" 
d="M713 395q0 103 -19 175.5t-52 118t-78 66t-97 20.5q-51 0 -96 -20.5t-78.5 -66t-52.5 -118t-19 -175.5t19 -175t52.5 -117.5t78.5 -66t96 -20.5q52 0 97 20.5t78 66t52 117.5t19 175zM890 395q0 -95 -31 -170.5t-86.5 -128.5t-133.5 -81.5t-172 -28.5t-172 28.5
t-133.5 81.5t-86.5 128.5t-31 170.5t31 171t86.5 129t133.5 81.5t172 28.5t172 -28.5t133.5 -81.5t86.5 -129t31 -171z" />
    <glyph glyph-name="O" unicode="&#x150;" horiz-adv-x="934" 
d="M713 395q0 103 -19 175.5t-52 118t-78 66t-97 20.5q-51 0 -96 -20.5t-78.5 -66t-52.5 -118t-19 -175.5t19 -175t52.5 -117.5t78.5 -66t96 -20.5q52 0 97 20.5t78 66t52 117.5t19 175zM890 395q0 -95 -31 -170.5t-86.5 -128.5t-133.5 -81.5t-172 -28.5t-172 28.5
t-133.5 81.5t-86.5 128.5t-31 170.5t31 171t86.5 129t133.5 81.5t172 28.5t172 -28.5t133.5 -81.5t86.5 -129t31 -171z" />
    <glyph glyph-name="O" unicode="&#x14e;" horiz-adv-x="934" 
d="M713 395q0 103 -19 175.5t-52 118t-78 66t-97 20.5q-51 0 -96 -20.5t-78.5 -66t-52.5 -118t-19 -175.5t19 -175t52.5 -117.5t78.5 -66t96 -20.5q52 0 97 20.5t78 66t52 117.5t19 175zM890 395q0 -95 -31 -170.5t-86.5 -128.5t-133.5 -81.5t-172 -28.5t-172 28.5
t-133.5 81.5t-86.5 128.5t-31 170.5t31 171t86.5 129t133.5 81.5t172 28.5t172 -28.5t133.5 -81.5t86.5 -129t31 -171z" />
    <glyph glyph-name="O" unicode="&#x14c;" horiz-adv-x="934" 
d="M713 395q0 103 -19 175.5t-52 118t-78 66t-97 20.5q-51 0 -96 -20.5t-78.5 -66t-52.5 -118t-19 -175.5t19 -175t52.5 -117.5t78.5 -66t96 -20.5q52 0 97 20.5t78 66t52 117.5t19 175zM890 395q0 -95 -31 -170.5t-86.5 -128.5t-133.5 -81.5t-172 -28.5t-172 28.5
t-133.5 81.5t-86.5 128.5t-31 170.5t31 171t86.5 129t133.5 81.5t172 28.5t172 -28.5t133.5 -81.5t86.5 -129t31 -171z" />
    <glyph glyph-name="O" unicode="&#xd8;" horiz-adv-x="934" 
d="M713 395q0 103 -19 175.5t-52 118t-78 66t-97 20.5q-51 0 -96 -20.5t-78.5 -66t-52.5 -118t-19 -175.5t19 -175t52.5 -117.5t78.5 -66t96 -20.5q52 0 97 20.5t78 66t52 117.5t19 175zM890 395q0 -95 -31 -170.5t-86.5 -128.5t-133.5 -81.5t-172 -28.5t-172 28.5
t-133.5 81.5t-86.5 128.5t-31 170.5t31 171t86.5 129t133.5 81.5t172 28.5t172 -28.5t133.5 -81.5t86.5 -129t31 -171z" />
    <glyph glyph-name="O" unicode="&#xd6;" horiz-adv-x="934" 
d="M713 395q0 103 -19 175.5t-52 118t-78 66t-97 20.5q-51 0 -96 -20.5t-78.5 -66t-52.5 -118t-19 -175.5t19 -175t52.5 -117.5t78.5 -66t96 -20.5q52 0 97 20.5t78 66t52 117.5t19 175zM890 395q0 -95 -31 -170.5t-86.5 -128.5t-133.5 -81.5t-172 -28.5t-172 28.5
t-133.5 81.5t-86.5 128.5t-31 170.5t31 171t86.5 129t133.5 81.5t172 28.5t172 -28.5t133.5 -81.5t86.5 -129t31 -171z" />
    <glyph glyph-name="O" unicode="&#xd5;" horiz-adv-x="934" 
d="M713 395q0 103 -19 175.5t-52 118t-78 66t-97 20.5q-51 0 -96 -20.5t-78.5 -66t-52.5 -118t-19 -175.5t19 -175t52.5 -117.5t78.5 -66t96 -20.5q52 0 97 20.5t78 66t52 117.5t19 175zM890 395q0 -95 -31 -170.5t-86.5 -128.5t-133.5 -81.5t-172 -28.5t-172 28.5
t-133.5 81.5t-86.5 128.5t-31 170.5t31 171t86.5 129t133.5 81.5t172 28.5t172 -28.5t133.5 -81.5t86.5 -129t31 -171z" />
    <glyph glyph-name="O" unicode="&#xd4;" horiz-adv-x="934" 
d="M713 395q0 103 -19 175.5t-52 118t-78 66t-97 20.5q-51 0 -96 -20.5t-78.5 -66t-52.5 -118t-19 -175.5t19 -175t52.5 -117.5t78.5 -66t96 -20.5q52 0 97 20.5t78 66t52 117.5t19 175zM890 395q0 -95 -31 -170.5t-86.5 -128.5t-133.5 -81.5t-172 -28.5t-172 28.5
t-133.5 81.5t-86.5 128.5t-31 170.5t31 171t86.5 129t133.5 81.5t172 28.5t172 -28.5t133.5 -81.5t86.5 -129t31 -171z" />
    <glyph glyph-name="O" unicode="&#xd3;" horiz-adv-x="934" 
d="M713 395q0 103 -19 175.5t-52 118t-78 66t-97 20.5q-51 0 -96 -20.5t-78.5 -66t-52.5 -118t-19 -175.5t19 -175t52.5 -117.5t78.5 -66t96 -20.5q52 0 97 20.5t78 66t52 117.5t19 175zM890 395q0 -95 -31 -170.5t-86.5 -128.5t-133.5 -81.5t-172 -28.5t-172 28.5
t-133.5 81.5t-86.5 128.5t-31 170.5t31 171t86.5 129t133.5 81.5t172 28.5t172 -28.5t133.5 -81.5t86.5 -129t31 -171z" />
    <glyph glyph-name="O" unicode="&#xd2;" horiz-adv-x="934" 
d="M713 395q0 103 -19 175.5t-52 118t-78 66t-97 20.5q-51 0 -96 -20.5t-78.5 -66t-52.5 -118t-19 -175.5t19 -175t52.5 -117.5t78.5 -66t96 -20.5q52 0 97 20.5t78 66t52 117.5t19 175zM890 395q0 -95 -31 -170.5t-86.5 -128.5t-133.5 -81.5t-172 -28.5t-172 28.5
t-133.5 81.5t-86.5 128.5t-31 170.5t31 171t86.5 129t133.5 81.5t172 28.5t172 -28.5t133.5 -81.5t86.5 -129t31 -171z" />
    <glyph glyph-name="P" unicode="P" horiz-adv-x="695" 
d="M90 0v787h234q69 0 132 -10t111 -34.5t77 -67.5t29 -109t-29 -109t-77 -67.5t-111 -34.5t-132 -10h-70v-345h-164zM254 382h66q101 0 141 46.5t40 137.5t-40 137.5t-141 46.5h-66v-368z" />
    <glyph glyph-name="P" unicode="&#xde;" horiz-adv-x="695" 
d="M90 0v787h234q69 0 132 -10t111 -34.5t77 -67.5t29 -109t-29 -109t-77 -67.5t-111 -34.5t-132 -10h-70v-345h-164zM254 382h66q101 0 141 46.5t40 137.5t-40 137.5t-141 46.5h-66v-368z" />
    <glyph glyph-name="Q" unicode="Q" horiz-adv-x="934" 
d="M762 -172l-150 177q-34 -9 -70 -14t-75 -5q-94 0 -172 28.5t-133.5 81.5t-86.5 128.5t-31 170.5t31 171t86.5 129t133.5 81.5t172 28.5t172 -28.5t133.5 -81.5t86.5 -129t31 -171q0 -137 -62.5 -233t-170.5 -141l139 -164zM713 395q0 103 -19 175.5t-52 118t-78 66
t-97 20.5q-51 0 -96 -20.5t-78.5 -66t-52.5 -118t-19 -175.5t19 -175t52.5 -117.5t78.5 -66t96 -20.5q62 0 112 28l-134 159l34 29l135 -160q45 43 72 121.5t27 201.5z" />
    <glyph glyph-name="R" unicode="R" horiz-adv-x="743" 
d="M558 0l-225 364h-79v-364h-164v787h187q77 0 146 -8t121 -30.5t82.5 -63t30.5 -104.5q0 -41 -12.5 -72.5t-35 -54t-53.5 -37.5t-68 -24l257 -393h-187zM285 401q47 0 84.5 8t63 28t39 53.5t13.5 85.5t-13.5 85.5t-39 53t-62 27.5t-82.5 8h-34v-349h31z" />
    <glyph glyph-name="R" unicode="&#x158;" horiz-adv-x="743" 
d="M558 0l-225 364h-79v-364h-164v787h187q77 0 146 -8t121 -30.5t82.5 -63t30.5 -104.5q0 -41 -12.5 -72.5t-35 -54t-53.5 -37.5t-68 -24l257 -393h-187zM285 401q47 0 84.5 8t63 28t39 53.5t13.5 85.5t-13.5 85.5t-39 53t-62 27.5t-82.5 8h-34v-349h31z" />
    <glyph glyph-name="R" unicode="&#x156;" horiz-adv-x="743" 
d="M558 0l-225 364h-79v-364h-164v787h187q77 0 146 -8t121 -30.5t82.5 -63t30.5 -104.5q0 -41 -12.5 -72.5t-35 -54t-53.5 -37.5t-68 -24l257 -393h-187zM285 401q47 0 84.5 8t63 28t39 53.5t13.5 85.5t-13.5 85.5t-39 53t-62 27.5t-82.5 8h-34v-349h31z" />
    <glyph glyph-name="R" unicode="&#x154;" horiz-adv-x="743" 
d="M558 0l-225 364h-79v-364h-164v787h187q77 0 146 -8t121 -30.5t82.5 -63t30.5 -104.5q0 -41 -12.5 -72.5t-35 -54t-53.5 -37.5t-68 -24l257 -393h-187zM285 401q47 0 84.5 8t63 28t39 53.5t13.5 85.5t-13.5 85.5t-39 53t-62 27.5t-82.5 8h-34v-349h31z" />
    <glyph glyph-name="S" unicode="S" horiz-adv-x="654" 
d="M306 19q31 0 57.5 10t46.5 29.5t31.5 48.5t11.5 67q0 29 -9.5 51t-27 39t-43 30.5t-58.5 26.5l-65 26q-54 22 -90.5 47.5t-58.5 55.5t-31 64t-9 72q0 53 21 94t58 68.5t87 41.5t108 14q60 0 120 -14.5t108 -40.5v-172h-15q-10 49 -30 86t-47 61.5t-59 36.5t-66 12
t-59.5 -11t-42.5 -29.5t-25.5 -42.5t-8.5 -49q0 -22 5 -41t17.5 -36t33.5 -32t54 -28l81 -33q39 -16 77 -35t68 -46.5t49 -65.5t19 -91q0 -65 -24 -111.5t-64.5 -76.5t-94.5 -44.5t-114 -14.5q-66 0 -136.5 15.5t-124.5 44.5v186h15q10 -56 34 -96t56.5 -66t70.5 -38.5
t74 -12.5z" />
    <glyph glyph-name="S" unicode="&#x218;" horiz-adv-x="654" 
d="M306 19q31 0 57.5 10t46.5 29.5t31.5 48.5t11.5 67q0 29 -9.5 51t-27 39t-43 30.5t-58.5 26.5l-65 26q-54 22 -90.5 47.5t-58.5 55.5t-31 64t-9 72q0 53 21 94t58 68.5t87 41.5t108 14q60 0 120 -14.5t108 -40.5v-172h-15q-10 49 -30 86t-47 61.5t-59 36.5t-66 12
t-59.5 -11t-42.5 -29.5t-25.5 -42.5t-8.5 -49q0 -22 5 -41t17.5 -36t33.5 -32t54 -28l81 -33q39 -16 77 -35t68 -46.5t49 -65.5t19 -91q0 -65 -24 -111.5t-64.5 -76.5t-94.5 -44.5t-114 -14.5q-66 0 -136.5 15.5t-124.5 44.5v186h15q10 -56 34 -96t56.5 -66t70.5 -38.5
t74 -12.5z" />
    <glyph glyph-name="S" unicode="&#x160;" horiz-adv-x="654" 
d="M306 19q31 0 57.5 10t46.5 29.5t31.5 48.5t11.5 67q0 29 -9.5 51t-27 39t-43 30.5t-58.5 26.5l-65 26q-54 22 -90.5 47.5t-58.5 55.5t-31 64t-9 72q0 53 21 94t58 68.5t87 41.5t108 14q60 0 120 -14.5t108 -40.5v-172h-15q-10 49 -30 86t-47 61.5t-59 36.5t-66 12
t-59.5 -11t-42.5 -29.5t-25.5 -42.5t-8.5 -49q0 -22 5 -41t17.5 -36t33.5 -32t54 -28l81 -33q39 -16 77 -35t68 -46.5t49 -65.5t19 -91q0 -65 -24 -111.5t-64.5 -76.5t-94.5 -44.5t-114 -14.5q-66 0 -136.5 15.5t-124.5 44.5v186h15q10 -56 34 -96t56.5 -66t70.5 -38.5
t74 -12.5z" />
    <glyph glyph-name="S" unicode="&#x15e;" horiz-adv-x="654" 
d="M306 19q31 0 57.5 10t46.5 29.5t31.5 48.5t11.5 67q0 29 -9.5 51t-27 39t-43 30.5t-58.5 26.5l-65 26q-54 22 -90.5 47.5t-58.5 55.5t-31 64t-9 72q0 53 21 94t58 68.5t87 41.5t108 14q60 0 120 -14.5t108 -40.5v-172h-15q-10 49 -30 86t-47 61.5t-59 36.5t-66 12
t-59.5 -11t-42.5 -29.5t-25.5 -42.5t-8.5 -49q0 -22 5 -41t17.5 -36t33.5 -32t54 -28l81 -33q39 -16 77 -35t68 -46.5t49 -65.5t19 -91q0 -65 -24 -111.5t-64.5 -76.5t-94.5 -44.5t-114 -14.5q-66 0 -136.5 15.5t-124.5 44.5v186h15q10 -56 34 -96t56.5 -66t70.5 -38.5
t74 -12.5z" />
    <glyph glyph-name="S" unicode="&#x15c;" horiz-adv-x="654" 
d="M306 19q31 0 57.5 10t46.5 29.5t31.5 48.5t11.5 67q0 29 -9.5 51t-27 39t-43 30.5t-58.5 26.5l-65 26q-54 22 -90.5 47.5t-58.5 55.5t-31 64t-9 72q0 53 21 94t58 68.5t87 41.5t108 14q60 0 120 -14.5t108 -40.5v-172h-15q-10 49 -30 86t-47 61.5t-59 36.5t-66 12
t-59.5 -11t-42.5 -29.5t-25.5 -42.5t-8.5 -49q0 -22 5 -41t17.5 -36t33.5 -32t54 -28l81 -33q39 -16 77 -35t68 -46.5t49 -65.5t19 -91q0 -65 -24 -111.5t-64.5 -76.5t-94.5 -44.5t-114 -14.5q-66 0 -136.5 15.5t-124.5 44.5v186h15q10 -56 34 -96t56.5 -66t70.5 -38.5
t74 -12.5z" />
    <glyph glyph-name="S" unicode="&#x15a;" horiz-adv-x="654" 
d="M306 19q31 0 57.5 10t46.5 29.5t31.5 48.5t11.5 67q0 29 -9.5 51t-27 39t-43 30.5t-58.5 26.5l-65 26q-54 22 -90.5 47.5t-58.5 55.5t-31 64t-9 72q0 53 21 94t58 68.5t87 41.5t108 14q60 0 120 -14.5t108 -40.5v-172h-15q-10 49 -30 86t-47 61.5t-59 36.5t-66 12
t-59.5 -11t-42.5 -29.5t-25.5 -42.5t-8.5 -49q0 -22 5 -41t17.5 -36t33.5 -32t54 -28l81 -33q39 -16 77 -35t68 -46.5t49 -65.5t19 -91q0 -65 -24 -111.5t-64.5 -76.5t-94.5 -44.5t-114 -14.5q-66 0 -136.5 15.5t-124.5 44.5v186h15q10 -56 34 -96t56.5 -66t70.5 -38.5
t74 -12.5z" />
    <glyph glyph-name="T" unicode="T" horiz-adv-x="696" 
d="M430 750v-750h-164v750h-261v37h686v-37h-261z" />
    <glyph glyph-name="T" unicode="&#x21a;" horiz-adv-x="696" 
d="M430 750v-750h-164v750h-261v37h686v-37h-261z" />
    <glyph glyph-name="T" unicode="&#x166;" horiz-adv-x="696" 
d="M430 750v-750h-164v750h-261v37h686v-37h-261z" />
    <glyph glyph-name="T" unicode="&#x164;" horiz-adv-x="696" 
d="M430 750v-750h-164v750h-261v37h686v-37h-261z" />
    <glyph glyph-name="T" unicode="&#x162;" horiz-adv-x="696" 
d="M430 750v-750h-164v750h-261v37h686v-37h-261z" />
    <glyph glyph-name="U" unicode="U" horiz-adv-x="801" 
d="M246 787v-487q0 -125 56.5 -190.5t159.5 -65.5q55 0 96 19.5t67 55.5t39 87t13 114v467h42v-469q0 -77 -18 -138.5t-56 -104.5t-96 -66t-138 -23q-159 0 -244 84t-85 238v479h164z" />
    <glyph glyph-name="U" unicode="&#x1ee4;" horiz-adv-x="801" 
d="M246 787v-487q0 -125 56.5 -190.5t159.5 -65.5q55 0 96 19.5t67 55.5t39 87t13 114v467h42v-469q0 -77 -18 -138.5t-56 -104.5t-96 -66t-138 -23q-159 0 -244 84t-85 238v479h164z" />
    <glyph glyph-name="U" unicode="&#x172;" horiz-adv-x="801" 
d="M246 787v-487q0 -125 56.5 -190.5t159.5 -65.5q55 0 96 19.5t67 55.5t39 87t13 114v467h42v-469q0 -77 -18 -138.5t-56 -104.5t-96 -66t-138 -23q-159 0 -244 84t-85 238v479h164z" />
    <glyph glyph-name="U" unicode="&#x170;" horiz-adv-x="801" 
d="M246 787v-487q0 -125 56.5 -190.5t159.5 -65.5q55 0 96 19.5t67 55.5t39 87t13 114v467h42v-469q0 -77 -18 -138.5t-56 -104.5t-96 -66t-138 -23q-159 0 -244 84t-85 238v479h164z" />
    <glyph glyph-name="U" unicode="&#x16e;" horiz-adv-x="801" 
d="M246 787v-487q0 -125 56.5 -190.5t159.5 -65.5q55 0 96 19.5t67 55.5t39 87t13 114v467h42v-469q0 -77 -18 -138.5t-56 -104.5t-96 -66t-138 -23q-159 0 -244 84t-85 238v479h164z" />
    <glyph glyph-name="U" unicode="&#x16c;" horiz-adv-x="801" 
d="M246 787v-487q0 -125 56.5 -190.5t159.5 -65.5q55 0 96 19.5t67 55.5t39 87t13 114v467h42v-469q0 -77 -18 -138.5t-56 -104.5t-96 -66t-138 -23q-159 0 -244 84t-85 238v479h164z" />
    <glyph glyph-name="U" unicode="&#x16a;" horiz-adv-x="801" 
d="M246 787v-487q0 -125 56.5 -190.5t159.5 -65.5q55 0 96 19.5t67 55.5t39 87t13 114v467h42v-469q0 -77 -18 -138.5t-56 -104.5t-96 -66t-138 -23q-159 0 -244 84t-85 238v479h164z" />
    <glyph glyph-name="U" unicode="&#x168;" horiz-adv-x="801" 
d="M246 787v-487q0 -125 56.5 -190.5t159.5 -65.5q55 0 96 19.5t67 55.5t39 87t13 114v467h42v-469q0 -77 -18 -138.5t-56 -104.5t-96 -66t-138 -23q-159 0 -244 84t-85 238v479h164z" />
    <glyph glyph-name="U" unicode="&#xdc;" horiz-adv-x="801" 
d="M246 787v-487q0 -125 56.5 -190.5t159.5 -65.5q55 0 96 19.5t67 55.5t39 87t13 114v467h42v-469q0 -77 -18 -138.5t-56 -104.5t-96 -66t-138 -23q-159 0 -244 84t-85 238v479h164z" />
    <glyph glyph-name="U" unicode="&#xdb;" horiz-adv-x="801" 
d="M246 787v-487q0 -125 56.5 -190.5t159.5 -65.5q55 0 96 19.5t67 55.5t39 87t13 114v467h42v-469q0 -77 -18 -138.5t-56 -104.5t-96 -66t-138 -23q-159 0 -244 84t-85 238v479h164z" />
    <glyph glyph-name="U" unicode="&#xda;" horiz-adv-x="801" 
d="M246 787v-487q0 -125 56.5 -190.5t159.5 -65.5q55 0 96 19.5t67 55.5t39 87t13 114v467h42v-469q0 -77 -18 -138.5t-56 -104.5t-96 -66t-138 -23q-159 0 -244 84t-85 238v479h164z" />
    <glyph glyph-name="U" unicode="&#xd9;" horiz-adv-x="801" 
d="M246 787v-487q0 -125 56.5 -190.5t159.5 -65.5q55 0 96 19.5t67 55.5t39 87t13 114v467h42v-469q0 -77 -18 -138.5t-56 -104.5t-96 -66t-138 -23q-159 0 -244 84t-85 238v479h164z" />
    <glyph glyph-name="V" unicode="V" horiz-adv-x="702" 
d="M182 787l232 -628l244 628h45l-306 -787h-92l-306 787h183z" />
    <glyph glyph-name="W" unicode="W" horiz-adv-x="1050" 
d="M1047 787l-263 -787h-95l-164 452l-164 -452h-95l-263 787h183l188 -622l190 524h58l172 -518l207 616h46z" />
    <glyph glyph-name="W" unicode="&#x1e84;" horiz-adv-x="1050" 
d="M1047 787l-263 -787h-95l-164 452l-164 -452h-95l-263 787h183l188 -622l190 524h58l172 -518l207 616h46z" />
    <glyph glyph-name="W" unicode="&#x1e82;" horiz-adv-x="1050" 
d="M1047 787l-263 -787h-95l-164 452l-164 -452h-95l-263 787h183l188 -622l190 524h58l172 -518l207 616h46z" />
    <glyph glyph-name="W" unicode="&#x1e80;" horiz-adv-x="1050" 
d="M1047 787l-263 -787h-95l-164 452l-164 -452h-95l-263 787h183l188 -622l190 524h58l172 -518l207 616h46z" />
    <glyph glyph-name="W" unicode="&#x174;" horiz-adv-x="1050" 
d="M1047 787l-263 -787h-95l-164 452l-164 -452h-95l-263 787h183l188 -622l190 524h58l172 -518l207 616h46z" />
    <glyph glyph-name="X" unicode="X" horiz-adv-x="707" 
d="M393 495l233 292h53l-262 -328l307 -459h-194l-221 331l-261 -331h-53l290 367l-280 420h194z" />
    <glyph glyph-name="Y" unicode="Y" horiz-adv-x="680" 
d="M258 345l-253 442h175l224 -391l226 391h45l-253 -442v-345h-164v345z" />
    <glyph glyph-name="Y" unicode="&#x1ef2;" horiz-adv-x="680" 
d="M258 345l-253 442h175l224 -391l226 391h45l-253 -442v-345h-164v345z" />
    <glyph glyph-name="Y" unicode="&#x232;" horiz-adv-x="680" 
d="M258 345l-253 442h175l224 -391l226 391h45l-253 -442v-345h-164v345z" />
    <glyph glyph-name="Y" unicode="&#x178;" horiz-adv-x="680" 
d="M258 345l-253 442h175l224 -391l226 391h45l-253 -442v-345h-164v345z" />
    <glyph glyph-name="Y" unicode="&#x176;" horiz-adv-x="680" 
d="M258 345l-253 442h175l224 -391l226 391h45l-253 -442v-345h-164v345z" />
    <glyph glyph-name="Y" unicode="&#xdd;" horiz-adv-x="680" 
d="M258 345l-253 442h175l224 -391l226 391h45l-253 -442v-345h-164v345z" />
    <glyph glyph-name="Z" unicode="Z" horiz-adv-x="639" 
d="M185 37h439v-37h-618v31l437 719h-392v37h572v-31z" />
    <glyph glyph-name="Z" unicode="&#x17d;" horiz-adv-x="639" 
d="M185 37h439v-37h-618v31l437 719h-392v37h572v-31z" />
    <glyph glyph-name="Z" unicode="&#x17b;" horiz-adv-x="639" 
d="M185 37h439v-37h-618v31l437 719h-392v37h572v-31z" />
    <glyph glyph-name="Z" unicode="&#x179;" horiz-adv-x="639" 
d="M185 37h439v-37h-618v31l437 719h-392v37h572v-31z" />
    <glyph glyph-name="a" unicode="a" horiz-adv-x="528" 
d="M436 100q0 -29 10.5 -39.5t24.5 -10.5q11 0 24.5 4.5t25.5 17.5l9 -5q-21 -47 -53 -63t-74 -16q-18 0 -35.5 4t-33 13t-27 24t-16.5 37q-25 -47 -59 -63.5t-76 -16.5q-66 0 -98.5 34.5t-32.5 85.5q0 38 18 65t52 45.5t83 29t110 15.5v137q0 47 -13 68t-44 21
q-25 0 -40.5 -12t-15.5 -35q0 -8 2 -16.5t2 -24.5q0 -25 -14 -44t-47 -19q-24 0 -40 17t-16 44q0 30 18 50.5t45 34t58.5 19.5t59.5 6q99 0 147.5 -32.5t47.5 -115.5zM170 118q0 -32 13.5 -53.5t40.5 -21.5q14 0 30.5 6.5t33.5 30.5v166q-33 -6 -56 -18t-36.5 -29.5
t-19.5 -38t-6 -42.5z" />
    <glyph glyph-name="a" unicode="&#x105;" horiz-adv-x="528" 
d="M436 100q0 -29 10.5 -39.5t24.5 -10.5q11 0 24.5 4.5t25.5 17.5l9 -5q-21 -47 -53 -63t-74 -16q-18 0 -35.5 4t-33 13t-27 24t-16.5 37q-25 -47 -59 -63.5t-76 -16.5q-66 0 -98.5 34.5t-32.5 85.5q0 38 18 65t52 45.5t83 29t110 15.5v137q0 47 -13 68t-44 21
q-25 0 -40.5 -12t-15.5 -35q0 -8 2 -16.5t2 -24.5q0 -25 -14 -44t-47 -19q-24 0 -40 17t-16 44q0 30 18 50.5t45 34t58.5 19.5t59.5 6q99 0 147.5 -32.5t47.5 -115.5zM170 118q0 -32 13.5 -53.5t40.5 -21.5q14 0 30.5 6.5t33.5 30.5v166q-33 -6 -56 -18t-36.5 -29.5
t-19.5 -38t-6 -42.5z" />
    <glyph glyph-name="a" unicode="&#x103;" horiz-adv-x="528" 
d="M436 100q0 -29 10.5 -39.5t24.5 -10.5q11 0 24.5 4.5t25.5 17.5l9 -5q-21 -47 -53 -63t-74 -16q-18 0 -35.5 4t-33 13t-27 24t-16.5 37q-25 -47 -59 -63.5t-76 -16.5q-66 0 -98.5 34.5t-32.5 85.5q0 38 18 65t52 45.5t83 29t110 15.5v137q0 47 -13 68t-44 21
q-25 0 -40.5 -12t-15.5 -35q0 -8 2 -16.5t2 -24.5q0 -25 -14 -44t-47 -19q-24 0 -40 17t-16 44q0 30 18 50.5t45 34t58.5 19.5t59.5 6q99 0 147.5 -32.5t47.5 -115.5zM170 118q0 -32 13.5 -53.5t40.5 -21.5q14 0 30.5 6.5t33.5 30.5v166q-33 -6 -56 -18t-36.5 -29.5
t-19.5 -38t-6 -42.5z" />
    <glyph glyph-name="a" unicode="&#x101;" horiz-adv-x="528" 
d="M436 100q0 -29 10.5 -39.5t24.5 -10.5q11 0 24.5 4.5t25.5 17.5l9 -5q-21 -47 -53 -63t-74 -16q-18 0 -35.5 4t-33 13t-27 24t-16.5 37q-25 -47 -59 -63.5t-76 -16.5q-66 0 -98.5 34.5t-32.5 85.5q0 38 18 65t52 45.5t83 29t110 15.5v137q0 47 -13 68t-44 21
q-25 0 -40.5 -12t-15.5 -35q0 -8 2 -16.5t2 -24.5q0 -25 -14 -44t-47 -19q-24 0 -40 17t-16 44q0 30 18 50.5t45 34t58.5 19.5t59.5 6q99 0 147.5 -32.5t47.5 -115.5zM170 118q0 -32 13.5 -53.5t40.5 -21.5q14 0 30.5 6.5t33.5 30.5v166q-33 -6 -56 -18t-36.5 -29.5
t-19.5 -38t-6 -42.5z" />
    <glyph glyph-name="a" unicode="&#xe6;" horiz-adv-x="528" 
d="M436 100q0 -29 10.5 -39.5t24.5 -10.5q11 0 24.5 4.5t25.5 17.5l9 -5q-21 -47 -53 -63t-74 -16q-18 0 -35.5 4t-33 13t-27 24t-16.5 37q-25 -47 -59 -63.5t-76 -16.5q-66 0 -98.5 34.5t-32.5 85.5q0 38 18 65t52 45.5t83 29t110 15.5v137q0 47 -13 68t-44 21
q-25 0 -40.5 -12t-15.5 -35q0 -8 2 -16.5t2 -24.5q0 -25 -14 -44t-47 -19q-24 0 -40 17t-16 44q0 30 18 50.5t45 34t58.5 19.5t59.5 6q99 0 147.5 -32.5t47.5 -115.5zM170 118q0 -32 13.5 -53.5t40.5 -21.5q14 0 30.5 6.5t33.5 30.5v166q-33 -6 -56 -18t-36.5 -29.5
t-19.5 -38t-6 -42.5z" />
    <glyph glyph-name="a" unicode="&#xe5;" horiz-adv-x="528" 
d="M436 100q0 -29 10.5 -39.5t24.5 -10.5q11 0 24.5 4.5t25.5 17.5l9 -5q-21 -47 -53 -63t-74 -16q-18 0 -35.5 4t-33 13t-27 24t-16.5 37q-25 -47 -59 -63.5t-76 -16.5q-66 0 -98.5 34.5t-32.5 85.5q0 38 18 65t52 45.5t83 29t110 15.5v137q0 47 -13 68t-44 21
q-25 0 -40.5 -12t-15.5 -35q0 -8 2 -16.5t2 -24.5q0 -25 -14 -44t-47 -19q-24 0 -40 17t-16 44q0 30 18 50.5t45 34t58.5 19.5t59.5 6q99 0 147.5 -32.5t47.5 -115.5zM170 118q0 -32 13.5 -53.5t40.5 -21.5q14 0 30.5 6.5t33.5 30.5v166q-33 -6 -56 -18t-36.5 -29.5
t-19.5 -38t-6 -42.5z" />
    <glyph glyph-name="a" unicode="&#xe4;" horiz-adv-x="528" 
d="M436 100q0 -29 10.5 -39.5t24.5 -10.5q11 0 24.5 4.5t25.5 17.5l9 -5q-21 -47 -53 -63t-74 -16q-18 0 -35.5 4t-33 13t-27 24t-16.5 37q-25 -47 -59 -63.5t-76 -16.5q-66 0 -98.5 34.5t-32.5 85.5q0 38 18 65t52 45.5t83 29t110 15.5v137q0 47 -13 68t-44 21
q-25 0 -40.5 -12t-15.5 -35q0 -8 2 -16.5t2 -24.5q0 -25 -14 -44t-47 -19q-24 0 -40 17t-16 44q0 30 18 50.5t45 34t58.5 19.5t59.5 6q99 0 147.5 -32.5t47.5 -115.5zM170 118q0 -32 13.5 -53.5t40.5 -21.5q14 0 30.5 6.5t33.5 30.5v166q-33 -6 -56 -18t-36.5 -29.5
t-19.5 -38t-6 -42.5z" />
    <glyph glyph-name="a" unicode="&#xe3;" horiz-adv-x="528" 
d="M436 100q0 -29 10.5 -39.5t24.5 -10.5q11 0 24.5 4.5t25.5 17.5l9 -5q-21 -47 -53 -63t-74 -16q-18 0 -35.5 4t-33 13t-27 24t-16.5 37q-25 -47 -59 -63.5t-76 -16.5q-66 0 -98.5 34.5t-32.5 85.5q0 38 18 65t52 45.5t83 29t110 15.5v137q0 47 -13 68t-44 21
q-25 0 -40.5 -12t-15.5 -35q0 -8 2 -16.5t2 -24.5q0 -25 -14 -44t-47 -19q-24 0 -40 17t-16 44q0 30 18 50.5t45 34t58.5 19.5t59.5 6q99 0 147.5 -32.5t47.5 -115.5zM170 118q0 -32 13.5 -53.5t40.5 -21.5q14 0 30.5 6.5t33.5 30.5v166q-33 -6 -56 -18t-36.5 -29.5
t-19.5 -38t-6 -42.5z" />
    <glyph glyph-name="a" unicode="&#xe2;" horiz-adv-x="528" 
d="M436 100q0 -29 10.5 -39.5t24.5 -10.5q11 0 24.5 4.5t25.5 17.5l9 -5q-21 -47 -53 -63t-74 -16q-18 0 -35.5 4t-33 13t-27 24t-16.5 37q-25 -47 -59 -63.5t-76 -16.5q-66 0 -98.5 34.5t-32.5 85.5q0 38 18 65t52 45.5t83 29t110 15.5v137q0 47 -13 68t-44 21
q-25 0 -40.5 -12t-15.5 -35q0 -8 2 -16.5t2 -24.5q0 -25 -14 -44t-47 -19q-24 0 -40 17t-16 44q0 30 18 50.5t45 34t58.5 19.5t59.5 6q99 0 147.5 -32.5t47.5 -115.5zM170 118q0 -32 13.5 -53.5t40.5 -21.5q14 0 30.5 6.5t33.5 30.5v166q-33 -6 -56 -18t-36.5 -29.5
t-19.5 -38t-6 -42.5z" />
    <glyph glyph-name="a" unicode="&#xe1;" horiz-adv-x="528" 
d="M436 100q0 -29 10.5 -39.5t24.5 -10.5q11 0 24.5 4.5t25.5 17.5l9 -5q-21 -47 -53 -63t-74 -16q-18 0 -35.5 4t-33 13t-27 24t-16.5 37q-25 -47 -59 -63.5t-76 -16.5q-66 0 -98.5 34.5t-32.5 85.5q0 38 18 65t52 45.5t83 29t110 15.5v137q0 47 -13 68t-44 21
q-25 0 -40.5 -12t-15.5 -35q0 -8 2 -16.5t2 -24.5q0 -25 -14 -44t-47 -19q-24 0 -40 17t-16 44q0 30 18 50.5t45 34t58.5 19.5t59.5 6q99 0 147.5 -32.5t47.5 -115.5zM170 118q0 -32 13.5 -53.5t40.5 -21.5q14 0 30.5 6.5t33.5 30.5v166q-33 -6 -56 -18t-36.5 -29.5
t-19.5 -38t-6 -42.5z" />
    <glyph glyph-name="a" unicode="&#xe0;" horiz-adv-x="528" 
d="M436 100q0 -29 10.5 -39.5t24.5 -10.5q11 0 24.5 4.5t25.5 17.5l9 -5q-21 -47 -53 -63t-74 -16q-18 0 -35.5 4t-33 13t-27 24t-16.5 37q-25 -47 -59 -63.5t-76 -16.5q-66 0 -98.5 34.5t-32.5 85.5q0 38 18 65t52 45.5t83 29t110 15.5v137q0 47 -13 68t-44 21
q-25 0 -40.5 -12t-15.5 -35q0 -8 2 -16.5t2 -24.5q0 -25 -14 -44t-47 -19q-24 0 -40 17t-16 44q0 30 18 50.5t45 34t58.5 19.5t59.5 6q99 0 147.5 -32.5t47.5 -115.5zM170 118q0 -32 13.5 -53.5t40.5 -21.5q14 0 30.5 6.5t33.5 30.5v166q-33 -6 -56 -18t-36.5 -29.5
t-19.5 -38t-6 -42.5z" />
    <glyph glyph-name="b" unicode="b" horiz-adv-x="635" 
d="M218 787v-377q21 47 58 73t99 26q49 0 90.5 -19t71.5 -53.5t46.5 -82.5t16.5 -106q0 -54 -17 -102t-47 -83.5t-71 -56t-90 -20.5q-63 0 -99 27t-58 75v-88h-153v787h153zM218 88q22 -20 43.5 -28.5t46.5 -8.5q28 0 52.5 14.5t42 41t27.5 62.5t10 79t-10 79t-28 62
t-43.5 40.5t-55.5 14.5q-20 0 -42 -7t-43 -27v-322z" />
    <glyph glyph-name="c" unicode="c" horiz-adv-x="544" 
d="M434 363q-20 0 -33 6.5t-21.5 17t-14 23.5t-10.5 25q-8 19 -18.5 33t-33.5 14q-24 0 -44.5 -16.5t-35 -45t-22.5 -66t-8 -78.5q0 -100 36 -155.5t108 -55.5q25 0 49.5 5.5t47.5 20t43 39t37 63.5l17 -5q-28 -107 -91.5 -154.5t-146.5 -47.5q-65 0 -113.5 21t-80.5 57
t-48 83t-16 99q0 63 21 111.5t57 82t85.5 50.5t106.5 17q27 0 59.5 -5t61 -16t48 -29t19.5 -43q0 -20 -15 -35.5t-44 -15.5z" />
    <glyph glyph-name="c" unicode="&#x10d;" horiz-adv-x="544" 
d="M434 363q-20 0 -33 6.5t-21.5 17t-14 23.5t-10.5 25q-8 19 -18.5 33t-33.5 14q-24 0 -44.5 -16.5t-35 -45t-22.5 -66t-8 -78.5q0 -100 36 -155.5t108 -55.5q25 0 49.5 5.5t47.5 20t43 39t37 63.5l17 -5q-28 -107 -91.5 -154.5t-146.5 -47.5q-65 0 -113.5 21t-80.5 57
t-48 83t-16 99q0 63 21 111.5t57 82t85.5 50.5t106.5 17q27 0 59.5 -5t61 -16t48 -29t19.5 -43q0 -20 -15 -35.5t-44 -15.5z" />
    <glyph glyph-name="c" unicode="&#x10b;" horiz-adv-x="544" 
d="M434 363q-20 0 -33 6.5t-21.5 17t-14 23.5t-10.5 25q-8 19 -18.5 33t-33.5 14q-24 0 -44.5 -16.5t-35 -45t-22.5 -66t-8 -78.5q0 -100 36 -155.5t108 -55.5q25 0 49.5 5.5t47.5 20t43 39t37 63.5l17 -5q-28 -107 -91.5 -154.5t-146.5 -47.5q-65 0 -113.5 21t-80.5 57
t-48 83t-16 99q0 63 21 111.5t57 82t85.5 50.5t106.5 17q27 0 59.5 -5t61 -16t48 -29t19.5 -43q0 -20 -15 -35.5t-44 -15.5z" />
    <glyph glyph-name="c" unicode="&#x109;" horiz-adv-x="544" 
d="M434 363q-20 0 -33 6.5t-21.5 17t-14 23.5t-10.5 25q-8 19 -18.5 33t-33.5 14q-24 0 -44.5 -16.5t-35 -45t-22.5 -66t-8 -78.5q0 -100 36 -155.5t108 -55.5q25 0 49.5 5.5t47.5 20t43 39t37 63.5l17 -5q-28 -107 -91.5 -154.5t-146.5 -47.5q-65 0 -113.5 21t-80.5 57
t-48 83t-16 99q0 63 21 111.5t57 82t85.5 50.5t106.5 17q27 0 59.5 -5t61 -16t48 -29t19.5 -43q0 -20 -15 -35.5t-44 -15.5z" />
    <glyph glyph-name="c" unicode="&#x107;" horiz-adv-x="544" 
d="M434 363q-20 0 -33 6.5t-21.5 17t-14 23.5t-10.5 25q-8 19 -18.5 33t-33.5 14q-24 0 -44.5 -16.5t-35 -45t-22.5 -66t-8 -78.5q0 -100 36 -155.5t108 -55.5q25 0 49.5 5.5t47.5 20t43 39t37 63.5l17 -5q-28 -107 -91.5 -154.5t-146.5 -47.5q-65 0 -113.5 21t-80.5 57
t-48 83t-16 99q0 63 21 111.5t57 82t85.5 50.5t106.5 17q27 0 59.5 -5t61 -16t48 -29t19.5 -43q0 -20 -15 -35.5t-44 -15.5z" />
    <glyph glyph-name="c" unicode="&#xe7;" horiz-adv-x="544" 
d="M434 363q-20 0 -33 6.5t-21.5 17t-14 23.5t-10.5 25q-8 19 -18.5 33t-33.5 14q-24 0 -44.5 -16.5t-35 -45t-22.5 -66t-8 -78.5q0 -100 36 -155.5t108 -55.5q25 0 49.5 5.5t47.5 20t43 39t37 63.5l17 -5q-28 -107 -91.5 -154.5t-146.5 -47.5q-65 0 -113.5 21t-80.5 57
t-48 83t-16 99q0 63 21 111.5t57 82t85.5 50.5t106.5 17q27 0 59.5 -5t61 -16t48 -29t19.5 -43q0 -20 -15 -35.5t-44 -15.5z" />
    <glyph glyph-name="d" unicode="d" horiz-adv-x="635" 
d="M417 407q-22 20 -43.5 28.5t-46.5 8.5q-29 0 -53 -15t-41.5 -41t-27.5 -62t-10 -79t10 -79t28 -62t43.5 -40.5t55.5 -14.5q20 0 42 7t43 27q-21 -47 -58 -73t-99 -26q-49 0 -90.5 19t-71.5 53.5t-46.5 82.5t-16.5 106q0 54 17 102t47 83.5t71 56t90 20.5q63 0 99 -27
t58 -75zM417 0v787h153v-787h-153z" />
    <glyph glyph-name="d" unicode="&#x111;" horiz-adv-x="635" 
d="M417 407q-22 20 -43.5 28.5t-46.5 8.5q-29 0 -53 -15t-41.5 -41t-27.5 -62t-10 -79t10 -79t28 -62t43.5 -40.5t55.5 -14.5q20 0 42 7t43 27q-21 -47 -58 -73t-99 -26q-49 0 -90.5 19t-71.5 53.5t-46.5 82.5t-16.5 106q0 54 17 102t47 83.5t71 56t90 20.5q63 0 99 -27
t58 -75zM417 0v787h153v-787h-153z" />
    <glyph glyph-name="d" unicode="&#x10f;" horiz-adv-x="635" 
d="M417 407q-22 20 -43.5 28.5t-46.5 8.5q-29 0 -53 -15t-41.5 -41t-27.5 -62t-10 -79t10 -79t28 -62t43.5 -40.5t55.5 -14.5q20 0 42 7t43 27q-21 -47 -58 -73t-99 -26q-49 0 -90.5 19t-71.5 53.5t-46.5 82.5t-16.5 106q0 54 17 102t47 83.5t71 56t90 20.5q63 0 99 -27
t58 -75zM417 0v787h153v-787h-153z" />
    <glyph glyph-name="d" unicode="&#xf0;" horiz-adv-x="635" 
d="M417 407q-22 20 -43.5 28.5t-46.5 8.5q-29 0 -53 -15t-41.5 -41t-27.5 -62t-10 -79t10 -79t28 -62t43.5 -40.5t55.5 -14.5q20 0 42 7t43 27q-21 -47 -58 -73t-99 -26q-49 0 -90.5 19t-71.5 53.5t-46.5 82.5t-16.5 106q0 54 17 102t47 83.5t71 56t90 20.5q63 0 99 -27
t58 -75zM417 0v787h153v-787h-153z" />
    <glyph glyph-name="e" unicode="e" horiz-adv-x="557" 
d="M193 296v-21q0 -97 35 -153.5t112 -56.5q22 0 46.5 6t48 20.5t44.5 39t36 62.5l17 -5q-14 -53 -37 -91t-54 -63t-68.5 -36.5t-79.5 -11.5q-60 0 -107.5 19t-81 53.5t-51.5 83.5t-18 110q0 55 19.5 101.5t54.5 80.5t83 53.5t104 19.5q46 0 86 -14.5t70 -41.5t47.5 -66
t19.5 -89h-326zM297 485q-42 0 -68.5 -44t-33.5 -119h180q0 163 -78 163z" />
    <glyph glyph-name="e" unicode="&#x11b;" horiz-adv-x="557" 
d="M193 296v-21q0 -97 35 -153.5t112 -56.5q22 0 46.5 6t48 20.5t44.5 39t36 62.5l17 -5q-14 -53 -37 -91t-54 -63t-68.5 -36.5t-79.5 -11.5q-60 0 -107.5 19t-81 53.5t-51.5 83.5t-18 110q0 55 19.5 101.5t54.5 80.5t83 53.5t104 19.5q46 0 86 -14.5t70 -41.5t47.5 -66
t19.5 -89h-326zM297 485q-42 0 -68.5 -44t-33.5 -119h180q0 163 -78 163z" />
    <glyph glyph-name="e" unicode="&#x119;" horiz-adv-x="557" 
d="M193 296v-21q0 -97 35 -153.5t112 -56.5q22 0 46.5 6t48 20.5t44.5 39t36 62.5l17 -5q-14 -53 -37 -91t-54 -63t-68.5 -36.5t-79.5 -11.5q-60 0 -107.5 19t-81 53.5t-51.5 83.5t-18 110q0 55 19.5 101.5t54.5 80.5t83 53.5t104 19.5q46 0 86 -14.5t70 -41.5t47.5 -66
t19.5 -89h-326zM297 485q-42 0 -68.5 -44t-33.5 -119h180q0 163 -78 163z" />
    <glyph glyph-name="e" unicode="&#x117;" horiz-adv-x="557" 
d="M193 296v-21q0 -97 35 -153.5t112 -56.5q22 0 46.5 6t48 20.5t44.5 39t36 62.5l17 -5q-14 -53 -37 -91t-54 -63t-68.5 -36.5t-79.5 -11.5q-60 0 -107.5 19t-81 53.5t-51.5 83.5t-18 110q0 55 19.5 101.5t54.5 80.5t83 53.5t104 19.5q46 0 86 -14.5t70 -41.5t47.5 -66
t19.5 -89h-326zM297 485q-42 0 -68.5 -44t-33.5 -119h180q0 163 -78 163z" />
    <glyph glyph-name="e" unicode="&#x115;" horiz-adv-x="557" 
d="M193 296v-21q0 -97 35 -153.5t112 -56.5q22 0 46.5 6t48 20.5t44.5 39t36 62.5l17 -5q-14 -53 -37 -91t-54 -63t-68.5 -36.5t-79.5 -11.5q-60 0 -107.5 19t-81 53.5t-51.5 83.5t-18 110q0 55 19.5 101.5t54.5 80.5t83 53.5t104 19.5q46 0 86 -14.5t70 -41.5t47.5 -66
t19.5 -89h-326zM297 485q-42 0 -68.5 -44t-33.5 -119h180q0 163 -78 163z" />
    <glyph glyph-name="e" unicode="&#x113;" horiz-adv-x="557" 
d="M193 296v-21q0 -97 35 -153.5t112 -56.5q22 0 46.5 6t48 20.5t44.5 39t36 62.5l17 -5q-14 -53 -37 -91t-54 -63t-68.5 -36.5t-79.5 -11.5q-60 0 -107.5 19t-81 53.5t-51.5 83.5t-18 110q0 55 19.5 101.5t54.5 80.5t83 53.5t104 19.5q46 0 86 -14.5t70 -41.5t47.5 -66
t19.5 -89h-326zM297 485q-42 0 -68.5 -44t-33.5 -119h180q0 163 -78 163z" />
    <glyph glyph-name="e" unicode="&#xeb;" horiz-adv-x="557" 
d="M193 296v-21q0 -97 35 -153.5t112 -56.5q22 0 46.5 6t48 20.5t44.5 39t36 62.5l17 -5q-14 -53 -37 -91t-54 -63t-68.5 -36.5t-79.5 -11.5q-60 0 -107.5 19t-81 53.5t-51.5 83.5t-18 110q0 55 19.5 101.5t54.5 80.5t83 53.5t104 19.5q46 0 86 -14.5t70 -41.5t47.5 -66
t19.5 -89h-326zM297 485q-42 0 -68.5 -44t-33.5 -119h180q0 163 -78 163z" />
    <glyph glyph-name="e" unicode="&#xea;" horiz-adv-x="557" 
d="M193 296v-21q0 -97 35 -153.5t112 -56.5q22 0 46.5 6t48 20.5t44.5 39t36 62.5l17 -5q-14 -53 -37 -91t-54 -63t-68.5 -36.5t-79.5 -11.5q-60 0 -107.5 19t-81 53.5t-51.5 83.5t-18 110q0 55 19.5 101.5t54.5 80.5t83 53.5t104 19.5q46 0 86 -14.5t70 -41.5t47.5 -66
t19.5 -89h-326zM297 485q-42 0 -68.5 -44t-33.5 -119h180q0 163 -78 163z" />
    <glyph glyph-name="e" unicode="&#xe9;" horiz-adv-x="557" 
d="M193 296v-21q0 -97 35 -153.5t112 -56.5q22 0 46.5 6t48 20.5t44.5 39t36 62.5l17 -5q-14 -53 -37 -91t-54 -63t-68.5 -36.5t-79.5 -11.5q-60 0 -107.5 19t-81 53.5t-51.5 83.5t-18 110q0 55 19.5 101.5t54.5 80.5t83 53.5t104 19.5q46 0 86 -14.5t70 -41.5t47.5 -66
t19.5 -89h-326zM297 485q-42 0 -68.5 -44t-33.5 -119h180q0 163 -78 163z" />
    <glyph glyph-name="e" unicode="&#xe8;" horiz-adv-x="557" 
d="M193 296v-21q0 -97 35 -153.5t112 -56.5q22 0 46.5 6t48 20.5t44.5 39t36 62.5l17 -5q-14 -53 -37 -91t-54 -63t-68.5 -36.5t-79.5 -11.5q-60 0 -107.5 19t-81 53.5t-51.5 83.5t-18 110q0 55 19.5 101.5t54.5 80.5t83 53.5t104 19.5q46 0 86 -14.5t70 -41.5t47.5 -66
t19.5 -89h-326zM297 485q-42 0 -68.5 -44t-33.5 -119h180q0 163 -78 163z" />
    <glyph glyph-name="f" unicode="f" horiz-adv-x="393" 
d="M12 481h86q0 81 20 141t51.5 99.5t70 59t76.5 19.5q41 0 70 -18t29 -52q0 -21 -14 -37t-42 -16q-22 0 -34 10t-22 22.5t-21 22.5t-30 10q-29 0 -40.5 -25.5t-10 -64.5t14.5 -85t34 -86h157v-28h-156v-453h-153v453h-86v28z" />
    <glyph glyph-name="g" unicode="g" horiz-adv-x="577" 
d="M272 503q31 0 63 -5.5t53 -16.5h204v-28h-150q29 -18 47 -51t18 -71q0 -36 -16 -67t-46 -54.5t-74 -37t-99 -13.5h-18q-8 0 -17 2q-32 -5 -46 -17.5t-14 -30.5t13 -30t51 -12h65q48 0 95 -4t84.5 -18.5t60.5 -42.5t23 -76t-27.5 -84.5t-71 -61t-98.5 -37.5t-109 -13
q-62 0 -111.5 10.5t-84 28t-52.5 41.5t-18 51q0 24 13.5 41.5t36.5 30t53.5 20.5t64.5 11q-118 15 -118 96q0 36 37.5 66t115.5 38q-78 17 -120 61t-42 102q0 36 16 67t46 54.5t73.5 37t98.5 13.5zM119 -136q0 -28 13 -48t33 -32.5t45.5 -18.5t50.5 -6q29 0 58 3.5t52 15.5
t37.5 33.5t14.5 57.5q0 51 -33 73.5t-96 22.5h-105q-38 -15 -54 -38t-16 -63zM357 331q0 23 -4 49.5t-13.5 49.5t-26 38.5t-41.5 15.5q-24 0 -40 -15.5t-25.5 -38.5t-13.5 -49.5t-4 -49.5q0 -22 4 -48.5t13.5 -50t25.5 -39t40 -15.5t40.5 15t26.5 37.5t14 49.5t4 51z" />
    <glyph glyph-name="g" unicode="&#x123;" horiz-adv-x="577" 
d="M272 503q31 0 63 -5.5t53 -16.5h204v-28h-150q29 -18 47 -51t18 -71q0 -36 -16 -67t-46 -54.5t-74 -37t-99 -13.5h-18q-8 0 -17 2q-32 -5 -46 -17.5t-14 -30.5t13 -30t51 -12h65q48 0 95 -4t84.5 -18.5t60.5 -42.5t23 -76t-27.5 -84.5t-71 -61t-98.5 -37.5t-109 -13
q-62 0 -111.5 10.5t-84 28t-52.5 41.5t-18 51q0 24 13.5 41.5t36.5 30t53.5 20.5t64.5 11q-118 15 -118 96q0 36 37.5 66t115.5 38q-78 17 -120 61t-42 102q0 36 16 67t46 54.5t73.5 37t98.5 13.5zM119 -136q0 -28 13 -48t33 -32.5t45.5 -18.5t50.5 -6q29 0 58 3.5t52 15.5
t37.5 33.5t14.5 57.5q0 51 -33 73.5t-96 22.5h-105q-38 -15 -54 -38t-16 -63zM357 331q0 23 -4 49.5t-13.5 49.5t-26 38.5t-41.5 15.5q-24 0 -40 -15.5t-25.5 -38.5t-13.5 -49.5t-4 -49.5q0 -22 4 -48.5t13.5 -50t25.5 -39t40 -15.5t40.5 15t26.5 37.5t14 49.5t4 51z" />
    <glyph glyph-name="g" unicode="&#x121;" horiz-adv-x="577" 
d="M272 503q31 0 63 -5.5t53 -16.5h204v-28h-150q29 -18 47 -51t18 -71q0 -36 -16 -67t-46 -54.5t-74 -37t-99 -13.5h-18q-8 0 -17 2q-32 -5 -46 -17.5t-14 -30.5t13 -30t51 -12h65q48 0 95 -4t84.5 -18.5t60.5 -42.5t23 -76t-27.5 -84.5t-71 -61t-98.5 -37.5t-109 -13
q-62 0 -111.5 10.5t-84 28t-52.5 41.5t-18 51q0 24 13.5 41.5t36.5 30t53.5 20.5t64.5 11q-118 15 -118 96q0 36 37.5 66t115.5 38q-78 17 -120 61t-42 102q0 36 16 67t46 54.5t73.5 37t98.5 13.5zM119 -136q0 -28 13 -48t33 -32.5t45.5 -18.5t50.5 -6q29 0 58 3.5t52 15.5
t37.5 33.5t14.5 57.5q0 51 -33 73.5t-96 22.5h-105q-38 -15 -54 -38t-16 -63zM357 331q0 23 -4 49.5t-13.5 49.5t-26 38.5t-41.5 15.5q-24 0 -40 -15.5t-25.5 -38.5t-13.5 -49.5t-4 -49.5q0 -22 4 -48.5t13.5 -50t25.5 -39t40 -15.5t40.5 15t26.5 37.5t14 49.5t4 51z" />
    <glyph glyph-name="g" unicode="&#x11f;" horiz-adv-x="577" 
d="M272 503q31 0 63 -5.5t53 -16.5h204v-28h-150q29 -18 47 -51t18 -71q0 -36 -16 -67t-46 -54.5t-74 -37t-99 -13.5h-18q-8 0 -17 2q-32 -5 -46 -17.5t-14 -30.5t13 -30t51 -12h65q48 0 95 -4t84.5 -18.5t60.5 -42.5t23 -76t-27.5 -84.5t-71 -61t-98.5 -37.5t-109 -13
q-62 0 -111.5 10.5t-84 28t-52.5 41.5t-18 51q0 24 13.5 41.5t36.5 30t53.5 20.5t64.5 11q-118 15 -118 96q0 36 37.5 66t115.5 38q-78 17 -120 61t-42 102q0 36 16 67t46 54.5t73.5 37t98.5 13.5zM119 -136q0 -28 13 -48t33 -32.5t45.5 -18.5t50.5 -6q29 0 58 3.5t52 15.5
t37.5 33.5t14.5 57.5q0 51 -33 73.5t-96 22.5h-105q-38 -15 -54 -38t-16 -63zM357 331q0 23 -4 49.5t-13.5 49.5t-26 38.5t-41.5 15.5q-24 0 -40 -15.5t-25.5 -38.5t-13.5 -49.5t-4 -49.5q0 -22 4 -48.5t13.5 -50t25.5 -39t40 -15.5t40.5 15t26.5 37.5t14 49.5t4 51z" />
    <glyph glyph-name="g" unicode="&#x11d;" horiz-adv-x="577" 
d="M272 503q31 0 63 -5.5t53 -16.5h204v-28h-150q29 -18 47 -51t18 -71q0 -36 -16 -67t-46 -54.5t-74 -37t-99 -13.5h-18q-8 0 -17 2q-32 -5 -46 -17.5t-14 -30.5t13 -30t51 -12h65q48 0 95 -4t84.5 -18.5t60.5 -42.5t23 -76t-27.5 -84.5t-71 -61t-98.5 -37.5t-109 -13
q-62 0 -111.5 10.5t-84 28t-52.5 41.5t-18 51q0 24 13.5 41.5t36.5 30t53.5 20.5t64.5 11q-118 15 -118 96q0 36 37.5 66t115.5 38q-78 17 -120 61t-42 102q0 36 16 67t46 54.5t73.5 37t98.5 13.5zM119 -136q0 -28 13 -48t33 -32.5t45.5 -18.5t50.5 -6q29 0 58 3.5t52 15.5
t37.5 33.5t14.5 57.5q0 51 -33 73.5t-96 22.5h-105q-38 -15 -54 -38t-16 -63zM357 331q0 23 -4 49.5t-13.5 49.5t-26 38.5t-41.5 15.5q-24 0 -40 -15.5t-25.5 -38.5t-13.5 -49.5t-4 -49.5q0 -22 4 -48.5t13.5 -50t25.5 -39t40 -15.5t40.5 15t26.5 37.5t14 49.5t4 51z" />
    <glyph glyph-name="h" unicode="h" 
d="M218 0h-153v787h153v-787zM218 370q8 39 25.5 65t40.5 42.5t50.5 23.5t56.5 7q46 0 77.5 -15.5t50.5 -41.5t27.5 -59t8.5 -68v-324h-153v321q0 34 -7 57.5t-18.5 37t-26.5 19.5t-32 6q-32 0 -56.5 -17t-43.5 -54z" />
    <glyph glyph-name="h" unicode="&#x127;" 
d="M218 0h-153v787h153v-787zM218 370q8 39 25.5 65t40.5 42.5t50.5 23.5t56.5 7q46 0 77.5 -15.5t50.5 -41.5t27.5 -59t8.5 -68v-324h-153v321q0 34 -7 57.5t-18.5 37t-26.5 19.5t-32 6q-32 0 -56.5 -17t-43.5 -54z" />
    <glyph glyph-name="h" unicode="&#x125;" 
d="M218 0h-153v787h153v-787zM218 370q8 39 25.5 65t40.5 42.5t50.5 23.5t56.5 7q46 0 77.5 -15.5t50.5 -41.5t27.5 -59t8.5 -68v-324h-153v321q0 34 -7 57.5t-18.5 37t-26.5 19.5t-32 6q-32 0 -56.5 -17t-43.5 -54z" />
    <glyph glyph-name="i" unicode="i" horiz-adv-x="283" 
d="M65 481h153v-481h-153v481zM53 701q0 37 26 63t63 26t63 -26t26 -63t-26 -63t-63 -26t-63 26t-26 63z" />
    <glyph glyph-name="i" unicode="&#x1ecb;" horiz-adv-x="283" 
d="M65 481h153v-481h-153v481zM53 701q0 37 26 63t63 26t63 -26t26 -63t-26 -63t-63 -26t-63 26t-26 63z" />
    <glyph glyph-name="i" unicode="&#x131;" horiz-adv-x="283" 
d="M65 481h153v-481h-153v481zM53 701q0 37 26 63t63 26t63 -26t26 -63t-26 -63t-63 -26t-63 26t-26 63z" />
    <glyph glyph-name="i" unicode="&#x12f;" horiz-adv-x="283" 
d="M65 481h153v-481h-153v481zM53 701q0 37 26 63t63 26t63 -26t26 -63t-26 -63t-63 -26t-63 26t-26 63z" />
    <glyph glyph-name="i" unicode="&#x12d;" horiz-adv-x="283" 
d="M65 481h153v-481h-153v481zM53 701q0 37 26 63t63 26t63 -26t26 -63t-26 -63t-63 -26t-63 26t-26 63z" />
    <glyph glyph-name="i" unicode="&#x12b;" horiz-adv-x="283" 
d="M65 481h153v-481h-153v481zM53 701q0 37 26 63t63 26t63 -26t26 -63t-26 -63t-63 -26t-63 26t-26 63z" />
    <glyph glyph-name="i" unicode="&#x129;" horiz-adv-x="283" 
d="M65 481h153v-481h-153v481zM53 701q0 37 26 63t63 26t63 -26t26 -63t-26 -63t-63 -26t-63 26t-26 63z" />
    <glyph glyph-name="i" unicode="&#xef;" horiz-adv-x="283" 
d="M65 481h153v-481h-153v481zM53 701q0 37 26 63t63 26t63 -26t26 -63t-26 -63t-63 -26t-63 26t-26 63z" />
    <glyph glyph-name="i" unicode="&#xee;" horiz-adv-x="283" 
d="M65 481h153v-481h-153v481zM53 701q0 37 26 63t63 26t63 -26t26 -63t-26 -63t-63 -26t-63 26t-26 63z" />
    <glyph glyph-name="i" unicode="&#xed;" horiz-adv-x="283" 
d="M65 481h153v-481h-153v481zM53 701q0 37 26 63t63 26t63 -26t26 -63t-26 -63t-63 -26t-63 26t-26 63z" />
    <glyph glyph-name="i" unicode="&#xec;" horiz-adv-x="283" 
d="M65 481h153v-481h-153v481zM53 701q0 37 26 63t63 26t63 -26t26 -63t-26 -63t-63 -26t-63 26t-26 63z" />
    <glyph glyph-name="j" unicode="j" horiz-adv-x="282" 
d="M53 701q0 37 26 63t63 26t63 -26t26 -63t-26 -63t-63 -26t-63 26t-26 63zM218 481v-395q0 -45 -9 -90.5t-33.5 -91t-69.5 -90.5t-117 -88l-6 8q28 30 44.5 73t25 91t10.5 97t2 91v395h153z" />
    <glyph glyph-name="j" unicode="&#x237;" horiz-adv-x="282" 
d="M53 701q0 37 26 63t63 26t63 -26t26 -63t-26 -63t-63 -26t-63 26t-26 63zM218 481v-395q0 -45 -9 -90.5t-33.5 -91t-69.5 -90.5t-117 -88l-6 8q28 30 44.5 73t25 91t10.5 97t2 91v395h153z" />
    <glyph glyph-name="j" unicode="&#x135;" horiz-adv-x="282" 
d="M53 701q0 37 26 63t63 26t63 -26t26 -63t-26 -63t-63 -26t-63 26t-26 63zM218 481v-395q0 -45 -9 -90.5t-33.5 -91t-69.5 -90.5t-117 -88l-6 8q28 30 44.5 73t25 91t10.5 97t2 91v395h153z" />
    <glyph glyph-name="k" unicode="k" horiz-adv-x="560" 
d="M532 481l-189 -172l233 -309h-186l-172 240v-240h-153v787h153v-541l264 235h50z" />
    <glyph glyph-name="k" unicode="&#x137;" horiz-adv-x="560" 
d="M532 481l-189 -172l233 -309h-186l-172 240v-240h-153v787h153v-541l264 235h50z" />
    <glyph glyph-name="l" unicode="l" horiz-adv-x="283" 
d="M218 787v-787h-153v787h153z" />
    <glyph glyph-name="l" unicode="&#x142;" horiz-adv-x="283" 
d="M218 787v-787h-153v787h153z" />
    <glyph glyph-name="l" unicode="&#x140;" horiz-adv-x="283" 
d="M218 787v-787h-153v787h153z" />
    <glyph glyph-name="l" unicode="&#x13e;" horiz-adv-x="283" 
d="M218 787v-787h-153v787h153z" />
    <glyph glyph-name="l" unicode="&#x13c;" horiz-adv-x="283" 
d="M218 787v-787h-153v787h153z" />
    <glyph glyph-name="l" unicode="&#x13a;" horiz-adv-x="283" 
d="M218 787v-787h-153v787h153z" />
    <glyph glyph-name="m" unicode="m" horiz-adv-x="953" 
d="M218 370q8 39 25.5 65t40.5 42.5t50.5 23.5t56.5 7q46 0 77.5 -15.5t50.5 -41.5t27.5 -59t8.5 -68v-324h-153v321q0 34 -7 57.5t-18.5 37t-26.5 19.5t-32 6q-32 0 -56.5 -17t-43.5 -54zM739 0v321q0 34 -7 57.5t-18.5 37t-26.5 19.5t-32 6q-32 0 -56.5 -17t-43.5 -54
q8 39 25.5 65t40.5 42.5t50.5 23.5t56.5 7q46 0 77.5 -15.5t50.5 -41.5t27.5 -59t8.5 -68v-324h-153zM218 0h-153v481h153v-481z" />
    <glyph glyph-name="n" unicode="n" 
d="M218 370q8 39 25.5 65t40.5 42.5t50.5 23.5t56.5 7q46 0 77.5 -15.5t50.5 -41.5t27.5 -59t8.5 -68v-324h-153v321q0 34 -7 57.5t-18.5 37t-26.5 19.5t-32 6q-32 0 -56.5 -17t-43.5 -54zM218 0h-153v481h153v-481z" />
    <glyph glyph-name="n" unicode="&#x14b;" 
d="M218 370q8 39 25.5 65t40.5 42.5t50.5 23.5t56.5 7q46 0 77.5 -15.5t50.5 -41.5t27.5 -59t8.5 -68v-324h-153v321q0 34 -7 57.5t-18.5 37t-26.5 19.5t-32 6q-32 0 -56.5 -17t-43.5 -54zM218 0h-153v481h153v-481z" />
    <glyph glyph-name="n" unicode="&#x148;" 
d="M218 370q8 39 25.5 65t40.5 42.5t50.5 23.5t56.5 7q46 0 77.5 -15.5t50.5 -41.5t27.5 -59t8.5 -68v-324h-153v321q0 34 -7 57.5t-18.5 37t-26.5 19.5t-32 6q-32 0 -56.5 -17t-43.5 -54zM218 0h-153v481h153v-481z" />
    <glyph glyph-name="n" unicode="&#x146;" 
d="M218 370q8 39 25.5 65t40.5 42.5t50.5 23.5t56.5 7q46 0 77.5 -15.5t50.5 -41.5t27.5 -59t8.5 -68v-324h-153v321q0 34 -7 57.5t-18.5 37t-26.5 19.5t-32 6q-32 0 -56.5 -17t-43.5 -54zM218 0h-153v481h153v-481z" />
    <glyph glyph-name="n" unicode="&#x144;" 
d="M218 370q8 39 25.5 65t40.5 42.5t50.5 23.5t56.5 7q46 0 77.5 -15.5t50.5 -41.5t27.5 -59t8.5 -68v-324h-153v321q0 34 -7 57.5t-18.5 37t-26.5 19.5t-32 6q-32 0 -56.5 -17t-43.5 -54zM218 0h-153v481h153v-481z" />
    <glyph glyph-name="n" unicode="&#xf1;" 
d="M218 370q8 39 25.5 65t40.5 42.5t50.5 23.5t56.5 7q46 0 77.5 -15.5t50.5 -41.5t27.5 -59t8.5 -68v-324h-153v321q0 34 -7 57.5t-18.5 37t-26.5 19.5t-32 6q-32 0 -56.5 -17t-43.5 -54zM218 0h-153v481h153v-481z" />
    <glyph glyph-name="o" unicode="o" 
d="M34 245q0 55 19 102.5t54.5 82.5t86.5 54.5t114 19.5t114 -19.5t86.5 -54.5t54.5 -82.5t19 -102.5q0 -56 -19 -103t-54.5 -82t-86.5 -54.5t-114 -19.5t-114 19.5t-86.5 54t-54.5 82t-19 103.5zM308 7q36 0 58 24t34 59.5t16 77t4 77.5t-4 78t-16 77.5t-34 59t-58 23.5
t-58 -23t-34 -58.5t-16 -77.5t-4 -79q0 -36 4 -78t16 -77.5t34 -59t58 -23.5z" />
    <glyph glyph-name="o" unicode="&#x1ecd;" 
d="M34 245q0 55 19 102.5t54.5 82.5t86.5 54.5t114 19.5t114 -19.5t86.5 -54.5t54.5 -82.5t19 -102.5q0 -56 -19 -103t-54.5 -82t-86.5 -54.5t-114 -19.5t-114 19.5t-86.5 54t-54.5 82t-19 103.5zM308 7q36 0 58 24t34 59.5t16 77t4 77.5t-4 78t-16 77.5t-34 59t-58 23.5
t-58 -23t-34 -58.5t-16 -77.5t-4 -79q0 -36 4 -78t16 -77.5t34 -59t58 -23.5z" />
    <glyph glyph-name="o" unicode="&#x153;" 
d="M34 245q0 55 19 102.5t54.5 82.5t86.5 54.5t114 19.5t114 -19.5t86.5 -54.5t54.5 -82.5t19 -102.5q0 -56 -19 -103t-54.5 -82t-86.5 -54.5t-114 -19.5t-114 19.5t-86.5 54t-54.5 82t-19 103.5zM308 7q36 0 58 24t34 59.5t16 77t4 77.5t-4 78t-16 77.5t-34 59t-58 23.5
t-58 -23t-34 -58.5t-16 -77.5t-4 -79q0 -36 4 -78t16 -77.5t34 -59t58 -23.5z" />
    <glyph glyph-name="o" unicode="&#x151;" 
d="M34 245q0 55 19 102.5t54.5 82.5t86.5 54.5t114 19.5t114 -19.5t86.5 -54.5t54.5 -82.5t19 -102.5q0 -56 -19 -103t-54.5 -82t-86.5 -54.5t-114 -19.5t-114 19.5t-86.5 54t-54.5 82t-19 103.5zM308 7q36 0 58 24t34 59.5t16 77t4 77.5t-4 78t-16 77.5t-34 59t-58 23.5
t-58 -23t-34 -58.5t-16 -77.5t-4 -79q0 -36 4 -78t16 -77.5t34 -59t58 -23.5z" />
    <glyph glyph-name="o" unicode="&#x14f;" 
d="M34 245q0 55 19 102.5t54.5 82.5t86.5 54.5t114 19.5t114 -19.5t86.5 -54.5t54.5 -82.5t19 -102.5q0 -56 -19 -103t-54.5 -82t-86.5 -54.5t-114 -19.5t-114 19.5t-86.5 54t-54.5 82t-19 103.5zM308 7q36 0 58 24t34 59.5t16 77t4 77.5t-4 78t-16 77.5t-34 59t-58 23.5
t-58 -23t-34 -58.5t-16 -77.5t-4 -79q0 -36 4 -78t16 -77.5t34 -59t58 -23.5z" />
    <glyph glyph-name="o" unicode="&#x14d;" 
d="M34 245q0 55 19 102.5t54.5 82.5t86.5 54.5t114 19.5t114 -19.5t86.5 -54.5t54.5 -82.5t19 -102.5q0 -56 -19 -103t-54.5 -82t-86.5 -54.5t-114 -19.5t-114 19.5t-86.5 54t-54.5 82t-19 103.5zM308 7q36 0 58 24t34 59.5t16 77t4 77.5t-4 78t-16 77.5t-34 59t-58 23.5
t-58 -23t-34 -58.5t-16 -77.5t-4 -79q0 -36 4 -78t16 -77.5t34 -59t58 -23.5z" />
    <glyph glyph-name="o" unicode="&#xf8;" 
d="M34 245q0 55 19 102.5t54.5 82.5t86.5 54.5t114 19.5t114 -19.5t86.5 -54.5t54.5 -82.5t19 -102.5q0 -56 -19 -103t-54.5 -82t-86.5 -54.5t-114 -19.5t-114 19.5t-86.5 54t-54.5 82t-19 103.5zM308 7q36 0 58 24t34 59.5t16 77t4 77.5t-4 78t-16 77.5t-34 59t-58 23.5
t-58 -23t-34 -58.5t-16 -77.5t-4 -79q0 -36 4 -78t16 -77.5t34 -59t58 -23.5z" />
    <glyph glyph-name="o" unicode="&#xf6;" 
d="M34 245q0 55 19 102.5t54.5 82.5t86.5 54.5t114 19.5t114 -19.5t86.5 -54.5t54.5 -82.5t19 -102.5q0 -56 -19 -103t-54.5 -82t-86.5 -54.5t-114 -19.5t-114 19.5t-86.5 54t-54.5 82t-19 103.5zM308 7q36 0 58 24t34 59.5t16 77t4 77.5t-4 78t-16 77.5t-34 59t-58 23.5
t-58 -23t-34 -58.5t-16 -77.5t-4 -79q0 -36 4 -78t16 -77.5t34 -59t58 -23.5z" />
    <glyph glyph-name="o" unicode="&#xf5;" 
d="M34 245q0 55 19 102.5t54.5 82.5t86.5 54.5t114 19.5t114 -19.5t86.5 -54.5t54.5 -82.5t19 -102.5q0 -56 -19 -103t-54.5 -82t-86.5 -54.5t-114 -19.5t-114 19.5t-86.5 54t-54.5 82t-19 103.5zM308 7q36 0 58 24t34 59.5t16 77t4 77.5t-4 78t-16 77.5t-34 59t-58 23.5
t-58 -23t-34 -58.5t-16 -77.5t-4 -79q0 -36 4 -78t16 -77.5t34 -59t58 -23.5z" />
    <glyph glyph-name="o" unicode="&#xf4;" 
d="M34 245q0 55 19 102.5t54.5 82.5t86.5 54.5t114 19.5t114 -19.5t86.5 -54.5t54.5 -82.5t19 -102.5q0 -56 -19 -103t-54.5 -82t-86.5 -54.5t-114 -19.5t-114 19.5t-86.5 54t-54.5 82t-19 103.5zM308 7q36 0 58 24t34 59.5t16 77t4 77.5t-4 78t-16 77.5t-34 59t-58 23.5
t-58 -23t-34 -58.5t-16 -77.5t-4 -79q0 -36 4 -78t16 -77.5t34 -59t58 -23.5z" />
    <glyph glyph-name="o" unicode="&#xf3;" 
d="M34 245q0 55 19 102.5t54.5 82.5t86.5 54.5t114 19.5t114 -19.5t86.5 -54.5t54.5 -82.5t19 -102.5q0 -56 -19 -103t-54.5 -82t-86.5 -54.5t-114 -19.5t-114 19.5t-86.5 54t-54.5 82t-19 103.5zM308 7q36 0 58 24t34 59.5t16 77t4 77.5t-4 78t-16 77.5t-34 59t-58 23.5
t-58 -23t-34 -58.5t-16 -77.5t-4 -79q0 -36 4 -78t16 -77.5t34 -59t58 -23.5z" />
    <glyph glyph-name="o" unicode="&#xf2;" 
d="M34 245q0 55 19 102.5t54.5 82.5t86.5 54.5t114 19.5t114 -19.5t86.5 -54.5t54.5 -82.5t19 -102.5q0 -56 -19 -103t-54.5 -82t-86.5 -54.5t-114 -19.5t-114 19.5t-86.5 54t-54.5 82t-19 103.5zM308 7q36 0 58 24t34 59.5t16 77t4 77.5t-4 78t-16 77.5t-34 59t-58 23.5
t-58 -23t-34 -58.5t-16 -77.5t-4 -79q0 -36 4 -78t16 -77.5t34 -59t58 -23.5z" />
    <glyph glyph-name="p" unicode="p" horiz-adv-x="635" 
d="M65 481h153v-71q21 47 58 73t99 26q49 0 90.5 -19t71.5 -53.5t46.5 -82.5t16.5 -106q0 -54 -17 -102t-47 -83.5t-71 -56t-90 -20.5q-63 0 -99 27t-58 75v-350h-153v743zM218 88q22 -20 43.5 -28.5t46.5 -8.5q28 0 52.5 14.5t42 41t27.5 62.5t10 79t-10 79t-28 62
t-43.5 40.5t-55.5 14.5q-20 0 -42 -7t-43 -27v-322z" />
    <glyph glyph-name="p" unicode="&#xfe;" horiz-adv-x="635" 
d="M65 481h153v-71q21 47 58 73t99 26q49 0 90.5 -19t71.5 -53.5t46.5 -82.5t16.5 -106q0 -54 -17 -102t-47 -83.5t-71 -56t-90 -20.5q-63 0 -99 27t-58 75v-350h-153v743zM218 88q22 -20 43.5 -28.5t46.5 -8.5q28 0 52.5 14.5t42 41t27.5 62.5t10 79t-10 79t-28 62
t-43.5 40.5t-55.5 14.5q-20 0 -42 -7t-43 -27v-322z" />
    <glyph glyph-name="q" unicode="q" horiz-adv-x="634" 
d="M417 407q-22 20 -43.5 28.5t-46.5 8.5q-29 0 -53 -15t-41.5 -41t-27.5 -62t-10 -79t10 -79t28 -62t43.5 -40.5t55.5 -14.5q20 0 42 7t43 27q-21 -47 -58 -73t-99 -26q-49 0 -90.5 19t-71.5 53.5t-46.5 82.5t-16.5 106q0 54 17 102t47 83.5t71 56t90 20.5q63 0 99 -27
t58 -75zM417 -262v743h153v-743h-153z" />
    <glyph glyph-name="r" unicode="r" horiz-adv-x="428" 
d="M218 0h-153v481h153v-141q12 36 27.5 66t39 51.5t55 34t74.5 12.5v-130q-21 5 -38.5 7.5t-37.5 2.5q-41 0 -73 -10t-47 -34v-340z" />
    <glyph glyph-name="r" unicode="&#x159;" horiz-adv-x="428" 
d="M218 0h-153v481h153v-141q12 36 27.5 66t39 51.5t55 34t74.5 12.5v-130q-21 5 -38.5 7.5t-37.5 2.5q-41 0 -73 -10t-47 -34v-340z" />
    <glyph glyph-name="r" unicode="&#x157;" horiz-adv-x="428" 
d="M218 0h-153v481h153v-141q12 36 27.5 66t39 51.5t55 34t74.5 12.5v-130q-21 5 -38.5 7.5t-37.5 2.5q-41 0 -73 -10t-47 -34v-340z" />
    <glyph glyph-name="r" unicode="&#x155;" horiz-adv-x="428" 
d="M218 0h-153v481h153v-141q12 36 27.5 66t39 51.5t55 34t74.5 12.5v-130q-21 5 -38.5 7.5t-37.5 2.5q-41 0 -73 -10t-47 -34v-340z" />
    <glyph glyph-name="s" unicode="s" horiz-adv-x="491" 
d="M95 135q23 0 38 -12.5t26 -30t20.5 -36.5t21.5 -32q16 -16 36 -16q19 0 34 7.5t25.5 20t16 28t5.5 32.5q0 29 -17 55.5t-62 38.5l-42 11q-47 12 -76.5 29t-46 37.5t-23 42.5t-6.5 44q0 38 16 66t43.5 46.5t65 27.5t81.5 9q25 0 57 -3.5t60.5 -13.5t48 -26.5t19.5 -41.5
q0 -20 -16 -35.5t-39 -15.5q-24 0 -36.5 10.5t-21 25.5t-15 31.5t-18.5 28.5q-8 8 -19.5 13t-28.5 5q-32 0 -49.5 -21.5t-17.5 -48.5q0 -26 17 -51.5t62 -38.5l42 -12q46 -13 77 -30t50 -38t26.5 -44.5t7.5 -50.5q0 -41 -17.5 -71t-47.5 -49.5t-69 -29.5t-82 -10
q-103 0 -155.5 27t-52.5 65q0 25 16 41t46 16z" />
    <glyph glyph-name="s" unicode="&#x219;" horiz-adv-x="491" 
d="M95 135q23 0 38 -12.5t26 -30t20.5 -36.5t21.5 -32q16 -16 36 -16q19 0 34 7.5t25.5 20t16 28t5.5 32.5q0 29 -17 55.5t-62 38.5l-42 11q-47 12 -76.5 29t-46 37.5t-23 42.5t-6.5 44q0 38 16 66t43.5 46.5t65 27.5t81.5 9q25 0 57 -3.5t60.5 -13.5t48 -26.5t19.5 -41.5
q0 -20 -16 -35.5t-39 -15.5q-24 0 -36.5 10.5t-21 25.5t-15 31.5t-18.5 28.5q-8 8 -19.5 13t-28.5 5q-32 0 -49.5 -21.5t-17.5 -48.5q0 -26 17 -51.5t62 -38.5l42 -12q46 -13 77 -30t50 -38t26.5 -44.5t7.5 -50.5q0 -41 -17.5 -71t-47.5 -49.5t-69 -29.5t-82 -10
q-103 0 -155.5 27t-52.5 65q0 25 16 41t46 16z" />
    <glyph glyph-name="s" unicode="&#x161;" horiz-adv-x="491" 
d="M95 135q23 0 38 -12.5t26 -30t20.5 -36.5t21.5 -32q16 -16 36 -16q19 0 34 7.5t25.5 20t16 28t5.5 32.5q0 29 -17 55.5t-62 38.5l-42 11q-47 12 -76.5 29t-46 37.5t-23 42.5t-6.5 44q0 38 16 66t43.5 46.5t65 27.5t81.5 9q25 0 57 -3.5t60.5 -13.5t48 -26.5t19.5 -41.5
q0 -20 -16 -35.5t-39 -15.5q-24 0 -36.5 10.5t-21 25.5t-15 31.5t-18.5 28.5q-8 8 -19.5 13t-28.5 5q-32 0 -49.5 -21.5t-17.5 -48.5q0 -26 17 -51.5t62 -38.5l42 -12q46 -13 77 -30t50 -38t26.5 -44.5t7.5 -50.5q0 -41 -17.5 -71t-47.5 -49.5t-69 -29.5t-82 -10
q-103 0 -155.5 27t-52.5 65q0 25 16 41t46 16z" />
    <glyph glyph-name="s" unicode="&#x15f;" horiz-adv-x="491" 
d="M95 135q23 0 38 -12.5t26 -30t20.5 -36.5t21.5 -32q16 -16 36 -16q19 0 34 7.5t25.5 20t16 28t5.5 32.5q0 29 -17 55.5t-62 38.5l-42 11q-47 12 -76.5 29t-46 37.5t-23 42.5t-6.5 44q0 38 16 66t43.5 46.5t65 27.5t81.5 9q25 0 57 -3.5t60.5 -13.5t48 -26.5t19.5 -41.5
q0 -20 -16 -35.5t-39 -15.5q-24 0 -36.5 10.5t-21 25.5t-15 31.5t-18.5 28.5q-8 8 -19.5 13t-28.5 5q-32 0 -49.5 -21.5t-17.5 -48.5q0 -26 17 -51.5t62 -38.5l42 -12q46 -13 77 -30t50 -38t26.5 -44.5t7.5 -50.5q0 -41 -17.5 -71t-47.5 -49.5t-69 -29.5t-82 -10
q-103 0 -155.5 27t-52.5 65q0 25 16 41t46 16z" />
    <glyph glyph-name="s" unicode="&#x15d;" horiz-adv-x="491" 
d="M95 135q23 0 38 -12.5t26 -30t20.5 -36.5t21.5 -32q16 -16 36 -16q19 0 34 7.5t25.5 20t16 28t5.5 32.5q0 29 -17 55.5t-62 38.5l-42 11q-47 12 -76.5 29t-46 37.5t-23 42.5t-6.5 44q0 38 16 66t43.5 46.5t65 27.5t81.5 9q25 0 57 -3.5t60.5 -13.5t48 -26.5t19.5 -41.5
q0 -20 -16 -35.5t-39 -15.5q-24 0 -36.5 10.5t-21 25.5t-15 31.5t-18.5 28.5q-8 8 -19.5 13t-28.5 5q-32 0 -49.5 -21.5t-17.5 -48.5q0 -26 17 -51.5t62 -38.5l42 -12q46 -13 77 -30t50 -38t26.5 -44.5t7.5 -50.5q0 -41 -17.5 -71t-47.5 -49.5t-69 -29.5t-82 -10
q-103 0 -155.5 27t-52.5 65q0 25 16 41t46 16z" />
    <glyph glyph-name="s" unicode="&#x15b;" horiz-adv-x="491" 
d="M95 135q23 0 38 -12.5t26 -30t20.5 -36.5t21.5 -32q16 -16 36 -16q19 0 34 7.5t25.5 20t16 28t5.5 32.5q0 29 -17 55.5t-62 38.5l-42 11q-47 12 -76.5 29t-46 37.5t-23 42.5t-6.5 44q0 38 16 66t43.5 46.5t65 27.5t81.5 9q25 0 57 -3.5t60.5 -13.5t48 -26.5t19.5 -41.5
q0 -20 -16 -35.5t-39 -15.5q-24 0 -36.5 10.5t-21 25.5t-15 31.5t-18.5 28.5q-8 8 -19.5 13t-28.5 5q-32 0 -49.5 -21.5t-17.5 -48.5q0 -26 17 -51.5t62 -38.5l42 -12q46 -13 77 -30t50 -38t26.5 -44.5t7.5 -50.5q0 -41 -17.5 -71t-47.5 -49.5t-69 -29.5t-82 -10
q-103 0 -155.5 27t-52.5 65q0 25 16 41t46 16z" />
    <glyph glyph-name="s" unicode="&#xdf;" horiz-adv-x="491" 
d="M95 135q23 0 38 -12.5t26 -30t20.5 -36.5t21.5 -32q16 -16 36 -16q19 0 34 7.5t25.5 20t16 28t5.5 32.5q0 29 -17 55.5t-62 38.5l-42 11q-47 12 -76.5 29t-46 37.5t-23 42.5t-6.5 44q0 38 16 66t43.5 46.5t65 27.5t81.5 9q25 0 57 -3.5t60.5 -13.5t48 -26.5t19.5 -41.5
q0 -20 -16 -35.5t-39 -15.5q-24 0 -36.5 10.5t-21 25.5t-15 31.5t-18.5 28.5q-8 8 -19.5 13t-28.5 5q-32 0 -49.5 -21.5t-17.5 -48.5q0 -26 17 -51.5t62 -38.5l42 -12q46 -13 77 -30t50 -38t26.5 -44.5t7.5 -50.5q0 -41 -17.5 -71t-47.5 -49.5t-69 -29.5t-82 -10
q-103 0 -155.5 27t-52.5 65q0 25 16 41t46 16z" />
    <glyph glyph-name="t" unicode="t" horiz-adv-x="421" 
d="M2 481h86v94l153 107v-201h176v-28h-176v-307q0 -50 18 -72.5t55 -22.5q26 0 46.5 13.5t46.5 51.5l16 -9q-56 -121 -180 -121q-71 0 -113 40t-42 123v304h-86v28z" />
    <glyph glyph-name="t" unicode="&#x21b;" horiz-adv-x="421" 
d="M2 481h86v94l153 107v-201h176v-28h-176v-307q0 -50 18 -72.5t55 -22.5q26 0 46.5 13.5t46.5 51.5l16 -9q-56 -121 -180 -121q-71 0 -113 40t-42 123v304h-86v28z" />
    <glyph glyph-name="t" unicode="&#x167;" horiz-adv-x="421" 
d="M2 481h86v94l153 107v-201h176v-28h-176v-307q0 -50 18 -72.5t55 -22.5q26 0 46.5 13.5t46.5 51.5l16 -9q-56 -121 -180 -121q-71 0 -113 40t-42 123v304h-86v28z" />
    <glyph glyph-name="t" unicode="&#x165;" horiz-adv-x="421" 
d="M2 481h86v94l153 107v-201h176v-28h-176v-307q0 -50 18 -72.5t55 -22.5q26 0 46.5 13.5t46.5 51.5l16 -9q-56 -121 -180 -121q-71 0 -113 40t-42 123v304h-86v28z" />
    <glyph glyph-name="t" unicode="&#x163;" horiz-adv-x="421" 
d="M2 481h86v94l153 107v-201h176v-28h-176v-307q0 -50 18 -72.5t55 -22.5q26 0 46.5 13.5t46.5 51.5l16 -9q-56 -121 -180 -121q-71 0 -113 40t-42 123v304h-86v28z" />
    <glyph glyph-name="u" unicode="u" horiz-adv-x="612" 
d="M394 481h153v-481h-153v481zM394 116q-23 -72 -70 -101t-104 -29q-49 0 -80 17.5t-49 45t-24.5 62t-6.5 68.5v302h153v-328q0 -53 19.5 -77t55.5 -24q43 0 66.5 17t39.5 47z" />
    <glyph glyph-name="u" unicode="&#x1ee5;" horiz-adv-x="612" 
d="M394 481h153v-481h-153v481zM394 116q-23 -72 -70 -101t-104 -29q-49 0 -80 17.5t-49 45t-24.5 62t-6.5 68.5v302h153v-328q0 -53 19.5 -77t55.5 -24q43 0 66.5 17t39.5 47z" />
    <glyph glyph-name="u" unicode="&#x173;" horiz-adv-x="612" 
d="M394 481h153v-481h-153v481zM394 116q-23 -72 -70 -101t-104 -29q-49 0 -80 17.5t-49 45t-24.5 62t-6.5 68.5v302h153v-328q0 -53 19.5 -77t55.5 -24q43 0 66.5 17t39.5 47z" />
    <glyph glyph-name="u" unicode="&#x171;" horiz-adv-x="612" 
d="M394 481h153v-481h-153v481zM394 116q-23 -72 -70 -101t-104 -29q-49 0 -80 17.5t-49 45t-24.5 62t-6.5 68.5v302h153v-328q0 -53 19.5 -77t55.5 -24q43 0 66.5 17t39.5 47z" />
    <glyph glyph-name="u" unicode="&#x16f;" horiz-adv-x="612" 
d="M394 481h153v-481h-153v481zM394 116q-23 -72 -70 -101t-104 -29q-49 0 -80 17.5t-49 45t-24.5 62t-6.5 68.5v302h153v-328q0 -53 19.5 -77t55.5 -24q43 0 66.5 17t39.5 47z" />
    <glyph glyph-name="u" unicode="&#x16d;" horiz-adv-x="612" 
d="M394 481h153v-481h-153v481zM394 116q-23 -72 -70 -101t-104 -29q-49 0 -80 17.5t-49 45t-24.5 62t-6.5 68.5v302h153v-328q0 -53 19.5 -77t55.5 -24q43 0 66.5 17t39.5 47z" />
    <glyph glyph-name="u" unicode="&#x16b;" horiz-adv-x="612" 
d="M394 481h153v-481h-153v481zM394 116q-23 -72 -70 -101t-104 -29q-49 0 -80 17.5t-49 45t-24.5 62t-6.5 68.5v302h153v-328q0 -53 19.5 -77t55.5 -24q43 0 66.5 17t39.5 47z" />
    <glyph glyph-name="u" unicode="&#x169;" horiz-adv-x="612" 
d="M394 481h153v-481h-153v481zM394 116q-23 -72 -70 -101t-104 -29q-49 0 -80 17.5t-49 45t-24.5 62t-6.5 68.5v302h153v-328q0 -53 19.5 -77t55.5 -24q43 0 66.5 17t39.5 47z" />
    <glyph glyph-name="u" unicode="&#xfc;" horiz-adv-x="612" 
d="M394 481h153v-481h-153v481zM394 116q-23 -72 -70 -101t-104 -29q-49 0 -80 17.5t-49 45t-24.5 62t-6.5 68.5v302h153v-328q0 -53 19.5 -77t55.5 -24q43 0 66.5 17t39.5 47z" />
    <glyph glyph-name="u" unicode="&#xfb;" horiz-adv-x="612" 
d="M394 481h153v-481h-153v481zM394 116q-23 -72 -70 -101t-104 -29q-49 0 -80 17.5t-49 45t-24.5 62t-6.5 68.5v302h153v-328q0 -53 19.5 -77t55.5 -24q43 0 66.5 17t39.5 47z" />
    <glyph glyph-name="u" unicode="&#xfa;" horiz-adv-x="612" 
d="M394 481h153v-481h-153v481zM394 116q-23 -72 -70 -101t-104 -29q-49 0 -80 17.5t-49 45t-24.5 62t-6.5 68.5v302h153v-328q0 -53 19.5 -77t55.5 -24q43 0 66.5 17t39.5 47z" />
    <glyph glyph-name="u" unicode="&#xf9;" horiz-adv-x="612" 
d="M394 481h153v-481h-153v481zM394 116q-23 -72 -70 -101t-104 -29q-49 0 -80 17.5t-49 45t-24.5 62t-6.5 68.5v302h153v-328q0 -53 19.5 -77t55.5 -24q43 0 66.5 17t39.5 47z" />
    <glyph glyph-name="v" unicode="v" horiz-adv-x="508" 
d="M503 481l-204 -481h-90l-204 481h164l143 -347l150 347h41z" />
    <glyph glyph-name="w" unicode="w" horiz-adv-x="792" 
d="M785 481l-179 -481h-90l-120 332l-120 -332h-90l-179 481h164l117 -340l126 340h91l114 -340l126 340h40z" />
    <glyph glyph-name="w" unicode="&#x1e85;" horiz-adv-x="792" 
d="M785 481l-179 -481h-90l-120 332l-120 -332h-90l-179 481h164l117 -340l126 340h91l114 -340l126 340h40z" />
    <glyph glyph-name="w" unicode="&#x1e83;" horiz-adv-x="792" 
d="M785 481l-179 -481h-90l-120 332l-120 -332h-90l-179 481h164l117 -340l126 340h91l114 -340l126 340h40z" />
    <glyph glyph-name="w" unicode="&#x1e81;" horiz-adv-x="792" 
d="M785 481l-179 -481h-90l-120 332l-120 -332h-90l-179 481h164l117 -340l126 340h91l114 -340l126 340h40z" />
    <glyph glyph-name="w" unicode="&#x175;" horiz-adv-x="792" 
d="M785 481l-179 -481h-90l-120 332l-120 -332h-90l-179 481h164l117 -340l126 340h91l114 -340l126 340h40z" />
    <glyph glyph-name="x" unicode="x" horiz-adv-x="498" 
d="M288 321l134 160h46l-160 -190l196 -291h-171l-125 185l-155 -185h-48l183 215l-179 266h171z" />
    <glyph glyph-name="y" unicode="y" horiz-adv-x="508" 
d="M188 -262h-40l87 210l-230 533h164l144 -342l150 342h40z" />
    <glyph glyph-name="y" unicode="&#x1ef3;" horiz-adv-x="508" 
d="M188 -262h-40l87 210l-230 533h164l144 -342l150 342h40z" />
    <glyph glyph-name="y" unicode="&#x233;" horiz-adv-x="508" 
d="M188 -262h-40l87 210l-230 533h164l144 -342l150 342h40z" />
    <glyph glyph-name="y" unicode="&#x177;" horiz-adv-x="508" 
d="M188 -262h-40l87 210l-230 533h164l144 -342l150 342h40z" />
    <glyph glyph-name="y" unicode="&#xff;" horiz-adv-x="508" 
d="M188 -262h-40l87 210l-230 533h164l144 -342l150 342h40z" />
    <glyph glyph-name="y" unicode="&#xfd;" horiz-adv-x="508" 
d="M188 -262h-40l87 210l-230 533h164l144 -342l150 342h40z" />
    <glyph glyph-name="z" unicode="z" horiz-adv-x="470" 
d="M449 0h-435v30l277 423h-254v28h411v-30l-277 -423h278v-28z" />
    <glyph glyph-name="z" unicode="&#x17e;" horiz-adv-x="470" 
d="M449 0h-435v30l277 423h-254v28h411v-30l-277 -423h278v-28z" />
    <glyph glyph-name="z" unicode="&#x17c;" horiz-adv-x="470" 
d="M449 0h-435v30l277 423h-254v28h411v-30l-277 -423h278v-28z" />
    <glyph glyph-name="z" unicode="&#x17a;" horiz-adv-x="470" 
d="M449 0h-435v30l277 423h-254v28h411v-30l-277 -423h278v-28z" />
    <glyph glyph-name="uni00A0" unicode="&#xa0;" horiz-adv-x="238" 
 />
    <glyph glyph-name="uni00AD" unicode="&#xad;" horiz-adv-x="418" 
d="M62 279h294v-47h-294v47z" />
    <glyph glyph-name="paragraph" unicode="&#xb6;" horiz-adv-x="511" 
d="M417 -117h-47v859h-77v-859h-47v507q-44 0 -83.5 14t-69 39.5t-47 62t-17.5 82.5q0 34 11 69.5t39.5 64.5t76.5 47t122 18h139v-904z" />
    <glyph glyph-name="periodcentered" unicode="&#xb7;" horiz-adv-x="290" 
d="M51 257q0 19 7.5 36.5t20 30t29.5 20t37 7.5q39 0 66.5 -27.5t27.5 -66.5q0 -20 -7.5 -37t-20 -29.5t-30 -20t-36.5 -7.5q-20 0 -37 7.5t-29.5 20t-20 29.5t-7.5 37z" />
    <glyph glyph-name="quoteright" unicode="&#x2019;" horiz-adv-x="256" 
d="M264 787l-202 -305h-11l47 305h166z" />
    <glyph glyph-name="bullet" unicode="&#x2022;" horiz-adv-x="462" 
d="M68 259q0 33 12.5 62t34.5 51t51 34.5t62 12.5q35 0 65.5 -12.5t53 -34.5t35 -51t12.5 -62q0 -35 -12.5 -65.5t-35 -53t-53 -35t-65.5 -12.5q-33 0 -62 12.5t-51 35t-34.5 53t-12.5 65.5z" />
    <glyph glyph-name="glyph67" horiz-adv-x="125" 
 />
    <glyph glyph-name="glyph68" horiz-adv-x="735" 
d="M749 481v-28h-156v-453h-153v453h-189v-453h-153v453h-86v28h86q1 76 21 132.5t51 93.5t69.5 55t75.5 18q39 0 67.5 -18t28.5 -51q0 -21 -14 -37t-41 -16q-21 0 -33 10t-21.5 22t-20 22t-29.5 10q-29 0 -40 -23.5t-9 -59.5t14.5 -78.5t32.5 -79.5h190q1 81 21 141
t51.5 99.5t69.5 59t76 19.5q41 0 70 -18t29 -52q0 -21 -14 -37t-42 -16q-22 0 -34 10t-22 22.5t-21 22.5t-30 10q-29 0 -40.5 -26t-10 -65t14.5 -84.5t34 -85.5h157z" />
    <glyph glyph-name="glyph74" horiz-adv-x="200" 
d="M-170 0h-68l609 787h70z" />
    <glyph glyph-name="zero.numr" horiz-adv-x="433" 
d="M277 575q0 106 -16 151t-45 45q-27 0 -43.5 -45t-16.5 -151q0 -104 16.5 -148t43.5 -44q29 0 45 44t16 148zM405 575q0 -53 -14.5 -93t-40 -68t-60 -42t-74.5 -14q-86 0 -137 56t-51 162q0 52 14.5 93t40 69t60 43t75.5 15q91 0 139 -58t48 -163z" />
    <glyph glyph-name="zero.dnom" horiz-adv-x="433" 
d="M277 209q0 106 -16 151t-45 45q-27 0 -43.5 -45t-16.5 -151q0 -104 16.5 -148t43.5 -44q29 0 45 44t16 148zM405 209q0 -53 -14.5 -93t-40 -68t-60 -42t-74.5 -14q-86 0 -137 56t-51 162q0 52 14.5 93t40 69t60 43t75.5 15q91 0 139 -58t48 -163z" />
    </font>
</defs>
</svg>
