<?xml version="1.0" standalone="no"?>
<!DOCTYPE svg PUBLIC "-//W3C//DTD SVG 1.1//EN" "http://www.w3.org/Graphics/SVG/1.1/DTD/svg11.dtd" >
<svg xmlns="http://www.w3.org/2000/svg" xmlns:xlink="http://www.w3.org/1999/xlink" version="1.1">
<metadata>
Created by Christoph Koeberlin (http://christoph.koe.berlin)
Copyright (c) 2020 Swiss Typefaces Sarl. All rights reserved.
</metadata>
<defs>
<font id="Font" horiz-adv-x="658" >
  <font-face 
    font-family="Font"
    font-weight="900"
    font-stretch="normal"
    units-per-em="1000"
    panose-1="2 11 10 4 0 0 0 0 0 0"
    ascent="800"
    descent="-200"
    x-height="484"
    cap-height="787"
    bbox="-239 -274 1060 820"
    underline-thickness="50"
    underline-position="-163"
    unicode-range="U+0020-2022"
  />
<missing-glyph horiz-adv-x="680" 
d="M90 758h500v-758h-500v758zM109 728v-698l220 349zM571 30v698l-221 -349zM123 19h434l-217 343zM340 395l217 344h-434z" />
    <glyph glyph-name="f_f.liga" unicode="ff" horiz-adv-x="819" 
d="M835 484v-36h-156v-448h-213v448h-160v-448h-213v448h-89v36h89q0 91 21.5 147t54 87.5t71.5 42.5t75 11q63 0 92 -26t29 -56q0 -34 -23 -55.5t-58 -21.5q-26 0 -39 15.5t-23 33.5t-21.5 33.5t-35.5 15.5q-25 0 -33.5 -20t0 -52t34.5 -72.5t69 -82.5h160q0 101 26.5 163
t65.5 96t83 45.5t80 11.5q63 0 92 -26t29 -56q1 -34 -22.5 -55.5t-58.5 -21.5q-26 0 -42.5 13.5t-30.5 30t-29 30.5t-39 14q-25 0 -35 -18.5t-3.5 -51.5t30.5 -78t67 -97h156z" />
    <glyph glyph-name="f_i.liga" unicode="fi" horiz-adv-x="739" 
d="M4 484h89q0 101 20 163t50.5 96t66.5 45.5t68 11.5q35 0 58.5 -7t37.5 -19t19.5 -26.5t5.5 -29.5q1 -34 -22.5 -55.5t-58.5 -21.5q-26 0 -41 10.5t-26 23.5t-22.5 23.5t-31.5 10.5q-29 0 -39 -21t0.5 -54t42 -73t85.5 -77h106v-36h-106v-448h-213v448h-89v36zM469 484
h213v-484h-213v484zM467 691q0 23 8.5 43.5t23.5 35.5t35 23.5t43 8.5t43 -8.5t35 -23.5t23.5 -35.5t8.5 -43.5q0 -47 -31.5 -78.5t-78.5 -31.5t-78.5 31.5t-31.5 78.5z" />
    <glyph glyph-name="f_f_i.liga" unicode="ffi" horiz-adv-x="1112" 
d="M4 484h89q0 91 21.5 147t54 87.5t71.5 42.5t75 11q63 0 92 -26t29 -56q0 -34 -23 -55.5t-58 -21.5q-26 0 -39 15.5t-23 33.5t-21.5 33.5t-35.5 15.5q-25 0 -33.5 -20t0 -52t34.5 -72.5t69 -82.5h160q0 101 20 163t50.5 96t66.5 45.5t68 11.5q35 0 58.5 -7t37.5 -19
t19.5 -26.5t5.5 -29.5q1 -34 -22.5 -55.5t-58.5 -21.5q-26 0 -41 10.5t-26 23.5t-22.5 23.5t-31.5 10.5q-29 0 -39 -21t0.5 -54t42 -73t85.5 -77h106v-36h-106v-448h-213v448h-160v-448h-213v448h-89v36zM842 484h213v-484h-213v484zM840 691q0 23 8.5 43.5t23.5 35.5
t35 23.5t43 8.5t43 -8.5t35 -23.5t23.5 -35.5t8.5 -43.5q0 -47 -31.5 -78.5t-78.5 -31.5t-78.5 31.5t-31.5 78.5z" />
    <glyph glyph-name="f_l.liga" unicode="fl" horiz-adv-x="745" 
d="M475 787h213v-787h-213v787zM4 484h89q0 101 20 163t50.5 96t66.5 45.5t68 11.5q35 0 58.5 -7t37.5 -19t19.5 -26.5t5.5 -29.5q1 -34 -22.5 -55.5t-58.5 -21.5q-26 0 -41 10.5t-26 23.5t-22.5 23.5t-31.5 10.5q-29 0 -39 -21t0.5 -54t42 -73t85.5 -77h106v-36h-106v-448
h-213v448h-89v36z" />
    <glyph glyph-name="f_f_l.liga" unicode="ffl" horiz-adv-x="1112" 
d="M4 484h89q0 91 21.5 147t54 87.5t71.5 42.5t75 11q63 0 92 -26t29 -56q0 -34 -23 -55.5t-58 -21.5q-26 0 -39 15.5t-23 33.5t-21.5 33.5t-35.5 15.5q-25 0 -33.5 -20t0 -52t34.5 -72.5t69 -82.5h160q0 101 20 163t50.5 96t66.5 45.5t68 11.5q35 0 58.5 -7t37.5 -19
t19.5 -26.5t5.5 -29.5q1 -34 -22.5 -55.5t-58.5 -21.5q-26 0 -41 10.5t-26 23.5t-22.5 23.5t-31.5 10.5q-29 0 -39 -21t0.5 -54t42 -73t85.5 -77h106v-36h-106v-448h-213v448h-160v-448h-213v448h-89v36zM842 787h213v-787h-213v787z" />
    <glyph glyph-name=".notdef" horiz-adv-x="680" 
d="M90 758h500v-758h-500v758zM109 728v-698l220 349zM571 30v698l-221 -349zM123 19h434l-217 343zM340 395l217 344h-434z" />
    <glyph glyph-name="glyph1" horiz-adv-x="0" 
 />
    <glyph glyph-name="glyph2" horiz-adv-x="222" 
 />
    <glyph glyph-name="space" unicode=" " horiz-adv-x="222" 
 />
    <glyph glyph-name="comma" unicode="," horiz-adv-x="311" 
d="M276 184l-230 -375h-11l31 375h210z" />
    <glyph glyph-name="hyphen" unicode="-" horiz-adv-x="374" 
d="M40 279h294v-47h-294v47z" />
    <glyph glyph-name="period" unicode="." horiz-adv-x="294" 
d="M39 93q0 22 8.5 41.5t23.5 34.5t34.5 23.5t41.5 8.5t41.5 -8.5t34.5 -23.5t23.5 -34.5t8.5 -41.5t-8.5 -41.5t-23.5 -34.5t-34.5 -23.5t-41.5 -8.5t-41.5 8.5t-34.5 23.5t-23.5 34.5t-8.5 41.5z" />
    <glyph glyph-name="slash" unicode="/" horiz-adv-x="426" 
d="M24 -33l326 853h53l-326 -853h-53z" />
    <glyph glyph-name="zero" unicode="0" horiz-adv-x="782" 
d="M46 361q0 90 26.5 160.5t73 118.5t110 73.5t137.5 25.5q83 0 147 -25.5t107.5 -74.5t66 -119.5t22.5 -160.5t-26.5 -159.5t-73 -117t-109.5 -72t-136 -24.5q-78 0 -142 25t-109 72.5t-69.5 117.5t-24.5 160zM391 709q-60 0 -89.5 -86t-29.5 -263q0 -344 119 -344t119 344
q0 177 -29.5 263t-89.5 86z" />
    <glyph glyph-name="A" unicode="A" horiz-adv-x="716" 
d="M272 787h171l277 -787h-241l-79 244h-271l-85 -244h-47zM155 319h220l-106 328z" />
    <glyph glyph-name="A" unicode="&#x104;" horiz-adv-x="716" 
d="M272 787h171l277 -787h-241l-79 244h-271l-85 -244h-47zM155 319h220l-106 328z" />
    <glyph glyph-name="A" unicode="&#x102;" horiz-adv-x="716" 
d="M272 787h171l277 -787h-241l-79 244h-271l-85 -244h-47zM155 319h220l-106 328z" />
    <glyph glyph-name="A" unicode="&#x100;" horiz-adv-x="716" 
d="M272 787h171l277 -787h-241l-79 244h-271l-85 -244h-47zM155 319h220l-106 328z" />
    <glyph glyph-name="A" unicode="&#xc6;" horiz-adv-x="716" 
d="M272 787h171l277 -787h-241l-79 244h-271l-85 -244h-47zM155 319h220l-106 328z" />
    <glyph glyph-name="A" unicode="&#xc5;" horiz-adv-x="716" 
d="M272 787h171l277 -787h-241l-79 244h-271l-85 -244h-47zM155 319h220l-106 328z" />
    <glyph glyph-name="A" unicode="&#xc4;" horiz-adv-x="716" 
d="M272 787h171l277 -787h-241l-79 244h-271l-85 -244h-47zM155 319h220l-106 328z" />
    <glyph glyph-name="A" unicode="&#xc3;" horiz-adv-x="716" 
d="M272 787h171l277 -787h-241l-79 244h-271l-85 -244h-47zM155 319h220l-106 328z" />
    <glyph glyph-name="A" unicode="&#xc2;" horiz-adv-x="716" 
d="M272 787h171l277 -787h-241l-79 244h-271l-85 -244h-47zM155 319h220l-106 328z" />
    <glyph glyph-name="A" unicode="&#xc1;" horiz-adv-x="716" 
d="M272 787h171l277 -787h-241l-79 244h-271l-85 -244h-47zM155 319h220l-106 328z" />
    <glyph glyph-name="A" unicode="&#xc0;" horiz-adv-x="716" 
d="M272 787h171l277 -787h-241l-79 244h-271l-85 -244h-47zM155 319h220l-106 328z" />
    <glyph glyph-name="B" unicode="B" horiz-adv-x="775" 
d="M375 787q97 0 160.5 -15.5t100.5 -40t51.5 -56t14.5 -64.5q0 -80 -67 -130.5t-185 -64.5q67 0 121.5 -13t93 -38.5t59 -63.5t20.5 -89q0 -60 -27 -100.5t-72 -65.5t-105 -35.5t-126 -10.5h-336v787h297zM365 46q43 0 72 14t46 37t24 54t7 66q0 34 -7 65t-24 54.5
t-46 37.5t-72 14h-63v-342h63zM302 741v-307h52q36 0 60 13t38.5 34t20 48t5.5 56q0 33 -5.5 61.5t-20 49.5t-38 33t-59.5 12h-53z" />
    <glyph glyph-name="C" unicode="C" horiz-adv-x="805" 
d="M763 41q-42 -18 -78 -29t-69 -17t-63 -7.5t-59 -1.5q-116 0 -201.5 31t-142.5 85.5t-85 129.5t-28 163t28 163t85 129.5t142 85.5t199 31q60 0 125.5 -10.5t145.5 -39.5v-184h-16q-42 95 -108 148t-149 53q-49 0 -88.5 -24t-67.5 -71.5t-43.5 -119t-15.5 -166.5
t15.5 -164.5t44.5 -115t70.5 -67.5t93.5 -22q41 0 79 17.5t71 47t58.5 69t40.5 83.5h16v-197z" />
    <glyph glyph-name="C" unicode="&#x10c;" horiz-adv-x="805" 
d="M763 41q-42 -18 -78 -29t-69 -17t-63 -7.5t-59 -1.5q-116 0 -201.5 31t-142.5 85.5t-85 129.5t-28 163t28 163t85 129.5t142 85.5t199 31q60 0 125.5 -10.5t145.5 -39.5v-184h-16q-42 95 -108 148t-149 53q-49 0 -88.5 -24t-67.5 -71.5t-43.5 -119t-15.5 -166.5
t15.5 -164.5t44.5 -115t70.5 -67.5t93.5 -22q41 0 79 17.5t71 47t58.5 69t40.5 83.5h16v-197z" />
    <glyph glyph-name="C" unicode="&#x10a;" horiz-adv-x="805" 
d="M763 41q-42 -18 -78 -29t-69 -17t-63 -7.5t-59 -1.5q-116 0 -201.5 31t-142.5 85.5t-85 129.5t-28 163t28 163t85 129.5t142 85.5t199 31q60 0 125.5 -10.5t145.5 -39.5v-184h-16q-42 95 -108 148t-149 53q-49 0 -88.5 -24t-67.5 -71.5t-43.5 -119t-15.5 -166.5
t15.5 -164.5t44.5 -115t70.5 -67.5t93.5 -22q41 0 79 17.5t71 47t58.5 69t40.5 83.5h16v-197z" />
    <glyph glyph-name="C" unicode="&#x108;" horiz-adv-x="805" 
d="M763 41q-42 -18 -78 -29t-69 -17t-63 -7.5t-59 -1.5q-116 0 -201.5 31t-142.5 85.5t-85 129.5t-28 163t28 163t85 129.5t142 85.5t199 31q60 0 125.5 -10.5t145.5 -39.5v-184h-16q-42 95 -108 148t-149 53q-49 0 -88.5 -24t-67.5 -71.5t-43.5 -119t-15.5 -166.5
t15.5 -164.5t44.5 -115t70.5 -67.5t93.5 -22q41 0 79 17.5t71 47t58.5 69t40.5 83.5h16v-197z" />
    <glyph glyph-name="C" unicode="&#x106;" horiz-adv-x="805" 
d="M763 41q-42 -18 -78 -29t-69 -17t-63 -7.5t-59 -1.5q-116 0 -201.5 31t-142.5 85.5t-85 129.5t-28 163t28 163t85 129.5t142 85.5t199 31q60 0 125.5 -10.5t145.5 -39.5v-184h-16q-42 95 -108 148t-149 53q-49 0 -88.5 -24t-67.5 -71.5t-43.5 -119t-15.5 -166.5
t15.5 -164.5t44.5 -115t70.5 -67.5t93.5 -22q41 0 79 17.5t71 47t58.5 69t40.5 83.5h16v-197z" />
    <glyph glyph-name="C" unicode="&#xc7;" horiz-adv-x="805" 
d="M763 41q-42 -18 -78 -29t-69 -17t-63 -7.5t-59 -1.5q-116 0 -201.5 31t-142.5 85.5t-85 129.5t-28 163t28 163t85 129.5t142 85.5t199 31q60 0 125.5 -10.5t145.5 -39.5v-184h-16q-42 95 -108 148t-149 53q-49 0 -88.5 -24t-67.5 -71.5t-43.5 -119t-15.5 -166.5
t15.5 -164.5t44.5 -115t70.5 -67.5t93.5 -22q41 0 79 17.5t71 47t58.5 69t40.5 83.5h16v-197z" />
    <glyph glyph-name="D" unicode="D" horiz-adv-x="869" 
d="M302 46h33q125 0 192.5 87t67.5 260t-67.5 260.5t-192.5 87.5h-33v-695zM343 787q119 0 210 -26.5t153 -76.5t94 -122t32 -163q0 -89 -30 -162t-86 -126t-135.5 -82t-178.5 -29h-324v787h265z" />
    <glyph glyph-name="D" unicode="&#x110;" horiz-adv-x="869" 
d="M302 46h33q125 0 192.5 87t67.5 260t-67.5 260.5t-192.5 87.5h-33v-695zM343 787q119 0 210 -26.5t153 -76.5t94 -122t32 -163q0 -89 -30 -162t-86 -126t-135.5 -82t-178.5 -29h-324v787h265z" />
    <glyph glyph-name="D" unicode="&#x10e;" horiz-adv-x="869" 
d="M302 46h33q125 0 192.5 87t67.5 260t-67.5 260.5t-192.5 87.5h-33v-695zM343 787q119 0 210 -26.5t153 -76.5t94 -122t32 -163q0 -89 -30 -162t-86 -126t-135.5 -82t-178.5 -29h-324v787h265z" />
    <glyph glyph-name="D" unicode="&#xd0;" horiz-adv-x="869" 
d="M302 46h33q125 0 192.5 87t67.5 260t-67.5 260.5t-192.5 87.5h-33v-695zM343 787q119 0 210 -26.5t153 -76.5t94 -122t32 -163q0 -89 -30 -162t-86 -126t-135.5 -82t-178.5 -29h-324v787h265z" />
    <glyph glyph-name="E" unicode="E" horiz-adv-x="668" 
d="M78 787h554v-46h-330v-313h285v-46h-285v-336h340v-46h-564v787z" />
    <glyph glyph-name="E" unicode="&#x11a;" horiz-adv-x="668" 
d="M78 787h554v-46h-330v-313h285v-46h-285v-336h340v-46h-564v787z" />
    <glyph glyph-name="E" unicode="&#x118;" horiz-adv-x="668" 
d="M78 787h554v-46h-330v-313h285v-46h-285v-336h340v-46h-564v787z" />
    <glyph glyph-name="E" unicode="&#x116;" horiz-adv-x="668" 
d="M78 787h554v-46h-330v-313h285v-46h-285v-336h340v-46h-564v787z" />
    <glyph glyph-name="E" unicode="&#x114;" horiz-adv-x="668" 
d="M78 787h554v-46h-330v-313h285v-46h-285v-336h340v-46h-564v787z" />
    <glyph glyph-name="E" unicode="&#x112;" horiz-adv-x="668" 
d="M78 787h554v-46h-330v-313h285v-46h-285v-336h340v-46h-564v787z" />
    <glyph glyph-name="E" unicode="&#xcb;" horiz-adv-x="668" 
d="M78 787h554v-46h-330v-313h285v-46h-285v-336h340v-46h-564v787z" />
    <glyph glyph-name="E" unicode="&#xca;" horiz-adv-x="668" 
d="M78 787h554v-46h-330v-313h285v-46h-285v-336h340v-46h-564v787z" />
    <glyph glyph-name="E" unicode="&#xc9;" horiz-adv-x="668" 
d="M78 787h554v-46h-330v-313h285v-46h-285v-336h340v-46h-564v787z" />
    <glyph glyph-name="E" unicode="&#xc8;" horiz-adv-x="668" 
d="M78 787h554v-46h-330v-313h285v-46h-285v-336h340v-46h-564v787z" />
    <glyph glyph-name="F" unicode="F" horiz-adv-x="640" 
d="M78 0v787h544v-46h-320v-313h295v-46h-295v-382h-224z" />
    <glyph glyph-name="G" unicode="G" horiz-adv-x="847" 
d="M36 395q0 88 28 163t85 129.5t142 85.5t199 31q60 0 125.5 -10.5t145.5 -39.5v-184h-16q-42 95 -108 148t-149 53q-49 0 -88.5 -24t-67.5 -71.5t-43.5 -119t-15.5 -166.5q0 -82 14.5 -150t41.5 -116.5t66.5 -75.5t89.5 -27q23 0 48.5 7t58.5 30v307h214v-269
q-49 -46 -132 -78t-207 -32q-118 0 -200 35.5t-133.5 93.5t-74.5 131.5t-23 148.5z" />
    <glyph glyph-name="G" unicode="&#x122;" horiz-adv-x="847" 
d="M36 395q0 88 28 163t85 129.5t142 85.5t199 31q60 0 125.5 -10.5t145.5 -39.5v-184h-16q-42 95 -108 148t-149 53q-49 0 -88.5 -24t-67.5 -71.5t-43.5 -119t-15.5 -166.5q0 -82 14.5 -150t41.5 -116.5t66.5 -75.5t89.5 -27q23 0 48.5 7t58.5 30v307h214v-269
q-49 -46 -132 -78t-207 -32q-118 0 -200 35.5t-133.5 93.5t-74.5 131.5t-23 148.5z" />
    <glyph glyph-name="G" unicode="&#x120;" horiz-adv-x="847" 
d="M36 395q0 88 28 163t85 129.5t142 85.5t199 31q60 0 125.5 -10.5t145.5 -39.5v-184h-16q-42 95 -108 148t-149 53q-49 0 -88.5 -24t-67.5 -71.5t-43.5 -119t-15.5 -166.5q0 -82 14.5 -150t41.5 -116.5t66.5 -75.5t89.5 -27q23 0 48.5 7t58.5 30v307h214v-269
q-49 -46 -132 -78t-207 -32q-118 0 -200 35.5t-133.5 93.5t-74.5 131.5t-23 148.5z" />
    <glyph glyph-name="G" unicode="&#x11e;" horiz-adv-x="847" 
d="M36 395q0 88 28 163t85 129.5t142 85.5t199 31q60 0 125.5 -10.5t145.5 -39.5v-184h-16q-42 95 -108 148t-149 53q-49 0 -88.5 -24t-67.5 -71.5t-43.5 -119t-15.5 -166.5q0 -82 14.5 -150t41.5 -116.5t66.5 -75.5t89.5 -27q23 0 48.5 7t58.5 30v307h214v-269
q-49 -46 -132 -78t-207 -32q-118 0 -200 35.5t-133.5 93.5t-74.5 131.5t-23 148.5z" />
    <glyph glyph-name="G" unicode="&#x11c;" horiz-adv-x="847" 
d="M36 395q0 88 28 163t85 129.5t142 85.5t199 31q60 0 125.5 -10.5t145.5 -39.5v-184h-16q-42 95 -108 148t-149 53q-49 0 -88.5 -24t-67.5 -71.5t-43.5 -119t-15.5 -166.5q0 -82 14.5 -150t41.5 -116.5t66.5 -75.5t89.5 -27q23 0 48.5 7t58.5 30v307h214v-269
q-49 -46 -132 -78t-207 -32q-118 0 -200 35.5t-133.5 93.5t-74.5 131.5t-23 148.5z" />
    <glyph glyph-name="H" unicode="H" horiz-adv-x="870" 
d="M568 381h-266v-381h-224v787h224v-360h266v360h224v-787h-224v381z" />
    <glyph glyph-name="H" unicode="&#x126;" horiz-adv-x="870" 
d="M568 381h-266v-381h-224v787h224v-360h266v360h224v-787h-224v381z" />
    <glyph glyph-name="H" unicode="&#x124;" horiz-adv-x="870" 
d="M568 381h-266v-381h-224v787h224v-360h266v360h224v-787h-224v381z" />
    <glyph glyph-name="I" unicode="I" horiz-adv-x="380" 
d="M302 787v-787h-224v787h224z" />
    <glyph glyph-name="I" unicode="&#x1eca;" horiz-adv-x="380" 
d="M302 787v-787h-224v787h224z" />
    <glyph glyph-name="I" unicode="&#x130;" horiz-adv-x="380" 
d="M302 787v-787h-224v787h224z" />
    <glyph glyph-name="I" unicode="&#x12e;" horiz-adv-x="380" 
d="M302 787v-787h-224v787h224z" />
    <glyph glyph-name="I" unicode="&#x12c;" horiz-adv-x="380" 
d="M302 787v-787h-224v787h224z" />
    <glyph glyph-name="I" unicode="&#x12a;" horiz-adv-x="380" 
d="M302 787v-787h-224v787h224z" />
    <glyph glyph-name="I" unicode="&#x128;" horiz-adv-x="380" 
d="M302 787v-787h-224v787h224z" />
    <glyph glyph-name="I" unicode="&#xcf;" horiz-adv-x="380" 
d="M302 787v-787h-224v787h224z" />
    <glyph glyph-name="I" unicode="&#xce;" horiz-adv-x="380" 
d="M302 787v-787h-224v787h224z" />
    <glyph glyph-name="I" unicode="&#xcd;" horiz-adv-x="380" 
d="M302 787v-787h-224v787h224z" />
    <glyph glyph-name="I" unicode="&#xcc;" horiz-adv-x="380" 
d="M302 787v-787h-224v787h224z" />
    <glyph glyph-name="J" unicode="J" horiz-adv-x="428" 
d="M358 787v-551q0 -140 -88 -232t-259 -135l-9 27q38 19 63.5 46t40.5 62.5t21.5 79.5t6.5 96v607h224z" />
    <glyph glyph-name="J" unicode="&#x134;" horiz-adv-x="428" 
d="M358 787v-551q0 -140 -88 -232t-259 -135l-9 27q38 19 63.5 46t40.5 62.5t21.5 79.5t6.5 96v607h224z" />
    <glyph glyph-name="K" unicode="K" horiz-adv-x="770" 
d="M302 787v-407l387 407h64l-271 -285l310 -502h-267l-223 361v-361h-224v787h224z" />
    <glyph glyph-name="K" unicode="&#x136;" horiz-adv-x="770" 
d="M302 787v-407l387 407h64l-271 -285l310 -502h-267l-223 361v-361h-224v787h224z" />
    <glyph glyph-name="L" unicode="L" horiz-adv-x="656" 
d="M302 787v-741h346v-46h-570v787h224z" />
    <glyph glyph-name="L" unicode="&#x141;" horiz-adv-x="656" 
d="M302 787v-741h346v-46h-570v787h224z" />
    <glyph glyph-name="L" unicode="&#x13f;" horiz-adv-x="656" 
d="M302 787v-741h346v-46h-570v787h224z" />
    <glyph glyph-name="L" unicode="&#x13d;" horiz-adv-x="656" 
d="M302 787v-741h346v-46h-570v787h224z" />
    <glyph glyph-name="L" unicode="&#x13b;" horiz-adv-x="656" 
d="M302 787v-741h346v-46h-570v787h224z" />
    <glyph glyph-name="L" unicode="&#x139;" horiz-adv-x="656" 
d="M302 787v-741h346v-46h-570v787h224z" />
    <glyph glyph-name="M" unicode="M" horiz-adv-x="961" 
d="M904 0h-224l-36 638l-196 -638h-122l-193 656l-37 -656h-39l45 787h211l163 -564l172 564h211z" />
    <glyph glyph-name="N" unicode="N" horiz-adv-x="802" 
d="M724 787v-787h-171l-427 612v-612h-48v787h186l412 -589v589h48z" />
    <glyph glyph-name="N" unicode="&#x14a;" horiz-adv-x="802" 
d="M724 787v-787h-171l-427 612v-612h-48v787h186l412 -589v589h48z" />
    <glyph glyph-name="N" unicode="&#x147;" horiz-adv-x="802" 
d="M724 787v-787h-171l-427 612v-612h-48v787h186l412 -589v589h48z" />
    <glyph glyph-name="N" unicode="&#x145;" horiz-adv-x="802" 
d="M724 787v-787h-171l-427 612v-612h-48v787h186l412 -589v589h48z" />
    <glyph glyph-name="N" unicode="&#x143;" horiz-adv-x="802" 
d="M724 787v-787h-171l-427 612v-612h-48v787h186l412 -589v589h48z" />
    <glyph glyph-name="N" unicode="&#xd1;" horiz-adv-x="802" 
d="M724 787v-787h-171l-427 612v-612h-48v787h186l412 -589v589h48z" />
    <glyph glyph-name="O" unicode="O" horiz-adv-x="904" 
d="M624 395q0 107 -10.5 180t-31.5 117.5t-53.5 64t-76.5 19.5t-76.5 -19.5t-53.5 -64t-31.5 -117.5t-10.5 -180t10.5 -179.5t31.5 -117t53.5 -64t76.5 -19.5t76.5 19.5t53.5 64t31.5 117t10.5 179.5zM866 395q0 -98 -28.5 -174t-82 -128t-130.5 -79.5t-173 -27.5t-173 27.5
t-130.5 79.5t-82 128t-28.5 174q0 97 28.5 173.5t82 129t130.5 80t173 27.5t173 -27.5t130.5 -80t82 -129t28.5 -173.5z" />
    <glyph glyph-name="O" unicode="&#x1ecc;" horiz-adv-x="904" 
d="M624 395q0 107 -10.5 180t-31.5 117.5t-53.5 64t-76.5 19.5t-76.5 -19.5t-53.5 -64t-31.5 -117.5t-10.5 -180t10.5 -179.5t31.5 -117t53.5 -64t76.5 -19.5t76.5 19.5t53.5 64t31.5 117t10.5 179.5zM866 395q0 -98 -28.5 -174t-82 -128t-130.5 -79.5t-173 -27.5t-173 27.5
t-130.5 79.5t-82 128t-28.5 174q0 97 28.5 173.5t82 129t130.5 80t173 27.5t173 -27.5t130.5 -80t82 -129t28.5 -173.5z" />
    <glyph glyph-name="O" unicode="&#x152;" horiz-adv-x="904" 
d="M624 395q0 107 -10.5 180t-31.5 117.5t-53.5 64t-76.5 19.5t-76.5 -19.5t-53.5 -64t-31.5 -117.5t-10.5 -180t10.5 -179.5t31.5 -117t53.5 -64t76.5 -19.5t76.5 19.5t53.5 64t31.5 117t10.5 179.5zM866 395q0 -98 -28.5 -174t-82 -128t-130.5 -79.5t-173 -27.5t-173 27.5
t-130.5 79.5t-82 128t-28.5 174q0 97 28.5 173.5t82 129t130.5 80t173 27.5t173 -27.5t130.5 -80t82 -129t28.5 -173.5z" />
    <glyph glyph-name="O" unicode="&#x150;" horiz-adv-x="904" 
d="M624 395q0 107 -10.5 180t-31.5 117.5t-53.5 64t-76.5 19.5t-76.5 -19.5t-53.5 -64t-31.5 -117.5t-10.5 -180t10.5 -179.5t31.5 -117t53.5 -64t76.5 -19.5t76.5 19.5t53.5 64t31.5 117t10.5 179.5zM866 395q0 -98 -28.5 -174t-82 -128t-130.5 -79.5t-173 -27.5t-173 27.5
t-130.5 79.5t-82 128t-28.5 174q0 97 28.5 173.5t82 129t130.5 80t173 27.5t173 -27.5t130.5 -80t82 -129t28.5 -173.5z" />
    <glyph glyph-name="O" unicode="&#x14e;" horiz-adv-x="904" 
d="M624 395q0 107 -10.5 180t-31.5 117.5t-53.5 64t-76.5 19.5t-76.5 -19.5t-53.5 -64t-31.5 -117.5t-10.5 -180t10.5 -179.5t31.5 -117t53.5 -64t76.5 -19.5t76.5 19.5t53.5 64t31.5 117t10.5 179.5zM866 395q0 -98 -28.5 -174t-82 -128t-130.5 -79.5t-173 -27.5t-173 27.5
t-130.5 79.5t-82 128t-28.5 174q0 97 28.5 173.5t82 129t130.5 80t173 27.5t173 -27.5t130.5 -80t82 -129t28.5 -173.5z" />
    <glyph glyph-name="O" unicode="&#x14c;" horiz-adv-x="904" 
d="M624 395q0 107 -10.5 180t-31.5 117.5t-53.5 64t-76.5 19.5t-76.5 -19.5t-53.5 -64t-31.5 -117.5t-10.5 -180t10.5 -179.5t31.5 -117t53.5 -64t76.5 -19.5t76.5 19.5t53.5 64t31.5 117t10.5 179.5zM866 395q0 -98 -28.5 -174t-82 -128t-130.5 -79.5t-173 -27.5t-173 27.5
t-130.5 79.5t-82 128t-28.5 174q0 97 28.5 173.5t82 129t130.5 80t173 27.5t173 -27.5t130.5 -80t82 -129t28.5 -173.5z" />
    <glyph glyph-name="O" unicode="&#xd8;" horiz-adv-x="904" 
d="M624 395q0 107 -10.5 180t-31.5 117.5t-53.5 64t-76.5 19.5t-76.5 -19.5t-53.5 -64t-31.5 -117.5t-10.5 -180t10.5 -179.5t31.5 -117t53.5 -64t76.5 -19.5t76.5 19.5t53.5 64t31.5 117t10.5 179.5zM866 395q0 -98 -28.5 -174t-82 -128t-130.5 -79.5t-173 -27.5t-173 27.5
t-130.5 79.5t-82 128t-28.5 174q0 97 28.5 173.5t82 129t130.5 80t173 27.5t173 -27.5t130.5 -80t82 -129t28.5 -173.5z" />
    <glyph glyph-name="O" unicode="&#xd6;" horiz-adv-x="904" 
d="M624 395q0 107 -10.5 180t-31.5 117.5t-53.5 64t-76.5 19.5t-76.5 -19.5t-53.5 -64t-31.5 -117.5t-10.5 -180t10.5 -179.5t31.5 -117t53.5 -64t76.5 -19.5t76.5 19.5t53.5 64t31.5 117t10.5 179.5zM866 395q0 -98 -28.5 -174t-82 -128t-130.5 -79.5t-173 -27.5t-173 27.5
t-130.5 79.5t-82 128t-28.5 174q0 97 28.5 173.5t82 129t130.5 80t173 27.5t173 -27.5t130.5 -80t82 -129t28.5 -173.5z" />
    <glyph glyph-name="O" unicode="&#xd5;" horiz-adv-x="904" 
d="M624 395q0 107 -10.5 180t-31.5 117.5t-53.5 64t-76.5 19.5t-76.5 -19.5t-53.5 -64t-31.5 -117.5t-10.5 -180t10.5 -179.5t31.5 -117t53.5 -64t76.5 -19.5t76.5 19.5t53.5 64t31.5 117t10.5 179.5zM866 395q0 -98 -28.5 -174t-82 -128t-130.5 -79.5t-173 -27.5t-173 27.5
t-130.5 79.5t-82 128t-28.5 174q0 97 28.5 173.5t82 129t130.5 80t173 27.5t173 -27.5t130.5 -80t82 -129t28.5 -173.5z" />
    <glyph glyph-name="O" unicode="&#xd4;" horiz-adv-x="904" 
d="M624 395q0 107 -10.5 180t-31.5 117.5t-53.5 64t-76.5 19.5t-76.5 -19.5t-53.5 -64t-31.5 -117.5t-10.5 -180t10.5 -179.5t31.5 -117t53.5 -64t76.5 -19.5t76.5 19.5t53.5 64t31.5 117t10.5 179.5zM866 395q0 -98 -28.5 -174t-82 -128t-130.5 -79.5t-173 -27.5t-173 27.5
t-130.5 79.5t-82 128t-28.5 174q0 97 28.5 173.5t82 129t130.5 80t173 27.5t173 -27.5t130.5 -80t82 -129t28.5 -173.5z" />
    <glyph glyph-name="O" unicode="&#xd3;" horiz-adv-x="904" 
d="M624 395q0 107 -10.5 180t-31.5 117.5t-53.5 64t-76.5 19.5t-76.5 -19.5t-53.5 -64t-31.5 -117.5t-10.5 -180t10.5 -179.5t31.5 -117t53.5 -64t76.5 -19.5t76.5 19.5t53.5 64t31.5 117t10.5 179.5zM866 395q0 -98 -28.5 -174t-82 -128t-130.5 -79.5t-173 -27.5t-173 27.5
t-130.5 79.5t-82 128t-28.5 174q0 97 28.5 173.5t82 129t130.5 80t173 27.5t173 -27.5t130.5 -80t82 -129t28.5 -173.5z" />
    <glyph glyph-name="O" unicode="&#xd2;" horiz-adv-x="904" 
d="M624 395q0 107 -10.5 180t-31.5 117.5t-53.5 64t-76.5 19.5t-76.5 -19.5t-53.5 -64t-31.5 -117.5t-10.5 -180t10.5 -179.5t31.5 -117t53.5 -64t76.5 -19.5t76.5 19.5t53.5 64t31.5 117t10.5 179.5zM866 395q0 -98 -28.5 -174t-82 -128t-130.5 -79.5t-173 -27.5t-173 27.5
t-130.5 79.5t-82 128t-28.5 174q0 97 28.5 173.5t82 129t130.5 80t173 27.5t173 -27.5t130.5 -80t82 -129t28.5 -173.5z" />
    <glyph glyph-name="P" unicode="P" horiz-adv-x="736" 
d="M78 0v787h254q76 0 145.5 -9t123 -33.5t85 -68.5t31.5 -113t-31.5 -113t-85 -68.5t-123 -33.5t-145.5 -9h-30v-339h-224zM302 385h33q33 0 60.5 8.5t47.5 29t31 55t11 85.5t-11 85.5t-31 55t-47.5 29t-60.5 8.5h-33v-356z" />
    <glyph glyph-name="P" unicode="&#xde;" horiz-adv-x="736" 
d="M78 0v787h254q76 0 145.5 -9t123 -33.5t85 -68.5t31.5 -113t-31.5 -113t-85 -68.5t-123 -33.5t-145.5 -9h-30v-339h-224zM302 385h33q33 0 60.5 8.5t47.5 29t31 55t11 85.5t-11 85.5t-31 55t-47.5 29t-60.5 8.5h-33v-356z" />
    <glyph glyph-name="Q" unicode="Q" horiz-adv-x="904" 
d="M749 -176l-153 180q-32 -8 -68.5 -13t-75.5 -5q-96 0 -173 27.5t-130.5 79.5t-82 128t-28.5 174q0 97 28.5 173.5t82 129t130.5 80t173 27.5t173 -27.5t130.5 -80t82 -129t28.5 -173.5q0 -140 -57 -234t-162 -139l140 -165zM624 395q0 107 -10.5 180t-31.5 117.5
t-53.5 64t-76.5 19.5t-76.5 -19.5t-53.5 -64t-31.5 -117.5t-10.5 -180t10.5 -179.5t31.5 -117t53.5 -64t76.5 -19.5q64 0 101 40l-121 144l38 33l112 -133q21 45 31.5 117t10.5 179z" />
    <glyph glyph-name="R" unicode="R" horiz-adv-x="783" 
d="M527 0l-180 348h-45v-348h-224v787h247q77 0 145.5 -8t120 -31t81.5 -65t30 -110q0 -41 -11.5 -71.5t-31.5 -52t-46 -35.5t-54 -23l220 -391h-252zM320 394q34 0 62 7.5t48 27t30.5 53t10.5 85.5t-10.5 86t-30.5 53.5t-48 27t-62 7.5h-18v-347h18z" />
    <glyph glyph-name="R" unicode="&#x158;" horiz-adv-x="783" 
d="M527 0l-180 348h-45v-348h-224v787h247q77 0 145.5 -8t120 -31t81.5 -65t30 -110q0 -41 -11.5 -71.5t-31.5 -52t-46 -35.5t-54 -23l220 -391h-252zM320 394q34 0 62 7.5t48 27t30.5 53t10.5 85.5t-10.5 86t-30.5 53.5t-48 27t-62 7.5h-18v-347h18z" />
    <glyph glyph-name="R" unicode="&#x156;" horiz-adv-x="783" 
d="M527 0l-180 348h-45v-348h-224v787h247q77 0 145.5 -8t120 -31t81.5 -65t30 -110q0 -41 -11.5 -71.5t-31.5 -52t-46 -35.5t-54 -23l220 -391h-252zM320 394q34 0 62 7.5t48 27t30.5 53t10.5 85.5t-10.5 86t-30.5 53.5t-48 27t-62 7.5h-18v-347h18z" />
    <glyph glyph-name="R" unicode="&#x154;" horiz-adv-x="783" 
d="M527 0l-180 348h-45v-348h-224v787h247q77 0 145.5 -8t120 -31t81.5 -65t30 -110q0 -41 -11.5 -71.5t-31.5 -52t-46 -35.5t-54 -23l220 -391h-252zM320 394q34 0 62 7.5t48 27t30.5 53t10.5 85.5t-10.5 86t-30.5 53.5t-48 27t-62 7.5h-18v-347h18z" />
    <glyph glyph-name="S" unicode="S" horiz-adv-x="679" 
d="M303 20q33 0 58 11.5t42.5 30.5t26 43.5t8.5 50.5q0 52 -28.5 82.5t-88.5 50.5l-75 26q-62 21 -99.5 50.5t-58.5 62t-28 67t-7 66.5q0 61 22.5 107t62.5 76t94.5 45t118.5 15q69 0 126 -13.5t114 -42.5v-203h-16q-14 62 -39 105t-54.5 70t-60.5 39t-57 12
q-59 0 -93.5 -35.5t-34.5 -89.5q0 -51 27 -87t77 -55l91 -34q43 -16 81.5 -35.5t67.5 -46t46 -62.5t17 -85q0 -65 -26.5 -112.5t-71.5 -79.5t-105 -47.5t-128 -15.5q-66 0 -130 14t-128 46v216h15q19 -78 48 -126t61 -73.5t64.5 -34t60.5 -8.5z" />
    <glyph glyph-name="S" unicode="&#x218;" horiz-adv-x="679" 
d="M303 20q33 0 58 11.5t42.5 30.5t26 43.5t8.5 50.5q0 52 -28.5 82.5t-88.5 50.5l-75 26q-62 21 -99.5 50.5t-58.5 62t-28 67t-7 66.5q0 61 22.5 107t62.5 76t94.5 45t118.5 15q69 0 126 -13.5t114 -42.5v-203h-16q-14 62 -39 105t-54.5 70t-60.5 39t-57 12
q-59 0 -93.5 -35.5t-34.5 -89.5q0 -51 27 -87t77 -55l91 -34q43 -16 81.5 -35.5t67.5 -46t46 -62.5t17 -85q0 -65 -26.5 -112.5t-71.5 -79.5t-105 -47.5t-128 -15.5q-66 0 -130 14t-128 46v216h15q19 -78 48 -126t61 -73.5t64.5 -34t60.5 -8.5z" />
    <glyph glyph-name="S" unicode="&#x160;" horiz-adv-x="679" 
d="M303 20q33 0 58 11.5t42.5 30.5t26 43.5t8.5 50.5q0 52 -28.5 82.5t-88.5 50.5l-75 26q-62 21 -99.5 50.5t-58.5 62t-28 67t-7 66.5q0 61 22.5 107t62.5 76t94.5 45t118.5 15q69 0 126 -13.5t114 -42.5v-203h-16q-14 62 -39 105t-54.5 70t-60.5 39t-57 12
q-59 0 -93.5 -35.5t-34.5 -89.5q0 -51 27 -87t77 -55l91 -34q43 -16 81.5 -35.5t67.5 -46t46 -62.5t17 -85q0 -65 -26.5 -112.5t-71.5 -79.5t-105 -47.5t-128 -15.5q-66 0 -130 14t-128 46v216h15q19 -78 48 -126t61 -73.5t64.5 -34t60.5 -8.5z" />
    <glyph glyph-name="S" unicode="&#x15e;" horiz-adv-x="679" 
d="M303 20q33 0 58 11.5t42.5 30.5t26 43.5t8.5 50.5q0 52 -28.5 82.5t-88.5 50.5l-75 26q-62 21 -99.5 50.5t-58.5 62t-28 67t-7 66.5q0 61 22.5 107t62.5 76t94.5 45t118.5 15q69 0 126 -13.5t114 -42.5v-203h-16q-14 62 -39 105t-54.5 70t-60.5 39t-57 12
q-59 0 -93.5 -35.5t-34.5 -89.5q0 -51 27 -87t77 -55l91 -34q43 -16 81.5 -35.5t67.5 -46t46 -62.5t17 -85q0 -65 -26.5 -112.5t-71.5 -79.5t-105 -47.5t-128 -15.5q-66 0 -130 14t-128 46v216h15q19 -78 48 -126t61 -73.5t64.5 -34t60.5 -8.5z" />
    <glyph glyph-name="S" unicode="&#x15c;" horiz-adv-x="679" 
d="M303 20q33 0 58 11.5t42.5 30.5t26 43.5t8.5 50.5q0 52 -28.5 82.5t-88.5 50.5l-75 26q-62 21 -99.5 50.5t-58.5 62t-28 67t-7 66.5q0 61 22.5 107t62.5 76t94.5 45t118.5 15q69 0 126 -13.5t114 -42.5v-203h-16q-14 62 -39 105t-54.5 70t-60.5 39t-57 12
q-59 0 -93.5 -35.5t-34.5 -89.5q0 -51 27 -87t77 -55l91 -34q43 -16 81.5 -35.5t67.5 -46t46 -62.5t17 -85q0 -65 -26.5 -112.5t-71.5 -79.5t-105 -47.5t-128 -15.5q-66 0 -130 14t-128 46v216h15q19 -78 48 -126t61 -73.5t64.5 -34t60.5 -8.5z" />
    <glyph glyph-name="S" unicode="&#x15a;" horiz-adv-x="679" 
d="M303 20q33 0 58 11.5t42.5 30.5t26 43.5t8.5 50.5q0 52 -28.5 82.5t-88.5 50.5l-75 26q-62 21 -99.5 50.5t-58.5 62t-28 67t-7 66.5q0 61 22.5 107t62.5 76t94.5 45t118.5 15q69 0 126 -13.5t114 -42.5v-203h-16q-14 62 -39 105t-54.5 70t-60.5 39t-57 12
q-59 0 -93.5 -35.5t-34.5 -89.5q0 -51 27 -87t77 -55l91 -34q43 -16 81.5 -35.5t67.5 -46t46 -62.5t17 -85q0 -65 -26.5 -112.5t-71.5 -79.5t-105 -47.5t-128 -15.5q-66 0 -130 14t-128 46v216h15q19 -78 48 -126t61 -73.5t64.5 -34t60.5 -8.5z" />
    <glyph glyph-name="T" unicode="T" horiz-adv-x="736" 
d="M480 741v-741h-224v741h-251v46h726v-46h-251z" />
    <glyph glyph-name="T" unicode="&#x21a;" horiz-adv-x="736" 
d="M480 741v-741h-224v741h-251v46h726v-46h-251z" />
    <glyph glyph-name="T" unicode="&#x166;" horiz-adv-x="736" 
d="M480 741v-741h-224v741h-251v46h726v-46h-251z" />
    <glyph glyph-name="T" unicode="&#x164;" horiz-adv-x="736" 
d="M480 741v-741h-224v741h-251v46h726v-46h-251z" />
    <glyph glyph-name="T" unicode="&#x162;" horiz-adv-x="736" 
d="M480 741v-741h-224v741h-251v46h726v-46h-251z" />
    <glyph glyph-name="U" unicode="U" horiz-adv-x="788" 
d="M294 787v-489q0 -124 47 -182.5t133 -58.5q101 0 148 65t47 196v470h48v-470q0 -170 -75 -251t-236 -81q-162 0 -249 83.5t-87 238.5v479h224z" />
    <glyph glyph-name="U" unicode="&#x1ee4;" horiz-adv-x="788" 
d="M294 787v-489q0 -124 47 -182.5t133 -58.5q101 0 148 65t47 196v470h48v-470q0 -170 -75 -251t-236 -81q-162 0 -249 83.5t-87 238.5v479h224z" />
    <glyph glyph-name="U" unicode="&#x172;" horiz-adv-x="788" 
d="M294 787v-489q0 -124 47 -182.5t133 -58.5q101 0 148 65t47 196v470h48v-470q0 -170 -75 -251t-236 -81q-162 0 -249 83.5t-87 238.5v479h224z" />
    <glyph glyph-name="U" unicode="&#x170;" horiz-adv-x="788" 
d="M294 787v-489q0 -124 47 -182.5t133 -58.5q101 0 148 65t47 196v470h48v-470q0 -170 -75 -251t-236 -81q-162 0 -249 83.5t-87 238.5v479h224z" />
    <glyph glyph-name="U" unicode="&#x16e;" horiz-adv-x="788" 
d="M294 787v-489q0 -124 47 -182.5t133 -58.5q101 0 148 65t47 196v470h48v-470q0 -170 -75 -251t-236 -81q-162 0 -249 83.5t-87 238.5v479h224z" />
    <glyph glyph-name="U" unicode="&#x16c;" horiz-adv-x="788" 
d="M294 787v-489q0 -124 47 -182.5t133 -58.5q101 0 148 65t47 196v470h48v-470q0 -170 -75 -251t-236 -81q-162 0 -249 83.5t-87 238.5v479h224z" />
    <glyph glyph-name="U" unicode="&#x16a;" horiz-adv-x="788" 
d="M294 787v-489q0 -124 47 -182.5t133 -58.5q101 0 148 65t47 196v470h48v-470q0 -170 -75 -251t-236 -81q-162 0 -249 83.5t-87 238.5v479h224z" />
    <glyph glyph-name="U" unicode="&#x168;" horiz-adv-x="788" 
d="M294 787v-489q0 -124 47 -182.5t133 -58.5q101 0 148 65t47 196v470h48v-470q0 -170 -75 -251t-236 -81q-162 0 -249 83.5t-87 238.5v479h224z" />
    <glyph glyph-name="U" unicode="&#xdc;" horiz-adv-x="788" 
d="M294 787v-489q0 -124 47 -182.5t133 -58.5q101 0 148 65t47 196v470h48v-470q0 -170 -75 -251t-236 -81q-162 0 -249 83.5t-87 238.5v479h224z" />
    <glyph glyph-name="U" unicode="&#xdb;" horiz-adv-x="788" 
d="M294 787v-489q0 -124 47 -182.5t133 -58.5q101 0 148 65t47 196v470h48v-470q0 -170 -75 -251t-236 -81q-162 0 -249 83.5t-87 238.5v479h224z" />
    <glyph glyph-name="U" unicode="&#xda;" horiz-adv-x="788" 
d="M294 787v-489q0 -124 47 -182.5t133 -58.5q101 0 148 65t47 196v470h48v-470q0 -170 -75 -251t-236 -81q-162 0 -249 83.5t-87 238.5v479h224z" />
    <glyph glyph-name="U" unicode="&#xd9;" horiz-adv-x="788" 
d="M294 787v-489q0 -124 47 -182.5t133 -58.5q101 0 148 65t47 196v470h48v-470q0 -170 -75 -251t-236 -81q-162 0 -249 83.5t-87 238.5v479h224z" />
    <glyph glyph-name="V" unicode="V" horiz-adv-x="667" 
d="M238 787l185 -583l199 583h48l-270 -787h-131l-273 787h242z" />
    <glyph glyph-name="W" unicode="W" horiz-adv-x="985" 
d="M985 787l-235 -787h-131l-114 478l-139 -478h-131l-235 787h222l162 -544l137 469h131l118 -481l166 556h49z" />
    <glyph glyph-name="W" unicode="&#x1e84;" horiz-adv-x="985" 
d="M985 787l-235 -787h-131l-114 478l-139 -478h-131l-235 787h222l162 -544l137 469h131l118 -481l166 556h49z" />
    <glyph glyph-name="W" unicode="&#x1e82;" horiz-adv-x="985" 
d="M985 787l-235 -787h-131l-114 478l-139 -478h-131l-235 787h222l162 -544l137 469h131l118 -481l166 556h49z" />
    <glyph glyph-name="W" unicode="&#x1e80;" horiz-adv-x="985" 
d="M985 787l-235 -787h-131l-114 478l-139 -478h-131l-235 787h222l162 -544l137 469h131l118 -481l166 556h49z" />
    <glyph glyph-name="W" unicode="&#x174;" horiz-adv-x="985" 
d="M985 787l-235 -787h-131l-114 478l-139 -478h-131l-235 787h222l162 -544l137 469h131l118 -481l166 556h49z" />
    <glyph glyph-name="X" unicode="X" horiz-adv-x="713" 
d="M421 517l213 270h58l-246 -312l282 -475h-252l-185 310l-244 -310h-59l278 353l-257 434h252z" />
    <glyph glyph-name="Y" unicode="Y" horiz-adv-x="709" 
d="M245 315l-253 472h259l198 -404l206 404h53l-239 -468v-319h-224v315z" />
    <glyph glyph-name="Y" unicode="&#x1ef2;" horiz-adv-x="709" 
d="M245 315l-253 472h259l198 -404l206 404h53l-239 -468v-319h-224v315z" />
    <glyph glyph-name="Y" unicode="&#x232;" horiz-adv-x="709" 
d="M245 315l-253 472h259l198 -404l206 404h53l-239 -468v-319h-224v315z" />
    <glyph glyph-name="Y" unicode="&#x178;" horiz-adv-x="709" 
d="M245 315l-253 472h259l198 -404l206 404h53l-239 -468v-319h-224v315z" />
    <glyph glyph-name="Y" unicode="&#x176;" horiz-adv-x="709" 
d="M245 315l-253 472h259l198 -404l206 404h53l-239 -468v-319h-224v315z" />
    <glyph glyph-name="Y" unicode="&#xdd;" horiz-adv-x="709" 
d="M245 315l-253 472h259l198 -404l206 404h53l-239 -468v-319h-224v315z" />
    <glyph glyph-name="Z" unicode="Z" 
d="M240 46h408v-46h-650v30l413 711h-360v46h597v-30z" />
    <glyph glyph-name="Z" unicode="&#x17d;" 
d="M240 46h408v-46h-650v30l413 711h-360v46h597v-30z" />
    <glyph glyph-name="Z" unicode="&#x17b;" 
d="M240 46h408v-46h-650v30l413 711h-360v46h597v-30z" />
    <glyph glyph-name="Z" unicode="&#x179;" 
d="M240 46h408v-46h-650v30l413 711h-360v46h597v-30z" />
    <glyph glyph-name="a" unicode="a" horiz-adv-x="577" 
d="M488 120q-1 -37 12 -51.5t31 -14.5q14 0 26 6t23 16l8 -7q-20 -42 -63.5 -62.5t-93.5 -20.5q-49 0 -86 17t-52 57q-24 -38 -59.5 -56t-78.5 -18q-62 0 -100 35.5t-38 95.5q0 30 14.5 56.5t47 47t83.5 33t125 14.5v129q0 48 -7 69.5t-24 21.5q-14 0 -20.5 -8.5t-8.5 -22.5
q-1 -8 -1 -17v-19q0 -18 -2.5 -36.5t-12.5 -34t-27.5 -25t-47.5 -9.5q-20 0 -34.5 7.5t-23.5 18.5t-13.5 25t-4.5 27q0 30 18.5 51t48.5 35t68.5 20.5t79.5 6.5q48 0 88 -7.5t68.5 -25t43.5 -45.5t15 -70zM208 140q0 -41 12.5 -60t32.5 -19t34 11v181q-25 -8 -40.5 -20.5
t-24 -27.5t-11.5 -32t-3 -33z" />
    <glyph glyph-name="a" unicode="&#x105;" horiz-adv-x="577" 
d="M488 120q-1 -37 12 -51.5t31 -14.5q14 0 26 6t23 16l8 -7q-20 -42 -63.5 -62.5t-93.5 -20.5q-49 0 -86 17t-52 57q-24 -38 -59.5 -56t-78.5 -18q-62 0 -100 35.5t-38 95.5q0 30 14.5 56.5t47 47t83.5 33t125 14.5v129q0 48 -7 69.5t-24 21.5q-14 0 -20.5 -8.5t-8.5 -22.5
q-1 -8 -1 -17v-19q0 -18 -2.5 -36.5t-12.5 -34t-27.5 -25t-47.5 -9.5q-20 0 -34.5 7.5t-23.5 18.5t-13.5 25t-4.5 27q0 30 18.5 51t48.5 35t68.5 20.5t79.5 6.5q48 0 88 -7.5t68.5 -25t43.5 -45.5t15 -70zM208 140q0 -41 12.5 -60t32.5 -19t34 11v181q-25 -8 -40.5 -20.5
t-24 -27.5t-11.5 -32t-3 -33z" />
    <glyph glyph-name="a" unicode="&#x103;" horiz-adv-x="577" 
d="M488 120q-1 -37 12 -51.5t31 -14.5q14 0 26 6t23 16l8 -7q-20 -42 -63.5 -62.5t-93.5 -20.5q-49 0 -86 17t-52 57q-24 -38 -59.5 -56t-78.5 -18q-62 0 -100 35.5t-38 95.5q0 30 14.5 56.5t47 47t83.5 33t125 14.5v129q0 48 -7 69.5t-24 21.5q-14 0 -20.5 -8.5t-8.5 -22.5
q-1 -8 -1 -17v-19q0 -18 -2.5 -36.5t-12.5 -34t-27.5 -25t-47.5 -9.5q-20 0 -34.5 7.5t-23.5 18.5t-13.5 25t-4.5 27q0 30 18.5 51t48.5 35t68.5 20.5t79.5 6.5q48 0 88 -7.5t68.5 -25t43.5 -45.5t15 -70zM208 140q0 -41 12.5 -60t32.5 -19t34 11v181q-25 -8 -40.5 -20.5
t-24 -27.5t-11.5 -32t-3 -33z" />
    <glyph glyph-name="a" unicode="&#x101;" horiz-adv-x="577" 
d="M488 120q-1 -37 12 -51.5t31 -14.5q14 0 26 6t23 16l8 -7q-20 -42 -63.5 -62.5t-93.5 -20.5q-49 0 -86 17t-52 57q-24 -38 -59.5 -56t-78.5 -18q-62 0 -100 35.5t-38 95.5q0 30 14.5 56.5t47 47t83.5 33t125 14.5v129q0 48 -7 69.5t-24 21.5q-14 0 -20.5 -8.5t-8.5 -22.5
q-1 -8 -1 -17v-19q0 -18 -2.5 -36.5t-12.5 -34t-27.5 -25t-47.5 -9.5q-20 0 -34.5 7.5t-23.5 18.5t-13.5 25t-4.5 27q0 30 18.5 51t48.5 35t68.5 20.5t79.5 6.5q48 0 88 -7.5t68.5 -25t43.5 -45.5t15 -70zM208 140q0 -41 12.5 -60t32.5 -19t34 11v181q-25 -8 -40.5 -20.5
t-24 -27.5t-11.5 -32t-3 -33z" />
    <glyph glyph-name="a" unicode="&#xe6;" horiz-adv-x="577" 
d="M488 120q-1 -37 12 -51.5t31 -14.5q14 0 26 6t23 16l8 -7q-20 -42 -63.5 -62.5t-93.5 -20.5q-49 0 -86 17t-52 57q-24 -38 -59.5 -56t-78.5 -18q-62 0 -100 35.5t-38 95.5q0 30 14.5 56.5t47 47t83.5 33t125 14.5v129q0 48 -7 69.5t-24 21.5q-14 0 -20.5 -8.5t-8.5 -22.5
q-1 -8 -1 -17v-19q0 -18 -2.5 -36.5t-12.5 -34t-27.5 -25t-47.5 -9.5q-20 0 -34.5 7.5t-23.5 18.5t-13.5 25t-4.5 27q0 30 18.5 51t48.5 35t68.5 20.5t79.5 6.5q48 0 88 -7.5t68.5 -25t43.5 -45.5t15 -70zM208 140q0 -41 12.5 -60t32.5 -19t34 11v181q-25 -8 -40.5 -20.5
t-24 -27.5t-11.5 -32t-3 -33z" />
    <glyph glyph-name="a" unicode="&#xe5;" horiz-adv-x="577" 
d="M488 120q-1 -37 12 -51.5t31 -14.5q14 0 26 6t23 16l8 -7q-20 -42 -63.5 -62.5t-93.5 -20.5q-49 0 -86 17t-52 57q-24 -38 -59.5 -56t-78.5 -18q-62 0 -100 35.5t-38 95.5q0 30 14.5 56.5t47 47t83.5 33t125 14.5v129q0 48 -7 69.5t-24 21.5q-14 0 -20.5 -8.5t-8.5 -22.5
q-1 -8 -1 -17v-19q0 -18 -2.5 -36.5t-12.5 -34t-27.5 -25t-47.5 -9.5q-20 0 -34.5 7.5t-23.5 18.5t-13.5 25t-4.5 27q0 30 18.5 51t48.5 35t68.5 20.5t79.5 6.5q48 0 88 -7.5t68.5 -25t43.5 -45.5t15 -70zM208 140q0 -41 12.5 -60t32.5 -19t34 11v181q-25 -8 -40.5 -20.5
t-24 -27.5t-11.5 -32t-3 -33z" />
    <glyph glyph-name="a" unicode="&#xe4;" horiz-adv-x="577" 
d="M488 120q-1 -37 12 -51.5t31 -14.5q14 0 26 6t23 16l8 -7q-20 -42 -63.5 -62.5t-93.5 -20.5q-49 0 -86 17t-52 57q-24 -38 -59.5 -56t-78.5 -18q-62 0 -100 35.5t-38 95.5q0 30 14.5 56.5t47 47t83.5 33t125 14.5v129q0 48 -7 69.5t-24 21.5q-14 0 -20.5 -8.5t-8.5 -22.5
q-1 -8 -1 -17v-19q0 -18 -2.5 -36.5t-12.5 -34t-27.5 -25t-47.5 -9.5q-20 0 -34.5 7.5t-23.5 18.5t-13.5 25t-4.5 27q0 30 18.5 51t48.5 35t68.5 20.5t79.5 6.5q48 0 88 -7.5t68.5 -25t43.5 -45.5t15 -70zM208 140q0 -41 12.5 -60t32.5 -19t34 11v181q-25 -8 -40.5 -20.5
t-24 -27.5t-11.5 -32t-3 -33z" />
    <glyph glyph-name="a" unicode="&#xe3;" horiz-adv-x="577" 
d="M488 120q-1 -37 12 -51.5t31 -14.5q14 0 26 6t23 16l8 -7q-20 -42 -63.5 -62.5t-93.5 -20.5q-49 0 -86 17t-52 57q-24 -38 -59.5 -56t-78.5 -18q-62 0 -100 35.5t-38 95.5q0 30 14.5 56.5t47 47t83.5 33t125 14.5v129q0 48 -7 69.5t-24 21.5q-14 0 -20.5 -8.5t-8.5 -22.5
q-1 -8 -1 -17v-19q0 -18 -2.5 -36.5t-12.5 -34t-27.5 -25t-47.5 -9.5q-20 0 -34.5 7.5t-23.5 18.5t-13.5 25t-4.5 27q0 30 18.5 51t48.5 35t68.5 20.5t79.5 6.5q48 0 88 -7.5t68.5 -25t43.5 -45.5t15 -70zM208 140q0 -41 12.5 -60t32.5 -19t34 11v181q-25 -8 -40.5 -20.5
t-24 -27.5t-11.5 -32t-3 -33z" />
    <glyph glyph-name="a" unicode="&#xe2;" horiz-adv-x="577" 
d="M488 120q-1 -37 12 -51.5t31 -14.5q14 0 26 6t23 16l8 -7q-20 -42 -63.5 -62.5t-93.5 -20.5q-49 0 -86 17t-52 57q-24 -38 -59.5 -56t-78.5 -18q-62 0 -100 35.5t-38 95.5q0 30 14.5 56.5t47 47t83.5 33t125 14.5v129q0 48 -7 69.5t-24 21.5q-14 0 -20.5 -8.5t-8.5 -22.5
q-1 -8 -1 -17v-19q0 -18 -2.5 -36.5t-12.5 -34t-27.5 -25t-47.5 -9.5q-20 0 -34.5 7.5t-23.5 18.5t-13.5 25t-4.5 27q0 30 18.5 51t48.5 35t68.5 20.5t79.5 6.5q48 0 88 -7.5t68.5 -25t43.5 -45.5t15 -70zM208 140q0 -41 12.5 -60t32.5 -19t34 11v181q-25 -8 -40.5 -20.5
t-24 -27.5t-11.5 -32t-3 -33z" />
    <glyph glyph-name="a" unicode="&#xe1;" horiz-adv-x="577" 
d="M488 120q-1 -37 12 -51.5t31 -14.5q14 0 26 6t23 16l8 -7q-20 -42 -63.5 -62.5t-93.5 -20.5q-49 0 -86 17t-52 57q-24 -38 -59.5 -56t-78.5 -18q-62 0 -100 35.5t-38 95.5q0 30 14.5 56.5t47 47t83.5 33t125 14.5v129q0 48 -7 69.5t-24 21.5q-14 0 -20.5 -8.5t-8.5 -22.5
q-1 -8 -1 -17v-19q0 -18 -2.5 -36.5t-12.5 -34t-27.5 -25t-47.5 -9.5q-20 0 -34.5 7.5t-23.5 18.5t-13.5 25t-4.5 27q0 30 18.5 51t48.5 35t68.5 20.5t79.5 6.5q48 0 88 -7.5t68.5 -25t43.5 -45.5t15 -70zM208 140q0 -41 12.5 -60t32.5 -19t34 11v181q-25 -8 -40.5 -20.5
t-24 -27.5t-11.5 -32t-3 -33z" />
    <glyph glyph-name="a" unicode="&#xe0;" horiz-adv-x="577" 
d="M488 120q-1 -37 12 -51.5t31 -14.5q14 0 26 6t23 16l8 -7q-20 -42 -63.5 -62.5t-93.5 -20.5q-49 0 -86 17t-52 57q-24 -38 -59.5 -56t-78.5 -18q-62 0 -100 35.5t-38 95.5q0 30 14.5 56.5t47 47t83.5 33t125 14.5v129q0 48 -7 69.5t-24 21.5q-14 0 -20.5 -8.5t-8.5 -22.5
q-1 -8 -1 -17v-19q0 -18 -2.5 -36.5t-12.5 -34t-27.5 -25t-47.5 -9.5q-20 0 -34.5 7.5t-23.5 18.5t-13.5 25t-4.5 27q0 30 18.5 51t48.5 35t68.5 20.5t79.5 6.5q48 0 88 -7.5t68.5 -25t43.5 -45.5t15 -70zM208 140q0 -41 12.5 -60t32.5 -19t34 11v181q-25 -8 -40.5 -20.5
t-24 -27.5t-11.5 -32t-3 -33z" />
    <glyph glyph-name="b" unicode="b" 
d="M270 787v-370q24 45 60 69t84 24t87 -19t67.5 -54t44 -83.5t15.5 -106.5q0 -57 -15.5 -105t-43.5 -82.5t-66 -54t-84 -19.5t-86.5 25.5t-62.5 64.5v-76h-213v787h213zM270 76q8 -5 18 -7.5t21 -2.5q22 0 40.5 13.5t31.5 37.5t20 57.5t7 72.5q0 82 -26 131.5t-73 49.5
q-10 0 -21 -3t-18 -8v-341z" />
    <glyph glyph-name="c" unicode="c" horiz-adv-x="544" 
d="M432 312q-25 0 -43 8t-29.5 20.5t-17.5 29t-7 33.5q-2 15 -1.5 29.5t-1 26t-7 18t-18.5 6.5q-11 0 -21.5 -13t-19 -36t-13.5 -56t-5 -73q0 -51 7 -93t23 -72t41 -46.5t60 -16.5q51 0 83.5 31t48.5 84l24 -6q-27 -102 -86.5 -151t-164.5 -49q-62 0 -109.5 20t-79.5 55
t-49 83t-17 104q0 57 18 104.5t53.5 82t88 53.5t121.5 19q40 0 76 -8t63 -23.5t43 -37.5t16 -49q0 -12 -4.5 -25.5t-13.5 -25t-23.5 -19t-34.5 -7.5z" />
    <glyph glyph-name="c" unicode="&#x10d;" horiz-adv-x="544" 
d="M432 312q-25 0 -43 8t-29.5 20.5t-17.5 29t-7 33.5q-2 15 -1.5 29.5t-1 26t-7 18t-18.5 6.5q-11 0 -21.5 -13t-19 -36t-13.5 -56t-5 -73q0 -51 7 -93t23 -72t41 -46.5t60 -16.5q51 0 83.5 31t48.5 84l24 -6q-27 -102 -86.5 -151t-164.5 -49q-62 0 -109.5 20t-79.5 55
t-49 83t-17 104q0 57 18 104.5t53.5 82t88 53.5t121.5 19q40 0 76 -8t63 -23.5t43 -37.5t16 -49q0 -12 -4.5 -25.5t-13.5 -25t-23.5 -19t-34.5 -7.5z" />
    <glyph glyph-name="c" unicode="&#x10b;" horiz-adv-x="544" 
d="M432 312q-25 0 -43 8t-29.5 20.5t-17.5 29t-7 33.5q-2 15 -1.5 29.5t-1 26t-7 18t-18.5 6.5q-11 0 -21.5 -13t-19 -36t-13.5 -56t-5 -73q0 -51 7 -93t23 -72t41 -46.5t60 -16.5q51 0 83.5 31t48.5 84l24 -6q-27 -102 -86.5 -151t-164.5 -49q-62 0 -109.5 20t-79.5 55
t-49 83t-17 104q0 57 18 104.5t53.5 82t88 53.5t121.5 19q40 0 76 -8t63 -23.5t43 -37.5t16 -49q0 -12 -4.5 -25.5t-13.5 -25t-23.5 -19t-34.5 -7.5z" />
    <glyph glyph-name="c" unicode="&#x109;" horiz-adv-x="544" 
d="M432 312q-25 0 -43 8t-29.5 20.5t-17.5 29t-7 33.5q-2 15 -1.5 29.5t-1 26t-7 18t-18.5 6.5q-11 0 -21.5 -13t-19 -36t-13.5 -56t-5 -73q0 -51 7 -93t23 -72t41 -46.5t60 -16.5q51 0 83.5 31t48.5 84l24 -6q-27 -102 -86.5 -151t-164.5 -49q-62 0 -109.5 20t-79.5 55
t-49 83t-17 104q0 57 18 104.5t53.5 82t88 53.5t121.5 19q40 0 76 -8t63 -23.5t43 -37.5t16 -49q0 -12 -4.5 -25.5t-13.5 -25t-23.5 -19t-34.5 -7.5z" />
    <glyph glyph-name="c" unicode="&#x107;" horiz-adv-x="544" 
d="M432 312q-25 0 -43 8t-29.5 20.5t-17.5 29t-7 33.5q-2 15 -1.5 29.5t-1 26t-7 18t-18.5 6.5q-11 0 -21.5 -13t-19 -36t-13.5 -56t-5 -73q0 -51 7 -93t23 -72t41 -46.5t60 -16.5q51 0 83.5 31t48.5 84l24 -6q-27 -102 -86.5 -151t-164.5 -49q-62 0 -109.5 20t-79.5 55
t-49 83t-17 104q0 57 18 104.5t53.5 82t88 53.5t121.5 19q40 0 76 -8t63 -23.5t43 -37.5t16 -49q0 -12 -4.5 -25.5t-13.5 -25t-23.5 -19t-34.5 -7.5z" />
    <glyph glyph-name="c" unicode="&#xe7;" horiz-adv-x="544" 
d="M432 312q-25 0 -43 8t-29.5 20.5t-17.5 29t-7 33.5q-2 15 -1.5 29.5t-1 26t-7 18t-18.5 6.5q-11 0 -21.5 -13t-19 -36t-13.5 -56t-5 -73q0 -51 7 -93t23 -72t41 -46.5t60 -16.5q51 0 83.5 31t48.5 84l24 -6q-27 -102 -86.5 -151t-164.5 -49q-62 0 -109.5 20t-79.5 55
t-49 83t-17 104q0 57 18 104.5t53.5 82t88 53.5t121.5 19q40 0 76 -8t63 -23.5t43 -37.5t16 -49q0 -12 -4.5 -25.5t-13.5 -25t-23.5 -19t-34.5 -7.5z" />
    <glyph glyph-name="d" unicode="d" 
d="M388 420q-8 5 -18 7.5t-21 2.5q-23 0 -41 -13.5t-31 -37.5t-20 -57.5t-7 -72.5q0 -82 26 -131.5t73 -49.5q10 0 21 3t18 8q-24 -45 -60 -69t-84 -24t-87 19t-67.5 54t-44 83t-15.5 107q0 57 15.5 105t43 82.5t66 54t84.5 19.5t86.5 -25.5t62.5 -64.5zM388 0v787h213v-787
h-213z" />
    <glyph glyph-name="d" unicode="&#x111;" 
d="M388 420q-8 5 -18 7.5t-21 2.5q-23 0 -41 -13.5t-31 -37.5t-20 -57.5t-7 -72.5q0 -82 26 -131.5t73 -49.5q10 0 21 3t18 8q-24 -45 -60 -69t-84 -24t-87 19t-67.5 54t-44 83t-15.5 107q0 57 15.5 105t43 82.5t66 54t84.5 19.5t86.5 -25.5t62.5 -64.5zM388 0v787h213v-787
h-213z" />
    <glyph glyph-name="d" unicode="&#x10f;" 
d="M388 420q-8 5 -18 7.5t-21 2.5q-23 0 -41 -13.5t-31 -37.5t-20 -57.5t-7 -72.5q0 -82 26 -131.5t73 -49.5q10 0 21 3t18 8q-24 -45 -60 -69t-84 -24t-87 19t-67.5 54t-44 83t-15.5 107q0 57 15.5 105t43 82.5t66 54t84.5 19.5t86.5 -25.5t62.5 -64.5zM388 0v787h213v-787
h-213z" />
    <glyph glyph-name="d" unicode="&#xf0;" 
d="M388 420q-8 5 -18 7.5t-21 2.5q-23 0 -41 -13.5t-31 -37.5t-20 -57.5t-7 -72.5q0 -82 26 -131.5t73 -49.5q10 0 21 3t18 8q-24 -45 -60 -69t-84 -24t-87 19t-67.5 54t-44 83t-15.5 107q0 57 15.5 105t43 82.5t66 54t84.5 19.5t86.5 -25.5t62.5 -64.5zM388 0v787h213v-787
h-213z" />
    <glyph glyph-name="e" unicode="e" horiz-adv-x="563" 
d="M248 296v-14q0 -59 11.5 -98.5t31 -63t45 -33.5t52.5 -10q51 0 83.5 31t48.5 84l24 -6q-27 -103 -86 -151.5t-163 -48.5q-63 0 -112.5 20t-83.5 55t-52 84t-18 107q0 55 18.5 102t53.5 81t85.5 53t113.5 19q52 0 93 -16.5t70 -45.5t46 -67.5t22 -81.5h-283zM301 484
q-20 0 -34.5 -38t-17.5 -119h89q0 30 -1 58.5t-4.5 50t-11 35t-20.5 13.5z" />
    <glyph glyph-name="e" unicode="&#x11b;" horiz-adv-x="563" 
d="M248 296v-14q0 -59 11.5 -98.5t31 -63t45 -33.5t52.5 -10q51 0 83.5 31t48.5 84l24 -6q-27 -103 -86 -151.5t-163 -48.5q-63 0 -112.5 20t-83.5 55t-52 84t-18 107q0 55 18.5 102t53.5 81t85.5 53t113.5 19q52 0 93 -16.5t70 -45.5t46 -67.5t22 -81.5h-283zM301 484
q-20 0 -34.5 -38t-17.5 -119h89q0 30 -1 58.5t-4.5 50t-11 35t-20.5 13.5z" />
    <glyph glyph-name="e" unicode="&#x119;" horiz-adv-x="563" 
d="M248 296v-14q0 -59 11.5 -98.5t31 -63t45 -33.5t52.5 -10q51 0 83.5 31t48.5 84l24 -6q-27 -103 -86 -151.5t-163 -48.5q-63 0 -112.5 20t-83.5 55t-52 84t-18 107q0 55 18.5 102t53.5 81t85.5 53t113.5 19q52 0 93 -16.5t70 -45.5t46 -67.5t22 -81.5h-283zM301 484
q-20 0 -34.5 -38t-17.5 -119h89q0 30 -1 58.5t-4.5 50t-11 35t-20.5 13.5z" />
    <glyph glyph-name="e" unicode="&#x117;" horiz-adv-x="563" 
d="M248 296v-14q0 -59 11.5 -98.5t31 -63t45 -33.5t52.5 -10q51 0 83.5 31t48.5 84l24 -6q-27 -103 -86 -151.5t-163 -48.5q-63 0 -112.5 20t-83.5 55t-52 84t-18 107q0 55 18.5 102t53.5 81t85.5 53t113.5 19q52 0 93 -16.5t70 -45.5t46 -67.5t22 -81.5h-283zM301 484
q-20 0 -34.5 -38t-17.5 -119h89q0 30 -1 58.5t-4.5 50t-11 35t-20.5 13.5z" />
    <glyph glyph-name="e" unicode="&#x115;" horiz-adv-x="563" 
d="M248 296v-14q0 -59 11.5 -98.5t31 -63t45 -33.5t52.5 -10q51 0 83.5 31t48.5 84l24 -6q-27 -103 -86 -151.5t-163 -48.5q-63 0 -112.5 20t-83.5 55t-52 84t-18 107q0 55 18.5 102t53.5 81t85.5 53t113.5 19q52 0 93 -16.5t70 -45.5t46 -67.5t22 -81.5h-283zM301 484
q-20 0 -34.5 -38t-17.5 -119h89q0 30 -1 58.5t-4.5 50t-11 35t-20.5 13.5z" />
    <glyph glyph-name="e" unicode="&#x113;" horiz-adv-x="563" 
d="M248 296v-14q0 -59 11.5 -98.5t31 -63t45 -33.5t52.5 -10q51 0 83.5 31t48.5 84l24 -6q-27 -103 -86 -151.5t-163 -48.5q-63 0 -112.5 20t-83.5 55t-52 84t-18 107q0 55 18.5 102t53.5 81t85.5 53t113.5 19q52 0 93 -16.5t70 -45.5t46 -67.5t22 -81.5h-283zM301 484
q-20 0 -34.5 -38t-17.5 -119h89q0 30 -1 58.5t-4.5 50t-11 35t-20.5 13.5z" />
    <glyph glyph-name="e" unicode="&#xeb;" horiz-adv-x="563" 
d="M248 296v-14q0 -59 11.5 -98.5t31 -63t45 -33.5t52.5 -10q51 0 83.5 31t48.5 84l24 -6q-27 -103 -86 -151.5t-163 -48.5q-63 0 -112.5 20t-83.5 55t-52 84t-18 107q0 55 18.5 102t53.5 81t85.5 53t113.5 19q52 0 93 -16.5t70 -45.5t46 -67.5t22 -81.5h-283zM301 484
q-20 0 -34.5 -38t-17.5 -119h89q0 30 -1 58.5t-4.5 50t-11 35t-20.5 13.5z" />
    <glyph glyph-name="e" unicode="&#xea;" horiz-adv-x="563" 
d="M248 296v-14q0 -59 11.5 -98.5t31 -63t45 -33.5t52.5 -10q51 0 83.5 31t48.5 84l24 -6q-27 -103 -86 -151.5t-163 -48.5q-63 0 -112.5 20t-83.5 55t-52 84t-18 107q0 55 18.5 102t53.5 81t85.5 53t113.5 19q52 0 93 -16.5t70 -45.5t46 -67.5t22 -81.5h-283zM301 484
q-20 0 -34.5 -38t-17.5 -119h89q0 30 -1 58.5t-4.5 50t-11 35t-20.5 13.5z" />
    <glyph glyph-name="e" unicode="&#xe9;" horiz-adv-x="563" 
d="M248 296v-14q0 -59 11.5 -98.5t31 -63t45 -33.5t52.5 -10q51 0 83.5 31t48.5 84l24 -6q-27 -103 -86 -151.5t-163 -48.5q-63 0 -112.5 20t-83.5 55t-52 84t-18 107q0 55 18.5 102t53.5 81t85.5 53t113.5 19q52 0 93 -16.5t70 -45.5t46 -67.5t22 -81.5h-283zM301 484
q-20 0 -34.5 -38t-17.5 -119h89q0 30 -1 58.5t-4.5 50t-11 35t-20.5 13.5z" />
    <glyph glyph-name="e" unicode="&#xe8;" horiz-adv-x="563" 
d="M248 296v-14q0 -59 11.5 -98.5t31 -63t45 -33.5t52.5 -10q51 0 83.5 31t48.5 84l24 -6q-27 -103 -86 -151.5t-163 -48.5q-63 0 -112.5 20t-83.5 55t-52 84t-18 107q0 55 18.5 102t53.5 81t85.5 53t113.5 19q52 0 93 -16.5t70 -45.5t46 -67.5t22 -81.5h-283zM301 484
q-20 0 -34.5 -38t-17.5 -119h89q0 30 -1 58.5t-4.5 50t-11 35t-20.5 13.5z" />
    <glyph glyph-name="f" unicode="f" horiz-adv-x="446" 
d="M462 484v-36h-156v-448h-213v448h-89v36h89q0 101 26.5 163t65.5 96t83 45.5t80 11.5q63 0 92 -26t29 -56q1 -34 -22.5 -55.5t-58.5 -21.5q-26 0 -42.5 13.5t-30.5 30t-29 30.5t-39 14q-25 0 -35 -18.5t-3.5 -51.5t30.5 -78t67 -97h156z" />
    <glyph glyph-name="g" unicode="g" horiz-adv-x="593" 
d="M279 503q35 0 65.5 -5t57.5 -14h205v-36h-140q26 -20 41.5 -49.5t15.5 -67.5q0 -79 -59.5 -125.5t-185.5 -46.5h-19.5t-19.5 2q-17 -11 -24 -19.5t-7 -19.5q0 -14 17.5 -24t66.5 -10h44q54 0 99.5 -8.5t79.5 -26.5t53 -46t19 -67q0 -50 -26 -88t-69 -64.5t-99 -40
t-117 -13.5q-67 0 -118.5 11t-86.5 29t-53 41t-18 46q0 15 11 27t35.5 22t64.5 16.5t99 11.5q-50 1 -83.5 11t-54 24.5t-29.5 32.5t-9 37q0 43 43.5 73.5t140.5 47.5q-38 7 -71 21.5t-58.5 36t-40 49t-14.5 60.5q0 79 59.5 125.5t184.5 46.5zM162 -153q0 -17 6 -33.5t20 -30
t38.5 -22t60.5 -8.5q29 0 54 6t44 19t29.5 32t10.5 46q0 44 -38 63t-95 19h-60q-30 -11 -50 -33.5t-20 -57.5zM334 331q0 23 -2 49.5t-8 49.5t-16.5 38.5t-28.5 15.5q-17 0 -27.5 -15.5t-16 -38.5t-7.5 -49.5t-2 -49.5q0 -22 2 -48.5t7.5 -50t16 -39t27.5 -15.5t28 15
t17 37.5t8 49.5t2 51z" />
    <glyph glyph-name="g" unicode="&#x123;" horiz-adv-x="593" 
d="M279 503q35 0 65.5 -5t57.5 -14h205v-36h-140q26 -20 41.5 -49.5t15.5 -67.5q0 -79 -59.5 -125.5t-185.5 -46.5h-19.5t-19.5 2q-17 -11 -24 -19.5t-7 -19.5q0 -14 17.5 -24t66.5 -10h44q54 0 99.5 -8.5t79.5 -26.5t53 -46t19 -67q0 -50 -26 -88t-69 -64.5t-99 -40
t-117 -13.5q-67 0 -118.5 11t-86.5 29t-53 41t-18 46q0 15 11 27t35.5 22t64.5 16.5t99 11.5q-50 1 -83.5 11t-54 24.5t-29.5 32.5t-9 37q0 43 43.5 73.5t140.5 47.5q-38 7 -71 21.5t-58.5 36t-40 49t-14.5 60.5q0 79 59.5 125.5t184.5 46.5zM162 -153q0 -17 6 -33.5t20 -30
t38.5 -22t60.5 -8.5q29 0 54 6t44 19t29.5 32t10.5 46q0 44 -38 63t-95 19h-60q-30 -11 -50 -33.5t-20 -57.5zM334 331q0 23 -2 49.5t-8 49.5t-16.5 38.5t-28.5 15.5q-17 0 -27.5 -15.5t-16 -38.5t-7.5 -49.5t-2 -49.5q0 -22 2 -48.5t7.5 -50t16 -39t27.5 -15.5t28 15
t17 37.5t8 49.5t2 51z" />
    <glyph glyph-name="g" unicode="&#x121;" horiz-adv-x="593" 
d="M279 503q35 0 65.5 -5t57.5 -14h205v-36h-140q26 -20 41.5 -49.5t15.5 -67.5q0 -79 -59.5 -125.5t-185.5 -46.5h-19.5t-19.5 2q-17 -11 -24 -19.5t-7 -19.5q0 -14 17.5 -24t66.5 -10h44q54 0 99.5 -8.5t79.5 -26.5t53 -46t19 -67q0 -50 -26 -88t-69 -64.5t-99 -40
t-117 -13.5q-67 0 -118.5 11t-86.5 29t-53 41t-18 46q0 15 11 27t35.5 22t64.5 16.5t99 11.5q-50 1 -83.5 11t-54 24.5t-29.5 32.5t-9 37q0 43 43.5 73.5t140.5 47.5q-38 7 -71 21.5t-58.5 36t-40 49t-14.5 60.5q0 79 59.5 125.5t184.5 46.5zM162 -153q0 -17 6 -33.5t20 -30
t38.5 -22t60.5 -8.5q29 0 54 6t44 19t29.5 32t10.5 46q0 44 -38 63t-95 19h-60q-30 -11 -50 -33.5t-20 -57.5zM334 331q0 23 -2 49.5t-8 49.5t-16.5 38.5t-28.5 15.5q-17 0 -27.5 -15.5t-16 -38.5t-7.5 -49.5t-2 -49.5q0 -22 2 -48.5t7.5 -50t16 -39t27.5 -15.5t28 15
t17 37.5t8 49.5t2 51z" />
    <glyph glyph-name="g" unicode="&#x11f;" horiz-adv-x="593" 
d="M279 503q35 0 65.5 -5t57.5 -14h205v-36h-140q26 -20 41.5 -49.5t15.5 -67.5q0 -79 -59.5 -125.5t-185.5 -46.5h-19.5t-19.5 2q-17 -11 -24 -19.5t-7 -19.5q0 -14 17.5 -24t66.5 -10h44q54 0 99.5 -8.5t79.5 -26.5t53 -46t19 -67q0 -50 -26 -88t-69 -64.5t-99 -40
t-117 -13.5q-67 0 -118.5 11t-86.5 29t-53 41t-18 46q0 15 11 27t35.5 22t64.5 16.5t99 11.5q-50 1 -83.5 11t-54 24.5t-29.5 32.5t-9 37q0 43 43.5 73.5t140.5 47.5q-38 7 -71 21.5t-58.5 36t-40 49t-14.5 60.5q0 79 59.5 125.5t184.5 46.5zM162 -153q0 -17 6 -33.5t20 -30
t38.5 -22t60.5 -8.5q29 0 54 6t44 19t29.5 32t10.5 46q0 44 -38 63t-95 19h-60q-30 -11 -50 -33.5t-20 -57.5zM334 331q0 23 -2 49.5t-8 49.5t-16.5 38.5t-28.5 15.5q-17 0 -27.5 -15.5t-16 -38.5t-7.5 -49.5t-2 -49.5q0 -22 2 -48.5t7.5 -50t16 -39t27.5 -15.5t28 15
t17 37.5t8 49.5t2 51z" />
    <glyph glyph-name="g" unicode="&#x11d;" horiz-adv-x="593" 
d="M279 503q35 0 65.5 -5t57.5 -14h205v-36h-140q26 -20 41.5 -49.5t15.5 -67.5q0 -79 -59.5 -125.5t-185.5 -46.5h-19.5t-19.5 2q-17 -11 -24 -19.5t-7 -19.5q0 -14 17.5 -24t66.5 -10h44q54 0 99.5 -8.5t79.5 -26.5t53 -46t19 -67q0 -50 -26 -88t-69 -64.5t-99 -40
t-117 -13.5q-67 0 -118.5 11t-86.5 29t-53 41t-18 46q0 15 11 27t35.5 22t64.5 16.5t99 11.5q-50 1 -83.5 11t-54 24.5t-29.5 32.5t-9 37q0 43 43.5 73.5t140.5 47.5q-38 7 -71 21.5t-58.5 36t-40 49t-14.5 60.5q0 79 59.5 125.5t184.5 46.5zM162 -153q0 -17 6 -33.5t20 -30
t38.5 -22t60.5 -8.5q29 0 54 6t44 19t29.5 32t10.5 46q0 44 -38 63t-95 19h-60q-30 -11 -50 -33.5t-20 -57.5zM334 331q0 23 -2 49.5t-8 49.5t-16.5 38.5t-28.5 15.5q-17 0 -27.5 -15.5t-16 -38.5t-7.5 -49.5t-2 -49.5q0 -22 2 -48.5t7.5 -50t16 -39t27.5 -15.5t28 15
t17 37.5t8 49.5t2 51z" />
    <glyph glyph-name="h" unicode="h" horiz-adv-x="639" 
d="M270 380q13 60 56 93.5t103 33.5q30 0 58.5 -9.5t50 -29.5t35 -52.5t13.5 -77.5v-338h-213v338q0 43 -11.5 61t-37.5 18q-19 0 -32.5 -11.5t-21.5 -25.5v-380h-213v787h213v-407z" />
    <glyph glyph-name="h" unicode="&#x127;" horiz-adv-x="639" 
d="M270 380q13 60 56 93.5t103 33.5q30 0 58.5 -9.5t50 -29.5t35 -52.5t13.5 -77.5v-338h-213v338q0 43 -11.5 61t-37.5 18q-19 0 -32.5 -11.5t-21.5 -25.5v-380h-213v787h213v-407z" />
    <glyph glyph-name="h" unicode="&#x125;" horiz-adv-x="639" 
d="M270 380q13 60 56 93.5t103 33.5q30 0 58.5 -9.5t50 -29.5t35 -52.5t13.5 -77.5v-338h-213v338q0 43 -11.5 61t-37.5 18q-19 0 -32.5 -11.5t-21.5 -25.5v-380h-213v787h213v-407z" />
    <glyph glyph-name="i" unicode="i" horiz-adv-x="327" 
d="M57 484h213v-484h-213v484zM55 691q0 23 8.5 43.5t23.5 35.5t35 23.5t43 8.5t43 -8.5t35 -23.5t23.5 -35.5t8.5 -43.5q0 -47 -31.5 -78.5t-78.5 -31.5t-78.5 31.5t-31.5 78.5z" />
    <glyph glyph-name="i" unicode="&#x1ecb;" horiz-adv-x="327" 
d="M57 484h213v-484h-213v484zM55 691q0 23 8.5 43.5t23.5 35.5t35 23.5t43 8.5t43 -8.5t35 -23.5t23.5 -35.5t8.5 -43.5q0 -47 -31.5 -78.5t-78.5 -31.5t-78.5 31.5t-31.5 78.5z" />
    <glyph glyph-name="i" unicode="&#x131;" horiz-adv-x="327" 
d="M57 484h213v-484h-213v484zM55 691q0 23 8.5 43.5t23.5 35.5t35 23.5t43 8.5t43 -8.5t35 -23.5t23.5 -35.5t8.5 -43.5q0 -47 -31.5 -78.5t-78.5 -31.5t-78.5 31.5t-31.5 78.5z" />
    <glyph glyph-name="i" unicode="&#x12f;" horiz-adv-x="327" 
d="M57 484h213v-484h-213v484zM55 691q0 23 8.5 43.5t23.5 35.5t35 23.5t43 8.5t43 -8.5t35 -23.5t23.5 -35.5t8.5 -43.5q0 -47 -31.5 -78.5t-78.5 -31.5t-78.5 31.5t-31.5 78.5z" />
    <glyph glyph-name="i" unicode="&#x12d;" horiz-adv-x="327" 
d="M57 484h213v-484h-213v484zM55 691q0 23 8.5 43.5t23.5 35.5t35 23.5t43 8.5t43 -8.5t35 -23.5t23.5 -35.5t8.5 -43.5q0 -47 -31.5 -78.5t-78.5 -31.5t-78.5 31.5t-31.5 78.5z" />
    <glyph glyph-name="i" unicode="&#x12b;" horiz-adv-x="327" 
d="M57 484h213v-484h-213v484zM55 691q0 23 8.5 43.5t23.5 35.5t35 23.5t43 8.5t43 -8.5t35 -23.5t23.5 -35.5t8.5 -43.5q0 -47 -31.5 -78.5t-78.5 -31.5t-78.5 31.5t-31.5 78.5z" />
    <glyph glyph-name="i" unicode="&#x129;" horiz-adv-x="327" 
d="M57 484h213v-484h-213v484zM55 691q0 23 8.5 43.5t23.5 35.5t35 23.5t43 8.5t43 -8.5t35 -23.5t23.5 -35.5t8.5 -43.5q0 -47 -31.5 -78.5t-78.5 -31.5t-78.5 31.5t-31.5 78.5z" />
    <glyph glyph-name="i" unicode="&#xef;" horiz-adv-x="327" 
d="M57 484h213v-484h-213v484zM55 691q0 23 8.5 43.5t23.5 35.5t35 23.5t43 8.5t43 -8.5t35 -23.5t23.5 -35.5t8.5 -43.5q0 -47 -31.5 -78.5t-78.5 -31.5t-78.5 31.5t-31.5 78.5z" />
    <glyph glyph-name="i" unicode="&#xee;" horiz-adv-x="327" 
d="M57 484h213v-484h-213v484zM55 691q0 23 8.5 43.5t23.5 35.5t35 23.5t43 8.5t43 -8.5t35 -23.5t23.5 -35.5t8.5 -43.5q0 -47 -31.5 -78.5t-78.5 -31.5t-78.5 31.5t-31.5 78.5z" />
    <glyph glyph-name="i" unicode="&#xed;" horiz-adv-x="327" 
d="M57 484h213v-484h-213v484zM55 691q0 23 8.5 43.5t23.5 35.5t35 23.5t43 8.5t43 -8.5t35 -23.5t23.5 -35.5t8.5 -43.5q0 -47 -31.5 -78.5t-78.5 -31.5t-78.5 31.5t-31.5 78.5z" />
    <glyph glyph-name="i" unicode="&#xec;" horiz-adv-x="327" 
d="M57 484h213v-484h-213v484zM55 691q0 23 8.5 43.5t23.5 35.5t35 23.5t43 8.5t43 -8.5t35 -23.5t23.5 -35.5t8.5 -43.5q0 -47 -31.5 -78.5t-78.5 -31.5t-78.5 31.5t-31.5 78.5z" />
    <glyph glyph-name="j" unicode="j" horiz-adv-x="325" 
d="M55 691q0 23 8.5 43.5t23.5 35.5t35 23.5t43 8.5t43 -8.5t35 -23.5t23.5 -35.5t8.5 -43.5q0 -47 -31.5 -78.5t-78.5 -31.5t-78.5 31.5t-31.5 78.5zM270 484v-393q0 -43 -11 -88t-41.5 -91.5t-86 -93t-143.5 -92.5l-7 9q27 28 42 71t22.5 91.5t9.5 99t2 94.5v393h213z" />
    <glyph glyph-name="j" unicode="&#x237;" horiz-adv-x="325" 
d="M55 691q0 23 8.5 43.5t23.5 35.5t35 23.5t43 8.5t43 -8.5t35 -23.5t23.5 -35.5t8.5 -43.5q0 -47 -31.5 -78.5t-78.5 -31.5t-78.5 31.5t-31.5 78.5zM270 484v-393q0 -43 -11 -88t-41.5 -91.5t-86 -93t-143.5 -92.5l-7 9q27 28 42 71t22.5 91.5t9.5 99t2 94.5v393h213z" />
    <glyph glyph-name="j" unicode="&#x135;" horiz-adv-x="325" 
d="M55 691q0 23 8.5 43.5t23.5 35.5t35 23.5t43 8.5t43 -8.5t35 -23.5t23.5 -35.5t8.5 -43.5q0 -47 -31.5 -78.5t-78.5 -31.5t-78.5 31.5t-31.5 78.5zM270 484v-393q0 -43 -11 -88t-41.5 -91.5t-86 -93t-143.5 -92.5l-7 9q27 28 42 71t22.5 91.5t9.5 99t2 94.5v393h213z" />
    <glyph glyph-name="k" unicode="k" horiz-adv-x="641" 
d="M617 484l-180 -145l223 -339h-235l-155 252v-252h-213v787h213v-532l286 229h61z" />
    <glyph glyph-name="k" unicode="&#x137;" horiz-adv-x="641" 
d="M617 484l-180 -145l223 -339h-235l-155 252v-252h-213v787h213v-532l286 229h61z" />
    <glyph glyph-name="l" unicode="l" horiz-adv-x="327" 
d="M270 787v-787h-213v787h213z" />
    <glyph glyph-name="l" unicode="&#x142;" horiz-adv-x="327" 
d="M270 787v-787h-213v787h213z" />
    <glyph glyph-name="l" unicode="&#x140;" horiz-adv-x="327" 
d="M270 787v-787h-213v787h213z" />
    <glyph glyph-name="l" unicode="&#x13e;" horiz-adv-x="327" 
d="M270 787v-787h-213v787h213z" />
    <glyph glyph-name="l" unicode="&#x13c;" horiz-adv-x="327" 
d="M270 787v-787h-213v787h213z" />
    <glyph glyph-name="l" unicode="&#x13a;" horiz-adv-x="327" 
d="M270 787v-787h-213v787h213z" />
    <glyph glyph-name="m" unicode="m" horiz-adv-x="954" 
d="M270 380q13 60 56 93.5t103 33.5q30 0 58.5 -9.5t50 -29.5t35 -52.5t13.5 -77.5v-338h-213v338q0 43 -11.5 61t-37.5 18q-19 0 -32.5 -11.5t-21.5 -25.5v-380h-213v484h213v-104zM688 0v338q0 43 -11.5 61t-37.5 18q-19 0 -32.5 -11.5t-21.5 -25.5q13 60 56 93.5
t103 33.5q30 0 58.5 -9.5t50 -29.5t35 -52.5t13.5 -77.5v-338h-213z" />
    <glyph glyph-name="n" unicode="n" horiz-adv-x="639" 
d="M270 380q13 60 56 93.5t103 33.5q30 0 58.5 -9.5t50 -29.5t35 -52.5t13.5 -77.5v-338h-213v338q0 43 -11.5 61t-37.5 18q-19 0 -32.5 -11.5t-21.5 -25.5zM270 0h-213v484h213v-484z" />
    <glyph glyph-name="n" unicode="&#x14b;" horiz-adv-x="639" 
d="M270 380q13 60 56 93.5t103 33.5q30 0 58.5 -9.5t50 -29.5t35 -52.5t13.5 -77.5v-338h-213v338q0 43 -11.5 61t-37.5 18q-19 0 -32.5 -11.5t-21.5 -25.5zM270 0h-213v484h213v-484z" />
    <glyph glyph-name="n" unicode="&#x148;" horiz-adv-x="639" 
d="M270 380q13 60 56 93.5t103 33.5q30 0 58.5 -9.5t50 -29.5t35 -52.5t13.5 -77.5v-338h-213v338q0 43 -11.5 61t-37.5 18q-19 0 -32.5 -11.5t-21.5 -25.5zM270 0h-213v484h213v-484z" />
    <glyph glyph-name="n" unicode="&#x146;" horiz-adv-x="639" 
d="M270 380q13 60 56 93.5t103 33.5q30 0 58.5 -9.5t50 -29.5t35 -52.5t13.5 -77.5v-338h-213v338q0 43 -11.5 61t-37.5 18q-19 0 -32.5 -11.5t-21.5 -25.5zM270 0h-213v484h213v-484z" />
    <glyph glyph-name="n" unicode="&#x144;" horiz-adv-x="639" 
d="M270 380q13 60 56 93.5t103 33.5q30 0 58.5 -9.5t50 -29.5t35 -52.5t13.5 -77.5v-338h-213v338q0 43 -11.5 61t-37.5 18q-19 0 -32.5 -11.5t-21.5 -25.5zM270 0h-213v484h213v-484z" />
    <glyph glyph-name="n" unicode="&#xf1;" horiz-adv-x="639" 
d="M270 380q13 60 56 93.5t103 33.5q30 0 58.5 -9.5t50 -29.5t35 -52.5t13.5 -77.5v-338h-213v338q0 43 -11.5 61t-37.5 18q-19 0 -32.5 -11.5t-21.5 -25.5zM270 0h-213v484h213v-484z" />
    <glyph glyph-name="o" unicode="o" horiz-adv-x="632" 
d="M29 245q0 59 18.5 107t55 81.5t90 52t123.5 18.5t123.5 -18.5t90 -52t55 -81.5t18.5 -107t-18.5 -107t-55 -82t-90 -52t-123.5 -18t-123.5 18t-90 52t-55 81.5t-18.5 107.5zM316 9q22 0 35.5 20.5t21 54.5t9.5 76.5t2 87.5q0 44 -2 86t-9.5 74.5t-21 52.5t-35.5 20
q-23 0 -36 -20t-20.5 -53t-9.5 -75t-2 -86q0 -45 2.5 -87.5t9.5 -76t20.5 -54t35.5 -20.5z" />
    <glyph glyph-name="o" unicode="&#x1ecd;" horiz-adv-x="632" 
d="M29 245q0 59 18.5 107t55 81.5t90 52t123.5 18.5t123.5 -18.5t90 -52t55 -81.5t18.5 -107t-18.5 -107t-55 -82t-90 -52t-123.5 -18t-123.5 18t-90 52t-55 81.5t-18.5 107.5zM316 9q22 0 35.5 20.5t21 54.5t9.5 76.5t2 87.5q0 44 -2 86t-9.5 74.5t-21 52.5t-35.5 20
q-23 0 -36 -20t-20.5 -53t-9.5 -75t-2 -86q0 -45 2.5 -87.5t9.5 -76t20.5 -54t35.5 -20.5z" />
    <glyph glyph-name="o" unicode="&#x153;" horiz-adv-x="632" 
d="M29 245q0 59 18.5 107t55 81.5t90 52t123.5 18.5t123.5 -18.5t90 -52t55 -81.5t18.5 -107t-18.5 -107t-55 -82t-90 -52t-123.5 -18t-123.5 18t-90 52t-55 81.5t-18.5 107.5zM316 9q22 0 35.5 20.5t21 54.5t9.5 76.5t2 87.5q0 44 -2 86t-9.5 74.5t-21 52.5t-35.5 20
q-23 0 -36 -20t-20.5 -53t-9.5 -75t-2 -86q0 -45 2.5 -87.5t9.5 -76t20.5 -54t35.5 -20.5z" />
    <glyph glyph-name="o" unicode="&#x151;" horiz-adv-x="632" 
d="M29 245q0 59 18.5 107t55 81.5t90 52t123.5 18.5t123.5 -18.5t90 -52t55 -81.5t18.5 -107t-18.5 -107t-55 -82t-90 -52t-123.5 -18t-123.5 18t-90 52t-55 81.5t-18.5 107.5zM316 9q22 0 35.5 20.5t21 54.5t9.5 76.5t2 87.5q0 44 -2 86t-9.5 74.5t-21 52.5t-35.5 20
q-23 0 -36 -20t-20.5 -53t-9.5 -75t-2 -86q0 -45 2.5 -87.5t9.5 -76t20.5 -54t35.5 -20.5z" />
    <glyph glyph-name="o" unicode="&#x14f;" horiz-adv-x="632" 
d="M29 245q0 59 18.5 107t55 81.5t90 52t123.5 18.5t123.5 -18.5t90 -52t55 -81.5t18.5 -107t-18.5 -107t-55 -82t-90 -52t-123.5 -18t-123.5 18t-90 52t-55 81.5t-18.5 107.5zM316 9q22 0 35.5 20.5t21 54.5t9.5 76.5t2 87.5q0 44 -2 86t-9.5 74.5t-21 52.5t-35.5 20
q-23 0 -36 -20t-20.5 -53t-9.5 -75t-2 -86q0 -45 2.5 -87.5t9.5 -76t20.5 -54t35.5 -20.5z" />
    <glyph glyph-name="o" unicode="&#x14d;" horiz-adv-x="632" 
d="M29 245q0 59 18.5 107t55 81.5t90 52t123.5 18.5t123.5 -18.5t90 -52t55 -81.5t18.5 -107t-18.5 -107t-55 -82t-90 -52t-123.5 -18t-123.5 18t-90 52t-55 81.5t-18.5 107.5zM316 9q22 0 35.5 20.5t21 54.5t9.5 76.5t2 87.5q0 44 -2 86t-9.5 74.5t-21 52.5t-35.5 20
q-23 0 -36 -20t-20.5 -53t-9.5 -75t-2 -86q0 -45 2.5 -87.5t9.5 -76t20.5 -54t35.5 -20.5z" />
    <glyph glyph-name="o" unicode="&#xf8;" horiz-adv-x="632" 
d="M29 245q0 59 18.5 107t55 81.5t90 52t123.5 18.5t123.5 -18.5t90 -52t55 -81.5t18.5 -107t-18.5 -107t-55 -82t-90 -52t-123.5 -18t-123.5 18t-90 52t-55 81.5t-18.5 107.5zM316 9q22 0 35.5 20.5t21 54.5t9.5 76.5t2 87.5q0 44 -2 86t-9.5 74.5t-21 52.5t-35.5 20
q-23 0 -36 -20t-20.5 -53t-9.5 -75t-2 -86q0 -45 2.5 -87.5t9.5 -76t20.5 -54t35.5 -20.5z" />
    <glyph glyph-name="o" unicode="&#xf6;" horiz-adv-x="632" 
d="M29 245q0 59 18.5 107t55 81.5t90 52t123.5 18.5t123.5 -18.5t90 -52t55 -81.5t18.5 -107t-18.5 -107t-55 -82t-90 -52t-123.5 -18t-123.5 18t-90 52t-55 81.5t-18.5 107.5zM316 9q22 0 35.5 20.5t21 54.5t9.5 76.5t2 87.5q0 44 -2 86t-9.5 74.5t-21 52.5t-35.5 20
q-23 0 -36 -20t-20.5 -53t-9.5 -75t-2 -86q0 -45 2.5 -87.5t9.5 -76t20.5 -54t35.5 -20.5z" />
    <glyph glyph-name="o" unicode="&#xf5;" horiz-adv-x="632" 
d="M29 245q0 59 18.5 107t55 81.5t90 52t123.5 18.5t123.5 -18.5t90 -52t55 -81.5t18.5 -107t-18.5 -107t-55 -82t-90 -52t-123.5 -18t-123.5 18t-90 52t-55 81.5t-18.5 107.5zM316 9q22 0 35.5 20.5t21 54.5t9.5 76.5t2 87.5q0 44 -2 86t-9.5 74.5t-21 52.5t-35.5 20
q-23 0 -36 -20t-20.5 -53t-9.5 -75t-2 -86q0 -45 2.5 -87.5t9.5 -76t20.5 -54t35.5 -20.5z" />
    <glyph glyph-name="o" unicode="&#xf4;" horiz-adv-x="632" 
d="M29 245q0 59 18.5 107t55 81.5t90 52t123.5 18.5t123.5 -18.5t90 -52t55 -81.5t18.5 -107t-18.5 -107t-55 -82t-90 -52t-123.5 -18t-123.5 18t-90 52t-55 81.5t-18.5 107.5zM316 9q22 0 35.5 20.5t21 54.5t9.5 76.5t2 87.5q0 44 -2 86t-9.5 74.5t-21 52.5t-35.5 20
q-23 0 -36 -20t-20.5 -53t-9.5 -75t-2 -86q0 -45 2.5 -87.5t9.5 -76t20.5 -54t35.5 -20.5z" />
    <glyph glyph-name="o" unicode="&#xf3;" horiz-adv-x="632" 
d="M29 245q0 59 18.5 107t55 81.5t90 52t123.5 18.5t123.5 -18.5t90 -52t55 -81.5t18.5 -107t-18.5 -107t-55 -82t-90 -52t-123.5 -18t-123.5 18t-90 52t-55 81.5t-18.5 107.5zM316 9q22 0 35.5 20.5t21 54.5t9.5 76.5t2 87.5q0 44 -2 86t-9.5 74.5t-21 52.5t-35.5 20
q-23 0 -36 -20t-20.5 -53t-9.5 -75t-2 -86q0 -45 2.5 -87.5t9.5 -76t20.5 -54t35.5 -20.5z" />
    <glyph glyph-name="o" unicode="&#xf2;" horiz-adv-x="632" 
d="M29 245q0 59 18.5 107t55 81.5t90 52t123.5 18.5t123.5 -18.5t90 -52t55 -81.5t18.5 -107t-18.5 -107t-55 -82t-90 -52t-123.5 -18t-123.5 18t-90 52t-55 81.5t-18.5 107.5zM316 9q22 0 35.5 20.5t21 54.5t9.5 76.5t2 87.5q0 44 -2 86t-9.5 74.5t-21 52.5t-35.5 20
q-23 0 -36 -20t-20.5 -53t-9.5 -75t-2 -86q0 -45 2.5 -87.5t9.5 -76t20.5 -54t35.5 -20.5z" />
    <glyph glyph-name="p" unicode="p" 
d="M57 484h213v-67q24 45 60 69t84 24t87 -19t67.5 -54t44 -83.5t15.5 -106.5q0 -57 -15.5 -105t-43.5 -82.5t-66 -54t-84 -19.5t-86.5 25.5t-62.5 64.5v-338h-213v746zM270 76q8 -5 18 -7.5t21 -2.5q22 0 40.5 13.5t31.5 37.5t20 57.5t7 72.5q0 82 -26 131.5t-73 49.5
q-10 0 -21 -3t-18 -8v-341z" />
    <glyph glyph-name="p" unicode="&#xfe;" 
d="M57 484h213v-67q24 45 60 69t84 24t87 -19t67.5 -54t44 -83.5t15.5 -106.5q0 -57 -15.5 -105t-43.5 -82.5t-66 -54t-84 -19.5t-86.5 25.5t-62.5 64.5v-338h-213v746zM270 76q8 -5 18 -7.5t21 -2.5q22 0 40.5 13.5t31.5 37.5t20 57.5t7 72.5q0 82 -26 131.5t-73 49.5
q-10 0 -21 -3t-18 -8v-341z" />
    <glyph glyph-name="q" unicode="q" horiz-adv-x="657" 
d="M388 420q-8 5 -18 7.5t-21 2.5q-23 0 -41 -13.5t-31 -37.5t-20 -57.5t-7 -72.5q0 -82 26 -131.5t73 -49.5q10 0 21 3t18 8q-24 -45 -60 -69t-84 -24t-87 19t-67.5 54t-44 83t-15.5 107q0 57 15.5 105t43 82.5t66 54t84.5 19.5t86.5 -25.5t62.5 -64.5zM388 -262v746h213
v-746h-213z" />
    <glyph glyph-name="r" unicode="r" horiz-adv-x="487" 
d="M270 0h-213v484h213v-168q18 93 64 141t139 48v-162q-23 6 -42 8.5t-40 2.5q-41 0 -72.5 -9.5t-48.5 -28.5v-316z" />
    <glyph glyph-name="r" unicode="&#x159;" horiz-adv-x="487" 
d="M270 0h-213v484h213v-168q18 93 64 141t139 48v-162q-23 6 -42 8.5t-40 2.5q-41 0 -72.5 -9.5t-48.5 -28.5v-316z" />
    <glyph glyph-name="r" unicode="&#x157;" horiz-adv-x="487" 
d="M270 0h-213v484h213v-168q18 93 64 141t139 48v-162q-23 6 -42 8.5t-40 2.5q-41 0 -72.5 -9.5t-48.5 -28.5v-316z" />
    <glyph glyph-name="r" unicode="&#x155;" horiz-adv-x="487" 
d="M270 0h-213v484h213v-168q18 93 64 141t139 48v-162q-23 6 -42 8.5t-40 2.5q-41 0 -72.5 -9.5t-48.5 -28.5v-316z" />
    <glyph glyph-name="s" unicode="s" horiz-adv-x="518" 
d="M98 163q26 0 42 -11.5t26.5 -28t17 -36.5t14.5 -36q8 -14 17 -23.5t27 -9.5q29 0 44.5 20t15.5 47t-16.5 48.5t-59.5 35.5l-34 11q-140 45 -140 169q0 36 17 65.5t47.5 50t72 31.5t91.5 11q27 0 62 -4.5t66 -16t52.5 -30.5t21.5 -48q0 -23 -16 -42.5t-48 -19.5
q-30 0 -46.5 13t-26 31.5t-15.5 38.5t-16 34q-5 8 -12 13t-18 5q-26 0 -40.5 -18.5t-14.5 -41.5q0 -38 19.5 -57t52.5 -30l35 -12q45 -15 73.5 -35.5t45 -43t22.5 -45t6 -41.5q0 -79 -62 -125t-177 -46q-46 0 -85.5 6t-68.5 19t-45.5 33t-16.5 49t18 49.5t52 20.5z" />
    <glyph glyph-name="s" unicode="&#x219;" horiz-adv-x="518" 
d="M98 163q26 0 42 -11.5t26.5 -28t17 -36.5t14.5 -36q8 -14 17 -23.5t27 -9.5q29 0 44.5 20t15.5 47t-16.5 48.5t-59.5 35.5l-34 11q-140 45 -140 169q0 36 17 65.5t47.5 50t72 31.5t91.5 11q27 0 62 -4.5t66 -16t52.5 -30.5t21.5 -48q0 -23 -16 -42.5t-48 -19.5
q-30 0 -46.5 13t-26 31.5t-15.5 38.5t-16 34q-5 8 -12 13t-18 5q-26 0 -40.5 -18.5t-14.5 -41.5q0 -38 19.5 -57t52.5 -30l35 -12q45 -15 73.5 -35.5t45 -43t22.5 -45t6 -41.5q0 -79 -62 -125t-177 -46q-46 0 -85.5 6t-68.5 19t-45.5 33t-16.5 49t18 49.5t52 20.5z" />
    <glyph glyph-name="s" unicode="&#x161;" horiz-adv-x="518" 
d="M98 163q26 0 42 -11.5t26.5 -28t17 -36.5t14.5 -36q8 -14 17 -23.5t27 -9.5q29 0 44.5 20t15.5 47t-16.5 48.5t-59.5 35.5l-34 11q-140 45 -140 169q0 36 17 65.5t47.5 50t72 31.5t91.5 11q27 0 62 -4.5t66 -16t52.5 -30.5t21.5 -48q0 -23 -16 -42.5t-48 -19.5
q-30 0 -46.5 13t-26 31.5t-15.5 38.5t-16 34q-5 8 -12 13t-18 5q-26 0 -40.5 -18.5t-14.5 -41.5q0 -38 19.5 -57t52.5 -30l35 -12q45 -15 73.5 -35.5t45 -43t22.5 -45t6 -41.5q0 -79 -62 -125t-177 -46q-46 0 -85.5 6t-68.5 19t-45.5 33t-16.5 49t18 49.5t52 20.5z" />
    <glyph glyph-name="s" unicode="&#x15f;" horiz-adv-x="518" 
d="M98 163q26 0 42 -11.5t26.5 -28t17 -36.5t14.5 -36q8 -14 17 -23.5t27 -9.5q29 0 44.5 20t15.5 47t-16.5 48.5t-59.5 35.5l-34 11q-140 45 -140 169q0 36 17 65.5t47.5 50t72 31.5t91.5 11q27 0 62 -4.5t66 -16t52.5 -30.5t21.5 -48q0 -23 -16 -42.5t-48 -19.5
q-30 0 -46.5 13t-26 31.5t-15.5 38.5t-16 34q-5 8 -12 13t-18 5q-26 0 -40.5 -18.5t-14.5 -41.5q0 -38 19.5 -57t52.5 -30l35 -12q45 -15 73.5 -35.5t45 -43t22.5 -45t6 -41.5q0 -79 -62 -125t-177 -46q-46 0 -85.5 6t-68.5 19t-45.5 33t-16.5 49t18 49.5t52 20.5z" />
    <glyph glyph-name="s" unicode="&#x15d;" horiz-adv-x="518" 
d="M98 163q26 0 42 -11.5t26.5 -28t17 -36.5t14.5 -36q8 -14 17 -23.5t27 -9.5q29 0 44.5 20t15.5 47t-16.5 48.5t-59.5 35.5l-34 11q-140 45 -140 169q0 36 17 65.5t47.5 50t72 31.5t91.5 11q27 0 62 -4.5t66 -16t52.5 -30.5t21.5 -48q0 -23 -16 -42.5t-48 -19.5
q-30 0 -46.5 13t-26 31.5t-15.5 38.5t-16 34q-5 8 -12 13t-18 5q-26 0 -40.5 -18.5t-14.5 -41.5q0 -38 19.5 -57t52.5 -30l35 -12q45 -15 73.5 -35.5t45 -43t22.5 -45t6 -41.5q0 -79 -62 -125t-177 -46q-46 0 -85.5 6t-68.5 19t-45.5 33t-16.5 49t18 49.5t52 20.5z" />
    <glyph glyph-name="s" unicode="&#x15b;" horiz-adv-x="518" 
d="M98 163q26 0 42 -11.5t26.5 -28t17 -36.5t14.5 -36q8 -14 17 -23.5t27 -9.5q29 0 44.5 20t15.5 47t-16.5 48.5t-59.5 35.5l-34 11q-140 45 -140 169q0 36 17 65.5t47.5 50t72 31.5t91.5 11q27 0 62 -4.5t66 -16t52.5 -30.5t21.5 -48q0 -23 -16 -42.5t-48 -19.5
q-30 0 -46.5 13t-26 31.5t-15.5 38.5t-16 34q-5 8 -12 13t-18 5q-26 0 -40.5 -18.5t-14.5 -41.5q0 -38 19.5 -57t52.5 -30l35 -12q45 -15 73.5 -35.5t45 -43t22.5 -45t6 -41.5q0 -79 -62 -125t-177 -46q-46 0 -85.5 6t-68.5 19t-45.5 33t-16.5 49t18 49.5t52 20.5z" />
    <glyph glyph-name="s" unicode="&#xdf;" horiz-adv-x="518" 
d="M98 163q26 0 42 -11.5t26.5 -28t17 -36.5t14.5 -36q8 -14 17 -23.5t27 -9.5q29 0 44.5 20t15.5 47t-16.5 48.5t-59.5 35.5l-34 11q-140 45 -140 169q0 36 17 65.5t47.5 50t72 31.5t91.5 11q27 0 62 -4.5t66 -16t52.5 -30.5t21.5 -48q0 -23 -16 -42.5t-48 -19.5
q-30 0 -46.5 13t-26 31.5t-15.5 38.5t-16 34q-5 8 -12 13t-18 5q-26 0 -40.5 -18.5t-14.5 -41.5q0 -38 19.5 -57t52.5 -30l35 -12q45 -15 73.5 -35.5t45 -43t22.5 -45t6 -41.5q0 -79 -62 -125t-177 -46q-46 0 -85.5 6t-68.5 19t-45.5 33t-16.5 49t18 49.5t52 20.5z" />
    <glyph glyph-name="t" unicode="t" horiz-adv-x="458" 
d="M2 484h79v70l211 148v-218h168v-36h-168v-306q0 -48 14.5 -67t46.5 -19q26 0 48.5 16t39.5 47l23 -13q-35 -66 -83 -93t-120 -27q-38 0 -71 10t-57 31t-38 53t-14 76v292h-79v36z" />
    <glyph glyph-name="t" unicode="&#x21b;" horiz-adv-x="458" 
d="M2 484h79v70l211 148v-218h168v-36h-168v-306q0 -48 14.5 -67t46.5 -19q26 0 48.5 16t39.5 47l23 -13q-35 -66 -83 -93t-120 -27q-38 0 -71 10t-57 31t-38 53t-14 76v292h-79v36z" />
    <glyph glyph-name="t" unicode="&#x167;" horiz-adv-x="458" 
d="M2 484h79v70l211 148v-218h168v-36h-168v-306q0 -48 14.5 -67t46.5 -19q26 0 48.5 16t39.5 47l23 -13q-35 -66 -83 -93t-120 -27q-38 0 -71 10t-57 31t-38 53t-14 76v292h-79v36z" />
    <glyph glyph-name="t" unicode="&#x165;" horiz-adv-x="458" 
d="M2 484h79v70l211 148v-218h168v-36h-168v-306q0 -48 14.5 -67t46.5 -19q26 0 48.5 16t39.5 47l23 -13q-35 -66 -83 -93t-120 -27q-38 0 -71 10t-57 31t-38 53t-14 76v292h-79v36z" />
    <glyph glyph-name="t" unicode="&#x163;" horiz-adv-x="458" 
d="M2 484h79v70l211 148v-218h168v-36h-168v-306q0 -48 14.5 -67t46.5 -19q26 0 48.5 16t39.5 47l23 -13q-35 -66 -83 -93t-120 -27q-38 0 -71 10t-57 31t-38 53t-14 76v292h-79v36z" />
    <glyph glyph-name="u" unicode="u" horiz-adv-x="639" 
d="M369 484h213v-484h-213v484zM369 112q-6 -30 -22 -53.5t-38.5 -40t-50.5 -25t-58 -8.5t-56.5 9.5t-47 31t-32 55.5t-11.5 83v320h213v-350q0 -28 11.5 -43.5t37.5 -15.5q19 0 32.5 11.5t21.5 25.5z" />
    <glyph glyph-name="u" unicode="&#x1ee5;" horiz-adv-x="639" 
d="M369 484h213v-484h-213v484zM369 112q-6 -30 -22 -53.5t-38.5 -40t-50.5 -25t-58 -8.5t-56.5 9.5t-47 31t-32 55.5t-11.5 83v320h213v-350q0 -28 11.5 -43.5t37.5 -15.5q19 0 32.5 11.5t21.5 25.5z" />
    <glyph glyph-name="u" unicode="&#x173;" horiz-adv-x="639" 
d="M369 484h213v-484h-213v484zM369 112q-6 -30 -22 -53.5t-38.5 -40t-50.5 -25t-58 -8.5t-56.5 9.5t-47 31t-32 55.5t-11.5 83v320h213v-350q0 -28 11.5 -43.5t37.5 -15.5q19 0 32.5 11.5t21.5 25.5z" />
    <glyph glyph-name="u" unicode="&#x171;" horiz-adv-x="639" 
d="M369 484h213v-484h-213v484zM369 112q-6 -30 -22 -53.5t-38.5 -40t-50.5 -25t-58 -8.5t-56.5 9.5t-47 31t-32 55.5t-11.5 83v320h213v-350q0 -28 11.5 -43.5t37.5 -15.5q19 0 32.5 11.5t21.5 25.5z" />
    <glyph glyph-name="u" unicode="&#x16f;" horiz-adv-x="639" 
d="M369 484h213v-484h-213v484zM369 112q-6 -30 -22 -53.5t-38.5 -40t-50.5 -25t-58 -8.5t-56.5 9.5t-47 31t-32 55.5t-11.5 83v320h213v-350q0 -28 11.5 -43.5t37.5 -15.5q19 0 32.5 11.5t21.5 25.5z" />
    <glyph glyph-name="u" unicode="&#x16d;" horiz-adv-x="639" 
d="M369 484h213v-484h-213v484zM369 112q-6 -30 -22 -53.5t-38.5 -40t-50.5 -25t-58 -8.5t-56.5 9.5t-47 31t-32 55.5t-11.5 83v320h213v-350q0 -28 11.5 -43.5t37.5 -15.5q19 0 32.5 11.5t21.5 25.5z" />
    <glyph glyph-name="u" unicode="&#x16b;" horiz-adv-x="639" 
d="M369 484h213v-484h-213v484zM369 112q-6 -30 -22 -53.5t-38.5 -40t-50.5 -25t-58 -8.5t-56.5 9.5t-47 31t-32 55.5t-11.5 83v320h213v-350q0 -28 11.5 -43.5t37.5 -15.5q19 0 32.5 11.5t21.5 25.5z" />
    <glyph glyph-name="u" unicode="&#x169;" horiz-adv-x="639" 
d="M369 484h213v-484h-213v484zM369 112q-6 -30 -22 -53.5t-38.5 -40t-50.5 -25t-58 -8.5t-56.5 9.5t-47 31t-32 55.5t-11.5 83v320h213v-350q0 -28 11.5 -43.5t37.5 -15.5q19 0 32.5 11.5t21.5 25.5z" />
    <glyph glyph-name="u" unicode="&#xfc;" horiz-adv-x="639" 
d="M369 484h213v-484h-213v484zM369 112q-6 -30 -22 -53.5t-38.5 -40t-50.5 -25t-58 -8.5t-56.5 9.5t-47 31t-32 55.5t-11.5 83v320h213v-350q0 -28 11.5 -43.5t37.5 -15.5q19 0 32.5 11.5t21.5 25.5z" />
    <glyph glyph-name="u" unicode="&#xfb;" horiz-adv-x="639" 
d="M369 484h213v-484h-213v484zM369 112q-6 -30 -22 -53.5t-38.5 -40t-50.5 -25t-58 -8.5t-56.5 9.5t-47 31t-32 55.5t-11.5 83v320h213v-350q0 -28 11.5 -43.5t37.5 -15.5q19 0 32.5 11.5t21.5 25.5z" />
    <glyph glyph-name="u" unicode="&#xfa;" horiz-adv-x="639" 
d="M369 484h213v-484h-213v484zM369 112q-6 -30 -22 -53.5t-38.5 -40t-50.5 -25t-58 -8.5t-56.5 9.5t-47 31t-32 55.5t-11.5 83v320h213v-350q0 -28 11.5 -43.5t37.5 -15.5q19 0 32.5 11.5t21.5 25.5z" />
    <glyph glyph-name="u" unicode="&#xf9;" horiz-adv-x="639" 
d="M369 484h213v-484h-213v484zM369 112q-6 -30 -22 -53.5t-38.5 -40t-50.5 -25t-58 -8.5t-56.5 9.5t-47 31t-32 55.5t-11.5 83v320h213v-350q0 -28 11.5 -43.5t37.5 -15.5q19 0 32.5 11.5t21.5 25.5z" />
    <glyph glyph-name="v" unicode="v" horiz-adv-x="524" 
d="M526 484l-208 -484h-112l-208 484h212l131 -327l140 327h45z" />
    <glyph glyph-name="w" unicode="w" horiz-adv-x="831" 
d="M831 484l-173 -484h-132l-104 339l-117 -339h-132l-173 484h214l104 -310l108 310h160l90 -314l112 314h43z" />
    <glyph glyph-name="w" unicode="&#x1e85;" horiz-adv-x="831" 
d="M831 484l-173 -484h-132l-104 339l-117 -339h-132l-173 484h214l104 -310l108 310h160l90 -314l112 314h43z" />
    <glyph glyph-name="w" unicode="&#x1e83;" horiz-adv-x="831" 
d="M831 484l-173 -484h-132l-104 339l-117 -339h-132l-173 484h214l104 -310l108 310h160l90 -314l112 314h43z" />
    <glyph glyph-name="w" unicode="&#x1e81;" horiz-adv-x="831" 
d="M831 484l-173 -484h-132l-104 339l-117 -339h-132l-173 484h214l104 -310l108 310h160l90 -314l112 314h43z" />
    <glyph glyph-name="w" unicode="&#x175;" horiz-adv-x="831" 
d="M831 484l-173 -484h-132l-104 339l-117 -339h-132l-173 484h214l104 -310l108 310h160l90 -314l112 314h43z" />
    <glyph glyph-name="x" unicode="x" horiz-adv-x="518" 
d="M317 336l125 148h53l-156 -183l189 -301h-225l-106 168l-141 -168h-53l172 204l-175 280h225z" />
    <glyph glyph-name="y" unicode="y" horiz-adv-x="521" 
d="M175 -262h-45l99 208l-231 538h212l125 -311l146 311h45z" />
    <glyph glyph-name="y" unicode="&#x1ef3;" horiz-adv-x="521" 
d="M175 -262h-45l99 208l-231 538h212l125 -311l146 311h45z" />
    <glyph glyph-name="y" unicode="&#x233;" horiz-adv-x="521" 
d="M175 -262h-45l99 208l-231 538h212l125 -311l146 311h45z" />
    <glyph glyph-name="y" unicode="&#x177;" horiz-adv-x="521" 
d="M175 -262h-45l99 208l-231 538h212l125 -311l146 311h45z" />
    <glyph glyph-name="y" unicode="&#xff;" horiz-adv-x="521" 
d="M175 -262h-45l99 208l-231 538h212l125 -311l146 311h45z" />
    <glyph glyph-name="y" unicode="&#xfd;" horiz-adv-x="521" 
d="M175 -262h-45l99 208l-231 538h212l125 -311l146 311h45z" />
    <glyph glyph-name="z" unicode="z" horiz-adv-x="503" 
d="M486 0h-477v32l260 416h-235v36h452v-32l-255 -416h255v-36z" />
    <glyph glyph-name="z" unicode="&#x17e;" horiz-adv-x="503" 
d="M486 0h-477v32l260 416h-235v36h452v-32l-255 -416h255v-36z" />
    <glyph glyph-name="z" unicode="&#x17c;" horiz-adv-x="503" 
d="M486 0h-477v32l260 416h-235v36h452v-32l-255 -416h255v-36z" />
    <glyph glyph-name="z" unicode="&#x17a;" horiz-adv-x="503" 
d="M486 0h-477v32l260 416h-235v36h452v-32l-255 -416h255v-36z" />
    <glyph glyph-name="uni00A0" unicode="&#xa0;" horiz-adv-x="222" 
 />
    <glyph glyph-name="uni00AD" unicode="&#xad;" horiz-adv-x="374" 
d="M40 279h294v-47h-294v47z" />
    <glyph glyph-name="paragraph" unicode="&#xb6;" horiz-adv-x="500" 
d="M415 -117h-47v859h-77v-859h-47v507q-44 0 -83.5 14t-69 39.5t-47 62t-17.5 82.5q0 34 11 69.5t39.5 64.5t76.5 47t122 18h139v-904z" />
    <glyph glyph-name="periodcentered" unicode="&#xb7;" horiz-adv-x="302" 
d="M43 257q0 22 8.5 41.5t23.5 34.5t34.5 23.5t41.5 8.5t41.5 -8.5t34.5 -23.5t23.5 -34.5t8.5 -41.5t-8.5 -41.5t-23.5 -34.5t-34.5 -23.5t-41.5 -8.5t-41.5 8.5t-34.5 23.5t-23.5 34.5t-8.5 41.5z" />
    <glyph glyph-name="quoteright" unicode="&#x2019;" horiz-adv-x="277" 
d="M290 787l-231 -323h-11l36 323h206z" />
    <glyph glyph-name="bullet" unicode="&#x2022;" horiz-adv-x="468" 
d="M71 259q0 33 12.5 62t34.5 51t51 34.5t62 12.5q35 0 65.5 -12.5t53 -34.5t35 -51t12.5 -62q0 -35 -12.5 -65.5t-35 -53t-53 -35t-65.5 -12.5q-33 0 -62 12.5t-51 35t-34.5 53t-12.5 65.5z" />
    <glyph glyph-name="glyph67" horiz-adv-x="125" 
 />
    <glyph glyph-name="glyph68" horiz-adv-x="819" 
d="M835 484v-36h-156v-448h-213v448h-160v-448h-213v448h-89v36h89q0 91 21.5 147t54 87.5t71.5 42.5t75 11q63 0 92 -26t29 -56q0 -34 -23 -55.5t-58 -21.5q-26 0 -39 15.5t-23 33.5t-21.5 33.5t-35.5 15.5q-25 0 -33.5 -20t0 -52t34.5 -72.5t69 -82.5h160q0 101 26.5 163
t65.5 96t83 45.5t80 11.5q63 0 92 -26t29 -56q1 -34 -22.5 -55.5t-58.5 -21.5q-26 0 -42.5 13.5t-30.5 30t-29 30.5t-39 14q-25 0 -35 -18.5t-3.5 -51.5t30.5 -78t67 -97h156z" />
    <glyph glyph-name="glyph70" horiz-adv-x="739" 
d="M4 484h89q0 101 20 163t50.5 96t66.5 45.5t68 11.5q35 0 58.5 -7t37.5 -19t19.5 -26.5t5.5 -29.5q1 -34 -22.5 -55.5t-58.5 -21.5q-26 0 -41 10.5t-26 23.5t-22.5 23.5t-31.5 10.5q-29 0 -39 -21t0.5 -54t42 -73t85.5 -77h106v-36h-106v-448h-213v448h-89v36zM469 484
h213v-484h-213v484zM467 691q0 23 8.5 43.5t23.5 35.5t35 23.5t43 8.5t43 -8.5t35 -23.5t23.5 -35.5t8.5 -43.5q0 -47 -31.5 -78.5t-78.5 -31.5t-78.5 31.5t-31.5 78.5z" />
    <glyph glyph-name="glyph72" horiz-adv-x="1112" 
d="M4 484h89q0 91 21.5 147t54 87.5t71.5 42.5t75 11q63 0 92 -26t29 -56q0 -34 -23 -55.5t-58 -21.5q-26 0 -39 15.5t-23 33.5t-21.5 33.5t-35.5 15.5q-25 0 -33.5 -20t0 -52t34.5 -72.5t69 -82.5h160q0 101 20 163t50.5 96t66.5 45.5t68 11.5q35 0 58.5 -7t37.5 -19
t19.5 -26.5t5.5 -29.5q1 -34 -22.5 -55.5t-58.5 -21.5q-26 0 -41 10.5t-26 23.5t-22.5 23.5t-31.5 10.5q-29 0 -39 -21t0.5 -54t42 -73t85.5 -77h106v-36h-106v-448h-213v448h-160v-448h-213v448h-89v36zM842 484h213v-484h-213v484zM840 691q0 23 8.5 43.5t23.5 35.5
t35 23.5t43 8.5t43 -8.5t35 -23.5t23.5 -35.5t8.5 -43.5q0 -47 -31.5 -78.5t-78.5 -31.5t-78.5 31.5t-31.5 78.5z" />
    <glyph glyph-name="glyph74" horiz-adv-x="745" 
d="M475 787h213v-787h-213v787zM4 484h89q0 101 20 163t50.5 96t66.5 45.5t68 11.5q35 0 58.5 -7t37.5 -19t19.5 -26.5t5.5 -29.5q1 -34 -22.5 -55.5t-58.5 -21.5q-26 0 -41 10.5t-26 23.5t-22.5 23.5t-31.5 10.5q-29 0 -39 -21t0.5 -54t42 -73t85.5 -77h106v-36h-106v-448
h-213v448h-89v36z" />
    <glyph glyph-name="glyph76" horiz-adv-x="1112" 
d="M4 484h89q0 91 21.5 147t54 87.5t71.5 42.5t75 11q63 0 92 -26t29 -56q0 -34 -23 -55.5t-58 -21.5q-26 0 -39 15.5t-23 33.5t-21.5 33.5t-35.5 15.5q-25 0 -33.5 -20t0 -52t34.5 -72.5t69 -82.5h160q0 101 20 163t50.5 96t66.5 45.5t68 11.5q35 0 58.5 -7t37.5 -19
t19.5 -26.5t5.5 -29.5q1 -34 -22.5 -55.5t-58.5 -21.5q-26 0 -41 10.5t-26 23.5t-22.5 23.5t-31.5 10.5q-29 0 -39 -21t0.5 -54t42 -73t85.5 -77h106v-36h-106v-448h-213v448h-160v-448h-213v448h-89v36zM842 787h213v-787h-213v787z" />
    <glyph glyph-name="glyph78" horiz-adv-x="200" 
d="M-166 0h-73l606 787h73z" />
    <glyph glyph-name="zero.numr" horiz-adv-x="431" 
d="M271 575q0 105 -14 150t-42 45q-27 0 -41 -45t-14 -150q0 -102 14 -146.5t41 -44.5q28 0 42 44.5t14 146.5zM409 575q0 -53 -15 -93t-41 -68t-61.5 -42t-76.5 -14q-88 0 -140.5 56t-52.5 162q0 52 15 93t41 69t61.5 43t77.5 15q94 0 143 -58t49 -163z" />
    <glyph glyph-name="zero.dnom" horiz-adv-x="431" 
d="M271 209q0 105 -14 150t-42 45q-27 0 -41 -45t-14 -150q0 -102 14 -146.5t41 -44.5q28 0 42 44.5t14 146.5zM409 209q0 -53 -15 -93t-41 -68t-61.5 -42t-76.5 -14q-88 0 -140.5 56t-52.5 162q0 52 15 93t41 69t61.5 43t77.5 15q94 0 143 -58t49 -163z" />
    </font>
</defs>
</svg>
