<?xml version="1.0" standalone="no"?>
<!DOCTYPE svg PUBLIC "-//W3C//DTD SVG 1.1//EN" "http://www.w3.org/Graphics/SVG/1.1/DTD/svg11.dtd" >
<svg xmlns="http://www.w3.org/2000/svg" xmlns:xlink="http://www.w3.org/1999/xlink" version="1.1">
<metadata>
Created by Christoph Koeberlin (http://christoph.koe.berlin)
Copyright (c) 2019 Swiss Typefaces Sarl. All rights reserved.
</metadata>
<defs>
<font id="Font" horiz-adv-x="230" >
  <font-face 
    font-family="Font"
    font-weight="700"
    font-style="italic"
    font-stretch="normal"
    units-per-em="1000"
    panose-1="2 11 8 4 0 0 0 0 0 0"
    ascent="800"
    descent="-200"
    x-height="481"
    cap-height="787"
    bbox="-273 -300 1162 823"
    underline-thickness="46"
    underline-position="-161"
    slope="-9"
    unicode-range="U+0020-2022"
  />
<missing-glyph horiz-adv-x="700" 
d="M100 758h500v-758h-500v758zM119 728v-698l220 349zM581 30v698l-221 -349zM133 19h434l-217 343zM350 395l217 344h-434z" />
    <glyph glyph-name="f_f.liga" unicode="ff" horiz-adv-x="740" 
d="M529 -47q-12 -75 -40 -124t-64 -77.5t-76 -40t-75 -11.5q-26 0 -50 4.5t-42.5 14.5t-29.5 25.5t-11 36.5q0 23 16 42t48 19q20 0 31.5 -9t17 -22t7.5 -29t4 -29t6 -22t14 -9q13 0 24.5 9.5t23 33t21.5 63.5t20 102l83 523h-167l-64 -405q-13 -82 -42.5 -141.5
t-68.5 -97.5t-84 -56.5t-90 -18.5q-27 0 -57.5 6t-57 17.5t-43.5 29.5t-17 42q0 23 15.5 42t50.5 19q33 0 48 -21t23.5 -46.5t16.5 -46.5t26 -21q14 0 30 12.5t32.5 41t31 74.5t25.5 114l72 456h-115l8 28h112l4 27q12 78 43.5 130t72 83.5t84 45t81.5 13.5q19 0 40 -3
t40.5 -9t36.5 -15t29 -21q42 37 89 52.5t88 15.5q28 0 59 -5.5t56.5 -17t42.5 -29t17 -41.5q0 -23 -13.5 -41t-48.5 -18q-22 0 -36 10t-24 24.5t-16.5 32t-13.5 32t-15.5 24.5t-20.5 10q-14 0 -29 -11.5t-29.5 -38.5t-28.5 -71t-24 -109l-12 -70h180l-7 -28h-177zM295 481
h166l8 47q9 61 32 107q-18 10 -28.5 31t-18.5 42t-16.5 37t-23.5 16q-14 0 -29 -11.5t-29.5 -38.5t-28.5 -71t-24 -109z" />
    <glyph glyph-name="f_i.liga" unicode="fi" horiz-adv-x="662" 
d="M538 113q-8 -38 -3.5 -51.5t17.5 -13.5q14 0 31.5 21.5t39.5 61.5l17 -7q-9 -29 -22.5 -54.5t-31.5 -44t-41.5 -29t-53.5 -10.5q-58 0 -87.5 44t-9.5 139l60 284h-163l-69 -447q-12 -78 -43 -130.5t-71 -84t-84 -44.5t-81 -13q-28 0 -59 6t-57.5 17.5t-43.5 29.5t-17 42
q0 23 15.5 42t50.5 19q22 0 36 -10t23.5 -25t15.5 -33t12 -33t13.5 -25t18.5 -10q15 0 31 11.5t31 38t28.5 70.5t23.5 109l72 470h-115l8 28h112l7 47q12 78 44.5 130t74 83.5t87.5 45t85 13.5q34 0 68.5 -7t62.5 -21t45.5 -35t17.5 -48q0 -25 -18.5 -45.5t-52.5 -20.5
q-24 0 -39.5 11.5t-26.5 29.5t-18.5 38t-15 38t-16 29.5t-20.5 11.5q-15 0 -32 -11.5t-33.5 -38.5t-31 -71t-24.5 -109l-11 -70h318z" />
    <glyph glyph-name="f_f_i.liga" unicode="ffi" horiz-adv-x="982" 
d="M529 -47q-12 -75 -40 -124t-64 -77.5t-76 -40t-75 -11.5q-26 0 -50 4.5t-42.5 14.5t-29.5 25.5t-11 36.5q0 23 16 42t48 19q20 0 31.5 -9t17 -22t7.5 -29t4 -29t6 -22t14 -9q13 0 24.5 9.5t23 33t21.5 63.5t20 102l83 523h-167l-64 -405q-13 -82 -42.5 -141.5
t-68.5 -97.5t-84 -56.5t-90 -18.5q-27 0 -57.5 6t-57 17.5t-43.5 29.5t-17 42q0 23 15.5 42t50.5 19q33 0 48 -21t23.5 -46.5t16.5 -46.5t26 -21q14 0 30 12.5t32.5 41t31 74.5t25.5 114l72 456h-115l8 28h112l4 27q12 78 43.5 130t72 83.5t84 45t81.5 13.5q19 0 40.5 -3
t41 -9t36.5 -15.5t29 -22.5q44 38 93.5 54t92.5 16q34 0 68.5 -7t62.5 -21t45.5 -35t17.5 -48q0 -25 -18.5 -45.5t-52.5 -20.5q-24 0 -39.5 11.5t-26.5 29.5t-18.5 38t-15 38t-16 29.5t-20.5 11.5q-15 0 -31.5 -11.5t-33 -38.5t-31.5 -71t-25 -109l-12 -70h319l-75 -368
q-8 -38 -3.5 -51.5t17.5 -13.5q14 0 31.5 21.5t39.5 61.5l17 -7q-9 -29 -22.5 -54.5t-31.5 -44t-41.5 -29t-53.5 -10.5q-58 0 -87.5 44t-9.5 139l60 284h-164zM295 481h166l8 47q5 31 13 57.5t19 49.5q-18 10 -28.5 31t-18.5 42t-16.5 37t-23.5 16q-14 0 -29 -11.5
t-29.5 -38.5t-28.5 -71t-24 -109z" />
    <glyph glyph-name="f_l.liga" unicode="fl" horiz-adv-x="663" 
d="M30 481h112l7 47q12 78 43.5 130t71.5 83.5t84 45t82 13.5q20 0 42 -3t43 -10h146l-112 -675q-6 -38 -2.5 -51t17.5 -13t31.5 21.5t39.5 61.5l17 -7q-9 -29 -22.5 -54.5t-31.5 -44t-41.5 -29t-53.5 -10.5q-65 0 -89.5 43.5t-7.5 139.5l84 499q-11 14 -17.5 33.5t-13.5 37
t-16.5 30t-25.5 12.5q-14 0 -29 -11.5t-30 -38.5t-28.5 -71t-23.5 -109l-11 -70h119l-7 -28h-116l-69 -447q-12 -78 -43 -130.5t-71 -84t-84 -44.5t-81 -13q-28 0 -59 6t-57.5 17.5t-43.5 29.5t-17 42q0 23 15.5 42t50.5 19q22 0 36 -10t23.5 -25t15.5 -33t12 -33t13.5 -25
t18.5 -10q15 0 31 11.5t31 38t28.5 70.5t23.5 109l72 470h-115z" />
    <glyph glyph-name="f_f_l.liga" unicode="ffl" horiz-adv-x="983" 
d="M142 481l4 27q12 78 43.5 130t72 83.5t84 45t81.5 13.5q19 0 40 -3t40.5 -9t36.5 -15t29 -21q42 37 89 52.5t88 15.5q20 0 42 -3t43 -10h146l-112 -675q-6 -38 -2.5 -51t17.5 -13t31.5 21.5t39.5 61.5l17 -7q-9 -29 -22.5 -54.5t-31.5 -44t-41.5 -29t-53.5 -10.5
q-65 0 -89.5 43.5t-7.5 139.5l84 499q-11 14 -17.5 33.5t-13.5 37t-16.5 30t-25.5 12.5q-14 0 -29 -11.5t-29.5 -38.5t-28.5 -71t-24 -109l-12 -70h120l-7 -28h-117l-81 -500q-12 -75 -40 -124t-64 -77.5t-76 -40t-75 -11.5q-26 0 -50 4.5t-42.5 14.5t-29.5 25.5t-11 36.5
q0 23 16 42t48 19q20 0 31.5 -9t17 -22t7.5 -29t4 -29t6 -22t14 -9q13 0 24.5 9.5t23 33t21.5 63.5t20 102l83 523h-167l-64 -405q-13 -82 -42.5 -141.5t-68.5 -97.5t-84 -56.5t-90 -18.5q-27 0 -57.5 6t-57 17.5t-43.5 29.5t-17 42q0 23 15.5 42t50.5 19q33 0 48 -21
t23.5 -46.5t16.5 -46.5t26 -21q14 0 30 12.5t32.5 41t31 74.5t25.5 114l72 456h-115l8 28h112zM295 481h166l8 47q9 61 32 107q-18 10 -28.5 31t-18.5 42t-16.5 37t-23.5 16q-14 0 -29 -11.5t-29.5 -38.5t-28.5 -71t-24 -109z" />
    <glyph glyph-name=".notdef" horiz-adv-x="700" 
d="M100 758h500v-758h-500v758zM119 728v-698l220 349zM581 30v698l-221 -349zM133 19h434l-217 343zM350 395l217 344h-434z" />
    <glyph glyph-name="glyph1" horiz-adv-x="0" 
 />
    <glyph glyph-name="glyph2" 
 />
    <glyph glyph-name="space" unicode=" " 
 />
    <glyph glyph-name="comma" unicode="," horiz-adv-x="275" 
d="M102 -9q-32 2 -54.5 26.5t-22.5 62.5q0 42 27 68t68 26q39 0 65.5 -26t26.5 -72q0 -31 -19 -69.5t-51.5 -76t-77 -71t-95.5 -55.5l-3 7q23 16 46 38t42 46t32 49t16 47z" />
    <glyph glyph-name="hyphen" unicode="-" horiz-adv-x="409" 
d="M63 279h294l-7 -47h-294z" />
    <glyph glyph-name="period" unicode="." horiz-adv-x="269" 
d="M22 80q0 19 7.5 36.5t20 30t29.5 20t37 7.5q39 0 66.5 -27.5t27.5 -66.5q0 -20 -7.5 -37t-20 -29.5t-30 -20t-36.5 -7.5q-20 0 -37 7.5t-29.5 20t-20 29.5t-7.5 37z" />
    <glyph glyph-name="slash" unicode="/" horiz-adv-x="451" 
d="M-13 -33l473 853h53l-473 -853h-53z" />
    <glyph glyph-name="zero" unicode="0" horiz-adv-x="726" 
d="M346 -14q-70 0 -123 24t-88.5 67t-53.5 103t-18 133q0 94 27.5 172t75.5 134.5t113 88t139 31.5q70 0 123 -24t88.5 -67t53.5 -103t18 -133q0 -94 -27.5 -172t-75.5 -134.5t-113 -88t-139 -31.5zM340 14q31 0 58 23t49 61.5t39.5 88.5t29.5 103t18 105t6 96q0 58 -9 99.5
t-25 68.5t-37 39.5t-45 12.5q-31 0 -58 -23t-49 -61.5t-39.5 -88.5t-29.5 -103t-18 -105t-6 -96q0 -58 9 -99.5t25 -68.5t37 -39.5t45 -12.5z" />
    <glyph glyph-name="A" unicode="A" horiz-adv-x="768" 
d="M448 270h-239l-56 -104q-25 -46 -30 -74t3 -43.5t25.5 -20.5t38.5 -5h4l-3 -23h-243l3 23h3q21 0 37.5 4t34 19.5t38.5 46t50 83.5l352 647h14l178 -732q10 -40 32 -54t62 -14h4l-3 -23h-349l3 23h5q18 0 34 2t27 9t15.5 20t-0.5 34zM248 341h185l-53 245z" />
    <glyph glyph-name="A" unicode="&#x104;" horiz-adv-x="768" 
d="M448 270h-239l-56 -104q-25 -46 -30 -74t3 -43.5t25.5 -20.5t38.5 -5h4l-3 -23h-243l3 23h3q21 0 37.5 4t34 19.5t38.5 46t50 83.5l352 647h14l178 -732q10 -40 32 -54t62 -14h4l-3 -23h-349l3 23h5q18 0 34 2t27 9t15.5 20t-0.5 34zM248 341h185l-53 245z" />
    <glyph glyph-name="A" unicode="&#x102;" horiz-adv-x="768" 
d="M448 270h-239l-56 -104q-25 -46 -30 -74t3 -43.5t25.5 -20.5t38.5 -5h4l-3 -23h-243l3 23h3q21 0 37.5 4t34 19.5t38.5 46t50 83.5l352 647h14l178 -732q10 -40 32 -54t62 -14h4l-3 -23h-349l3 23h5q18 0 34 2t27 9t15.5 20t-0.5 34zM248 341h185l-53 245z" />
    <glyph glyph-name="A" unicode="&#x100;" horiz-adv-x="768" 
d="M448 270h-239l-56 -104q-25 -46 -30 -74t3 -43.5t25.5 -20.5t38.5 -5h4l-3 -23h-243l3 23h3q21 0 37.5 4t34 19.5t38.5 46t50 83.5l352 647h14l178 -732q10 -40 32 -54t62 -14h4l-3 -23h-349l3 23h5q18 0 34 2t27 9t15.5 20t-0.5 34zM248 341h185l-53 245z" />
    <glyph glyph-name="A" unicode="&#xc6;" horiz-adv-x="768" 
d="M448 270h-239l-56 -104q-25 -46 -30 -74t3 -43.5t25.5 -20.5t38.5 -5h4l-3 -23h-243l3 23h3q21 0 37.5 4t34 19.5t38.5 46t50 83.5l352 647h14l178 -732q10 -40 32 -54t62 -14h4l-3 -23h-349l3 23h5q18 0 34 2t27 9t15.5 20t-0.5 34zM248 341h185l-53 245z" />
    <glyph glyph-name="A" unicode="&#xc5;" horiz-adv-x="768" 
d="M448 270h-239l-56 -104q-25 -46 -30 -74t3 -43.5t25.5 -20.5t38.5 -5h4l-3 -23h-243l3 23h3q21 0 37.5 4t34 19.5t38.5 46t50 83.5l352 647h14l178 -732q10 -40 32 -54t62 -14h4l-3 -23h-349l3 23h5q18 0 34 2t27 9t15.5 20t-0.5 34zM248 341h185l-53 245z" />
    <glyph glyph-name="A" unicode="&#xc4;" horiz-adv-x="768" 
d="M448 270h-239l-56 -104q-25 -46 -30 -74t3 -43.5t25.5 -20.5t38.5 -5h4l-3 -23h-243l3 23h3q21 0 37.5 4t34 19.5t38.5 46t50 83.5l352 647h14l178 -732q10 -40 32 -54t62 -14h4l-3 -23h-349l3 23h5q18 0 34 2t27 9t15.5 20t-0.5 34zM248 341h185l-53 245z" />
    <glyph glyph-name="A" unicode="&#xc3;" horiz-adv-x="768" 
d="M448 270h-239l-56 -104q-25 -46 -30 -74t3 -43.5t25.5 -20.5t38.5 -5h4l-3 -23h-243l3 23h3q21 0 37.5 4t34 19.5t38.5 46t50 83.5l352 647h14l178 -732q10 -40 32 -54t62 -14h4l-3 -23h-349l3 23h5q18 0 34 2t27 9t15.5 20t-0.5 34zM248 341h185l-53 245z" />
    <glyph glyph-name="A" unicode="&#xc2;" horiz-adv-x="768" 
d="M448 270h-239l-56 -104q-25 -46 -30 -74t3 -43.5t25.5 -20.5t38.5 -5h4l-3 -23h-243l3 23h3q21 0 37.5 4t34 19.5t38.5 46t50 83.5l352 647h14l178 -732q10 -40 32 -54t62 -14h4l-3 -23h-349l3 23h5q18 0 34 2t27 9t15.5 20t-0.5 34zM248 341h185l-53 245z" />
    <glyph glyph-name="A" unicode="&#xc1;" horiz-adv-x="768" 
d="M448 270h-239l-56 -104q-25 -46 -30 -74t3 -43.5t25.5 -20.5t38.5 -5h4l-3 -23h-243l3 23h3q21 0 37.5 4t34 19.5t38.5 46t50 83.5l352 647h14l178 -732q10 -40 32 -54t62 -14h4l-3 -23h-349l3 23h5q18 0 34 2t27 9t15.5 20t-0.5 34zM248 341h185l-53 245z" />
    <glyph glyph-name="A" unicode="&#xc0;" horiz-adv-x="768" 
d="M448 270h-239l-56 -104q-25 -46 -30 -74t3 -43.5t25.5 -20.5t38.5 -5h4l-3 -23h-243l3 23h3q21 0 37.5 4t34 19.5t38.5 46t50 83.5l352 647h14l178 -732q10 -40 32 -54t62 -14h4l-3 -23h-349l3 23h5q18 0 34 2t27 9t15.5 20t-0.5 34zM248 341h185l-53 245z" />
    <glyph glyph-name="B" unicode="B" horiz-adv-x="723" 
d="M259 84q-3 -19 -3.5 -30t4.5 -16.5t17.5 -7t35.5 -1.5h4q92 0 145.5 53t53.5 150q0 31 -10 60.5t-33 52t-61 36.5t-94 14h-10zM313 429h13q54 0 91.5 15.5t61 40.5t34 56.5t10.5 63.5q0 74 -34 113t-107 39h-16zM384 787q67 0 123 -10t97 -32t64 -56t23 -83
q0 -44 -22 -78t-56.5 -58.5t-78 -39t-86.5 -17.5q113 -7 174.5 -56t61.5 -127q0 -69 -30.5 -114t-80 -70.5t-111 -35.5t-122.5 -10h-346l3 23h2q53 0 72 14t24 43l99 627q4 29 -11 43t-65 14h-5l3 23h268z" />
    <glyph glyph-name="C" unicode="C" horiz-adv-x="806" 
d="M737 56q-65 -34 -134 -52t-144 -18q-94 0 -167.5 28t-124.5 78t-78 119t-27 152q0 99 37.5 180.5t102 139.5t150.5 90t183 32q81 0 149.5 -21.5t125.5 -59.5l-20 -191h-15q-9 52 -28 95.5t-48.5 75.5t-70 50t-91.5 18q-53 0 -96 -18.5t-77 -51t-59 -76.5t-41.5 -93.5
t-24.5 -103t-8 -105.5q0 -77 16.5 -134t47 -95t73 -57t94.5 -19q98 0 174 65.5t120 193.5h17z" />
    <glyph glyph-name="C" unicode="&#x10c;" horiz-adv-x="806" 
d="M737 56q-65 -34 -134 -52t-144 -18q-94 0 -167.5 28t-124.5 78t-78 119t-27 152q0 99 37.5 180.5t102 139.5t150.5 90t183 32q81 0 149.5 -21.5t125.5 -59.5l-20 -191h-15q-9 52 -28 95.5t-48.5 75.5t-70 50t-91.5 18q-53 0 -96 -18.5t-77 -51t-59 -76.5t-41.5 -93.5
t-24.5 -103t-8 -105.5q0 -77 16.5 -134t47 -95t73 -57t94.5 -19q98 0 174 65.5t120 193.5h17z" />
    <glyph glyph-name="C" unicode="&#x10a;" horiz-adv-x="806" 
d="M737 56q-65 -34 -134 -52t-144 -18q-94 0 -167.5 28t-124.5 78t-78 119t-27 152q0 99 37.5 180.5t102 139.5t150.5 90t183 32q81 0 149.5 -21.5t125.5 -59.5l-20 -191h-15q-9 52 -28 95.5t-48.5 75.5t-70 50t-91.5 18q-53 0 -96 -18.5t-77 -51t-59 -76.5t-41.5 -93.5
t-24.5 -103t-8 -105.5q0 -77 16.5 -134t47 -95t73 -57t94.5 -19q98 0 174 65.5t120 193.5h17z" />
    <glyph glyph-name="C" unicode="&#x108;" horiz-adv-x="806" 
d="M737 56q-65 -34 -134 -52t-144 -18q-94 0 -167.5 28t-124.5 78t-78 119t-27 152q0 99 37.5 180.5t102 139.5t150.5 90t183 32q81 0 149.5 -21.5t125.5 -59.5l-20 -191h-15q-9 52 -28 95.5t-48.5 75.5t-70 50t-91.5 18q-53 0 -96 -18.5t-77 -51t-59 -76.5t-41.5 -93.5
t-24.5 -103t-8 -105.5q0 -77 16.5 -134t47 -95t73 -57t94.5 -19q98 0 174 65.5t120 193.5h17z" />
    <glyph glyph-name="C" unicode="&#x106;" horiz-adv-x="806" 
d="M737 56q-65 -34 -134 -52t-144 -18q-94 0 -167.5 28t-124.5 78t-78 119t-27 152q0 99 37.5 180.5t102 139.5t150.5 90t183 32q81 0 149.5 -21.5t125.5 -59.5l-20 -191h-15q-9 52 -28 95.5t-48.5 75.5t-70 50t-91.5 18q-53 0 -96 -18.5t-77 -51t-59 -76.5t-41.5 -93.5
t-24.5 -103t-8 -105.5q0 -77 16.5 -134t47 -95t73 -57t94.5 -19q98 0 174 65.5t120 193.5h17z" />
    <glyph glyph-name="C" unicode="&#xc7;" horiz-adv-x="806" 
d="M737 56q-65 -34 -134 -52t-144 -18q-94 0 -167.5 28t-124.5 78t-78 119t-27 152q0 99 37.5 180.5t102 139.5t150.5 90t183 32q81 0 149.5 -21.5t125.5 -59.5l-20 -191h-15q-9 52 -28 95.5t-48.5 75.5t-70 50t-91.5 18q-53 0 -96 -18.5t-77 -51t-59 -76.5t-41.5 -93.5
t-24.5 -103t-8 -105.5q0 -77 16.5 -134t47 -95t73 -57t94.5 -19q98 0 174 65.5t120 193.5h17z" />
    <glyph glyph-name="D" unicode="D" horiz-adv-x="857" 
d="M262 104q-4 -23 -4 -37.5t8.5 -22.5t26.5 -11.5t50 -3.5h4q64 0 123 29.5t104.5 84.5t72.5 132.5t27 172.5q0 87 -23 146t-60.5 95t-86.5 52t-101 16h-38zM410 787q106 0 187 -24.5t136 -70t83 -111t28 -147.5q0 -91 -33.5 -170.5t-96 -138t-150.5 -92t-197 -33.5h-373
l3 23h2q53 0 72 14t24 43l99 627q4 29 -11 43t-65 14h-5l3 23h294z" />
    <glyph glyph-name="D" unicode="&#x110;" horiz-adv-x="857" 
d="M262 104q-4 -23 -4 -37.5t8.5 -22.5t26.5 -11.5t50 -3.5h4q64 0 123 29.5t104.5 84.5t72.5 132.5t27 172.5q0 87 -23 146t-60.5 95t-86.5 52t-101 16h-38zM410 787q106 0 187 -24.5t136 -70t83 -111t28 -147.5q0 -91 -33.5 -170.5t-96 -138t-150.5 -92t-197 -33.5h-373
l3 23h2q53 0 72 14t24 43l99 627q4 29 -11 43t-65 14h-5l3 23h294z" />
    <glyph glyph-name="D" unicode="&#x10e;" horiz-adv-x="857" 
d="M262 104q-4 -23 -4 -37.5t8.5 -22.5t26.5 -11.5t50 -3.5h4q64 0 123 29.5t104.5 84.5t72.5 132.5t27 172.5q0 87 -23 146t-60.5 95t-86.5 52t-101 16h-38zM410 787q106 0 187 -24.5t136 -70t83 -111t28 -147.5q0 -91 -33.5 -170.5t-96 -138t-150.5 -92t-197 -33.5h-373
l3 23h2q53 0 72 14t24 43l99 627q4 29 -11 43t-65 14h-5l3 23h294z" />
    <glyph glyph-name="D" unicode="&#xd0;" horiz-adv-x="857" 
d="M262 104q-4 -23 -4 -37.5t8.5 -22.5t26.5 -11.5t50 -3.5h4q64 0 123 29.5t104.5 84.5t72.5 132.5t27 172.5q0 87 -23 146t-60.5 95t-86.5 52t-101 16h-38zM410 787q106 0 187 -24.5t136 -70t83 -111t28 -147.5q0 -91 -33.5 -170.5t-96 -138t-150.5 -92t-197 -33.5h-373
l3 23h2q53 0 72 14t24 43l99 627q4 29 -11 43t-65 14h-5l3 23h294z" />
    <glyph glyph-name="E" unicode="E" horiz-adv-x="701" 
d="M315 442h83q24 0 47.5 4.5t44 17t37.5 36.5t30 63h15l-43 -280h-15q0 34 -10.5 57.5t-28 38t-39 20.5t-44.5 6h-83l-49 -313q-5 -35 5.5 -45t41.5 -10h87q94 0 158 47t93 142h15l-33 -226h-633l3 23h2q53 0 72 14t24 43l99 627q4 29 -11 43t-65 14h-5l3 23h599l-27 -210
h-15q-2 42 -15 73.5t-39.5 53.5t-68.5 33t-102 11h-84z" />
    <glyph glyph-name="E" unicode="&#x11a;" horiz-adv-x="701" 
d="M315 442h83q24 0 47.5 4.5t44 17t37.5 36.5t30 63h15l-43 -280h-15q0 34 -10.5 57.5t-28 38t-39 20.5t-44.5 6h-83l-49 -313q-5 -35 5.5 -45t41.5 -10h87q94 0 158 47t93 142h15l-33 -226h-633l3 23h2q53 0 72 14t24 43l99 627q4 29 -11 43t-65 14h-5l3 23h599l-27 -210
h-15q-2 42 -15 73.5t-39.5 53.5t-68.5 33t-102 11h-84z" />
    <glyph glyph-name="E" unicode="&#x118;" horiz-adv-x="701" 
d="M315 442h83q24 0 47.5 4.5t44 17t37.5 36.5t30 63h15l-43 -280h-15q0 34 -10.5 57.5t-28 38t-39 20.5t-44.5 6h-83l-49 -313q-5 -35 5.5 -45t41.5 -10h87q94 0 158 47t93 142h15l-33 -226h-633l3 23h2q53 0 72 14t24 43l99 627q4 29 -11 43t-65 14h-5l3 23h599l-27 -210
h-15q-2 42 -15 73.5t-39.5 53.5t-68.5 33t-102 11h-84z" />
    <glyph glyph-name="E" unicode="&#x116;" horiz-adv-x="701" 
d="M315 442h83q24 0 47.5 4.5t44 17t37.5 36.5t30 63h15l-43 -280h-15q0 34 -10.5 57.5t-28 38t-39 20.5t-44.5 6h-83l-49 -313q-5 -35 5.5 -45t41.5 -10h87q94 0 158 47t93 142h15l-33 -226h-633l3 23h2q53 0 72 14t24 43l99 627q4 29 -11 43t-65 14h-5l3 23h599l-27 -210
h-15q-2 42 -15 73.5t-39.5 53.5t-68.5 33t-102 11h-84z" />
    <glyph glyph-name="E" unicode="&#x114;" horiz-adv-x="701" 
d="M315 442h83q24 0 47.5 4.5t44 17t37.5 36.5t30 63h15l-43 -280h-15q0 34 -10.5 57.5t-28 38t-39 20.5t-44.5 6h-83l-49 -313q-5 -35 5.5 -45t41.5 -10h87q94 0 158 47t93 142h15l-33 -226h-633l3 23h2q53 0 72 14t24 43l99 627q4 29 -11 43t-65 14h-5l3 23h599l-27 -210
h-15q-2 42 -15 73.5t-39.5 53.5t-68.5 33t-102 11h-84z" />
    <glyph glyph-name="E" unicode="&#x112;" horiz-adv-x="701" 
d="M315 442h83q24 0 47.5 4.5t44 17t37.5 36.5t30 63h15l-43 -280h-15q0 34 -10.5 57.5t-28 38t-39 20.5t-44.5 6h-83l-49 -313q-5 -35 5.5 -45t41.5 -10h87q94 0 158 47t93 142h15l-33 -226h-633l3 23h2q53 0 72 14t24 43l99 627q4 29 -11 43t-65 14h-5l3 23h599l-27 -210
h-15q-2 42 -15 73.5t-39.5 53.5t-68.5 33t-102 11h-84z" />
    <glyph glyph-name="E" unicode="&#xcb;" horiz-adv-x="701" 
d="M315 442h83q24 0 47.5 4.5t44 17t37.5 36.5t30 63h15l-43 -280h-15q0 34 -10.5 57.5t-28 38t-39 20.5t-44.5 6h-83l-49 -313q-5 -35 5.5 -45t41.5 -10h87q94 0 158 47t93 142h15l-33 -226h-633l3 23h2q53 0 72 14t24 43l99 627q4 29 -11 43t-65 14h-5l3 23h599l-27 -210
h-15q-2 42 -15 73.5t-39.5 53.5t-68.5 33t-102 11h-84z" />
    <glyph glyph-name="E" unicode="&#xca;" horiz-adv-x="701" 
d="M315 442h83q24 0 47.5 4.5t44 17t37.5 36.5t30 63h15l-43 -280h-15q0 34 -10.5 57.5t-28 38t-39 20.5t-44.5 6h-83l-49 -313q-5 -35 5.5 -45t41.5 -10h87q94 0 158 47t93 142h15l-33 -226h-633l3 23h2q53 0 72 14t24 43l99 627q4 29 -11 43t-65 14h-5l3 23h599l-27 -210
h-15q-2 42 -15 73.5t-39.5 53.5t-68.5 33t-102 11h-84z" />
    <glyph glyph-name="E" unicode="&#xc9;" horiz-adv-x="701" 
d="M315 442h83q24 0 47.5 4.5t44 17t37.5 36.5t30 63h15l-43 -280h-15q0 34 -10.5 57.5t-28 38t-39 20.5t-44.5 6h-83l-49 -313q-5 -35 5.5 -45t41.5 -10h87q94 0 158 47t93 142h15l-33 -226h-633l3 23h2q53 0 72 14t24 43l99 627q4 29 -11 43t-65 14h-5l3 23h599l-27 -210
h-15q-2 42 -15 73.5t-39.5 53.5t-68.5 33t-102 11h-84z" />
    <glyph glyph-name="E" unicode="&#xc8;" horiz-adv-x="701" 
d="M315 442h83q24 0 47.5 4.5t44 17t37.5 36.5t30 63h15l-43 -280h-15q0 34 -10.5 57.5t-28 38t-39 20.5t-44.5 6h-83l-49 -313q-5 -35 5.5 -45t41.5 -10h87q94 0 158 47t93 142h15l-33 -226h-633l3 23h2q53 0 72 14t24 43l99 627q4 29 -11 43t-65 14h-5l3 23h599l-27 -210
h-15q-2 42 -15 73.5t-39.5 53.5t-68.5 33t-102 11h-84z" />
    <glyph glyph-name="F" unicode="F" horiz-adv-x="672" 
d="M312 422h95q24 0 47.5 4.5t44 17t37.5 36.5t30 63h15l-43 -280h-15q0 34 -10.5 57.5t-28 38t-39 20.5t-44.5 6h-95l-48 -305q-5 -29 16 -43t81 -14h4l-3 -23h-362l3 23h2q53 0 72 14t24 43l99 627q4 29 -11 43t-65 14h-5l3 23h619l-28 -210h-15q-2 42 -14.5 73.5
t-39 53.5t-68.5 33t-102 11h-104z" />
    <glyph glyph-name="G" unicode="G" horiz-adv-x="871" 
d="M459 -14q-94 0 -167.5 28t-124.5 78t-78 119t-27 152q0 99 37.5 180.5t102 139.5t150.5 90t183 32q81 0 149.5 -21.5t125.5 -59.5l-20 -191h-15q-9 52 -28 95.5t-48.5 75.5t-70 50t-91.5 18q-53 0 -96 -18.5t-77 -51t-59 -76.5t-41.5 -93.5t-24.5 -103t-8 -105.5
q0 -77 16.5 -134t47 -95t73.5 -57t95 -19q27 0 48.5 5t40.5 14t36 22.5t34 30.5l28 185q5 33 -34 33h-50l3 23h313l-3 -23h-29q-41 0 -46 -33l-26 -165q-60 -57 -136.5 -91t-182.5 -34z" />
    <glyph glyph-name="G" unicode="&#x122;" horiz-adv-x="871" 
d="M459 -14q-94 0 -167.5 28t-124.5 78t-78 119t-27 152q0 99 37.5 180.5t102 139.5t150.5 90t183 32q81 0 149.5 -21.5t125.5 -59.5l-20 -191h-15q-9 52 -28 95.5t-48.5 75.5t-70 50t-91.5 18q-53 0 -96 -18.5t-77 -51t-59 -76.5t-41.5 -93.5t-24.5 -103t-8 -105.5
q0 -77 16.5 -134t47 -95t73.5 -57t95 -19q27 0 48.5 5t40.5 14t36 22.5t34 30.5l28 185q5 33 -34 33h-50l3 23h313l-3 -23h-29q-41 0 -46 -33l-26 -165q-60 -57 -136.5 -91t-182.5 -34z" />
    <glyph glyph-name="G" unicode="&#x120;" horiz-adv-x="871" 
d="M459 -14q-94 0 -167.5 28t-124.5 78t-78 119t-27 152q0 99 37.5 180.5t102 139.5t150.5 90t183 32q81 0 149.5 -21.5t125.5 -59.5l-20 -191h-15q-9 52 -28 95.5t-48.5 75.5t-70 50t-91.5 18q-53 0 -96 -18.5t-77 -51t-59 -76.5t-41.5 -93.5t-24.5 -103t-8 -105.5
q0 -77 16.5 -134t47 -95t73.5 -57t95 -19q27 0 48.5 5t40.5 14t36 22.5t34 30.5l28 185q5 33 -34 33h-50l3 23h313l-3 -23h-29q-41 0 -46 -33l-26 -165q-60 -57 -136.5 -91t-182.5 -34z" />
    <glyph glyph-name="G" unicode="&#x11e;" horiz-adv-x="871" 
d="M459 -14q-94 0 -167.5 28t-124.5 78t-78 119t-27 152q0 99 37.5 180.5t102 139.5t150.5 90t183 32q81 0 149.5 -21.5t125.5 -59.5l-20 -191h-15q-9 52 -28 95.5t-48.5 75.5t-70 50t-91.5 18q-53 0 -96 -18.5t-77 -51t-59 -76.5t-41.5 -93.5t-24.5 -103t-8 -105.5
q0 -77 16.5 -134t47 -95t73.5 -57t95 -19q27 0 48.5 5t40.5 14t36 22.5t34 30.5l28 185q5 33 -34 33h-50l3 23h313l-3 -23h-29q-41 0 -46 -33l-26 -165q-60 -57 -136.5 -91t-182.5 -34z" />
    <glyph glyph-name="G" unicode="&#x11c;" horiz-adv-x="871" 
d="M459 -14q-94 0 -167.5 28t-124.5 78t-78 119t-27 152q0 99 37.5 180.5t102 139.5t150.5 90t183 32q81 0 149.5 -21.5t125.5 -59.5l-20 -191h-15q-9 52 -28 95.5t-48.5 75.5t-70 50t-91.5 18q-53 0 -96 -18.5t-77 -51t-59 -76.5t-41.5 -93.5t-24.5 -103t-8 -105.5
q0 -77 16.5 -134t47 -95t73.5 -57t95 -19q27 0 48.5 5t40.5 14t36 22.5t34 30.5l28 185q5 33 -34 33h-50l3 23h313l-3 -23h-29q-41 0 -46 -33l-26 -165q-60 -57 -136.5 -91t-182.5 -34z" />
    <glyph glyph-name="H" unicode="H" horiz-adv-x="891" 
d="M629 386h-322l-48 -306q-2 -14 0 -25t10.5 -18t25 -10.5t42.5 -3.5h3l-3 -23h-343l3 23h2q53 0 72 14t24 43l99 627q4 29 -11 43t-65 14h-5l3 23h344l-3 -23h-2q-53 0 -72.5 -14t-24.5 -43l-45 -284h322l45 284q4 29 -11 43t-65 14h-5l3 23h344l-3 -23h-2
q-53 0 -72.5 -14t-24.5 -43l-99 -627q-2 -14 0 -25t10.5 -18t25 -10.5t42.5 -3.5h3l-3 -23h-343l3 23h2q53 0 72 14t24 43z" />
    <glyph glyph-name="H" unicode="&#x126;" horiz-adv-x="891" 
d="M629 386h-322l-48 -306q-2 -14 0 -25t10.5 -18t25 -10.5t42.5 -3.5h3l-3 -23h-343l3 23h2q53 0 72 14t24 43l99 627q4 29 -11 43t-65 14h-5l3 23h344l-3 -23h-2q-53 0 -72.5 -14t-24.5 -43l-45 -284h322l45 284q4 29 -11 43t-65 14h-5l3 23h344l-3 -23h-2
q-53 0 -72.5 -14t-24.5 -43l-99 -627q-2 -14 0 -25t10.5 -18t25 -10.5t42.5 -3.5h3l-3 -23h-343l3 23h2q53 0 72 14t24 43z" />
    <glyph glyph-name="H" unicode="&#x124;" horiz-adv-x="891" 
d="M629 386h-322l-48 -306q-2 -14 0 -25t10.5 -18t25 -10.5t42.5 -3.5h3l-3 -23h-343l3 23h2q53 0 72 14t24 43l99 627q4 29 -11 43t-65 14h-5l3 23h344l-3 -23h-2q-53 0 -72.5 -14t-24.5 -43l-45 -284h322l45 284q4 29 -11 43t-65 14h-5l3 23h344l-3 -23h-2
q-53 0 -72.5 -14t-24.5 -43l-99 -627q-2 -14 0 -25t10.5 -18t25 -10.5t42.5 -3.5h3l-3 -23h-343l3 23h2q53 0 72 14t24 43z" />
    <glyph glyph-name="I" unicode="I" horiz-adv-x="405" 
d="M194 707q4 29 -11 43t-65 14h-5l3 23h344l-3 -23h-2q-53 0 -72.5 -14t-24.5 -43l-99 -627q-2 -14 0 -25t10.5 -18t25 -10.5t42.5 -3.5h3l-3 -23h-343l3 23h2q53 0 72 14t24 43z" />
    <glyph glyph-name="I" unicode="&#x1eca;" horiz-adv-x="405" 
d="M194 707q4 29 -11 43t-65 14h-5l3 23h344l-3 -23h-2q-53 0 -72.5 -14t-24.5 -43l-99 -627q-2 -14 0 -25t10.5 -18t25 -10.5t42.5 -3.5h3l-3 -23h-343l3 23h2q53 0 72 14t24 43z" />
    <glyph glyph-name="I" unicode="&#x130;" horiz-adv-x="405" 
d="M194 707q4 29 -11 43t-65 14h-5l3 23h344l-3 -23h-2q-53 0 -72.5 -14t-24.5 -43l-99 -627q-2 -14 0 -25t10.5 -18t25 -10.5t42.5 -3.5h3l-3 -23h-343l3 23h2q53 0 72 14t24 43z" />
    <glyph glyph-name="I" unicode="&#x12e;" horiz-adv-x="405" 
d="M194 707q4 29 -11 43t-65 14h-5l3 23h344l-3 -23h-2q-53 0 -72.5 -14t-24.5 -43l-99 -627q-2 -14 0 -25t10.5 -18t25 -10.5t42.5 -3.5h3l-3 -23h-343l3 23h2q53 0 72 14t24 43z" />
    <glyph glyph-name="I" unicode="&#x12c;" horiz-adv-x="405" 
d="M194 707q4 29 -11 43t-65 14h-5l3 23h344l-3 -23h-2q-53 0 -72.5 -14t-24.5 -43l-99 -627q-2 -14 0 -25t10.5 -18t25 -10.5t42.5 -3.5h3l-3 -23h-343l3 23h2q53 0 72 14t24 43z" />
    <glyph glyph-name="I" unicode="&#x12a;" horiz-adv-x="405" 
d="M194 707q4 29 -11 43t-65 14h-5l3 23h344l-3 -23h-2q-53 0 -72.5 -14t-24.5 -43l-99 -627q-2 -14 0 -25t10.5 -18t25 -10.5t42.5 -3.5h3l-3 -23h-343l3 23h2q53 0 72 14t24 43z" />
    <glyph glyph-name="I" unicode="&#x128;" horiz-adv-x="405" 
d="M194 707q4 29 -11 43t-65 14h-5l3 23h344l-3 -23h-2q-53 0 -72.5 -14t-24.5 -43l-99 -627q-2 -14 0 -25t10.5 -18t25 -10.5t42.5 -3.5h3l-3 -23h-343l3 23h2q53 0 72 14t24 43z" />
    <glyph glyph-name="I" unicode="&#xcf;" horiz-adv-x="405" 
d="M194 707q4 29 -11 43t-65 14h-5l3 23h344l-3 -23h-2q-53 0 -72.5 -14t-24.5 -43l-99 -627q-2 -14 0 -25t10.5 -18t25 -10.5t42.5 -3.5h3l-3 -23h-343l3 23h2q53 0 72 14t24 43z" />
    <glyph glyph-name="I" unicode="&#xce;" horiz-adv-x="405" 
d="M194 707q4 29 -11 43t-65 14h-5l3 23h344l-3 -23h-2q-53 0 -72.5 -14t-24.5 -43l-99 -627q-2 -14 0 -25t10.5 -18t25 -10.5t42.5 -3.5h3l-3 -23h-343l3 23h2q53 0 72 14t24 43z" />
    <glyph glyph-name="I" unicode="&#xcd;" horiz-adv-x="405" 
d="M194 707q4 29 -11 43t-65 14h-5l3 23h344l-3 -23h-2q-53 0 -72.5 -14t-24.5 -43l-99 -627q-2 -14 0 -25t10.5 -18t25 -10.5t42.5 -3.5h3l-3 -23h-343l3 23h2q53 0 72 14t24 43z" />
    <glyph glyph-name="I" unicode="&#xcc;" horiz-adv-x="405" 
d="M194 707q4 29 -11 43t-65 14h-5l3 23h344l-3 -23h-2q-53 0 -72.5 -14t-24.5 -43l-99 -627q-2 -14 0 -25t10.5 -18t25 -10.5t42.5 -3.5h3l-3 -23h-343l3 23h2q53 0 72 14t24 43z" />
    <glyph glyph-name="J" unicode="J" horiz-adv-x="525" 
d="M330 707q4 29 -11 43t-65 14h-5l3 23h344l-3 -23h-2q-53 0 -72.5 -14t-24.5 -43l-66 -409q-9 -57 -24 -113t-43.5 -100t-75.5 -71.5t-122 -27.5q-89 0 -135.5 30t-46.5 75q0 38 21.5 56t49.5 18q32 0 49 -19t27 -45q6 -16 10.5 -32.5t9.5 -29.5t11 -21.5t15 -8.5
q15 0 26 16t20.5 50.5t20 89.5t23.5 133z" />
    <glyph glyph-name="J" unicode="&#x134;" horiz-adv-x="525" 
d="M330 707q4 29 -11 43t-65 14h-5l3 23h344l-3 -23h-2q-53 0 -72.5 -14t-24.5 -43l-66 -409q-9 -57 -24 -113t-43.5 -100t-75.5 -71.5t-122 -27.5q-89 0 -135.5 30t-46.5 75q0 38 21.5 56t49.5 18q32 0 49 -19t27 -45q6 -16 10.5 -32.5t9.5 -29.5t11 -21.5t15 -8.5
q15 0 26 16t20.5 50.5t20 89.5t23.5 133z" />
    <glyph glyph-name="K" unicode="K" horiz-adv-x="821" 
d="M194 707q4 29 -11 43t-65 14h-5l3 23h344l-3 -23h-2q-53 0 -72.5 -14t-24.5 -43l-49 -311l236 239q70 71 72.5 100t-54.5 29h-9l3 23h288l-3 -23h-8q-53 0 -101 -21.5t-94 -67.5l-202 -204l245 -367q19 -29 37 -45.5t35.5 -25.5t33 -11.5t30.5 -2.5l-1 -19
q-30 -7 -55 -10t-52 -3q-36 0 -68.5 6t-62.5 21t-57.5 40.5t-52.5 64.5l-164 254l-46 -293q-2 -14 0 -25t10.5 -18t25 -10.5t42.5 -3.5h3l-3 -23h-343l3 23h2q53 0 72 14t24 43z" />
    <glyph glyph-name="K" unicode="&#x136;" horiz-adv-x="821" 
d="M194 707q4 29 -11 43t-65 14h-5l3 23h344l-3 -23h-2q-53 0 -72.5 -14t-24.5 -43l-49 -311l236 239q70 71 72.5 100t-54.5 29h-9l3 23h288l-3 -23h-8q-53 0 -101 -21.5t-94 -67.5l-202 -204l245 -367q19 -29 37 -45.5t35.5 -25.5t33 -11.5t30.5 -2.5l-1 -19
q-30 -7 -55 -10t-52 -3q-36 0 -68.5 6t-62.5 21t-57.5 40.5t-52.5 64.5l-164 254l-46 -293q-2 -14 0 -25t10.5 -18t25 -10.5t42.5 -3.5h3l-3 -23h-343l3 23h2q53 0 72 14t24 43z" />
    <glyph glyph-name="L" unicode="L" horiz-adv-x="676" 
d="M194 707q4 29 -11 43t-65 14h-5l3 23h364l-3 -23h-4q-61 0 -86 -14t-30 -43l-97 -615q-5 -35 5.5 -45t41.5 -10h82q190 0 254 209h15l-36 -246h-628l3 23h2q53 0 72 14t24 43z" />
    <glyph glyph-name="L" unicode="&#x141;" horiz-adv-x="676" 
d="M194 707q4 29 -11 43t-65 14h-5l3 23h364l-3 -23h-4q-61 0 -86 -14t-30 -43l-97 -615q-5 -35 5.5 -45t41.5 -10h82q190 0 254 209h15l-36 -246h-628l3 23h2q53 0 72 14t24 43z" />
    <glyph glyph-name="L" unicode="&#x13f;" horiz-adv-x="676" 
d="M194 707q4 29 -11 43t-65 14h-5l3 23h364l-3 -23h-4q-61 0 -86 -14t-30 -43l-97 -615q-5 -35 5.5 -45t41.5 -10h82q190 0 254 209h15l-36 -246h-628l3 23h2q53 0 72 14t24 43z" />
    <glyph glyph-name="L" unicode="&#x13d;" horiz-adv-x="676" 
d="M194 707q4 29 -11 43t-65 14h-5l3 23h364l-3 -23h-4q-61 0 -86 -14t-30 -43l-97 -615q-5 -35 5.5 -45t41.5 -10h82q190 0 254 209h15l-36 -246h-628l3 23h2q53 0 72 14t24 43z" />
    <glyph glyph-name="L" unicode="&#x13b;" horiz-adv-x="676" 
d="M194 707q4 29 -11 43t-65 14h-5l3 23h364l-3 -23h-4q-61 0 -86 -14t-30 -43l-97 -615q-5 -35 5.5 -45t41.5 -10h82q190 0 254 209h15l-36 -246h-628l3 23h2q53 0 72 14t24 43z" />
    <glyph glyph-name="L" unicode="&#x139;" horiz-adv-x="676" 
d="M194 707q4 29 -11 43t-65 14h-5l3 23h364l-3 -23h-4q-61 0 -86 -14t-30 -43l-97 -615q-5 -35 5.5 -45t41.5 -10h82q190 0 254 209h15l-36 -246h-628l3 23h2q53 0 72 14t24 43z" />
    <glyph glyph-name="M" unicode="M" horiz-adv-x="1005" 
d="M867 80q-4 -29 7 -43t43 -14h31l-3 -23h-344l3 23h31q61 0 68 57l69 545l-335 -639h-21l-165 644l-107 -493q-13 -60 9.5 -87t77.5 -27h3l-3 -23h-264l3 23h3q56 0 85 27.5t42 86.5l117 540q6 25 1.5 42t-16.5 27t-30.5 14t-42.5 4l3 23h256l133 -554l288 554h246l-3 -23
q-16 0 -34 -3t-33.5 -11.5t-27 -23.5t-14.5 -39z" />
    <glyph glyph-name="N" unicode="N" horiz-adv-x="858" 
d="M665 -14l-431 638l-75 -473q-10 -60 9.5 -94t72.5 -34h16l-4 -23h-270l4 23h3q56 0 87.5 34t40.5 94l82 524q6 41 -16.5 65t-82.5 24l3 23h225l365 -542l62 397q9 57 -11 89.5t-74 32.5h-13l3 23h272l-3 -23h-5q-57 0 -87.5 -33.5t-39.5 -88.5l-103 -656h-30z" />
    <glyph glyph-name="N" unicode="&#x14a;" horiz-adv-x="858" 
d="M665 -14l-431 638l-75 -473q-10 -60 9.5 -94t72.5 -34h16l-4 -23h-270l4 23h3q56 0 87.5 34t40.5 94l82 524q6 41 -16.5 65t-82.5 24l3 23h225l365 -542l62 397q9 57 -11 89.5t-74 32.5h-13l3 23h272l-3 -23h-5q-57 0 -87.5 -33.5t-39.5 -88.5l-103 -656h-30z" />
    <glyph glyph-name="N" unicode="&#x147;" horiz-adv-x="858" 
d="M665 -14l-431 638l-75 -473q-10 -60 9.5 -94t72.5 -34h16l-4 -23h-270l4 23h3q56 0 87.5 34t40.5 94l82 524q6 41 -16.5 65t-82.5 24l3 23h225l365 -542l62 397q9 57 -11 89.5t-74 32.5h-13l3 23h272l-3 -23h-5q-57 0 -87.5 -33.5t-39.5 -88.5l-103 -656h-30z" />
    <glyph glyph-name="N" unicode="&#x145;" horiz-adv-x="858" 
d="M665 -14l-431 638l-75 -473q-10 -60 9.5 -94t72.5 -34h16l-4 -23h-270l4 23h3q56 0 87.5 34t40.5 94l82 524q6 41 -16.5 65t-82.5 24l3 23h225l365 -542l62 397q9 57 -11 89.5t-74 32.5h-13l3 23h272l-3 -23h-5q-57 0 -87.5 -33.5t-39.5 -88.5l-103 -656h-30z" />
    <glyph glyph-name="N" unicode="&#x143;" horiz-adv-x="858" 
d="M665 -14l-431 638l-75 -473q-10 -60 9.5 -94t72.5 -34h16l-4 -23h-270l4 23h3q56 0 87.5 34t40.5 94l82 524q6 41 -16.5 65t-82.5 24l3 23h225l365 -542l62 397q9 57 -11 89.5t-74 32.5h-13l3 23h272l-3 -23h-5q-57 0 -87.5 -33.5t-39.5 -88.5l-103 -656h-30z" />
    <glyph glyph-name="N" unicode="&#xd1;" horiz-adv-x="858" 
d="M665 -14l-431 638l-75 -473q-10 -60 9.5 -94t72.5 -34h16l-4 -23h-270l4 23h3q56 0 87.5 34t40.5 94l82 524q6 41 -16.5 65t-82.5 24l3 23h225l365 -542l62 397q9 57 -11 89.5t-74 32.5h-13l3 23h272l-3 -23h-5q-57 0 -87.5 -33.5t-39.5 -88.5l-103 -656h-30z" />
    <glyph glyph-name="O" unicode="O" horiz-adv-x="899" 
d="M442 -14q-82 0 -151.5 25.5t-119.5 73.5t-78.5 118.5t-28.5 160.5q0 100 34.5 181t94.5 139t140.5 89.5t172.5 31.5q82 0 151.5 -25.5t119.5 -73.5t78.5 -118.5t28.5 -160.5q0 -100 -34.5 -181.5t-94.5 -139t-140.5 -89t-172.5 -31.5zM446 16q63 0 112.5 35.5t84 95
t53 137.5t18.5 164q0 83 -16 144.5t-44.5 102t-67.5 60.5t-84 20q-63 0 -113 -35.5t-84.5 -95t-52.5 -137.5t-18 -164q0 -83 16 -144.5t44.5 -102t67.5 -60.5t84 -20z" />
    <glyph glyph-name="O" unicode="&#x1ecc;" horiz-adv-x="899" 
d="M442 -14q-82 0 -151.5 25.5t-119.5 73.5t-78.5 118.5t-28.5 160.5q0 100 34.5 181t94.5 139t140.5 89.5t172.5 31.5q82 0 151.5 -25.5t119.5 -73.5t78.5 -118.5t28.5 -160.5q0 -100 -34.5 -181.5t-94.5 -139t-140.5 -89t-172.5 -31.5zM446 16q63 0 112.5 35.5t84 95
t53 137.5t18.5 164q0 83 -16 144.5t-44.5 102t-67.5 60.5t-84 20q-63 0 -113 -35.5t-84.5 -95t-52.5 -137.5t-18 -164q0 -83 16 -144.5t44.5 -102t67.5 -60.5t84 -20z" />
    <glyph glyph-name="O" unicode="&#x152;" horiz-adv-x="899" 
d="M442 -14q-82 0 -151.5 25.5t-119.5 73.5t-78.5 118.5t-28.5 160.5q0 100 34.5 181t94.5 139t140.5 89.5t172.5 31.5q82 0 151.5 -25.5t119.5 -73.5t78.5 -118.5t28.5 -160.5q0 -100 -34.5 -181.5t-94.5 -139t-140.5 -89t-172.5 -31.5zM446 16q63 0 112.5 35.5t84 95
t53 137.5t18.5 164q0 83 -16 144.5t-44.5 102t-67.5 60.5t-84 20q-63 0 -113 -35.5t-84.5 -95t-52.5 -137.5t-18 -164q0 -83 16 -144.5t44.5 -102t67.5 -60.5t84 -20z" />
    <glyph glyph-name="O" unicode="&#x150;" horiz-adv-x="899" 
d="M442 -14q-82 0 -151.5 25.5t-119.5 73.5t-78.5 118.5t-28.5 160.5q0 100 34.5 181t94.5 139t140.5 89.5t172.5 31.5q82 0 151.5 -25.5t119.5 -73.5t78.5 -118.5t28.5 -160.5q0 -100 -34.5 -181.5t-94.5 -139t-140.5 -89t-172.5 -31.5zM446 16q63 0 112.5 35.5t84 95
t53 137.5t18.5 164q0 83 -16 144.5t-44.5 102t-67.5 60.5t-84 20q-63 0 -113 -35.5t-84.5 -95t-52.5 -137.5t-18 -164q0 -83 16 -144.5t44.5 -102t67.5 -60.5t84 -20z" />
    <glyph glyph-name="O" unicode="&#x14e;" horiz-adv-x="899" 
d="M442 -14q-82 0 -151.5 25.5t-119.5 73.5t-78.5 118.5t-28.5 160.5q0 100 34.5 181t94.5 139t140.5 89.5t172.5 31.5q82 0 151.5 -25.5t119.5 -73.5t78.5 -118.5t28.5 -160.5q0 -100 -34.5 -181.5t-94.5 -139t-140.5 -89t-172.5 -31.5zM446 16q63 0 112.5 35.5t84 95
t53 137.5t18.5 164q0 83 -16 144.5t-44.5 102t-67.5 60.5t-84 20q-63 0 -113 -35.5t-84.5 -95t-52.5 -137.5t-18 -164q0 -83 16 -144.5t44.5 -102t67.5 -60.5t84 -20z" />
    <glyph glyph-name="O" unicode="&#x14c;" horiz-adv-x="899" 
d="M442 -14q-82 0 -151.5 25.5t-119.5 73.5t-78.5 118.5t-28.5 160.5q0 100 34.5 181t94.5 139t140.5 89.5t172.5 31.5q82 0 151.5 -25.5t119.5 -73.5t78.5 -118.5t28.5 -160.5q0 -100 -34.5 -181.5t-94.5 -139t-140.5 -89t-172.5 -31.5zM446 16q63 0 112.5 35.5t84 95
t53 137.5t18.5 164q0 83 -16 144.5t-44.5 102t-67.5 60.5t-84 20q-63 0 -113 -35.5t-84.5 -95t-52.5 -137.5t-18 -164q0 -83 16 -144.5t44.5 -102t67.5 -60.5t84 -20z" />
    <glyph glyph-name="O" unicode="&#xd8;" horiz-adv-x="899" 
d="M442 -14q-82 0 -151.5 25.5t-119.5 73.5t-78.5 118.5t-28.5 160.5q0 100 34.5 181t94.5 139t140.5 89.5t172.5 31.5q82 0 151.5 -25.5t119.5 -73.5t78.5 -118.5t28.5 -160.5q0 -100 -34.5 -181.5t-94.5 -139t-140.5 -89t-172.5 -31.5zM446 16q63 0 112.5 35.5t84 95
t53 137.5t18.5 164q0 83 -16 144.5t-44.5 102t-67.5 60.5t-84 20q-63 0 -113 -35.5t-84.5 -95t-52.5 -137.5t-18 -164q0 -83 16 -144.5t44.5 -102t67.5 -60.5t84 -20z" />
    <glyph glyph-name="O" unicode="&#xd6;" horiz-adv-x="899" 
d="M442 -14q-82 0 -151.5 25.5t-119.5 73.5t-78.5 118.5t-28.5 160.5q0 100 34.5 181t94.5 139t140.5 89.5t172.5 31.5q82 0 151.5 -25.5t119.5 -73.5t78.5 -118.5t28.5 -160.5q0 -100 -34.5 -181.5t-94.5 -139t-140.5 -89t-172.5 -31.5zM446 16q63 0 112.5 35.5t84 95
t53 137.5t18.5 164q0 83 -16 144.5t-44.5 102t-67.5 60.5t-84 20q-63 0 -113 -35.5t-84.5 -95t-52.5 -137.5t-18 -164q0 -83 16 -144.5t44.5 -102t67.5 -60.5t84 -20z" />
    <glyph glyph-name="O" unicode="&#xd5;" horiz-adv-x="899" 
d="M442 -14q-82 0 -151.5 25.5t-119.5 73.5t-78.5 118.5t-28.5 160.5q0 100 34.5 181t94.5 139t140.5 89.5t172.5 31.5q82 0 151.5 -25.5t119.5 -73.5t78.5 -118.5t28.5 -160.5q0 -100 -34.5 -181.5t-94.5 -139t-140.5 -89t-172.5 -31.5zM446 16q63 0 112.5 35.5t84 95
t53 137.5t18.5 164q0 83 -16 144.5t-44.5 102t-67.5 60.5t-84 20q-63 0 -113 -35.5t-84.5 -95t-52.5 -137.5t-18 -164q0 -83 16 -144.5t44.5 -102t67.5 -60.5t84 -20z" />
    <glyph glyph-name="O" unicode="&#xd4;" horiz-adv-x="899" 
d="M442 -14q-82 0 -151.5 25.5t-119.5 73.5t-78.5 118.5t-28.5 160.5q0 100 34.5 181t94.5 139t140.5 89.5t172.5 31.5q82 0 151.5 -25.5t119.5 -73.5t78.5 -118.5t28.5 -160.5q0 -100 -34.5 -181.5t-94.5 -139t-140.5 -89t-172.5 -31.5zM446 16q63 0 112.5 35.5t84 95
t53 137.5t18.5 164q0 83 -16 144.5t-44.5 102t-67.5 60.5t-84 20q-63 0 -113 -35.5t-84.5 -95t-52.5 -137.5t-18 -164q0 -83 16 -144.5t44.5 -102t67.5 -60.5t84 -20z" />
    <glyph glyph-name="O" unicode="&#xd3;" horiz-adv-x="899" 
d="M442 -14q-82 0 -151.5 25.5t-119.5 73.5t-78.5 118.5t-28.5 160.5q0 100 34.5 181t94.5 139t140.5 89.5t172.5 31.5q82 0 151.5 -25.5t119.5 -73.5t78.5 -118.5t28.5 -160.5q0 -100 -34.5 -181.5t-94.5 -139t-140.5 -89t-172.5 -31.5zM446 16q63 0 112.5 35.5t84 95
t53 137.5t18.5 164q0 83 -16 144.5t-44.5 102t-67.5 60.5t-84 20q-63 0 -113 -35.5t-84.5 -95t-52.5 -137.5t-18 -164q0 -83 16 -144.5t44.5 -102t67.5 -60.5t84 -20z" />
    <glyph glyph-name="O" unicode="&#xd2;" horiz-adv-x="899" 
d="M442 -14q-82 0 -151.5 25.5t-119.5 73.5t-78.5 118.5t-28.5 160.5q0 100 34.5 181t94.5 139t140.5 89.5t172.5 31.5q82 0 151.5 -25.5t119.5 -73.5t78.5 -118.5t28.5 -160.5q0 -100 -34.5 -181.5t-94.5 -139t-140.5 -89t-172.5 -31.5zM446 16q63 0 112.5 35.5t84 95
t53 137.5t18.5 164q0 83 -16 144.5t-44.5 102t-67.5 60.5t-84 20q-63 0 -113 -35.5t-84.5 -95t-52.5 -137.5t-18 -164q0 -83 16 -144.5t44.5 -102t67.5 -60.5t84 -20z" />
    <glyph glyph-name="P" unicode="P" horiz-adv-x="685" 
d="M305 368q21 -3 42 -3q44 0 81.5 15t64.5 43t42 68.5t15 91.5q0 91 -45.5 132t-132.5 41h-6zM388 787q68 0 128 -11t105 -36t71 -64t26 -96q0 -61 -26.5 -106.5t-69.5 -76t-97.5 -45.5t-111.5 -15q-29 0 -57.5 3.5t-53.5 8.5l-42 -269q-2 -14 0 -25t11 -18t27 -10.5
t47 -3.5h5l-3 -23h-353l3 23h2q53 0 72 14t24 43l99 627q4 29 -11 43t-65 14h-5l3 23h272z" />
    <glyph glyph-name="P" unicode="&#xde;" horiz-adv-x="685" 
d="M305 368q21 -3 42 -3q44 0 81.5 15t64.5 43t42 68.5t15 91.5q0 91 -45.5 132t-132.5 41h-6zM388 787q68 0 128 -11t105 -36t71 -64t26 -96q0 -61 -26.5 -106.5t-69.5 -76t-97.5 -45.5t-111.5 -15q-29 0 -57.5 3.5t-53.5 8.5l-42 -269q-2 -14 0 -25t11 -18t27 -10.5
t47 -3.5h5l-3 -23h-353l3 23h2q53 0 72 14t24 43l99 627q4 29 -11 43t-65 14h-5l3 23h272z" />
    <glyph glyph-name="Q" unicode="Q" horiz-adv-x="899" 
d="M782 -185l-308 172q-8 0 -16 -0.5t-16 -0.5q-82 0 -151.5 25.5t-119.5 73.5t-78.5 118.5t-28.5 160.5q0 100 34.5 181t94.5 139t140.5 89.5t172.5 31.5q82 0 151.5 -25.5t119.5 -73.5t78.5 -118.5t28.5 -160.5q0 -66 -15.5 -123.5t-43 -106.5t-67 -87.5t-87.5 -65.5
l116 -224zM446 16q63 0 112.5 35.5t84 95t53 137.5t18.5 164q0 83 -16 144.5t-44.5 102t-67.5 60.5t-84 20q-63 0 -113 -35.5t-84.5 -95t-52.5 -137.5t-18 -164q0 -83 16 -144.5t44.5 -102t67.5 -60.5t84 -20z" />
    <glyph glyph-name="R" unicode="R" horiz-adv-x="794" 
d="M310 404h9q49 0 91.5 11.5t73 36t48 62.5t17.5 90q0 48 -13 78t-36.5 46.5t-56 22.5t-71.5 6h-7zM372 787q168 0 256.5 -44t88.5 -145q0 -46 -21.5 -82.5t-60 -63t-92 -43t-118.5 -23.5q39 -1 74 -11.5t63 -31.5t47.5 -53t27.5 -76q11 -57 22.5 -93.5t29.5 -57.5t45 -31
t68 -15l-1 -18q-35 -8 -66.5 -10.5t-54.5 -2.5q-56 0 -93 15.5t-61 44t-36.5 69t-18.5 90.5q-6 49 -20 80.5t-34.5 50.5t-47.5 26.5t-59 7.5h-6l-46 -290q-5 -29 10.5 -43t67.5 -14h3l-3 -23h-342l3 23h2q53 0 72 14t24 43l99 627q4 29 -11 43t-65 14h-5l3 23h256z" />
    <glyph glyph-name="R" unicode="&#x158;" horiz-adv-x="794" 
d="M310 404h9q49 0 91.5 11.5t73 36t48 62.5t17.5 90q0 48 -13 78t-36.5 46.5t-56 22.5t-71.5 6h-7zM372 787q168 0 256.5 -44t88.5 -145q0 -46 -21.5 -82.5t-60 -63t-92 -43t-118.5 -23.5q39 -1 74 -11.5t63 -31.5t47.5 -53t27.5 -76q11 -57 22.5 -93.5t29.5 -57.5t45 -31
t68 -15l-1 -18q-35 -8 -66.5 -10.5t-54.5 -2.5q-56 0 -93 15.5t-61 44t-36.5 69t-18.5 90.5q-6 49 -20 80.5t-34.5 50.5t-47.5 26.5t-59 7.5h-6l-46 -290q-5 -29 10.5 -43t67.5 -14h3l-3 -23h-342l3 23h2q53 0 72 14t24 43l99 627q4 29 -11 43t-65 14h-5l3 23h256z" />
    <glyph glyph-name="R" unicode="&#x156;" horiz-adv-x="794" 
d="M310 404h9q49 0 91.5 11.5t73 36t48 62.5t17.5 90q0 48 -13 78t-36.5 46.5t-56 22.5t-71.5 6h-7zM372 787q168 0 256.5 -44t88.5 -145q0 -46 -21.5 -82.5t-60 -63t-92 -43t-118.5 -23.5q39 -1 74 -11.5t63 -31.5t47.5 -53t27.5 -76q11 -57 22.5 -93.5t29.5 -57.5t45 -31
t68 -15l-1 -18q-35 -8 -66.5 -10.5t-54.5 -2.5q-56 0 -93 15.5t-61 44t-36.5 69t-18.5 90.5q-6 49 -20 80.5t-34.5 50.5t-47.5 26.5t-59 7.5h-6l-46 -290q-5 -29 10.5 -43t67.5 -14h3l-3 -23h-342l3 23h2q53 0 72 14t24 43l99 627q4 29 -11 43t-65 14h-5l3 23h256z" />
    <glyph glyph-name="R" unicode="&#x154;" horiz-adv-x="794" 
d="M310 404h9q49 0 91.5 11.5t73 36t48 62.5t17.5 90q0 48 -13 78t-36.5 46.5t-56 22.5t-71.5 6h-7zM372 787q168 0 256.5 -44t88.5 -145q0 -46 -21.5 -82.5t-60 -63t-92 -43t-118.5 -23.5q39 -1 74 -11.5t63 -31.5t47.5 -53t27.5 -76q11 -57 22.5 -93.5t29.5 -57.5t45 -31
t68 -15l-1 -18q-35 -8 -66.5 -10.5t-54.5 -2.5q-56 0 -93 15.5t-61 44t-36.5 69t-18.5 90.5q-6 49 -20 80.5t-34.5 50.5t-47.5 26.5t-59 7.5h-6l-46 -290q-5 -29 10.5 -43t67.5 -14h3l-3 -23h-342l3 23h2q53 0 72 14t24 43l99 627q4 29 -11 43t-65 14h-5l3 23h256z" />
    <glyph glyph-name="S" unicode="S" horiz-adv-x="623" 
d="M263 19q33 0 61.5 8.5t49.5 26t32.5 44t11.5 63.5q0 49 -24.5 85t-67.5 65l-97 65q-32 21 -55 42.5t-38 45.5t-22 51.5t-7 61.5q0 56 23 98.5t62.5 71t92 43t110.5 14.5q51 0 108.5 -15.5t103.5 -42.5l-29 -189h-15q-2 48 -13 88t-31.5 68.5t-51.5 44t-71 15.5
q-35 0 -61 -10.5t-43 -28t-25.5 -40.5t-8.5 -49q0 -51 20 -84t57 -57l72 -47q28 -18 59.5 -40t57.5 -50t43 -62.5t17 -79.5q0 -57 -24.5 -101.5t-66.5 -75t-98 -46.5t-119 -16q-72 0 -130.5 16t-115.5 44l35 206h15q0 -61 18 -105t45 -72.5t59 -42t61 -13.5z" />
    <glyph glyph-name="S" unicode="&#x218;" horiz-adv-x="623" 
d="M263 19q33 0 61.5 8.5t49.5 26t32.5 44t11.5 63.5q0 49 -24.5 85t-67.5 65l-97 65q-32 21 -55 42.5t-38 45.5t-22 51.5t-7 61.5q0 56 23 98.5t62.5 71t92 43t110.5 14.5q51 0 108.5 -15.5t103.5 -42.5l-29 -189h-15q-2 48 -13 88t-31.5 68.5t-51.5 44t-71 15.5
q-35 0 -61 -10.5t-43 -28t-25.5 -40.5t-8.5 -49q0 -51 20 -84t57 -57l72 -47q28 -18 59.5 -40t57.5 -50t43 -62.5t17 -79.5q0 -57 -24.5 -101.5t-66.5 -75t-98 -46.5t-119 -16q-72 0 -130.5 16t-115.5 44l35 206h15q0 -61 18 -105t45 -72.5t59 -42t61 -13.5z" />
    <glyph glyph-name="S" unicode="&#x160;" horiz-adv-x="623" 
d="M263 19q33 0 61.5 8.5t49.5 26t32.5 44t11.5 63.5q0 49 -24.5 85t-67.5 65l-97 65q-32 21 -55 42.5t-38 45.5t-22 51.5t-7 61.5q0 56 23 98.5t62.5 71t92 43t110.5 14.5q51 0 108.5 -15.5t103.5 -42.5l-29 -189h-15q-2 48 -13 88t-31.5 68.5t-51.5 44t-71 15.5
q-35 0 -61 -10.5t-43 -28t-25.5 -40.5t-8.5 -49q0 -51 20 -84t57 -57l72 -47q28 -18 59.5 -40t57.5 -50t43 -62.5t17 -79.5q0 -57 -24.5 -101.5t-66.5 -75t-98 -46.5t-119 -16q-72 0 -130.5 16t-115.5 44l35 206h15q0 -61 18 -105t45 -72.5t59 -42t61 -13.5z" />
    <glyph glyph-name="S" unicode="&#x15e;" horiz-adv-x="623" 
d="M263 19q33 0 61.5 8.5t49.5 26t32.5 44t11.5 63.5q0 49 -24.5 85t-67.5 65l-97 65q-32 21 -55 42.5t-38 45.5t-22 51.5t-7 61.5q0 56 23 98.5t62.5 71t92 43t110.5 14.5q51 0 108.5 -15.5t103.5 -42.5l-29 -189h-15q-2 48 -13 88t-31.5 68.5t-51.5 44t-71 15.5
q-35 0 -61 -10.5t-43 -28t-25.5 -40.5t-8.5 -49q0 -51 20 -84t57 -57l72 -47q28 -18 59.5 -40t57.5 -50t43 -62.5t17 -79.5q0 -57 -24.5 -101.5t-66.5 -75t-98 -46.5t-119 -16q-72 0 -130.5 16t-115.5 44l35 206h15q0 -61 18 -105t45 -72.5t59 -42t61 -13.5z" />
    <glyph glyph-name="S" unicode="&#x15c;" horiz-adv-x="623" 
d="M263 19q33 0 61.5 8.5t49.5 26t32.5 44t11.5 63.5q0 49 -24.5 85t-67.5 65l-97 65q-32 21 -55 42.5t-38 45.5t-22 51.5t-7 61.5q0 56 23 98.5t62.5 71t92 43t110.5 14.5q51 0 108.5 -15.5t103.5 -42.5l-29 -189h-15q-2 48 -13 88t-31.5 68.5t-51.5 44t-71 15.5
q-35 0 -61 -10.5t-43 -28t-25.5 -40.5t-8.5 -49q0 -51 20 -84t57 -57l72 -47q28 -18 59.5 -40t57.5 -50t43 -62.5t17 -79.5q0 -57 -24.5 -101.5t-66.5 -75t-98 -46.5t-119 -16q-72 0 -130.5 16t-115.5 44l35 206h15q0 -61 18 -105t45 -72.5t59 -42t61 -13.5z" />
    <glyph glyph-name="S" unicode="&#x15a;" horiz-adv-x="623" 
d="M263 19q33 0 61.5 8.5t49.5 26t32.5 44t11.5 63.5q0 49 -24.5 85t-67.5 65l-97 65q-32 21 -55 42.5t-38 45.5t-22 51.5t-7 61.5q0 56 23 98.5t62.5 71t92 43t110.5 14.5q51 0 108.5 -15.5t103.5 -42.5l-29 -189h-15q-2 48 -13 88t-31.5 68.5t-51.5 44t-71 15.5
q-35 0 -61 -10.5t-43 -28t-25.5 -40.5t-8.5 -49q0 -51 20 -84t57 -57l72 -47q28 -18 59.5 -40t57.5 -50t43 -62.5t17 -79.5q0 -57 -24.5 -101.5t-66.5 -75t-98 -46.5t-119 -16q-72 0 -130.5 16t-115.5 44l35 206h15q0 -61 18 -105t45 -72.5t59 -42t61 -13.5z" />
    <glyph glyph-name="T" unicode="T" horiz-adv-x="762" 
d="M437 82q-3 -18 -0.5 -29t12 -18t28.5 -9.5t49 -2.5h2l-4 -23h-364l4 23h5q30 0 49 4t30.5 11.5t17 18.5t7.5 25l105 668h-35q-57 0 -99 -14.5t-72 -40.5t-50.5 -62t-35.5 -78h-16l33 232h725l-33 -232h-15q-6 48 -17.5 84.5t-35.5 61t-63.5 37t-100.5 12.5h-21z" />
    <glyph glyph-name="T" unicode="&#x21a;" horiz-adv-x="762" 
d="M437 82q-3 -18 -0.5 -29t12 -18t28.5 -9.5t49 -2.5h2l-4 -23h-364l4 23h5q30 0 49 4t30.5 11.5t17 18.5t7.5 25l105 668h-35q-57 0 -99 -14.5t-72 -40.5t-50.5 -62t-35.5 -78h-16l33 232h725l-33 -232h-15q-6 48 -17.5 84.5t-35.5 61t-63.5 37t-100.5 12.5h-21z" />
    <glyph glyph-name="T" unicode="&#x166;" horiz-adv-x="762" 
d="M437 82q-3 -18 -0.5 -29t12 -18t28.5 -9.5t49 -2.5h2l-4 -23h-364l4 23h5q30 0 49 4t30.5 11.5t17 18.5t7.5 25l105 668h-35q-57 0 -99 -14.5t-72 -40.5t-50.5 -62t-35.5 -78h-16l33 232h725l-33 -232h-15q-6 48 -17.5 84.5t-35.5 61t-63.5 37t-100.5 12.5h-21z" />
    <glyph glyph-name="T" unicode="&#x164;" horiz-adv-x="762" 
d="M437 82q-3 -18 -0.5 -29t12 -18t28.5 -9.5t49 -2.5h2l-4 -23h-364l4 23h5q30 0 49 4t30.5 11.5t17 18.5t7.5 25l105 668h-35q-57 0 -99 -14.5t-72 -40.5t-50.5 -62t-35.5 -78h-16l33 232h725l-33 -232h-15q-6 48 -17.5 84.5t-35.5 61t-63.5 37t-100.5 12.5h-21z" />
    <glyph glyph-name="T" unicode="&#x162;" horiz-adv-x="762" 
d="M437 82q-3 -18 -0.5 -29t12 -18t28.5 -9.5t49 -2.5h2l-4 -23h-364l4 23h5q30 0 49 4t30.5 11.5t17 18.5t7.5 25l105 668h-35q-57 0 -99 -14.5t-72 -40.5t-50.5 -62t-35.5 -78h-16l33 232h725l-33 -232h-15q-6 48 -17.5 84.5t-35.5 61t-63.5 37t-100.5 12.5h-21z" />
    <glyph glyph-name="U" unicode="U" horiz-adv-x="841" 
d="M739 318q-12 -77 -37.5 -138.5t-67.5 -104.5t-102.5 -66t-142.5 -23q-158 0 -227 83.5t-45 238.5l63 403q2 14 0 25t-10.5 18t-25 10.5t-42.5 3.5h-3l3 19h344l-3 -19h-2q-53 0 -73 -14t-24 -43l-65 -411q-20 -124 22 -190t145 -66q55 0 98 19t73.5 55t50.5 87t30 115
l49 312q11 67 -9.5 101.5t-75.5 34.5h-2l3 19h262l-3 -19h-2q-57 0 -88.5 -35t-42.5 -101z" />
    <glyph glyph-name="U" unicode="&#x1ee4;" horiz-adv-x="841" 
d="M739 318q-12 -77 -37.5 -138.5t-67.5 -104.5t-102.5 -66t-142.5 -23q-158 0 -227 83.5t-45 238.5l63 403q2 14 0 25t-10.5 18t-25 10.5t-42.5 3.5h-3l3 19h344l-3 -19h-2q-53 0 -73 -14t-24 -43l-65 -411q-20 -124 22 -190t145 -66q55 0 98 19t73.5 55t50.5 87t30 115
l49 312q11 67 -9.5 101.5t-75.5 34.5h-2l3 19h262l-3 -19h-2q-57 0 -88.5 -35t-42.5 -101z" />
    <glyph glyph-name="U" unicode="&#x172;" horiz-adv-x="841" 
d="M739 318q-12 -77 -37.5 -138.5t-67.5 -104.5t-102.5 -66t-142.5 -23q-158 0 -227 83.5t-45 238.5l63 403q2 14 0 25t-10.5 18t-25 10.5t-42.5 3.5h-3l3 19h344l-3 -19h-2q-53 0 -73 -14t-24 -43l-65 -411q-20 -124 22 -190t145 -66q55 0 98 19t73.5 55t50.5 87t30 115
l49 312q11 67 -9.5 101.5t-75.5 34.5h-2l3 19h262l-3 -19h-2q-57 0 -88.5 -35t-42.5 -101z" />
    <glyph glyph-name="U" unicode="&#x170;" horiz-adv-x="841" 
d="M739 318q-12 -77 -37.5 -138.5t-67.5 -104.5t-102.5 -66t-142.5 -23q-158 0 -227 83.5t-45 238.5l63 403q2 14 0 25t-10.5 18t-25 10.5t-42.5 3.5h-3l3 19h344l-3 -19h-2q-53 0 -73 -14t-24 -43l-65 -411q-20 -124 22 -190t145 -66q55 0 98 19t73.5 55t50.5 87t30 115
l49 312q11 67 -9.5 101.5t-75.5 34.5h-2l3 19h262l-3 -19h-2q-57 0 -88.5 -35t-42.5 -101z" />
    <glyph glyph-name="U" unicode="&#x16e;" horiz-adv-x="841" 
d="M739 318q-12 -77 -37.5 -138.5t-67.5 -104.5t-102.5 -66t-142.5 -23q-158 0 -227 83.5t-45 238.5l63 403q2 14 0 25t-10.5 18t-25 10.5t-42.5 3.5h-3l3 19h344l-3 -19h-2q-53 0 -73 -14t-24 -43l-65 -411q-20 -124 22 -190t145 -66q55 0 98 19t73.5 55t50.5 87t30 115
l49 312q11 67 -9.5 101.5t-75.5 34.5h-2l3 19h262l-3 -19h-2q-57 0 -88.5 -35t-42.5 -101z" />
    <glyph glyph-name="U" unicode="&#x16c;" horiz-adv-x="841" 
d="M739 318q-12 -77 -37.5 -138.5t-67.5 -104.5t-102.5 -66t-142.5 -23q-158 0 -227 83.5t-45 238.5l63 403q2 14 0 25t-10.5 18t-25 10.5t-42.5 3.5h-3l3 19h344l-3 -19h-2q-53 0 -73 -14t-24 -43l-65 -411q-20 -124 22 -190t145 -66q55 0 98 19t73.5 55t50.5 87t30 115
l49 312q11 67 -9.5 101.5t-75.5 34.5h-2l3 19h262l-3 -19h-2q-57 0 -88.5 -35t-42.5 -101z" />
    <glyph glyph-name="U" unicode="&#x16a;" horiz-adv-x="841" 
d="M739 318q-12 -77 -37.5 -138.5t-67.5 -104.5t-102.5 -66t-142.5 -23q-158 0 -227 83.5t-45 238.5l63 403q2 14 0 25t-10.5 18t-25 10.5t-42.5 3.5h-3l3 19h344l-3 -19h-2q-53 0 -73 -14t-24 -43l-65 -411q-20 -124 22 -190t145 -66q55 0 98 19t73.5 55t50.5 87t30 115
l49 312q11 67 -9.5 101.5t-75.5 34.5h-2l3 19h262l-3 -19h-2q-57 0 -88.5 -35t-42.5 -101z" />
    <glyph glyph-name="U" unicode="&#x168;" horiz-adv-x="841" 
d="M739 318q-12 -77 -37.5 -138.5t-67.5 -104.5t-102.5 -66t-142.5 -23q-158 0 -227 83.5t-45 238.5l63 403q2 14 0 25t-10.5 18t-25 10.5t-42.5 3.5h-3l3 19h344l-3 -19h-2q-53 0 -73 -14t-24 -43l-65 -411q-20 -124 22 -190t145 -66q55 0 98 19t73.5 55t50.5 87t30 115
l49 312q11 67 -9.5 101.5t-75.5 34.5h-2l3 19h262l-3 -19h-2q-57 0 -88.5 -35t-42.5 -101z" />
    <glyph glyph-name="U" unicode="&#xdc;" horiz-adv-x="841" 
d="M739 318q-12 -77 -37.5 -138.5t-67.5 -104.5t-102.5 -66t-142.5 -23q-158 0 -227 83.5t-45 238.5l63 403q2 14 0 25t-10.5 18t-25 10.5t-42.5 3.5h-3l3 19h344l-3 -19h-2q-53 0 -73 -14t-24 -43l-65 -411q-20 -124 22 -190t145 -66q55 0 98 19t73.5 55t50.5 87t30 115
l49 312q11 67 -9.5 101.5t-75.5 34.5h-2l3 19h262l-3 -19h-2q-57 0 -88.5 -35t-42.5 -101z" />
    <glyph glyph-name="U" unicode="&#xdb;" horiz-adv-x="841" 
d="M739 318q-12 -77 -37.5 -138.5t-67.5 -104.5t-102.5 -66t-142.5 -23q-158 0 -227 83.5t-45 238.5l63 403q2 14 0 25t-10.5 18t-25 10.5t-42.5 3.5h-3l3 19h344l-3 -19h-2q-53 0 -73 -14t-24 -43l-65 -411q-20 -124 22 -190t145 -66q55 0 98 19t73.5 55t50.5 87t30 115
l49 312q11 67 -9.5 101.5t-75.5 34.5h-2l3 19h262l-3 -19h-2q-57 0 -88.5 -35t-42.5 -101z" />
    <glyph glyph-name="U" unicode="&#xda;" horiz-adv-x="841" 
d="M739 318q-12 -77 -37.5 -138.5t-67.5 -104.5t-102.5 -66t-142.5 -23q-158 0 -227 83.5t-45 238.5l63 403q2 14 0 25t-10.5 18t-25 10.5t-42.5 3.5h-3l3 19h344l-3 -19h-2q-53 0 -73 -14t-24 -43l-65 -411q-20 -124 22 -190t145 -66q55 0 98 19t73.5 55t50.5 87t30 115
l49 312q11 67 -9.5 101.5t-75.5 34.5h-2l3 19h262l-3 -19h-2q-57 0 -88.5 -35t-42.5 -101z" />
    <glyph glyph-name="U" unicode="&#xd9;" horiz-adv-x="841" 
d="M739 318q-12 -77 -37.5 -138.5t-67.5 -104.5t-102.5 -66t-142.5 -23q-158 0 -227 83.5t-45 238.5l63 403q2 14 0 25t-10.5 18t-25 10.5t-42.5 3.5h-3l3 19h344l-3 -19h-2q-53 0 -73 -14t-24 -43l-65 -411q-20 -124 22 -190t145 -66q55 0 98 19t73.5 55t50.5 87t30 115
l49 312q11 67 -9.5 101.5t-75.5 34.5h-2l3 19h262l-3 -19h-2q-57 0 -88.5 -35t-42.5 -101z" />
    <glyph glyph-name="V" unicode="V" horiz-adv-x="769" 
d="M437 201l227 420q25 46 30 74t-3 43.5t-25.5 20.5t-38.5 5h-4l3 23h243l-3 -23h-3q-21 0 -37.5 -4t-34 -19.5t-38.5 -46t-50 -83.5l-352 -647h-14l-178 732q-10 40 -32 54t-62 14h-4l3 23h349l-3 -23h-5q-18 0 -34 -2t-27 -9t-15.5 -20t0.5 -34z" />
    <glyph glyph-name="W" unicode="W" horiz-adv-x="1063" 
d="M671 701l106 -469l180 389q22 48 27 76t-2.5 43t-24 19.5t-37.5 4.5h-4l3 23h243l-3 -23h-3q-21 0 -39 -3t-36.5 -18t-39 -46t-45.5 -86l-302 -647h-14l-112 489l-257 -489h-14l-138 732q-8 40 -31 54t-63 14h-4l3 23h346l-3 -23h-5q-18 0 -34 -2t-26.5 -9t-15 -20
t-0.5 -34l79 -476l251 478h15z" />
    <glyph glyph-name="W" unicode="&#x1e84;" horiz-adv-x="1063" 
d="M671 701l106 -469l180 389q22 48 27 76t-2.5 43t-24 19.5t-37.5 4.5h-4l3 23h243l-3 -23h-3q-21 0 -39 -3t-36.5 -18t-39 -46t-45.5 -86l-302 -647h-14l-112 489l-257 -489h-14l-138 732q-8 40 -31 54t-63 14h-4l3 23h346l-3 -23h-5q-18 0 -34 -2t-26.5 -9t-15 -20
t-0.5 -34l79 -476l251 478h15z" />
    <glyph glyph-name="W" unicode="&#x1e82;" horiz-adv-x="1063" 
d="M671 701l106 -469l180 389q22 48 27 76t-2.5 43t-24 19.5t-37.5 4.5h-4l3 23h243l-3 -23h-3q-21 0 -39 -3t-36.5 -18t-39 -46t-45.5 -86l-302 -647h-14l-112 489l-257 -489h-14l-138 732q-8 40 -31 54t-63 14h-4l3 23h346l-3 -23h-5q-18 0 -34 -2t-26.5 -9t-15 -20
t-0.5 -34l79 -476l251 478h15z" />
    <glyph glyph-name="W" unicode="&#x1e80;" horiz-adv-x="1063" 
d="M671 701l106 -469l180 389q22 48 27 76t-2.5 43t-24 19.5t-37.5 4.5h-4l3 23h243l-3 -23h-3q-21 0 -39 -3t-36.5 -18t-39 -46t-45.5 -86l-302 -647h-14l-112 489l-257 -489h-14l-138 732q-8 40 -31 54t-63 14h-4l3 23h346l-3 -23h-5q-18 0 -34 -2t-26.5 -9t-15 -20
t-0.5 -34l79 -476l251 478h15z" />
    <glyph glyph-name="W" unicode="&#x174;" horiz-adv-x="1063" 
d="M671 701l106 -469l180 389q22 48 27 76t-2.5 43t-24 19.5t-37.5 4.5h-4l3 23h243l-3 -23h-3q-21 0 -39 -3t-36.5 -18t-39 -46t-45.5 -86l-302 -647h-14l-112 489l-257 -489h-14l-138 732q-8 40 -31 54t-63 14h-4l3 23h346l-3 -23h-5q-18 0 -34 -2t-26.5 -9t-15 -20
t-0.5 -34l79 -476l251 478h15z" />
    <glyph glyph-name="X" unicode="X" horiz-adv-x="771" 
d="M472 498l121 141q33 39 43.5 63.5t5 38.5t-24 19.5t-42.5 5.5l3 21h259l-3 -21q-26 0 -45.5 -4t-40.5 -18.5t-47.5 -41.5t-66.5 -73l-145 -167l184 -389q6 -13 12.5 -22.5t16.5 -16t24 -10t34 -3.5l-3 -21h-349l3 21h13q50 0 62 16.5t-6 54.5l-117 248l-168 -195
q-33 -39 -44.5 -63.5t-6 -38t24 -18t44.5 -4.5l-3 -21h-268l3 21q21 0 41 3.5t43 17t52.5 40.5t69.5 73l194 223l-157 336q-6 12 -12 22t-15 16.5t-23 10t-37 3.5l3 21h342l-3 -21h-5q-46 0 -62.5 -14t3.5 -55z" />
    <glyph glyph-name="Y" unicode="Y" horiz-adv-x="717" 
d="M406 764q-83 0 -65 -58l93 -314l152 228q30 45 41.5 73t7 44t-22.5 21.5t-46 5.5h-3l3 23h247l-3 -23q-24 0 -42 -4t-37.5 -18.5t-43 -43t-56.5 -77.5l-186 -275l-42 -264q-3 -18 -2 -29t8.5 -18t25 -9.5t47.5 -2.5h2l-4 -23h-344l4 23h5q30 0 47.5 4t27 11.5t13.5 18.5
t6 25l42 264l-116 365q-8 26 -23.5 39.5t-55.5 13.5h-4l3 23h336l-3 -23h-12z" />
    <glyph glyph-name="Y" unicode="&#x1ef2;" horiz-adv-x="717" 
d="M406 764q-83 0 -65 -58l93 -314l152 228q30 45 41.5 73t7 44t-22.5 21.5t-46 5.5h-3l3 23h247l-3 -23q-24 0 -42 -4t-37.5 -18.5t-43 -43t-56.5 -77.5l-186 -275l-42 -264q-3 -18 -2 -29t8.5 -18t25 -9.5t47.5 -2.5h2l-4 -23h-344l4 23h5q30 0 47.5 4t27 11.5t13.5 18.5
t6 25l42 264l-116 365q-8 26 -23.5 39.5t-55.5 13.5h-4l3 23h336l-3 -23h-12z" />
    <glyph glyph-name="Y" unicode="&#x232;" horiz-adv-x="717" 
d="M406 764q-83 0 -65 -58l93 -314l152 228q30 45 41.5 73t7 44t-22.5 21.5t-46 5.5h-3l3 23h247l-3 -23q-24 0 -42 -4t-37.5 -18.5t-43 -43t-56.5 -77.5l-186 -275l-42 -264q-3 -18 -2 -29t8.5 -18t25 -9.5t47.5 -2.5h2l-4 -23h-344l4 23h5q30 0 47.5 4t27 11.5t13.5 18.5
t6 25l42 264l-116 365q-8 26 -23.5 39.5t-55.5 13.5h-4l3 23h336l-3 -23h-12z" />
    <glyph glyph-name="Y" unicode="&#x178;" horiz-adv-x="717" 
d="M406 764q-83 0 -65 -58l93 -314l152 228q30 45 41.5 73t7 44t-22.5 21.5t-46 5.5h-3l3 23h247l-3 -23q-24 0 -42 -4t-37.5 -18.5t-43 -43t-56.5 -77.5l-186 -275l-42 -264q-3 -18 -2 -29t8.5 -18t25 -9.5t47.5 -2.5h2l-4 -23h-344l4 23h5q30 0 47.5 4t27 11.5t13.5 18.5
t6 25l42 264l-116 365q-8 26 -23.5 39.5t-55.5 13.5h-4l3 23h336l-3 -23h-12z" />
    <glyph glyph-name="Y" unicode="&#x176;" horiz-adv-x="717" 
d="M406 764q-83 0 -65 -58l93 -314l152 228q30 45 41.5 73t7 44t-22.5 21.5t-46 5.5h-3l3 23h247l-3 -23q-24 0 -42 -4t-37.5 -18.5t-43 -43t-56.5 -77.5l-186 -275l-42 -264q-3 -18 -2 -29t8.5 -18t25 -9.5t47.5 -2.5h2l-4 -23h-344l4 23h5q30 0 47.5 4t27 11.5t13.5 18.5
t6 25l42 264l-116 365q-8 26 -23.5 39.5t-55.5 13.5h-4l3 23h336l-3 -23h-12z" />
    <glyph glyph-name="Y" unicode="&#xdd;" horiz-adv-x="717" 
d="M406 764q-83 0 -65 -58l93 -314l152 228q30 45 41.5 73t7 44t-22.5 21.5t-46 5.5h-3l3 23h247l-3 -23q-24 0 -42 -4t-37.5 -18.5t-43 -43t-56.5 -77.5l-186 -275l-42 -264q-3 -18 -2 -29t8.5 -18t25 -9.5t47.5 -2.5h2l-4 -23h-344l4 23h5q30 0 47.5 4t27 11.5t13.5 18.5
t6 25l42 264l-116 365q-8 26 -23.5 39.5t-55.5 13.5h-4l3 23h336l-3 -23h-12z" />
    <glyph glyph-name="Z" unicode="Z" horiz-adv-x="679" 
d="M534 750h-154q-57 0 -97.5 -7.5t-69.5 -26.5t-48 -50t-33 -77h-16l29 198h589l-569 -750h190q72 0 117.5 7t75 26t48 50.5t37.5 81.5h12l-29 -202h-652z" />
    <glyph glyph-name="Z" unicode="&#x17d;" horiz-adv-x="679" 
d="M534 750h-154q-57 0 -97.5 -7.5t-69.5 -26.5t-48 -50t-33 -77h-16l29 198h589l-569 -750h190q72 0 117.5 7t75 26t48 50.5t37.5 81.5h12l-29 -202h-652z" />
    <glyph glyph-name="Z" unicode="&#x17b;" horiz-adv-x="679" 
d="M534 750h-154q-57 0 -97.5 -7.5t-69.5 -26.5t-48 -50t-33 -77h-16l29 198h589l-569 -750h190q72 0 117.5 7t75 26t48 50.5t37.5 81.5h12l-29 -202h-652z" />
    <glyph glyph-name="Z" unicode="&#x179;" horiz-adv-x="679" 
d="M534 750h-154q-57 0 -97.5 -7.5t-69.5 -26.5t-48 -50t-33 -77h-16l29 198h589l-569 -750h190q72 0 117.5 7t75 26t48 50.5t37.5 81.5h12l-29 -202h-652z" />
    <glyph glyph-name="a" unicode="a" horiz-adv-x="591" 
d="M473 113q-8 -38 -3.5 -51.5t17.5 -13.5q14 0 31.5 21.5t39.5 61.5l17 -7q-9 -29 -22.5 -54.5t-31.5 -44t-41.5 -29t-53.5 -10.5q-63 0 -85 34.5t-17 86.5q-61 -121 -165 -121q-43 0 -70 15t-42.5 38t-21 51t-5.5 54q0 77 27.5 143.5t71.5 115t100.5 76.5t115.5 28
q37 0 67 -12t57 -35l43 33h43zM234 56q6 0 14 2.5t19.5 11.5t26 25.5t32.5 45.5l53 278q-5 37 -20 51t-33 14q-28 0 -54.5 -28t-46.5 -73.5t-32.5 -105t-12.5 -122.5q0 -43 12.5 -71t41.5 -28z" />
    <glyph glyph-name="a" unicode="&#x105;" horiz-adv-x="591" 
d="M473 113q-8 -38 -3.5 -51.5t17.5 -13.5q14 0 31.5 21.5t39.5 61.5l17 -7q-9 -29 -22.5 -54.5t-31.5 -44t-41.5 -29t-53.5 -10.5q-63 0 -85 34.5t-17 86.5q-61 -121 -165 -121q-43 0 -70 15t-42.5 38t-21 51t-5.5 54q0 77 27.5 143.5t71.5 115t100.5 76.5t115.5 28
q37 0 67 -12t57 -35l43 33h43zM234 56q6 0 14 2.5t19.5 11.5t26 25.5t32.5 45.5l53 278q-5 37 -20 51t-33 14q-28 0 -54.5 -28t-46.5 -73.5t-32.5 -105t-12.5 -122.5q0 -43 12.5 -71t41.5 -28z" />
    <glyph glyph-name="a" unicode="&#x103;" horiz-adv-x="591" 
d="M473 113q-8 -38 -3.5 -51.5t17.5 -13.5q14 0 31.5 21.5t39.5 61.5l17 -7q-9 -29 -22.5 -54.5t-31.5 -44t-41.5 -29t-53.5 -10.5q-63 0 -85 34.5t-17 86.5q-61 -121 -165 -121q-43 0 -70 15t-42.5 38t-21 51t-5.5 54q0 77 27.5 143.5t71.5 115t100.5 76.5t115.5 28
q37 0 67 -12t57 -35l43 33h43zM234 56q6 0 14 2.5t19.5 11.5t26 25.5t32.5 45.5l53 278q-5 37 -20 51t-33 14q-28 0 -54.5 -28t-46.5 -73.5t-32.5 -105t-12.5 -122.5q0 -43 12.5 -71t41.5 -28z" />
    <glyph glyph-name="a" unicode="&#x101;" horiz-adv-x="591" 
d="M473 113q-8 -38 -3.5 -51.5t17.5 -13.5q14 0 31.5 21.5t39.5 61.5l17 -7q-9 -29 -22.5 -54.5t-31.5 -44t-41.5 -29t-53.5 -10.5q-63 0 -85 34.5t-17 86.5q-61 -121 -165 -121q-43 0 -70 15t-42.5 38t-21 51t-5.5 54q0 77 27.5 143.5t71.5 115t100.5 76.5t115.5 28
q37 0 67 -12t57 -35l43 33h43zM234 56q6 0 14 2.5t19.5 11.5t26 25.5t32.5 45.5l53 278q-5 37 -20 51t-33 14q-28 0 -54.5 -28t-46.5 -73.5t-32.5 -105t-12.5 -122.5q0 -43 12.5 -71t41.5 -28z" />
    <glyph glyph-name="a" unicode="&#xe6;" horiz-adv-x="591" 
d="M473 113q-8 -38 -3.5 -51.5t17.5 -13.5q14 0 31.5 21.5t39.5 61.5l17 -7q-9 -29 -22.5 -54.5t-31.5 -44t-41.5 -29t-53.5 -10.5q-63 0 -85 34.5t-17 86.5q-61 -121 -165 -121q-43 0 -70 15t-42.5 38t-21 51t-5.5 54q0 77 27.5 143.5t71.5 115t100.5 76.5t115.5 28
q37 0 67 -12t57 -35l43 33h43zM234 56q6 0 14 2.5t19.5 11.5t26 25.5t32.5 45.5l53 278q-5 37 -20 51t-33 14q-28 0 -54.5 -28t-46.5 -73.5t-32.5 -105t-12.5 -122.5q0 -43 12.5 -71t41.5 -28z" />
    <glyph glyph-name="a" unicode="&#xe5;" horiz-adv-x="591" 
d="M473 113q-8 -38 -3.5 -51.5t17.5 -13.5q14 0 31.5 21.5t39.5 61.5l17 -7q-9 -29 -22.5 -54.5t-31.5 -44t-41.5 -29t-53.5 -10.5q-63 0 -85 34.5t-17 86.5q-61 -121 -165 -121q-43 0 -70 15t-42.5 38t-21 51t-5.5 54q0 77 27.5 143.5t71.5 115t100.5 76.5t115.5 28
q37 0 67 -12t57 -35l43 33h43zM234 56q6 0 14 2.5t19.5 11.5t26 25.5t32.5 45.5l53 278q-5 37 -20 51t-33 14q-28 0 -54.5 -28t-46.5 -73.5t-32.5 -105t-12.5 -122.5q0 -43 12.5 -71t41.5 -28z" />
    <glyph glyph-name="a" unicode="&#xe4;" horiz-adv-x="591" 
d="M473 113q-8 -38 -3.5 -51.5t17.5 -13.5q14 0 31.5 21.5t39.5 61.5l17 -7q-9 -29 -22.5 -54.5t-31.5 -44t-41.5 -29t-53.5 -10.5q-63 0 -85 34.5t-17 86.5q-61 -121 -165 -121q-43 0 -70 15t-42.5 38t-21 51t-5.5 54q0 77 27.5 143.5t71.5 115t100.5 76.5t115.5 28
q37 0 67 -12t57 -35l43 33h43zM234 56q6 0 14 2.5t19.5 11.5t26 25.5t32.5 45.5l53 278q-5 37 -20 51t-33 14q-28 0 -54.5 -28t-46.5 -73.5t-32.5 -105t-12.5 -122.5q0 -43 12.5 -71t41.5 -28z" />
    <glyph glyph-name="a" unicode="&#xe3;" horiz-adv-x="591" 
d="M473 113q-8 -38 -3.5 -51.5t17.5 -13.5q14 0 31.5 21.5t39.5 61.5l17 -7q-9 -29 -22.5 -54.5t-31.5 -44t-41.5 -29t-53.5 -10.5q-63 0 -85 34.5t-17 86.5q-61 -121 -165 -121q-43 0 -70 15t-42.5 38t-21 51t-5.5 54q0 77 27.5 143.5t71.5 115t100.5 76.5t115.5 28
q37 0 67 -12t57 -35l43 33h43zM234 56q6 0 14 2.5t19.5 11.5t26 25.5t32.5 45.5l53 278q-5 37 -20 51t-33 14q-28 0 -54.5 -28t-46.5 -73.5t-32.5 -105t-12.5 -122.5q0 -43 12.5 -71t41.5 -28z" />
    <glyph glyph-name="a" unicode="&#xe2;" horiz-adv-x="591" 
d="M473 113q-8 -38 -3.5 -51.5t17.5 -13.5q14 0 31.5 21.5t39.5 61.5l17 -7q-9 -29 -22.5 -54.5t-31.5 -44t-41.5 -29t-53.5 -10.5q-63 0 -85 34.5t-17 86.5q-61 -121 -165 -121q-43 0 -70 15t-42.5 38t-21 51t-5.5 54q0 77 27.5 143.5t71.5 115t100.5 76.5t115.5 28
q37 0 67 -12t57 -35l43 33h43zM234 56q6 0 14 2.5t19.5 11.5t26 25.5t32.5 45.5l53 278q-5 37 -20 51t-33 14q-28 0 -54.5 -28t-46.5 -73.5t-32.5 -105t-12.5 -122.5q0 -43 12.5 -71t41.5 -28z" />
    <glyph glyph-name="a" unicode="&#xe1;" horiz-adv-x="591" 
d="M473 113q-8 -38 -3.5 -51.5t17.5 -13.5q14 0 31.5 21.5t39.5 61.5l17 -7q-9 -29 -22.5 -54.5t-31.5 -44t-41.5 -29t-53.5 -10.5q-63 0 -85 34.5t-17 86.5q-61 -121 -165 -121q-43 0 -70 15t-42.5 38t-21 51t-5.5 54q0 77 27.5 143.5t71.5 115t100.5 76.5t115.5 28
q37 0 67 -12t57 -35l43 33h43zM234 56q6 0 14 2.5t19.5 11.5t26 25.5t32.5 45.5l53 278q-5 37 -20 51t-33 14q-28 0 -54.5 -28t-46.5 -73.5t-32.5 -105t-12.5 -122.5q0 -43 12.5 -71t41.5 -28z" />
    <glyph glyph-name="a" unicode="&#xe0;" horiz-adv-x="591" 
d="M473 113q-8 -38 -3.5 -51.5t17.5 -13.5q14 0 31.5 21.5t39.5 61.5l17 -7q-9 -29 -22.5 -54.5t-31.5 -44t-41.5 -29t-53.5 -10.5q-63 0 -85 34.5t-17 86.5q-61 -121 -165 -121q-43 0 -70 15t-42.5 38t-21 51t-5.5 54q0 77 27.5 143.5t71.5 115t100.5 76.5t115.5 28
q37 0 67 -12t57 -35l43 33h43zM234 56q6 0 14 2.5t19.5 11.5t26 25.5t32.5 45.5l53 278q-5 37 -20 51t-33 14q-28 0 -54.5 -28t-46.5 -73.5t-32.5 -105t-12.5 -122.5q0 -43 12.5 -71t41.5 -28z" />
    <glyph glyph-name="b" unicode="b" horiz-adv-x="561" 
d="M233 -13q-42 0 -80 11.5t-64.5 39t-38.5 72.5t-1 111l80 484q2 13 1.5 24t-7.5 18.5t-22.5 12t-42.5 4.5h-6l3 23h237l-65 -407q38 71 83.5 99.5t93.5 28.5q36 0 63 -13.5t44 -36t25.5 -51t8.5 -58.5q0 -72 -27 -137.5t-71.5 -115.5t-100.5 -79.5t-113 -29.5zM331 438
q-27 0 -55.5 -26t-54.5 -71l-27 -169q-6 -36 -4.5 -65.5t9 -51t20 -33.5t30.5 -12q21 0 39.5 15.5t34 41t27 58t19.5 66t12 66t4 58.5q0 64 -13 93.5t-41 29.5z" />
    <glyph glyph-name="c" unicode="c" horiz-adv-x="443" 
d="M21 161q0 67 25 129t68 109.5t98.5 76t117.5 28.5q54 0 85.5 -24.5t31.5 -59.5q0 -20 -12.5 -38.5t-44.5 -18.5q-21 0 -32.5 8.5t-17.5 22t-9 28.5t-6 28.5t-8.5 22t-17.5 8.5q-24 0 -45.5 -29t-37.5 -74t-25.5 -98t-9.5 -101q0 -69 17.5 -97.5t46.5 -28.5t70 28t83 96
l17 -8q-46 -97 -104.5 -140t-130.5 -43q-32 0 -61 10t-51 31.5t-34.5 54.5t-12.5 79z" />
    <glyph glyph-name="c" unicode="&#x10d;" horiz-adv-x="443" 
d="M21 161q0 67 25 129t68 109.5t98.5 76t117.5 28.5q54 0 85.5 -24.5t31.5 -59.5q0 -20 -12.5 -38.5t-44.5 -18.5q-21 0 -32.5 8.5t-17.5 22t-9 28.5t-6 28.5t-8.5 22t-17.5 8.5q-24 0 -45.5 -29t-37.5 -74t-25.5 -98t-9.5 -101q0 -69 17.5 -97.5t46.5 -28.5t70 28t83 96
l17 -8q-46 -97 -104.5 -140t-130.5 -43q-32 0 -61 10t-51 31.5t-34.5 54.5t-12.5 79z" />
    <glyph glyph-name="c" unicode="&#x10b;" horiz-adv-x="443" 
d="M21 161q0 67 25 129t68 109.5t98.5 76t117.5 28.5q54 0 85.5 -24.5t31.5 -59.5q0 -20 -12.5 -38.5t-44.5 -18.5q-21 0 -32.5 8.5t-17.5 22t-9 28.5t-6 28.5t-8.5 22t-17.5 8.5q-24 0 -45.5 -29t-37.5 -74t-25.5 -98t-9.5 -101q0 -69 17.5 -97.5t46.5 -28.5t70 28t83 96
l17 -8q-46 -97 -104.5 -140t-130.5 -43q-32 0 -61 10t-51 31.5t-34.5 54.5t-12.5 79z" />
    <glyph glyph-name="c" unicode="&#x109;" horiz-adv-x="443" 
d="M21 161q0 67 25 129t68 109.5t98.5 76t117.5 28.5q54 0 85.5 -24.5t31.5 -59.5q0 -20 -12.5 -38.5t-44.5 -18.5q-21 0 -32.5 8.5t-17.5 22t-9 28.5t-6 28.5t-8.5 22t-17.5 8.5q-24 0 -45.5 -29t-37.5 -74t-25.5 -98t-9.5 -101q0 -69 17.5 -97.5t46.5 -28.5t70 28t83 96
l17 -8q-46 -97 -104.5 -140t-130.5 -43q-32 0 -61 10t-51 31.5t-34.5 54.5t-12.5 79z" />
    <glyph glyph-name="c" unicode="&#x107;" horiz-adv-x="443" 
d="M21 161q0 67 25 129t68 109.5t98.5 76t117.5 28.5q54 0 85.5 -24.5t31.5 -59.5q0 -20 -12.5 -38.5t-44.5 -18.5q-21 0 -32.5 8.5t-17.5 22t-9 28.5t-6 28.5t-8.5 22t-17.5 8.5q-24 0 -45.5 -29t-37.5 -74t-25.5 -98t-9.5 -101q0 -69 17.5 -97.5t46.5 -28.5t70 28t83 96
l17 -8q-46 -97 -104.5 -140t-130.5 -43q-32 0 -61 10t-51 31.5t-34.5 54.5t-12.5 79z" />
    <glyph glyph-name="c" unicode="&#xe7;" horiz-adv-x="443" 
d="M21 161q0 67 25 129t68 109.5t98.5 76t117.5 28.5q54 0 85.5 -24.5t31.5 -59.5q0 -20 -12.5 -38.5t-44.5 -18.5q-21 0 -32.5 8.5t-17.5 22t-9 28.5t-6 28.5t-8.5 22t-17.5 8.5q-24 0 -45.5 -29t-37.5 -74t-25.5 -98t-9.5 -101q0 -69 17.5 -97.5t46.5 -28.5t70 28t83 96
l17 -8q-46 -97 -104.5 -140t-130.5 -43q-32 0 -61 10t-51 31.5t-34.5 54.5t-12.5 79z" />
    <glyph glyph-name="d" unicode="d" horiz-adv-x="600" 
d="M336 107q-34 -62 -79.5 -91.5t-97.5 -29.5q-43 0 -70 16t-42.5 40t-21 53t-5.5 55q0 75 28.5 140t74 113.5t101.5 76t110 27.5q15 0 31.5 -2.5t33.5 -10.5l34 210q2 13 1.5 24.5t-7.5 19t-22.5 12t-42.5 4.5h-6l3 23h239l-112 -674q-6 -38 -2.5 -51.5t16.5 -13.5
q15 0 32.5 21.5t39.5 61.5l17 -7q-9 -29 -22.5 -54.5t-31.5 -44t-42 -29t-54 -10.5q-31 0 -52.5 9.5t-34.5 25t-17 36.5t0 44zM234 56q6 0 16 2.5t23.5 11t29.5 25t35 44.5l46 275q-5 35 -20 52.5t-33 17.5q-29 0 -56.5 -29.5t-49.5 -76.5t-35 -104.5t-13 -112.5
q0 -43 13.5 -74t43.5 -31z" />
    <glyph glyph-name="d" unicode="&#x111;" horiz-adv-x="600" 
d="M336 107q-34 -62 -79.5 -91.5t-97.5 -29.5q-43 0 -70 16t-42.5 40t-21 53t-5.5 55q0 75 28.5 140t74 113.5t101.5 76t110 27.5q15 0 31.5 -2.5t33.5 -10.5l34 210q2 13 1.5 24.5t-7.5 19t-22.5 12t-42.5 4.5h-6l3 23h239l-112 -674q-6 -38 -2.5 -51.5t16.5 -13.5
q15 0 32.5 21.5t39.5 61.5l17 -7q-9 -29 -22.5 -54.5t-31.5 -44t-42 -29t-54 -10.5q-31 0 -52.5 9.5t-34.5 25t-17 36.5t0 44zM234 56q6 0 16 2.5t23.5 11t29.5 25t35 44.5l46 275q-5 35 -20 52.5t-33 17.5q-29 0 -56.5 -29.5t-49.5 -76.5t-35 -104.5t-13 -112.5
q0 -43 13.5 -74t43.5 -31z" />
    <glyph glyph-name="d" unicode="&#x10f;" horiz-adv-x="600" 
d="M336 107q-34 -62 -79.5 -91.5t-97.5 -29.5q-43 0 -70 16t-42.5 40t-21 53t-5.5 55q0 75 28.5 140t74 113.5t101.5 76t110 27.5q15 0 31.5 -2.5t33.5 -10.5l34 210q2 13 1.5 24.5t-7.5 19t-22.5 12t-42.5 4.5h-6l3 23h239l-112 -674q-6 -38 -2.5 -51.5t16.5 -13.5
q15 0 32.5 21.5t39.5 61.5l17 -7q-9 -29 -22.5 -54.5t-31.5 -44t-42 -29t-54 -10.5q-31 0 -52.5 9.5t-34.5 25t-17 36.5t0 44zM234 56q6 0 16 2.5t23.5 11t29.5 25t35 44.5l46 275q-5 35 -20 52.5t-33 17.5q-29 0 -56.5 -29.5t-49.5 -76.5t-35 -104.5t-13 -112.5
q0 -43 13.5 -74t43.5 -31z" />
    <glyph glyph-name="d" unicode="&#xf0;" horiz-adv-x="600" 
d="M336 107q-34 -62 -79.5 -91.5t-97.5 -29.5q-43 0 -70 16t-42.5 40t-21 53t-5.5 55q0 75 28.5 140t74 113.5t101.5 76t110 27.5q15 0 31.5 -2.5t33.5 -10.5l34 210q2 13 1.5 24.5t-7.5 19t-22.5 12t-42.5 4.5h-6l3 23h239l-112 -674q-6 -38 -2.5 -51.5t16.5 -13.5
q15 0 32.5 21.5t39.5 61.5l17 -7q-9 -29 -22.5 -54.5t-31.5 -44t-42 -29t-54 -10.5q-31 0 -52.5 9.5t-34.5 25t-17 36.5t0 44zM234 56q6 0 16 2.5t23.5 11t29.5 25t35 44.5l46 275q-5 35 -20 52.5t-33 17.5q-29 0 -56.5 -29.5t-49.5 -76.5t-35 -104.5t-13 -112.5
q0 -43 13.5 -74t43.5 -31z" />
    <glyph glyph-name="e" unicode="e" horiz-adv-x="454" 
d="M455 425q0 -33 -23 -60t-60.5 -50.5t-87 -43.5t-101.5 -38q-2 -14 -2 -27v-27q0 -69 17.5 -97.5t46.5 -28.5t70 28t83 96l17 -8q-46 -97 -104.5 -140t-130.5 -43q-32 0 -61 10t-51 31.5t-34.5 54.5t-12.5 79q0 67 25 129t68 109.5t98.5 76t117.5 28.5q37 0 61 -7.5
t38 -18.5t20 -25.5t6 -27.5zM297 481q-18 0 -35.5 -19.5t-32.5 -51t-26 -73t-17 -84.5q45 20 73 41.5t43.5 43t21 43t5.5 41.5q0 59 -32 59z" />
    <glyph glyph-name="e" unicode="&#x11b;" horiz-adv-x="454" 
d="M455 425q0 -33 -23 -60t-60.5 -50.5t-87 -43.5t-101.5 -38q-2 -14 -2 -27v-27q0 -69 17.5 -97.5t46.5 -28.5t70 28t83 96l17 -8q-46 -97 -104.5 -140t-130.5 -43q-32 0 -61 10t-51 31.5t-34.5 54.5t-12.5 79q0 67 25 129t68 109.5t98.5 76t117.5 28.5q37 0 61 -7.5
t38 -18.5t20 -25.5t6 -27.5zM297 481q-18 0 -35.5 -19.5t-32.5 -51t-26 -73t-17 -84.5q45 20 73 41.5t43.5 43t21 43t5.5 41.5q0 59 -32 59z" />
    <glyph glyph-name="e" unicode="&#x119;" horiz-adv-x="454" 
d="M455 425q0 -33 -23 -60t-60.5 -50.5t-87 -43.5t-101.5 -38q-2 -14 -2 -27v-27q0 -69 17.5 -97.5t46.5 -28.5t70 28t83 96l17 -8q-46 -97 -104.5 -140t-130.5 -43q-32 0 -61 10t-51 31.5t-34.5 54.5t-12.5 79q0 67 25 129t68 109.5t98.5 76t117.5 28.5q37 0 61 -7.5
t38 -18.5t20 -25.5t6 -27.5zM297 481q-18 0 -35.5 -19.5t-32.5 -51t-26 -73t-17 -84.5q45 20 73 41.5t43.5 43t21 43t5.5 41.5q0 59 -32 59z" />
    <glyph glyph-name="e" unicode="&#x117;" horiz-adv-x="454" 
d="M455 425q0 -33 -23 -60t-60.5 -50.5t-87 -43.5t-101.5 -38q-2 -14 -2 -27v-27q0 -69 17.5 -97.5t46.5 -28.5t70 28t83 96l17 -8q-46 -97 -104.5 -140t-130.5 -43q-32 0 -61 10t-51 31.5t-34.5 54.5t-12.5 79q0 67 25 129t68 109.5t98.5 76t117.5 28.5q37 0 61 -7.5
t38 -18.5t20 -25.5t6 -27.5zM297 481q-18 0 -35.5 -19.5t-32.5 -51t-26 -73t-17 -84.5q45 20 73 41.5t43.5 43t21 43t5.5 41.5q0 59 -32 59z" />
    <glyph glyph-name="e" unicode="&#x115;" horiz-adv-x="454" 
d="M455 425q0 -33 -23 -60t-60.5 -50.5t-87 -43.5t-101.5 -38q-2 -14 -2 -27v-27q0 -69 17.5 -97.5t46.5 -28.5t70 28t83 96l17 -8q-46 -97 -104.5 -140t-130.5 -43q-32 0 -61 10t-51 31.5t-34.5 54.5t-12.5 79q0 67 25 129t68 109.5t98.5 76t117.5 28.5q37 0 61 -7.5
t38 -18.5t20 -25.5t6 -27.5zM297 481q-18 0 -35.5 -19.5t-32.5 -51t-26 -73t-17 -84.5q45 20 73 41.5t43.5 43t21 43t5.5 41.5q0 59 -32 59z" />
    <glyph glyph-name="e" unicode="&#x113;" horiz-adv-x="454" 
d="M455 425q0 -33 -23 -60t-60.5 -50.5t-87 -43.5t-101.5 -38q-2 -14 -2 -27v-27q0 -69 17.5 -97.5t46.5 -28.5t70 28t83 96l17 -8q-46 -97 -104.5 -140t-130.5 -43q-32 0 -61 10t-51 31.5t-34.5 54.5t-12.5 79q0 67 25 129t68 109.5t98.5 76t117.5 28.5q37 0 61 -7.5
t38 -18.5t20 -25.5t6 -27.5zM297 481q-18 0 -35.5 -19.5t-32.5 -51t-26 -73t-17 -84.5q45 20 73 41.5t43.5 43t21 43t5.5 41.5q0 59 -32 59z" />
    <glyph glyph-name="e" unicode="&#xeb;" horiz-adv-x="454" 
d="M455 425q0 -33 -23 -60t-60.5 -50.5t-87 -43.5t-101.5 -38q-2 -14 -2 -27v-27q0 -69 17.5 -97.5t46.5 -28.5t70 28t83 96l17 -8q-46 -97 -104.5 -140t-130.5 -43q-32 0 -61 10t-51 31.5t-34.5 54.5t-12.5 79q0 67 25 129t68 109.5t98.5 76t117.5 28.5q37 0 61 -7.5
t38 -18.5t20 -25.5t6 -27.5zM297 481q-18 0 -35.5 -19.5t-32.5 -51t-26 -73t-17 -84.5q45 20 73 41.5t43.5 43t21 43t5.5 41.5q0 59 -32 59z" />
    <glyph glyph-name="e" unicode="&#xea;" horiz-adv-x="454" 
d="M455 425q0 -33 -23 -60t-60.5 -50.5t-87 -43.5t-101.5 -38q-2 -14 -2 -27v-27q0 -69 17.5 -97.5t46.5 -28.5t70 28t83 96l17 -8q-46 -97 -104.5 -140t-130.5 -43q-32 0 -61 10t-51 31.5t-34.5 54.5t-12.5 79q0 67 25 129t68 109.5t98.5 76t117.5 28.5q37 0 61 -7.5
t38 -18.5t20 -25.5t6 -27.5zM297 481q-18 0 -35.5 -19.5t-32.5 -51t-26 -73t-17 -84.5q45 20 73 41.5t43.5 43t21 43t5.5 41.5q0 59 -32 59z" />
    <glyph glyph-name="e" unicode="&#xe9;" horiz-adv-x="454" 
d="M455 425q0 -33 -23 -60t-60.5 -50.5t-87 -43.5t-101.5 -38q-2 -14 -2 -27v-27q0 -69 17.5 -97.5t46.5 -28.5t70 28t83 96l17 -8q-46 -97 -104.5 -140t-130.5 -43q-32 0 -61 10t-51 31.5t-34.5 54.5t-12.5 79q0 67 25 129t68 109.5t98.5 76t117.5 28.5q37 0 61 -7.5
t38 -18.5t20 -25.5t6 -27.5zM297 481q-18 0 -35.5 -19.5t-32.5 -51t-26 -73t-17 -84.5q45 20 73 41.5t43.5 43t21 43t5.5 41.5q0 59 -32 59z" />
    <glyph glyph-name="e" unicode="&#xe8;" horiz-adv-x="454" 
d="M455 425q0 -33 -23 -60t-60.5 -50.5t-87 -43.5t-101.5 -38q-2 -14 -2 -27v-27q0 -69 17.5 -97.5t46.5 -28.5t70 28t83 96l17 -8q-46 -97 -104.5 -140t-130.5 -43q-32 0 -61 10t-51 31.5t-34.5 54.5t-12.5 79q0 67 25 129t68 109.5t98.5 76t117.5 28.5q37 0 61 -7.5
t38 -18.5t20 -25.5t6 -27.5zM297 481q-18 0 -35.5 -19.5t-32.5 -51t-26 -73t-17 -84.5q45 20 73 41.5t43.5 43t21 43t5.5 41.5q0 59 -32 59z" />
    <glyph glyph-name="f" unicode="f" horiz-adv-x="420" 
d="M295 481h179l-7 -28h-176l-69 -447q-12 -78 -43 -130.5t-71 -84t-84 -44.5t-81 -13q-28 0 -59 6t-57.5 17.5t-43.5 29.5t-17 42q0 23 15.5 42t50.5 19q22 0 36 -10t23.5 -25t15.5 -33t12 -33t13.5 -25t18.5 -10q15 0 31 11.5t31 38t28.5 70.5t23.5 109l72 470h-115l8 28
h112l7 47q12 78 43.5 130t71.5 83.5t84 45t82 13.5q28 0 59 -5.5t56.5 -17t42.5 -29t17 -41.5q0 -23 -13.5 -41t-48.5 -18q-22 0 -36 10t-24 24.5t-16.5 32t-13.5 32t-15.5 24.5t-20.5 10q-14 0 -29 -11.5t-30 -38.5t-28.5 -71t-23.5 -109z" />
    <glyph glyph-name="g" unicode="g" horiz-adv-x="560" 
d="M303 503q29 0 60.5 -5.5t50.5 -16.5h192l-7 -48l-144 25q48 -39 48 -112q0 -39 -18.5 -73.5t-51.5 -59.5t-79.5 -39.5t-103.5 -14.5h-16q-8 0 -16 2q-62 -12 -67 -49q-1 -7 0.5 -14t7 -13t16 -9.5t28.5 -3.5h81q41 0 80.5 -4.5t71 -18.5t51 -39.5t19.5 -68.5
q0 -51 -27.5 -90t-72 -65t-100 -39t-110.5 -13q-115 0 -177.5 34t-62.5 83q0 42 44 73t116 45q-49 7 -74 28.5t-25 54.5q0 44 43 74.5t123 41.5q-64 15 -98 56t-34 95q0 39 19 72.5t52.5 58t80 39t100.5 14.5zM72 -139q0 -27 11 -46t29 -31.5t42 -18.5t50 -6q28 0 58.5 7
t55 22t40.5 37.5t16 53.5q0 23 -9 39.5t-25 27t-37.5 15.5t-46.5 5h-116q-32 -14 -50 -42.5t-18 -62.5zM263 178q25 0 42.5 15.5t28.5 40.5t16 56.5t5 63.5q0 26 -3.5 49.5t-11 41.5t-19.5 28.5t-30 10.5q-25 0 -42.5 -15.5t-28.5 -40.5t-16 -56.5t-5 -63.5q0 -26 3 -49.5
t10.5 -41.5t20 -28.5t30.5 -10.5z" />
    <glyph glyph-name="g" unicode="&#x123;" horiz-adv-x="560" 
d="M303 503q29 0 60.5 -5.5t50.5 -16.5h192l-7 -48l-144 25q48 -39 48 -112q0 -39 -18.5 -73.5t-51.5 -59.5t-79.5 -39.5t-103.5 -14.5h-16q-8 0 -16 2q-62 -12 -67 -49q-1 -7 0.5 -14t7 -13t16 -9.5t28.5 -3.5h81q41 0 80.5 -4.5t71 -18.5t51 -39.5t19.5 -68.5
q0 -51 -27.5 -90t-72 -65t-100 -39t-110.5 -13q-115 0 -177.5 34t-62.5 83q0 42 44 73t116 45q-49 7 -74 28.5t-25 54.5q0 44 43 74.5t123 41.5q-64 15 -98 56t-34 95q0 39 19 72.5t52.5 58t80 39t100.5 14.5zM72 -139q0 -27 11 -46t29 -31.5t42 -18.5t50 -6q28 0 58.5 7
t55 22t40.5 37.5t16 53.5q0 23 -9 39.5t-25 27t-37.5 15.5t-46.5 5h-116q-32 -14 -50 -42.5t-18 -62.5zM263 178q25 0 42.5 15.5t28.5 40.5t16 56.5t5 63.5q0 26 -3.5 49.5t-11 41.5t-19.5 28.5t-30 10.5q-25 0 -42.5 -15.5t-28.5 -40.5t-16 -56.5t-5 -63.5q0 -26 3 -49.5
t10.5 -41.5t20 -28.5t30.5 -10.5z" />
    <glyph glyph-name="g" unicode="&#x121;" horiz-adv-x="560" 
d="M303 503q29 0 60.5 -5.5t50.5 -16.5h192l-7 -48l-144 25q48 -39 48 -112q0 -39 -18.5 -73.5t-51.5 -59.5t-79.5 -39.5t-103.5 -14.5h-16q-8 0 -16 2q-62 -12 -67 -49q-1 -7 0.5 -14t7 -13t16 -9.5t28.5 -3.5h81q41 0 80.5 -4.5t71 -18.5t51 -39.5t19.5 -68.5
q0 -51 -27.5 -90t-72 -65t-100 -39t-110.5 -13q-115 0 -177.5 34t-62.5 83q0 42 44 73t116 45q-49 7 -74 28.5t-25 54.5q0 44 43 74.5t123 41.5q-64 15 -98 56t-34 95q0 39 19 72.5t52.5 58t80 39t100.5 14.5zM72 -139q0 -27 11 -46t29 -31.5t42 -18.5t50 -6q28 0 58.5 7
t55 22t40.5 37.5t16 53.5q0 23 -9 39.5t-25 27t-37.5 15.5t-46.5 5h-116q-32 -14 -50 -42.5t-18 -62.5zM263 178q25 0 42.5 15.5t28.5 40.5t16 56.5t5 63.5q0 26 -3.5 49.5t-11 41.5t-19.5 28.5t-30 10.5q-25 0 -42.5 -15.5t-28.5 -40.5t-16 -56.5t-5 -63.5q0 -26 3 -49.5
t10.5 -41.5t20 -28.5t30.5 -10.5z" />
    <glyph glyph-name="g" unicode="&#x11f;" horiz-adv-x="560" 
d="M303 503q29 0 60.5 -5.5t50.5 -16.5h192l-7 -48l-144 25q48 -39 48 -112q0 -39 -18.5 -73.5t-51.5 -59.5t-79.5 -39.5t-103.5 -14.5h-16q-8 0 -16 2q-62 -12 -67 -49q-1 -7 0.5 -14t7 -13t16 -9.5t28.5 -3.5h81q41 0 80.5 -4.5t71 -18.5t51 -39.5t19.5 -68.5
q0 -51 -27.5 -90t-72 -65t-100 -39t-110.5 -13q-115 0 -177.5 34t-62.5 83q0 42 44 73t116 45q-49 7 -74 28.5t-25 54.5q0 44 43 74.5t123 41.5q-64 15 -98 56t-34 95q0 39 19 72.5t52.5 58t80 39t100.5 14.5zM72 -139q0 -27 11 -46t29 -31.5t42 -18.5t50 -6q28 0 58.5 7
t55 22t40.5 37.5t16 53.5q0 23 -9 39.5t-25 27t-37.5 15.5t-46.5 5h-116q-32 -14 -50 -42.5t-18 -62.5zM263 178q25 0 42.5 15.5t28.5 40.5t16 56.5t5 63.5q0 26 -3.5 49.5t-11 41.5t-19.5 28.5t-30 10.5q-25 0 -42.5 -15.5t-28.5 -40.5t-16 -56.5t-5 -63.5q0 -26 3 -49.5
t10.5 -41.5t20 -28.5t30.5 -10.5z" />
    <glyph glyph-name="g" unicode="&#x11d;" horiz-adv-x="560" 
d="M303 503q29 0 60.5 -5.5t50.5 -16.5h192l-7 -48l-144 25q48 -39 48 -112q0 -39 -18.5 -73.5t-51.5 -59.5t-79.5 -39.5t-103.5 -14.5h-16q-8 0 -16 2q-62 -12 -67 -49q-1 -7 0.5 -14t7 -13t16 -9.5t28.5 -3.5h81q41 0 80.5 -4.5t71 -18.5t51 -39.5t19.5 -68.5
q0 -51 -27.5 -90t-72 -65t-100 -39t-110.5 -13q-115 0 -177.5 34t-62.5 83q0 42 44 73t116 45q-49 7 -74 28.5t-25 54.5q0 44 43 74.5t123 41.5q-64 15 -98 56t-34 95q0 39 19 72.5t52.5 58t80 39t100.5 14.5zM72 -139q0 -27 11 -46t29 -31.5t42 -18.5t50 -6q28 0 58.5 7
t55 22t40.5 37.5t16 53.5q0 23 -9 39.5t-25 27t-37.5 15.5t-46.5 5h-116q-32 -14 -50 -42.5t-18 -62.5zM263 178q25 0 42.5 15.5t28.5 40.5t16 56.5t5 63.5q0 26 -3.5 49.5t-11 41.5t-19.5 28.5t-30 10.5q-25 0 -42.5 -15.5t-28.5 -40.5t-16 -56.5t-5 -63.5q0 -26 3 -49.5
t10.5 -41.5t20 -28.5t30.5 -10.5z" />
    <glyph glyph-name="h" unicode="h" horiz-adv-x="582" 
d="M229 336q30 86 78 128.5t105 42.5q48 0 70.5 -20.5t29 -52.5t1.5 -72.5t-12 -79.5l-29 -169q-7 -38 -3 -51.5t17 -13.5q14 0 31.5 21.5t39.5 61.5l17 -7q-9 -29 -22 -54.5t-31.5 -44t-42.5 -29t-56 -10.5q-31 0 -53 9.5t-34 31t-14 56.5t7 86l21 115q12 68 10.5 107.5
t-27.5 39.5q-23 0 -51 -33.5t-57 -96.5l-48 -301h-152l110 705q2 13 1.5 24t-7.5 18.5t-22.5 12t-42.5 4.5h-6l3 23h239z" />
    <glyph glyph-name="h" unicode="&#x127;" horiz-adv-x="582" 
d="M229 336q30 86 78 128.5t105 42.5q48 0 70.5 -20.5t29 -52.5t1.5 -72.5t-12 -79.5l-29 -169q-7 -38 -3 -51.5t17 -13.5q14 0 31.5 21.5t39.5 61.5l17 -7q-9 -29 -22 -54.5t-31.5 -44t-42.5 -29t-56 -10.5q-31 0 -53 9.5t-34 31t-14 56.5t7 86l21 115q12 68 10.5 107.5
t-27.5 39.5q-23 0 -51 -33.5t-57 -96.5l-48 -301h-152l110 705q2 13 1.5 24t-7.5 18.5t-22.5 12t-42.5 4.5h-6l3 23h239z" />
    <glyph glyph-name="h" unicode="&#x125;" horiz-adv-x="582" 
d="M229 336q30 86 78 128.5t105 42.5q48 0 70.5 -20.5t29 -52.5t1.5 -72.5t-12 -79.5l-29 -169q-7 -38 -3 -51.5t17 -13.5q14 0 31.5 21.5t39.5 61.5l17 -7q-9 -29 -22 -54.5t-31.5 -44t-42.5 -29t-56 -10.5q-31 0 -53 9.5t-34 31t-14 56.5t7 86l21 115q12 68 10.5 107.5
t-27.5 39.5q-23 0 -51 -33.5t-57 -96.5l-48 -301h-152l110 705q2 13 1.5 24t-7.5 18.5t-22.5 12t-42.5 4.5h-6l3 23h239z" />
    <glyph glyph-name="i" unicode="i" horiz-adv-x="333" 
d="M134 701q0 40 28 68t68 28t68 -28t28 -68t-28 -68t-68 -28t-68 28t-28 68zM214 113q-8 -38 -3.5 -51.5t17.5 -13.5q14 0 31.5 21.5t39.5 61.5l17 -7q-9 -29 -22.5 -54.5t-31.5 -44t-41.5 -29t-53.5 -10.5q-58 0 -87.5 44t-9.5 139l45 212q7 32 5 45t-13 13t-28.5 -13
t-45.5 -49l-16 10q36 66 78.5 93t87.5 27q25 0 44.5 -7.5t30.5 -25.5t13 -46.5t-7 -70.5z" />
    <glyph glyph-name="i" unicode="&#x1ecb;" horiz-adv-x="333" 
d="M134 701q0 40 28 68t68 28t68 -28t28 -68t-28 -68t-68 -28t-68 28t-28 68zM214 113q-8 -38 -3.5 -51.5t17.5 -13.5q14 0 31.5 21.5t39.5 61.5l17 -7q-9 -29 -22.5 -54.5t-31.5 -44t-41.5 -29t-53.5 -10.5q-58 0 -87.5 44t-9.5 139l45 212q7 32 5 45t-13 13t-28.5 -13
t-45.5 -49l-16 10q36 66 78.5 93t87.5 27q25 0 44.5 -7.5t30.5 -25.5t13 -46.5t-7 -70.5z" />
    <glyph glyph-name="i" unicode="&#x131;" horiz-adv-x="333" 
d="M134 701q0 40 28 68t68 28t68 -28t28 -68t-28 -68t-68 -28t-68 28t-28 68zM214 113q-8 -38 -3.5 -51.5t17.5 -13.5q14 0 31.5 21.5t39.5 61.5l17 -7q-9 -29 -22.5 -54.5t-31.5 -44t-41.5 -29t-53.5 -10.5q-58 0 -87.5 44t-9.5 139l45 212q7 32 5 45t-13 13t-28.5 -13
t-45.5 -49l-16 10q36 66 78.5 93t87.5 27q25 0 44.5 -7.5t30.5 -25.5t13 -46.5t-7 -70.5z" />
    <glyph glyph-name="i" unicode="&#x12f;" horiz-adv-x="333" 
d="M134 701q0 40 28 68t68 28t68 -28t28 -68t-28 -68t-68 -28t-68 28t-28 68zM214 113q-8 -38 -3.5 -51.5t17.5 -13.5q14 0 31.5 21.5t39.5 61.5l17 -7q-9 -29 -22.5 -54.5t-31.5 -44t-41.5 -29t-53.5 -10.5q-58 0 -87.5 44t-9.5 139l45 212q7 32 5 45t-13 13t-28.5 -13
t-45.5 -49l-16 10q36 66 78.5 93t87.5 27q25 0 44.5 -7.5t30.5 -25.5t13 -46.5t-7 -70.5z" />
    <glyph glyph-name="i" unicode="&#x12d;" horiz-adv-x="333" 
d="M134 701q0 40 28 68t68 28t68 -28t28 -68t-28 -68t-68 -28t-68 28t-28 68zM214 113q-8 -38 -3.5 -51.5t17.5 -13.5q14 0 31.5 21.5t39.5 61.5l17 -7q-9 -29 -22.5 -54.5t-31.5 -44t-41.5 -29t-53.5 -10.5q-58 0 -87.5 44t-9.5 139l45 212q7 32 5 45t-13 13t-28.5 -13
t-45.5 -49l-16 10q36 66 78.5 93t87.5 27q25 0 44.5 -7.5t30.5 -25.5t13 -46.5t-7 -70.5z" />
    <glyph glyph-name="i" unicode="&#x12b;" horiz-adv-x="333" 
d="M134 701q0 40 28 68t68 28t68 -28t28 -68t-28 -68t-68 -28t-68 28t-28 68zM214 113q-8 -38 -3.5 -51.5t17.5 -13.5q14 0 31.5 21.5t39.5 61.5l17 -7q-9 -29 -22.5 -54.5t-31.5 -44t-41.5 -29t-53.5 -10.5q-58 0 -87.5 44t-9.5 139l45 212q7 32 5 45t-13 13t-28.5 -13
t-45.5 -49l-16 10q36 66 78.5 93t87.5 27q25 0 44.5 -7.5t30.5 -25.5t13 -46.5t-7 -70.5z" />
    <glyph glyph-name="i" unicode="&#x129;" horiz-adv-x="333" 
d="M134 701q0 40 28 68t68 28t68 -28t28 -68t-28 -68t-68 -28t-68 28t-28 68zM214 113q-8 -38 -3.5 -51.5t17.5 -13.5q14 0 31.5 21.5t39.5 61.5l17 -7q-9 -29 -22.5 -54.5t-31.5 -44t-41.5 -29t-53.5 -10.5q-58 0 -87.5 44t-9.5 139l45 212q7 32 5 45t-13 13t-28.5 -13
t-45.5 -49l-16 10q36 66 78.5 93t87.5 27q25 0 44.5 -7.5t30.5 -25.5t13 -46.5t-7 -70.5z" />
    <glyph glyph-name="i" unicode="&#xef;" horiz-adv-x="333" 
d="M134 701q0 40 28 68t68 28t68 -28t28 -68t-28 -68t-68 -28t-68 28t-28 68zM214 113q-8 -38 -3.5 -51.5t17.5 -13.5q14 0 31.5 21.5t39.5 61.5l17 -7q-9 -29 -22.5 -54.5t-31.5 -44t-41.5 -29t-53.5 -10.5q-58 0 -87.5 44t-9.5 139l45 212q7 32 5 45t-13 13t-28.5 -13
t-45.5 -49l-16 10q36 66 78.5 93t87.5 27q25 0 44.5 -7.5t30.5 -25.5t13 -46.5t-7 -70.5z" />
    <glyph glyph-name="i" unicode="&#xee;" horiz-adv-x="333" 
d="M134 701q0 40 28 68t68 28t68 -28t28 -68t-28 -68t-68 -28t-68 28t-28 68zM214 113q-8 -38 -3.5 -51.5t17.5 -13.5q14 0 31.5 21.5t39.5 61.5l17 -7q-9 -29 -22.5 -54.5t-31.5 -44t-41.5 -29t-53.5 -10.5q-58 0 -87.5 44t-9.5 139l45 212q7 32 5 45t-13 13t-28.5 -13
t-45.5 -49l-16 10q36 66 78.5 93t87.5 27q25 0 44.5 -7.5t30.5 -25.5t13 -46.5t-7 -70.5z" />
    <glyph glyph-name="i" unicode="&#xed;" horiz-adv-x="333" 
d="M134 701q0 40 28 68t68 28t68 -28t28 -68t-28 -68t-68 -28t-68 28t-28 68zM214 113q-8 -38 -3.5 -51.5t17.5 -13.5q14 0 31.5 21.5t39.5 61.5l17 -7q-9 -29 -22.5 -54.5t-31.5 -44t-41.5 -29t-53.5 -10.5q-58 0 -87.5 44t-9.5 139l45 212q7 32 5 45t-13 13t-28.5 -13
t-45.5 -49l-16 10q36 66 78.5 93t87.5 27q25 0 44.5 -7.5t30.5 -25.5t13 -46.5t-7 -70.5z" />
    <glyph glyph-name="i" unicode="&#xec;" horiz-adv-x="333" 
d="M134 701q0 40 28 68t68 28t68 -28t28 -68t-28 -68t-68 -28t-68 28t-28 68zM214 113q-8 -38 -3.5 -51.5t17.5 -13.5q14 0 31.5 21.5t39.5 61.5l17 -7q-9 -29 -22.5 -54.5t-31.5 -44t-41.5 -29t-53.5 -10.5q-58 0 -87.5 44t-9.5 139l45 212q7 32 5 45t-13 13t-28.5 -13
t-45.5 -49l-16 10q36 66 78.5 93t87.5 27q25 0 44.5 -7.5t30.5 -25.5t13 -46.5t-7 -70.5z" />
    <glyph glyph-name="j" unicode="j" horiz-adv-x="304" 
d="M140 701q0 40 28 68t68 28t68 -28t28 -68t-28 -68t-68 -28t-68 28t-28 68zM121 381q6 32 4.5 45t-12.5 13t-28.5 -13t-45.5 -49l-16 10q36 66 78.5 93t87.5 27q26 0 45 -7.5t29.5 -25t12.5 -46.5t-6 -71l-42 -229q-14 -77 -34 -135t-53.5 -104.5t-86 -85.5t-130.5 -77
l-5 9q29 27 50 55.5t37.5 67t30 91.5t27.5 128z" />
    <glyph glyph-name="j" unicode="&#x237;" horiz-adv-x="304" 
d="M140 701q0 40 28 68t68 28t68 -28t28 -68t-28 -68t-68 -28t-68 28t-28 68zM121 381q6 32 4.5 45t-12.5 13t-28.5 -13t-45.5 -49l-16 10q36 66 78.5 93t87.5 27q26 0 45 -7.5t29.5 -25t12.5 -46.5t-6 -71l-42 -229q-14 -77 -34 -135t-53.5 -104.5t-86 -85.5t-130.5 -77
l-5 9q29 27 50 55.5t37.5 67t30 91.5t27.5 128z" />
    <glyph glyph-name="j" unicode="&#x135;" horiz-adv-x="304" 
d="M140 701q0 40 28 68t68 28t68 -28t28 -68t-28 -68t-68 -28t-68 28t-28 68zM121 381q6 32 4.5 45t-12.5 13t-28.5 -13t-45.5 -49l-16 10q36 66 78.5 93t87.5 27q26 0 45 -7.5t29.5 -25t12.5 -46.5t-6 -71l-42 -229q-14 -77 -34 -135t-53.5 -104.5t-86 -85.5t-130.5 -77
l-5 9q29 27 50 55.5t37.5 67t30 91.5t27.5 128z" />
    <glyph glyph-name="k" unicode="k" horiz-adv-x="566" 
d="M220 283h15q73 0 107.5 38.5t34.5 96.5q0 45 17 65.5t49 20.5q24 0 38.5 -14t14.5 -43q0 -23 -16.5 -50t-44 -51.5t-64.5 -44.5t-78 -27q41 -6 67.5 -18.5t42.5 -31t24 -42.5t14 -52q3 -22 10.5 -42.5t22 -35.5t36.5 -23.5t54 -5.5l2 -15q-29 -11 -58 -16.5t-54 -5.5
q-67 0 -104.5 27t-55.5 99q-8 30 -13 55.5t-12.5 45.5t-19 32.5t-32.5 16.5l-42 -262h-152l113 705q2 13 1.5 24t-7.5 18.5t-22.5 12t-42.5 4.5h-6l3 23h239z" />
    <glyph glyph-name="k" unicode="&#x137;" horiz-adv-x="566" 
d="M220 283h15q73 0 107.5 38.5t34.5 96.5q0 45 17 65.5t49 20.5q24 0 38.5 -14t14.5 -43q0 -23 -16.5 -50t-44 -51.5t-64.5 -44.5t-78 -27q41 -6 67.5 -18.5t42.5 -31t24 -42.5t14 -52q3 -22 10.5 -42.5t22 -35.5t36.5 -23.5t54 -5.5l2 -15q-29 -11 -58 -16.5t-54 -5.5
q-67 0 -104.5 27t-55.5 99q-8 30 -13 55.5t-12.5 45.5t-19 32.5t-32.5 16.5l-42 -262h-152l113 705q2 13 1.5 24t-7.5 18.5t-22.5 12t-42.5 4.5h-6l3 23h239z" />
    <glyph glyph-name="l" unicode="l" horiz-adv-x="304" 
d="M137 705q2 13 1.5 24t-7.5 18.5t-22.5 12t-42.5 4.5h-6l3 23h239l-112 -675q-6 -38 -2.5 -51t17.5 -13t31.5 21.5t39.5 61.5l17 -7q-9 -29 -22.5 -54.5t-31.5 -44t-41.5 -29t-53.5 -10.5q-66 0 -89.5 43t-7.5 140z" />
    <glyph glyph-name="l" unicode="&#x142;" horiz-adv-x="304" 
d="M137 705q2 13 1.5 24t-7.5 18.5t-22.5 12t-42.5 4.5h-6l3 23h239l-112 -675q-6 -38 -2.5 -51t17.5 -13t31.5 21.5t39.5 61.5l17 -7q-9 -29 -22.5 -54.5t-31.5 -44t-41.5 -29t-53.5 -10.5q-66 0 -89.5 43t-7.5 140z" />
    <glyph glyph-name="l" unicode="&#x140;" horiz-adv-x="304" 
d="M137 705q2 13 1.5 24t-7.5 18.5t-22.5 12t-42.5 4.5h-6l3 23h239l-112 -675q-6 -38 -2.5 -51t17.5 -13t31.5 21.5t39.5 61.5l17 -7q-9 -29 -22.5 -54.5t-31.5 -44t-41.5 -29t-53.5 -10.5q-66 0 -89.5 43t-7.5 140z" />
    <glyph glyph-name="l" unicode="&#x13e;" horiz-adv-x="304" 
d="M137 705q2 13 1.5 24t-7.5 18.5t-22.5 12t-42.5 4.5h-6l3 23h239l-112 -675q-6 -38 -2.5 -51t17.5 -13t31.5 21.5t39.5 61.5l17 -7q-9 -29 -22.5 -54.5t-31.5 -44t-41.5 -29t-53.5 -10.5q-66 0 -89.5 43t-7.5 140z" />
    <glyph glyph-name="l" unicode="&#x13c;" horiz-adv-x="304" 
d="M137 705q2 13 1.5 24t-7.5 18.5t-22.5 12t-42.5 4.5h-6l3 23h239l-112 -675q-6 -38 -2.5 -51t17.5 -13t31.5 21.5t39.5 61.5l17 -7q-9 -29 -22.5 -54.5t-31.5 -44t-41.5 -29t-53.5 -10.5q-66 0 -89.5 43t-7.5 140z" />
    <glyph glyph-name="l" unicode="&#x13a;" horiz-adv-x="304" 
d="M137 705q2 13 1.5 24t-7.5 18.5t-22.5 12t-42.5 4.5h-6l3 23h239l-112 -675q-6 -38 -2.5 -51t17.5 -13t31.5 21.5t39.5 61.5l17 -7q-9 -29 -22.5 -54.5t-31.5 -44t-41.5 -29t-53.5 -10.5q-66 0 -89.5 43t-7.5 140z" />
    <glyph glyph-name="m" unicode="m" horiz-adv-x="894" 
d="M734 -14q-31 0 -53 9.5t-34 31t-14 56.5t7 86l20 111q5 28 8.5 55.5t3 48.5t-7 34t-21.5 13q-22 0 -50 -33.5t-56 -94.5l-49 -303h-152l45 280q2 15 6 40.5t4 50t-5.5 42.5t-22.5 18q-23 0 -51 -33.5t-57 -96.5l-48 -301h-152l62 381q5 32 4 45t-15 13q-11 0 -28.5 -13
t-45.5 -49l-16 10q36 66 78.5 93t87.5 27q24 0 44 -7.5t31 -26.5t13 -52t-10 -85q30 86 78 128.5t106 42.5q38 0 59.5 -13.5t31.5 -36.5t10 -54t-4 -66q32 85 78.5 127.5t103.5 42.5q48 0 71 -20t29 -52.5t1 -73.5t-12 -83l-28 -165q-7 -38 -3 -51.5t17 -13.5
q14 0 31.5 21.5t39.5 61.5l17 -7q-9 -29 -22 -54.5t-31.5 -44t-42.5 -29t-56 -10.5z" />
    <glyph glyph-name="n" unicode="n" horiz-adv-x="613" 
d="M16 387q36 66 78.5 93t87.5 27q24 0 44 -7.5t31 -26.5t13 -52t-10 -85q30 86 78 128.5t105 42.5q48 0 70.5 -20.5t29 -52.5t1.5 -72.5t-12 -79.5l-29 -169q-7 -38 -3 -51.5t17 -13.5q14 0 31.5 21.5t39.5 61.5l17 -7q-9 -29 -22 -54.5t-31.5 -44t-42.5 -29t-56 -10.5
q-31 0 -53 9.5t-34 31t-14 56.5t7 86l21 115q12 68 10.5 107.5t-27.5 39.5q-23 0 -51 -33.5t-57 -96.5l-48 -301h-152l62 381q5 32 4 45t-15 13q-11 0 -28.5 -13t-45.5 -49z" />
    <glyph glyph-name="n" unicode="&#x14b;" horiz-adv-x="613" 
d="M16 387q36 66 78.5 93t87.5 27q24 0 44 -7.5t31 -26.5t13 -52t-10 -85q30 86 78 128.5t105 42.5q48 0 70.5 -20.5t29 -52.5t1.5 -72.5t-12 -79.5l-29 -169q-7 -38 -3 -51.5t17 -13.5q14 0 31.5 21.5t39.5 61.5l17 -7q-9 -29 -22 -54.5t-31.5 -44t-42.5 -29t-56 -10.5
q-31 0 -53 9.5t-34 31t-14 56.5t7 86l21 115q12 68 10.5 107.5t-27.5 39.5q-23 0 -51 -33.5t-57 -96.5l-48 -301h-152l62 381q5 32 4 45t-15 13q-11 0 -28.5 -13t-45.5 -49z" />
    <glyph glyph-name="n" unicode="&#x148;" horiz-adv-x="613" 
d="M16 387q36 66 78.5 93t87.5 27q24 0 44 -7.5t31 -26.5t13 -52t-10 -85q30 86 78 128.5t105 42.5q48 0 70.5 -20.5t29 -52.5t1.5 -72.5t-12 -79.5l-29 -169q-7 -38 -3 -51.5t17 -13.5q14 0 31.5 21.5t39.5 61.5l17 -7q-9 -29 -22 -54.5t-31.5 -44t-42.5 -29t-56 -10.5
q-31 0 -53 9.5t-34 31t-14 56.5t7 86l21 115q12 68 10.5 107.5t-27.5 39.5q-23 0 -51 -33.5t-57 -96.5l-48 -301h-152l62 381q5 32 4 45t-15 13q-11 0 -28.5 -13t-45.5 -49z" />
    <glyph glyph-name="n" unicode="&#x146;" horiz-adv-x="613" 
d="M16 387q36 66 78.5 93t87.5 27q24 0 44 -7.5t31 -26.5t13 -52t-10 -85q30 86 78 128.5t105 42.5q48 0 70.5 -20.5t29 -52.5t1.5 -72.5t-12 -79.5l-29 -169q-7 -38 -3 -51.5t17 -13.5q14 0 31.5 21.5t39.5 61.5l17 -7q-9 -29 -22 -54.5t-31.5 -44t-42.5 -29t-56 -10.5
q-31 0 -53 9.5t-34 31t-14 56.5t7 86l21 115q12 68 10.5 107.5t-27.5 39.5q-23 0 -51 -33.5t-57 -96.5l-48 -301h-152l62 381q5 32 4 45t-15 13q-11 0 -28.5 -13t-45.5 -49z" />
    <glyph glyph-name="n" unicode="&#x144;" horiz-adv-x="613" 
d="M16 387q36 66 78.5 93t87.5 27q24 0 44 -7.5t31 -26.5t13 -52t-10 -85q30 86 78 128.5t105 42.5q48 0 70.5 -20.5t29 -52.5t1.5 -72.5t-12 -79.5l-29 -169q-7 -38 -3 -51.5t17 -13.5q14 0 31.5 21.5t39.5 61.5l17 -7q-9 -29 -22 -54.5t-31.5 -44t-42.5 -29t-56 -10.5
q-31 0 -53 9.5t-34 31t-14 56.5t7 86l21 115q12 68 10.5 107.5t-27.5 39.5q-23 0 -51 -33.5t-57 -96.5l-48 -301h-152l62 381q5 32 4 45t-15 13q-11 0 -28.5 -13t-45.5 -49z" />
    <glyph glyph-name="n" unicode="&#xf1;" horiz-adv-x="613" 
d="M16 387q36 66 78.5 93t87.5 27q24 0 44 -7.5t31 -26.5t13 -52t-10 -85q30 86 78 128.5t105 42.5q48 0 70.5 -20.5t29 -52.5t1.5 -72.5t-12 -79.5l-29 -169q-7 -38 -3 -51.5t17 -13.5q14 0 31.5 21.5t39.5 61.5l17 -7q-9 -29 -22 -54.5t-31.5 -44t-42.5 -29t-56 -10.5
q-31 0 -53 9.5t-34 31t-14 56.5t7 86l21 115q12 68 10.5 107.5t-27.5 39.5q-23 0 -51 -33.5t-57 -96.5l-48 -301h-152l62 381q5 32 4 45t-15 13q-11 0 -28.5 -13t-45.5 -49z" />
    <glyph glyph-name="o" unicode="o" horiz-adv-x="553" 
d="M20 167q0 64 26.5 124.5t72 107.5t105.5 76t128 29q89 0 135.5 -48.5t46.5 -132.5q0 -64 -26.5 -124.5t-72 -108t-106 -76t-127.5 -28.5q-89 0 -135.5 48.5t-46.5 132.5zM374 321q0 33 -2 62.5t-9 51t-19 34.5t-33 13q-32 0 -56.5 -31.5t-41 -78.5t-25 -101.5
t-8.5 -101.5q0 -33 2 -62.5t9 -51t19 -34.5t33 -13q32 0 56.5 31.5t41 78.5t25 101.5t8.5 101.5z" />
    <glyph glyph-name="o" unicode="&#x1ecd;" horiz-adv-x="553" 
d="M20 167q0 64 26.5 124.5t72 107.5t105.5 76t128 29q89 0 135.5 -48.5t46.5 -132.5q0 -64 -26.5 -124.5t-72 -108t-106 -76t-127.5 -28.5q-89 0 -135.5 48.5t-46.5 132.5zM374 321q0 33 -2 62.5t-9 51t-19 34.5t-33 13q-32 0 -56.5 -31.5t-41 -78.5t-25 -101.5
t-8.5 -101.5q0 -33 2 -62.5t9 -51t19 -34.5t33 -13q32 0 56.5 31.5t41 78.5t25 101.5t8.5 101.5z" />
    <glyph glyph-name="o" unicode="&#x153;" horiz-adv-x="553" 
d="M20 167q0 64 26.5 124.5t72 107.5t105.5 76t128 29q89 0 135.5 -48.5t46.5 -132.5q0 -64 -26.5 -124.5t-72 -108t-106 -76t-127.5 -28.5q-89 0 -135.5 48.5t-46.5 132.5zM374 321q0 33 -2 62.5t-9 51t-19 34.5t-33 13q-32 0 -56.5 -31.5t-41 -78.5t-25 -101.5
t-8.5 -101.5q0 -33 2 -62.5t9 -51t19 -34.5t33 -13q32 0 56.5 31.5t41 78.5t25 101.5t8.5 101.5z" />
    <glyph glyph-name="o" unicode="&#x151;" horiz-adv-x="553" 
d="M20 167q0 64 26.5 124.5t72 107.5t105.5 76t128 29q89 0 135.5 -48.5t46.5 -132.5q0 -64 -26.5 -124.5t-72 -108t-106 -76t-127.5 -28.5q-89 0 -135.5 48.5t-46.5 132.5zM374 321q0 33 -2 62.5t-9 51t-19 34.5t-33 13q-32 0 -56.5 -31.5t-41 -78.5t-25 -101.5
t-8.5 -101.5q0 -33 2 -62.5t9 -51t19 -34.5t33 -13q32 0 56.5 31.5t41 78.5t25 101.5t8.5 101.5z" />
    <glyph glyph-name="o" unicode="&#x14f;" horiz-adv-x="553" 
d="M20 167q0 64 26.5 124.5t72 107.5t105.5 76t128 29q89 0 135.5 -48.5t46.5 -132.5q0 -64 -26.5 -124.5t-72 -108t-106 -76t-127.5 -28.5q-89 0 -135.5 48.5t-46.5 132.5zM374 321q0 33 -2 62.5t-9 51t-19 34.5t-33 13q-32 0 -56.5 -31.5t-41 -78.5t-25 -101.5
t-8.5 -101.5q0 -33 2 -62.5t9 -51t19 -34.5t33 -13q32 0 56.5 31.5t41 78.5t25 101.5t8.5 101.5z" />
    <glyph glyph-name="o" unicode="&#x14d;" horiz-adv-x="553" 
d="M20 167q0 64 26.5 124.5t72 107.5t105.5 76t128 29q89 0 135.5 -48.5t46.5 -132.5q0 -64 -26.5 -124.5t-72 -108t-106 -76t-127.5 -28.5q-89 0 -135.5 48.5t-46.5 132.5zM374 321q0 33 -2 62.5t-9 51t-19 34.5t-33 13q-32 0 -56.5 -31.5t-41 -78.5t-25 -101.5
t-8.5 -101.5q0 -33 2 -62.5t9 -51t19 -34.5t33 -13q32 0 56.5 31.5t41 78.5t25 101.5t8.5 101.5z" />
    <glyph glyph-name="o" unicode="&#xf8;" horiz-adv-x="553" 
d="M20 167q0 64 26.5 124.5t72 107.5t105.5 76t128 29q89 0 135.5 -48.5t46.5 -132.5q0 -64 -26.5 -124.5t-72 -108t-106 -76t-127.5 -28.5q-89 0 -135.5 48.5t-46.5 132.5zM374 321q0 33 -2 62.5t-9 51t-19 34.5t-33 13q-32 0 -56.5 -31.5t-41 -78.5t-25 -101.5
t-8.5 -101.5q0 -33 2 -62.5t9 -51t19 -34.5t33 -13q32 0 56.5 31.5t41 78.5t25 101.5t8.5 101.5z" />
    <glyph glyph-name="o" unicode="&#xf6;" horiz-adv-x="553" 
d="M20 167q0 64 26.5 124.5t72 107.5t105.5 76t128 29q89 0 135.5 -48.5t46.5 -132.5q0 -64 -26.5 -124.5t-72 -108t-106 -76t-127.5 -28.5q-89 0 -135.5 48.5t-46.5 132.5zM374 321q0 33 -2 62.5t-9 51t-19 34.5t-33 13q-32 0 -56.5 -31.5t-41 -78.5t-25 -101.5
t-8.5 -101.5q0 -33 2 -62.5t9 -51t19 -34.5t33 -13q32 0 56.5 31.5t41 78.5t25 101.5t8.5 101.5z" />
    <glyph glyph-name="o" unicode="&#xf5;" horiz-adv-x="553" 
d="M20 167q0 64 26.5 124.5t72 107.5t105.5 76t128 29q89 0 135.5 -48.5t46.5 -132.5q0 -64 -26.5 -124.5t-72 -108t-106 -76t-127.5 -28.5q-89 0 -135.5 48.5t-46.5 132.5zM374 321q0 33 -2 62.5t-9 51t-19 34.5t-33 13q-32 0 -56.5 -31.5t-41 -78.5t-25 -101.5
t-8.5 -101.5q0 -33 2 -62.5t9 -51t19 -34.5t33 -13q32 0 56.5 31.5t41 78.5t25 101.5t8.5 101.5z" />
    <glyph glyph-name="o" unicode="&#xf4;" horiz-adv-x="553" 
d="M20 167q0 64 26.5 124.5t72 107.5t105.5 76t128 29q89 0 135.5 -48.5t46.5 -132.5q0 -64 -26.5 -124.5t-72 -108t-106 -76t-127.5 -28.5q-89 0 -135.5 48.5t-46.5 132.5zM374 321q0 33 -2 62.5t-9 51t-19 34.5t-33 13q-32 0 -56.5 -31.5t-41 -78.5t-25 -101.5
t-8.5 -101.5q0 -33 2 -62.5t9 -51t19 -34.5t33 -13q32 0 56.5 31.5t41 78.5t25 101.5t8.5 101.5z" />
    <glyph glyph-name="o" unicode="&#xf3;" horiz-adv-x="553" 
d="M20 167q0 64 26.5 124.5t72 107.5t105.5 76t128 29q89 0 135.5 -48.5t46.5 -132.5q0 -64 -26.5 -124.5t-72 -108t-106 -76t-127.5 -28.5q-89 0 -135.5 48.5t-46.5 132.5zM374 321q0 33 -2 62.5t-9 51t-19 34.5t-33 13q-32 0 -56.5 -31.5t-41 -78.5t-25 -101.5
t-8.5 -101.5q0 -33 2 -62.5t9 -51t19 -34.5t33 -13q32 0 56.5 31.5t41 78.5t25 101.5t8.5 101.5z" />
    <glyph glyph-name="o" unicode="&#xf2;" horiz-adv-x="553" 
d="M20 167q0 64 26.5 124.5t72 107.5t105.5 76t128 29q89 0 135.5 -48.5t46.5 -132.5q0 -64 -26.5 -124.5t-72 -108t-106 -76t-127.5 -28.5q-89 0 -135.5 48.5t-46.5 132.5zM374 321q0 33 -2 62.5t-9 51t-19 34.5t-33 13q-32 0 -56.5 -31.5t-41 -78.5t-25 -101.5
t-8.5 -101.5q0 -33 2 -62.5t9 -51t19 -34.5t33 -13q32 0 56.5 31.5t41 78.5t25 101.5t8.5 101.5z" />
    <glyph glyph-name="p" unicode="p" horiz-adv-x="602" 
d="M264 370q19 40 42 67t46.5 42.5t46.5 22t43 6.5q39 0 66.5 -14t44.5 -36.5t25 -51.5t8 -59q0 -73 -28.5 -138.5t-72.5 -114.5t-98.5 -78t-106.5 -29q-42 0 -71 16l-30 -188q-2 -12 -0.5 -22t9 -17t24 -11t44.5 -4h3l-3 -23h-319l3 23h2q25 0 40.5 4t24.5 11t13 17t6 22
l90 566q5 32 4 45t-15 13q-11 0 -28.5 -13t-45.5 -49l-16 10q36 66 78.5 93t87.5 27q52 0 74 -31.5t9 -105.5zM289 10q23 0 42.5 16.5t34.5 43.5t26.5 60.5t19 67.5t11 64.5t3.5 52.5q0 66 -13.5 94.5t-38.5 28.5q-10 0 -23 -4t-27.5 -15.5t-30.5 -31.5t-33 -51l-38 -246
q11 -42 29.5 -61t37.5 -19z" />
    <glyph glyph-name="p" unicode="&#xfe;" horiz-adv-x="602" 
d="M264 370q19 40 42 67t46.5 42.5t46.5 22t43 6.5q39 0 66.5 -14t44.5 -36.5t25 -51.5t8 -59q0 -73 -28.5 -138.5t-72.5 -114.5t-98.5 -78t-106.5 -29q-42 0 -71 16l-30 -188q-2 -12 -0.5 -22t9 -17t24 -11t44.5 -4h3l-3 -23h-319l3 23h2q25 0 40.5 4t24.5 11t13 17t6 22
l90 566q5 32 4 45t-15 13q-11 0 -28.5 -13t-45.5 -49l-16 10q36 66 78.5 93t87.5 27q52 0 74 -31.5t9 -105.5zM289 10q23 0 42.5 16.5t34.5 43.5t26.5 60.5t19 67.5t11 64.5t3.5 52.5q0 66 -13.5 94.5t-38.5 28.5q-10 0 -23 -4t-27.5 -15.5t-30.5 -31.5t-33 -51l-38 -246
q11 -42 29.5 -61t37.5 -19z" />
    <glyph glyph-name="q" unicode="q" horiz-adv-x="566" 
d="M187 -239h2q50 0 71 14.5t25 39.5l47 288q-33 -60 -77.5 -88.5t-95.5 -28.5q-43 0 -70 16t-42.5 40t-21 53t-5.5 55q0 75 28.5 140t74 113.5t101.5 76t110 27.5q32 0 63 -11.5t58 -40.5l51 38h43l-111 -678q-2 -12 -2.5 -22t5.5 -17t20.5 -11t43.5 -4h1l-3 -23h-319z
M384 414q-5 35 -20 52.5t-33 17.5q-29 0 -56.5 -29.5t-49.5 -76.5t-35 -104.5t-13 -112.5q0 -43 13.5 -74t43.5 -31q6 0 16 2.5t23.5 11t29.5 25t35 44.5z" />
    <glyph glyph-name="r" unicode="r" horiz-adv-x="443" 
d="M258 326q19 62 42.5 98t45.5 54.5t41 23.5t30 5q28 0 44.5 -14.5t16.5 -40.5q0 -44 -37 -59q-12 -5 -23 -6.5t-23 -1.5t-25.5 -1t-30.5 -5q-28 -5 -55 -37t-38 -97l-39 -245h-152l62 381q5 32 4 45t-15 13q-11 0 -28.5 -13t-45.5 -49l-16 10q36 66 78.5 93t87.5 27
q22 0 41 -6t31 -23t15.5 -47.5t-6.5 -79.5z" />
    <glyph glyph-name="r" unicode="&#x159;" horiz-adv-x="443" 
d="M258 326q19 62 42.5 98t45.5 54.5t41 23.5t30 5q28 0 44.5 -14.5t16.5 -40.5q0 -44 -37 -59q-12 -5 -23 -6.5t-23 -1.5t-25.5 -1t-30.5 -5q-28 -5 -55 -37t-38 -97l-39 -245h-152l62 381q5 32 4 45t-15 13q-11 0 -28.5 -13t-45.5 -49l-16 10q36 66 78.5 93t87.5 27
q22 0 41 -6t31 -23t15.5 -47.5t-6.5 -79.5z" />
    <glyph glyph-name="r" unicode="&#x157;" horiz-adv-x="443" 
d="M258 326q19 62 42.5 98t45.5 54.5t41 23.5t30 5q28 0 44.5 -14.5t16.5 -40.5q0 -44 -37 -59q-12 -5 -23 -6.5t-23 -1.5t-25.5 -1t-30.5 -5q-28 -5 -55 -37t-38 -97l-39 -245h-152l62 381q5 32 4 45t-15 13q-11 0 -28.5 -13t-45.5 -49l-16 10q36 66 78.5 93t87.5 27
q22 0 41 -6t31 -23t15.5 -47.5t-6.5 -79.5z" />
    <glyph glyph-name="r" unicode="&#x155;" horiz-adv-x="443" 
d="M258 326q19 62 42.5 98t45.5 54.5t41 23.5t30 5q28 0 44.5 -14.5t16.5 -40.5q0 -44 -37 -59q-12 -5 -23 -6.5t-23 -1.5t-25.5 -1t-30.5 -5q-28 -5 -55 -37t-38 -97l-39 -245h-152l62 381q5 32 4 45t-15 13q-11 0 -28.5 -13t-45.5 -49l-16 10q36 66 78.5 93t87.5 27
q22 0 41 -6t31 -23t15.5 -47.5t-6.5 -79.5z" />
    <glyph glyph-name="s" unicode="s" horiz-adv-x="432" 
d="M292 279q45 -42 65.5 -72.5t20.5 -68.5q0 -41 -18 -69.5t-46.5 -47t-64.5 -27t-71 -8.5q-30 0 -61.5 5.5t-57 16.5t-41.5 28.5t-16 41.5q0 26 16.5 43t48.5 17q33 0 49.5 -20.5t27 -45.5t20.5 -45.5t29 -20.5q22 0 39.5 17t17.5 55q0 18 -3 30.5t-10.5 24.5t-19.5 24.5
t-31 29.5l-47 43q-32 29 -52.5 62t-20.5 68q0 36 16.5 63t44.5 45t64 26.5t74 8.5q19 0 46.5 -4t52 -14.5t42 -27.5t17.5 -43q0 -17 -13 -32.5t-41 -15.5q-33 0 -48.5 18t-26 39.5t-22 39.5t-35.5 18q-20 0 -33 -14.5t-13 -38.5q0 -56 56 -107z" />
    <glyph glyph-name="s" unicode="&#x219;" horiz-adv-x="432" 
d="M292 279q45 -42 65.5 -72.5t20.5 -68.5q0 -41 -18 -69.5t-46.5 -47t-64.5 -27t-71 -8.5q-30 0 -61.5 5.5t-57 16.5t-41.5 28.5t-16 41.5q0 26 16.5 43t48.5 17q33 0 49.5 -20.5t27 -45.5t20.5 -45.5t29 -20.5q22 0 39.5 17t17.5 55q0 18 -3 30.5t-10.5 24.5t-19.5 24.5
t-31 29.5l-47 43q-32 29 -52.5 62t-20.5 68q0 36 16.5 63t44.5 45t64 26.5t74 8.5q19 0 46.5 -4t52 -14.5t42 -27.5t17.5 -43q0 -17 -13 -32.5t-41 -15.5q-33 0 -48.5 18t-26 39.5t-22 39.5t-35.5 18q-20 0 -33 -14.5t-13 -38.5q0 -56 56 -107z" />
    <glyph glyph-name="s" unicode="&#x161;" horiz-adv-x="432" 
d="M292 279q45 -42 65.5 -72.5t20.5 -68.5q0 -41 -18 -69.5t-46.5 -47t-64.5 -27t-71 -8.5q-30 0 -61.5 5.5t-57 16.5t-41.5 28.5t-16 41.5q0 26 16.5 43t48.5 17q33 0 49.5 -20.5t27 -45.5t20.5 -45.5t29 -20.5q22 0 39.5 17t17.5 55q0 18 -3 30.5t-10.5 24.5t-19.5 24.5
t-31 29.5l-47 43q-32 29 -52.5 62t-20.5 68q0 36 16.5 63t44.5 45t64 26.5t74 8.5q19 0 46.5 -4t52 -14.5t42 -27.5t17.5 -43q0 -17 -13 -32.5t-41 -15.5q-33 0 -48.5 18t-26 39.5t-22 39.5t-35.5 18q-20 0 -33 -14.5t-13 -38.5q0 -56 56 -107z" />
    <glyph glyph-name="s" unicode="&#x15f;" horiz-adv-x="432" 
d="M292 279q45 -42 65.5 -72.5t20.5 -68.5q0 -41 -18 -69.5t-46.5 -47t-64.5 -27t-71 -8.5q-30 0 -61.5 5.5t-57 16.5t-41.5 28.5t-16 41.5q0 26 16.5 43t48.5 17q33 0 49.5 -20.5t27 -45.5t20.5 -45.5t29 -20.5q22 0 39.5 17t17.5 55q0 18 -3 30.5t-10.5 24.5t-19.5 24.5
t-31 29.5l-47 43q-32 29 -52.5 62t-20.5 68q0 36 16.5 63t44.5 45t64 26.5t74 8.5q19 0 46.5 -4t52 -14.5t42 -27.5t17.5 -43q0 -17 -13 -32.5t-41 -15.5q-33 0 -48.5 18t-26 39.5t-22 39.5t-35.5 18q-20 0 -33 -14.5t-13 -38.5q0 -56 56 -107z" />
    <glyph glyph-name="s" unicode="&#x15d;" horiz-adv-x="432" 
d="M292 279q45 -42 65.5 -72.5t20.5 -68.5q0 -41 -18 -69.5t-46.5 -47t-64.5 -27t-71 -8.5q-30 0 -61.5 5.5t-57 16.5t-41.5 28.5t-16 41.5q0 26 16.5 43t48.5 17q33 0 49.5 -20.5t27 -45.5t20.5 -45.5t29 -20.5q22 0 39.5 17t17.5 55q0 18 -3 30.5t-10.5 24.5t-19.5 24.5
t-31 29.5l-47 43q-32 29 -52.5 62t-20.5 68q0 36 16.5 63t44.5 45t64 26.5t74 8.5q19 0 46.5 -4t52 -14.5t42 -27.5t17.5 -43q0 -17 -13 -32.5t-41 -15.5q-33 0 -48.5 18t-26 39.5t-22 39.5t-35.5 18q-20 0 -33 -14.5t-13 -38.5q0 -56 56 -107z" />
    <glyph glyph-name="s" unicode="&#x15b;" horiz-adv-x="432" 
d="M292 279q45 -42 65.5 -72.5t20.5 -68.5q0 -41 -18 -69.5t-46.5 -47t-64.5 -27t-71 -8.5q-30 0 -61.5 5.5t-57 16.5t-41.5 28.5t-16 41.5q0 26 16.5 43t48.5 17q33 0 49.5 -20.5t27 -45.5t20.5 -45.5t29 -20.5q22 0 39.5 17t17.5 55q0 18 -3 30.5t-10.5 24.5t-19.5 24.5
t-31 29.5l-47 43q-32 29 -52.5 62t-20.5 68q0 36 16.5 63t44.5 45t64 26.5t74 8.5q19 0 46.5 -4t52 -14.5t42 -27.5t17.5 -43q0 -17 -13 -32.5t-41 -15.5q-33 0 -48.5 18t-26 39.5t-22 39.5t-35.5 18q-20 0 -33 -14.5t-13 -38.5q0 -56 56 -107z" />
    <glyph glyph-name="s" unicode="&#xdf;" horiz-adv-x="432" 
d="M292 279q45 -42 65.5 -72.5t20.5 -68.5q0 -41 -18 -69.5t-46.5 -47t-64.5 -27t-71 -8.5q-30 0 -61.5 5.5t-57 16.5t-41.5 28.5t-16 41.5q0 26 16.5 43t48.5 17q33 0 49.5 -20.5t27 -45.5t20.5 -45.5t29 -20.5q22 0 39.5 17t17.5 55q0 18 -3 30.5t-10.5 24.5t-19.5 24.5
t-31 29.5l-47 43q-32 29 -52.5 62t-20.5 68q0 36 16.5 63t44.5 45t64 26.5t74 8.5q19 0 46.5 -4t52 -14.5t42 -27.5t17.5 -43q0 -17 -13 -32.5t-41 -15.5q-33 0 -48.5 18t-26 39.5t-22 39.5t-35.5 18q-20 0 -33 -14.5t-13 -38.5q0 -56 56 -107z" />
    <glyph glyph-name="t" unicode="t" horiz-adv-x="369" 
d="M116 453l-74 8l3 20h81l152 152h20l-26 -152h144l-4 -28h-144l-55 -340q-5 -33 -2 -49t20 -16q19 0 41 17.5t50 65.5l17 -7q-23 -60 -61.5 -99t-95.5 -39q-71 0 -100 41t-16 119z" />
    <glyph glyph-name="t" unicode="&#x21b;" horiz-adv-x="369" 
d="M116 453l-74 8l3 20h81l152 152h20l-26 -152h144l-4 -28h-144l-55 -340q-5 -33 -2 -49t20 -16q19 0 41 17.5t50 65.5l17 -7q-23 -60 -61.5 -99t-95.5 -39q-71 0 -100 41t-16 119z" />
    <glyph glyph-name="t" unicode="&#x167;" horiz-adv-x="369" 
d="M116 453l-74 8l3 20h81l152 152h20l-26 -152h144l-4 -28h-144l-55 -340q-5 -33 -2 -49t20 -16q19 0 41 17.5t50 65.5l17 -7q-23 -60 -61.5 -99t-95.5 -39q-71 0 -100 41t-16 119z" />
    <glyph glyph-name="t" unicode="&#x165;" horiz-adv-x="369" 
d="M116 453l-74 8l3 20h81l152 152h20l-26 -152h144l-4 -28h-144l-55 -340q-5 -33 -2 -49t20 -16q19 0 41 17.5t50 65.5l17 -7q-23 -60 -61.5 -99t-95.5 -39q-71 0 -100 41t-16 119z" />
    <glyph glyph-name="t" unicode="&#x163;" horiz-adv-x="369" 
d="M116 453l-74 8l3 20h81l152 152h20l-26 -152h144l-4 -28h-144l-55 -340q-5 -33 -2 -49t20 -16q19 0 41 17.5t50 65.5l17 -7q-23 -60 -61.5 -99t-95.5 -39q-71 0 -100 41t-16 119z" />
    <glyph glyph-name="u" unicode="u" horiz-adv-x="614" 
d="M169 -14q-48 0 -70.5 20.5t-28.5 53t-1 72.5t12 80l30 169q6 32 4.5 45t-12.5 13t-28.5 -13t-45.5 -49l-16 10q36 66 78.5 93t87.5 27q50 0 73 -33t7 -117l-27 -147q-3 -15 -6 -39.5t-3 -48.5t5.5 -41.5t20.5 -17.5q22 0 50.5 34.5t57.5 97.5l49 286h152l-63 -368
q-7 -38 -3 -51.5t17 -13.5q14 0 31.5 21.5t39.5 61.5l17 -7q-9 -29 -22.5 -54.5t-31.5 -44t-41.5 -29t-53.5 -10.5q-26 0 -47 8t-35 26t-19 47t2 71l3 19q-29 -86 -77.5 -128.5t-105.5 -42.5z" />
    <glyph glyph-name="u" unicode="&#x1ee5;" horiz-adv-x="614" 
d="M169 -14q-48 0 -70.5 20.5t-28.5 53t-1 72.5t12 80l30 169q6 32 4.5 45t-12.5 13t-28.5 -13t-45.5 -49l-16 10q36 66 78.5 93t87.5 27q50 0 73 -33t7 -117l-27 -147q-3 -15 -6 -39.5t-3 -48.5t5.5 -41.5t20.5 -17.5q22 0 50.5 34.5t57.5 97.5l49 286h152l-63 -368
q-7 -38 -3 -51.5t17 -13.5q14 0 31.5 21.5t39.5 61.5l17 -7q-9 -29 -22.5 -54.5t-31.5 -44t-41.5 -29t-53.5 -10.5q-26 0 -47 8t-35 26t-19 47t2 71l3 19q-29 -86 -77.5 -128.5t-105.5 -42.5z" />
    <glyph glyph-name="u" unicode="&#x173;" horiz-adv-x="614" 
d="M169 -14q-48 0 -70.5 20.5t-28.5 53t-1 72.5t12 80l30 169q6 32 4.5 45t-12.5 13t-28.5 -13t-45.5 -49l-16 10q36 66 78.5 93t87.5 27q50 0 73 -33t7 -117l-27 -147q-3 -15 -6 -39.5t-3 -48.5t5.5 -41.5t20.5 -17.5q22 0 50.5 34.5t57.5 97.5l49 286h152l-63 -368
q-7 -38 -3 -51.5t17 -13.5q14 0 31.5 21.5t39.5 61.5l17 -7q-9 -29 -22.5 -54.5t-31.5 -44t-41.5 -29t-53.5 -10.5q-26 0 -47 8t-35 26t-19 47t2 71l3 19q-29 -86 -77.5 -128.5t-105.5 -42.5z" />
    <glyph glyph-name="u" unicode="&#x171;" horiz-adv-x="614" 
d="M169 -14q-48 0 -70.5 20.5t-28.5 53t-1 72.5t12 80l30 169q6 32 4.5 45t-12.5 13t-28.5 -13t-45.5 -49l-16 10q36 66 78.5 93t87.5 27q50 0 73 -33t7 -117l-27 -147q-3 -15 -6 -39.5t-3 -48.5t5.5 -41.5t20.5 -17.5q22 0 50.5 34.5t57.5 97.5l49 286h152l-63 -368
q-7 -38 -3 -51.5t17 -13.5q14 0 31.5 21.5t39.5 61.5l17 -7q-9 -29 -22.5 -54.5t-31.5 -44t-41.5 -29t-53.5 -10.5q-26 0 -47 8t-35 26t-19 47t2 71l3 19q-29 -86 -77.5 -128.5t-105.5 -42.5z" />
    <glyph glyph-name="u" unicode="&#x16f;" horiz-adv-x="614" 
d="M169 -14q-48 0 -70.5 20.5t-28.5 53t-1 72.5t12 80l30 169q6 32 4.5 45t-12.5 13t-28.5 -13t-45.5 -49l-16 10q36 66 78.5 93t87.5 27q50 0 73 -33t7 -117l-27 -147q-3 -15 -6 -39.5t-3 -48.5t5.5 -41.5t20.5 -17.5q22 0 50.5 34.5t57.5 97.5l49 286h152l-63 -368
q-7 -38 -3 -51.5t17 -13.5q14 0 31.5 21.5t39.5 61.5l17 -7q-9 -29 -22.5 -54.5t-31.5 -44t-41.5 -29t-53.5 -10.5q-26 0 -47 8t-35 26t-19 47t2 71l3 19q-29 -86 -77.5 -128.5t-105.5 -42.5z" />
    <glyph glyph-name="u" unicode="&#x16d;" horiz-adv-x="614" 
d="M169 -14q-48 0 -70.5 20.5t-28.5 53t-1 72.5t12 80l30 169q6 32 4.5 45t-12.5 13t-28.5 -13t-45.5 -49l-16 10q36 66 78.5 93t87.5 27q50 0 73 -33t7 -117l-27 -147q-3 -15 -6 -39.5t-3 -48.5t5.5 -41.5t20.5 -17.5q22 0 50.5 34.5t57.5 97.5l49 286h152l-63 -368
q-7 -38 -3 -51.5t17 -13.5q14 0 31.5 21.5t39.5 61.5l17 -7q-9 -29 -22.5 -54.5t-31.5 -44t-41.5 -29t-53.5 -10.5q-26 0 -47 8t-35 26t-19 47t2 71l3 19q-29 -86 -77.5 -128.5t-105.5 -42.5z" />
    <glyph glyph-name="u" unicode="&#x16b;" horiz-adv-x="614" 
d="M169 -14q-48 0 -70.5 20.5t-28.5 53t-1 72.5t12 80l30 169q6 32 4.5 45t-12.5 13t-28.5 -13t-45.5 -49l-16 10q36 66 78.5 93t87.5 27q50 0 73 -33t7 -117l-27 -147q-3 -15 -6 -39.5t-3 -48.5t5.5 -41.5t20.5 -17.5q22 0 50.5 34.5t57.5 97.5l49 286h152l-63 -368
q-7 -38 -3 -51.5t17 -13.5q14 0 31.5 21.5t39.5 61.5l17 -7q-9 -29 -22.5 -54.5t-31.5 -44t-41.5 -29t-53.5 -10.5q-26 0 -47 8t-35 26t-19 47t2 71l3 19q-29 -86 -77.5 -128.5t-105.5 -42.5z" />
    <glyph glyph-name="u" unicode="&#x169;" horiz-adv-x="614" 
d="M169 -14q-48 0 -70.5 20.5t-28.5 53t-1 72.5t12 80l30 169q6 32 4.5 45t-12.5 13t-28.5 -13t-45.5 -49l-16 10q36 66 78.5 93t87.5 27q50 0 73 -33t7 -117l-27 -147q-3 -15 -6 -39.5t-3 -48.5t5.5 -41.5t20.5 -17.5q22 0 50.5 34.5t57.5 97.5l49 286h152l-63 -368
q-7 -38 -3 -51.5t17 -13.5q14 0 31.5 21.5t39.5 61.5l17 -7q-9 -29 -22.5 -54.5t-31.5 -44t-41.5 -29t-53.5 -10.5q-26 0 -47 8t-35 26t-19 47t2 71l3 19q-29 -86 -77.5 -128.5t-105.5 -42.5z" />
    <glyph glyph-name="u" unicode="&#xfc;" horiz-adv-x="614" 
d="M169 -14q-48 0 -70.5 20.5t-28.5 53t-1 72.5t12 80l30 169q6 32 4.5 45t-12.5 13t-28.5 -13t-45.5 -49l-16 10q36 66 78.5 93t87.5 27q50 0 73 -33t7 -117l-27 -147q-3 -15 -6 -39.5t-3 -48.5t5.5 -41.5t20.5 -17.5q22 0 50.5 34.5t57.5 97.5l49 286h152l-63 -368
q-7 -38 -3 -51.5t17 -13.5q14 0 31.5 21.5t39.5 61.5l17 -7q-9 -29 -22.5 -54.5t-31.5 -44t-41.5 -29t-53.5 -10.5q-26 0 -47 8t-35 26t-19 47t2 71l3 19q-29 -86 -77.5 -128.5t-105.5 -42.5z" />
    <glyph glyph-name="u" unicode="&#xfb;" horiz-adv-x="614" 
d="M169 -14q-48 0 -70.5 20.5t-28.5 53t-1 72.5t12 80l30 169q6 32 4.5 45t-12.5 13t-28.5 -13t-45.5 -49l-16 10q36 66 78.5 93t87.5 27q50 0 73 -33t7 -117l-27 -147q-3 -15 -6 -39.5t-3 -48.5t5.5 -41.5t20.5 -17.5q22 0 50.5 34.5t57.5 97.5l49 286h152l-63 -368
q-7 -38 -3 -51.5t17 -13.5q14 0 31.5 21.5t39.5 61.5l17 -7q-9 -29 -22.5 -54.5t-31.5 -44t-41.5 -29t-53.5 -10.5q-26 0 -47 8t-35 26t-19 47t2 71l3 19q-29 -86 -77.5 -128.5t-105.5 -42.5z" />
    <glyph glyph-name="u" unicode="&#xfa;" horiz-adv-x="614" 
d="M169 -14q-48 0 -70.5 20.5t-28.5 53t-1 72.5t12 80l30 169q6 32 4.5 45t-12.5 13t-28.5 -13t-45.5 -49l-16 10q36 66 78.5 93t87.5 27q50 0 73 -33t7 -117l-27 -147q-3 -15 -6 -39.5t-3 -48.5t5.5 -41.5t20.5 -17.5q22 0 50.5 34.5t57.5 97.5l49 286h152l-63 -368
q-7 -38 -3 -51.5t17 -13.5q14 0 31.5 21.5t39.5 61.5l17 -7q-9 -29 -22.5 -54.5t-31.5 -44t-41.5 -29t-53.5 -10.5q-26 0 -47 8t-35 26t-19 47t2 71l3 19q-29 -86 -77.5 -128.5t-105.5 -42.5z" />
    <glyph glyph-name="u" unicode="&#xf9;" horiz-adv-x="614" 
d="M169 -14q-48 0 -70.5 20.5t-28.5 53t-1 72.5t12 80l30 169q6 32 4.5 45t-12.5 13t-28.5 -13t-45.5 -49l-16 10q36 66 78.5 93t87.5 27q50 0 73 -33t7 -117l-27 -147q-3 -15 -6 -39.5t-3 -48.5t5.5 -41.5t20.5 -17.5q22 0 50.5 34.5t57.5 97.5l49 286h152l-63 -368
q-7 -38 -3 -51.5t17 -13.5q14 0 31.5 21.5t39.5 61.5l17 -7q-9 -29 -22.5 -54.5t-31.5 -44t-41.5 -29t-53.5 -10.5q-26 0 -47 8t-35 26t-19 47t2 71l3 19q-29 -86 -77.5 -128.5t-105.5 -42.5z" />
    <glyph glyph-name="v" unicode="v" horiz-adv-x="515" 
d="M136 -28q3 18 5 59.5t1 93.5t-4.5 107.5t-11 101.5t-19 75.5t-27.5 29.5q-11 0 -24 -11.5t-32 -50.5l-18 9q13 37 30 60t36 35.5t38 17t37 4.5q36 0 61.5 -16.5t42 -46.5t24.5 -71t10.5 -89.5t0 -103t-7.5 -110.5q24 20 46.5 42.5t42 47t34 50t20.5 51.5q5 22 4 39
t-6.5 30.5t-14 24t-17.5 21.5q-17 20 -24 43t-2.5 42.5t21 32.5t45.5 13q20 0 33.5 -8t21.5 -22t11 -32.5t3 -39.5q0 -62 -24.5 -128t-70.5 -125.5t-111.5 -108t-147.5 -73.5z" />
    <glyph glyph-name="w" unicode="w" horiz-adv-x="783" 
d="M764 401q0 -62 -24 -128t-69.5 -125.5t-110.5 -108t-147 -73.5l-6 6q3 34 5.5 84t0.5 110q-46 -66 -114.5 -119.5t-156.5 -80.5l-6 6q3 18 5 59.5t1 93.5t-4.5 107.5t-11 101.5t-19 75.5t-27.5 29.5q-11 0 -24 -11.5t-32 -50.5l-18 9q13 37 30 60t36 35.5t38 17t37 4.5
q55 0 85 -36.5t42.5 -97t11.5 -139.5t-8 -163q35 29 70.5 68t61.5 82q-5 68 -16.5 136.5t-34.5 127.5h141q18 -54 28.5 -104.5t16 -101t5.5 -102.5t-3 -109q48 41 88.5 90t53.5 103q5 22 4 39t-6.5 30.5t-14 24t-17.5 21.5q-17 20 -24 43t-2.5 42.5t21 32.5t45.5 13
q20 0 33.5 -8t21.5 -22t11 -32.5t3 -39.5z" />
    <glyph glyph-name="w" unicode="&#x1e85;" horiz-adv-x="783" 
d="M764 401q0 -62 -24 -128t-69.5 -125.5t-110.5 -108t-147 -73.5l-6 6q3 34 5.5 84t0.5 110q-46 -66 -114.5 -119.5t-156.5 -80.5l-6 6q3 18 5 59.5t1 93.5t-4.5 107.5t-11 101.5t-19 75.5t-27.5 29.5q-11 0 -24 -11.5t-32 -50.5l-18 9q13 37 30 60t36 35.5t38 17t37 4.5
q55 0 85 -36.5t42.5 -97t11.5 -139.5t-8 -163q35 29 70.5 68t61.5 82q-5 68 -16.5 136.5t-34.5 127.5h141q18 -54 28.5 -104.5t16 -101t5.5 -102.5t-3 -109q48 41 88.5 90t53.5 103q5 22 4 39t-6.5 30.5t-14 24t-17.5 21.5q-17 20 -24 43t-2.5 42.5t21 32.5t45.5 13
q20 0 33.5 -8t21.5 -22t11 -32.5t3 -39.5z" />
    <glyph glyph-name="w" unicode="&#x1e83;" horiz-adv-x="783" 
d="M764 401q0 -62 -24 -128t-69.5 -125.5t-110.5 -108t-147 -73.5l-6 6q3 34 5.5 84t0.5 110q-46 -66 -114.5 -119.5t-156.5 -80.5l-6 6q3 18 5 59.5t1 93.5t-4.5 107.5t-11 101.5t-19 75.5t-27.5 29.5q-11 0 -24 -11.5t-32 -50.5l-18 9q13 37 30 60t36 35.5t38 17t37 4.5
q55 0 85 -36.5t42.5 -97t11.5 -139.5t-8 -163q35 29 70.5 68t61.5 82q-5 68 -16.5 136.5t-34.5 127.5h141q18 -54 28.5 -104.5t16 -101t5.5 -102.5t-3 -109q48 41 88.5 90t53.5 103q5 22 4 39t-6.5 30.5t-14 24t-17.5 21.5q-17 20 -24 43t-2.5 42.5t21 32.5t45.5 13
q20 0 33.5 -8t21.5 -22t11 -32.5t3 -39.5z" />
    <glyph glyph-name="w" unicode="&#x1e81;" horiz-adv-x="783" 
d="M764 401q0 -62 -24 -128t-69.5 -125.5t-110.5 -108t-147 -73.5l-6 6q3 34 5.5 84t0.5 110q-46 -66 -114.5 -119.5t-156.5 -80.5l-6 6q3 18 5 59.5t1 93.5t-4.5 107.5t-11 101.5t-19 75.5t-27.5 29.5q-11 0 -24 -11.5t-32 -50.5l-18 9q13 37 30 60t36 35.5t38 17t37 4.5
q55 0 85 -36.5t42.5 -97t11.5 -139.5t-8 -163q35 29 70.5 68t61.5 82q-5 68 -16.5 136.5t-34.5 127.5h141q18 -54 28.5 -104.5t16 -101t5.5 -102.5t-3 -109q48 41 88.5 90t53.5 103q5 22 4 39t-6.5 30.5t-14 24t-17.5 21.5q-17 20 -24 43t-2.5 42.5t21 32.5t45.5 13
q20 0 33.5 -8t21.5 -22t11 -32.5t3 -39.5z" />
    <glyph glyph-name="w" unicode="&#x175;" horiz-adv-x="783" 
d="M764 401q0 -62 -24 -128t-69.5 -125.5t-110.5 -108t-147 -73.5l-6 6q3 34 5.5 84t0.5 110q-46 -66 -114.5 -119.5t-156.5 -80.5l-6 6q3 18 5 59.5t1 93.5t-4.5 107.5t-11 101.5t-19 75.5t-27.5 29.5q-11 0 -24 -11.5t-32 -50.5l-18 9q13 37 30 60t36 35.5t38 17t37 4.5
q55 0 85 -36.5t42.5 -97t11.5 -139.5t-8 -163q35 29 70.5 68t61.5 82q-5 68 -16.5 136.5t-34.5 127.5h141q18 -54 28.5 -104.5t16 -101t5.5 -102.5t-3 -109q48 41 88.5 90t53.5 103q5 22 4 39t-6.5 30.5t-14 24t-17.5 21.5q-17 20 -24 43t-2.5 42.5t21 32.5t45.5 13
q20 0 33.5 -8t21.5 -22t11 -32.5t3 -39.5z" />
    <glyph glyph-name="x" unicode="x" horiz-adv-x="516" 
d="M423 52q12 0 28.5 20.5t30.5 57.5l18 -8q-12 -40 -27 -66.5t-33 -42t-38 -21.5t-41 -6q-23 0 -41.5 5.5t-34.5 19t-29 37t-24 58.5l-24 75l-100 -138q-24 -34 -46.5 -45.5t-42.5 -11.5q-18 0 -30 13t-12 36q0 24 10 48.5t26 44.5l15 -6q-20 -49 -17 -69.5t19 -20.5
t33 15.5t43 52.5l88 124l-44 140q-14 43 -22.5 58.5t-18.5 15.5q-12 0 -28 -22.5t-28 -51.5l-20 9q15 40 32.5 65.5t36 39.5t38 19.5t38.5 5.5q23 0 40.5 -6t32 -23t28 -47t28.5 -77l64 82q25 32 48 51.5t49 19.5q22 0 33.5 -12t14.5 -31.5t-2 -45t-18 -53.5l-17 3
q12 51 6.5 72t-21.5 21q-22 0 -41.5 -19.5t-47.5 -55.5l-55 -72l58 -184q11 -36 21 -55t24 -19z" />
    <glyph glyph-name="y" unicode="y" horiz-adv-x="513" 
d="M150 503q51 0 81 -34.5t43.5 -94t12 -138t-12.5 -165.5q54 59 93.5 110.5t49.5 82.5q7 24 5.5 41t-8 30t-15.5 24t-18 23t-15 26t-6 34q0 26 16.5 43.5t51.5 17.5q20 0 33.5 -8t21.5 -22t11 -32.5t3 -39.5q0 -51 -22.5 -103.5t-59 -105t-82.5 -104.5t-94 -102
q-125 -131 -218.5 -191.5t-161.5 -60.5q-57 0 -91 26t-34 66q0 19 15 35.5t46 16.5q24 0 39.5 -14.5t27 -32.5t22.5 -32.5t28 -14.5q34 0 92.5 40.5t126.5 106.5q6 44 8.5 99t2.5 111.5t-4 110t-11.5 95t-19 67t-26.5 25.5q-11 0 -24 -11.5t-32 -50.5l-18 9q13 38 31 61
t37 35.5t38.5 16.5t36.5 4z" />
    <glyph glyph-name="y" unicode="&#x1ef3;" horiz-adv-x="513" 
d="M150 503q51 0 81 -34.5t43.5 -94t12 -138t-12.5 -165.5q54 59 93.5 110.5t49.5 82.5q7 24 5.5 41t-8 30t-15.5 24t-18 23t-15 26t-6 34q0 26 16.5 43.5t51.5 17.5q20 0 33.5 -8t21.5 -22t11 -32.5t3 -39.5q0 -51 -22.5 -103.5t-59 -105t-82.5 -104.5t-94 -102
q-125 -131 -218.5 -191.5t-161.5 -60.5q-57 0 -91 26t-34 66q0 19 15 35.5t46 16.5q24 0 39.5 -14.5t27 -32.5t22.5 -32.5t28 -14.5q34 0 92.5 40.5t126.5 106.5q6 44 8.5 99t2.5 111.5t-4 110t-11.5 95t-19 67t-26.5 25.5q-11 0 -24 -11.5t-32 -50.5l-18 9q13 38 31 61
t37 35.5t38.5 16.5t36.5 4z" />
    <glyph glyph-name="y" unicode="&#x233;" horiz-adv-x="513" 
d="M150 503q51 0 81 -34.5t43.5 -94t12 -138t-12.5 -165.5q54 59 93.5 110.5t49.5 82.5q7 24 5.5 41t-8 30t-15.5 24t-18 23t-15 26t-6 34q0 26 16.5 43.5t51.5 17.5q20 0 33.5 -8t21.5 -22t11 -32.5t3 -39.5q0 -51 -22.5 -103.5t-59 -105t-82.5 -104.5t-94 -102
q-125 -131 -218.5 -191.5t-161.5 -60.5q-57 0 -91 26t-34 66q0 19 15 35.5t46 16.5q24 0 39.5 -14.5t27 -32.5t22.5 -32.5t28 -14.5q34 0 92.5 40.5t126.5 106.5q6 44 8.5 99t2.5 111.5t-4 110t-11.5 95t-19 67t-26.5 25.5q-11 0 -24 -11.5t-32 -50.5l-18 9q13 38 31 61
t37 35.5t38.5 16.5t36.5 4z" />
    <glyph glyph-name="y" unicode="&#x177;" horiz-adv-x="513" 
d="M150 503q51 0 81 -34.5t43.5 -94t12 -138t-12.5 -165.5q54 59 93.5 110.5t49.5 82.5q7 24 5.5 41t-8 30t-15.5 24t-18 23t-15 26t-6 34q0 26 16.5 43.5t51.5 17.5q20 0 33.5 -8t21.5 -22t11 -32.5t3 -39.5q0 -51 -22.5 -103.5t-59 -105t-82.5 -104.5t-94 -102
q-125 -131 -218.5 -191.5t-161.5 -60.5q-57 0 -91 26t-34 66q0 19 15 35.5t46 16.5q24 0 39.5 -14.5t27 -32.5t22.5 -32.5t28 -14.5q34 0 92.5 40.5t126.5 106.5q6 44 8.5 99t2.5 111.5t-4 110t-11.5 95t-19 67t-26.5 25.5q-11 0 -24 -11.5t-32 -50.5l-18 9q13 38 31 61
t37 35.5t38.5 16.5t36.5 4z" />
    <glyph glyph-name="y" unicode="&#xff;" horiz-adv-x="513" 
d="M150 503q51 0 81 -34.5t43.5 -94t12 -138t-12.5 -165.5q54 59 93.5 110.5t49.5 82.5q7 24 5.5 41t-8 30t-15.5 24t-18 23t-15 26t-6 34q0 26 16.5 43.5t51.5 17.5q20 0 33.5 -8t21.5 -22t11 -32.5t3 -39.5q0 -51 -22.5 -103.5t-59 -105t-82.5 -104.5t-94 -102
q-125 -131 -218.5 -191.5t-161.5 -60.5q-57 0 -91 26t-34 66q0 19 15 35.5t46 16.5q24 0 39.5 -14.5t27 -32.5t22.5 -32.5t28 -14.5q34 0 92.5 40.5t126.5 106.5q6 44 8.5 99t2.5 111.5t-4 110t-11.5 95t-19 67t-26.5 25.5q-11 0 -24 -11.5t-32 -50.5l-18 9q13 38 31 61
t37 35.5t38.5 16.5t36.5 4z" />
    <glyph glyph-name="y" unicode="&#xfd;" horiz-adv-x="513" 
d="M150 503q51 0 81 -34.5t43.5 -94t12 -138t-12.5 -165.5q54 59 93.5 110.5t49.5 82.5q7 24 5.5 41t-8 30t-15.5 24t-18 23t-15 26t-6 34q0 26 16.5 43.5t51.5 17.5q20 0 33.5 -8t21.5 -22t11 -32.5t3 -39.5q0 -51 -22.5 -103.5t-59 -105t-82.5 -104.5t-94 -102
q-125 -131 -218.5 -191.5t-161.5 -60.5q-57 0 -91 26t-34 66q0 19 15 35.5t46 16.5q24 0 39.5 -14.5t27 -32.5t22.5 -32.5t28 -14.5q34 0 92.5 40.5t126.5 106.5q6 44 8.5 99t2.5 111.5t-4 110t-11.5 95t-19 67t-26.5 25.5q-11 0 -24 -11.5t-32 -50.5l-18 9q13 38 31 61
t37 35.5t38.5 16.5t36.5 4z" />
    <glyph glyph-name="z" unicode="z" horiz-adv-x="487" 
d="M144 137h184q67 0 90 74h16l-50 -211h-416l-4 9l368 335h-159q-67 0 -90 -74h-16l51 211h396l4 -9z" />
    <glyph glyph-name="z" unicode="&#x17e;" horiz-adv-x="487" 
d="M144 137h184q67 0 90 74h16l-50 -211h-416l-4 9l368 335h-159q-67 0 -90 -74h-16l51 211h396l4 -9z" />
    <glyph glyph-name="z" unicode="&#x17c;" horiz-adv-x="487" 
d="M144 137h184q67 0 90 74h16l-50 -211h-416l-4 9l368 335h-159q-67 0 -90 -74h-16l51 211h396l4 -9z" />
    <glyph glyph-name="z" unicode="&#x17a;" horiz-adv-x="487" 
d="M144 137h184q67 0 90 74h16l-50 -211h-416l-4 9l368 335h-159q-67 0 -90 -74h-16l51 211h396l4 -9z" />
    <glyph glyph-name="uni00A0" unicode="&#xa0;" 
 />
    <glyph glyph-name="uni00AD" unicode="&#xad;" horiz-adv-x="409" 
d="M63 279h294l-7 -47h-294z" />
    <glyph glyph-name="paragraph" unicode="&#xb6;" horiz-adv-x="548" 
d="M498 742l-136 -859h-47l136 859h-77l-136 -859h-47l80 507q-40 1 -74.5 13.5t-60 35t-40 54.5t-14.5 73q0 37 13.5 76t46 71.5t87 53t137.5 20.5h223l-7 -45h-84z" />
    <glyph glyph-name="periodcentered" unicode="&#xb7;" horiz-adv-x="280" 
d="M48 257q0 19 7.5 36.5t20 30t29.5 20t37 7.5q39 0 66.5 -27.5t27.5 -66.5q0 -20 -7.5 -37t-20 -29.5t-30 -20t-36.5 -7.5q-20 0 -37 7.5t-29.5 20t-20 29.5t-7.5 37z" />
    <glyph glyph-name="quoteright" unicode="&#x2019;" horiz-adv-x="272" 
d="M211 617q-34 2 -57 26t-23 62t26 66.5t70 28.5q40 0 65.5 -26t25.5 -70q0 -33 -17 -69t-48.5 -69.5t-75.5 -63.5t-97 -52l-4 7q23 14 46 33.5t41.5 40.5t31.5 43.5t16 42.5z" />
    <glyph glyph-name="bullet" unicode="&#x2022;" horiz-adv-x="453" 
d="M66 259q0 33 12.5 62t34.5 51t51 34.5t62 12.5q35 0 65.5 -12.5t53 -34.5t35 -51t12.5 -62q0 -35 -12.5 -65.5t-35 -53t-53 -35t-65.5 -12.5q-33 0 -62 12.5t-51 35t-34.5 53t-12.5 65.5z" />
    <glyph glyph-name="glyph67" horiz-adv-x="125" 
 />
    <glyph glyph-name="glyph68" horiz-adv-x="740" 
d="M529 -47q-12 -75 -40 -124t-64 -77.5t-76 -40t-75 -11.5q-26 0 -50 4.5t-42.5 14.5t-29.5 25.5t-11 36.5q0 23 16 42t48 19q20 0 31.5 -9t17 -22t7.5 -29t4 -29t6 -22t14 -9q13 0 24.5 9.5t23 33t21.5 63.5t20 102l83 523h-167l-64 -405q-13 -82 -42.5 -141.5
t-68.5 -97.5t-84 -56.5t-90 -18.5q-27 0 -57.5 6t-57 17.5t-43.5 29.5t-17 42q0 23 15.5 42t50.5 19q33 0 48 -21t23.5 -46.5t16.5 -46.5t26 -21q14 0 30 12.5t32.5 41t31 74.5t25.5 114l72 456h-115l8 28h112l4 27q12 78 43.5 130t72 83.5t84 45t81.5 13.5q19 0 40 -3
t40.5 -9t36.5 -15t29 -21q42 37 89 52.5t88 15.5q28 0 59 -5.5t56.5 -17t42.5 -29t17 -41.5q0 -23 -13.5 -41t-48.5 -18q-22 0 -36 10t-24 24.5t-16.5 32t-13.5 32t-15.5 24.5t-20.5 10q-14 0 -29 -11.5t-29.5 -38.5t-28.5 -71t-24 -109l-12 -70h180l-7 -28h-177zM295 481
h166l8 47q9 61 32 107q-18 10 -28.5 31t-18.5 42t-16.5 37t-23.5 16q-14 0 -29 -11.5t-29.5 -38.5t-28.5 -71t-24 -109z" />
    <glyph glyph-name="glyph70" horiz-adv-x="662" 
d="M538 113q-8 -38 -3.5 -51.5t17.5 -13.5q14 0 31.5 21.5t39.5 61.5l17 -7q-9 -29 -22.5 -54.5t-31.5 -44t-41.5 -29t-53.5 -10.5q-58 0 -87.5 44t-9.5 139l60 284h-163l-69 -447q-12 -78 -43 -130.5t-71 -84t-84 -44.5t-81 -13q-28 0 -59 6t-57.5 17.5t-43.5 29.5t-17 42
q0 23 15.5 42t50.5 19q22 0 36 -10t23.5 -25t15.5 -33t12 -33t13.5 -25t18.5 -10q15 0 31 11.5t31 38t28.5 70.5t23.5 109l72 470h-115l8 28h112l7 47q12 78 44.5 130t74 83.5t87.5 45t85 13.5q34 0 68.5 -7t62.5 -21t45.5 -35t17.5 -48q0 -25 -18.5 -45.5t-52.5 -20.5
q-24 0 -39.5 11.5t-26.5 29.5t-18.5 38t-15 38t-16 29.5t-20.5 11.5q-15 0 -32 -11.5t-33.5 -38.5t-31 -71t-24.5 -109l-11 -70h318z" />
    <glyph glyph-name="glyph72" horiz-adv-x="982" 
d="M529 -47q-12 -75 -40 -124t-64 -77.5t-76 -40t-75 -11.5q-26 0 -50 4.5t-42.5 14.5t-29.5 25.5t-11 36.5q0 23 16 42t48 19q20 0 31.5 -9t17 -22t7.5 -29t4 -29t6 -22t14 -9q13 0 24.5 9.5t23 33t21.5 63.5t20 102l83 523h-167l-64 -405q-13 -82 -42.5 -141.5
t-68.5 -97.5t-84 -56.5t-90 -18.5q-27 0 -57.5 6t-57 17.5t-43.5 29.5t-17 42q0 23 15.5 42t50.5 19q33 0 48 -21t23.5 -46.5t16.5 -46.5t26 -21q14 0 30 12.5t32.5 41t31 74.5t25.5 114l72 456h-115l8 28h112l4 27q12 78 43.5 130t72 83.5t84 45t81.5 13.5q19 0 40.5 -3
t41 -9t36.5 -15.5t29 -22.5q44 38 93.5 54t92.5 16q34 0 68.5 -7t62.5 -21t45.5 -35t17.5 -48q0 -25 -18.5 -45.5t-52.5 -20.5q-24 0 -39.5 11.5t-26.5 29.5t-18.5 38t-15 38t-16 29.5t-20.5 11.5q-15 0 -31.5 -11.5t-33 -38.5t-31.5 -71t-25 -109l-12 -70h319l-75 -368
q-8 -38 -3.5 -51.5t17.5 -13.5q14 0 31.5 21.5t39.5 61.5l17 -7q-9 -29 -22.5 -54.5t-31.5 -44t-41.5 -29t-53.5 -10.5q-58 0 -87.5 44t-9.5 139l60 284h-164zM295 481h166l8 47q5 31 13 57.5t19 49.5q-18 10 -28.5 31t-18.5 42t-16.5 37t-23.5 16q-14 0 -29 -11.5
t-29.5 -38.5t-28.5 -71t-24 -109z" />
    <glyph glyph-name="glyph74" horiz-adv-x="663" 
d="M30 481h112l7 47q12 78 43.5 130t71.5 83.5t84 45t82 13.5q20 0 42 -3t43 -10h146l-112 -675q-6 -38 -2.5 -51t17.5 -13t31.5 21.5t39.5 61.5l17 -7q-9 -29 -22.5 -54.5t-31.5 -44t-41.5 -29t-53.5 -10.5q-65 0 -89.5 43.5t-7.5 139.5l84 499q-11 14 -17.5 33.5t-13.5 37
t-16.5 30t-25.5 12.5q-14 0 -29 -11.5t-30 -38.5t-28.5 -71t-23.5 -109l-11 -70h119l-7 -28h-116l-69 -447q-12 -78 -43 -130.5t-71 -84t-84 -44.5t-81 -13q-28 0 -59 6t-57.5 17.5t-43.5 29.5t-17 42q0 23 15.5 42t50.5 19q22 0 36 -10t23.5 -25t15.5 -33t12 -33t13.5 -25
t18.5 -10q15 0 31 11.5t31 38t28.5 70.5t23.5 109l72 470h-115z" />
    <glyph glyph-name="glyph76" horiz-adv-x="983" 
d="M142 481l4 27q12 78 43.5 130t72 83.5t84 45t81.5 13.5q19 0 40 -3t40.5 -9t36.5 -15t29 -21q42 37 89 52.5t88 15.5q20 0 42 -3t43 -10h146l-112 -675q-6 -38 -2.5 -51t17.5 -13t31.5 21.5t39.5 61.5l17 -7q-9 -29 -22.5 -54.5t-31.5 -44t-41.5 -29t-53.5 -10.5
q-65 0 -89.5 43.5t-7.5 139.5l84 499q-11 14 -17.5 33.5t-13.5 37t-16.5 30t-25.5 12.5q-14 0 -29 -11.5t-29.5 -38.5t-28.5 -71t-24 -109l-12 -70h120l-7 -28h-117l-81 -500q-12 -75 -40 -124t-64 -77.5t-76 -40t-75 -11.5q-26 0 -50 4.5t-42.5 14.5t-29.5 25.5t-11 36.5
q0 23 16 42t48 19q20 0 31.5 -9t17 -22t7.5 -29t4 -29t6 -22t14 -9q13 0 24.5 9.5t23 33t21.5 63.5t20 102l83 523h-167l-64 -405q-13 -82 -42.5 -141.5t-68.5 -97.5t-84 -56.5t-90 -18.5q-27 0 -57.5 6t-57 17.5t-43.5 29.5t-17 42q0 23 15.5 42t50.5 19q33 0 48 -21
t23.5 -46.5t16.5 -46.5t26 -21q14 0 30 12.5t32.5 41t31 74.5t25.5 114l72 456h-115l8 28h112zM295 481h166l8 47q9 61 32 107q-18 10 -28.5 31t-18.5 42t-16.5 37t-23.5 16q-14 0 -29 -11.5t-29.5 -38.5t-28.5 -71t-24 -109z" />
    <glyph glyph-name="glyph78" horiz-adv-x="200" 
d="M-205 0h-68l727 787h70z" />
    <glyph glyph-name="zero.numr" horiz-adv-x="435" 
d="M249 358q-86 0 -128.5 52.5t-42.5 137.5q0 55 16.5 100.5t45.5 78.5t67.5 51t83.5 18q86 0 129 -52.5t43 -137.5q0 -55 -16.5 -100.5t-45.5 -78.5t-68 -51t-84 -18zM248 383q21 0 38 27t28.5 66.5t18 85t6.5 83.5q0 63 -13 94.5t-33 31.5q-21 0 -38 -27t-28.5 -66.5
t-18 -85.5t-6.5 -83q0 -63 13 -94.5t33 -31.5z" />
    <glyph glyph-name="zero.dnom" horiz-adv-x="435" 
d="M191 -8q-86 0 -128.5 52.5t-42.5 137.5q0 55 16.5 100.5t45.5 78.5t67.5 51t83.5 18q86 0 129 -52.5t43 -137.5q0 -55 -16.5 -100.5t-45.5 -78.5t-68 -51t-84 -18zM190 17q21 0 38 27t28.5 66.5t18 85t6.5 83.5q0 63 -13 94.5t-33 31.5q-21 0 -38 -27t-28.5 -66.5
t-18 -85.5t-6.5 -83q0 -63 13 -94.5t33 -31.5z" />
    </font>
</defs>
</svg>
