<?xml version="1.0" standalone="no"?>
<!DOCTYPE svg PUBLIC "-//W3C//DTD SVG 1.1//EN" "http://www.w3.org/Graphics/SVG/1.1/DTD/svg11.dtd" >
<svg xmlns="http://www.w3.org/2000/svg" xmlns:xlink="http://www.w3.org/1999/xlink" version="1.1">
<metadata>
Created by Christoph Koeberlin (http://christoph.koe.berlin)
Copyright (c) 2019 Swiss Typefaces Sarl. All rights reserved.
</metadata>
<defs>
<font id="Font" horiz-adv-x="237" >
  <font-face 
    font-family="Font"
    font-weight="500"
    font-style="italic"
    font-stretch="normal"
    units-per-em="1000"
    panose-1="2 11 6 4 0 0 0 0 0 0"
    ascent="800"
    descent="-200"
    x-height="481"
    cap-height="787"
    bbox="-275 -285 1164 820"
    underline-thickness="44"
    underline-position="-160"
    slope="-9"
    unicode-range="U+0020-2022"
  />
<missing-glyph horiz-adv-x="700" 
d="M100 758h500v-758h-500v758zM119 728v-698l220 349zM581 30v698l-221 -349zM133 19h434l-217 343zM350 395l217 344h-434z" />
    <glyph glyph-name="f_f.liga" unicode="ff" horiz-adv-x="687" 
d="M486 -21q-12 -79 -37 -130t-57 -81t-67.5 -41.5t-69.5 -11.5q-24 0 -46 4.5t-39 14t-27 23.5t-10 32q0 22 14.5 38t40.5 16q27 0 37 -16.5t14.5 -37t8.5 -37t20 -16.5q14 0 25.5 10t21.5 35.5t19.5 69.5t19.5 112l75 491h-166l-61 -397q-14 -90 -43 -152t-66 -100
t-78.5 -54.5t-81.5 -16.5q-26 0 -54 5t-51.5 15.5t-39 26.5t-15.5 38q0 20 14.5 37t42.5 17q29 0 43 -18.5t23 -40.5t18 -40.5t28 -18.5q14 0 30.5 13t33.5 43.5t32.5 81t27.5 125.5l67 436h-101l6 27h99l4 26q12 79 42.5 132t68.5 84t80 44t78 13q18 0 37 -2.5t37 -8
t33.5 -13.5t26.5 -19q39 35 83 49t82 14q26 0 54 -5t51.5 -15.5t38.5 -26t15 -37.5q0 -20 -13 -36t-41 -16q-19 0 -32 8.5t-22 21.5t-15.5 28.5t-13.5 28.5t-15.5 21.5t-21.5 8.5q-14 0 -30.5 -11t-33 -38t-31.5 -71.5t-25 -111.5l-11 -68h172l-6 -27h-170zM267 481h166
l7 46q5 38 15 69t24 57q-15 10 -24.5 28t-17.5 36t-17 31t-24 13q-14 0 -30.5 -11t-33 -38t-32 -71.5t-25.5 -111.5z" />
    <glyph glyph-name="f_i.liga" unicode="fi" horiz-adv-x="616" 
d="M493 113q-6 -29 -4 -50t17 -21q16 0 36.5 24.5t42.5 65.5l16 -8q-10 -28 -24 -53t-32.5 -44t-41 -30t-50.5 -11q-54 0 -78 38.5t-7 120.5l61 309h-165l-67 -450q-12 -78 -41.5 -130t-67 -83t-79 -44t-76.5 -13q-26 0 -54.5 5t-52 15.5t-39 26.5t-15.5 38q0 20 14.5 37
t42.5 17t43 -18.5t25 -41t19.5 -41t27.5 -18.5q15 0 31.5 11t32.5 37t30.5 70t24.5 110l70 472h-103l7 27h100l7 46q12 79 42.5 132t69.5 84t82 44t80 13q30 0 61 -6t55.5 -18t40.5 -30.5t16 -42.5q0 -23 -16.5 -41t-44.5 -18q-21 0 -35 10t-23.5 25.5t-16.5 33t-14 33
t-15.5 25.5t-21.5 10q-14 0 -32 -11t-35.5 -38t-33 -71.5t-25.5 -111.5l-10 -68h297z" />
    <glyph glyph-name="f_f_i.liga" unicode="ffi" horiz-adv-x="912" 
d="M486 -21q-12 -79 -37 -130t-57 -81t-67.5 -41.5t-69.5 -11.5q-24 0 -46 4.5t-39 14t-27 23.5t-10 32q0 22 14.5 38t40.5 16q27 0 37 -16.5t14.5 -37t8.5 -37t20 -16.5q14 0 25.5 10t21.5 35.5t19.5 69.5t19.5 112l75 491h-166l-61 -397q-14 -90 -43 -152t-66 -100
t-78.5 -54.5t-81.5 -16.5q-26 0 -54 5t-51.5 15.5t-39 26.5t-15.5 38q0 20 14.5 37t42.5 17q29 0 43 -18.5t23 -40.5t18 -40.5t28 -18.5q14 0 30.5 13t33.5 43.5t32.5 81t27.5 125.5l67 436h-101l6 27h99l4 26q12 79 42.5 132t68.5 84t80 44t78 13t74.5 -10.5t59.5 -33.5
q42 35 87 49.5t84 14.5q30 0 61 -6t55.5 -18t40.5 -30.5t16 -42.5q0 -23 -17 -41t-45 -18q-21 0 -35 10t-23.5 25.5t-16.5 33t-14 33t-15.5 25.5t-20.5 10q-15 0 -32.5 -11t-35.5 -38t-33.5 -71.5t-25.5 -111.5l-11 -68h298l-71 -368q-6 -29 -4 -50t17 -21t36 24.5t42 65.5
l17 -8q-11 -28 -25 -53t-32 -44t-41 -30t-50 -11q-54 0 -78 38.5t-7 120.5l61 309h-167zM267 481h166l7 46q5 38 15 68.5t24 56.5q-15 10 -24.5 28.5t-17.5 36.5t-17 31t-24 13q-14 0 -30.5 -11t-33 -38t-32 -71.5t-25.5 -111.5z" />
    <glyph glyph-name="f_l.liga" unicode="fl" horiz-adv-x="622" 
d="M37 481h100l7 46q12 79 42 132t68 84t80 44t78 13q20 0 41.5 -3.5t41.5 -9.5h120l-108 -675q-5 -29 -3.5 -49.5t17.5 -20.5q15 0 36 24.5t42 65.5l17 -8q-11 -28 -25 -53t-32 -44t-41 -30t-50 -11q-58 0 -79 38.5t-7 120.5l87 539q-10 12 -16.5 29t-13.5 32t-16.5 25.5
t-24.5 10.5q-14 0 -31 -11t-33.5 -38t-31 -71.5t-24.5 -111.5l-10 -68h125l-5 -27h-124l-67 -450q-12 -78 -41.5 -130t-67 -83t-79 -44t-76.5 -13q-26 0 -54.5 5t-52 15.5t-39 26.5t-15.5 38q0 20 14.5 37t42.5 17t43 -18.5t25 -41t19.5 -41t27.5 -18.5q15 0 31.5 11
t32.5 37t30.5 70t24.5 110l70 472h-103z" />
    <glyph glyph-name="f_f_l.liga" unicode="ffl" horiz-adv-x="918" 
d="M137 481l4 26q12 79 42.5 132t68.5 84t80 44t78 13q18 0 37 -2.5t37 -8t33.5 -13.5t26.5 -19q39 35 83 49t82 14q20 0 41 -3.5t41 -9.5h120l-108 -675q-5 -29 -3.5 -49.5t17.5 -20.5t36.5 24.5t41.5 65.5l17 -8q-11 -28 -25 -53t-32 -44t-40.5 -30t-50.5 -11
q-58 0 -78.5 38.5t-6.5 120.5l87 539q-10 12 -17 29t-14 32t-16.5 25.5t-24.5 10.5q-14 0 -30.5 -11t-33.5 -38t-32 -71.5t-24 -111.5l-11 -68h127l-6 -27h-125l-73 -475q-12 -79 -37 -130t-57 -81t-67.5 -41.5t-69.5 -11.5q-24 0 -46 4.5t-39 14t-27 23.5t-10 32
q0 22 14.5 38t40.5 16q27 0 37 -16.5t14.5 -37t8.5 -37t20 -16.5q14 0 25.5 10t21.5 35.5t19.5 69.5t19.5 112l75 491h-166l-61 -397q-14 -90 -43 -152t-66 -100t-78.5 -54.5t-81.5 -16.5q-26 0 -54 5t-51.5 15.5t-39 26.5t-15.5 38q0 20 14.5 37t42.5 17q29 0 43 -18.5
t23 -40.5t18 -40.5t28 -18.5q14 0 30.5 13t33.5 43.5t32.5 81t27.5 125.5l67 436h-101l6 27h99zM267 481h166l7 46q5 38 15 69t24 57q-15 10 -24.5 28t-17.5 36t-17 31t-24 13q-14 0 -30.5 -11t-33 -38t-32 -71.5t-25.5 -111.5z" />
    <glyph glyph-name=".notdef" horiz-adv-x="700" 
d="M100 758h500v-758h-500v758zM119 728v-698l220 349zM581 30v698l-221 -349zM133 19h434l-217 343zM350 395l217 344h-434z" />
    <glyph glyph-name="glyph1" horiz-adv-x="0" 
 />
    <glyph glyph-name="glyph2" 
 />
    <glyph glyph-name="space" unicode=" " 
 />
    <glyph glyph-name="comma" unicode="," horiz-adv-x="260" 
d="M97 -12q-29 4 -49.5 25.5t-20.5 55.5q0 35 23 59t61 24q36 0 59 -24t23 -62q0 -30 -18.5 -67t-49.5 -73.5t-72.5 -68.5t-86.5 -53l-4 7q24 17 47 39.5t41.5 46t31 47.5t15.5 44z" />
    <glyph glyph-name="hyphen" unicode="-" horiz-adv-x="414" 
d="M66 278h294l-7 -45h-294z" />
    <glyph glyph-name="period" unicode="." horiz-adv-x="255" 
d="M25 69q0 35 24 59t59 24t59 -24t24 -59t-24 -59t-59 -24t-59 24t-24 59z" />
    <glyph glyph-name="slash" unicode="/" horiz-adv-x="443" 
d="M-10 -33l462 853h50l-462 -853h-50z" />
    <glyph glyph-name="zero" unicode="0" horiz-adv-x="705" 
d="M329 -14q-64 0 -113.5 23t-83 65t-51 101.5t-17.5 131.5q0 90 27 168.5t74 137t111.5 92.5t138.5 34q64 0 113 -23t82.5 -65t51 -101.5t17.5 -131.5q0 -90 -27 -168.5t-74 -137t-111 -92.5t-138 -34zM324 12q33 0 62 22.5t53 59.5t42.5 85.5t31.5 101t20 105.5t7 99
q0 60 -10 103t-26.5 71t-38.5 41t-46 13q-33 0 -62 -22.5t-53 -59.5t-42.5 -85.5t-31.5 -101t-20 -105.5t-7 -99q0 -60 10 -103t26.5 -71t38.5 -41t46 -13z" />
    <glyph glyph-name="A" unicode="A" horiz-adv-x="771" 
d="M470 271h-256l-59 -108q-25 -46 -32.5 -73.5t-1.5 -42.5t23 -20t40 -5h9l-3 -22h-242l3 22h6q21 0 37.5 4t33.5 18.5t36.5 43t46.5 76.5l360 655h14l174 -732q8 -35 28.5 -50t56.5 -15h11l-3 -22h-324l3 22h11q17 0 32 2.5t24.5 9t13.5 18t0 29.5zM251 340h204l-58 265z
" />
    <glyph glyph-name="A" unicode="&#x104;" horiz-adv-x="771" 
d="M470 271h-256l-59 -108q-25 -46 -32.5 -73.5t-1.5 -42.5t23 -20t40 -5h9l-3 -22h-242l3 22h6q21 0 37.5 4t33.5 18.5t36.5 43t46.5 76.5l360 655h14l174 -732q8 -35 28.5 -50t56.5 -15h11l-3 -22h-324l3 22h11q17 0 32 2.5t24.5 9t13.5 18t0 29.5zM251 340h204l-58 265z
" />
    <glyph glyph-name="A" unicode="&#x102;" horiz-adv-x="771" 
d="M470 271h-256l-59 -108q-25 -46 -32.5 -73.5t-1.5 -42.5t23 -20t40 -5h9l-3 -22h-242l3 22h6q21 0 37.5 4t33.5 18.5t36.5 43t46.5 76.5l360 655h14l174 -732q8 -35 28.5 -50t56.5 -15h11l-3 -22h-324l3 22h11q17 0 32 2.5t24.5 9t13.5 18t0 29.5zM251 340h204l-58 265z
" />
    <glyph glyph-name="A" unicode="&#x100;" horiz-adv-x="771" 
d="M470 271h-256l-59 -108q-25 -46 -32.5 -73.5t-1.5 -42.5t23 -20t40 -5h9l-3 -22h-242l3 22h6q21 0 37.5 4t33.5 18.5t36.5 43t46.5 76.5l360 655h14l174 -732q8 -35 28.5 -50t56.5 -15h11l-3 -22h-324l3 22h11q17 0 32 2.5t24.5 9t13.5 18t0 29.5zM251 340h204l-58 265z
" />
    <glyph glyph-name="A" unicode="&#xc6;" horiz-adv-x="771" 
d="M470 271h-256l-59 -108q-25 -46 -32.5 -73.5t-1.5 -42.5t23 -20t40 -5h9l-3 -22h-242l3 22h6q21 0 37.5 4t33.5 18.5t36.5 43t46.5 76.5l360 655h14l174 -732q8 -35 28.5 -50t56.5 -15h11l-3 -22h-324l3 22h11q17 0 32 2.5t24.5 9t13.5 18t0 29.5zM251 340h204l-58 265z
" />
    <glyph glyph-name="A" unicode="&#xc5;" horiz-adv-x="771" 
d="M470 271h-256l-59 -108q-25 -46 -32.5 -73.5t-1.5 -42.5t23 -20t40 -5h9l-3 -22h-242l3 22h6q21 0 37.5 4t33.5 18.5t36.5 43t46.5 76.5l360 655h14l174 -732q8 -35 28.5 -50t56.5 -15h11l-3 -22h-324l3 22h11q17 0 32 2.5t24.5 9t13.5 18t0 29.5zM251 340h204l-58 265z
" />
    <glyph glyph-name="A" unicode="&#xc4;" horiz-adv-x="771" 
d="M470 271h-256l-59 -108q-25 -46 -32.5 -73.5t-1.5 -42.5t23 -20t40 -5h9l-3 -22h-242l3 22h6q21 0 37.5 4t33.5 18.5t36.5 43t46.5 76.5l360 655h14l174 -732q8 -35 28.5 -50t56.5 -15h11l-3 -22h-324l3 22h11q17 0 32 2.5t24.5 9t13.5 18t0 29.5zM251 340h204l-58 265z
" />
    <glyph glyph-name="A" unicode="&#xc3;" horiz-adv-x="771" 
d="M470 271h-256l-59 -108q-25 -46 -32.5 -73.5t-1.5 -42.5t23 -20t40 -5h9l-3 -22h-242l3 22h6q21 0 37.5 4t33.5 18.5t36.5 43t46.5 76.5l360 655h14l174 -732q8 -35 28.5 -50t56.5 -15h11l-3 -22h-324l3 22h11q17 0 32 2.5t24.5 9t13.5 18t0 29.5zM251 340h204l-58 265z
" />
    <glyph glyph-name="A" unicode="&#xc2;" horiz-adv-x="771" 
d="M470 271h-256l-59 -108q-25 -46 -32.5 -73.5t-1.5 -42.5t23 -20t40 -5h9l-3 -22h-242l3 22h6q21 0 37.5 4t33.5 18.5t36.5 43t46.5 76.5l360 655h14l174 -732q8 -35 28.5 -50t56.5 -15h11l-3 -22h-324l3 22h11q17 0 32 2.5t24.5 9t13.5 18t0 29.5zM251 340h204l-58 265z
" />
    <glyph glyph-name="A" unicode="&#xc1;" horiz-adv-x="771" 
d="M470 271h-256l-59 -108q-25 -46 -32.5 -73.5t-1.5 -42.5t23 -20t40 -5h9l-3 -22h-242l3 22h6q21 0 37.5 4t33.5 18.5t36.5 43t46.5 76.5l360 655h14l174 -732q8 -35 28.5 -50t56.5 -15h11l-3 -22h-324l3 22h11q17 0 32 2.5t24.5 9t13.5 18t0 29.5zM251 340h204l-58 265z
" />
    <glyph glyph-name="A" unicode="&#xc0;" horiz-adv-x="771" 
d="M470 271h-256l-59 -108q-25 -46 -32.5 -73.5t-1.5 -42.5t23 -20t40 -5h9l-3 -22h-242l3 22h6q21 0 37.5 4t33.5 18.5t36.5 43t46.5 76.5l360 655h14l174 -732q8 -35 28.5 -50t56.5 -15h11l-3 -22h-324l3 22h11q17 0 32 2.5t24.5 9t13.5 18t0 29.5zM251 340h204l-58 265z
" />
    <glyph glyph-name="B" unicode="B" horiz-adv-x="714" 
d="M242 80q-3 -17 -3 -27t6 -15.5t19 -7t35 -1.5h13q49 0 89 14t68.5 40.5t43.5 64.5t15 86q0 33 -11 62.5t-36.5 51t-67.5 34.5t-103 13h-19zM296 428h16q61 0 103.5 15t69 39.5t38.5 56.5t12 67q0 151 -163 151h-23zM382 787q64 0 119 -9.5t95 -31t62.5 -55t22.5 -81.5
q0 -42 -20.5 -76.5t-54 -59t-77 -40t-88.5 -19.5q109 -7 170.5 -55.5t61.5 -129.5q0 -63 -28.5 -107t-76 -71.5t-108.5 -39.5t-126 -12h-338l3 22h14q46 0 64 13t23 43l100 631q4 30 -10 43t-58 13h-17l3 22h264z" />
    <glyph glyph-name="C" unicode="C" horiz-adv-x="809" 
d="M743 58q-64 -36 -134.5 -54t-142.5 -18q-96 0 -170.5 30t-125.5 81.5t-78 121.5t-27 151q0 97 37 177.5t100.5 137.5t149 88.5t182.5 31.5q83 0 153.5 -21.5t125.5 -59.5l-18 -173h-15q-21 105 -84 163.5t-160 58.5q-75 0 -135 -36t-101.5 -96t-63.5 -138.5t-22 -164.5
q0 -80 18.5 -139.5t51.5 -100t79 -60.5t102 -20q45 0 87.5 14t80.5 43t70.5 74t56.5 107h15z" />
    <glyph glyph-name="C" unicode="&#x10c;" horiz-adv-x="809" 
d="M743 58q-64 -36 -134.5 -54t-142.5 -18q-96 0 -170.5 30t-125.5 81.5t-78 121.5t-27 151q0 97 37 177.5t100.5 137.5t149 88.5t182.5 31.5q83 0 153.5 -21.5t125.5 -59.5l-18 -173h-15q-21 105 -84 163.5t-160 58.5q-75 0 -135 -36t-101.5 -96t-63.5 -138.5t-22 -164.5
q0 -80 18.5 -139.5t51.5 -100t79 -60.5t102 -20q45 0 87.5 14t80.5 43t70.5 74t56.5 107h15z" />
    <glyph glyph-name="C" unicode="&#x10a;" horiz-adv-x="809" 
d="M743 58q-64 -36 -134.5 -54t-142.5 -18q-96 0 -170.5 30t-125.5 81.5t-78 121.5t-27 151q0 97 37 177.5t100.5 137.5t149 88.5t182.5 31.5q83 0 153.5 -21.5t125.5 -59.5l-18 -173h-15q-21 105 -84 163.5t-160 58.5q-75 0 -135 -36t-101.5 -96t-63.5 -138.5t-22 -164.5
q0 -80 18.5 -139.5t51.5 -100t79 -60.5t102 -20q45 0 87.5 14t80.5 43t70.5 74t56.5 107h15z" />
    <glyph glyph-name="C" unicode="&#x108;" horiz-adv-x="809" 
d="M743 58q-64 -36 -134.5 -54t-142.5 -18q-96 0 -170.5 30t-125.5 81.5t-78 121.5t-27 151q0 97 37 177.5t100.5 137.5t149 88.5t182.5 31.5q83 0 153.5 -21.5t125.5 -59.5l-18 -173h-15q-21 105 -84 163.5t-160 58.5q-75 0 -135 -36t-101.5 -96t-63.5 -138.5t-22 -164.5
q0 -80 18.5 -139.5t51.5 -100t79 -60.5t102 -20q45 0 87.5 14t80.5 43t70.5 74t56.5 107h15z" />
    <glyph glyph-name="C" unicode="&#x106;" horiz-adv-x="809" 
d="M743 58q-64 -36 -134.5 -54t-142.5 -18q-96 0 -170.5 30t-125.5 81.5t-78 121.5t-27 151q0 97 37 177.5t100.5 137.5t149 88.5t182.5 31.5q83 0 153.5 -21.5t125.5 -59.5l-18 -173h-15q-21 105 -84 163.5t-160 58.5q-75 0 -135 -36t-101.5 -96t-63.5 -138.5t-22 -164.5
q0 -80 18.5 -139.5t51.5 -100t79 -60.5t102 -20q45 0 87.5 14t80.5 43t70.5 74t56.5 107h15z" />
    <glyph glyph-name="C" unicode="&#xc7;" horiz-adv-x="809" 
d="M743 58q-64 -36 -134.5 -54t-142.5 -18q-96 0 -170.5 30t-125.5 81.5t-78 121.5t-27 151q0 97 37 177.5t100.5 137.5t149 88.5t182.5 31.5q83 0 153.5 -21.5t125.5 -59.5l-18 -173h-15q-21 105 -84 163.5t-160 58.5q-75 0 -135 -36t-101.5 -96t-63.5 -138.5t-22 -164.5
q0 -80 18.5 -139.5t51.5 -100t79 -60.5t102 -20q45 0 87.5 14t80.5 43t70.5 74t56.5 107h15z" />
    <glyph glyph-name="D" unicode="D" horiz-adv-x="855" 
d="M246 108q-4 -23 -3.5 -38t9.5 -24t29 -12.5t55 -3.5h6q67 0 130 27t111.5 79.5t77.5 128.5t29 174q0 91 -26 152t-68 98t-96 52t-110 15h-42zM396 787q109 0 192 -25t139 -71.5t84 -113t28 -148.5q0 -92 -34 -170.5t-96 -136t-150 -90t-197 -32.5h-366l3 22h14
q46 0 64 13t23 43l100 631q4 30 -10 43t-58 13h-17l3 22h278z" />
    <glyph glyph-name="D" unicode="&#x110;" horiz-adv-x="855" 
d="M246 108q-4 -23 -3.5 -38t9.5 -24t29 -12.5t55 -3.5h6q67 0 130 27t111.5 79.5t77.5 128.5t29 174q0 91 -26 152t-68 98t-96 52t-110 15h-42zM396 787q109 0 192 -25t139 -71.5t84 -113t28 -148.5q0 -92 -34 -170.5t-96 -136t-150 -90t-197 -32.5h-366l3 22h14
q46 0 64 13t23 43l100 631q4 30 -10 43t-58 13h-17l3 22h278z" />
    <glyph glyph-name="D" unicode="&#x10e;" horiz-adv-x="855" 
d="M246 108q-4 -23 -3.5 -38t9.5 -24t29 -12.5t55 -3.5h6q67 0 130 27t111.5 79.5t77.5 128.5t29 174q0 91 -26 152t-68 98t-96 52t-110 15h-42zM396 787q109 0 192 -25t139 -71.5t84 -113t28 -148.5q0 -92 -34 -170.5t-96 -136t-150 -90t-197 -32.5h-366l3 22h14
q46 0 64 13t23 43l100 631q4 30 -10 43t-58 13h-17l3 22h278z" />
    <glyph glyph-name="D" unicode="&#xd0;" horiz-adv-x="855" 
d="M246 108q-4 -23 -3.5 -38t9.5 -24t29 -12.5t55 -3.5h6q67 0 130 27t111.5 79.5t77.5 128.5t29 174q0 91 -26 152t-68 98t-96 52t-110 15h-42zM396 787q109 0 192 -25t139 -71.5t84 -113t28 -148.5q0 -92 -34 -170.5t-96 -136t-150 -90t-197 -32.5h-366l3 22h14
q46 0 64 13t23 43l100 631q4 30 -10 43t-58 13h-17l3 22h278z" />
    <glyph glyph-name="E" unicode="E" horiz-adv-x="693" 
d="M298 442h94q25 0 48 3.5t43 15.5t37 34t29 60h14l-41 -264h-14q0 35 -10.5 57t-27 35t-38.5 17.5t-46 4.5h-94l-49 -315q-5 -34 7.5 -44t42.5 -10h116q88 0 144.5 42t83.5 133h14l-32 -211h-623l3 22h14q46 0 64 13t23 43l100 631q4 30 -10 43t-58 13h-17l3 22h589
l-26 -195h-14q-3 84 -50.5 121t-158.5 37h-111z" />
    <glyph glyph-name="E" unicode="&#x11a;" horiz-adv-x="693" 
d="M298 442h94q25 0 48 3.5t43 15.5t37 34t29 60h14l-41 -264h-14q0 35 -10.5 57t-27 35t-38.5 17.5t-46 4.5h-94l-49 -315q-5 -34 7.5 -44t42.5 -10h116q88 0 144.5 42t83.5 133h14l-32 -211h-623l3 22h14q46 0 64 13t23 43l100 631q4 30 -10 43t-58 13h-17l3 22h589
l-26 -195h-14q-3 84 -50.5 121t-158.5 37h-111z" />
    <glyph glyph-name="E" unicode="&#x118;" horiz-adv-x="693" 
d="M298 442h94q25 0 48 3.5t43 15.5t37 34t29 60h14l-41 -264h-14q0 35 -10.5 57t-27 35t-38.5 17.5t-46 4.5h-94l-49 -315q-5 -34 7.5 -44t42.5 -10h116q88 0 144.5 42t83.5 133h14l-32 -211h-623l3 22h14q46 0 64 13t23 43l100 631q4 30 -10 43t-58 13h-17l3 22h589
l-26 -195h-14q-3 84 -50.5 121t-158.5 37h-111z" />
    <glyph glyph-name="E" unicode="&#x116;" horiz-adv-x="693" 
d="M298 442h94q25 0 48 3.5t43 15.5t37 34t29 60h14l-41 -264h-14q0 35 -10.5 57t-27 35t-38.5 17.5t-46 4.5h-94l-49 -315q-5 -34 7.5 -44t42.5 -10h116q88 0 144.5 42t83.5 133h14l-32 -211h-623l3 22h14q46 0 64 13t23 43l100 631q4 30 -10 43t-58 13h-17l3 22h589
l-26 -195h-14q-3 84 -50.5 121t-158.5 37h-111z" />
    <glyph glyph-name="E" unicode="&#x114;" horiz-adv-x="693" 
d="M298 442h94q25 0 48 3.5t43 15.5t37 34t29 60h14l-41 -264h-14q0 35 -10.5 57t-27 35t-38.5 17.5t-46 4.5h-94l-49 -315q-5 -34 7.5 -44t42.5 -10h116q88 0 144.5 42t83.5 133h14l-32 -211h-623l3 22h14q46 0 64 13t23 43l100 631q4 30 -10 43t-58 13h-17l3 22h589
l-26 -195h-14q-3 84 -50.5 121t-158.5 37h-111z" />
    <glyph glyph-name="E" unicode="&#x112;" horiz-adv-x="693" 
d="M298 442h94q25 0 48 3.5t43 15.5t37 34t29 60h14l-41 -264h-14q0 35 -10.5 57t-27 35t-38.5 17.5t-46 4.5h-94l-49 -315q-5 -34 7.5 -44t42.5 -10h116q88 0 144.5 42t83.5 133h14l-32 -211h-623l3 22h14q46 0 64 13t23 43l100 631q4 30 -10 43t-58 13h-17l3 22h589
l-26 -195h-14q-3 84 -50.5 121t-158.5 37h-111z" />
    <glyph glyph-name="E" unicode="&#xcb;" horiz-adv-x="693" 
d="M298 442h94q25 0 48 3.5t43 15.5t37 34t29 60h14l-41 -264h-14q0 35 -10.5 57t-27 35t-38.5 17.5t-46 4.5h-94l-49 -315q-5 -34 7.5 -44t42.5 -10h116q88 0 144.5 42t83.5 133h14l-32 -211h-623l3 22h14q46 0 64 13t23 43l100 631q4 30 -10 43t-58 13h-17l3 22h589
l-26 -195h-14q-3 84 -50.5 121t-158.5 37h-111z" />
    <glyph glyph-name="E" unicode="&#xca;" horiz-adv-x="693" 
d="M298 442h94q25 0 48 3.5t43 15.5t37 34t29 60h14l-41 -264h-14q0 35 -10.5 57t-27 35t-38.5 17.5t-46 4.5h-94l-49 -315q-5 -34 7.5 -44t42.5 -10h116q88 0 144.5 42t83.5 133h14l-32 -211h-623l3 22h14q46 0 64 13t23 43l100 631q4 30 -10 43t-58 13h-17l3 22h589
l-26 -195h-14q-3 84 -50.5 121t-158.5 37h-111z" />
    <glyph glyph-name="E" unicode="&#xc9;" horiz-adv-x="693" 
d="M298 442h94q25 0 48 3.5t43 15.5t37 34t29 60h14l-41 -264h-14q0 35 -10.5 57t-27 35t-38.5 17.5t-46 4.5h-94l-49 -315q-5 -34 7.5 -44t42.5 -10h116q88 0 144.5 42t83.5 133h14l-32 -211h-623l3 22h14q46 0 64 13t23 43l100 631q4 30 -10 43t-58 13h-17l3 22h589
l-26 -195h-14q-3 84 -50.5 121t-158.5 37h-111z" />
    <glyph glyph-name="E" unicode="&#xc8;" horiz-adv-x="693" 
d="M298 442h94q25 0 48 3.5t43 15.5t37 34t29 60h14l-41 -264h-14q0 35 -10.5 57t-27 35t-38.5 17.5t-46 4.5h-94l-49 -315q-5 -34 7.5 -44t42.5 -10h116q88 0 144.5 42t83.5 133h14l-32 -211h-623l3 22h14q46 0 64 13t23 43l100 631q4 30 -10 43t-58 13h-17l3 22h589
l-26 -195h-14q-3 84 -50.5 121t-158.5 37h-111z" />
    <glyph glyph-name="F" unicode="F" horiz-adv-x="660" 
d="M294 422h105q25 0 48 3.5t43.5 15.5t37 34.5t28.5 60.5h13l-41 -265h-13q0 35 -10.5 57.5t-27 35t-38 17.5t-45.5 5h-105l-48 -304q-5 -32 14.5 -46t70.5 -14h20l-3 -22h-347l3 22h14q46 0 64 13t23 43l100 631q4 30 -10 43t-58 13h-17l3 22h604l-26 -195h-15
q-1 42 -12.5 72t-36.5 49t-64 28t-94 9h-127z" />
    <glyph glyph-name="G" unicode="G" horiz-adv-x="878" 
d="M466 -14q-96 0 -170.5 30t-125.5 81.5t-78 121.5t-27 151q0 97 37 177.5t101 137.5t149.5 88.5t181.5 31.5q83 0 153.5 -21.5t125.5 -59.5l-18 -173h-15q-21 105 -84 163.5t-160 58.5q-75 0 -135 -36t-101.5 -96t-63.5 -138.5t-22 -164.5q0 -80 18.5 -139.5t51.5 -100
t79.5 -60.5t102.5 -20q53 0 97 18.5t82 60.5l27 177q2 16 -7 24.5t-27 8.5h-54l3 23h301l-3 -23h-32q-19 0 -31.5 -8.5t-14.5 -24.5l-26 -161q-49 -55 -127.5 -91t-187.5 -36z" />
    <glyph glyph-name="G" unicode="&#x122;" horiz-adv-x="878" 
d="M466 -14q-96 0 -170.5 30t-125.5 81.5t-78 121.5t-27 151q0 97 37 177.5t101 137.5t149.5 88.5t181.5 31.5q83 0 153.5 -21.5t125.5 -59.5l-18 -173h-15q-21 105 -84 163.5t-160 58.5q-75 0 -135 -36t-101.5 -96t-63.5 -138.5t-22 -164.5q0 -80 18.5 -139.5t51.5 -100
t79.5 -60.5t102.5 -20q53 0 97 18.5t82 60.5l27 177q2 16 -7 24.5t-27 8.5h-54l3 23h301l-3 -23h-32q-19 0 -31.5 -8.5t-14.5 -24.5l-26 -161q-49 -55 -127.5 -91t-187.5 -36z" />
    <glyph glyph-name="G" unicode="&#x120;" horiz-adv-x="878" 
d="M466 -14q-96 0 -170.5 30t-125.5 81.5t-78 121.5t-27 151q0 97 37 177.5t101 137.5t149.5 88.5t181.5 31.5q83 0 153.5 -21.5t125.5 -59.5l-18 -173h-15q-21 105 -84 163.5t-160 58.5q-75 0 -135 -36t-101.5 -96t-63.5 -138.5t-22 -164.5q0 -80 18.5 -139.5t51.5 -100
t79.5 -60.5t102.5 -20q53 0 97 18.5t82 60.5l27 177q2 16 -7 24.5t-27 8.5h-54l3 23h301l-3 -23h-32q-19 0 -31.5 -8.5t-14.5 -24.5l-26 -161q-49 -55 -127.5 -91t-187.5 -36z" />
    <glyph glyph-name="G" unicode="&#x11e;" horiz-adv-x="878" 
d="M466 -14q-96 0 -170.5 30t-125.5 81.5t-78 121.5t-27 151q0 97 37 177.5t101 137.5t149.5 88.5t181.5 31.5q83 0 153.5 -21.5t125.5 -59.5l-18 -173h-15q-21 105 -84 163.5t-160 58.5q-75 0 -135 -36t-101.5 -96t-63.5 -138.5t-22 -164.5q0 -80 18.5 -139.5t51.5 -100
t79.5 -60.5t102.5 -20q53 0 97 18.5t82 60.5l27 177q2 16 -7 24.5t-27 8.5h-54l3 23h301l-3 -23h-32q-19 0 -31.5 -8.5t-14.5 -24.5l-26 -161q-49 -55 -127.5 -91t-187.5 -36z" />
    <glyph glyph-name="G" unicode="&#x11c;" horiz-adv-x="878" 
d="M466 -14q-96 0 -170.5 30t-125.5 81.5t-78 121.5t-27 151q0 97 37 177.5t101 137.5t149.5 88.5t181.5 31.5q83 0 153.5 -21.5t125.5 -59.5l-18 -173h-15q-21 105 -84 163.5t-160 58.5q-75 0 -135 -36t-101.5 -96t-63.5 -138.5t-22 -164.5q0 -80 18.5 -139.5t51.5 -100
t79.5 -60.5t102.5 -20q53 0 97 18.5t82 60.5l27 177q2 16 -7 24.5t-27 8.5h-54l3 23h301l-3 -23h-32q-19 0 -31.5 -8.5t-14.5 -24.5l-26 -161q-49 -55 -127.5 -91t-187.5 -36z" />
    <glyph glyph-name="H" unicode="H" horiz-adv-x="889" 
d="M645 386h-355l-48 -308q-5 -29 9 -42.5t59 -13.5h16l-3 -22h-327l3 22h14q46 0 64 13t23 43l100 631q4 30 -10 43t-58 13h-17l3 22h328l-3 -22h-15q-45 0 -63.5 -13t-23.5 -43l-45 -286h355l45 286q5 30 -9 43t-58 13h-17l3 22h328l-3 -22h-15q-45 0 -63.5 -13t-23.5 -43
l-100 -631q-5 -29 9.5 -42.5t59.5 -13.5h16l-3 -22h-327l3 22h14q46 0 64 13t23 43z" />
    <glyph glyph-name="H" unicode="&#x126;" horiz-adv-x="889" 
d="M645 386h-355l-48 -308q-5 -29 9 -42.5t59 -13.5h16l-3 -22h-327l3 22h14q46 0 64 13t23 43l100 631q4 30 -10 43t-58 13h-17l3 22h328l-3 -22h-15q-45 0 -63.5 -13t-23.5 -43l-45 -286h355l45 286q5 30 -9 43t-58 13h-17l3 22h328l-3 -22h-15q-45 0 -63.5 -13t-23.5 -43
l-100 -631q-5 -29 9.5 -42.5t59.5 -13.5h16l-3 -22h-327l3 22h14q46 0 64 13t23 43z" />
    <glyph glyph-name="H" unicode="&#x124;" horiz-adv-x="889" 
d="M645 386h-355l-48 -308q-5 -29 9 -42.5t59 -13.5h16l-3 -22h-327l3 22h14q46 0 64 13t23 43l100 631q4 30 -10 43t-58 13h-17l3 22h328l-3 -22h-15q-45 0 -63.5 -13t-23.5 -43l-45 -286h355l45 286q5 30 -9 43t-58 13h-17l3 22h328l-3 -22h-15q-45 0 -63.5 -13t-23.5 -43
l-100 -631q-5 -29 9.5 -42.5t59.5 -13.5h16l-3 -22h-327l3 22h14q46 0 64 13t23 43z" />
    <glyph glyph-name="I" unicode="I" horiz-adv-x="393" 
d="M200 709q4 30 -10 43t-58 13h-17l3 22h328l-3 -22h-15q-45 0 -63.5 -13t-23.5 -43l-99 -631q-5 -29 9 -42.5t59 -13.5h16l-3 -22h-327l3 22h14q46 0 64 13t23 43z" />
    <glyph glyph-name="I" unicode="&#x1eca;" horiz-adv-x="393" 
d="M200 709q4 30 -10 43t-58 13h-17l3 22h328l-3 -22h-15q-45 0 -63.5 -13t-23.5 -43l-99 -631q-5 -29 9 -42.5t59 -13.5h16l-3 -22h-327l3 22h14q46 0 64 13t23 43z" />
    <glyph glyph-name="I" unicode="&#x130;" horiz-adv-x="393" 
d="M200 709q4 30 -10 43t-58 13h-17l3 22h328l-3 -22h-15q-45 0 -63.5 -13t-23.5 -43l-99 -631q-5 -29 9 -42.5t59 -13.5h16l-3 -22h-327l3 22h14q46 0 64 13t23 43z" />
    <glyph glyph-name="I" unicode="&#x12e;" horiz-adv-x="393" 
d="M200 709q4 30 -10 43t-58 13h-17l3 22h328l-3 -22h-15q-45 0 -63.5 -13t-23.5 -43l-99 -631q-5 -29 9 -42.5t59 -13.5h16l-3 -22h-327l3 22h14q46 0 64 13t23 43z" />
    <glyph glyph-name="I" unicode="&#x12c;" horiz-adv-x="393" 
d="M200 709q4 30 -10 43t-58 13h-17l3 22h328l-3 -22h-15q-45 0 -63.5 -13t-23.5 -43l-99 -631q-5 -29 9 -42.5t59 -13.5h16l-3 -22h-327l3 22h14q46 0 64 13t23 43z" />
    <glyph glyph-name="I" unicode="&#x12a;" horiz-adv-x="393" 
d="M200 709q4 30 -10 43t-58 13h-17l3 22h328l-3 -22h-15q-45 0 -63.5 -13t-23.5 -43l-99 -631q-5 -29 9 -42.5t59 -13.5h16l-3 -22h-327l3 22h14q46 0 64 13t23 43z" />
    <glyph glyph-name="I" unicode="&#x128;" horiz-adv-x="393" 
d="M200 709q4 30 -10 43t-58 13h-17l3 22h328l-3 -22h-15q-45 0 -63.5 -13t-23.5 -43l-99 -631q-5 -29 9 -42.5t59 -13.5h16l-3 -22h-327l3 22h14q46 0 64 13t23 43z" />
    <glyph glyph-name="I" unicode="&#xcf;" horiz-adv-x="393" 
d="M200 709q4 30 -10 43t-58 13h-17l3 22h328l-3 -22h-15q-45 0 -63.5 -13t-23.5 -43l-99 -631q-5 -29 9 -42.5t59 -13.5h16l-3 -22h-327l3 22h14q46 0 64 13t23 43z" />
    <glyph glyph-name="I" unicode="&#xce;" horiz-adv-x="393" 
d="M200 709q4 30 -10 43t-58 13h-17l3 22h328l-3 -22h-15q-45 0 -63.5 -13t-23.5 -43l-99 -631q-5 -29 9 -42.5t59 -13.5h16l-3 -22h-327l3 22h14q46 0 64 13t23 43z" />
    <glyph glyph-name="I" unicode="&#xcd;" horiz-adv-x="393" 
d="M200 709q4 30 -10 43t-58 13h-17l3 22h328l-3 -22h-15q-45 0 -63.5 -13t-23.5 -43l-99 -631q-5 -29 9 -42.5t59 -13.5h16l-3 -22h-327l3 22h14q46 0 64 13t23 43z" />
    <glyph glyph-name="I" unicode="&#xcc;" horiz-adv-x="393" 
d="M200 709q4 30 -10 43t-58 13h-17l3 22h328l-3 -22h-15q-45 0 -63.5 -13t-23.5 -43l-99 -631q-5 -29 9 -42.5t59 -13.5h16l-3 -22h-327l3 22h14q46 0 64 13t23 43z" />
    <glyph glyph-name="J" unicode="J" horiz-adv-x="505" 
d="M327 709q5 30 -10.5 43t-60.5 13h-17l3 22h332l-3 -22h-15q-45 0 -63.5 -13t-23.5 -43l-66 -411q-9 -57 -23.5 -113t-42.5 -100t-73 -71.5t-115 -27.5q-41 0 -72 8.5t-52 22t-31.5 31t-10.5 35.5q0 32 18 48.5t44 16.5q27 0 42.5 -16t23.5 -42q5 -17 9 -32t9 -26
t11.5 -18t17.5 -7q19 0 32.5 16t25 51t22 90.5t23.5 133.5z" />
    <glyph glyph-name="J" unicode="&#x134;" horiz-adv-x="505" 
d="M327 709q5 30 -10.5 43t-60.5 13h-17l3 22h332l-3 -22h-15q-45 0 -63.5 -13t-23.5 -43l-66 -411q-9 -57 -23.5 -113t-42.5 -100t-73 -71.5t-115 -27.5q-41 0 -72 8.5t-52 22t-31.5 31t-10.5 35.5q0 32 18 48.5t44 16.5q27 0 42.5 -16t23.5 -42q5 -17 9 -32t9 -26
t11.5 -18t17.5 -7q19 0 32.5 16t25 51t22 90.5t23.5 133.5z" />
    <glyph glyph-name="K" unicode="K" horiz-adv-x="796" 
d="M200 709q4 30 -10 43t-58 13h-17l3 22h328l-3 -22h-15q-45 0 -63.5 -13t-23.5 -43l-49 -310l260 250q58 57 64 86.5t-53 29.5h-13l3 22h276l-3 -22h-8q-51 0 -95 -22.5t-92 -68.5l-227 -219l245 -351q36 -51 71.5 -68.5t67.5 -17.5l1 -18q-52 -13 -99 -13
q-65 0 -118 25.5t-99 93.5l-185 268l-46 -296q-5 -29 9 -42.5t59 -13.5h16l-3 -22h-327l3 22h14q46 0 64 13t23 43z" />
    <glyph glyph-name="K" unicode="&#x136;" horiz-adv-x="796" 
d="M200 709q4 30 -10 43t-58 13h-17l3 22h328l-3 -22h-15q-45 0 -63.5 -13t-23.5 -43l-49 -310l260 250q58 57 64 86.5t-53 29.5h-13l3 22h276l-3 -22h-8q-51 0 -95 -22.5t-92 -68.5l-227 -219l245 -351q36 -51 71.5 -68.5t67.5 -17.5l1 -18q-52 -13 -99 -13
q-65 0 -118 25.5t-99 93.5l-185 268l-46 -296q-5 -29 9 -42.5t59 -13.5h16l-3 -22h-327l3 22h14q46 0 64 13t23 43z" />
    <glyph glyph-name="L" unicode="L" horiz-adv-x="675" 
d="M200 709q4 30 -10 43t-58 13h-17l3 22h341l-3 -22h-16q-51 0 -73 -13.5t-27 -42.5l-97 -616q-5 -35 7.5 -45.5t44.5 -10.5h116q87 0 143.5 46t86.5 144h13l-34 -227h-624l3 22h14q46 0 64 13t23 43z" />
    <glyph glyph-name="L" unicode="&#x141;" horiz-adv-x="675" 
d="M200 709q4 30 -10 43t-58 13h-17l3 22h341l-3 -22h-16q-51 0 -73 -13.5t-27 -42.5l-97 -616q-5 -35 7.5 -45.5t44.5 -10.5h116q87 0 143.5 46t86.5 144h13l-34 -227h-624l3 22h14q46 0 64 13t23 43z" />
    <glyph glyph-name="L" unicode="&#x13f;" horiz-adv-x="675" 
d="M200 709q4 30 -10 43t-58 13h-17l3 22h341l-3 -22h-16q-51 0 -73 -13.5t-27 -42.5l-97 -616q-5 -35 7.5 -45.5t44.5 -10.5h116q87 0 143.5 46t86.5 144h13l-34 -227h-624l3 22h14q46 0 64 13t23 43z" />
    <glyph glyph-name="L" unicode="&#x13d;" horiz-adv-x="675" 
d="M200 709q4 30 -10 43t-58 13h-17l3 22h341l-3 -22h-16q-51 0 -73 -13.5t-27 -42.5l-97 -616q-5 -35 7.5 -45.5t44.5 -10.5h116q87 0 143.5 46t86.5 144h13l-34 -227h-624l3 22h14q46 0 64 13t23 43z" />
    <glyph glyph-name="L" unicode="&#x13b;" horiz-adv-x="675" 
d="M200 709q4 30 -10 43t-58 13h-17l3 22h341l-3 -22h-16q-51 0 -73 -13.5t-27 -42.5l-97 -616q-5 -35 7.5 -45.5t44.5 -10.5h116q87 0 143.5 46t86.5 144h13l-34 -227h-624l3 22h14q46 0 64 13t23 43z" />
    <glyph glyph-name="L" unicode="&#x139;" horiz-adv-x="675" 
d="M200 709q4 30 -10 43t-58 13h-17l3 22h341l-3 -22h-16q-51 0 -73 -13.5t-27 -42.5l-97 -616q-5 -35 7.5 -45.5t44.5 -10.5h116q87 0 143.5 46t86.5 144h13l-34 -227h-624l3 22h14q46 0 64 13t23 43z" />
    <glyph glyph-name="M" unicode="M" horiz-adv-x="1001" 
d="M858 78q-4 -30 8 -43t44 -13h33l-3 -22h-330l4 22h32q33 0 49.5 13t20.5 43l70 571l-349 -663h-17l-163 663l-109 -517q-12 -59 5.5 -84.5t68.5 -25.5h17l-3 -22h-263l3 22h15q49 0 75 26t38 84l116 549q5 25 0 41t-17 25.5t-30 13t-39 3.5l3 23h235l137 -579l303 579
h232l-3 -23q-16 0 -34 -3t-33.5 -11.5t-27 -23.5t-14.5 -39z" />
    <glyph glyph-name="N" unicode="N" horiz-adv-x="864" 
d="M676 -14l-438 648l-78 -494q-9 -58 6.5 -88t65.5 -30h25l-4 -22h-266l3 22h13q51 0 79 30.5t37 87.5l84 536q7 44 -16.5 66.5t-80.5 22.5l3 22h203l380 -569l69 433q9 56 -7 85t-67 29h-23l3 22h268l-3 -22h-14q-51 0 -78.5 -30t-36.5 -84l-105 -665h-22z" />
    <glyph glyph-name="N" unicode="&#x14a;" horiz-adv-x="864" 
d="M676 -14l-438 648l-78 -494q-9 -58 6.5 -88t65.5 -30h25l-4 -22h-266l3 22h13q51 0 79 30.5t37 87.5l84 536q7 44 -16.5 66.5t-80.5 22.5l3 22h203l380 -569l69 433q9 56 -7 85t-67 29h-23l3 22h268l-3 -22h-14q-51 0 -78.5 -30t-36.5 -84l-105 -665h-22z" />
    <glyph glyph-name="N" unicode="&#x147;" horiz-adv-x="864" 
d="M676 -14l-438 648l-78 -494q-9 -58 6.5 -88t65.5 -30h25l-4 -22h-266l3 22h13q51 0 79 30.5t37 87.5l84 536q7 44 -16.5 66.5t-80.5 22.5l3 22h203l380 -569l69 433q9 56 -7 85t-67 29h-23l3 22h268l-3 -22h-14q-51 0 -78.5 -30t-36.5 -84l-105 -665h-22z" />
    <glyph glyph-name="N" unicode="&#x145;" horiz-adv-x="864" 
d="M676 -14l-438 648l-78 -494q-9 -58 6.5 -88t65.5 -30h25l-4 -22h-266l3 22h13q51 0 79 30.5t37 87.5l84 536q7 44 -16.5 66.5t-80.5 22.5l3 22h203l380 -569l69 433q9 56 -7 85t-67 29h-23l3 22h268l-3 -22h-14q-51 0 -78.5 -30t-36.5 -84l-105 -665h-22z" />
    <glyph glyph-name="N" unicode="&#x143;" horiz-adv-x="864" 
d="M676 -14l-438 648l-78 -494q-9 -58 6.5 -88t65.5 -30h25l-4 -22h-266l3 22h13q51 0 79 30.5t37 87.5l84 536q7 44 -16.5 66.5t-80.5 22.5l3 22h203l380 -569l69 433q9 56 -7 85t-67 29h-23l3 22h268l-3 -22h-14q-51 0 -78.5 -30t-36.5 -84l-105 -665h-22z" />
    <glyph glyph-name="N" unicode="&#xd1;" horiz-adv-x="864" 
d="M676 -14l-438 648l-78 -494q-9 -58 6.5 -88t65.5 -30h25l-4 -22h-266l3 22h13q51 0 79 30.5t37 87.5l84 536q7 44 -16.5 66.5t-80.5 22.5l3 22h203l380 -569l69 433q9 56 -7 85t-67 29h-23l3 22h268l-3 -22h-14q-51 0 -78.5 -30t-36.5 -84l-105 -665h-22z" />
    <glyph glyph-name="O" unicode="O" horiz-adv-x="905" 
d="M452 -14q-83 0 -153 26t-122 75t-81 120t-29 161q0 97 33.5 177.5t92 138.5t138 89.5t171.5 31.5q82 0 152.5 -26t122.5 -75t81 -120t29 -161q0 -98 -33.5 -178t-92 -138t-138 -89.5t-171.5 -31.5zM452 16q64 0 117 33.5t90.5 91.5t58 135.5t20.5 165.5q0 87 -19 150
t-51.5 103.5t-75.5 60t-90 19.5q-65 0 -117.5 -33.5t-90 -91.5t-58 -135.5t-20.5 -165.5q0 -87 19.5 -150t52 -103.5t75 -60t89.5 -19.5z" />
    <glyph glyph-name="O" unicode="&#x1ecc;" horiz-adv-x="905" 
d="M452 -14q-83 0 -153 26t-122 75t-81 120t-29 161q0 97 33.5 177.5t92 138.5t138 89.5t171.5 31.5q82 0 152.5 -26t122.5 -75t81 -120t29 -161q0 -98 -33.5 -178t-92 -138t-138 -89.5t-171.5 -31.5zM452 16q64 0 117 33.5t90.5 91.5t58 135.5t20.5 165.5q0 87 -19 150
t-51.5 103.5t-75.5 60t-90 19.5q-65 0 -117.5 -33.5t-90 -91.5t-58 -135.5t-20.5 -165.5q0 -87 19.5 -150t52 -103.5t75 -60t89.5 -19.5z" />
    <glyph glyph-name="O" unicode="&#x152;" horiz-adv-x="905" 
d="M452 -14q-83 0 -153 26t-122 75t-81 120t-29 161q0 97 33.5 177.5t92 138.5t138 89.5t171.5 31.5q82 0 152.5 -26t122.5 -75t81 -120t29 -161q0 -98 -33.5 -178t-92 -138t-138 -89.5t-171.5 -31.5zM452 16q64 0 117 33.5t90.5 91.5t58 135.5t20.5 165.5q0 87 -19 150
t-51.5 103.5t-75.5 60t-90 19.5q-65 0 -117.5 -33.5t-90 -91.5t-58 -135.5t-20.5 -165.5q0 -87 19.5 -150t52 -103.5t75 -60t89.5 -19.5z" />
    <glyph glyph-name="O" unicode="&#x150;" horiz-adv-x="905" 
d="M452 -14q-83 0 -153 26t-122 75t-81 120t-29 161q0 97 33.5 177.5t92 138.5t138 89.5t171.5 31.5q82 0 152.5 -26t122.5 -75t81 -120t29 -161q0 -98 -33.5 -178t-92 -138t-138 -89.5t-171.5 -31.5zM452 16q64 0 117 33.5t90.5 91.5t58 135.5t20.5 165.5q0 87 -19 150
t-51.5 103.5t-75.5 60t-90 19.5q-65 0 -117.5 -33.5t-90 -91.5t-58 -135.5t-20.5 -165.5q0 -87 19.5 -150t52 -103.5t75 -60t89.5 -19.5z" />
    <glyph glyph-name="O" unicode="&#x14e;" horiz-adv-x="905" 
d="M452 -14q-83 0 -153 26t-122 75t-81 120t-29 161q0 97 33.5 177.5t92 138.5t138 89.5t171.5 31.5q82 0 152.5 -26t122.5 -75t81 -120t29 -161q0 -98 -33.5 -178t-92 -138t-138 -89.5t-171.5 -31.5zM452 16q64 0 117 33.5t90.5 91.5t58 135.5t20.5 165.5q0 87 -19 150
t-51.5 103.5t-75.5 60t-90 19.5q-65 0 -117.5 -33.5t-90 -91.5t-58 -135.5t-20.5 -165.5q0 -87 19.5 -150t52 -103.5t75 -60t89.5 -19.5z" />
    <glyph glyph-name="O" unicode="&#x14c;" horiz-adv-x="905" 
d="M452 -14q-83 0 -153 26t-122 75t-81 120t-29 161q0 97 33.5 177.5t92 138.5t138 89.5t171.5 31.5q82 0 152.5 -26t122.5 -75t81 -120t29 -161q0 -98 -33.5 -178t-92 -138t-138 -89.5t-171.5 -31.5zM452 16q64 0 117 33.5t90.5 91.5t58 135.5t20.5 165.5q0 87 -19 150
t-51.5 103.5t-75.5 60t-90 19.5q-65 0 -117.5 -33.5t-90 -91.5t-58 -135.5t-20.5 -165.5q0 -87 19.5 -150t52 -103.5t75 -60t89.5 -19.5z" />
    <glyph glyph-name="O" unicode="&#xd8;" horiz-adv-x="905" 
d="M452 -14q-83 0 -153 26t-122 75t-81 120t-29 161q0 97 33.5 177.5t92 138.5t138 89.5t171.5 31.5q82 0 152.5 -26t122.5 -75t81 -120t29 -161q0 -98 -33.5 -178t-92 -138t-138 -89.5t-171.5 -31.5zM452 16q64 0 117 33.5t90.5 91.5t58 135.5t20.5 165.5q0 87 -19 150
t-51.5 103.5t-75.5 60t-90 19.5q-65 0 -117.5 -33.5t-90 -91.5t-58 -135.5t-20.5 -165.5q0 -87 19.5 -150t52 -103.5t75 -60t89.5 -19.5z" />
    <glyph glyph-name="O" unicode="&#xd6;" horiz-adv-x="905" 
d="M452 -14q-83 0 -153 26t-122 75t-81 120t-29 161q0 97 33.5 177.5t92 138.5t138 89.5t171.5 31.5q82 0 152.5 -26t122.5 -75t81 -120t29 -161q0 -98 -33.5 -178t-92 -138t-138 -89.5t-171.5 -31.5zM452 16q64 0 117 33.5t90.5 91.5t58 135.5t20.5 165.5q0 87 -19 150
t-51.5 103.5t-75.5 60t-90 19.5q-65 0 -117.5 -33.5t-90 -91.5t-58 -135.5t-20.5 -165.5q0 -87 19.5 -150t52 -103.5t75 -60t89.5 -19.5z" />
    <glyph glyph-name="O" unicode="&#xd5;" horiz-adv-x="905" 
d="M452 -14q-83 0 -153 26t-122 75t-81 120t-29 161q0 97 33.5 177.5t92 138.5t138 89.5t171.5 31.5q82 0 152.5 -26t122.5 -75t81 -120t29 -161q0 -98 -33.5 -178t-92 -138t-138 -89.5t-171.5 -31.5zM452 16q64 0 117 33.5t90.5 91.5t58 135.5t20.5 165.5q0 87 -19 150
t-51.5 103.5t-75.5 60t-90 19.5q-65 0 -117.5 -33.5t-90 -91.5t-58 -135.5t-20.5 -165.5q0 -87 19.5 -150t52 -103.5t75 -60t89.5 -19.5z" />
    <glyph glyph-name="O" unicode="&#xd4;" horiz-adv-x="905" 
d="M452 -14q-83 0 -153 26t-122 75t-81 120t-29 161q0 97 33.5 177.5t92 138.5t138 89.5t171.5 31.5q82 0 152.5 -26t122.5 -75t81 -120t29 -161q0 -98 -33.5 -178t-92 -138t-138 -89.5t-171.5 -31.5zM452 16q64 0 117 33.5t90.5 91.5t58 135.5t20.5 165.5q0 87 -19 150
t-51.5 103.5t-75.5 60t-90 19.5q-65 0 -117.5 -33.5t-90 -91.5t-58 -135.5t-20.5 -165.5q0 -87 19.5 -150t52 -103.5t75 -60t89.5 -19.5z" />
    <glyph glyph-name="O" unicode="&#xd3;" horiz-adv-x="905" 
d="M452 -14q-83 0 -153 26t-122 75t-81 120t-29 161q0 97 33.5 177.5t92 138.5t138 89.5t171.5 31.5q82 0 152.5 -26t122.5 -75t81 -120t29 -161q0 -98 -33.5 -178t-92 -138t-138 -89.5t-171.5 -31.5zM452 16q64 0 117 33.5t90.5 91.5t58 135.5t20.5 165.5q0 87 -19 150
t-51.5 103.5t-75.5 60t-90 19.5q-65 0 -117.5 -33.5t-90 -91.5t-58 -135.5t-20.5 -165.5q0 -87 19.5 -150t52 -103.5t75 -60t89.5 -19.5z" />
    <glyph glyph-name="O" unicode="&#xd2;" horiz-adv-x="905" 
d="M452 -14q-83 0 -153 26t-122 75t-81 120t-29 161q0 97 33.5 177.5t92 138.5t138 89.5t171.5 31.5q82 0 152.5 -26t122.5 -75t81 -120t29 -161q0 -98 -33.5 -178t-92 -138t-138 -89.5t-171.5 -31.5zM452 16q64 0 117 33.5t90.5 91.5t58 135.5t20.5 165.5q0 87 -19 150
t-51.5 103.5t-75.5 60t-90 19.5q-65 0 -117.5 -33.5t-90 -91.5t-58 -135.5t-20.5 -165.5q0 -87 19.5 -150t52 -103.5t75 -60t89.5 -19.5z" />
    <glyph glyph-name="P" unicode="P" horiz-adv-x="679" 
d="M289 374q31 -6 62 -6q46 0 84.5 14t67 41t44.5 67t16 93q0 93 -48 133.5t-141 40.5q-5 0 -12.5 -0.5t-12.5 -0.5zM383 787q70 0 130 -11.5t103.5 -36t68 -64t24.5 -95.5q0 -60 -25.5 -105.5t-67 -75.5t-94.5 -45.5t-109 -15.5q-67 0 -127 20l-43 -276q-5 -32 10.5 -46
t66.5 -14h20l-3 -22h-341l3 22h14q46 0 64 13t23 43l100 631q4 30 -10 43t-58 13h-17l3 22h265z" />
    <glyph glyph-name="P" unicode="&#xde;" horiz-adv-x="679" 
d="M289 374q31 -6 62 -6q46 0 84.5 14t67 41t44.5 67t16 93q0 93 -48 133.5t-141 40.5q-5 0 -12.5 -0.5t-12.5 -0.5zM383 787q70 0 130 -11.5t103.5 -36t68 -64t24.5 -95.5q0 -60 -25.5 -105.5t-67 -75.5t-94.5 -45.5t-109 -15.5q-67 0 -127 20l-43 -276q-5 -32 10.5 -46
t66.5 -14h20l-3 -22h-341l3 22h14q46 0 64 13t23 43l100 631q4 30 -10 43t-58 13h-17l3 22h265z" />
    <glyph glyph-name="Q" unicode="Q" horiz-adv-x="905" 
d="M784 -182l-284 171q-24 -3 -48 -3q-83 0 -153 26t-122 75t-81 120t-29 161q0 97 33.5 177.5t92 138.5t138 89.5t171.5 31.5q82 0 152.5 -26t122.5 -75t81 -120t29 -161q0 -131 -58 -229.5t-155 -152.5l115 -218zM452 16q64 0 117 33.5t90.5 91.5t58 135.5t20.5 165.5
q0 87 -19 150t-51.5 103.5t-75.5 60t-90 19.5q-65 0 -117.5 -33.5t-90 -91.5t-58 -135.5t-20.5 -165.5q0 -87 19.5 -150t52 -103.5t75 -60t89.5 -19.5z" />
    <glyph glyph-name="R" unicode="R" horiz-adv-x="780" 
d="M372 787q75 0 135 -10t102.5 -32.5t65.5 -58.5t23 -88q0 -47 -20.5 -83t-57 -62.5t-87.5 -42.5t-111 -23q77 -6 130.5 -47.5t70.5 -125.5q11 -56 21.5 -92.5t27 -59t43 -33t69.5 -12.5v-18q-32 -8 -59.5 -10.5t-49.5 -2.5q-52 0 -86.5 15t-56 42.5t-33.5 67t-19 87.5
q-8 51 -23 84.5t-38.5 53t-54 27.5t-67.5 8h-10l-46 -290q-5 -32 10 -45.5t63 -13.5h15l-3 -22h-330l3 22h14q46 0 64 13t23 43l100 631q4 30 -10 43t-58 13h-17l3 22h254zM293 402h15q49 0 93 10.5t77.5 34t53.5 61.5t20 93q0 45 -12.5 75t-36.5 48t-58.5 25.5t-79.5 7.5
h-9q-5 0 -8 -1z" />
    <glyph glyph-name="R" unicode="&#x158;" horiz-adv-x="780" 
d="M372 787q75 0 135 -10t102.5 -32.5t65.5 -58.5t23 -88q0 -47 -20.5 -83t-57 -62.5t-87.5 -42.5t-111 -23q77 -6 130.5 -47.5t70.5 -125.5q11 -56 21.5 -92.5t27 -59t43 -33t69.5 -12.5v-18q-32 -8 -59.5 -10.5t-49.5 -2.5q-52 0 -86.5 15t-56 42.5t-33.5 67t-19 87.5
q-8 51 -23 84.5t-38.5 53t-54 27.5t-67.5 8h-10l-46 -290q-5 -32 10 -45.5t63 -13.5h15l-3 -22h-330l3 22h14q46 0 64 13t23 43l100 631q4 30 -10 43t-58 13h-17l3 22h254zM293 402h15q49 0 93 10.5t77.5 34t53.5 61.5t20 93q0 45 -12.5 75t-36.5 48t-58.5 25.5t-79.5 7.5
h-9q-5 0 -8 -1z" />
    <glyph glyph-name="R" unicode="&#x156;" horiz-adv-x="780" 
d="M372 787q75 0 135 -10t102.5 -32.5t65.5 -58.5t23 -88q0 -47 -20.5 -83t-57 -62.5t-87.5 -42.5t-111 -23q77 -6 130.5 -47.5t70.5 -125.5q11 -56 21.5 -92.5t27 -59t43 -33t69.5 -12.5v-18q-32 -8 -59.5 -10.5t-49.5 -2.5q-52 0 -86.5 15t-56 42.5t-33.5 67t-19 87.5
q-8 51 -23 84.5t-38.5 53t-54 27.5t-67.5 8h-10l-46 -290q-5 -32 10 -45.5t63 -13.5h15l-3 -22h-330l3 22h14q46 0 64 13t23 43l100 631q4 30 -10 43t-58 13h-17l3 22h254zM293 402h15q49 0 93 10.5t77.5 34t53.5 61.5t20 93q0 45 -12.5 75t-36.5 48t-58.5 25.5t-79.5 7.5
h-9q-5 0 -8 -1z" />
    <glyph glyph-name="R" unicode="&#x154;" horiz-adv-x="780" 
d="M372 787q75 0 135 -10t102.5 -32.5t65.5 -58.5t23 -88q0 -47 -20.5 -83t-57 -62.5t-87.5 -42.5t-111 -23q77 -6 130.5 -47.5t70.5 -125.5q11 -56 21.5 -92.5t27 -59t43 -33t69.5 -12.5v-18q-32 -8 -59.5 -10.5t-49.5 -2.5q-52 0 -86.5 15t-56 42.5t-33.5 67t-19 87.5
q-8 51 -23 84.5t-38.5 53t-54 27.5t-67.5 8h-10l-46 -290q-5 -32 10 -45.5t63 -13.5h15l-3 -22h-330l3 22h14q46 0 64 13t23 43l100 631q4 30 -10 43t-58 13h-17l3 22h254zM293 402h15q49 0 93 10.5t77.5 34t53.5 61.5t20 93q0 45 -12.5 75t-36.5 48t-58.5 25.5t-79.5 7.5
h-9q-5 0 -8 -1z" />
    <glyph glyph-name="S" unicode="S" horiz-adv-x="618" 
d="M267 19q36 0 66.5 9t53 27.5t35.5 45.5t13 63q0 53 -27.5 91t-76.5 70l-91 58q-68 43 -98 90t-30 108q0 54 21.5 95.5t59.5 70t90 43t112 14.5q57 0 112 -16.5t96 -45.5l-25 -165h-15q-7 93 -52 145t-120 52q-33 0 -61 -10t-47.5 -27.5t-30.5 -42.5t-11 -55q0 -49 22 -82
t65 -60l67 -44q28 -18 60 -39.5t59.5 -49t45.5 -62t18 -79.5q0 -56 -23.5 -99.5t-64.5 -74.5t-95.5 -47t-116.5 -16q-79 0 -138 17.5t-111 46.5l30 185h15q4 -59 22 -100t44.5 -67t59 -37.5t67.5 -11.5z" />
    <glyph glyph-name="S" unicode="&#x218;" horiz-adv-x="618" 
d="M267 19q36 0 66.5 9t53 27.5t35.5 45.5t13 63q0 53 -27.5 91t-76.5 70l-91 58q-68 43 -98 90t-30 108q0 54 21.5 95.5t59.5 70t90 43t112 14.5q57 0 112 -16.5t96 -45.5l-25 -165h-15q-7 93 -52 145t-120 52q-33 0 -61 -10t-47.5 -27.5t-30.5 -42.5t-11 -55q0 -49 22 -82
t65 -60l67 -44q28 -18 60 -39.5t59.5 -49t45.5 -62t18 -79.5q0 -56 -23.5 -99.5t-64.5 -74.5t-95.5 -47t-116.5 -16q-79 0 -138 17.5t-111 46.5l30 185h15q4 -59 22 -100t44.5 -67t59 -37.5t67.5 -11.5z" />
    <glyph glyph-name="S" unicode="&#x160;" horiz-adv-x="618" 
d="M267 19q36 0 66.5 9t53 27.5t35.5 45.5t13 63q0 53 -27.5 91t-76.5 70l-91 58q-68 43 -98 90t-30 108q0 54 21.5 95.5t59.5 70t90 43t112 14.5q57 0 112 -16.5t96 -45.5l-25 -165h-15q-7 93 -52 145t-120 52q-33 0 -61 -10t-47.5 -27.5t-30.5 -42.5t-11 -55q0 -49 22 -82
t65 -60l67 -44q28 -18 60 -39.5t59.5 -49t45.5 -62t18 -79.5q0 -56 -23.5 -99.5t-64.5 -74.5t-95.5 -47t-116.5 -16q-79 0 -138 17.5t-111 46.5l30 185h15q4 -59 22 -100t44.5 -67t59 -37.5t67.5 -11.5z" />
    <glyph glyph-name="S" unicode="&#x15e;" horiz-adv-x="618" 
d="M267 19q36 0 66.5 9t53 27.5t35.5 45.5t13 63q0 53 -27.5 91t-76.5 70l-91 58q-68 43 -98 90t-30 108q0 54 21.5 95.5t59.5 70t90 43t112 14.5q57 0 112 -16.5t96 -45.5l-25 -165h-15q-7 93 -52 145t-120 52q-33 0 -61 -10t-47.5 -27.5t-30.5 -42.5t-11 -55q0 -49 22 -82
t65 -60l67 -44q28 -18 60 -39.5t59.5 -49t45.5 -62t18 -79.5q0 -56 -23.5 -99.5t-64.5 -74.5t-95.5 -47t-116.5 -16q-79 0 -138 17.5t-111 46.5l30 185h15q4 -59 22 -100t44.5 -67t59 -37.5t67.5 -11.5z" />
    <glyph glyph-name="S" unicode="&#x15c;" horiz-adv-x="618" 
d="M267 19q36 0 66.5 9t53 27.5t35.5 45.5t13 63q0 53 -27.5 91t-76.5 70l-91 58q-68 43 -98 90t-30 108q0 54 21.5 95.5t59.5 70t90 43t112 14.5q57 0 112 -16.5t96 -45.5l-25 -165h-15q-7 93 -52 145t-120 52q-33 0 -61 -10t-47.5 -27.5t-30.5 -42.5t-11 -55q0 -49 22 -82
t65 -60l67 -44q28 -18 60 -39.5t59.5 -49t45.5 -62t18 -79.5q0 -56 -23.5 -99.5t-64.5 -74.5t-95.5 -47t-116.5 -16q-79 0 -138 17.5t-111 46.5l30 185h15q4 -59 22 -100t44.5 -67t59 -37.5t67.5 -11.5z" />
    <glyph glyph-name="S" unicode="&#x15a;" horiz-adv-x="618" 
d="M267 19q36 0 66.5 9t53 27.5t35.5 45.5t13 63q0 53 -27.5 91t-76.5 70l-91 58q-68 43 -98 90t-30 108q0 54 21.5 95.5t59.5 70t90 43t112 14.5q57 0 112 -16.5t96 -45.5l-25 -165h-15q-7 93 -52 145t-120 52q-33 0 -61 -10t-47.5 -27.5t-30.5 -42.5t-11 -55q0 -49 22 -82
t65 -60l67 -44q28 -18 60 -39.5t59.5 -49t45.5 -62t18 -79.5q0 -56 -23.5 -99.5t-64.5 -74.5t-95.5 -47t-116.5 -16q-79 0 -138 17.5t-111 46.5l30 185h15q4 -59 22 -100t44.5 -67t59 -37.5t67.5 -11.5z" />
    <glyph glyph-name="T" unicode="T" horiz-adv-x="752" 
d="M421 84q-3 -19 -1 -31t11 -19t25.5 -9.5t43.5 -2.5h19l-4 -22h-355l3 22h19q54 0 73.5 14.5t24.5 46.5l105 668h-65q-50 0 -87 -13t-64 -38t-46 -60t-34 -78h-16l33 225h710l-34 -225h-15q-3 47 -13 82.5t-31 59t-55 35.5t-85 12h-57z" />
    <glyph glyph-name="T" unicode="&#x21a;" horiz-adv-x="752" 
d="M421 84q-3 -19 -1 -31t11 -19t25.5 -9.5t43.5 -2.5h19l-4 -22h-355l3 22h19q54 0 73.5 14.5t24.5 46.5l105 668h-65q-50 0 -87 -13t-64 -38t-46 -60t-34 -78h-16l33 225h710l-34 -225h-15q-3 47 -13 82.5t-31 59t-55 35.5t-85 12h-57z" />
    <glyph glyph-name="T" unicode="&#x166;" horiz-adv-x="752" 
d="M421 84q-3 -19 -1 -31t11 -19t25.5 -9.5t43.5 -2.5h19l-4 -22h-355l3 22h19q54 0 73.5 14.5t24.5 46.5l105 668h-65q-50 0 -87 -13t-64 -38t-46 -60t-34 -78h-16l33 225h710l-34 -225h-15q-3 47 -13 82.5t-31 59t-55 35.5t-85 12h-57z" />
    <glyph glyph-name="T" unicode="&#x164;" horiz-adv-x="752" 
d="M421 84q-3 -19 -1 -31t11 -19t25.5 -9.5t43.5 -2.5h19l-4 -22h-355l3 22h19q54 0 73.5 14.5t24.5 46.5l105 668h-65q-50 0 -87 -13t-64 -38t-46 -60t-34 -78h-16l33 225h710l-34 -225h-15q-3 47 -13 82.5t-31 59t-55 35.5t-85 12h-57z" />
    <glyph glyph-name="T" unicode="&#x162;" horiz-adv-x="752" 
d="M421 84q-3 -19 -1 -31t11 -19t25.5 -9.5t43.5 -2.5h19l-4 -22h-355l3 22h19q54 0 73.5 14.5t24.5 46.5l105 668h-65q-50 0 -87 -13t-64 -38t-46 -60t-34 -78h-16l33 225h710l-34 -225h-15q-3 47 -13 82.5t-31 59t-55 35.5t-85 12h-57z" />
    <glyph glyph-name="U" unicode="U" horiz-adv-x="843" 
d="M739 317q-12 -77 -39 -138t-69.5 -104t-102 -66t-137.5 -23q-151 0 -222 85t-46 242l62 398q5 30 -9 43t-60 13h-15l3 20h328l-3 -20h-15q-46 0 -64 -12.5t-23 -43.5l-65 -406q-20 -125 27 -194t150 -69q56 0 100 19.5t76 56t52.5 87.5t30.5 114l51 326q10 61 -6.5 91.5
t-67.5 30.5h-16l3 20h262l-3 -20h-13q-51 0 -79 -30.5t-38 -91.5z" />
    <glyph glyph-name="U" unicode="&#x1ee4;" horiz-adv-x="843" 
d="M739 317q-12 -77 -39 -138t-69.5 -104t-102 -66t-137.5 -23q-151 0 -222 85t-46 242l62 398q5 30 -9 43t-60 13h-15l3 20h328l-3 -20h-15q-46 0 -64 -12.5t-23 -43.5l-65 -406q-20 -125 27 -194t150 -69q56 0 100 19.5t76 56t52.5 87.5t30.5 114l51 326q10 61 -6.5 91.5
t-67.5 30.5h-16l3 20h262l-3 -20h-13q-51 0 -79 -30.5t-38 -91.5z" />
    <glyph glyph-name="U" unicode="&#x172;" horiz-adv-x="843" 
d="M739 317q-12 -77 -39 -138t-69.5 -104t-102 -66t-137.5 -23q-151 0 -222 85t-46 242l62 398q5 30 -9 43t-60 13h-15l3 20h328l-3 -20h-15q-46 0 -64 -12.5t-23 -43.5l-65 -406q-20 -125 27 -194t150 -69q56 0 100 19.5t76 56t52.5 87.5t30.5 114l51 326q10 61 -6.5 91.5
t-67.5 30.5h-16l3 20h262l-3 -20h-13q-51 0 -79 -30.5t-38 -91.5z" />
    <glyph glyph-name="U" unicode="&#x170;" horiz-adv-x="843" 
d="M739 317q-12 -77 -39 -138t-69.5 -104t-102 -66t-137.5 -23q-151 0 -222 85t-46 242l62 398q5 30 -9 43t-60 13h-15l3 20h328l-3 -20h-15q-46 0 -64 -12.5t-23 -43.5l-65 -406q-20 -125 27 -194t150 -69q56 0 100 19.5t76 56t52.5 87.5t30.5 114l51 326q10 61 -6.5 91.5
t-67.5 30.5h-16l3 20h262l-3 -20h-13q-51 0 -79 -30.5t-38 -91.5z" />
    <glyph glyph-name="U" unicode="&#x16e;" horiz-adv-x="843" 
d="M739 317q-12 -77 -39 -138t-69.5 -104t-102 -66t-137.5 -23q-151 0 -222 85t-46 242l62 398q5 30 -9 43t-60 13h-15l3 20h328l-3 -20h-15q-46 0 -64 -12.5t-23 -43.5l-65 -406q-20 -125 27 -194t150 -69q56 0 100 19.5t76 56t52.5 87.5t30.5 114l51 326q10 61 -6.5 91.5
t-67.5 30.5h-16l3 20h262l-3 -20h-13q-51 0 -79 -30.5t-38 -91.5z" />
    <glyph glyph-name="U" unicode="&#x16c;" horiz-adv-x="843" 
d="M739 317q-12 -77 -39 -138t-69.5 -104t-102 -66t-137.5 -23q-151 0 -222 85t-46 242l62 398q5 30 -9 43t-60 13h-15l3 20h328l-3 -20h-15q-46 0 -64 -12.5t-23 -43.5l-65 -406q-20 -125 27 -194t150 -69q56 0 100 19.5t76 56t52.5 87.5t30.5 114l51 326q10 61 -6.5 91.5
t-67.5 30.5h-16l3 20h262l-3 -20h-13q-51 0 -79 -30.5t-38 -91.5z" />
    <glyph glyph-name="U" unicode="&#x16a;" horiz-adv-x="843" 
d="M739 317q-12 -77 -39 -138t-69.5 -104t-102 -66t-137.5 -23q-151 0 -222 85t-46 242l62 398q5 30 -9 43t-60 13h-15l3 20h328l-3 -20h-15q-46 0 -64 -12.5t-23 -43.5l-65 -406q-20 -125 27 -194t150 -69q56 0 100 19.5t76 56t52.5 87.5t30.5 114l51 326q10 61 -6.5 91.5
t-67.5 30.5h-16l3 20h262l-3 -20h-13q-51 0 -79 -30.5t-38 -91.5z" />
    <glyph glyph-name="U" unicode="&#x168;" horiz-adv-x="843" 
d="M739 317q-12 -77 -39 -138t-69.5 -104t-102 -66t-137.5 -23q-151 0 -222 85t-46 242l62 398q5 30 -9 43t-60 13h-15l3 20h328l-3 -20h-15q-46 0 -64 -12.5t-23 -43.5l-65 -406q-20 -125 27 -194t150 -69q56 0 100 19.5t76 56t52.5 87.5t30.5 114l51 326q10 61 -6.5 91.5
t-67.5 30.5h-16l3 20h262l-3 -20h-13q-51 0 -79 -30.5t-38 -91.5z" />
    <glyph glyph-name="U" unicode="&#xdc;" horiz-adv-x="843" 
d="M739 317q-12 -77 -39 -138t-69.5 -104t-102 -66t-137.5 -23q-151 0 -222 85t-46 242l62 398q5 30 -9 43t-60 13h-15l3 20h328l-3 -20h-15q-46 0 -64 -12.5t-23 -43.5l-65 -406q-20 -125 27 -194t150 -69q56 0 100 19.5t76 56t52.5 87.5t30.5 114l51 326q10 61 -6.5 91.5
t-67.5 30.5h-16l3 20h262l-3 -20h-13q-51 0 -79 -30.5t-38 -91.5z" />
    <glyph glyph-name="U" unicode="&#xdb;" horiz-adv-x="843" 
d="M739 317q-12 -77 -39 -138t-69.5 -104t-102 -66t-137.5 -23q-151 0 -222 85t-46 242l62 398q5 30 -9 43t-60 13h-15l3 20h328l-3 -20h-15q-46 0 -64 -12.5t-23 -43.5l-65 -406q-20 -125 27 -194t150 -69q56 0 100 19.5t76 56t52.5 87.5t30.5 114l51 326q10 61 -6.5 91.5
t-67.5 30.5h-16l3 20h262l-3 -20h-13q-51 0 -79 -30.5t-38 -91.5z" />
    <glyph glyph-name="U" unicode="&#xda;" horiz-adv-x="843" 
d="M739 317q-12 -77 -39 -138t-69.5 -104t-102 -66t-137.5 -23q-151 0 -222 85t-46 242l62 398q5 30 -9 43t-60 13h-15l3 20h328l-3 -20h-15q-46 0 -64 -12.5t-23 -43.5l-65 -406q-20 -125 27 -194t150 -69q56 0 100 19.5t76 56t52.5 87.5t30.5 114l51 326q10 61 -6.5 91.5
t-67.5 30.5h-16l3 20h262l-3 -20h-13q-51 0 -79 -30.5t-38 -91.5z" />
    <glyph glyph-name="U" unicode="&#xd9;" horiz-adv-x="843" 
d="M739 317q-12 -77 -39 -138t-69.5 -104t-102 -66t-137.5 -23q-151 0 -222 85t-46 242l62 398q5 30 -9 43t-60 13h-15l3 20h328l-3 -20h-15q-46 0 -64 -12.5t-23 -43.5l-65 -406q-20 -125 27 -194t150 -69q56 0 100 19.5t76 56t52.5 87.5t30.5 114l51 326q10 61 -6.5 91.5
t-67.5 30.5h-16l3 20h262l-3 -20h-13q-51 0 -79 -30.5t-38 -91.5z" />
    <glyph glyph-name="V" unicode="V" horiz-adv-x="771" 
d="M422 181l242 443q25 46 32.5 73.5t1.5 42.5t-23 20t-40 5h-9l3 22h242l-3 -22h-6q-21 0 -37.5 -4t-33.5 -18.5t-36.5 -43t-46.5 -76.5l-360 -655h-13l-174 732q-9 35 -29 50t-56 15h-12l3 22h325l-3 -22h-12q-17 0 -31.5 -2.5t-24.5 -9t-14 -18t0 -29.5z" />
    <glyph glyph-name="W" unicode="W" horiz-adv-x="1067" 
d="M663 698l109 -490l188 416q21 46 27.5 74t1 43t-21.5 19.5t-39 4.5h-9l3 22h242l-3 -22h-5q-21 0 -39 -3.5t-36 -17.5t-37 -42.5t-42 -78.5l-298 -655h-14l-116 505l-263 -505h-14l-138 732q-7 35 -28 50t-57 15h-11l3 22h322l-3 -22h-11q-17 0 -31.5 -2.5t-24 -9
t-13.5 -18t-1 -29.5l85 -507l259 499h15z" />
    <glyph glyph-name="W" unicode="&#x1e84;" horiz-adv-x="1067" 
d="M663 698l109 -490l188 416q21 46 27.5 74t1 43t-21.5 19.5t-39 4.5h-9l3 22h242l-3 -22h-5q-21 0 -39 -3.5t-36 -17.5t-37 -42.5t-42 -78.5l-298 -655h-14l-116 505l-263 -505h-14l-138 732q-7 35 -28 50t-57 15h-11l3 22h322l-3 -22h-11q-17 0 -31.5 -2.5t-24 -9
t-13.5 -18t-1 -29.5l85 -507l259 499h15z" />
    <glyph glyph-name="W" unicode="&#x1e82;" horiz-adv-x="1067" 
d="M663 698l109 -490l188 416q21 46 27.5 74t1 43t-21.5 19.5t-39 4.5h-9l3 22h242l-3 -22h-5q-21 0 -39 -3.5t-36 -17.5t-37 -42.5t-42 -78.5l-298 -655h-14l-116 505l-263 -505h-14l-138 732q-7 35 -28 50t-57 15h-11l3 22h322l-3 -22h-11q-17 0 -31.5 -2.5t-24 -9
t-13.5 -18t-1 -29.5l85 -507l259 499h15z" />
    <glyph glyph-name="W" unicode="&#x1e80;" horiz-adv-x="1067" 
d="M663 698l109 -490l188 416q21 46 27.5 74t1 43t-21.5 19.5t-39 4.5h-9l3 22h242l-3 -22h-5q-21 0 -39 -3.5t-36 -17.5t-37 -42.5t-42 -78.5l-298 -655h-14l-116 505l-263 -505h-14l-138 732q-7 35 -28 50t-57 15h-11l3 22h322l-3 -22h-11q-17 0 -31.5 -2.5t-24 -9
t-13.5 -18t-1 -29.5l85 -507l259 499h15z" />
    <glyph glyph-name="W" unicode="&#x174;" horiz-adv-x="1067" 
d="M663 698l109 -490l188 416q21 46 27.5 74t1 43t-21.5 19.5t-39 4.5h-9l3 22h242l-3 -22h-5q-21 0 -39 -3.5t-36 -17.5t-37 -42.5t-42 -78.5l-298 -655h-14l-116 505l-263 -505h-14l-138 732q-7 35 -28 50t-57 15h-11l3 22h322l-3 -22h-11q-17 0 -31.5 -2.5t-24 -9
t-13.5 -18t-1 -29.5l85 -507l259 499h15z" />
    <glyph glyph-name="X" unicode="X" horiz-adv-x="773" 
d="M463 488l136 158q31 37 42 60t6.5 36.5t-21.5 18.5t-42 5l3 21h253l-3 -21q-26 0 -46 -4.5t-40.5 -18t-45.5 -38.5t-61 -67l-163 -187l183 -375q6 -13 13.5 -23t18 -17t25.5 -11t37 -4l-3 -21h-328l3 21h18q47 0 58.5 15t-3.5 47l-130 267l-183 -211q-32 -37 -43 -60
t-6.5 -36t22.5 -17.5t44 -4.5l-3 -21h-262l3 21q23 0 43 4t42.5 17.5t49.5 38t63 66.5l212 241l-157 323q-6 12 -12 22.5t-15 17.5t-23.5 11t-38.5 4l3 21h315l-3 -21h-9q-43 0 -58.5 -13t1.5 -48z" />
    <glyph glyph-name="Y" unicode="Y" horiz-adv-x="714" 
d="M383 765q-37 0 -55 -13t-8 -42l105 -306l162 232q27 40 38 65t7.5 39t-19.5 19.5t-42 5.5h-13l3 22h246l-3 -22q-25 0 -43.5 -4t-37.5 -18.5t-41.5 -41t-53.5 -71.5l-191 -273l-44 -273q-3 -19 -1.5 -31t9 -19t23 -9.5t42.5 -2.5h19l-4 -22h-343l4 22h19q27 0 43.5 3.5
t26 11t14 19t7.5 27.5l43 274l-125 352q-10 27 -24.5 41.5t-50.5 14.5h-13l3 22h317l-3 -22h-16z" />
    <glyph glyph-name="Y" unicode="&#x1ef2;" horiz-adv-x="714" 
d="M383 765q-37 0 -55 -13t-8 -42l105 -306l162 232q27 40 38 65t7.5 39t-19.5 19.5t-42 5.5h-13l3 22h246l-3 -22q-25 0 -43.5 -4t-37.5 -18.5t-41.5 -41t-53.5 -71.5l-191 -273l-44 -273q-3 -19 -1.5 -31t9 -19t23 -9.5t42.5 -2.5h19l-4 -22h-343l4 22h19q27 0 43.5 3.5
t26 11t14 19t7.5 27.5l43 274l-125 352q-10 27 -24.5 41.5t-50.5 14.5h-13l3 22h317l-3 -22h-16z" />
    <glyph glyph-name="Y" unicode="&#x232;" horiz-adv-x="714" 
d="M383 765q-37 0 -55 -13t-8 -42l105 -306l162 232q27 40 38 65t7.5 39t-19.5 19.5t-42 5.5h-13l3 22h246l-3 -22q-25 0 -43.5 -4t-37.5 -18.5t-41.5 -41t-53.5 -71.5l-191 -273l-44 -273q-3 -19 -1.5 -31t9 -19t23 -9.5t42.5 -2.5h19l-4 -22h-343l4 22h19q27 0 43.5 3.5
t26 11t14 19t7.5 27.5l43 274l-125 352q-10 27 -24.5 41.5t-50.5 14.5h-13l3 22h317l-3 -22h-16z" />
    <glyph glyph-name="Y" unicode="&#x178;" horiz-adv-x="714" 
d="M383 765q-37 0 -55 -13t-8 -42l105 -306l162 232q27 40 38 65t7.5 39t-19.5 19.5t-42 5.5h-13l3 22h246l-3 -22q-25 0 -43.5 -4t-37.5 -18.5t-41.5 -41t-53.5 -71.5l-191 -273l-44 -273q-3 -19 -1.5 -31t9 -19t23 -9.5t42.5 -2.5h19l-4 -22h-343l4 22h19q27 0 43.5 3.5
t26 11t14 19t7.5 27.5l43 274l-125 352q-10 27 -24.5 41.5t-50.5 14.5h-13l3 22h317l-3 -22h-16z" />
    <glyph glyph-name="Y" unicode="&#x176;" horiz-adv-x="714" 
d="M383 765q-37 0 -55 -13t-8 -42l105 -306l162 232q27 40 38 65t7.5 39t-19.5 19.5t-42 5.5h-13l3 22h246l-3 -22q-25 0 -43.5 -4t-37.5 -18.5t-41.5 -41t-53.5 -71.5l-191 -273l-44 -273q-3 -19 -1.5 -31t9 -19t23 -9.5t42.5 -2.5h19l-4 -22h-343l4 22h19q27 0 43.5 3.5
t26 11t14 19t7.5 27.5l43 274l-125 352q-10 27 -24.5 41.5t-50.5 14.5h-13l3 22h317l-3 -22h-16z" />
    <glyph glyph-name="Y" unicode="&#xdd;" horiz-adv-x="714" 
d="M383 765q-37 0 -55 -13t-8 -42l105 -306l162 232q27 40 38 65t7.5 39t-19.5 19.5t-42 5.5h-13l3 22h246l-3 -22q-25 0 -43.5 -4t-37.5 -18.5t-41.5 -41t-53.5 -71.5l-191 -273l-44 -273q-3 -19 -1.5 -31t9 -19t23 -9.5t42.5 -2.5h19l-4 -22h-343l4 22h19q27 0 43.5 3.5
t26 11t14 19t7.5 27.5l43 274l-125 352q-10 27 -24.5 41.5t-50.5 14.5h-13l3 22h317l-3 -22h-16z" />
    <glyph glyph-name="Z" unicode="Z" horiz-adv-x="674" 
d="M546 751h-176q-56 0 -96 -8.5t-67.5 -27.5t-45 -49t-29.5 -73h-15l29 194h579l-576 -751h223q60 0 101 7.5t70 26t48 50t35 78.5h12l-29 -198h-641z" />
    <glyph glyph-name="Z" unicode="&#x17d;" horiz-adv-x="674" 
d="M546 751h-176q-56 0 -96 -8.5t-67.5 -27.5t-45 -49t-29.5 -73h-15l29 194h579l-576 -751h223q60 0 101 7.5t70 26t48 50t35 78.5h12l-29 -198h-641z" />
    <glyph glyph-name="Z" unicode="&#x17b;" horiz-adv-x="674" 
d="M546 751h-176q-56 0 -96 -8.5t-67.5 -27.5t-45 -49t-29.5 -73h-15l29 194h579l-576 -751h223q60 0 101 7.5t70 26t48 50t35 78.5h12l-29 -198h-641z" />
    <glyph glyph-name="Z" unicode="&#x179;" horiz-adv-x="674" 
d="M546 751h-176q-56 0 -96 -8.5t-67.5 -27.5t-45 -49t-29.5 -73h-15l29 194h579l-576 -751h223q60 0 101 7.5t70 26t48 50t35 78.5h12l-29 -198h-641z" />
    <glyph glyph-name="a" unicode="a" horiz-adv-x="570" 
d="M451 113q-5 -29 -3 -50t17 -21t36 24.5t42 65.5l16 -8q-10 -28 -24 -53t-32 -44t-41 -30t-50 -11q-56 0 -76 33t-12 87q-36 -68 -78 -94t-88 -26q-41 0 -67 15t-41.5 38t-21.5 51.5t-6 54.5q0 76 27.5 142t71 115t98.5 76.5t111 27.5q65 0 112 -44l41 33h38zM224 46
q8 0 18.5 3.5t23 13t28.5 28t34 48.5l51 279q-3 35 -18 49.5t-38 14.5q-36 0 -66 -28.5t-51.5 -73.5t-33 -101t-11.5 -111q0 -54 14.5 -88t48.5 -34z" />
    <glyph glyph-name="a" unicode="&#x105;" horiz-adv-x="570" 
d="M451 113q-5 -29 -3 -50t17 -21t36 24.5t42 65.5l16 -8q-10 -28 -24 -53t-32 -44t-41 -30t-50 -11q-56 0 -76 33t-12 87q-36 -68 -78 -94t-88 -26q-41 0 -67 15t-41.5 38t-21.5 51.5t-6 54.5q0 76 27.5 142t71 115t98.5 76.5t111 27.5q65 0 112 -44l41 33h38zM224 46
q8 0 18.5 3.5t23 13t28.5 28t34 48.5l51 279q-3 35 -18 49.5t-38 14.5q-36 0 -66 -28.5t-51.5 -73.5t-33 -101t-11.5 -111q0 -54 14.5 -88t48.5 -34z" />
    <glyph glyph-name="a" unicode="&#x103;" horiz-adv-x="570" 
d="M451 113q-5 -29 -3 -50t17 -21t36 24.5t42 65.5l16 -8q-10 -28 -24 -53t-32 -44t-41 -30t-50 -11q-56 0 -76 33t-12 87q-36 -68 -78 -94t-88 -26q-41 0 -67 15t-41.5 38t-21.5 51.5t-6 54.5q0 76 27.5 142t71 115t98.5 76.5t111 27.5q65 0 112 -44l41 33h38zM224 46
q8 0 18.5 3.5t23 13t28.5 28t34 48.5l51 279q-3 35 -18 49.5t-38 14.5q-36 0 -66 -28.5t-51.5 -73.5t-33 -101t-11.5 -111q0 -54 14.5 -88t48.5 -34z" />
    <glyph glyph-name="a" unicode="&#x101;" horiz-adv-x="570" 
d="M451 113q-5 -29 -3 -50t17 -21t36 24.5t42 65.5l16 -8q-10 -28 -24 -53t-32 -44t-41 -30t-50 -11q-56 0 -76 33t-12 87q-36 -68 -78 -94t-88 -26q-41 0 -67 15t-41.5 38t-21.5 51.5t-6 54.5q0 76 27.5 142t71 115t98.5 76.5t111 27.5q65 0 112 -44l41 33h38zM224 46
q8 0 18.5 3.5t23 13t28.5 28t34 48.5l51 279q-3 35 -18 49.5t-38 14.5q-36 0 -66 -28.5t-51.5 -73.5t-33 -101t-11.5 -111q0 -54 14.5 -88t48.5 -34z" />
    <glyph glyph-name="a" unicode="&#xe6;" horiz-adv-x="570" 
d="M451 113q-5 -29 -3 -50t17 -21t36 24.5t42 65.5l16 -8q-10 -28 -24 -53t-32 -44t-41 -30t-50 -11q-56 0 -76 33t-12 87q-36 -68 -78 -94t-88 -26q-41 0 -67 15t-41.5 38t-21.5 51.5t-6 54.5q0 76 27.5 142t71 115t98.5 76.5t111 27.5q65 0 112 -44l41 33h38zM224 46
q8 0 18.5 3.5t23 13t28.5 28t34 48.5l51 279q-3 35 -18 49.5t-38 14.5q-36 0 -66 -28.5t-51.5 -73.5t-33 -101t-11.5 -111q0 -54 14.5 -88t48.5 -34z" />
    <glyph glyph-name="a" unicode="&#xe5;" horiz-adv-x="570" 
d="M451 113q-5 -29 -3 -50t17 -21t36 24.5t42 65.5l16 -8q-10 -28 -24 -53t-32 -44t-41 -30t-50 -11q-56 0 -76 33t-12 87q-36 -68 -78 -94t-88 -26q-41 0 -67 15t-41.5 38t-21.5 51.5t-6 54.5q0 76 27.5 142t71 115t98.5 76.5t111 27.5q65 0 112 -44l41 33h38zM224 46
q8 0 18.5 3.5t23 13t28.5 28t34 48.5l51 279q-3 35 -18 49.5t-38 14.5q-36 0 -66 -28.5t-51.5 -73.5t-33 -101t-11.5 -111q0 -54 14.5 -88t48.5 -34z" />
    <glyph glyph-name="a" unicode="&#xe4;" horiz-adv-x="570" 
d="M451 113q-5 -29 -3 -50t17 -21t36 24.5t42 65.5l16 -8q-10 -28 -24 -53t-32 -44t-41 -30t-50 -11q-56 0 -76 33t-12 87q-36 -68 -78 -94t-88 -26q-41 0 -67 15t-41.5 38t-21.5 51.5t-6 54.5q0 76 27.5 142t71 115t98.5 76.5t111 27.5q65 0 112 -44l41 33h38zM224 46
q8 0 18.5 3.5t23 13t28.5 28t34 48.5l51 279q-3 35 -18 49.5t-38 14.5q-36 0 -66 -28.5t-51.5 -73.5t-33 -101t-11.5 -111q0 -54 14.5 -88t48.5 -34z" />
    <glyph glyph-name="a" unicode="&#xe3;" horiz-adv-x="570" 
d="M451 113q-5 -29 -3 -50t17 -21t36 24.5t42 65.5l16 -8q-10 -28 -24 -53t-32 -44t-41 -30t-50 -11q-56 0 -76 33t-12 87q-36 -68 -78 -94t-88 -26q-41 0 -67 15t-41.5 38t-21.5 51.5t-6 54.5q0 76 27.5 142t71 115t98.5 76.5t111 27.5q65 0 112 -44l41 33h38zM224 46
q8 0 18.5 3.5t23 13t28.5 28t34 48.5l51 279q-3 35 -18 49.5t-38 14.5q-36 0 -66 -28.5t-51.5 -73.5t-33 -101t-11.5 -111q0 -54 14.5 -88t48.5 -34z" />
    <glyph glyph-name="a" unicode="&#xe2;" horiz-adv-x="570" 
d="M451 113q-5 -29 -3 -50t17 -21t36 24.5t42 65.5l16 -8q-10 -28 -24 -53t-32 -44t-41 -30t-50 -11q-56 0 -76 33t-12 87q-36 -68 -78 -94t-88 -26q-41 0 -67 15t-41.5 38t-21.5 51.5t-6 54.5q0 76 27.5 142t71 115t98.5 76.5t111 27.5q65 0 112 -44l41 33h38zM224 46
q8 0 18.5 3.5t23 13t28.5 28t34 48.5l51 279q-3 35 -18 49.5t-38 14.5q-36 0 -66 -28.5t-51.5 -73.5t-33 -101t-11.5 -111q0 -54 14.5 -88t48.5 -34z" />
    <glyph glyph-name="a" unicode="&#xe1;" horiz-adv-x="570" 
d="M451 113q-5 -29 -3 -50t17 -21t36 24.5t42 65.5l16 -8q-10 -28 -24 -53t-32 -44t-41 -30t-50 -11q-56 0 -76 33t-12 87q-36 -68 -78 -94t-88 -26q-41 0 -67 15t-41.5 38t-21.5 51.5t-6 54.5q0 76 27.5 142t71 115t98.5 76.5t111 27.5q65 0 112 -44l41 33h38zM224 46
q8 0 18.5 3.5t23 13t28.5 28t34 48.5l51 279q-3 35 -18 49.5t-38 14.5q-36 0 -66 -28.5t-51.5 -73.5t-33 -101t-11.5 -111q0 -54 14.5 -88t48.5 -34z" />
    <glyph glyph-name="a" unicode="&#xe0;" horiz-adv-x="570" 
d="M451 113q-5 -29 -3 -50t17 -21t36 24.5t42 65.5l16 -8q-10 -28 -24 -53t-32 -44t-41 -30t-50 -11q-56 0 -76 33t-12 87q-36 -68 -78 -94t-88 -26q-41 0 -67 15t-41.5 38t-21.5 51.5t-6 54.5q0 76 27.5 142t71 115t98.5 76.5t111 27.5q65 0 112 -44l41 33h38zM224 46
q8 0 18.5 3.5t23 13t28.5 28t34 48.5l51 279q-3 35 -18 49.5t-38 14.5q-36 0 -66 -28.5t-51.5 -73.5t-33 -101t-11.5 -111q0 -54 14.5 -88t48.5 -34z" />
    <glyph glyph-name="b" unicode="b" horiz-adv-x="547" 
d="M227 -13q-39 0 -75 10.5t-62 35t-38 65t-2 101.5l81 508q3 14 2 25t-7.5 18.5t-20 11t-36.5 3.5h-13l3 22h212l-65 -416q19 39 41.5 65t45.5 41.5t46.5 22t46.5 6.5q38 0 65 -14t44.5 -36.5t25.5 -51t8 -56.5q0 -72 -27.5 -137.5t-71 -115t-97 -79t-106.5 -29.5zM326 446
q-28 0 -61 -27t-65 -83l-25 -164q-12 -81 9.5 -120.5t56.5 -39.5q37 0 65 33.5t47 81.5t28 99.5t9 87.5q0 65 -16 98.5t-48 33.5z" />
    <glyph glyph-name="c" unicode="c" horiz-adv-x="435" 
d="M23 158q0 64 24 126t65.5 111t97 79t118.5 30q48 0 79.5 -23t31.5 -58q0 -19 -12 -35t-39 -16q-28 0 -38.5 17t-16 37.5t-12.5 37.5t-27 17q-27 0 -51 -29t-42.5 -74t-29 -98t-10.5 -101q0 -63 17 -98.5t54 -35.5q35 0 76.5 33.5t77.5 91.5l16 -8q-24 -49 -50 -82.5
t-54 -54.5t-58.5 -30t-62.5 -9q-66 0 -110 42.5t-44 129.5z" />
    <glyph glyph-name="c" unicode="&#x10d;" horiz-adv-x="435" 
d="M23 158q0 64 24 126t65.5 111t97 79t118.5 30q48 0 79.5 -23t31.5 -58q0 -19 -12 -35t-39 -16q-28 0 -38.5 17t-16 37.5t-12.5 37.5t-27 17q-27 0 -51 -29t-42.5 -74t-29 -98t-10.5 -101q0 -63 17 -98.5t54 -35.5q35 0 76.5 33.5t77.5 91.5l16 -8q-24 -49 -50 -82.5
t-54 -54.5t-58.5 -30t-62.5 -9q-66 0 -110 42.5t-44 129.5z" />
    <glyph glyph-name="c" unicode="&#x10b;" horiz-adv-x="435" 
d="M23 158q0 64 24 126t65.5 111t97 79t118.5 30q48 0 79.5 -23t31.5 -58q0 -19 -12 -35t-39 -16q-28 0 -38.5 17t-16 37.5t-12.5 37.5t-27 17q-27 0 -51 -29t-42.5 -74t-29 -98t-10.5 -101q0 -63 17 -98.5t54 -35.5q35 0 76.5 33.5t77.5 91.5l16 -8q-24 -49 -50 -82.5
t-54 -54.5t-58.5 -30t-62.5 -9q-66 0 -110 42.5t-44 129.5z" />
    <glyph glyph-name="c" unicode="&#x109;" horiz-adv-x="435" 
d="M23 158q0 64 24 126t65.5 111t97 79t118.5 30q48 0 79.5 -23t31.5 -58q0 -19 -12 -35t-39 -16q-28 0 -38.5 17t-16 37.5t-12.5 37.5t-27 17q-27 0 -51 -29t-42.5 -74t-29 -98t-10.5 -101q0 -63 17 -98.5t54 -35.5q35 0 76.5 33.5t77.5 91.5l16 -8q-24 -49 -50 -82.5
t-54 -54.5t-58.5 -30t-62.5 -9q-66 0 -110 42.5t-44 129.5z" />
    <glyph glyph-name="c" unicode="&#x107;" horiz-adv-x="435" 
d="M23 158q0 64 24 126t65.5 111t97 79t118.5 30q48 0 79.5 -23t31.5 -58q0 -19 -12 -35t-39 -16q-28 0 -38.5 17t-16 37.5t-12.5 37.5t-27 17q-27 0 -51 -29t-42.5 -74t-29 -98t-10.5 -101q0 -63 17 -98.5t54 -35.5q35 0 76.5 33.5t77.5 91.5l16 -8q-24 -49 -50 -82.5
t-54 -54.5t-58.5 -30t-62.5 -9q-66 0 -110 42.5t-44 129.5z" />
    <glyph glyph-name="c" unicode="&#xe7;" horiz-adv-x="435" 
d="M23 158q0 64 24 126t65.5 111t97 79t118.5 30q48 0 79.5 -23t31.5 -58q0 -19 -12 -35t-39 -16q-28 0 -38.5 17t-16 37.5t-12.5 37.5t-27 17q-27 0 -51 -29t-42.5 -74t-29 -98t-10.5 -101q0 -63 17 -98.5t54 -35.5q35 0 76.5 33.5t77.5 91.5l16 -8q-24 -49 -50 -82.5
t-54 -54.5t-58.5 -30t-62.5 -9q-66 0 -110 42.5t-44 129.5z" />
    <glyph glyph-name="d" unicode="d" horiz-adv-x="582" 
d="M340 113q-20 -37 -42 -61.5t-44.5 -39t-46 -20.5t-47.5 -6q-41 0 -68 15.5t-42.5 39.5t-21.5 53t-6 56q0 74 28 138.5t71.5 112.5t97.5 76t105 28q18 0 37 -4t37 -15l36 221q3 14 2 25t-7.5 18.5t-20 11t-36.5 3.5h-13l3 22h214l-109 -674q-5 -29 -3 -50t17 -21
q16 0 36.5 24.5t41.5 65.5l17 -8q-11 -28 -25 -53t-32 -44t-40.5 -30t-50.5 -11t-46.5 8.5t-29.5 24t-14 36.5t0 45zM222 46q9 0 21.5 3t27.5 13.5t33 29t39 50.5l43 271q-5 34 -23.5 51.5t-41.5 17.5q-36 0 -66 -31.5t-51 -79t-33 -102.5t-12 -102q0 -51 15 -86t48 -35z
" />
    <glyph glyph-name="d" unicode="&#x111;" horiz-adv-x="582" 
d="M340 113q-20 -37 -42 -61.5t-44.5 -39t-46 -20.5t-47.5 -6q-41 0 -68 15.5t-42.5 39.5t-21.5 53t-6 56q0 74 28 138.5t71.5 112.5t97.5 76t105 28q18 0 37 -4t37 -15l36 221q3 14 2 25t-7.5 18.5t-20 11t-36.5 3.5h-13l3 22h214l-109 -674q-5 -29 -3 -50t17 -21
q16 0 36.5 24.5t41.5 65.5l17 -8q-11 -28 -25 -53t-32 -44t-40.5 -30t-50.5 -11t-46.5 8.5t-29.5 24t-14 36.5t0 45zM222 46q9 0 21.5 3t27.5 13.5t33 29t39 50.5l43 271q-5 34 -23.5 51.5t-41.5 17.5q-36 0 -66 -31.5t-51 -79t-33 -102.5t-12 -102q0 -51 15 -86t48 -35z
" />
    <glyph glyph-name="d" unicode="&#x10f;" horiz-adv-x="582" 
d="M340 113q-20 -37 -42 -61.5t-44.5 -39t-46 -20.5t-47.5 -6q-41 0 -68 15.5t-42.5 39.5t-21.5 53t-6 56q0 74 28 138.5t71.5 112.5t97.5 76t105 28q18 0 37 -4t37 -15l36 221q3 14 2 25t-7.5 18.5t-20 11t-36.5 3.5h-13l3 22h214l-109 -674q-5 -29 -3 -50t17 -21
q16 0 36.5 24.5t41.5 65.5l17 -8q-11 -28 -25 -53t-32 -44t-40.5 -30t-50.5 -11t-46.5 8.5t-29.5 24t-14 36.5t0 45zM222 46q9 0 21.5 3t27.5 13.5t33 29t39 50.5l43 271q-5 34 -23.5 51.5t-41.5 17.5q-36 0 -66 -31.5t-51 -79t-33 -102.5t-12 -102q0 -51 15 -86t48 -35z
" />
    <glyph glyph-name="d" unicode="&#xf0;" horiz-adv-x="582" 
d="M340 113q-20 -37 -42 -61.5t-44.5 -39t-46 -20.5t-47.5 -6q-41 0 -68 15.5t-42.5 39.5t-21.5 53t-6 56q0 74 28 138.5t71.5 112.5t97.5 76t105 28q18 0 37 -4t37 -15l36 221q3 14 2 25t-7.5 18.5t-20 11t-36.5 3.5h-13l3 22h214l-109 -674q-5 -29 -3 -50t17 -21
q16 0 36.5 24.5t41.5 65.5l17 -8q-11 -28 -25 -53t-32 -44t-40.5 -30t-50.5 -11t-46.5 8.5t-29.5 24t-14 36.5t0 45zM222 46q9 0 21.5 3t27.5 13.5t33 29t39 50.5l43 271q-5 34 -23.5 51.5t-41.5 17.5q-36 0 -66 -31.5t-51 -79t-33 -102.5t-12 -102q0 -51 15 -86t48 -35z
" />
    <glyph glyph-name="e" unicode="e" horiz-adv-x="443" 
d="M439 426q0 -36 -23 -64.5t-61.5 -52t-88 -43t-103.5 -38.5q-1 -12 -1.5 -24.5t-0.5 -24.5q0 -63 17 -98.5t54 -35.5q35 0 76.5 33.5t77.5 91.5l16 -8q-24 -49 -50 -82.5t-54 -54.5t-58.5 -30t-62.5 -9q-66 0 -110 42.5t-44 129.5q0 66 25 128.5t67 111t96.5 77.5
t113.5 29q34 0 56.5 -7.5t35 -19t17.5 -25.5t5 -26zM293 481q-21 0 -41 -20t-37.5 -52.5t-30.5 -74.5t-19 -87q87 38 125 83t38 94q0 57 -35 57z" />
    <glyph glyph-name="e" unicode="&#x11b;" horiz-adv-x="443" 
d="M439 426q0 -36 -23 -64.5t-61.5 -52t-88 -43t-103.5 -38.5q-1 -12 -1.5 -24.5t-0.5 -24.5q0 -63 17 -98.5t54 -35.5q35 0 76.5 33.5t77.5 91.5l16 -8q-24 -49 -50 -82.5t-54 -54.5t-58.5 -30t-62.5 -9q-66 0 -110 42.5t-44 129.5q0 66 25 128.5t67 111t96.5 77.5
t113.5 29q34 0 56.5 -7.5t35 -19t17.5 -25.5t5 -26zM293 481q-21 0 -41 -20t-37.5 -52.5t-30.5 -74.5t-19 -87q87 38 125 83t38 94q0 57 -35 57z" />
    <glyph glyph-name="e" unicode="&#x119;" horiz-adv-x="443" 
d="M439 426q0 -36 -23 -64.5t-61.5 -52t-88 -43t-103.5 -38.5q-1 -12 -1.5 -24.5t-0.5 -24.5q0 -63 17 -98.5t54 -35.5q35 0 76.5 33.5t77.5 91.5l16 -8q-24 -49 -50 -82.5t-54 -54.5t-58.5 -30t-62.5 -9q-66 0 -110 42.5t-44 129.5q0 66 25 128.5t67 111t96.5 77.5
t113.5 29q34 0 56.5 -7.5t35 -19t17.5 -25.5t5 -26zM293 481q-21 0 -41 -20t-37.5 -52.5t-30.5 -74.5t-19 -87q87 38 125 83t38 94q0 57 -35 57z" />
    <glyph glyph-name="e" unicode="&#x117;" horiz-adv-x="443" 
d="M439 426q0 -36 -23 -64.5t-61.5 -52t-88 -43t-103.5 -38.5q-1 -12 -1.5 -24.5t-0.5 -24.5q0 -63 17 -98.5t54 -35.5q35 0 76.5 33.5t77.5 91.5l16 -8q-24 -49 -50 -82.5t-54 -54.5t-58.5 -30t-62.5 -9q-66 0 -110 42.5t-44 129.5q0 66 25 128.5t67 111t96.5 77.5
t113.5 29q34 0 56.5 -7.5t35 -19t17.5 -25.5t5 -26zM293 481q-21 0 -41 -20t-37.5 -52.5t-30.5 -74.5t-19 -87q87 38 125 83t38 94q0 57 -35 57z" />
    <glyph glyph-name="e" unicode="&#x115;" horiz-adv-x="443" 
d="M439 426q0 -36 -23 -64.5t-61.5 -52t-88 -43t-103.5 -38.5q-1 -12 -1.5 -24.5t-0.5 -24.5q0 -63 17 -98.5t54 -35.5q35 0 76.5 33.5t77.5 91.5l16 -8q-24 -49 -50 -82.5t-54 -54.5t-58.5 -30t-62.5 -9q-66 0 -110 42.5t-44 129.5q0 66 25 128.5t67 111t96.5 77.5
t113.5 29q34 0 56.5 -7.5t35 -19t17.5 -25.5t5 -26zM293 481q-21 0 -41 -20t-37.5 -52.5t-30.5 -74.5t-19 -87q87 38 125 83t38 94q0 57 -35 57z" />
    <glyph glyph-name="e" unicode="&#x113;" horiz-adv-x="443" 
d="M439 426q0 -36 -23 -64.5t-61.5 -52t-88 -43t-103.5 -38.5q-1 -12 -1.5 -24.5t-0.5 -24.5q0 -63 17 -98.5t54 -35.5q35 0 76.5 33.5t77.5 91.5l16 -8q-24 -49 -50 -82.5t-54 -54.5t-58.5 -30t-62.5 -9q-66 0 -110 42.5t-44 129.5q0 66 25 128.5t67 111t96.5 77.5
t113.5 29q34 0 56.5 -7.5t35 -19t17.5 -25.5t5 -26zM293 481q-21 0 -41 -20t-37.5 -52.5t-30.5 -74.5t-19 -87q87 38 125 83t38 94q0 57 -35 57z" />
    <glyph glyph-name="e" unicode="&#xeb;" horiz-adv-x="443" 
d="M439 426q0 -36 -23 -64.5t-61.5 -52t-88 -43t-103.5 -38.5q-1 -12 -1.5 -24.5t-0.5 -24.5q0 -63 17 -98.5t54 -35.5q35 0 76.5 33.5t77.5 91.5l16 -8q-24 -49 -50 -82.5t-54 -54.5t-58.5 -30t-62.5 -9q-66 0 -110 42.5t-44 129.5q0 66 25 128.5t67 111t96.5 77.5
t113.5 29q34 0 56.5 -7.5t35 -19t17.5 -25.5t5 -26zM293 481q-21 0 -41 -20t-37.5 -52.5t-30.5 -74.5t-19 -87q87 38 125 83t38 94q0 57 -35 57z" />
    <glyph glyph-name="e" unicode="&#xea;" horiz-adv-x="443" 
d="M439 426q0 -36 -23 -64.5t-61.5 -52t-88 -43t-103.5 -38.5q-1 -12 -1.5 -24.5t-0.5 -24.5q0 -63 17 -98.5t54 -35.5q35 0 76.5 33.5t77.5 91.5l16 -8q-24 -49 -50 -82.5t-54 -54.5t-58.5 -30t-62.5 -9q-66 0 -110 42.5t-44 129.5q0 66 25 128.5t67 111t96.5 77.5
t113.5 29q34 0 56.5 -7.5t35 -19t17.5 -25.5t5 -26zM293 481q-21 0 -41 -20t-37.5 -52.5t-30.5 -74.5t-19 -87q87 38 125 83t38 94q0 57 -35 57z" />
    <glyph glyph-name="e" unicode="&#xe9;" horiz-adv-x="443" 
d="M439 426q0 -36 -23 -64.5t-61.5 -52t-88 -43t-103.5 -38.5q-1 -12 -1.5 -24.5t-0.5 -24.5q0 -63 17 -98.5t54 -35.5q35 0 76.5 33.5t77.5 91.5l16 -8q-24 -49 -50 -82.5t-54 -54.5t-58.5 -30t-62.5 -9q-66 0 -110 42.5t-44 129.5q0 66 25 128.5t67 111t96.5 77.5
t113.5 29q34 0 56.5 -7.5t35 -19t17.5 -25.5t5 -26zM293 481q-21 0 -41 -20t-37.5 -52.5t-30.5 -74.5t-19 -87q87 38 125 83t38 94q0 57 -35 57z" />
    <glyph glyph-name="e" unicode="&#xe8;" horiz-adv-x="443" 
d="M439 426q0 -36 -23 -64.5t-61.5 -52t-88 -43t-103.5 -38.5q-1 -12 -1.5 -24.5t-0.5 -24.5q0 -63 17 -98.5t54 -35.5q35 0 76.5 33.5t77.5 91.5l16 -8q-24 -49 -50 -82.5t-54 -54.5t-58.5 -30t-62.5 -9q-66 0 -110 42.5t-44 129.5q0 66 25 128.5t67 111t96.5 77.5
t113.5 29q34 0 56.5 -7.5t35 -19t17.5 -25.5t5 -26zM293 481q-21 0 -41 -20t-37.5 -52.5t-30.5 -74.5t-19 -87q87 38 125 83t38 94q0 57 -35 57z" />
    <glyph glyph-name="f" unicode="f" horiz-adv-x="390" 
d="M268 481h170l-5 -27h-169l-67 -450q-12 -78 -41.5 -130t-67 -83t-79 -44t-76.5 -13q-26 0 -54.5 5t-52 15.5t-39 26.5t-15.5 38q0 20 14.5 37t42.5 17t43 -18.5t25 -41t19.5 -41t27.5 -18.5q15 0 31.5 11t32.5 37t30.5 70t24.5 110l70 472h-103l7 27h100l7 46
q12 79 42 132t68 84t80 44t78 13q26 0 54 -5t51.5 -15.5t39 -26t15.5 -37.5q0 -20 -13.5 -36t-40.5 -16q-19 0 -32 8.5t-22 21.5t-16 28.5t-14 28.5t-15.5 21.5t-20.5 8.5q-14 0 -31 -11t-33.5 -38t-31 -71.5t-24.5 -111.5z" />
    <glyph glyph-name="g" unicode="g" horiz-adv-x="543" 
d="M291 503q26 0 55.5 -5.5t47.5 -16.5h189l-6 -48l-143 24q25 -20 38.5 -49t13.5 -65q0 -39 -17 -73t-48.5 -58.5t-75 -38.5t-97.5 -14q-10 0 -19 0.5t-18 2.5q-37 -6 -58 -19.5t-23 -33.5q-2 -15 10 -28t48 -13h85q41 0 79.5 -5t68 -18.5t47.5 -38.5t18 -65
q0 -51 -26.5 -89.5t-69.5 -65t-96 -39.5t-107 -13q-55 0 -97 9.5t-70.5 25.5t-43 37.5t-14.5 45.5q0 46 42.5 76.5t110.5 43.5q-50 7 -73 29t-23 53q0 44 41 74t119 41q-59 16 -92 58t-33 96q0 37 17.5 70t49 57.5t75 38.5t95.5 14zM61 -140q0 -26 10.5 -45t28.5 -31.5
t42 -19t51 -6.5q30 0 62 7t58.5 22t43 38.5t16.5 56.5q0 45 -33 66.5t-93 21.5h-110q-36 -14 -56 -43.5t-20 -66.5zM259 178q27 0 46 14.5t31 38.5t18 55t6 63q0 27 -4 51t-13.5 43t-24.5 30t-36 11q-27 0 -46 -14.5t-31.5 -38.5t-18.5 -54.5t-6 -62.5q0 -27 4 -51.5
t13.5 -43.5t24.5 -30t37 -11z" />
    <glyph glyph-name="g" unicode="&#x123;" horiz-adv-x="543" 
d="M291 503q26 0 55.5 -5.5t47.5 -16.5h189l-6 -48l-143 24q25 -20 38.5 -49t13.5 -65q0 -39 -17 -73t-48.5 -58.5t-75 -38.5t-97.5 -14q-10 0 -19 0.5t-18 2.5q-37 -6 -58 -19.5t-23 -33.5q-2 -15 10 -28t48 -13h85q41 0 79.5 -5t68 -18.5t47.5 -38.5t18 -65
q0 -51 -26.5 -89.5t-69.5 -65t-96 -39.5t-107 -13q-55 0 -97 9.5t-70.5 25.5t-43 37.5t-14.5 45.5q0 46 42.5 76.5t110.5 43.5q-50 7 -73 29t-23 53q0 44 41 74t119 41q-59 16 -92 58t-33 96q0 37 17.5 70t49 57.5t75 38.5t95.5 14zM61 -140q0 -26 10.5 -45t28.5 -31.5
t42 -19t51 -6.5q30 0 62 7t58.5 22t43 38.5t16.5 56.5q0 45 -33 66.5t-93 21.5h-110q-36 -14 -56 -43.5t-20 -66.5zM259 178q27 0 46 14.5t31 38.5t18 55t6 63q0 27 -4 51t-13.5 43t-24.5 30t-36 11q-27 0 -46 -14.5t-31.5 -38.5t-18.5 -54.5t-6 -62.5q0 -27 4 -51.5
t13.5 -43.5t24.5 -30t37 -11z" />
    <glyph glyph-name="g" unicode="&#x121;" horiz-adv-x="543" 
d="M291 503q26 0 55.5 -5.5t47.5 -16.5h189l-6 -48l-143 24q25 -20 38.5 -49t13.5 -65q0 -39 -17 -73t-48.5 -58.5t-75 -38.5t-97.5 -14q-10 0 -19 0.5t-18 2.5q-37 -6 -58 -19.5t-23 -33.5q-2 -15 10 -28t48 -13h85q41 0 79.5 -5t68 -18.5t47.5 -38.5t18 -65
q0 -51 -26.5 -89.5t-69.5 -65t-96 -39.5t-107 -13q-55 0 -97 9.5t-70.5 25.5t-43 37.5t-14.5 45.5q0 46 42.5 76.5t110.5 43.5q-50 7 -73 29t-23 53q0 44 41 74t119 41q-59 16 -92 58t-33 96q0 37 17.5 70t49 57.5t75 38.5t95.5 14zM61 -140q0 -26 10.5 -45t28.5 -31.5
t42 -19t51 -6.5q30 0 62 7t58.5 22t43 38.5t16.5 56.5q0 45 -33 66.5t-93 21.5h-110q-36 -14 -56 -43.5t-20 -66.5zM259 178q27 0 46 14.5t31 38.5t18 55t6 63q0 27 -4 51t-13.5 43t-24.5 30t-36 11q-27 0 -46 -14.5t-31.5 -38.5t-18.5 -54.5t-6 -62.5q0 -27 4 -51.5
t13.5 -43.5t24.5 -30t37 -11z" />
    <glyph glyph-name="g" unicode="&#x11f;" horiz-adv-x="543" 
d="M291 503q26 0 55.5 -5.5t47.5 -16.5h189l-6 -48l-143 24q25 -20 38.5 -49t13.5 -65q0 -39 -17 -73t-48.5 -58.5t-75 -38.5t-97.5 -14q-10 0 -19 0.5t-18 2.5q-37 -6 -58 -19.5t-23 -33.5q-2 -15 10 -28t48 -13h85q41 0 79.5 -5t68 -18.5t47.5 -38.5t18 -65
q0 -51 -26.5 -89.5t-69.5 -65t-96 -39.5t-107 -13q-55 0 -97 9.5t-70.5 25.5t-43 37.5t-14.5 45.5q0 46 42.5 76.5t110.5 43.5q-50 7 -73 29t-23 53q0 44 41 74t119 41q-59 16 -92 58t-33 96q0 37 17.5 70t49 57.5t75 38.5t95.5 14zM61 -140q0 -26 10.5 -45t28.5 -31.5
t42 -19t51 -6.5q30 0 62 7t58.5 22t43 38.5t16.5 56.5q0 45 -33 66.5t-93 21.5h-110q-36 -14 -56 -43.5t-20 -66.5zM259 178q27 0 46 14.5t31 38.5t18 55t6 63q0 27 -4 51t-13.5 43t-24.5 30t-36 11q-27 0 -46 -14.5t-31.5 -38.5t-18.5 -54.5t-6 -62.5q0 -27 4 -51.5
t13.5 -43.5t24.5 -30t37 -11z" />
    <glyph glyph-name="g" unicode="&#x11d;" horiz-adv-x="543" 
d="M291 503q26 0 55.5 -5.5t47.5 -16.5h189l-6 -48l-143 24q25 -20 38.5 -49t13.5 -65q0 -39 -17 -73t-48.5 -58.5t-75 -38.5t-97.5 -14q-10 0 -19 0.5t-18 2.5q-37 -6 -58 -19.5t-23 -33.5q-2 -15 10 -28t48 -13h85q41 0 79.5 -5t68 -18.5t47.5 -38.5t18 -65
q0 -51 -26.5 -89.5t-69.5 -65t-96 -39.5t-107 -13q-55 0 -97 9.5t-70.5 25.5t-43 37.5t-14.5 45.5q0 46 42.5 76.5t110.5 43.5q-50 7 -73 29t-23 53q0 44 41 74t119 41q-59 16 -92 58t-33 96q0 37 17.5 70t49 57.5t75 38.5t95.5 14zM61 -140q0 -26 10.5 -45t28.5 -31.5
t42 -19t51 -6.5q30 0 62 7t58.5 22t43 38.5t16.5 56.5q0 45 -33 66.5t-93 21.5h-110q-36 -14 -56 -43.5t-20 -66.5zM259 178q27 0 46 14.5t31 38.5t18 55t6 63q0 27 -4 51t-13.5 43t-24.5 30t-36 11q-27 0 -46 -14.5t-31.5 -38.5t-18.5 -54.5t-6 -62.5q0 -27 4 -51.5
t13.5 -43.5t24.5 -30t37 -11z" />
    <glyph glyph-name="h" unicode="h" horiz-adv-x="565" 
d="M209 334q33 85 82 128.5t105 43.5q45 0 67 -19t28.5 -50.5t2 -72.5t-11.5 -84l-29 -167q-5 -29 -3.5 -50t16.5 -21t36 24.5t42 65.5l17 -8q-11 -28 -24.5 -53t-32 -44t-41.5 -30t-52 -11q-56 0 -77.5 36.5t-5.5 122.5l24 137q14 75 10.5 116.5t-33.5 41.5q-28 0 -61 -37
t-63 -100l-48 -303h-129l109 707q3 14 2 25t-7.5 18.5t-20 11t-36.5 3.5h-13l3 22h214z" />
    <glyph glyph-name="h" unicode="&#x127;" horiz-adv-x="565" 
d="M209 334q33 85 82 128.5t105 43.5q45 0 67 -19t28.5 -50.5t2 -72.5t-11.5 -84l-29 -167q-5 -29 -3.5 -50t16.5 -21t36 24.5t42 65.5l17 -8q-11 -28 -24.5 -53t-32 -44t-41.5 -30t-52 -11q-56 0 -77.5 36.5t-5.5 122.5l24 137q14 75 10.5 116.5t-33.5 41.5q-28 0 -61 -37
t-63 -100l-48 -303h-129l109 707q3 14 2 25t-7.5 18.5t-20 11t-36.5 3.5h-13l3 22h214z" />
    <glyph glyph-name="h" unicode="&#x125;" horiz-adv-x="565" 
d="M209 334q33 85 82 128.5t105 43.5q45 0 67 -19t28.5 -50.5t2 -72.5t-11.5 -84l-29 -167q-5 -29 -3.5 -50t16.5 -21t36 24.5t42 65.5l17 -8q-11 -28 -24.5 -53t-32 -44t-41.5 -30t-52 -11q-56 0 -77.5 36.5t-5.5 122.5l24 137q14 75 10.5 116.5t-33.5 41.5q-28 0 -61 -37
t-63 -100l-48 -303h-129l109 707q3 14 2 25t-7.5 18.5t-20 11t-36.5 3.5h-13l3 22h214z" />
    <glyph glyph-name="i" unicode="i" horiz-adv-x="315" 
d="M137 701q0 35 24.5 60t59.5 25q17 0 32.5 -6.5t27 -18t18 -27t6.5 -33.5q0 -35 -24.5 -59t-59.5 -24q-18 0 -33 6.5t-26.5 17.5t-18 26.5t-6.5 32.5zM196 113q-6 -29 -4 -50t17 -21q16 0 36.5 24.5t42.5 65.5l16 -8q-10 -28 -24 -53t-32.5 -44t-41 -30t-50.5 -11
q-54 0 -78 38.5t-7 120.5l47 234q6 34 4.5 49.5t-13.5 15.5t-29.5 -14t-43.5 -51l-16 9q35 64 74 91t81 27q51 0 67.5 -35.5t1.5 -113.5z" />
    <glyph glyph-name="i" unicode="&#x1ecb;" horiz-adv-x="315" 
d="M137 701q0 35 24.5 60t59.5 25q17 0 32.5 -6.5t27 -18t18 -27t6.5 -33.5q0 -35 -24.5 -59t-59.5 -24q-18 0 -33 6.5t-26.5 17.5t-18 26.5t-6.5 32.5zM196 113q-6 -29 -4 -50t17 -21q16 0 36.5 24.5t42.5 65.5l16 -8q-10 -28 -24 -53t-32.5 -44t-41 -30t-50.5 -11
q-54 0 -78 38.5t-7 120.5l47 234q6 34 4.5 49.5t-13.5 15.5t-29.5 -14t-43.5 -51l-16 9q35 64 74 91t81 27q51 0 67.5 -35.5t1.5 -113.5z" />
    <glyph glyph-name="i" unicode="&#x131;" horiz-adv-x="315" 
d="M137 701q0 35 24.5 60t59.5 25q17 0 32.5 -6.5t27 -18t18 -27t6.5 -33.5q0 -35 -24.5 -59t-59.5 -24q-18 0 -33 6.5t-26.5 17.5t-18 26.5t-6.5 32.5zM196 113q-6 -29 -4 -50t17 -21q16 0 36.5 24.5t42.5 65.5l16 -8q-10 -28 -24 -53t-32.5 -44t-41 -30t-50.5 -11
q-54 0 -78 38.5t-7 120.5l47 234q6 34 4.5 49.5t-13.5 15.5t-29.5 -14t-43.5 -51l-16 9q35 64 74 91t81 27q51 0 67.5 -35.5t1.5 -113.5z" />
    <glyph glyph-name="i" unicode="&#x12f;" horiz-adv-x="315" 
d="M137 701q0 35 24.5 60t59.5 25q17 0 32.5 -6.5t27 -18t18 -27t6.5 -33.5q0 -35 -24.5 -59t-59.5 -24q-18 0 -33 6.5t-26.5 17.5t-18 26.5t-6.5 32.5zM196 113q-6 -29 -4 -50t17 -21q16 0 36.5 24.5t42.5 65.5l16 -8q-10 -28 -24 -53t-32.5 -44t-41 -30t-50.5 -11
q-54 0 -78 38.5t-7 120.5l47 234q6 34 4.5 49.5t-13.5 15.5t-29.5 -14t-43.5 -51l-16 9q35 64 74 91t81 27q51 0 67.5 -35.5t1.5 -113.5z" />
    <glyph glyph-name="i" unicode="&#x12d;" horiz-adv-x="315" 
d="M137 701q0 35 24.5 60t59.5 25q17 0 32.5 -6.5t27 -18t18 -27t6.5 -33.5q0 -35 -24.5 -59t-59.5 -24q-18 0 -33 6.5t-26.5 17.5t-18 26.5t-6.5 32.5zM196 113q-6 -29 -4 -50t17 -21q16 0 36.5 24.5t42.5 65.5l16 -8q-10 -28 -24 -53t-32.5 -44t-41 -30t-50.5 -11
q-54 0 -78 38.5t-7 120.5l47 234q6 34 4.5 49.5t-13.5 15.5t-29.5 -14t-43.5 -51l-16 9q35 64 74 91t81 27q51 0 67.5 -35.5t1.5 -113.5z" />
    <glyph glyph-name="i" unicode="&#x12b;" horiz-adv-x="315" 
d="M137 701q0 35 24.5 60t59.5 25q17 0 32.5 -6.5t27 -18t18 -27t6.5 -33.5q0 -35 -24.5 -59t-59.5 -24q-18 0 -33 6.5t-26.5 17.5t-18 26.5t-6.5 32.5zM196 113q-6 -29 -4 -50t17 -21q16 0 36.5 24.5t42.5 65.5l16 -8q-10 -28 -24 -53t-32.5 -44t-41 -30t-50.5 -11
q-54 0 -78 38.5t-7 120.5l47 234q6 34 4.5 49.5t-13.5 15.5t-29.5 -14t-43.5 -51l-16 9q35 64 74 91t81 27q51 0 67.5 -35.5t1.5 -113.5z" />
    <glyph glyph-name="i" unicode="&#x129;" horiz-adv-x="315" 
d="M137 701q0 35 24.5 60t59.5 25q17 0 32.5 -6.5t27 -18t18 -27t6.5 -33.5q0 -35 -24.5 -59t-59.5 -24q-18 0 -33 6.5t-26.5 17.5t-18 26.5t-6.5 32.5zM196 113q-6 -29 -4 -50t17 -21q16 0 36.5 24.5t42.5 65.5l16 -8q-10 -28 -24 -53t-32.5 -44t-41 -30t-50.5 -11
q-54 0 -78 38.5t-7 120.5l47 234q6 34 4.5 49.5t-13.5 15.5t-29.5 -14t-43.5 -51l-16 9q35 64 74 91t81 27q51 0 67.5 -35.5t1.5 -113.5z" />
    <glyph glyph-name="i" unicode="&#xef;" horiz-adv-x="315" 
d="M137 701q0 35 24.5 60t59.5 25q17 0 32.5 -6.5t27 -18t18 -27t6.5 -33.5q0 -35 -24.5 -59t-59.5 -24q-18 0 -33 6.5t-26.5 17.5t-18 26.5t-6.5 32.5zM196 113q-6 -29 -4 -50t17 -21q16 0 36.5 24.5t42.5 65.5l16 -8q-10 -28 -24 -53t-32.5 -44t-41 -30t-50.5 -11
q-54 0 -78 38.5t-7 120.5l47 234q6 34 4.5 49.5t-13.5 15.5t-29.5 -14t-43.5 -51l-16 9q35 64 74 91t81 27q51 0 67.5 -35.5t1.5 -113.5z" />
    <glyph glyph-name="i" unicode="&#xee;" horiz-adv-x="315" 
d="M137 701q0 35 24.5 60t59.5 25q17 0 32.5 -6.5t27 -18t18 -27t6.5 -33.5q0 -35 -24.5 -59t-59.5 -24q-18 0 -33 6.5t-26.5 17.5t-18 26.5t-6.5 32.5zM196 113q-6 -29 -4 -50t17 -21q16 0 36.5 24.5t42.5 65.5l16 -8q-10 -28 -24 -53t-32.5 -44t-41 -30t-50.5 -11
q-54 0 -78 38.5t-7 120.5l47 234q6 34 4.5 49.5t-13.5 15.5t-29.5 -14t-43.5 -51l-16 9q35 64 74 91t81 27q51 0 67.5 -35.5t1.5 -113.5z" />
    <glyph glyph-name="i" unicode="&#xed;" horiz-adv-x="315" 
d="M137 701q0 35 24.5 60t59.5 25q17 0 32.5 -6.5t27 -18t18 -27t6.5 -33.5q0 -35 -24.5 -59t-59.5 -24q-18 0 -33 6.5t-26.5 17.5t-18 26.5t-6.5 32.5zM196 113q-6 -29 -4 -50t17 -21q16 0 36.5 24.5t42.5 65.5l16 -8q-10 -28 -24 -53t-32.5 -44t-41 -30t-50.5 -11
q-54 0 -78 38.5t-7 120.5l47 234q6 34 4.5 49.5t-13.5 15.5t-29.5 -14t-43.5 -51l-16 9q35 64 74 91t81 27q51 0 67.5 -35.5t1.5 -113.5z" />
    <glyph glyph-name="i" unicode="&#xec;" horiz-adv-x="315" 
d="M137 701q0 35 24.5 60t59.5 25q17 0 32.5 -6.5t27 -18t18 -27t6.5 -33.5q0 -35 -24.5 -59t-59.5 -24q-18 0 -33 6.5t-26.5 17.5t-18 26.5t-6.5 32.5zM196 113q-6 -29 -4 -50t17 -21q16 0 36.5 24.5t42.5 65.5l16 -8q-10 -28 -24 -53t-32.5 -44t-41 -30t-50.5 -11
q-54 0 -78 38.5t-7 120.5l47 234q6 34 4.5 49.5t-13.5 15.5t-29.5 -14t-43.5 -51l-16 9q35 64 74 91t81 27q51 0 67.5 -35.5t1.5 -113.5z" />
    <glyph glyph-name="j" unicode="j" horiz-adv-x="287" 
d="M141 701q0 35 24.5 60t59.5 25t59.5 -25t24.5 -60q0 -17 -6.5 -32.5t-18 -26.5t-26.5 -17.5t-33 -6.5t-33 6.5t-26.5 17.5t-18 26.5t-6.5 32.5zM122 379q5 34 4 49.5t-13 15.5t-29 -14t-43 -51l-17 9q35 64 74 91t81 27q51 0 67 -35t2 -114l-42 -246q-12 -72 -30 -127
t-49.5 -100t-79.5 -83t-120 -75l-6 9q31 29 53.5 59.5t39 70t29.5 91.5t26 124z" />
    <glyph glyph-name="j" unicode="&#x237;" horiz-adv-x="287" 
d="M141 701q0 35 24.5 60t59.5 25t59.5 -25t24.5 -60q0 -17 -6.5 -32.5t-18 -26.5t-26.5 -17.5t-33 -6.5t-33 6.5t-26.5 17.5t-18 26.5t-6.5 32.5zM122 379q5 34 4 49.5t-13 15.5t-29 -14t-43 -51l-17 9q35 64 74 91t81 27q51 0 67 -35t2 -114l-42 -246q-12 -72 -30 -127
t-49.5 -100t-79.5 -83t-120 -75l-6 9q31 29 53.5 59.5t39 70t29.5 91.5t26 124z" />
    <glyph glyph-name="j" unicode="&#x135;" horiz-adv-x="287" 
d="M141 701q0 35 24.5 60t59.5 25t59.5 -25t24.5 -60q0 -17 -6.5 -32.5t-18 -26.5t-26.5 -17.5t-33 -6.5t-33 6.5t-26.5 17.5t-18 26.5t-6.5 32.5zM122 379q5 34 4 49.5t-13 15.5t-29 -14t-43 -51l-17 9q35 64 74 91t81 27q51 0 67 -35t2 -114l-42 -246q-12 -72 -30 -127
t-49.5 -100t-79.5 -83t-120 -75l-6 9q31 29 53.5 59.5t39 70t29.5 91.5t26 124z" />
    <glyph glyph-name="k" unicode="k" horiz-adv-x="538" 
d="M201 283h14q39 0 67 10.5t47 29t28 43t11 52.5q2 38 15 62t45 24q23 0 35 -13.5t12 -37.5q0 -23 -16.5 -51.5t-44.5 -54.5t-64.5 -47t-75.5 -28q39 -6 63 -18.5t39 -31t23 -42.5t14 -51q4 -22 11 -43t20 -36.5t34 -24t55 -5.5l2 -15q-24 -9 -50.5 -14t-49.5 -5
q-60 0 -96 27t-54 99q-7 29 -11.5 55t-12.5 46t-22.5 33t-40.5 16l-42 -262h-129l112 707q2 14 1.5 25t-7.5 18.5t-20.5 11t-36.5 3.5h-13l4 22h213z" />
    <glyph glyph-name="k" unicode="&#x137;" horiz-adv-x="538" 
d="M201 283h14q39 0 67 10.5t47 29t28 43t11 52.5q2 38 15 62t45 24q23 0 35 -13.5t12 -37.5q0 -23 -16.5 -51.5t-44.5 -54.5t-64.5 -47t-75.5 -28q39 -6 63 -18.5t39 -31t23 -42.5t14 -51q4 -22 11 -43t20 -36.5t34 -24t55 -5.5l2 -15q-24 -9 -50.5 -14t-49.5 -5
q-60 0 -96 27t-54 99q-7 29 -11.5 55t-12.5 46t-22.5 33t-40.5 16l-42 -262h-129l112 707q2 14 1.5 25t-7.5 18.5t-20.5 11t-36.5 3.5h-13l4 22h213z" />
    <glyph glyph-name="l" unicode="l" horiz-adv-x="288" 
d="M140 707q2 14 1.5 25t-7 18.5t-20 11t-36.5 3.5h-14l4 22h213l-108 -675q-5 -29 -3.5 -49.5t17.5 -20.5q15 0 36 24.5t42 65.5l17 -8q-11 -28 -25 -53t-32 -44t-41 -30t-50 -11q-58 0 -78.5 38.5t-6.5 120.5z" />
    <glyph glyph-name="l" unicode="&#x142;" horiz-adv-x="288" 
d="M140 707q2 14 1.5 25t-7 18.5t-20 11t-36.5 3.5h-14l4 22h213l-108 -675q-5 -29 -3.5 -49.5t17.5 -20.5q15 0 36 24.5t42 65.5l17 -8q-11 -28 -25 -53t-32 -44t-41 -30t-50 -11q-58 0 -78.5 38.5t-6.5 120.5z" />
    <glyph glyph-name="l" unicode="&#x140;" horiz-adv-x="288" 
d="M140 707q2 14 1.5 25t-7 18.5t-20 11t-36.5 3.5h-14l4 22h213l-108 -675q-5 -29 -3.5 -49.5t17.5 -20.5q15 0 36 24.5t42 65.5l17 -8q-11 -28 -25 -53t-32 -44t-41 -30t-50 -11q-58 0 -78.5 38.5t-6.5 120.5z" />
    <glyph glyph-name="l" unicode="&#x13e;" horiz-adv-x="288" 
d="M140 707q2 14 1.5 25t-7 18.5t-20 11t-36.5 3.5h-14l4 22h213l-108 -675q-5 -29 -3.5 -49.5t17.5 -20.5q15 0 36 24.5t42 65.5l17 -8q-11 -28 -25 -53t-32 -44t-41 -30t-50 -11q-58 0 -78.5 38.5t-6.5 120.5z" />
    <glyph glyph-name="l" unicode="&#x13c;" horiz-adv-x="288" 
d="M140 707q2 14 1.5 25t-7 18.5t-20 11t-36.5 3.5h-14l4 22h213l-108 -675q-5 -29 -3.5 -49.5t17.5 -20.5q15 0 36 24.5t42 65.5l17 -8q-11 -28 -25 -53t-32 -44t-41 -30t-50 -11q-58 0 -78.5 38.5t-6.5 120.5z" />
    <glyph glyph-name="l" unicode="&#x13a;" horiz-adv-x="288" 
d="M140 707q2 14 1.5 25t-7 18.5t-20 11t-36.5 3.5h-14l4 22h213l-108 -675q-5 -29 -3.5 -49.5t17.5 -20.5q15 0 36 24.5t42 65.5l17 -8q-11 -28 -25 -53t-32 -44t-41 -30t-50 -11q-58 0 -78.5 38.5t-6.5 120.5z" />
    <glyph glyph-name="m" unicode="m" horiz-adv-x="873" 
d="M720 -14q-56 0 -78 36.5t-6 122.5l25 135q6 34 9 63t1.5 50.5t-9.5 34t-24 12.5q-26 0 -59.5 -36t-62.5 -99l-49 -305h-129l45 280q4 25 7 53t2 52t-8.5 39.5t-25.5 15.5q-27 0 -60 -36.5t-62 -100.5l-49 -303h-129l61 379q6 34 4.5 49.5t-15.5 15.5q-12 0 -29 -14
t-43 -51l-16 9q35 64 74 91t81 27q24 0 41 -8t25.5 -27.5t8.5 -52.5t-11 -84q31 79 78.5 125.5t108.5 46.5q36 0 57 -13t31 -36t10 -53.5t-4 -66.5q32 78 79 123.5t105 45.5q45 0 67 -19t29 -50.5t2.5 -72.5t-12.5 -86l-29 -165q-5 -29 -3.5 -50t16.5 -21q16 0 36.5 24.5
t42.5 65.5l16 -8q-10 -28 -24 -53t-32 -44t-41.5 -30t-51.5 -11z" />
    <glyph glyph-name="n" unicode="n" horiz-adv-x="595" 
d="M20 388q35 64 74 91t81 27q24 0 41 -8t26 -27.5t8.5 -52.5t-11.5 -84q33 85 82 128.5t105 43.5q45 0 67 -19t28.5 -50.5t2 -72.5t-11.5 -84l-29 -167q-5 -29 -3.5 -50t16.5 -21q16 0 36.5 24.5t41.5 65.5l17 -8q-11 -28 -24.5 -53t-32 -44t-41.5 -30t-52 -11
q-56 0 -77.5 36.5t-5.5 122.5l25 137q13 75 9.5 116.5t-32.5 41.5t-61.5 -37t-62.5 -100l-49 -303h-129l61 379q6 34 4.5 49.5t-15.5 15.5q-12 0 -29 -14t-43 -51z" />
    <glyph glyph-name="n" unicode="&#x14b;" horiz-adv-x="595" 
d="M20 388q35 64 74 91t81 27q24 0 41 -8t26 -27.5t8.5 -52.5t-11.5 -84q33 85 82 128.5t105 43.5q45 0 67 -19t28.5 -50.5t2 -72.5t-11.5 -84l-29 -167q-5 -29 -3.5 -50t16.5 -21q16 0 36.5 24.5t41.5 65.5l17 -8q-11 -28 -24.5 -53t-32 -44t-41.5 -30t-52 -11
q-56 0 -77.5 36.5t-5.5 122.5l25 137q13 75 9.5 116.5t-32.5 41.5t-61.5 -37t-62.5 -100l-49 -303h-129l61 379q6 34 4.5 49.5t-15.5 15.5q-12 0 -29 -14t-43 -51z" />
    <glyph glyph-name="n" unicode="&#x148;" horiz-adv-x="595" 
d="M20 388q35 64 74 91t81 27q24 0 41 -8t26 -27.5t8.5 -52.5t-11.5 -84q33 85 82 128.5t105 43.5q45 0 67 -19t28.5 -50.5t2 -72.5t-11.5 -84l-29 -167q-5 -29 -3.5 -50t16.5 -21q16 0 36.5 24.5t41.5 65.5l17 -8q-11 -28 -24.5 -53t-32 -44t-41.5 -30t-52 -11
q-56 0 -77.5 36.5t-5.5 122.5l25 137q13 75 9.5 116.5t-32.5 41.5t-61.5 -37t-62.5 -100l-49 -303h-129l61 379q6 34 4.5 49.5t-15.5 15.5q-12 0 -29 -14t-43 -51z" />
    <glyph glyph-name="n" unicode="&#x146;" horiz-adv-x="595" 
d="M20 388q35 64 74 91t81 27q24 0 41 -8t26 -27.5t8.5 -52.5t-11.5 -84q33 85 82 128.5t105 43.5q45 0 67 -19t28.5 -50.5t2 -72.5t-11.5 -84l-29 -167q-5 -29 -3.5 -50t16.5 -21q16 0 36.5 24.5t41.5 65.5l17 -8q-11 -28 -24.5 -53t-32 -44t-41.5 -30t-52 -11
q-56 0 -77.5 36.5t-5.5 122.5l25 137q13 75 9.5 116.5t-32.5 41.5t-61.5 -37t-62.5 -100l-49 -303h-129l61 379q6 34 4.5 49.5t-15.5 15.5q-12 0 -29 -14t-43 -51z" />
    <glyph glyph-name="n" unicode="&#x144;" horiz-adv-x="595" 
d="M20 388q35 64 74 91t81 27q24 0 41 -8t26 -27.5t8.5 -52.5t-11.5 -84q33 85 82 128.5t105 43.5q45 0 67 -19t28.5 -50.5t2 -72.5t-11.5 -84l-29 -167q-5 -29 -3.5 -50t16.5 -21q16 0 36.5 24.5t41.5 65.5l17 -8q-11 -28 -24.5 -53t-32 -44t-41.5 -30t-52 -11
q-56 0 -77.5 36.5t-5.5 122.5l25 137q13 75 9.5 116.5t-32.5 41.5t-61.5 -37t-62.5 -100l-49 -303h-129l61 379q6 34 4.5 49.5t-15.5 15.5q-12 0 -29 -14t-43 -51z" />
    <glyph glyph-name="n" unicode="&#xf1;" horiz-adv-x="595" 
d="M20 388q35 64 74 91t81 27q24 0 41 -8t26 -27.5t8.5 -52.5t-11.5 -84q33 85 82 128.5t105 43.5q45 0 67 -19t28.5 -50.5t2 -72.5t-11.5 -84l-29 -167q-5 -29 -3.5 -50t16.5 -21q16 0 36.5 24.5t41.5 65.5l17 -8q-11 -28 -24.5 -53t-32 -44t-41.5 -30t-52 -11
q-56 0 -77.5 36.5t-5.5 122.5l25 137q13 75 9.5 116.5t-32.5 41.5t-61.5 -37t-62.5 -100l-49 -303h-129l61 379q6 34 4.5 49.5t-15.5 15.5q-12 0 -29 -14t-43 -51z" />
    <glyph glyph-name="o" unicode="o" horiz-adv-x="534" 
d="M22 158q0 68 27.5 130.5t72 110.5t101.5 76.5t116 28.5q45 0 78 -13.5t54.5 -37t31.5 -55t10 -67.5q0 -68 -27.5 -130t-72 -110t-101.5 -76.5t-116 -28.5q-45 0 -78 13.5t-54.5 37t-31.5 54.5t-10 67zM375 317q0 36 -3 66.5t-10.5 52.5t-20.5 34t-33 12q-34 0 -61 -29
t-46.5 -74t-30 -100t-10.5 -107q0 -36 3 -66.5t10.5 -52t21 -33.5t33.5 -12q34 0 61 29t46 74t29.5 99.5t10.5 106.5z" />
    <glyph glyph-name="o" unicode="&#x1ecd;" horiz-adv-x="534" 
d="M22 158q0 68 27.5 130.5t72 110.5t101.5 76.5t116 28.5q45 0 78 -13.5t54.5 -37t31.5 -55t10 -67.5q0 -68 -27.5 -130t-72 -110t-101.5 -76.5t-116 -28.5q-45 0 -78 13.5t-54.5 37t-31.5 54.5t-10 67zM375 317q0 36 -3 66.5t-10.5 52.5t-20.5 34t-33 12q-34 0 -61 -29
t-46.5 -74t-30 -100t-10.5 -107q0 -36 3 -66.5t10.5 -52t21 -33.5t33.5 -12q34 0 61 29t46 74t29.5 99.5t10.5 106.5z" />
    <glyph glyph-name="o" unicode="&#x153;" horiz-adv-x="534" 
d="M22 158q0 68 27.5 130.5t72 110.5t101.5 76.5t116 28.5q45 0 78 -13.5t54.5 -37t31.5 -55t10 -67.5q0 -68 -27.5 -130t-72 -110t-101.5 -76.5t-116 -28.5q-45 0 -78 13.5t-54.5 37t-31.5 54.5t-10 67zM375 317q0 36 -3 66.5t-10.5 52.5t-20.5 34t-33 12q-34 0 -61 -29
t-46.5 -74t-30 -100t-10.5 -107q0 -36 3 -66.5t10.5 -52t21 -33.5t33.5 -12q34 0 61 29t46 74t29.5 99.5t10.5 106.5z" />
    <glyph glyph-name="o" unicode="&#x151;" horiz-adv-x="534" 
d="M22 158q0 68 27.5 130.5t72 110.5t101.5 76.5t116 28.5q45 0 78 -13.5t54.5 -37t31.5 -55t10 -67.5q0 -68 -27.5 -130t-72 -110t-101.5 -76.5t-116 -28.5q-45 0 -78 13.5t-54.5 37t-31.5 54.5t-10 67zM375 317q0 36 -3 66.5t-10.5 52.5t-20.5 34t-33 12q-34 0 -61 -29
t-46.5 -74t-30 -100t-10.5 -107q0 -36 3 -66.5t10.5 -52t21 -33.5t33.5 -12q34 0 61 29t46 74t29.5 99.5t10.5 106.5z" />
    <glyph glyph-name="o" unicode="&#x14f;" horiz-adv-x="534" 
d="M22 158q0 68 27.5 130.5t72 110.5t101.5 76.5t116 28.5q45 0 78 -13.5t54.5 -37t31.5 -55t10 -67.5q0 -68 -27.5 -130t-72 -110t-101.5 -76.5t-116 -28.5q-45 0 -78 13.5t-54.5 37t-31.5 54.5t-10 67zM375 317q0 36 -3 66.5t-10.5 52.5t-20.5 34t-33 12q-34 0 -61 -29
t-46.5 -74t-30 -100t-10.5 -107q0 -36 3 -66.5t10.5 -52t21 -33.5t33.5 -12q34 0 61 29t46 74t29.5 99.5t10.5 106.5z" />
    <glyph glyph-name="o" unicode="&#x14d;" horiz-adv-x="534" 
d="M22 158q0 68 27.5 130.5t72 110.5t101.5 76.5t116 28.5q45 0 78 -13.5t54.5 -37t31.5 -55t10 -67.5q0 -68 -27.5 -130t-72 -110t-101.5 -76.5t-116 -28.5q-45 0 -78 13.5t-54.5 37t-31.5 54.5t-10 67zM375 317q0 36 -3 66.5t-10.5 52.5t-20.5 34t-33 12q-34 0 -61 -29
t-46.5 -74t-30 -100t-10.5 -107q0 -36 3 -66.5t10.5 -52t21 -33.5t33.5 -12q34 0 61 29t46 74t29.5 99.5t10.5 106.5z" />
    <glyph glyph-name="o" unicode="&#xf8;" horiz-adv-x="534" 
d="M22 158q0 68 27.5 130.5t72 110.5t101.5 76.5t116 28.5q45 0 78 -13.5t54.5 -37t31.5 -55t10 -67.5q0 -68 -27.5 -130t-72 -110t-101.5 -76.5t-116 -28.5q-45 0 -78 13.5t-54.5 37t-31.5 54.5t-10 67zM375 317q0 36 -3 66.5t-10.5 52.5t-20.5 34t-33 12q-34 0 -61 -29
t-46.5 -74t-30 -100t-10.5 -107q0 -36 3 -66.5t10.5 -52t21 -33.5t33.5 -12q34 0 61 29t46 74t29.5 99.5t10.5 106.5z" />
    <glyph glyph-name="o" unicode="&#xf6;" horiz-adv-x="534" 
d="M22 158q0 68 27.5 130.5t72 110.5t101.5 76.5t116 28.5q45 0 78 -13.5t54.5 -37t31.5 -55t10 -67.5q0 -68 -27.5 -130t-72 -110t-101.5 -76.5t-116 -28.5q-45 0 -78 13.5t-54.5 37t-31.5 54.5t-10 67zM375 317q0 36 -3 66.5t-10.5 52.5t-20.5 34t-33 12q-34 0 -61 -29
t-46.5 -74t-30 -100t-10.5 -107q0 -36 3 -66.5t10.5 -52t21 -33.5t33.5 -12q34 0 61 29t46 74t29.5 99.5t10.5 106.5z" />
    <glyph glyph-name="o" unicode="&#xf5;" horiz-adv-x="534" 
d="M22 158q0 68 27.5 130.5t72 110.5t101.5 76.5t116 28.5q45 0 78 -13.5t54.5 -37t31.5 -55t10 -67.5q0 -68 -27.5 -130t-72 -110t-101.5 -76.5t-116 -28.5q-45 0 -78 13.5t-54.5 37t-31.5 54.5t-10 67zM375 317q0 36 -3 66.5t-10.5 52.5t-20.5 34t-33 12q-34 0 -61 -29
t-46.5 -74t-30 -100t-10.5 -107q0 -36 3 -66.5t10.5 -52t21 -33.5t33.5 -12q34 0 61 29t46 74t29.5 99.5t10.5 106.5z" />
    <glyph glyph-name="o" unicode="&#xf4;" horiz-adv-x="534" 
d="M22 158q0 68 27.5 130.5t72 110.5t101.5 76.5t116 28.5q45 0 78 -13.5t54.5 -37t31.5 -55t10 -67.5q0 -68 -27.5 -130t-72 -110t-101.5 -76.5t-116 -28.5q-45 0 -78 13.5t-54.5 37t-31.5 54.5t-10 67zM375 317q0 36 -3 66.5t-10.5 52.5t-20.5 34t-33 12q-34 0 -61 -29
t-46.5 -74t-30 -100t-10.5 -107q0 -36 3 -66.5t10.5 -52t21 -33.5t33.5 -12q34 0 61 29t46 74t29.5 99.5t10.5 106.5z" />
    <glyph glyph-name="o" unicode="&#xf3;" horiz-adv-x="534" 
d="M22 158q0 68 27.5 130.5t72 110.5t101.5 76.5t116 28.5q45 0 78 -13.5t54.5 -37t31.5 -55t10 -67.5q0 -68 -27.5 -130t-72 -110t-101.5 -76.5t-116 -28.5q-45 0 -78 13.5t-54.5 37t-31.5 54.5t-10 67zM375 317q0 36 -3 66.5t-10.5 52.5t-20.5 34t-33 12q-34 0 -61 -29
t-46.5 -74t-30 -100t-10.5 -107q0 -36 3 -66.5t10.5 -52t21 -33.5t33.5 -12q34 0 61 29t46 74t29.5 99.5t10.5 106.5z" />
    <glyph glyph-name="o" unicode="&#xf2;" horiz-adv-x="534" 
d="M22 158q0 68 27.5 130.5t72 110.5t101.5 76.5t116 28.5q45 0 78 -13.5t54.5 -37t31.5 -55t10 -67.5q0 -68 -27.5 -130t-72 -110t-101.5 -76.5t-116 -28.5q-45 0 -78 13.5t-54.5 37t-31.5 54.5t-10 67zM375 317q0 36 -3 66.5t-10.5 52.5t-20.5 34t-33 12q-34 0 -61 -29
t-46.5 -74t-30 -100t-10.5 -107q0 -36 3 -66.5t10.5 -52t21 -33.5t33.5 -12q34 0 61 29t46 74t29.5 99.5t10.5 106.5z" />
    <glyph glyph-name="p" unicode="p" horiz-adv-x="588" 
d="M244 365q20 42 43 69.5t47 43.5t47.5 22t43.5 6q39 0 66.5 -14t45 -37t25 -51.5t7.5 -56.5q0 -69 -26 -133.5t-68 -115t-95.5 -81t-109.5 -30.5q-46 0 -80 21l-29 -190q-2 -15 -0.5 -26t9 -18t23 -10.5t41.5 -3.5h11l-3 -22h-304l3 22h10q44 0 58.5 13.5t19.5 41.5
l90 564q5 34 4 49.5t-15 15.5q-12 0 -29 -14t-43 -51l-17 9q35 64 74 91t81 27q52 0 68 -31.5t2 -109.5zM280 12q26 0 47.5 16.5t38.5 43t29 59.5t20 66.5t12 64.5t4 52q0 65 -17 98.5t-47 33.5q-11 0 -25.5 -5t-31 -18t-34.5 -35t-36 -55l-38 -242q11 -40 32 -59.5
t46 -19.5z" />
    <glyph glyph-name="p" unicode="&#xfe;" horiz-adv-x="588" 
d="M244 365q20 42 43 69.5t47 43.5t47.5 22t43.5 6q39 0 66.5 -14t45 -37t25 -51.5t7.5 -56.5q0 -69 -26 -133.5t-68 -115t-95.5 -81t-109.5 -30.5q-46 0 -80 21l-29 -190q-2 -15 -0.5 -26t9 -18t23 -10.5t41.5 -3.5h11l-3 -22h-304l3 22h10q44 0 58.5 13.5t19.5 41.5
l90 564q5 34 4 49.5t-15 15.5q-12 0 -29 -14t-43 -51l-17 9q35 64 74 91t81 27q52 0 68 -31.5t2 -109.5zM280 12q26 0 47.5 16.5t38.5 43t29 59.5t20 66.5t12 64.5t4 52q0 65 -17 98.5t-47 33.5q-11 0 -25.5 -5t-31 -18t-34.5 -35t-36 -55l-38 -242q11 -40 32 -59.5
t46 -19.5z" />
    <glyph glyph-name="q" unicode="q" horiz-adv-x="550" 
d="M187 -240h11q44 0 64.5 13.5t25.5 41.5l47 290q-39 -69 -84 -94t-90 -25q-42 0 -68.5 15.5t-42.5 39.5t-22 53t-6 56q0 74 28 138.5t72 112.5t97.5 76t105.5 28q30 0 60.5 -11t56.5 -39l50 40h38l-111 -677q-3 -15 -3.5 -26t5.5 -18t19.5 -10.5t39.5 -3.5h10l-3 -22h-303
zM386 413q-5 34 -23.5 51.5t-41.5 17.5q-36 0 -66 -31.5t-51 -79t-33 -102.5t-12 -102q0 -51 15 -86t48 -35q9 0 21 3t27 12.5t33 28t38 49.5z" />
    <glyph glyph-name="r" unicode="r" horiz-adv-x="424" 
d="M237 318q18 55 40.5 91t45.5 57.5t44 30t37 8.5q26 0 40.5 -13t14.5 -36q0 -37 -31 -49q-11 -5 -23 -6t-25.5 -2t-28.5 -3.5t-32 -9.5q-26 -9 -52 -41t-40 -92l-40 -253h-129l61 379q5 34 4 49.5t-15 15.5q-12 0 -29 -14t-43 -51l-16 9q35 64 74 91t81 27q22 0 39 -7.5
t26 -26t10 -50t-8 -79.5z" />
    <glyph glyph-name="r" unicode="&#x159;" horiz-adv-x="424" 
d="M237 318q18 55 40.5 91t45.5 57.5t44 30t37 8.5q26 0 40.5 -13t14.5 -36q0 -37 -31 -49q-11 -5 -23 -6t-25.5 -2t-28.5 -3.5t-32 -9.5q-26 -9 -52 -41t-40 -92l-40 -253h-129l61 379q5 34 4 49.5t-15 15.5q-12 0 -29 -14t-43 -51l-16 9q35 64 74 91t81 27q22 0 39 -7.5
t26 -26t10 -50t-8 -79.5z" />
    <glyph glyph-name="r" unicode="&#x157;" horiz-adv-x="424" 
d="M237 318q18 55 40.5 91t45.5 57.5t44 30t37 8.5q26 0 40.5 -13t14.5 -36q0 -37 -31 -49q-11 -5 -23 -6t-25.5 -2t-28.5 -3.5t-32 -9.5q-26 -9 -52 -41t-40 -92l-40 -253h-129l61 379q5 34 4 49.5t-15 15.5q-12 0 -29 -14t-43 -51l-16 9q35 64 74 91t81 27q22 0 39 -7.5
t26 -26t10 -50t-8 -79.5z" />
    <glyph glyph-name="r" unicode="&#x155;" horiz-adv-x="424" 
d="M237 318q18 55 40.5 91t45.5 57.5t44 30t37 8.5q26 0 40.5 -13t14.5 -36q0 -37 -31 -49q-11 -5 -23 -6t-25.5 -2t-28.5 -3.5t-32 -9.5q-26 -9 -52 -41t-40 -92l-40 -253h-129l61 379q5 34 4 49.5t-15 15.5q-12 0 -29 -14t-43 -51l-16 9q35 64 74 91t81 27q22 0 39 -7.5
t26 -26t10 -50t-8 -79.5z" />
    <glyph glyph-name="s" unicode="s" horiz-adv-x="423" 
d="M275 280q23 -21 40.5 -38.5t29.5 -34.5t18.5 -35t6.5 -39q0 -40 -18 -68t-46 -45.5t-63 -25.5t-68 -8q-30 0 -60.5 6t-55 17t-40 28t-15.5 39q0 24 14.5 38.5t40.5 14.5q31 0 46 -19t25.5 -41.5t22 -41.5t36.5 -19q27 0 49 17.5t22 57.5q0 16 -3 28.5t-10.5 24.5t-21 25
t-33.5 31l-46 41q-32 28 -56 60.5t-24 72.5q0 34 15.5 59.5t41.5 43t59.5 26t69.5 8.5q23 0 50.5 -5t51 -15t39.5 -26.5t16 -38.5q0 -17 -12.5 -30.5t-35.5 -13.5q-28 0 -42.5 16.5t-26 36.5t-25.5 36.5t-40 16.5t-40.5 -16.5t-14.5 -41.5q0 -30 17 -55t46 -51z" />
    <glyph glyph-name="s" unicode="&#x219;" horiz-adv-x="423" 
d="M275 280q23 -21 40.5 -38.5t29.5 -34.5t18.5 -35t6.5 -39q0 -40 -18 -68t-46 -45.5t-63 -25.5t-68 -8q-30 0 -60.5 6t-55 17t-40 28t-15.5 39q0 24 14.5 38.5t40.5 14.5q31 0 46 -19t25.5 -41.5t22 -41.5t36.5 -19q27 0 49 17.5t22 57.5q0 16 -3 28.5t-10.5 24.5t-21 25
t-33.5 31l-46 41q-32 28 -56 60.5t-24 72.5q0 34 15.5 59.5t41.5 43t59.5 26t69.5 8.5q23 0 50.5 -5t51 -15t39.5 -26.5t16 -38.5q0 -17 -12.5 -30.5t-35.5 -13.5q-28 0 -42.5 16.5t-26 36.5t-25.5 36.5t-40 16.5t-40.5 -16.5t-14.5 -41.5q0 -30 17 -55t46 -51z" />
    <glyph glyph-name="s" unicode="&#x161;" horiz-adv-x="423" 
d="M275 280q23 -21 40.5 -38.5t29.5 -34.5t18.5 -35t6.5 -39q0 -40 -18 -68t-46 -45.5t-63 -25.5t-68 -8q-30 0 -60.5 6t-55 17t-40 28t-15.5 39q0 24 14.5 38.5t40.5 14.5q31 0 46 -19t25.5 -41.5t22 -41.5t36.5 -19q27 0 49 17.5t22 57.5q0 16 -3 28.5t-10.5 24.5t-21 25
t-33.5 31l-46 41q-32 28 -56 60.5t-24 72.5q0 34 15.5 59.5t41.5 43t59.5 26t69.5 8.5q23 0 50.5 -5t51 -15t39.5 -26.5t16 -38.5q0 -17 -12.5 -30.5t-35.5 -13.5q-28 0 -42.5 16.5t-26 36.5t-25.5 36.5t-40 16.5t-40.5 -16.5t-14.5 -41.5q0 -30 17 -55t46 -51z" />
    <glyph glyph-name="s" unicode="&#x15f;" horiz-adv-x="423" 
d="M275 280q23 -21 40.5 -38.5t29.5 -34.5t18.5 -35t6.5 -39q0 -40 -18 -68t-46 -45.5t-63 -25.5t-68 -8q-30 0 -60.5 6t-55 17t-40 28t-15.5 39q0 24 14.5 38.5t40.5 14.5q31 0 46 -19t25.5 -41.5t22 -41.5t36.5 -19q27 0 49 17.5t22 57.5q0 16 -3 28.5t-10.5 24.5t-21 25
t-33.5 31l-46 41q-32 28 -56 60.5t-24 72.5q0 34 15.5 59.5t41.5 43t59.5 26t69.5 8.5q23 0 50.5 -5t51 -15t39.5 -26.5t16 -38.5q0 -17 -12.5 -30.5t-35.5 -13.5q-28 0 -42.5 16.5t-26 36.5t-25.5 36.5t-40 16.5t-40.5 -16.5t-14.5 -41.5q0 -30 17 -55t46 -51z" />
    <glyph glyph-name="s" unicode="&#x15d;" horiz-adv-x="423" 
d="M275 280q23 -21 40.5 -38.5t29.5 -34.5t18.5 -35t6.5 -39q0 -40 -18 -68t-46 -45.5t-63 -25.5t-68 -8q-30 0 -60.5 6t-55 17t-40 28t-15.5 39q0 24 14.5 38.5t40.5 14.5q31 0 46 -19t25.5 -41.5t22 -41.5t36.5 -19q27 0 49 17.5t22 57.5q0 16 -3 28.5t-10.5 24.5t-21 25
t-33.5 31l-46 41q-32 28 -56 60.5t-24 72.5q0 34 15.5 59.5t41.5 43t59.5 26t69.5 8.5q23 0 50.5 -5t51 -15t39.5 -26.5t16 -38.5q0 -17 -12.5 -30.5t-35.5 -13.5q-28 0 -42.5 16.5t-26 36.5t-25.5 36.5t-40 16.5t-40.5 -16.5t-14.5 -41.5q0 -30 17 -55t46 -51z" />
    <glyph glyph-name="s" unicode="&#x15b;" horiz-adv-x="423" 
d="M275 280q23 -21 40.5 -38.5t29.5 -34.5t18.5 -35t6.5 -39q0 -40 -18 -68t-46 -45.5t-63 -25.5t-68 -8q-30 0 -60.5 6t-55 17t-40 28t-15.5 39q0 24 14.5 38.5t40.5 14.5q31 0 46 -19t25.5 -41.5t22 -41.5t36.5 -19q27 0 49 17.5t22 57.5q0 16 -3 28.5t-10.5 24.5t-21 25
t-33.5 31l-46 41q-32 28 -56 60.5t-24 72.5q0 34 15.5 59.5t41.5 43t59.5 26t69.5 8.5q23 0 50.5 -5t51 -15t39.5 -26.5t16 -38.5q0 -17 -12.5 -30.5t-35.5 -13.5q-28 0 -42.5 16.5t-26 36.5t-25.5 36.5t-40 16.5t-40.5 -16.5t-14.5 -41.5q0 -30 17 -55t46 -51z" />
    <glyph glyph-name="s" unicode="&#xdf;" horiz-adv-x="423" 
d="M275 280q23 -21 40.5 -38.5t29.5 -34.5t18.5 -35t6.5 -39q0 -40 -18 -68t-46 -45.5t-63 -25.5t-68 -8q-30 0 -60.5 6t-55 17t-40 28t-15.5 39q0 24 14.5 38.5t40.5 14.5q31 0 46 -19t25.5 -41.5t22 -41.5t36.5 -19q27 0 49 17.5t22 57.5q0 16 -3 28.5t-10.5 24.5t-21 25
t-33.5 31l-46 41q-32 28 -56 60.5t-24 72.5q0 34 15.5 59.5t41.5 43t59.5 26t69.5 8.5q23 0 50.5 -5t51 -15t39.5 -26.5t16 -38.5q0 -17 -12.5 -30.5t-35.5 -13.5q-28 0 -42.5 16.5t-26 36.5t-25.5 36.5t-40 16.5t-40.5 -16.5t-14.5 -41.5q0 -30 17 -55t46 -51z" />
    <glyph glyph-name="t" unicode="t" horiz-adv-x="353" 
d="M119 454l-75 7l3 20h82l131 152h17l-25 -152h143l-4 -27h-143l-55 -341q-6 -38 -3 -54.5t19 -16.5q17 0 41 18t55 68l15 -8q-26 -61 -65 -97.5t-92 -36.5q-60 0 -84 37t-13 107z" />
    <glyph glyph-name="t" unicode="&#x21b;" horiz-adv-x="353" 
d="M119 454l-75 7l3 20h82l131 152h17l-25 -152h143l-4 -27h-143l-55 -341q-6 -38 -3 -54.5t19 -16.5q17 0 41 18t55 68l15 -8q-26 -61 -65 -97.5t-92 -36.5q-60 0 -84 37t-13 107z" />
    <glyph glyph-name="t" unicode="&#x167;" horiz-adv-x="353" 
d="M119 454l-75 7l3 20h82l131 152h17l-25 -152h143l-4 -27h-143l-55 -341q-6 -38 -3 -54.5t19 -16.5q17 0 41 18t55 68l15 -8q-26 -61 -65 -97.5t-92 -36.5q-60 0 -84 37t-13 107z" />
    <glyph glyph-name="t" unicode="&#x165;" horiz-adv-x="353" 
d="M119 454l-75 7l3 20h82l131 152h17l-25 -152h143l-4 -27h-143l-55 -341q-6 -38 -3 -54.5t19 -16.5q17 0 41 18t55 68l15 -8q-26 -61 -65 -97.5t-92 -36.5q-60 0 -84 37t-13 107z" />
    <glyph glyph-name="t" unicode="&#x163;" horiz-adv-x="353" 
d="M119 454l-75 7l3 20h82l131 152h17l-25 -152h143l-4 -27h-143l-55 -341q-6 -38 -3 -54.5t19 -16.5q17 0 41 18t55 68l15 -8q-26 -61 -65 -97.5t-92 -36.5q-60 0 -84 37t-13 107z" />
    <glyph glyph-name="u" unicode="u" horiz-adv-x="593" 
d="M169 -14q-45 0 -67 19t-28.5 50.5t-2 72t12.5 84.5l30 167q6 34 4.5 49.5t-13.5 15.5t-29 -14t-43 -51l-17 9q35 64 74 91t81 27q50 0 66.5 -35.5t1.5 -116.5l-27 -144q-5 -25 -7.5 -52t-1 -49.5t9.5 -37t25 -14.5q26 0 58 35t61 98l49 291h129l-61 -368q-5 -29 -3.5 -50
t16.5 -21t36 24.5t42 65.5l17 -8q-11 -28 -25 -53t-32 -44t-41 -30t-50 -11q-50 0 -74.5 32.5t-12.5 105.5l6 33q-32 -88 -80.5 -129.5t-103.5 -41.5z" />
    <glyph glyph-name="u" unicode="&#x1ee5;" horiz-adv-x="593" 
d="M169 -14q-45 0 -67 19t-28.5 50.5t-2 72t12.5 84.5l30 167q6 34 4.5 49.5t-13.5 15.5t-29 -14t-43 -51l-17 9q35 64 74 91t81 27q50 0 66.5 -35.5t1.5 -116.5l-27 -144q-5 -25 -7.5 -52t-1 -49.5t9.5 -37t25 -14.5q26 0 58 35t61 98l49 291h129l-61 -368q-5 -29 -3.5 -50
t16.5 -21t36 24.5t42 65.5l17 -8q-11 -28 -25 -53t-32 -44t-41 -30t-50 -11q-50 0 -74.5 32.5t-12.5 105.5l6 33q-32 -88 -80.5 -129.5t-103.5 -41.5z" />
    <glyph glyph-name="u" unicode="&#x173;" horiz-adv-x="593" 
d="M169 -14q-45 0 -67 19t-28.5 50.5t-2 72t12.5 84.5l30 167q6 34 4.5 49.5t-13.5 15.5t-29 -14t-43 -51l-17 9q35 64 74 91t81 27q50 0 66.5 -35.5t1.5 -116.5l-27 -144q-5 -25 -7.5 -52t-1 -49.5t9.5 -37t25 -14.5q26 0 58 35t61 98l49 291h129l-61 -368q-5 -29 -3.5 -50
t16.5 -21t36 24.5t42 65.5l17 -8q-11 -28 -25 -53t-32 -44t-41 -30t-50 -11q-50 0 -74.5 32.5t-12.5 105.5l6 33q-32 -88 -80.5 -129.5t-103.5 -41.5z" />
    <glyph glyph-name="u" unicode="&#x171;" horiz-adv-x="593" 
d="M169 -14q-45 0 -67 19t-28.5 50.5t-2 72t12.5 84.5l30 167q6 34 4.5 49.5t-13.5 15.5t-29 -14t-43 -51l-17 9q35 64 74 91t81 27q50 0 66.5 -35.5t1.5 -116.5l-27 -144q-5 -25 -7.5 -52t-1 -49.5t9.5 -37t25 -14.5q26 0 58 35t61 98l49 291h129l-61 -368q-5 -29 -3.5 -50
t16.5 -21t36 24.5t42 65.5l17 -8q-11 -28 -25 -53t-32 -44t-41 -30t-50 -11q-50 0 -74.5 32.5t-12.5 105.5l6 33q-32 -88 -80.5 -129.5t-103.5 -41.5z" />
    <glyph glyph-name="u" unicode="&#x16f;" horiz-adv-x="593" 
d="M169 -14q-45 0 -67 19t-28.5 50.5t-2 72t12.5 84.5l30 167q6 34 4.5 49.5t-13.5 15.5t-29 -14t-43 -51l-17 9q35 64 74 91t81 27q50 0 66.5 -35.5t1.5 -116.5l-27 -144q-5 -25 -7.5 -52t-1 -49.5t9.5 -37t25 -14.5q26 0 58 35t61 98l49 291h129l-61 -368q-5 -29 -3.5 -50
t16.5 -21t36 24.5t42 65.5l17 -8q-11 -28 -25 -53t-32 -44t-41 -30t-50 -11q-50 0 -74.5 32.5t-12.5 105.5l6 33q-32 -88 -80.5 -129.5t-103.5 -41.5z" />
    <glyph glyph-name="u" unicode="&#x16d;" horiz-adv-x="593" 
d="M169 -14q-45 0 -67 19t-28.5 50.5t-2 72t12.5 84.5l30 167q6 34 4.5 49.5t-13.5 15.5t-29 -14t-43 -51l-17 9q35 64 74 91t81 27q50 0 66.5 -35.5t1.5 -116.5l-27 -144q-5 -25 -7.5 -52t-1 -49.5t9.5 -37t25 -14.5q26 0 58 35t61 98l49 291h129l-61 -368q-5 -29 -3.5 -50
t16.5 -21t36 24.5t42 65.5l17 -8q-11 -28 -25 -53t-32 -44t-41 -30t-50 -11q-50 0 -74.5 32.5t-12.5 105.5l6 33q-32 -88 -80.5 -129.5t-103.5 -41.5z" />
    <glyph glyph-name="u" unicode="&#x16b;" horiz-adv-x="593" 
d="M169 -14q-45 0 -67 19t-28.5 50.5t-2 72t12.5 84.5l30 167q6 34 4.5 49.5t-13.5 15.5t-29 -14t-43 -51l-17 9q35 64 74 91t81 27q50 0 66.5 -35.5t1.5 -116.5l-27 -144q-5 -25 -7.5 -52t-1 -49.5t9.5 -37t25 -14.5q26 0 58 35t61 98l49 291h129l-61 -368q-5 -29 -3.5 -50
t16.5 -21t36 24.5t42 65.5l17 -8q-11 -28 -25 -53t-32 -44t-41 -30t-50 -11q-50 0 -74.5 32.5t-12.5 105.5l6 33q-32 -88 -80.5 -129.5t-103.5 -41.5z" />
    <glyph glyph-name="u" unicode="&#x169;" horiz-adv-x="593" 
d="M169 -14q-45 0 -67 19t-28.5 50.5t-2 72t12.5 84.5l30 167q6 34 4.5 49.5t-13.5 15.5t-29 -14t-43 -51l-17 9q35 64 74 91t81 27q50 0 66.5 -35.5t1.5 -116.5l-27 -144q-5 -25 -7.5 -52t-1 -49.5t9.5 -37t25 -14.5q26 0 58 35t61 98l49 291h129l-61 -368q-5 -29 -3.5 -50
t16.5 -21t36 24.5t42 65.5l17 -8q-11 -28 -25 -53t-32 -44t-41 -30t-50 -11q-50 0 -74.5 32.5t-12.5 105.5l6 33q-32 -88 -80.5 -129.5t-103.5 -41.5z" />
    <glyph glyph-name="u" unicode="&#xfc;" horiz-adv-x="593" 
d="M169 -14q-45 0 -67 19t-28.5 50.5t-2 72t12.5 84.5l30 167q6 34 4.5 49.5t-13.5 15.5t-29 -14t-43 -51l-17 9q35 64 74 91t81 27q50 0 66.5 -35.5t1.5 -116.5l-27 -144q-5 -25 -7.5 -52t-1 -49.5t9.5 -37t25 -14.5q26 0 58 35t61 98l49 291h129l-61 -368q-5 -29 -3.5 -50
t16.5 -21t36 24.5t42 65.5l17 -8q-11 -28 -25 -53t-32 -44t-41 -30t-50 -11q-50 0 -74.5 32.5t-12.5 105.5l6 33q-32 -88 -80.5 -129.5t-103.5 -41.5z" />
    <glyph glyph-name="u" unicode="&#xfb;" horiz-adv-x="593" 
d="M169 -14q-45 0 -67 19t-28.5 50.5t-2 72t12.5 84.5l30 167q6 34 4.5 49.5t-13.5 15.5t-29 -14t-43 -51l-17 9q35 64 74 91t81 27q50 0 66.5 -35.5t1.5 -116.5l-27 -144q-5 -25 -7.5 -52t-1 -49.5t9.5 -37t25 -14.5q26 0 58 35t61 98l49 291h129l-61 -368q-5 -29 -3.5 -50
t16.5 -21t36 24.5t42 65.5l17 -8q-11 -28 -25 -53t-32 -44t-41 -30t-50 -11q-50 0 -74.5 32.5t-12.5 105.5l6 33q-32 -88 -80.5 -129.5t-103.5 -41.5z" />
    <glyph glyph-name="u" unicode="&#xfa;" horiz-adv-x="593" 
d="M169 -14q-45 0 -67 19t-28.5 50.5t-2 72t12.5 84.5l30 167q6 34 4.5 49.5t-13.5 15.5t-29 -14t-43 -51l-17 9q35 64 74 91t81 27q50 0 66.5 -35.5t1.5 -116.5l-27 -144q-5 -25 -7.5 -52t-1 -49.5t9.5 -37t25 -14.5q26 0 58 35t61 98l49 291h129l-61 -368q-5 -29 -3.5 -50
t16.5 -21t36 24.5t42 65.5l17 -8q-11 -28 -25 -53t-32 -44t-41 -30t-50 -11q-50 0 -74.5 32.5t-12.5 105.5l6 33q-32 -88 -80.5 -129.5t-103.5 -41.5z" />
    <glyph glyph-name="u" unicode="&#xf9;" horiz-adv-x="593" 
d="M169 -14q-45 0 -67 19t-28.5 50.5t-2 72t12.5 84.5l30 167q6 34 4.5 49.5t-13.5 15.5t-29 -14t-43 -51l-17 9q35 64 74 91t81 27q50 0 66.5 -35.5t1.5 -116.5l-27 -144q-5 -25 -7.5 -52t-1 -49.5t9.5 -37t25 -14.5q26 0 58 35t61 98l49 291h129l-61 -368q-5 -29 -3.5 -50
t16.5 -21t36 24.5t42 65.5l17 -8q-11 -28 -25 -53t-32 -44t-41 -30t-50 -11q-50 0 -74.5 32.5t-12.5 105.5l6 33q-32 -88 -80.5 -129.5t-103.5 -41.5z" />
    <glyph glyph-name="v" unicode="v" horiz-adv-x="508" 
d="M138 -27q5 25 8 69.5t2.5 97t-4.5 106.5t-12 98t-20.5 72t-29.5 28q-13 0 -27 -14t-31 -51l-17 8q24 67 61 91.5t75 24.5q33 0 57 -18.5t39.5 -50.5t23 -75.5t10 -93.5t-1 -103.5t-9.5 -106.5q25 19 49.5 43.5t45.5 52t37 58t24 60.5q7 28 4 47.5t-10.5 34.5t-17 28
t-15.5 27q-11 15 -14 32.5t2 31.5t18.5 23.5t35.5 9.5q35 0 49.5 -30t14.5 -72q0 -62 -24 -128.5t-68.5 -126.5t-107 -107.5t-140.5 -70.5z" />
    <glyph glyph-name="w" unicode="w" horiz-adv-x="762" 
d="M739 401q0 -62 -23.5 -129t-67 -127t-105.5 -107t-138 -70l-7 5q6 38 8.5 90t0.5 111q-45 -69 -111.5 -124.5t-153.5 -81.5l-7 5q5 25 8 69.5t2.5 97t-4.5 106.5t-11.5 98t-19 72t-27.5 28q-13 0 -27 -14t-31 -51l-17 8q24 67 61 91.5t75 24.5q48 0 76 -40.5t40 -104.5
t10.5 -143.5t-11.5 -158.5q39 29 78.5 74.5t66.5 95.5q-5 71 -18 138.5t-36 116.5h125q37 -99 46.5 -206.5t-1.5 -220.5q24 19 48 43.5t44.5 52.5t36 58t23.5 61q7 28 4 47.5t-10.5 34.5t-17 28t-15.5 27q-11 15 -14 32.5t2 31.5t18.5 23.5t35.5 9.5q36 0 50 -30t14 -72z
" />
    <glyph glyph-name="w" unicode="&#x1e85;" horiz-adv-x="762" 
d="M739 401q0 -62 -23.5 -129t-67 -127t-105.5 -107t-138 -70l-7 5q6 38 8.5 90t0.5 111q-45 -69 -111.5 -124.5t-153.5 -81.5l-7 5q5 25 8 69.5t2.5 97t-4.5 106.5t-11.5 98t-19 72t-27.5 28q-13 0 -27 -14t-31 -51l-17 8q24 67 61 91.5t75 24.5q48 0 76 -40.5t40 -104.5
t10.5 -143.5t-11.5 -158.5q39 29 78.5 74.5t66.5 95.5q-5 71 -18 138.5t-36 116.5h125q37 -99 46.5 -206.5t-1.5 -220.5q24 19 48 43.5t44.5 52.5t36 58t23.5 61q7 28 4 47.5t-10.5 34.5t-17 28t-15.5 27q-11 15 -14 32.5t2 31.5t18.5 23.5t35.5 9.5q36 0 50 -30t14 -72z
" />
    <glyph glyph-name="w" unicode="&#x1e83;" horiz-adv-x="762" 
d="M739 401q0 -62 -23.5 -129t-67 -127t-105.5 -107t-138 -70l-7 5q6 38 8.5 90t0.5 111q-45 -69 -111.5 -124.5t-153.5 -81.5l-7 5q5 25 8 69.5t2.5 97t-4.5 106.5t-11.5 98t-19 72t-27.5 28q-13 0 -27 -14t-31 -51l-17 8q24 67 61 91.5t75 24.5q48 0 76 -40.5t40 -104.5
t10.5 -143.5t-11.5 -158.5q39 29 78.5 74.5t66.5 95.5q-5 71 -18 138.5t-36 116.5h125q37 -99 46.5 -206.5t-1.5 -220.5q24 19 48 43.5t44.5 52.5t36 58t23.5 61q7 28 4 47.5t-10.5 34.5t-17 28t-15.5 27q-11 15 -14 32.5t2 31.5t18.5 23.5t35.5 9.5q36 0 50 -30t14 -72z
" />
    <glyph glyph-name="w" unicode="&#x1e81;" horiz-adv-x="762" 
d="M739 401q0 -62 -23.5 -129t-67 -127t-105.5 -107t-138 -70l-7 5q6 38 8.5 90t0.5 111q-45 -69 -111.5 -124.5t-153.5 -81.5l-7 5q5 25 8 69.5t2.5 97t-4.5 106.5t-11.5 98t-19 72t-27.5 28q-13 0 -27 -14t-31 -51l-17 8q24 67 61 91.5t75 24.5q48 0 76 -40.5t40 -104.5
t10.5 -143.5t-11.5 -158.5q39 29 78.5 74.5t66.5 95.5q-5 71 -18 138.5t-36 116.5h125q37 -99 46.5 -206.5t-1.5 -220.5q24 19 48 43.5t44.5 52.5t36 58t23.5 61q7 28 4 47.5t-10.5 34.5t-17 28t-15.5 27q-11 15 -14 32.5t2 31.5t18.5 23.5t35.5 9.5q36 0 50 -30t14 -72z
" />
    <glyph glyph-name="w" unicode="&#x175;" horiz-adv-x="762" 
d="M739 401q0 -62 -23.5 -129t-67 -127t-105.5 -107t-138 -70l-7 5q6 38 8.5 90t0.5 111q-45 -69 -111.5 -124.5t-153.5 -81.5l-7 5q5 25 8 69.5t2.5 97t-4.5 106.5t-11.5 98t-19 72t-27.5 28q-13 0 -27 -14t-31 -51l-17 8q24 67 61 91.5t75 24.5q48 0 76 -40.5t40 -104.5
t10.5 -143.5t-11.5 -158.5q39 29 78.5 74.5t66.5 95.5q-5 71 -18 138.5t-36 116.5h125q37 -99 46.5 -206.5t-1.5 -220.5q24 19 48 43.5t44.5 52.5t36 58t23.5 61q7 28 4 47.5t-10.5 34.5t-17 28t-15.5 27q-11 15 -14 32.5t2 31.5t18.5 23.5t35.5 9.5q36 0 50 -30t14 -72z
" />
    <glyph glyph-name="x" unicode="x" horiz-adv-x="513" 
d="M412 49q12 0 29 21.5t34 60.5l17 -8q-23 -71 -58.5 -104t-77.5 -33q-41 0 -67.5 23.5t-45.5 85.5l-30 93l-101 -137q-26 -34 -48.5 -49.5t-45.5 -15.5q-17 0 -28 13t-11 36t9.5 47.5t23.5 45.5l15 -6q-20 -48 -16 -70t19 -22q16 0 34 17.5t45 55.5l92 124l-44 137
q-13 40 -22 60t-20 20q-12 0 -28.5 -21.5t-31.5 -52.5l-19 9q29 67 64 95.5t77 28.5q20 0 35 -6t28 -20.5t24 -39.5t23 -63l12 -41l78 100q26 33 48 51.5t46 18.5q19 0 30 -11t14 -29.5t-1.5 -43.5t-14.5 -52l-16 3q9 49 4 69.5t-21 20.5q-20 0 -38.5 -18t-44.5 -53l-72 -94
l54 -169q11 -36 22 -56.5t25 -20.5z" />
    <glyph glyph-name="y" unicode="y" horiz-adv-x="508" 
d="M144 503q48 0 76.5 -39t42 -102t13.5 -143.5t-10 -163.5q54 61 94.5 117.5t53.5 99.5q10 37 3.5 60t-19.5 40t-25 34t-12 43q0 22 14.5 38t44.5 16q37 0 50.5 -30t13.5 -72q0 -53 -20 -106t-54 -106t-77.5 -105t-91.5 -102q-120 -126 -210.5 -188t-157.5 -62
q-54 0 -85.5 23t-31.5 58q0 18 13.5 34t41.5 16q24 0 37 -14t22.5 -30.5t19 -30t26.5 -13.5q16 0 41 11.5t55 32.5t63.5 50t68.5 64q7 42 9.5 96t1 110.5t-7 111.5t-14.5 97.5t-22 69t-30 26.5q-12 0 -26 -14t-31 -51l-18 8q12 34 28.5 56.5t34.5 36t37 18.5t38 5z" />
    <glyph glyph-name="y" unicode="&#x1ef3;" horiz-adv-x="508" 
d="M144 503q48 0 76.5 -39t42 -102t13.5 -143.5t-10 -163.5q54 61 94.5 117.5t53.5 99.5q10 37 3.5 60t-19.5 40t-25 34t-12 43q0 22 14.5 38t44.5 16q37 0 50.5 -30t13.5 -72q0 -53 -20 -106t-54 -106t-77.5 -105t-91.5 -102q-120 -126 -210.5 -188t-157.5 -62
q-54 0 -85.5 23t-31.5 58q0 18 13.5 34t41.5 16q24 0 37 -14t22.5 -30.5t19 -30t26.5 -13.5q16 0 41 11.5t55 32.5t63.5 50t68.5 64q7 42 9.5 96t1 110.5t-7 111.5t-14.5 97.5t-22 69t-30 26.5q-12 0 -26 -14t-31 -51l-18 8q12 34 28.5 56.5t34.5 36t37 18.5t38 5z" />
    <glyph glyph-name="y" unicode="&#x233;" horiz-adv-x="508" 
d="M144 503q48 0 76.5 -39t42 -102t13.5 -143.5t-10 -163.5q54 61 94.5 117.5t53.5 99.5q10 37 3.5 60t-19.5 40t-25 34t-12 43q0 22 14.5 38t44.5 16q37 0 50.5 -30t13.5 -72q0 -53 -20 -106t-54 -106t-77.5 -105t-91.5 -102q-120 -126 -210.5 -188t-157.5 -62
q-54 0 -85.5 23t-31.5 58q0 18 13.5 34t41.5 16q24 0 37 -14t22.5 -30.5t19 -30t26.5 -13.5q16 0 41 11.5t55 32.5t63.5 50t68.5 64q7 42 9.5 96t1 110.5t-7 111.5t-14.5 97.5t-22 69t-30 26.5q-12 0 -26 -14t-31 -51l-18 8q12 34 28.5 56.5t34.5 36t37 18.5t38 5z" />
    <glyph glyph-name="y" unicode="&#x177;" horiz-adv-x="508" 
d="M144 503q48 0 76.5 -39t42 -102t13.5 -143.5t-10 -163.5q54 61 94.5 117.5t53.5 99.5q10 37 3.5 60t-19.5 40t-25 34t-12 43q0 22 14.5 38t44.5 16q37 0 50.5 -30t13.5 -72q0 -53 -20 -106t-54 -106t-77.5 -105t-91.5 -102q-120 -126 -210.5 -188t-157.5 -62
q-54 0 -85.5 23t-31.5 58q0 18 13.5 34t41.5 16q24 0 37 -14t22.5 -30.5t19 -30t26.5 -13.5q16 0 41 11.5t55 32.5t63.5 50t68.5 64q7 42 9.5 96t1 110.5t-7 111.5t-14.5 97.5t-22 69t-30 26.5q-12 0 -26 -14t-31 -51l-18 8q12 34 28.5 56.5t34.5 36t37 18.5t38 5z" />
    <glyph glyph-name="y" unicode="&#xff;" horiz-adv-x="508" 
d="M144 503q48 0 76.5 -39t42 -102t13.5 -143.5t-10 -163.5q54 61 94.5 117.5t53.5 99.5q10 37 3.5 60t-19.5 40t-25 34t-12 43q0 22 14.5 38t44.5 16q37 0 50.5 -30t13.5 -72q0 -53 -20 -106t-54 -106t-77.5 -105t-91.5 -102q-120 -126 -210.5 -188t-157.5 -62
q-54 0 -85.5 23t-31.5 58q0 18 13.5 34t41.5 16q24 0 37 -14t22.5 -30.5t19 -30t26.5 -13.5q16 0 41 11.5t55 32.5t63.5 50t68.5 64q7 42 9.5 96t1 110.5t-7 111.5t-14.5 97.5t-22 69t-30 26.5q-12 0 -26 -14t-31 -51l-18 8q12 34 28.5 56.5t34.5 36t37 18.5t38 5z" />
    <glyph glyph-name="y" unicode="&#xfd;" horiz-adv-x="508" 
d="M144 503q48 0 76.5 -39t42 -102t13.5 -143.5t-10 -163.5q54 61 94.5 117.5t53.5 99.5q10 37 3.5 60t-19.5 40t-25 34t-12 43q0 22 14.5 38t44.5 16q37 0 50.5 -30t13.5 -72q0 -53 -20 -106t-54 -106t-77.5 -105t-91.5 -102q-120 -126 -210.5 -188t-157.5 -62
q-54 0 -85.5 23t-31.5 58q0 18 13.5 34t41.5 16q24 0 37 -14t22.5 -30.5t19 -30t26.5 -13.5q16 0 41 11.5t55 32.5t63.5 50t68.5 64q7 42 9.5 96t1 110.5t-7 111.5t-14.5 97.5t-22 69t-30 26.5q-12 0 -26 -14t-31 -51l-18 8q12 34 28.5 56.5t34.5 36t37 18.5t38 5z" />
    <glyph glyph-name="z" unicode="z" horiz-adv-x="474" 
d="M123 116h187q73 0 97 75h15l-45 -191h-405l-3 7l373 358h-167q-36 0 -57.5 -18.5t-36.5 -56.5h-15l46 191h386l3 -7z" />
    <glyph glyph-name="z" unicode="&#x17e;" horiz-adv-x="474" 
d="M123 116h187q73 0 97 75h15l-45 -191h-405l-3 7l373 358h-167q-36 0 -57.5 -18.5t-36.5 -56.5h-15l46 191h386l3 -7z" />
    <glyph glyph-name="z" unicode="&#x17c;" horiz-adv-x="474" 
d="M123 116h187q73 0 97 75h15l-45 -191h-405l-3 7l373 358h-167q-36 0 -57.5 -18.5t-36.5 -56.5h-15l46 191h386l3 -7z" />
    <glyph glyph-name="z" unicode="&#x17a;" horiz-adv-x="474" 
d="M123 116h187q73 0 97 75h15l-45 -191h-405l-3 7l373 358h-167q-36 0 -57.5 -18.5t-36.5 -56.5h-15l46 191h386l3 -7z" />
    <glyph glyph-name="uni00A0" unicode="&#xa0;" 
 />
    <glyph glyph-name="uni00AD" unicode="&#xad;" horiz-adv-x="414" 
d="M66 278h294l-7 -45h-294z" />
    <glyph glyph-name="paragraph" unicode="&#xb6;" horiz-adv-x="553" 
d="M497 742l-130 -859h-47l131 859h-78l-130 -859h-47l77 507q-41 1 -75.5 13.5t-59.5 36t-39.5 56t-14.5 73.5t16 80.5t50 70t87.5 49t128.5 18.5h223l-7 -45h-85z" />
    <glyph glyph-name="periodcentered" unicode="&#xb7;" horiz-adv-x="270" 
d="M54 257q0 35 24 59t59 24t59 -24t24 -59t-24 -59t-59 -24t-59 24t-24 59z" />
    <glyph glyph-name="quoteright" unicode="&#x2019;" horiz-adv-x="255" 
d="M207 636q-30 4 -51 25t-21 55t22 59t62 25q37 0 59 -23.5t22 -61.5q0 -29 -14.5 -60.5t-42 -61.5t-67 -57.5t-88.5 -47.5l-4 8q48 29 82 67.5t41 72.5z" />
    <glyph glyph-name="bullet" unicode="&#x2022;" horiz-adv-x="458" 
d="M69 259q0 33 12.5 62t34.5 51t51 34.5t62 12.5q35 0 65.5 -12.5t53 -34.5t35 -51t12.5 -62q0 -35 -12.5 -65.5t-35 -53t-53 -35t-65.5 -12.5q-33 0 -62 12.5t-51 35t-34.5 53t-12.5 65.5z" />
    <glyph glyph-name="glyph67" horiz-adv-x="125" 
 />
    <glyph glyph-name="glyph68" horiz-adv-x="687" 
d="M486 -21q-12 -79 -37 -130t-57 -81t-67.5 -41.5t-69.5 -11.5q-24 0 -46 4.5t-39 14t-27 23.5t-10 32q0 22 14.5 38t40.5 16q27 0 37 -16.5t14.5 -37t8.5 -37t20 -16.5q14 0 25.5 10t21.5 35.5t19.5 69.5t19.5 112l75 491h-166l-61 -397q-14 -90 -43 -152t-66 -100
t-78.5 -54.5t-81.5 -16.5q-26 0 -54 5t-51.5 15.5t-39 26.5t-15.5 38q0 20 14.5 37t42.5 17q29 0 43 -18.5t23 -40.5t18 -40.5t28 -18.5q14 0 30.5 13t33.5 43.5t32.5 81t27.5 125.5l67 436h-101l6 27h99l4 26q12 79 42.5 132t68.5 84t80 44t78 13q18 0 37 -2.5t37 -8
t33.5 -13.5t26.5 -19q39 35 83 49t82 14q26 0 54 -5t51.5 -15.5t38.5 -26t15 -37.5q0 -20 -13 -36t-41 -16q-19 0 -32 8.5t-22 21.5t-15.5 28.5t-13.5 28.5t-15.5 21.5t-21.5 8.5q-14 0 -30.5 -11t-33 -38t-31.5 -71.5t-25 -111.5l-11 -68h172l-6 -27h-170zM267 481h166
l7 46q5 38 15 69t24 57q-15 10 -24.5 28t-17.5 36t-17 31t-24 13q-14 0 -30.5 -11t-33 -38t-32 -71.5t-25.5 -111.5z" />
    <glyph glyph-name="glyph70" horiz-adv-x="616" 
d="M493 113q-6 -29 -4 -50t17 -21q16 0 36.5 24.5t42.5 65.5l16 -8q-10 -28 -24 -53t-32.5 -44t-41 -30t-50.5 -11q-54 0 -78 38.5t-7 120.5l61 309h-165l-67 -450q-12 -78 -41.5 -130t-67 -83t-79 -44t-76.5 -13q-26 0 -54.5 5t-52 15.5t-39 26.5t-15.5 38q0 20 14.5 37
t42.5 17t43 -18.5t25 -41t19.5 -41t27.5 -18.5q15 0 31.5 11t32.5 37t30.5 70t24.5 110l70 472h-103l7 27h100l7 46q12 79 42.5 132t69.5 84t82 44t80 13q30 0 61 -6t55.5 -18t40.5 -30.5t16 -42.5q0 -23 -16.5 -41t-44.5 -18q-21 0 -35 10t-23.5 25.5t-16.5 33t-14 33
t-15.5 25.5t-21.5 10q-14 0 -32 -11t-35.5 -38t-33 -71.5t-25.5 -111.5l-10 -68h297z" />
    <glyph glyph-name="glyph72" horiz-adv-x="912" 
d="M486 -21q-12 -79 -37 -130t-57 -81t-67.5 -41.5t-69.5 -11.5q-24 0 -46 4.5t-39 14t-27 23.5t-10 32q0 22 14.5 38t40.5 16q27 0 37 -16.5t14.5 -37t8.5 -37t20 -16.5q14 0 25.5 10t21.5 35.5t19.5 69.5t19.5 112l75 491h-166l-61 -397q-14 -90 -43 -152t-66 -100
t-78.5 -54.5t-81.5 -16.5q-26 0 -54 5t-51.5 15.5t-39 26.5t-15.5 38q0 20 14.5 37t42.5 17q29 0 43 -18.5t23 -40.5t18 -40.5t28 -18.5q14 0 30.5 13t33.5 43.5t32.5 81t27.5 125.5l67 436h-101l6 27h99l4 26q12 79 42.5 132t68.5 84t80 44t78 13t74.5 -10.5t59.5 -33.5
q42 35 87 49.5t84 14.5q30 0 61 -6t55.5 -18t40.5 -30.5t16 -42.5q0 -23 -17 -41t-45 -18q-21 0 -35 10t-23.5 25.5t-16.5 33t-14 33t-15.5 25.5t-20.5 10q-15 0 -32.5 -11t-35.5 -38t-33.5 -71.5t-25.5 -111.5l-11 -68h298l-71 -368q-6 -29 -4 -50t17 -21t36 24.5t42 65.5
l17 -8q-11 -28 -25 -53t-32 -44t-41 -30t-50 -11q-54 0 -78 38.5t-7 120.5l61 309h-167zM267 481h166l7 46q5 38 15 68.5t24 56.5q-15 10 -24.5 28.5t-17.5 36.5t-17 31t-24 13q-14 0 -30.5 -11t-33 -38t-32 -71.5t-25.5 -111.5z" />
    <glyph glyph-name="glyph74" horiz-adv-x="622" 
d="M37 481h100l7 46q12 79 42 132t68 84t80 44t78 13q20 0 41.5 -3.5t41.5 -9.5h120l-108 -675q-5 -29 -3.5 -49.5t17.5 -20.5q15 0 36 24.5t42 65.5l17 -8q-11 -28 -25 -53t-32 -44t-41 -30t-50 -11q-58 0 -79 38.5t-7 120.5l87 539q-10 12 -16.5 29t-13.5 32t-16.5 25.5
t-24.5 10.5q-14 0 -31 -11t-33.5 -38t-31 -71.5t-24.5 -111.5l-10 -68h125l-5 -27h-124l-67 -450q-12 -78 -41.5 -130t-67 -83t-79 -44t-76.5 -13q-26 0 -54.5 5t-52 15.5t-39 26.5t-15.5 38q0 20 14.5 37t42.5 17t43 -18.5t25 -41t19.5 -41t27.5 -18.5q15 0 31.5 11
t32.5 37t30.5 70t24.5 110l70 472h-103z" />
    <glyph glyph-name="glyph76" horiz-adv-x="918" 
d="M137 481l4 26q12 79 42.5 132t68.5 84t80 44t78 13q18 0 37 -2.5t37 -8t33.5 -13.5t26.5 -19q39 35 83 49t82 14q20 0 41 -3.5t41 -9.5h120l-108 -675q-5 -29 -3.5 -49.5t17.5 -20.5t36.5 24.5t41.5 65.5l17 -8q-11 -28 -25 -53t-32 -44t-40.5 -30t-50.5 -11
q-58 0 -78.5 38.5t-6.5 120.5l87 539q-10 12 -17 29t-14 32t-16.5 25.5t-24.5 10.5q-14 0 -30.5 -11t-33.5 -38t-32 -71.5t-24 -111.5l-11 -68h127l-6 -27h-125l-73 -475q-12 -79 -37 -130t-57 -81t-67.5 -41.5t-69.5 -11.5q-24 0 -46 4.5t-39 14t-27 23.5t-10 32
q0 22 14.5 38t40.5 16q27 0 37 -16.5t14.5 -37t8.5 -37t20 -16.5q14 0 25.5 10t21.5 35.5t19.5 69.5t19.5 112l75 491h-166l-61 -397q-14 -90 -43 -152t-66 -100t-78.5 -54.5t-81.5 -16.5q-26 0 -54 5t-51.5 15.5t-39 26.5t-15.5 38q0 20 14.5 37t42.5 17q29 0 43 -18.5
t23 -40.5t18 -40.5t28 -18.5q14 0 30.5 13t33.5 43.5t32.5 81t27.5 125.5l67 436h-101l6 27h99zM267 481h166l7 46q5 38 15 69t24 57q-15 10 -24.5 28t-17.5 36t-17 31t-24 13q-14 0 -30.5 -11t-33 -38t-32 -71.5t-25.5 -111.5z" />
    <glyph glyph-name="glyph78" horiz-adv-x="196" 
d="M-211 0h-64l732 787h65z" />
    <glyph glyph-name="zero.numr" horiz-adv-x="423" 
d="M241 358q-39 0 -69.5 13.5t-50.5 38.5t-30.5 59t-10.5 76q0 54 16 99.5t44 79.5t66 53t82 19q79 0 120 -51.5t41 -135.5q0 -54 -16 -99.5t-44 -79.5t-66 -53t-82 -19zM240 381q23 0 41.5 26.5t31.5 66.5t20 86.5t7 85.5q0 64 -15 95.5t-35 31.5q-23 0 -41.5 -26.5
t-31.5 -66.5t-20 -86t-7 -85q0 -65 15 -96.5t35 -31.5z" />
    <glyph glyph-name="zero.dnom" horiz-adv-x="423" 
d="M183 -8q-39 0 -69.5 13.5t-50.5 38.5t-30.5 59t-10.5 76q0 54 16 99.5t44 79.5t66 53t82 19q79 0 120 -51.5t41 -135.5q0 -54 -16 -99.5t-44 -79.5t-66 -53t-82 -19zM182 15q23 0 41.5 26.5t31.5 66.5t20 86.5t7 85.5q0 64 -15 95.5t-35 31.5q-23 0 -41.5 -26.5
t-31.5 -66.5t-20 -86t-7 -85q0 -65 15 -96.5t35 -31.5z" />
    </font>
</defs>
</svg>
